G04 #@! TF.FileFunction,Copper,L2,Bot,Signal*
%FSLAX46Y46*%
G04 Gerber Fmt 4.6, Leading zero omitted, Abs format (unit mm)*
G04 Created by KiCad (PCBNEW 4.0.4-stable) date 05/31/18 11:07:36*
%MOMM*%
%LPD*%
G01*
G04 APERTURE LIST*
%ADD10C,0.100000*%
%ADD11R,1.200000X0.750000*%
%ADD12R,1.250000X1.500000*%
%ADD13R,0.750000X1.200000*%
%ADD14R,1.800000X1.800000*%
%ADD15C,1.800000*%
%ADD16R,1.700000X1.700000*%
%ADD17O,1.700000X1.700000*%
%ADD18C,2.499360*%
%ADD19C,4.000500*%
%ADD20R,2.400000X1.600000*%
%ADD21O,2.400000X1.600000*%
%ADD22C,0.800000*%
%ADD23C,0.600000*%
%ADD24C,0.500000*%
%ADD25C,0.250000*%
%ADD26C,0.800000*%
G04 APERTURE END LIST*
D10*
D11*
X127442000Y-112014000D03*
X125542000Y-112014000D03*
X127188000Y-92964000D03*
X125288000Y-92964000D03*
D12*
X128270000Y-105390000D03*
X128270000Y-102890000D03*
X128270000Y-100310000D03*
X128270000Y-97810000D03*
D11*
X128712000Y-94234000D03*
X126812000Y-94234000D03*
X128966000Y-110236000D03*
X127066000Y-110236000D03*
D13*
X130810000Y-95570000D03*
X130810000Y-97470000D03*
X130810000Y-113604000D03*
X130810000Y-115504000D03*
D12*
X135636000Y-103104000D03*
X135636000Y-100604000D03*
D11*
X124648000Y-104140000D03*
X122748000Y-104140000D03*
X138364000Y-93218000D03*
X136464000Y-93218000D03*
D13*
X142240000Y-94300000D03*
X142240000Y-96200000D03*
D14*
X157480000Y-91440000D03*
D15*
X154940000Y-91440000D03*
D16*
X116840000Y-91440000D03*
D17*
X119380000Y-91440000D03*
X116840000Y-93980000D03*
X119380000Y-93980000D03*
X116840000Y-96520000D03*
X119380000Y-96520000D03*
X116840000Y-99060000D03*
X119380000Y-99060000D03*
X116840000Y-101600000D03*
X119380000Y-101600000D03*
X116840000Y-104140000D03*
X119380000Y-104140000D03*
X116840000Y-106680000D03*
X119380000Y-106680000D03*
X116840000Y-109220000D03*
X119380000Y-109220000D03*
X116840000Y-111760000D03*
X119380000Y-111760000D03*
X116840000Y-114300000D03*
X119380000Y-114300000D03*
D18*
X140970000Y-107950000D03*
D19*
X140970000Y-113030000D03*
D18*
X146050000Y-107950000D03*
D19*
X146050000Y-113030000D03*
D18*
X135890000Y-107950000D03*
D19*
X135890000Y-113030000D03*
D16*
X162560000Y-99060000D03*
D17*
X165100000Y-99060000D03*
X162560000Y-101600000D03*
X165100000Y-101600000D03*
X162560000Y-104140000D03*
X165100000Y-104140000D03*
X162560000Y-106680000D03*
X165100000Y-106680000D03*
D20*
X149860000Y-96520000D03*
D21*
X157480000Y-104140000D03*
X149860000Y-99060000D03*
X157480000Y-101600000D03*
X149860000Y-101600000D03*
X157480000Y-99060000D03*
X149860000Y-104140000D03*
X157480000Y-96520000D03*
D22*
X159004000Y-91440000D03*
X150114000Y-90170000D03*
X143510000Y-107442000D03*
X138430000Y-107442000D03*
X132334000Y-94742000D03*
X132334000Y-97028000D03*
X132080000Y-100330000D03*
X132080000Y-104140000D03*
X128016000Y-91948000D03*
X132842000Y-92710000D03*
X132334000Y-109220000D03*
X128270000Y-114554000D03*
X128270000Y-113284000D03*
D23*
X126238000Y-105918000D03*
X121412000Y-111506000D03*
X121158000Y-93980000D03*
D22*
X122428000Y-105410000D03*
X125222000Y-94488000D03*
X125222000Y-110744000D03*
X125984000Y-99314000D03*
X129540000Y-101092000D03*
X138430000Y-92202000D03*
X128778000Y-93218000D03*
X128778000Y-111252000D03*
X128016000Y-106934000D03*
X129540000Y-104648000D03*
D23*
X132334000Y-96012000D03*
X132312000Y-113792000D03*
D22*
X136652000Y-104140000D03*
X134366000Y-103378000D03*
D23*
X141224000Y-94488000D03*
X143510000Y-94742000D03*
X126746000Y-102362000D03*
D24*
X122748000Y-104140000D02*
X122748000Y-105090000D01*
X122748000Y-105090000D02*
X122428000Y-105410000D01*
X125288000Y-92964000D02*
X125288000Y-94422000D01*
X125288000Y-94422000D02*
X125222000Y-94488000D01*
X125542000Y-112014000D02*
X125542000Y-111064000D01*
X125542000Y-111064000D02*
X125222000Y-110744000D01*
X128270000Y-100310000D02*
X128758000Y-100310000D01*
X128758000Y-100310000D02*
X129540000Y-101092000D01*
X128524000Y-100056000D02*
X128524000Y-100076000D01*
X128524000Y-100076000D02*
X129540000Y-101092000D01*
X127762000Y-99314000D02*
X125984000Y-99314000D01*
X129540000Y-101092000D02*
X127762000Y-99314000D01*
X138364000Y-93218000D02*
X138364000Y-92268000D01*
X138364000Y-92268000D02*
X138430000Y-92202000D01*
X128524000Y-93472000D02*
X128524000Y-94234000D01*
X128778000Y-93218000D02*
X128524000Y-93472000D01*
X128778000Y-111252000D02*
X129032000Y-110236000D01*
X129540000Y-104648000D02*
X128290000Y-105410000D01*
X128290000Y-105410000D02*
X128270000Y-105390000D01*
X129540000Y-104648000D02*
X128016000Y-106934000D01*
D25*
X130810000Y-95570000D02*
X131892000Y-95570000D01*
X131892000Y-95570000D02*
X132334000Y-96012000D01*
X130810000Y-113604000D02*
X132124000Y-113604000D01*
X132124000Y-113604000D02*
X132312000Y-113792000D01*
D24*
X135636000Y-103104000D02*
X135636000Y-103124000D01*
D26*
X135636000Y-103124000D02*
X136652000Y-104140000D01*
X135890000Y-103378000D02*
X134366000Y-103378000D01*
D24*
X136652000Y-104140000D02*
X135890000Y-103378000D01*
D25*
X142240000Y-94300000D02*
X141412000Y-94300000D01*
X141412000Y-94300000D02*
X141224000Y-94488000D01*
X143068000Y-94300000D02*
X142240000Y-94300000D01*
X143510000Y-94742000D02*
X143068000Y-94300000D01*
X120650000Y-102362000D02*
X119888000Y-101600000D01*
X126746000Y-102362000D02*
X120650000Y-102362000D01*
X119888000Y-101600000D02*
X119380000Y-101600000D01*
G36*
X159570000Y-96520000D02*
X159604254Y-96692208D01*
X159701802Y-96838198D01*
X159847792Y-96935746D01*
X160020000Y-96970000D01*
X167190000Y-96970000D01*
X167190000Y-108770000D01*
X149860000Y-108770000D01*
X149687792Y-108804254D01*
X149541802Y-108901802D01*
X149444254Y-109047792D01*
X149410000Y-109220000D01*
X149410000Y-116390000D01*
X114750000Y-116390000D01*
X114750000Y-114300000D01*
X115591001Y-114300000D01*
X115684249Y-114768787D01*
X115949795Y-115166206D01*
X116347214Y-115431752D01*
X116816001Y-115525000D01*
X116863999Y-115525000D01*
X117332786Y-115431752D01*
X117730205Y-115166206D01*
X117995751Y-114768787D01*
X118088999Y-114300000D01*
X118131001Y-114300000D01*
X118224249Y-114768787D01*
X118489795Y-115166206D01*
X118887214Y-115431752D01*
X119356001Y-115525000D01*
X119403999Y-115525000D01*
X119872786Y-115431752D01*
X120270205Y-115166206D01*
X120535751Y-114768787D01*
X120628999Y-114300000D01*
X120535751Y-113831213D01*
X120270205Y-113433794D01*
X119872786Y-113168248D01*
X119403999Y-113075000D01*
X119356001Y-113075000D01*
X118887214Y-113168248D01*
X118489795Y-113433794D01*
X118224249Y-113831213D01*
X118131001Y-114300000D01*
X118088999Y-114300000D01*
X117995751Y-113831213D01*
X117730205Y-113433794D01*
X117332786Y-113168248D01*
X116863999Y-113075000D01*
X116816001Y-113075000D01*
X116347214Y-113168248D01*
X115949795Y-113433794D01*
X115684249Y-113831213D01*
X115591001Y-114300000D01*
X114750000Y-114300000D01*
X114750000Y-113004000D01*
X130052654Y-113004000D01*
X130052654Y-114204000D01*
X130078802Y-114342966D01*
X130160931Y-114470599D01*
X130286246Y-114556223D01*
X130435000Y-114586346D01*
X131185000Y-114586346D01*
X131323966Y-114560198D01*
X131451599Y-114478069D01*
X131537223Y-114352754D01*
X131567346Y-114204000D01*
X131567346Y-114104000D01*
X131710565Y-114104000D01*
X131739429Y-114173857D01*
X131929144Y-114363903D01*
X132177145Y-114466883D01*
X132445677Y-114467117D01*
X132693857Y-114364571D01*
X132883903Y-114174856D01*
X132986883Y-113926855D01*
X132987117Y-113658323D01*
X132884571Y-113410143D01*
X132694856Y-113220097D01*
X132446855Y-113117117D01*
X132188814Y-113116892D01*
X132124000Y-113104000D01*
X131567346Y-113104000D01*
X131567346Y-113004000D01*
X131541198Y-112865034D01*
X131459069Y-112737401D01*
X131333754Y-112651777D01*
X131185000Y-112621654D01*
X130435000Y-112621654D01*
X130296034Y-112647802D01*
X130168401Y-112729931D01*
X130082777Y-112855246D01*
X130052654Y-113004000D01*
X114750000Y-113004000D01*
X114750000Y-111760000D01*
X115591001Y-111760000D01*
X115684249Y-112228787D01*
X115949795Y-112626206D01*
X116347214Y-112891752D01*
X116816001Y-112985000D01*
X116863999Y-112985000D01*
X117332786Y-112891752D01*
X117730205Y-112626206D01*
X117995751Y-112228787D01*
X118088999Y-111760000D01*
X118131001Y-111760000D01*
X118224249Y-112228787D01*
X118489795Y-112626206D01*
X118887214Y-112891752D01*
X119356001Y-112985000D01*
X119403999Y-112985000D01*
X119872786Y-112891752D01*
X120270205Y-112626206D01*
X120535751Y-112228787D01*
X120628999Y-111760000D01*
X120535751Y-111291213D01*
X120272669Y-110897481D01*
X124446866Y-110897481D01*
X124564604Y-111182429D01*
X124718867Y-111336961D01*
X124675401Y-111364931D01*
X124589777Y-111490246D01*
X124559654Y-111639000D01*
X124559654Y-112389000D01*
X124585802Y-112527966D01*
X124667931Y-112655599D01*
X124793246Y-112741223D01*
X124942000Y-112771346D01*
X126142000Y-112771346D01*
X126280966Y-112745198D01*
X126408599Y-112663069D01*
X126494223Y-112537754D01*
X126524346Y-112389000D01*
X126524346Y-111639000D01*
X126498198Y-111500034D01*
X126416069Y-111372401D01*
X126290754Y-111286777D01*
X126167000Y-111261717D01*
X126167000Y-111064000D01*
X126146954Y-110963223D01*
X126119425Y-110824822D01*
X126065158Y-110743606D01*
X125997089Y-110641734D01*
X125997134Y-110590519D01*
X125879396Y-110305571D01*
X125661575Y-110087370D01*
X125376833Y-109969135D01*
X125068519Y-109968866D01*
X124783571Y-110086604D01*
X124565370Y-110304425D01*
X124447135Y-110589167D01*
X124446866Y-110897481D01*
X120272669Y-110897481D01*
X120270205Y-110893794D01*
X119872786Y-110628248D01*
X119403999Y-110535000D01*
X119356001Y-110535000D01*
X118887214Y-110628248D01*
X118489795Y-110893794D01*
X118224249Y-111291213D01*
X118131001Y-111760000D01*
X118088999Y-111760000D01*
X117995751Y-111291213D01*
X117730205Y-110893794D01*
X117332786Y-110628248D01*
X116863999Y-110535000D01*
X116816001Y-110535000D01*
X116347214Y-110628248D01*
X115949795Y-110893794D01*
X115684249Y-111291213D01*
X115591001Y-111760000D01*
X114750000Y-111760000D01*
X114750000Y-109220000D01*
X115591001Y-109220000D01*
X115684249Y-109688787D01*
X115949795Y-110086206D01*
X116347214Y-110351752D01*
X116816001Y-110445000D01*
X116863999Y-110445000D01*
X117332786Y-110351752D01*
X117730205Y-110086206D01*
X117995751Y-109688787D01*
X118088999Y-109220000D01*
X118131001Y-109220000D01*
X118224249Y-109688787D01*
X118489795Y-110086206D01*
X118887214Y-110351752D01*
X119356001Y-110445000D01*
X119403999Y-110445000D01*
X119872786Y-110351752D01*
X120270205Y-110086206D01*
X120420682Y-109861000D01*
X127983654Y-109861000D01*
X127983654Y-110611000D01*
X128009802Y-110749966D01*
X128091931Y-110877599D01*
X128093782Y-110878864D01*
X128003135Y-111097167D01*
X128002866Y-111405481D01*
X128120604Y-111690429D01*
X128338425Y-111908630D01*
X128623167Y-112026865D01*
X128931481Y-112027134D01*
X129216429Y-111909396D01*
X129434630Y-111691575D01*
X129552865Y-111406833D01*
X129553134Y-111098519D01*
X129509677Y-110993346D01*
X129566000Y-110993346D01*
X129704966Y-110967198D01*
X129832599Y-110885069D01*
X129918223Y-110759754D01*
X129948346Y-110611000D01*
X129948346Y-109861000D01*
X129922198Y-109722034D01*
X129840069Y-109594401D01*
X129714754Y-109508777D01*
X129566000Y-109478654D01*
X128366000Y-109478654D01*
X128227034Y-109504802D01*
X128099401Y-109586931D01*
X128013777Y-109712246D01*
X127983654Y-109861000D01*
X120420682Y-109861000D01*
X120535751Y-109688787D01*
X120628999Y-109220000D01*
X120535751Y-108751213D01*
X120270205Y-108353794D01*
X120147419Y-108271751D01*
X134265039Y-108271751D01*
X134511861Y-108869105D01*
X134968491Y-109326533D01*
X135565413Y-109574397D01*
X136211751Y-109574961D01*
X136809105Y-109328139D01*
X137266533Y-108871509D01*
X137514397Y-108274587D01*
X137514399Y-108271751D01*
X139345039Y-108271751D01*
X139591861Y-108869105D01*
X140048491Y-109326533D01*
X140645413Y-109574397D01*
X141291751Y-109574961D01*
X141889105Y-109328139D01*
X142346533Y-108871509D01*
X142594397Y-108274587D01*
X142594399Y-108271751D01*
X144425039Y-108271751D01*
X144671861Y-108869105D01*
X145128491Y-109326533D01*
X145725413Y-109574397D01*
X146371751Y-109574961D01*
X146969105Y-109328139D01*
X147426533Y-108871509D01*
X147674397Y-108274587D01*
X147674961Y-107628249D01*
X147428139Y-107030895D01*
X147077857Y-106680000D01*
X163851001Y-106680000D01*
X163944249Y-107148787D01*
X164209795Y-107546206D01*
X164607214Y-107811752D01*
X165076001Y-107905000D01*
X165123999Y-107905000D01*
X165592786Y-107811752D01*
X165990205Y-107546206D01*
X166255751Y-107148787D01*
X166348999Y-106680000D01*
X166255751Y-106211213D01*
X165990205Y-105813794D01*
X165592786Y-105548248D01*
X165123999Y-105455000D01*
X165076001Y-105455000D01*
X164607214Y-105548248D01*
X164209795Y-105813794D01*
X163944249Y-106211213D01*
X163851001Y-106680000D01*
X147077857Y-106680000D01*
X146971509Y-106573467D01*
X146374587Y-106325603D01*
X145728249Y-106325039D01*
X145130895Y-106571861D01*
X144673467Y-107028491D01*
X144425603Y-107625413D01*
X144425039Y-108271751D01*
X142594399Y-108271751D01*
X142594961Y-107628249D01*
X142348139Y-107030895D01*
X141891509Y-106573467D01*
X141294587Y-106325603D01*
X140648249Y-106325039D01*
X140050895Y-106571861D01*
X139593467Y-107028491D01*
X139345603Y-107625413D01*
X139345039Y-108271751D01*
X137514399Y-108271751D01*
X137514961Y-107628249D01*
X137268139Y-107030895D01*
X136811509Y-106573467D01*
X136214587Y-106325603D01*
X135568249Y-106325039D01*
X134970895Y-106571861D01*
X134513467Y-107028491D01*
X134265603Y-107625413D01*
X134265039Y-108271751D01*
X120147419Y-108271751D01*
X119872786Y-108088248D01*
X119403999Y-107995000D01*
X119356001Y-107995000D01*
X118887214Y-108088248D01*
X118489795Y-108353794D01*
X118224249Y-108751213D01*
X118131001Y-109220000D01*
X118088999Y-109220000D01*
X117995751Y-108751213D01*
X117730205Y-108353794D01*
X117332786Y-108088248D01*
X116863999Y-107995000D01*
X116816001Y-107995000D01*
X116347214Y-108088248D01*
X115949795Y-108353794D01*
X115684249Y-108751213D01*
X115591001Y-109220000D01*
X114750000Y-109220000D01*
X114750000Y-106680000D01*
X115591001Y-106680000D01*
X115684249Y-107148787D01*
X115949795Y-107546206D01*
X116347214Y-107811752D01*
X116816001Y-107905000D01*
X116863999Y-107905000D01*
X117332786Y-107811752D01*
X117730205Y-107546206D01*
X117995751Y-107148787D01*
X118088999Y-106680000D01*
X118131001Y-106680000D01*
X118224249Y-107148787D01*
X118489795Y-107546206D01*
X118887214Y-107811752D01*
X119356001Y-107905000D01*
X119403999Y-107905000D01*
X119872786Y-107811752D01*
X120270205Y-107546206D01*
X120535751Y-107148787D01*
X120547945Y-107087481D01*
X127240866Y-107087481D01*
X127358604Y-107372429D01*
X127576425Y-107590630D01*
X127861167Y-107708865D01*
X128169481Y-107709134D01*
X128454429Y-107591396D01*
X128672630Y-107373575D01*
X128790865Y-107088833D01*
X128791031Y-106898187D01*
X129077850Y-106467960D01*
X129161599Y-106414069D01*
X129247223Y-106288754D01*
X129268994Y-106181243D01*
X129805165Y-105376987D01*
X129978429Y-105305396D01*
X130196630Y-105087575D01*
X130314865Y-104802833D01*
X130315134Y-104494519D01*
X130197396Y-104209571D01*
X129979575Y-103991370D01*
X129694833Y-103873135D01*
X129386519Y-103872866D01*
X129101571Y-103990604D01*
X128883370Y-104208425D01*
X128862928Y-104257654D01*
X127645000Y-104257654D01*
X127506034Y-104283802D01*
X127378401Y-104365931D01*
X127292777Y-104491246D01*
X127262654Y-104640000D01*
X127262654Y-106140000D01*
X127288802Y-106278966D01*
X127370931Y-106406599D01*
X127416298Y-106437597D01*
X127359370Y-106494425D01*
X127241135Y-106779167D01*
X127240866Y-107087481D01*
X120547945Y-107087481D01*
X120628999Y-106680000D01*
X120535751Y-106211213D01*
X120270205Y-105813794D01*
X119895584Y-105563481D01*
X121652866Y-105563481D01*
X121770604Y-105848429D01*
X121988425Y-106066630D01*
X122273167Y-106184865D01*
X122581481Y-106185134D01*
X122866429Y-106067396D01*
X123084630Y-105849575D01*
X123202865Y-105564833D01*
X123202911Y-105512533D01*
X123271421Y-105410000D01*
X123325425Y-105329178D01*
X123373000Y-105090000D01*
X123373000Y-104892642D01*
X123486966Y-104871198D01*
X123614599Y-104789069D01*
X123700223Y-104663754D01*
X123730346Y-104515000D01*
X123730346Y-103765000D01*
X123704198Y-103626034D01*
X123643356Y-103531481D01*
X133590866Y-103531481D01*
X133708604Y-103816429D01*
X133926425Y-104034630D01*
X134069418Y-104094006D01*
X134069420Y-104094007D01*
X134069422Y-104094007D01*
X134211167Y-104152865D01*
X134519481Y-104153134D01*
X134519805Y-104153000D01*
X134784351Y-104153000D01*
X134862246Y-104206223D01*
X135011000Y-104236346D01*
X135652330Y-104236346D01*
X136103992Y-104688008D01*
X136212425Y-104796630D01*
X136355418Y-104856006D01*
X136355420Y-104856007D01*
X136355422Y-104856007D01*
X136497167Y-104914865D01*
X136805481Y-104915134D01*
X136948579Y-104856007D01*
X136948580Y-104856007D01*
X136948581Y-104856006D01*
X137090429Y-104797396D01*
X137308630Y-104579575D01*
X137426865Y-104294833D01*
X137427000Y-104140000D01*
X155874144Y-104140000D01*
X155963586Y-104589653D01*
X156218294Y-104970850D01*
X156599491Y-105225558D01*
X157049144Y-105315000D01*
X157910856Y-105315000D01*
X158360509Y-105225558D01*
X158741706Y-104970850D01*
X158996414Y-104589653D01*
X159085856Y-104140000D01*
X161311001Y-104140000D01*
X161404249Y-104608787D01*
X161669795Y-105006206D01*
X162067214Y-105271752D01*
X162536001Y-105365000D01*
X162583999Y-105365000D01*
X163052786Y-105271752D01*
X163450205Y-105006206D01*
X163715751Y-104608787D01*
X163808999Y-104140000D01*
X163851001Y-104140000D01*
X163944249Y-104608787D01*
X164209795Y-105006206D01*
X164607214Y-105271752D01*
X165076001Y-105365000D01*
X165123999Y-105365000D01*
X165592786Y-105271752D01*
X165990205Y-105006206D01*
X166255751Y-104608787D01*
X166348999Y-104140000D01*
X166255751Y-103671213D01*
X165990205Y-103273794D01*
X165592786Y-103008248D01*
X165123999Y-102915000D01*
X165076001Y-102915000D01*
X164607214Y-103008248D01*
X164209795Y-103273794D01*
X163944249Y-103671213D01*
X163851001Y-104140000D01*
X163808999Y-104140000D01*
X163715751Y-103671213D01*
X163450205Y-103273794D01*
X163052786Y-103008248D01*
X162583999Y-102915000D01*
X162536001Y-102915000D01*
X162067214Y-103008248D01*
X161669795Y-103273794D01*
X161404249Y-103671213D01*
X161311001Y-104140000D01*
X159085856Y-104140000D01*
X158996414Y-103690347D01*
X158741706Y-103309150D01*
X158360509Y-103054442D01*
X157910856Y-102965000D01*
X157049144Y-102965000D01*
X156599491Y-103054442D01*
X156218294Y-103309150D01*
X155963586Y-103690347D01*
X155874144Y-104140000D01*
X137427000Y-104140000D01*
X137427134Y-103986519D01*
X137309396Y-103701571D01*
X137091575Y-103483370D01*
X137091252Y-103483236D01*
X136643346Y-103035330D01*
X136643346Y-102354000D01*
X136617198Y-102215034D01*
X136535069Y-102087401D01*
X136409754Y-102001777D01*
X136261000Y-101971654D01*
X135011000Y-101971654D01*
X134872034Y-101997802D01*
X134744401Y-102079931D01*
X134658777Y-102205246D01*
X134628654Y-102354000D01*
X134628654Y-102603000D01*
X134366103Y-102603000D01*
X134212519Y-102602866D01*
X134069421Y-102661993D01*
X134069420Y-102661993D01*
X134069419Y-102661994D01*
X133927571Y-102720604D01*
X133709370Y-102938425D01*
X133591135Y-103223167D01*
X133590866Y-103531481D01*
X123643356Y-103531481D01*
X123622069Y-103498401D01*
X123496754Y-103412777D01*
X123348000Y-103382654D01*
X122148000Y-103382654D01*
X122009034Y-103408802D01*
X121881401Y-103490931D01*
X121795777Y-103616246D01*
X121765654Y-103765000D01*
X121765654Y-104515000D01*
X121791802Y-104653966D01*
X121873931Y-104781599D01*
X121925339Y-104816724D01*
X121771370Y-104970425D01*
X121653135Y-105255167D01*
X121652866Y-105563481D01*
X119895584Y-105563481D01*
X119872786Y-105548248D01*
X119403999Y-105455000D01*
X119356001Y-105455000D01*
X118887214Y-105548248D01*
X118489795Y-105813794D01*
X118224249Y-106211213D01*
X118131001Y-106680000D01*
X118088999Y-106680000D01*
X117995751Y-106211213D01*
X117730205Y-105813794D01*
X117332786Y-105548248D01*
X116863999Y-105455000D01*
X116816001Y-105455000D01*
X116347214Y-105548248D01*
X115949795Y-105813794D01*
X115684249Y-106211213D01*
X115591001Y-106680000D01*
X114750000Y-106680000D01*
X114750000Y-101600000D01*
X118131001Y-101600000D01*
X118224249Y-102068787D01*
X118489795Y-102466206D01*
X118887214Y-102731752D01*
X119356001Y-102825000D01*
X119403999Y-102825000D01*
X119872786Y-102731752D01*
X120136463Y-102555569D01*
X120296447Y-102715554D01*
X120385415Y-102775000D01*
X120458658Y-102823940D01*
X120650000Y-102862000D01*
X126291366Y-102862000D01*
X126363144Y-102933903D01*
X126611145Y-103036883D01*
X126879677Y-103037117D01*
X127127857Y-102934571D01*
X127317903Y-102744856D01*
X127420883Y-102496855D01*
X127421117Y-102228323D01*
X127318571Y-101980143D01*
X127128856Y-101790097D01*
X126880855Y-101687117D01*
X126612323Y-101686883D01*
X126364143Y-101789429D01*
X126291445Y-101862000D01*
X120857107Y-101862000D01*
X120623376Y-101628269D01*
X120628999Y-101600000D01*
X120535751Y-101131213D01*
X120270205Y-100733794D01*
X119872786Y-100468248D01*
X119403999Y-100375000D01*
X119356001Y-100375000D01*
X118887214Y-100468248D01*
X118489795Y-100733794D01*
X118224249Y-101131213D01*
X118131001Y-101600000D01*
X114750000Y-101600000D01*
X114750000Y-99060000D01*
X115591001Y-99060000D01*
X115684249Y-99528787D01*
X115949795Y-99926206D01*
X116347214Y-100191752D01*
X116816001Y-100285000D01*
X116863999Y-100285000D01*
X117332786Y-100191752D01*
X117730205Y-99926206D01*
X117995751Y-99528787D01*
X118088999Y-99060000D01*
X118131001Y-99060000D01*
X118224249Y-99528787D01*
X118489795Y-99926206D01*
X118887214Y-100191752D01*
X119356001Y-100285000D01*
X119403999Y-100285000D01*
X119872786Y-100191752D01*
X120270205Y-99926206D01*
X120535751Y-99528787D01*
X120547945Y-99467481D01*
X125208866Y-99467481D01*
X125326604Y-99752429D01*
X125544425Y-99970630D01*
X125829167Y-100088865D01*
X126137481Y-100089134D01*
X126422429Y-99971396D01*
X126454882Y-99939000D01*
X127262654Y-99939000D01*
X127262654Y-101060000D01*
X127288802Y-101198966D01*
X127370931Y-101326599D01*
X127496246Y-101412223D01*
X127645000Y-101442346D01*
X128846209Y-101442346D01*
X128882604Y-101530429D01*
X129100425Y-101748630D01*
X129385167Y-101866865D01*
X129693481Y-101867134D01*
X129978429Y-101749396D01*
X130128085Y-101600000D01*
X155874144Y-101600000D01*
X155963586Y-102049653D01*
X156218294Y-102430850D01*
X156599491Y-102685558D01*
X157049144Y-102775000D01*
X157910856Y-102775000D01*
X158360509Y-102685558D01*
X158741706Y-102430850D01*
X158996414Y-102049653D01*
X159085856Y-101600000D01*
X161311001Y-101600000D01*
X161404249Y-102068787D01*
X161669795Y-102466206D01*
X162067214Y-102731752D01*
X162536001Y-102825000D01*
X162583999Y-102825000D01*
X163052786Y-102731752D01*
X163450205Y-102466206D01*
X163715751Y-102068787D01*
X163808999Y-101600000D01*
X163851001Y-101600000D01*
X163944249Y-102068787D01*
X164209795Y-102466206D01*
X164607214Y-102731752D01*
X165076001Y-102825000D01*
X165123999Y-102825000D01*
X165592786Y-102731752D01*
X165990205Y-102466206D01*
X166255751Y-102068787D01*
X166348999Y-101600000D01*
X166255751Y-101131213D01*
X165990205Y-100733794D01*
X165592786Y-100468248D01*
X165123999Y-100375000D01*
X165076001Y-100375000D01*
X164607214Y-100468248D01*
X164209795Y-100733794D01*
X163944249Y-101131213D01*
X163851001Y-101600000D01*
X163808999Y-101600000D01*
X163715751Y-101131213D01*
X163450205Y-100733794D01*
X163052786Y-100468248D01*
X162583999Y-100375000D01*
X162536001Y-100375000D01*
X162067214Y-100468248D01*
X161669795Y-100733794D01*
X161404249Y-101131213D01*
X161311001Y-101600000D01*
X159085856Y-101600000D01*
X158996414Y-101150347D01*
X158741706Y-100769150D01*
X158360509Y-100514442D01*
X157910856Y-100425000D01*
X157049144Y-100425000D01*
X156599491Y-100514442D01*
X156218294Y-100769150D01*
X155963586Y-101150347D01*
X155874144Y-101600000D01*
X130128085Y-101600000D01*
X130196630Y-101531575D01*
X130314865Y-101246833D01*
X130315134Y-100938519D01*
X130197396Y-100653571D01*
X129979575Y-100435370D01*
X129694833Y-100317135D01*
X129648979Y-100317095D01*
X129277346Y-99945462D01*
X129277346Y-99560000D01*
X129251198Y-99421034D01*
X129169069Y-99293401D01*
X129043754Y-99207777D01*
X128895000Y-99177654D01*
X128509538Y-99177654D01*
X128391884Y-99060000D01*
X155874144Y-99060000D01*
X155963586Y-99509653D01*
X156218294Y-99890850D01*
X156599491Y-100145558D01*
X157049144Y-100235000D01*
X157910856Y-100235000D01*
X158360509Y-100145558D01*
X158741706Y-99890850D01*
X158996414Y-99509653D01*
X159085856Y-99060000D01*
X158996414Y-98610347D01*
X158741706Y-98229150D01*
X158713047Y-98210000D01*
X161327654Y-98210000D01*
X161327654Y-99910000D01*
X161353802Y-100048966D01*
X161435931Y-100176599D01*
X161561246Y-100262223D01*
X161710000Y-100292346D01*
X163410000Y-100292346D01*
X163548966Y-100266198D01*
X163676599Y-100184069D01*
X163762223Y-100058754D01*
X163792346Y-99910000D01*
X163792346Y-99060000D01*
X163851001Y-99060000D01*
X163944249Y-99528787D01*
X164209795Y-99926206D01*
X164607214Y-100191752D01*
X165076001Y-100285000D01*
X165123999Y-100285000D01*
X165592786Y-100191752D01*
X165990205Y-99926206D01*
X166255751Y-99528787D01*
X166348999Y-99060000D01*
X166255751Y-98591213D01*
X165990205Y-98193794D01*
X165592786Y-97928248D01*
X165123999Y-97835000D01*
X165076001Y-97835000D01*
X164607214Y-97928248D01*
X164209795Y-98193794D01*
X163944249Y-98591213D01*
X163851001Y-99060000D01*
X163792346Y-99060000D01*
X163792346Y-98210000D01*
X163766198Y-98071034D01*
X163684069Y-97943401D01*
X163558754Y-97857777D01*
X163410000Y-97827654D01*
X161710000Y-97827654D01*
X161571034Y-97853802D01*
X161443401Y-97935931D01*
X161357777Y-98061246D01*
X161327654Y-98210000D01*
X158713047Y-98210000D01*
X158360509Y-97974442D01*
X157910856Y-97885000D01*
X157049144Y-97885000D01*
X156599491Y-97974442D01*
X156218294Y-98229150D01*
X155963586Y-98610347D01*
X155874144Y-99060000D01*
X128391884Y-99060000D01*
X128203942Y-98872058D01*
X128001177Y-98736575D01*
X127762000Y-98689000D01*
X126455150Y-98689000D01*
X126423575Y-98657370D01*
X126138833Y-98539135D01*
X125830519Y-98538866D01*
X125545571Y-98656604D01*
X125327370Y-98874425D01*
X125209135Y-99159167D01*
X125208866Y-99467481D01*
X120547945Y-99467481D01*
X120628999Y-99060000D01*
X120535751Y-98591213D01*
X120270205Y-98193794D01*
X119872786Y-97928248D01*
X119403999Y-97835000D01*
X119356001Y-97835000D01*
X118887214Y-97928248D01*
X118489795Y-98193794D01*
X118224249Y-98591213D01*
X118131001Y-99060000D01*
X118088999Y-99060000D01*
X117995751Y-98591213D01*
X117730205Y-98193794D01*
X117332786Y-97928248D01*
X116863999Y-97835000D01*
X116816001Y-97835000D01*
X116347214Y-97928248D01*
X115949795Y-98193794D01*
X115684249Y-98591213D01*
X115591001Y-99060000D01*
X114750000Y-99060000D01*
X114750000Y-96520000D01*
X115591001Y-96520000D01*
X115684249Y-96988787D01*
X115949795Y-97386206D01*
X116347214Y-97651752D01*
X116816001Y-97745000D01*
X116863999Y-97745000D01*
X117332786Y-97651752D01*
X117730205Y-97386206D01*
X117995751Y-96988787D01*
X118088999Y-96520000D01*
X118131001Y-96520000D01*
X118224249Y-96988787D01*
X118489795Y-97386206D01*
X118887214Y-97651752D01*
X119356001Y-97745000D01*
X119403999Y-97745000D01*
X119872786Y-97651752D01*
X120270205Y-97386206D01*
X120535751Y-96988787D01*
X120628999Y-96520000D01*
X120535751Y-96051213D01*
X120270205Y-95653794D01*
X119872786Y-95388248D01*
X119403999Y-95295000D01*
X119356001Y-95295000D01*
X118887214Y-95388248D01*
X118489795Y-95653794D01*
X118224249Y-96051213D01*
X118131001Y-96520000D01*
X118088999Y-96520000D01*
X117995751Y-96051213D01*
X117730205Y-95653794D01*
X117332786Y-95388248D01*
X116863999Y-95295000D01*
X116816001Y-95295000D01*
X116347214Y-95388248D01*
X115949795Y-95653794D01*
X115684249Y-96051213D01*
X115591001Y-96520000D01*
X114750000Y-96520000D01*
X114750000Y-93980000D01*
X115591001Y-93980000D01*
X115684249Y-94448787D01*
X115949795Y-94846206D01*
X116347214Y-95111752D01*
X116816001Y-95205000D01*
X116863999Y-95205000D01*
X117332786Y-95111752D01*
X117730205Y-94846206D01*
X117995751Y-94448787D01*
X118088999Y-93980000D01*
X118131001Y-93980000D01*
X118224249Y-94448787D01*
X118489795Y-94846206D01*
X118887214Y-95111752D01*
X119356001Y-95205000D01*
X119403999Y-95205000D01*
X119872786Y-95111752D01*
X120270205Y-94846206D01*
X120535751Y-94448787D01*
X120628999Y-93980000D01*
X120535751Y-93511213D01*
X120270205Y-93113794D01*
X119872786Y-92848248D01*
X119403999Y-92755000D01*
X119356001Y-92755000D01*
X118887214Y-92848248D01*
X118489795Y-93113794D01*
X118224249Y-93511213D01*
X118131001Y-93980000D01*
X118088999Y-93980000D01*
X117995751Y-93511213D01*
X117730205Y-93113794D01*
X117332786Y-92848248D01*
X116863999Y-92755000D01*
X116816001Y-92755000D01*
X116347214Y-92848248D01*
X115949795Y-93113794D01*
X115684249Y-93511213D01*
X115591001Y-93980000D01*
X114750000Y-93980000D01*
X114750000Y-90590000D01*
X115607654Y-90590000D01*
X115607654Y-92290000D01*
X115633802Y-92428966D01*
X115715931Y-92556599D01*
X115841246Y-92642223D01*
X115990000Y-92672346D01*
X117690000Y-92672346D01*
X117828966Y-92646198D01*
X117956599Y-92564069D01*
X118042223Y-92438754D01*
X118072346Y-92290000D01*
X118072346Y-91440000D01*
X118131001Y-91440000D01*
X118224249Y-91908787D01*
X118489795Y-92306206D01*
X118887214Y-92571752D01*
X119356001Y-92665000D01*
X119403999Y-92665000D01*
X119786074Y-92589000D01*
X124305654Y-92589000D01*
X124305654Y-93339000D01*
X124331802Y-93477966D01*
X124413931Y-93605599D01*
X124539246Y-93691223D01*
X124663000Y-93716283D01*
X124663000Y-93950965D01*
X124565370Y-94048425D01*
X124447135Y-94333167D01*
X124446866Y-94641481D01*
X124564604Y-94926429D01*
X124782425Y-95144630D01*
X125067167Y-95262865D01*
X125375481Y-95263134D01*
X125660429Y-95145396D01*
X125878630Y-94927575D01*
X125996865Y-94642833D01*
X125997134Y-94334519D01*
X125913000Y-94130899D01*
X125913000Y-93859000D01*
X127729654Y-93859000D01*
X127729654Y-94609000D01*
X127755802Y-94747966D01*
X127837931Y-94875599D01*
X127963246Y-94961223D01*
X128112000Y-94991346D01*
X129312000Y-94991346D01*
X129425445Y-94970000D01*
X130052654Y-94970000D01*
X130052654Y-96170000D01*
X130078802Y-96308966D01*
X130160931Y-96436599D01*
X130286246Y-96522223D01*
X130435000Y-96552346D01*
X131185000Y-96552346D01*
X131323966Y-96526198D01*
X131451599Y-96444069D01*
X131537223Y-96318754D01*
X131567346Y-96170000D01*
X131567346Y-96070000D01*
X131658949Y-96070000D01*
X131658883Y-96145677D01*
X131761429Y-96393857D01*
X131951144Y-96583903D01*
X132199145Y-96686883D01*
X132467677Y-96687117D01*
X132715857Y-96584571D01*
X132780540Y-96520000D01*
X155874144Y-96520000D01*
X155963586Y-96969653D01*
X156218294Y-97350850D01*
X156599491Y-97605558D01*
X157049144Y-97695000D01*
X157910856Y-97695000D01*
X158360509Y-97605558D01*
X158741706Y-97350850D01*
X158996414Y-96969653D01*
X159085856Y-96520000D01*
X158996414Y-96070347D01*
X158741706Y-95689150D01*
X158360509Y-95434442D01*
X157910856Y-95345000D01*
X157049144Y-95345000D01*
X156599491Y-95434442D01*
X156218294Y-95689150D01*
X155963586Y-96070347D01*
X155874144Y-96520000D01*
X132780540Y-96520000D01*
X132905903Y-96394856D01*
X133008883Y-96146855D01*
X133009117Y-95878323D01*
X132906571Y-95630143D01*
X132716856Y-95440097D01*
X132468855Y-95337117D01*
X132366134Y-95337027D01*
X132245553Y-95216447D01*
X132083342Y-95108060D01*
X131892000Y-95070000D01*
X131567346Y-95070000D01*
X131567346Y-94970000D01*
X131541198Y-94831034D01*
X131459069Y-94703401D01*
X131339462Y-94621677D01*
X140548883Y-94621677D01*
X140651429Y-94869857D01*
X140841144Y-95059903D01*
X141089145Y-95162883D01*
X141357677Y-95163117D01*
X141540169Y-95087713D01*
X141590931Y-95166599D01*
X141716246Y-95252223D01*
X141865000Y-95282346D01*
X142615000Y-95282346D01*
X142753966Y-95256198D01*
X142881599Y-95174069D01*
X142929319Y-95104229D01*
X142937429Y-95123857D01*
X143127144Y-95313903D01*
X143375145Y-95416883D01*
X143643677Y-95417117D01*
X143891857Y-95314571D01*
X144081903Y-95124856D01*
X144184883Y-94876855D01*
X144185117Y-94608323D01*
X144082571Y-94360143D01*
X143892856Y-94170097D01*
X143644855Y-94067117D01*
X143542134Y-94067027D01*
X143421553Y-93946447D01*
X143259342Y-93838060D01*
X143068000Y-93800000D01*
X142997346Y-93800000D01*
X142997346Y-93700000D01*
X142971198Y-93561034D01*
X142889069Y-93433401D01*
X142763754Y-93347777D01*
X142615000Y-93317654D01*
X141865000Y-93317654D01*
X141726034Y-93343802D01*
X141598401Y-93425931D01*
X141512777Y-93551246D01*
X141482654Y-93700000D01*
X141482654Y-93800000D01*
X141412000Y-93800000D01*
X141346112Y-93813106D01*
X141090323Y-93812883D01*
X140842143Y-93915429D01*
X140652097Y-94105144D01*
X140549117Y-94353145D01*
X140548883Y-94621677D01*
X131339462Y-94621677D01*
X131333754Y-94617777D01*
X131185000Y-94587654D01*
X130435000Y-94587654D01*
X130296034Y-94613802D01*
X130168401Y-94695931D01*
X130082777Y-94821246D01*
X130052654Y-94970000D01*
X129425445Y-94970000D01*
X129450966Y-94965198D01*
X129578599Y-94883069D01*
X129664223Y-94757754D01*
X129694346Y-94609000D01*
X129694346Y-93859000D01*
X129668198Y-93720034D01*
X129586069Y-93592401D01*
X129489181Y-93526201D01*
X129552865Y-93372833D01*
X129553134Y-93064519D01*
X129461605Y-92843000D01*
X137381654Y-92843000D01*
X137381654Y-93593000D01*
X137407802Y-93731966D01*
X137489931Y-93859599D01*
X137615246Y-93945223D01*
X137764000Y-93975346D01*
X138964000Y-93975346D01*
X139102966Y-93949198D01*
X139230599Y-93867069D01*
X139316223Y-93741754D01*
X139346346Y-93593000D01*
X139346346Y-92843000D01*
X139320198Y-92704034D01*
X139238069Y-92576401D01*
X139141181Y-92510201D01*
X139204865Y-92356833D01*
X139205134Y-92048519D01*
X139087396Y-91763571D01*
X139016450Y-91692501D01*
X153664779Y-91692501D01*
X153858477Y-92161286D01*
X154216827Y-92520262D01*
X154685274Y-92714778D01*
X155192501Y-92715221D01*
X155661286Y-92521523D01*
X156020262Y-92163173D01*
X156214778Y-91694726D01*
X156215221Y-91187499D01*
X156021523Y-90718714D01*
X155663173Y-90359738D01*
X155194726Y-90165222D01*
X154687499Y-90164779D01*
X154218714Y-90358477D01*
X153859738Y-90716827D01*
X153665222Y-91185274D01*
X153664779Y-91692501D01*
X139016450Y-91692501D01*
X138869575Y-91545370D01*
X138584833Y-91427135D01*
X138276519Y-91426866D01*
X137991571Y-91544604D01*
X137773370Y-91762425D01*
X137655135Y-92047167D01*
X137654866Y-92355481D01*
X137703060Y-92472120D01*
X137625034Y-92486802D01*
X137497401Y-92568931D01*
X137411777Y-92694246D01*
X137381654Y-92843000D01*
X129461605Y-92843000D01*
X129435396Y-92779571D01*
X129217575Y-92561370D01*
X128932833Y-92443135D01*
X128624519Y-92442866D01*
X128339571Y-92560604D01*
X128121370Y-92778425D01*
X128003135Y-93063167D01*
X128003061Y-93148286D01*
X127946575Y-93232823D01*
X127899000Y-93472000D01*
X127899000Y-93550441D01*
X127845401Y-93584931D01*
X127759777Y-93710246D01*
X127729654Y-93859000D01*
X125913000Y-93859000D01*
X125913000Y-93716642D01*
X126026966Y-93695198D01*
X126154599Y-93613069D01*
X126240223Y-93487754D01*
X126270346Y-93339000D01*
X126270346Y-92589000D01*
X126244198Y-92450034D01*
X126162069Y-92322401D01*
X126036754Y-92236777D01*
X125888000Y-92206654D01*
X124688000Y-92206654D01*
X124549034Y-92232802D01*
X124421401Y-92314931D01*
X124335777Y-92440246D01*
X124305654Y-92589000D01*
X119786074Y-92589000D01*
X119872786Y-92571752D01*
X120270205Y-92306206D01*
X120535751Y-91908787D01*
X120628999Y-91440000D01*
X120535751Y-90971213D01*
X120270205Y-90573794D01*
X119872786Y-90308248D01*
X119403999Y-90215000D01*
X119356001Y-90215000D01*
X118887214Y-90308248D01*
X118489795Y-90573794D01*
X118224249Y-90971213D01*
X118131001Y-91440000D01*
X118072346Y-91440000D01*
X118072346Y-90590000D01*
X118046198Y-90451034D01*
X117964069Y-90323401D01*
X117838754Y-90237777D01*
X117690000Y-90207654D01*
X115990000Y-90207654D01*
X115851034Y-90233802D01*
X115723401Y-90315931D01*
X115637777Y-90441246D01*
X115607654Y-90590000D01*
X114750000Y-90590000D01*
X114750000Y-89350000D01*
X159570000Y-89350000D01*
X159570000Y-96520000D01*
X159570000Y-96520000D01*
G37*
X159570000Y-96520000D02*
X159604254Y-96692208D01*
X159701802Y-96838198D01*
X159847792Y-96935746D01*
X160020000Y-96970000D01*
X167190000Y-96970000D01*
X167190000Y-108770000D01*
X149860000Y-108770000D01*
X149687792Y-108804254D01*
X149541802Y-108901802D01*
X149444254Y-109047792D01*
X149410000Y-109220000D01*
X149410000Y-116390000D01*
X114750000Y-116390000D01*
X114750000Y-114300000D01*
X115591001Y-114300000D01*
X115684249Y-114768787D01*
X115949795Y-115166206D01*
X116347214Y-115431752D01*
X116816001Y-115525000D01*
X116863999Y-115525000D01*
X117332786Y-115431752D01*
X117730205Y-115166206D01*
X117995751Y-114768787D01*
X118088999Y-114300000D01*
X118131001Y-114300000D01*
X118224249Y-114768787D01*
X118489795Y-115166206D01*
X118887214Y-115431752D01*
X119356001Y-115525000D01*
X119403999Y-115525000D01*
X119872786Y-115431752D01*
X120270205Y-115166206D01*
X120535751Y-114768787D01*
X120628999Y-114300000D01*
X120535751Y-113831213D01*
X120270205Y-113433794D01*
X119872786Y-113168248D01*
X119403999Y-113075000D01*
X119356001Y-113075000D01*
X118887214Y-113168248D01*
X118489795Y-113433794D01*
X118224249Y-113831213D01*
X118131001Y-114300000D01*
X118088999Y-114300000D01*
X117995751Y-113831213D01*
X117730205Y-113433794D01*
X117332786Y-113168248D01*
X116863999Y-113075000D01*
X116816001Y-113075000D01*
X116347214Y-113168248D01*
X115949795Y-113433794D01*
X115684249Y-113831213D01*
X115591001Y-114300000D01*
X114750000Y-114300000D01*
X114750000Y-113004000D01*
X130052654Y-113004000D01*
X130052654Y-114204000D01*
X130078802Y-114342966D01*
X130160931Y-114470599D01*
X130286246Y-114556223D01*
X130435000Y-114586346D01*
X131185000Y-114586346D01*
X131323966Y-114560198D01*
X131451599Y-114478069D01*
X131537223Y-114352754D01*
X131567346Y-114204000D01*
X131567346Y-114104000D01*
X131710565Y-114104000D01*
X131739429Y-114173857D01*
X131929144Y-114363903D01*
X132177145Y-114466883D01*
X132445677Y-114467117D01*
X132693857Y-114364571D01*
X132883903Y-114174856D01*
X132986883Y-113926855D01*
X132987117Y-113658323D01*
X132884571Y-113410143D01*
X132694856Y-113220097D01*
X132446855Y-113117117D01*
X132188814Y-113116892D01*
X132124000Y-113104000D01*
X131567346Y-113104000D01*
X131567346Y-113004000D01*
X131541198Y-112865034D01*
X131459069Y-112737401D01*
X131333754Y-112651777D01*
X131185000Y-112621654D01*
X130435000Y-112621654D01*
X130296034Y-112647802D01*
X130168401Y-112729931D01*
X130082777Y-112855246D01*
X130052654Y-113004000D01*
X114750000Y-113004000D01*
X114750000Y-111760000D01*
X115591001Y-111760000D01*
X115684249Y-112228787D01*
X115949795Y-112626206D01*
X116347214Y-112891752D01*
X116816001Y-112985000D01*
X116863999Y-112985000D01*
X117332786Y-112891752D01*
X117730205Y-112626206D01*
X117995751Y-112228787D01*
X118088999Y-111760000D01*
X118131001Y-111760000D01*
X118224249Y-112228787D01*
X118489795Y-112626206D01*
X118887214Y-112891752D01*
X119356001Y-112985000D01*
X119403999Y-112985000D01*
X119872786Y-112891752D01*
X120270205Y-112626206D01*
X120535751Y-112228787D01*
X120628999Y-111760000D01*
X120535751Y-111291213D01*
X120272669Y-110897481D01*
X124446866Y-110897481D01*
X124564604Y-111182429D01*
X124718867Y-111336961D01*
X124675401Y-111364931D01*
X124589777Y-111490246D01*
X124559654Y-111639000D01*
X124559654Y-112389000D01*
X124585802Y-112527966D01*
X124667931Y-112655599D01*
X124793246Y-112741223D01*
X124942000Y-112771346D01*
X126142000Y-112771346D01*
X126280966Y-112745198D01*
X126408599Y-112663069D01*
X126494223Y-112537754D01*
X126524346Y-112389000D01*
X126524346Y-111639000D01*
X126498198Y-111500034D01*
X126416069Y-111372401D01*
X126290754Y-111286777D01*
X126167000Y-111261717D01*
X126167000Y-111064000D01*
X126146954Y-110963223D01*
X126119425Y-110824822D01*
X126065158Y-110743606D01*
X125997089Y-110641734D01*
X125997134Y-110590519D01*
X125879396Y-110305571D01*
X125661575Y-110087370D01*
X125376833Y-109969135D01*
X125068519Y-109968866D01*
X124783571Y-110086604D01*
X124565370Y-110304425D01*
X124447135Y-110589167D01*
X124446866Y-110897481D01*
X120272669Y-110897481D01*
X120270205Y-110893794D01*
X119872786Y-110628248D01*
X119403999Y-110535000D01*
X119356001Y-110535000D01*
X118887214Y-110628248D01*
X118489795Y-110893794D01*
X118224249Y-111291213D01*
X118131001Y-111760000D01*
X118088999Y-111760000D01*
X117995751Y-111291213D01*
X117730205Y-110893794D01*
X117332786Y-110628248D01*
X116863999Y-110535000D01*
X116816001Y-110535000D01*
X116347214Y-110628248D01*
X115949795Y-110893794D01*
X115684249Y-111291213D01*
X115591001Y-111760000D01*
X114750000Y-111760000D01*
X114750000Y-109220000D01*
X115591001Y-109220000D01*
X115684249Y-109688787D01*
X115949795Y-110086206D01*
X116347214Y-110351752D01*
X116816001Y-110445000D01*
X116863999Y-110445000D01*
X117332786Y-110351752D01*
X117730205Y-110086206D01*
X117995751Y-109688787D01*
X118088999Y-109220000D01*
X118131001Y-109220000D01*
X118224249Y-109688787D01*
X118489795Y-110086206D01*
X118887214Y-110351752D01*
X119356001Y-110445000D01*
X119403999Y-110445000D01*
X119872786Y-110351752D01*
X120270205Y-110086206D01*
X120420682Y-109861000D01*
X127983654Y-109861000D01*
X127983654Y-110611000D01*
X128009802Y-110749966D01*
X128091931Y-110877599D01*
X128093782Y-110878864D01*
X128003135Y-111097167D01*
X128002866Y-111405481D01*
X128120604Y-111690429D01*
X128338425Y-111908630D01*
X128623167Y-112026865D01*
X128931481Y-112027134D01*
X129216429Y-111909396D01*
X129434630Y-111691575D01*
X129552865Y-111406833D01*
X129553134Y-111098519D01*
X129509677Y-110993346D01*
X129566000Y-110993346D01*
X129704966Y-110967198D01*
X129832599Y-110885069D01*
X129918223Y-110759754D01*
X129948346Y-110611000D01*
X129948346Y-109861000D01*
X129922198Y-109722034D01*
X129840069Y-109594401D01*
X129714754Y-109508777D01*
X129566000Y-109478654D01*
X128366000Y-109478654D01*
X128227034Y-109504802D01*
X128099401Y-109586931D01*
X128013777Y-109712246D01*
X127983654Y-109861000D01*
X120420682Y-109861000D01*
X120535751Y-109688787D01*
X120628999Y-109220000D01*
X120535751Y-108751213D01*
X120270205Y-108353794D01*
X120147419Y-108271751D01*
X134265039Y-108271751D01*
X134511861Y-108869105D01*
X134968491Y-109326533D01*
X135565413Y-109574397D01*
X136211751Y-109574961D01*
X136809105Y-109328139D01*
X137266533Y-108871509D01*
X137514397Y-108274587D01*
X137514399Y-108271751D01*
X139345039Y-108271751D01*
X139591861Y-108869105D01*
X140048491Y-109326533D01*
X140645413Y-109574397D01*
X141291751Y-109574961D01*
X141889105Y-109328139D01*
X142346533Y-108871509D01*
X142594397Y-108274587D01*
X142594399Y-108271751D01*
X144425039Y-108271751D01*
X144671861Y-108869105D01*
X145128491Y-109326533D01*
X145725413Y-109574397D01*
X146371751Y-109574961D01*
X146969105Y-109328139D01*
X147426533Y-108871509D01*
X147674397Y-108274587D01*
X147674961Y-107628249D01*
X147428139Y-107030895D01*
X147077857Y-106680000D01*
X163851001Y-106680000D01*
X163944249Y-107148787D01*
X164209795Y-107546206D01*
X164607214Y-107811752D01*
X165076001Y-107905000D01*
X165123999Y-107905000D01*
X165592786Y-107811752D01*
X165990205Y-107546206D01*
X166255751Y-107148787D01*
X166348999Y-106680000D01*
X166255751Y-106211213D01*
X165990205Y-105813794D01*
X165592786Y-105548248D01*
X165123999Y-105455000D01*
X165076001Y-105455000D01*
X164607214Y-105548248D01*
X164209795Y-105813794D01*
X163944249Y-106211213D01*
X163851001Y-106680000D01*
X147077857Y-106680000D01*
X146971509Y-106573467D01*
X146374587Y-106325603D01*
X145728249Y-106325039D01*
X145130895Y-106571861D01*
X144673467Y-107028491D01*
X144425603Y-107625413D01*
X144425039Y-108271751D01*
X142594399Y-108271751D01*
X142594961Y-107628249D01*
X142348139Y-107030895D01*
X141891509Y-106573467D01*
X141294587Y-106325603D01*
X140648249Y-106325039D01*
X140050895Y-106571861D01*
X139593467Y-107028491D01*
X139345603Y-107625413D01*
X139345039Y-108271751D01*
X137514399Y-108271751D01*
X137514961Y-107628249D01*
X137268139Y-107030895D01*
X136811509Y-106573467D01*
X136214587Y-106325603D01*
X135568249Y-106325039D01*
X134970895Y-106571861D01*
X134513467Y-107028491D01*
X134265603Y-107625413D01*
X134265039Y-108271751D01*
X120147419Y-108271751D01*
X119872786Y-108088248D01*
X119403999Y-107995000D01*
X119356001Y-107995000D01*
X118887214Y-108088248D01*
X118489795Y-108353794D01*
X118224249Y-108751213D01*
X118131001Y-109220000D01*
X118088999Y-109220000D01*
X117995751Y-108751213D01*
X117730205Y-108353794D01*
X117332786Y-108088248D01*
X116863999Y-107995000D01*
X116816001Y-107995000D01*
X116347214Y-108088248D01*
X115949795Y-108353794D01*
X115684249Y-108751213D01*
X115591001Y-109220000D01*
X114750000Y-109220000D01*
X114750000Y-106680000D01*
X115591001Y-106680000D01*
X115684249Y-107148787D01*
X115949795Y-107546206D01*
X116347214Y-107811752D01*
X116816001Y-107905000D01*
X116863999Y-107905000D01*
X117332786Y-107811752D01*
X117730205Y-107546206D01*
X117995751Y-107148787D01*
X118088999Y-106680000D01*
X118131001Y-106680000D01*
X118224249Y-107148787D01*
X118489795Y-107546206D01*
X118887214Y-107811752D01*
X119356001Y-107905000D01*
X119403999Y-107905000D01*
X119872786Y-107811752D01*
X120270205Y-107546206D01*
X120535751Y-107148787D01*
X120547945Y-107087481D01*
X127240866Y-107087481D01*
X127358604Y-107372429D01*
X127576425Y-107590630D01*
X127861167Y-107708865D01*
X128169481Y-107709134D01*
X128454429Y-107591396D01*
X128672630Y-107373575D01*
X128790865Y-107088833D01*
X128791031Y-106898187D01*
X129077850Y-106467960D01*
X129161599Y-106414069D01*
X129247223Y-106288754D01*
X129268994Y-106181243D01*
X129805165Y-105376987D01*
X129978429Y-105305396D01*
X130196630Y-105087575D01*
X130314865Y-104802833D01*
X130315134Y-104494519D01*
X130197396Y-104209571D01*
X129979575Y-103991370D01*
X129694833Y-103873135D01*
X129386519Y-103872866D01*
X129101571Y-103990604D01*
X128883370Y-104208425D01*
X128862928Y-104257654D01*
X127645000Y-104257654D01*
X127506034Y-104283802D01*
X127378401Y-104365931D01*
X127292777Y-104491246D01*
X127262654Y-104640000D01*
X127262654Y-106140000D01*
X127288802Y-106278966D01*
X127370931Y-106406599D01*
X127416298Y-106437597D01*
X127359370Y-106494425D01*
X127241135Y-106779167D01*
X127240866Y-107087481D01*
X120547945Y-107087481D01*
X120628999Y-106680000D01*
X120535751Y-106211213D01*
X120270205Y-105813794D01*
X119895584Y-105563481D01*
X121652866Y-105563481D01*
X121770604Y-105848429D01*
X121988425Y-106066630D01*
X122273167Y-106184865D01*
X122581481Y-106185134D01*
X122866429Y-106067396D01*
X123084630Y-105849575D01*
X123202865Y-105564833D01*
X123202911Y-105512533D01*
X123271421Y-105410000D01*
X123325425Y-105329178D01*
X123373000Y-105090000D01*
X123373000Y-104892642D01*
X123486966Y-104871198D01*
X123614599Y-104789069D01*
X123700223Y-104663754D01*
X123730346Y-104515000D01*
X123730346Y-103765000D01*
X123704198Y-103626034D01*
X123643356Y-103531481D01*
X133590866Y-103531481D01*
X133708604Y-103816429D01*
X133926425Y-104034630D01*
X134069418Y-104094006D01*
X134069420Y-104094007D01*
X134069422Y-104094007D01*
X134211167Y-104152865D01*
X134519481Y-104153134D01*
X134519805Y-104153000D01*
X134784351Y-104153000D01*
X134862246Y-104206223D01*
X135011000Y-104236346D01*
X135652330Y-104236346D01*
X136103992Y-104688008D01*
X136212425Y-104796630D01*
X136355418Y-104856006D01*
X136355420Y-104856007D01*
X136355422Y-104856007D01*
X136497167Y-104914865D01*
X136805481Y-104915134D01*
X136948579Y-104856007D01*
X136948580Y-104856007D01*
X136948581Y-104856006D01*
X137090429Y-104797396D01*
X137308630Y-104579575D01*
X137426865Y-104294833D01*
X137427000Y-104140000D01*
X155874144Y-104140000D01*
X155963586Y-104589653D01*
X156218294Y-104970850D01*
X156599491Y-105225558D01*
X157049144Y-105315000D01*
X157910856Y-105315000D01*
X158360509Y-105225558D01*
X158741706Y-104970850D01*
X158996414Y-104589653D01*
X159085856Y-104140000D01*
X161311001Y-104140000D01*
X161404249Y-104608787D01*
X161669795Y-105006206D01*
X162067214Y-105271752D01*
X162536001Y-105365000D01*
X162583999Y-105365000D01*
X163052786Y-105271752D01*
X163450205Y-105006206D01*
X163715751Y-104608787D01*
X163808999Y-104140000D01*
X163851001Y-104140000D01*
X163944249Y-104608787D01*
X164209795Y-105006206D01*
X164607214Y-105271752D01*
X165076001Y-105365000D01*
X165123999Y-105365000D01*
X165592786Y-105271752D01*
X165990205Y-105006206D01*
X166255751Y-104608787D01*
X166348999Y-104140000D01*
X166255751Y-103671213D01*
X165990205Y-103273794D01*
X165592786Y-103008248D01*
X165123999Y-102915000D01*
X165076001Y-102915000D01*
X164607214Y-103008248D01*
X164209795Y-103273794D01*
X163944249Y-103671213D01*
X163851001Y-104140000D01*
X163808999Y-104140000D01*
X163715751Y-103671213D01*
X163450205Y-103273794D01*
X163052786Y-103008248D01*
X162583999Y-102915000D01*
X162536001Y-102915000D01*
X162067214Y-103008248D01*
X161669795Y-103273794D01*
X161404249Y-103671213D01*
X161311001Y-104140000D01*
X159085856Y-104140000D01*
X158996414Y-103690347D01*
X158741706Y-103309150D01*
X158360509Y-103054442D01*
X157910856Y-102965000D01*
X157049144Y-102965000D01*
X156599491Y-103054442D01*
X156218294Y-103309150D01*
X155963586Y-103690347D01*
X155874144Y-104140000D01*
X137427000Y-104140000D01*
X137427134Y-103986519D01*
X137309396Y-103701571D01*
X137091575Y-103483370D01*
X137091252Y-103483236D01*
X136643346Y-103035330D01*
X136643346Y-102354000D01*
X136617198Y-102215034D01*
X136535069Y-102087401D01*
X136409754Y-102001777D01*
X136261000Y-101971654D01*
X135011000Y-101971654D01*
X134872034Y-101997802D01*
X134744401Y-102079931D01*
X134658777Y-102205246D01*
X134628654Y-102354000D01*
X134628654Y-102603000D01*
X134366103Y-102603000D01*
X134212519Y-102602866D01*
X134069421Y-102661993D01*
X134069420Y-102661993D01*
X134069419Y-102661994D01*
X133927571Y-102720604D01*
X133709370Y-102938425D01*
X133591135Y-103223167D01*
X133590866Y-103531481D01*
X123643356Y-103531481D01*
X123622069Y-103498401D01*
X123496754Y-103412777D01*
X123348000Y-103382654D01*
X122148000Y-103382654D01*
X122009034Y-103408802D01*
X121881401Y-103490931D01*
X121795777Y-103616246D01*
X121765654Y-103765000D01*
X121765654Y-104515000D01*
X121791802Y-104653966D01*
X121873931Y-104781599D01*
X121925339Y-104816724D01*
X121771370Y-104970425D01*
X121653135Y-105255167D01*
X121652866Y-105563481D01*
X119895584Y-105563481D01*
X119872786Y-105548248D01*
X119403999Y-105455000D01*
X119356001Y-105455000D01*
X118887214Y-105548248D01*
X118489795Y-105813794D01*
X118224249Y-106211213D01*
X118131001Y-106680000D01*
X118088999Y-106680000D01*
X117995751Y-106211213D01*
X117730205Y-105813794D01*
X117332786Y-105548248D01*
X116863999Y-105455000D01*
X116816001Y-105455000D01*
X116347214Y-105548248D01*
X115949795Y-105813794D01*
X115684249Y-106211213D01*
X115591001Y-106680000D01*
X114750000Y-106680000D01*
X114750000Y-101600000D01*
X118131001Y-101600000D01*
X118224249Y-102068787D01*
X118489795Y-102466206D01*
X118887214Y-102731752D01*
X119356001Y-102825000D01*
X119403999Y-102825000D01*
X119872786Y-102731752D01*
X120136463Y-102555569D01*
X120296447Y-102715554D01*
X120385415Y-102775000D01*
X120458658Y-102823940D01*
X120650000Y-102862000D01*
X126291366Y-102862000D01*
X126363144Y-102933903D01*
X126611145Y-103036883D01*
X126879677Y-103037117D01*
X127127857Y-102934571D01*
X127317903Y-102744856D01*
X127420883Y-102496855D01*
X127421117Y-102228323D01*
X127318571Y-101980143D01*
X127128856Y-101790097D01*
X126880855Y-101687117D01*
X126612323Y-101686883D01*
X126364143Y-101789429D01*
X126291445Y-101862000D01*
X120857107Y-101862000D01*
X120623376Y-101628269D01*
X120628999Y-101600000D01*
X120535751Y-101131213D01*
X120270205Y-100733794D01*
X119872786Y-100468248D01*
X119403999Y-100375000D01*
X119356001Y-100375000D01*
X118887214Y-100468248D01*
X118489795Y-100733794D01*
X118224249Y-101131213D01*
X118131001Y-101600000D01*
X114750000Y-101600000D01*
X114750000Y-99060000D01*
X115591001Y-99060000D01*
X115684249Y-99528787D01*
X115949795Y-99926206D01*
X116347214Y-100191752D01*
X116816001Y-100285000D01*
X116863999Y-100285000D01*
X117332786Y-100191752D01*
X117730205Y-99926206D01*
X117995751Y-99528787D01*
X118088999Y-99060000D01*
X118131001Y-99060000D01*
X118224249Y-99528787D01*
X118489795Y-99926206D01*
X118887214Y-100191752D01*
X119356001Y-100285000D01*
X119403999Y-100285000D01*
X119872786Y-100191752D01*
X120270205Y-99926206D01*
X120535751Y-99528787D01*
X120547945Y-99467481D01*
X125208866Y-99467481D01*
X125326604Y-99752429D01*
X125544425Y-99970630D01*
X125829167Y-100088865D01*
X126137481Y-100089134D01*
X126422429Y-99971396D01*
X126454882Y-99939000D01*
X127262654Y-99939000D01*
X127262654Y-101060000D01*
X127288802Y-101198966D01*
X127370931Y-101326599D01*
X127496246Y-101412223D01*
X127645000Y-101442346D01*
X128846209Y-101442346D01*
X128882604Y-101530429D01*
X129100425Y-101748630D01*
X129385167Y-101866865D01*
X129693481Y-101867134D01*
X129978429Y-101749396D01*
X130128085Y-101600000D01*
X155874144Y-101600000D01*
X155963586Y-102049653D01*
X156218294Y-102430850D01*
X156599491Y-102685558D01*
X157049144Y-102775000D01*
X157910856Y-102775000D01*
X158360509Y-102685558D01*
X158741706Y-102430850D01*
X158996414Y-102049653D01*
X159085856Y-101600000D01*
X161311001Y-101600000D01*
X161404249Y-102068787D01*
X161669795Y-102466206D01*
X162067214Y-102731752D01*
X162536001Y-102825000D01*
X162583999Y-102825000D01*
X163052786Y-102731752D01*
X163450205Y-102466206D01*
X163715751Y-102068787D01*
X163808999Y-101600000D01*
X163851001Y-101600000D01*
X163944249Y-102068787D01*
X164209795Y-102466206D01*
X164607214Y-102731752D01*
X165076001Y-102825000D01*
X165123999Y-102825000D01*
X165592786Y-102731752D01*
X165990205Y-102466206D01*
X166255751Y-102068787D01*
X166348999Y-101600000D01*
X166255751Y-101131213D01*
X165990205Y-100733794D01*
X165592786Y-100468248D01*
X165123999Y-100375000D01*
X165076001Y-100375000D01*
X164607214Y-100468248D01*
X164209795Y-100733794D01*
X163944249Y-101131213D01*
X163851001Y-101600000D01*
X163808999Y-101600000D01*
X163715751Y-101131213D01*
X163450205Y-100733794D01*
X163052786Y-100468248D01*
X162583999Y-100375000D01*
X162536001Y-100375000D01*
X162067214Y-100468248D01*
X161669795Y-100733794D01*
X161404249Y-101131213D01*
X161311001Y-101600000D01*
X159085856Y-101600000D01*
X158996414Y-101150347D01*
X158741706Y-100769150D01*
X158360509Y-100514442D01*
X157910856Y-100425000D01*
X157049144Y-100425000D01*
X156599491Y-100514442D01*
X156218294Y-100769150D01*
X155963586Y-101150347D01*
X155874144Y-101600000D01*
X130128085Y-101600000D01*
X130196630Y-101531575D01*
X130314865Y-101246833D01*
X130315134Y-100938519D01*
X130197396Y-100653571D01*
X129979575Y-100435370D01*
X129694833Y-100317135D01*
X129648979Y-100317095D01*
X129277346Y-99945462D01*
X129277346Y-99560000D01*
X129251198Y-99421034D01*
X129169069Y-99293401D01*
X129043754Y-99207777D01*
X128895000Y-99177654D01*
X128509538Y-99177654D01*
X128391884Y-99060000D01*
X155874144Y-99060000D01*
X155963586Y-99509653D01*
X156218294Y-99890850D01*
X156599491Y-100145558D01*
X157049144Y-100235000D01*
X157910856Y-100235000D01*
X158360509Y-100145558D01*
X158741706Y-99890850D01*
X158996414Y-99509653D01*
X159085856Y-99060000D01*
X158996414Y-98610347D01*
X158741706Y-98229150D01*
X158713047Y-98210000D01*
X161327654Y-98210000D01*
X161327654Y-99910000D01*
X161353802Y-100048966D01*
X161435931Y-100176599D01*
X161561246Y-100262223D01*
X161710000Y-100292346D01*
X163410000Y-100292346D01*
X163548966Y-100266198D01*
X163676599Y-100184069D01*
X163762223Y-100058754D01*
X163792346Y-99910000D01*
X163792346Y-99060000D01*
X163851001Y-99060000D01*
X163944249Y-99528787D01*
X164209795Y-99926206D01*
X164607214Y-100191752D01*
X165076001Y-100285000D01*
X165123999Y-100285000D01*
X165592786Y-100191752D01*
X165990205Y-99926206D01*
X166255751Y-99528787D01*
X166348999Y-99060000D01*
X166255751Y-98591213D01*
X165990205Y-98193794D01*
X165592786Y-97928248D01*
X165123999Y-97835000D01*
X165076001Y-97835000D01*
X164607214Y-97928248D01*
X164209795Y-98193794D01*
X163944249Y-98591213D01*
X163851001Y-99060000D01*
X163792346Y-99060000D01*
X163792346Y-98210000D01*
X163766198Y-98071034D01*
X163684069Y-97943401D01*
X163558754Y-97857777D01*
X163410000Y-97827654D01*
X161710000Y-97827654D01*
X161571034Y-97853802D01*
X161443401Y-97935931D01*
X161357777Y-98061246D01*
X161327654Y-98210000D01*
X158713047Y-98210000D01*
X158360509Y-97974442D01*
X157910856Y-97885000D01*
X157049144Y-97885000D01*
X156599491Y-97974442D01*
X156218294Y-98229150D01*
X155963586Y-98610347D01*
X155874144Y-99060000D01*
X128391884Y-99060000D01*
X128203942Y-98872058D01*
X128001177Y-98736575D01*
X127762000Y-98689000D01*
X126455150Y-98689000D01*
X126423575Y-98657370D01*
X126138833Y-98539135D01*
X125830519Y-98538866D01*
X125545571Y-98656604D01*
X125327370Y-98874425D01*
X125209135Y-99159167D01*
X125208866Y-99467481D01*
X120547945Y-99467481D01*
X120628999Y-99060000D01*
X120535751Y-98591213D01*
X120270205Y-98193794D01*
X119872786Y-97928248D01*
X119403999Y-97835000D01*
X119356001Y-97835000D01*
X118887214Y-97928248D01*
X118489795Y-98193794D01*
X118224249Y-98591213D01*
X118131001Y-99060000D01*
X118088999Y-99060000D01*
X117995751Y-98591213D01*
X117730205Y-98193794D01*
X117332786Y-97928248D01*
X116863999Y-97835000D01*
X116816001Y-97835000D01*
X116347214Y-97928248D01*
X115949795Y-98193794D01*
X115684249Y-98591213D01*
X115591001Y-99060000D01*
X114750000Y-99060000D01*
X114750000Y-96520000D01*
X115591001Y-96520000D01*
X115684249Y-96988787D01*
X115949795Y-97386206D01*
X116347214Y-97651752D01*
X116816001Y-97745000D01*
X116863999Y-97745000D01*
X117332786Y-97651752D01*
X117730205Y-97386206D01*
X117995751Y-96988787D01*
X118088999Y-96520000D01*
X118131001Y-96520000D01*
X118224249Y-96988787D01*
X118489795Y-97386206D01*
X118887214Y-97651752D01*
X119356001Y-97745000D01*
X119403999Y-97745000D01*
X119872786Y-97651752D01*
X120270205Y-97386206D01*
X120535751Y-96988787D01*
X120628999Y-96520000D01*
X120535751Y-96051213D01*
X120270205Y-95653794D01*
X119872786Y-95388248D01*
X119403999Y-95295000D01*
X119356001Y-95295000D01*
X118887214Y-95388248D01*
X118489795Y-95653794D01*
X118224249Y-96051213D01*
X118131001Y-96520000D01*
X118088999Y-96520000D01*
X117995751Y-96051213D01*
X117730205Y-95653794D01*
X117332786Y-95388248D01*
X116863999Y-95295000D01*
X116816001Y-95295000D01*
X116347214Y-95388248D01*
X115949795Y-95653794D01*
X115684249Y-96051213D01*
X115591001Y-96520000D01*
X114750000Y-96520000D01*
X114750000Y-93980000D01*
X115591001Y-93980000D01*
X115684249Y-94448787D01*
X115949795Y-94846206D01*
X116347214Y-95111752D01*
X116816001Y-95205000D01*
X116863999Y-95205000D01*
X117332786Y-95111752D01*
X117730205Y-94846206D01*
X117995751Y-94448787D01*
X118088999Y-93980000D01*
X118131001Y-93980000D01*
X118224249Y-94448787D01*
X118489795Y-94846206D01*
X118887214Y-95111752D01*
X119356001Y-95205000D01*
X119403999Y-95205000D01*
X119872786Y-95111752D01*
X120270205Y-94846206D01*
X120535751Y-94448787D01*
X120628999Y-93980000D01*
X120535751Y-93511213D01*
X120270205Y-93113794D01*
X119872786Y-92848248D01*
X119403999Y-92755000D01*
X119356001Y-92755000D01*
X118887214Y-92848248D01*
X118489795Y-93113794D01*
X118224249Y-93511213D01*
X118131001Y-93980000D01*
X118088999Y-93980000D01*
X117995751Y-93511213D01*
X117730205Y-93113794D01*
X117332786Y-92848248D01*
X116863999Y-92755000D01*
X116816001Y-92755000D01*
X116347214Y-92848248D01*
X115949795Y-93113794D01*
X115684249Y-93511213D01*
X115591001Y-93980000D01*
X114750000Y-93980000D01*
X114750000Y-90590000D01*
X115607654Y-90590000D01*
X115607654Y-92290000D01*
X115633802Y-92428966D01*
X115715931Y-92556599D01*
X115841246Y-92642223D01*
X115990000Y-92672346D01*
X117690000Y-92672346D01*
X117828966Y-92646198D01*
X117956599Y-92564069D01*
X118042223Y-92438754D01*
X118072346Y-92290000D01*
X118072346Y-91440000D01*
X118131001Y-91440000D01*
X118224249Y-91908787D01*
X118489795Y-92306206D01*
X118887214Y-92571752D01*
X119356001Y-92665000D01*
X119403999Y-92665000D01*
X119786074Y-92589000D01*
X124305654Y-92589000D01*
X124305654Y-93339000D01*
X124331802Y-93477966D01*
X124413931Y-93605599D01*
X124539246Y-93691223D01*
X124663000Y-93716283D01*
X124663000Y-93950965D01*
X124565370Y-94048425D01*
X124447135Y-94333167D01*
X124446866Y-94641481D01*
X124564604Y-94926429D01*
X124782425Y-95144630D01*
X125067167Y-95262865D01*
X125375481Y-95263134D01*
X125660429Y-95145396D01*
X125878630Y-94927575D01*
X125996865Y-94642833D01*
X125997134Y-94334519D01*
X125913000Y-94130899D01*
X125913000Y-93859000D01*
X127729654Y-93859000D01*
X127729654Y-94609000D01*
X127755802Y-94747966D01*
X127837931Y-94875599D01*
X127963246Y-94961223D01*
X128112000Y-94991346D01*
X129312000Y-94991346D01*
X129425445Y-94970000D01*
X130052654Y-94970000D01*
X130052654Y-96170000D01*
X130078802Y-96308966D01*
X130160931Y-96436599D01*
X130286246Y-96522223D01*
X130435000Y-96552346D01*
X131185000Y-96552346D01*
X131323966Y-96526198D01*
X131451599Y-96444069D01*
X131537223Y-96318754D01*
X131567346Y-96170000D01*
X131567346Y-96070000D01*
X131658949Y-96070000D01*
X131658883Y-96145677D01*
X131761429Y-96393857D01*
X131951144Y-96583903D01*
X132199145Y-96686883D01*
X132467677Y-96687117D01*
X132715857Y-96584571D01*
X132780540Y-96520000D01*
X155874144Y-96520000D01*
X155963586Y-96969653D01*
X156218294Y-97350850D01*
X156599491Y-97605558D01*
X157049144Y-97695000D01*
X157910856Y-97695000D01*
X158360509Y-97605558D01*
X158741706Y-97350850D01*
X158996414Y-96969653D01*
X159085856Y-96520000D01*
X158996414Y-96070347D01*
X158741706Y-95689150D01*
X158360509Y-95434442D01*
X157910856Y-95345000D01*
X157049144Y-95345000D01*
X156599491Y-95434442D01*
X156218294Y-95689150D01*
X155963586Y-96070347D01*
X155874144Y-96520000D01*
X132780540Y-96520000D01*
X132905903Y-96394856D01*
X133008883Y-96146855D01*
X133009117Y-95878323D01*
X132906571Y-95630143D01*
X132716856Y-95440097D01*
X132468855Y-95337117D01*
X132366134Y-95337027D01*
X132245553Y-95216447D01*
X132083342Y-95108060D01*
X131892000Y-95070000D01*
X131567346Y-95070000D01*
X131567346Y-94970000D01*
X131541198Y-94831034D01*
X131459069Y-94703401D01*
X131339462Y-94621677D01*
X140548883Y-94621677D01*
X140651429Y-94869857D01*
X140841144Y-95059903D01*
X141089145Y-95162883D01*
X141357677Y-95163117D01*
X141540169Y-95087713D01*
X141590931Y-95166599D01*
X141716246Y-95252223D01*
X141865000Y-95282346D01*
X142615000Y-95282346D01*
X142753966Y-95256198D01*
X142881599Y-95174069D01*
X142929319Y-95104229D01*
X142937429Y-95123857D01*
X143127144Y-95313903D01*
X143375145Y-95416883D01*
X143643677Y-95417117D01*
X143891857Y-95314571D01*
X144081903Y-95124856D01*
X144184883Y-94876855D01*
X144185117Y-94608323D01*
X144082571Y-94360143D01*
X143892856Y-94170097D01*
X143644855Y-94067117D01*
X143542134Y-94067027D01*
X143421553Y-93946447D01*
X143259342Y-93838060D01*
X143068000Y-93800000D01*
X142997346Y-93800000D01*
X142997346Y-93700000D01*
X142971198Y-93561034D01*
X142889069Y-93433401D01*
X142763754Y-93347777D01*
X142615000Y-93317654D01*
X141865000Y-93317654D01*
X141726034Y-93343802D01*
X141598401Y-93425931D01*
X141512777Y-93551246D01*
X141482654Y-93700000D01*
X141482654Y-93800000D01*
X141412000Y-93800000D01*
X141346112Y-93813106D01*
X141090323Y-93812883D01*
X140842143Y-93915429D01*
X140652097Y-94105144D01*
X140549117Y-94353145D01*
X140548883Y-94621677D01*
X131339462Y-94621677D01*
X131333754Y-94617777D01*
X131185000Y-94587654D01*
X130435000Y-94587654D01*
X130296034Y-94613802D01*
X130168401Y-94695931D01*
X130082777Y-94821246D01*
X130052654Y-94970000D01*
X129425445Y-94970000D01*
X129450966Y-94965198D01*
X129578599Y-94883069D01*
X129664223Y-94757754D01*
X129694346Y-94609000D01*
X129694346Y-93859000D01*
X129668198Y-93720034D01*
X129586069Y-93592401D01*
X129489181Y-93526201D01*
X129552865Y-93372833D01*
X129553134Y-93064519D01*
X129461605Y-92843000D01*
X137381654Y-92843000D01*
X137381654Y-93593000D01*
X137407802Y-93731966D01*
X137489931Y-93859599D01*
X137615246Y-93945223D01*
X137764000Y-93975346D01*
X138964000Y-93975346D01*
X139102966Y-93949198D01*
X139230599Y-93867069D01*
X139316223Y-93741754D01*
X139346346Y-93593000D01*
X139346346Y-92843000D01*
X139320198Y-92704034D01*
X139238069Y-92576401D01*
X139141181Y-92510201D01*
X139204865Y-92356833D01*
X139205134Y-92048519D01*
X139087396Y-91763571D01*
X139016450Y-91692501D01*
X153664779Y-91692501D01*
X153858477Y-92161286D01*
X154216827Y-92520262D01*
X154685274Y-92714778D01*
X155192501Y-92715221D01*
X155661286Y-92521523D01*
X156020262Y-92163173D01*
X156214778Y-91694726D01*
X156215221Y-91187499D01*
X156021523Y-90718714D01*
X155663173Y-90359738D01*
X155194726Y-90165222D01*
X154687499Y-90164779D01*
X154218714Y-90358477D01*
X153859738Y-90716827D01*
X153665222Y-91185274D01*
X153664779Y-91692501D01*
X139016450Y-91692501D01*
X138869575Y-91545370D01*
X138584833Y-91427135D01*
X138276519Y-91426866D01*
X137991571Y-91544604D01*
X137773370Y-91762425D01*
X137655135Y-92047167D01*
X137654866Y-92355481D01*
X137703060Y-92472120D01*
X137625034Y-92486802D01*
X137497401Y-92568931D01*
X137411777Y-92694246D01*
X137381654Y-92843000D01*
X129461605Y-92843000D01*
X129435396Y-92779571D01*
X129217575Y-92561370D01*
X128932833Y-92443135D01*
X128624519Y-92442866D01*
X128339571Y-92560604D01*
X128121370Y-92778425D01*
X128003135Y-93063167D01*
X128003061Y-93148286D01*
X127946575Y-93232823D01*
X127899000Y-93472000D01*
X127899000Y-93550441D01*
X127845401Y-93584931D01*
X127759777Y-93710246D01*
X127729654Y-93859000D01*
X125913000Y-93859000D01*
X125913000Y-93716642D01*
X126026966Y-93695198D01*
X126154599Y-93613069D01*
X126240223Y-93487754D01*
X126270346Y-93339000D01*
X126270346Y-92589000D01*
X126244198Y-92450034D01*
X126162069Y-92322401D01*
X126036754Y-92236777D01*
X125888000Y-92206654D01*
X124688000Y-92206654D01*
X124549034Y-92232802D01*
X124421401Y-92314931D01*
X124335777Y-92440246D01*
X124305654Y-92589000D01*
X119786074Y-92589000D01*
X119872786Y-92571752D01*
X120270205Y-92306206D01*
X120535751Y-91908787D01*
X120628999Y-91440000D01*
X120535751Y-90971213D01*
X120270205Y-90573794D01*
X119872786Y-90308248D01*
X119403999Y-90215000D01*
X119356001Y-90215000D01*
X118887214Y-90308248D01*
X118489795Y-90573794D01*
X118224249Y-90971213D01*
X118131001Y-91440000D01*
X118072346Y-91440000D01*
X118072346Y-90590000D01*
X118046198Y-90451034D01*
X117964069Y-90323401D01*
X117838754Y-90237777D01*
X117690000Y-90207654D01*
X115990000Y-90207654D01*
X115851034Y-90233802D01*
X115723401Y-90315931D01*
X115637777Y-90441246D01*
X115607654Y-90590000D01*
X114750000Y-90590000D01*
X114750000Y-89350000D01*
X159570000Y-89350000D01*
X159570000Y-96520000D01*
M02*
