G04 #@! TF.FileFunction,Soldermask,Top*
%FSLAX46Y46*%
G04 Gerber Fmt 4.6, Leading zero omitted, Abs format (unit mm)*
G04 Created by KiCad (PCBNEW 4.0.4-stable) date 05/31/18 11:07:36*
%MOMM*%
%LPD*%
G01*
G04 APERTURE LIST*
%ADD10C,0.100000*%
%ADD11R,1.600000X1.150000*%
%ADD12R,2.200000X2.200000*%
%ADD13C,2.200000*%
%ADD14R,2.100000X2.100000*%
%ADD15O,2.100000X2.100000*%
%ADD16R,1.940000X2.200000*%
%ADD17C,2.899360*%
%ADD18C,4.400500*%
%ADD19R,1.700000X1.900000*%
%ADD20R,2.800000X2.000000*%
%ADD21O,2.800000X2.000000*%
%ADD22R,1.460000X1.050000*%
%ADD23R,2.150000X0.850000*%
%ADD24R,1.950000X1.000000*%
G04 APERTURE END LIST*
D10*
D11*
X140396000Y-98806000D03*
X138496000Y-98806000D03*
X143576000Y-98806000D03*
X145476000Y-98806000D03*
D12*
X157480000Y-91440000D03*
D13*
X154940000Y-91440000D03*
D14*
X116840000Y-91440000D03*
D15*
X119380000Y-91440000D03*
X116840000Y-93980000D03*
X119380000Y-93980000D03*
X116840000Y-96520000D03*
X119380000Y-96520000D03*
X116840000Y-99060000D03*
X119380000Y-99060000D03*
X116840000Y-101600000D03*
X119380000Y-101600000D03*
X116840000Y-104140000D03*
X119380000Y-104140000D03*
X116840000Y-106680000D03*
X119380000Y-106680000D03*
X116840000Y-109220000D03*
X119380000Y-109220000D03*
X116840000Y-111760000D03*
X119380000Y-111760000D03*
X116840000Y-114300000D03*
X119380000Y-114300000D03*
D16*
X122866000Y-104016000D03*
X125546000Y-104016000D03*
X125546000Y-101216000D03*
X122866000Y-101216000D03*
D17*
X140970000Y-107950000D03*
D18*
X140970000Y-113030000D03*
D17*
X146050000Y-107950000D03*
D18*
X146050000Y-113030000D03*
D17*
X135890000Y-107950000D03*
D18*
X135890000Y-113030000D03*
D14*
X162560000Y-99060000D03*
D15*
X165100000Y-99060000D03*
X162560000Y-101600000D03*
X165100000Y-101600000D03*
X162560000Y-104140000D03*
X165100000Y-104140000D03*
X162560000Y-106680000D03*
X165100000Y-106680000D03*
D19*
X138430000Y-102790000D03*
X138430000Y-105490000D03*
X140970000Y-102790000D03*
X140970000Y-105490000D03*
X143510000Y-102790000D03*
X143510000Y-105490000D03*
X146050000Y-102790000D03*
X146050000Y-105490000D03*
X143510000Y-92790000D03*
X143510000Y-90090000D03*
X146050000Y-90090000D03*
X146050000Y-92790000D03*
X148590000Y-92790000D03*
X148590000Y-90090000D03*
X152400000Y-90090000D03*
X152400000Y-92790000D03*
D20*
X149860000Y-96520000D03*
D21*
X157480000Y-104140000D03*
X149860000Y-99060000D03*
X157480000Y-101600000D03*
X149860000Y-101600000D03*
X157480000Y-99060000D03*
X149860000Y-104140000D03*
X157480000Y-96520000D03*
D22*
X133180000Y-105090000D03*
X133180000Y-104140000D03*
X133180000Y-103190000D03*
X130980000Y-103190000D03*
X130980000Y-105090000D03*
D23*
X130600000Y-96905000D03*
X130600000Y-96255000D03*
X130600000Y-95605000D03*
X130600000Y-94955000D03*
X130600000Y-94305000D03*
X130600000Y-93655000D03*
X130600000Y-93005000D03*
X130600000Y-92355000D03*
X130600000Y-91705000D03*
X130600000Y-91055000D03*
X123400000Y-91055000D03*
X123400000Y-91705000D03*
X123400000Y-92355000D03*
X123400000Y-93005000D03*
X123400000Y-93655000D03*
X123400000Y-94305000D03*
X123400000Y-94955000D03*
X123400000Y-95605000D03*
X123400000Y-96255000D03*
X123400000Y-96905000D03*
X130600000Y-114685000D03*
X130600000Y-114035000D03*
X130600000Y-113385000D03*
X130600000Y-112735000D03*
X130600000Y-112085000D03*
X130600000Y-111435000D03*
X130600000Y-110785000D03*
X130600000Y-110135000D03*
X130600000Y-109485000D03*
X130600000Y-108835000D03*
X123400000Y-108835000D03*
X123400000Y-109485000D03*
X123400000Y-110135000D03*
X123400000Y-110785000D03*
X123400000Y-111435000D03*
X123400000Y-112085000D03*
X123400000Y-112735000D03*
X123400000Y-113385000D03*
X123400000Y-114035000D03*
X123400000Y-114685000D03*
D22*
X133180000Y-101280000D03*
X133180000Y-100330000D03*
X133180000Y-99380000D03*
X130980000Y-99380000D03*
X130980000Y-101280000D03*
D24*
X139860000Y-95885000D03*
X139860000Y-94615000D03*
X139860000Y-93345000D03*
X139860000Y-92075000D03*
X134460000Y-92075000D03*
X134460000Y-93345000D03*
X134460000Y-94615000D03*
X134460000Y-95885000D03*
M02*
