G04 #@! TF.FileFunction,Copper,L1,Top,Signal*
%FSLAX46Y46*%
G04 Gerber Fmt 4.6, Leading zero omitted, Abs format (unit mm)*
G04 Created by KiCad (PCBNEW 4.0.4-stable) date 05/31/18 11:07:35*
%MOMM*%
%LPD*%
G01*
G04 APERTURE LIST*
%ADD10C,0.100000*%
%ADD11R,1.200000X0.750000*%
%ADD12R,1.800000X1.800000*%
%ADD13C,1.800000*%
%ADD14R,1.700000X1.700000*%
%ADD15O,1.700000X1.700000*%
%ADD16R,1.540000X1.800000*%
%ADD17C,2.499360*%
%ADD18C,4.000500*%
%ADD19R,1.300000X1.500000*%
%ADD20R,2.400000X1.600000*%
%ADD21O,2.400000X1.600000*%
%ADD22R,1.060000X0.650000*%
%ADD23R,1.750000X0.450000*%
%ADD24R,1.550000X0.600000*%
%ADD25C,0.800000*%
%ADD26C,0.600000*%
%ADD27C,0.500000*%
%ADD28C,0.400000*%
%ADD29C,0.250000*%
%ADD30C,0.800000*%
G04 APERTURE END LIST*
D10*
D11*
X140396000Y-98806000D03*
X138496000Y-98806000D03*
X143576000Y-98806000D03*
X145476000Y-98806000D03*
D12*
X157480000Y-91440000D03*
D13*
X154940000Y-91440000D03*
D14*
X116840000Y-91440000D03*
D15*
X119380000Y-91440000D03*
X116840000Y-93980000D03*
X119380000Y-93980000D03*
X116840000Y-96520000D03*
X119380000Y-96520000D03*
X116840000Y-99060000D03*
X119380000Y-99060000D03*
X116840000Y-101600000D03*
X119380000Y-101600000D03*
X116840000Y-104140000D03*
X119380000Y-104140000D03*
X116840000Y-106680000D03*
X119380000Y-106680000D03*
X116840000Y-109220000D03*
X119380000Y-109220000D03*
X116840000Y-111760000D03*
X119380000Y-111760000D03*
X116840000Y-114300000D03*
X119380000Y-114300000D03*
D16*
X122866000Y-104016000D03*
X125546000Y-104016000D03*
X125546000Y-101216000D03*
X122866000Y-101216000D03*
D17*
X140970000Y-107950000D03*
D18*
X140970000Y-113030000D03*
D17*
X146050000Y-107950000D03*
D18*
X146050000Y-113030000D03*
D17*
X135890000Y-107950000D03*
D18*
X135890000Y-113030000D03*
D14*
X162560000Y-99060000D03*
D15*
X165100000Y-99060000D03*
X162560000Y-101600000D03*
X165100000Y-101600000D03*
X162560000Y-104140000D03*
X165100000Y-104140000D03*
X162560000Y-106680000D03*
X165100000Y-106680000D03*
D19*
X138430000Y-102790000D03*
X138430000Y-105490000D03*
X140970000Y-102790000D03*
X140970000Y-105490000D03*
X143510000Y-102790000D03*
X143510000Y-105490000D03*
X146050000Y-102790000D03*
X146050000Y-105490000D03*
X143510000Y-92790000D03*
X143510000Y-90090000D03*
X146050000Y-90090000D03*
X146050000Y-92790000D03*
X148590000Y-92790000D03*
X148590000Y-90090000D03*
X152400000Y-90090000D03*
X152400000Y-92790000D03*
D20*
X149860000Y-96520000D03*
D21*
X157480000Y-104140000D03*
X149860000Y-99060000D03*
X157480000Y-101600000D03*
X149860000Y-101600000D03*
X157480000Y-99060000D03*
X149860000Y-104140000D03*
X157480000Y-96520000D03*
D22*
X133180000Y-105090000D03*
X133180000Y-104140000D03*
X133180000Y-103190000D03*
X130980000Y-103190000D03*
X130980000Y-105090000D03*
D23*
X130600000Y-96905000D03*
X130600000Y-96255000D03*
X130600000Y-95605000D03*
X130600000Y-94955000D03*
X130600000Y-94305000D03*
X130600000Y-93655000D03*
X130600000Y-93005000D03*
X130600000Y-92355000D03*
X130600000Y-91705000D03*
X130600000Y-91055000D03*
X123400000Y-91055000D03*
X123400000Y-91705000D03*
X123400000Y-92355000D03*
X123400000Y-93005000D03*
X123400000Y-93655000D03*
X123400000Y-94305000D03*
X123400000Y-94955000D03*
X123400000Y-95605000D03*
X123400000Y-96255000D03*
X123400000Y-96905000D03*
X130600000Y-114685000D03*
X130600000Y-114035000D03*
X130600000Y-113385000D03*
X130600000Y-112735000D03*
X130600000Y-112085000D03*
X130600000Y-111435000D03*
X130600000Y-110785000D03*
X130600000Y-110135000D03*
X130600000Y-109485000D03*
X130600000Y-108835000D03*
X123400000Y-108835000D03*
X123400000Y-109485000D03*
X123400000Y-110135000D03*
X123400000Y-110785000D03*
X123400000Y-111435000D03*
X123400000Y-112085000D03*
X123400000Y-112735000D03*
X123400000Y-113385000D03*
X123400000Y-114035000D03*
X123400000Y-114685000D03*
D22*
X133180000Y-101280000D03*
X133180000Y-100330000D03*
X133180000Y-99380000D03*
X130980000Y-99380000D03*
X130980000Y-101280000D03*
D24*
X139860000Y-95885000D03*
X139860000Y-94615000D03*
X139860000Y-93345000D03*
X139860000Y-92075000D03*
X134460000Y-92075000D03*
X134460000Y-93345000D03*
X134460000Y-94615000D03*
X134460000Y-95885000D03*
D25*
X159004000Y-91440000D03*
X150114000Y-90170000D03*
X143510000Y-107442000D03*
X138430000Y-107442000D03*
X132334000Y-94742000D03*
X132334000Y-97028000D03*
X132080000Y-100330000D03*
X132080000Y-104140000D03*
X128016000Y-91948000D03*
X132842000Y-92710000D03*
X132334000Y-109220000D03*
X128270000Y-114554000D03*
X128270000Y-113284000D03*
D26*
X126238000Y-105918000D03*
X121412000Y-111506000D03*
X121158000Y-93980000D03*
D25*
X122428000Y-105410000D03*
X125222000Y-94488000D03*
X125222000Y-110744000D03*
X125984000Y-99314000D03*
X129540000Y-101092000D03*
X138430000Y-92202000D03*
X128778000Y-93218000D03*
X128778000Y-111252000D03*
X128016000Y-106934000D03*
X129540000Y-104648000D03*
D26*
X132334000Y-96012000D03*
X132312000Y-113792000D03*
D25*
X136652000Y-104140000D03*
X134366000Y-103378000D03*
D26*
X141224000Y-94488000D03*
X143510000Y-94742000D03*
X126746000Y-102362000D03*
D27*
X157480000Y-91440000D02*
X159004000Y-91440000D01*
X148590000Y-90090000D02*
X150034000Y-90090000D01*
X150034000Y-90090000D02*
X150114000Y-90170000D01*
D28*
X143510000Y-105490000D02*
X143510000Y-107442000D01*
X138430000Y-105490000D02*
X138430000Y-107442000D01*
X130600000Y-94955000D02*
X132121000Y-94955000D01*
X132121000Y-94955000D02*
X132334000Y-94742000D01*
X130600000Y-96905000D02*
X132211000Y-96905000D01*
X132211000Y-96905000D02*
X132334000Y-97028000D01*
D27*
X133180000Y-100330000D02*
X132080000Y-100330000D01*
X133180000Y-104140000D02*
X132080000Y-104140000D01*
D28*
X130600000Y-91705000D02*
X128259000Y-91705000D01*
X128259000Y-91705000D02*
X128016000Y-91948000D01*
X134460000Y-92075000D02*
X133477000Y-92075000D01*
X133477000Y-92075000D02*
X132842000Y-92710000D01*
X130600000Y-109485000D02*
X132069000Y-109485000D01*
X132069000Y-109485000D02*
X132334000Y-109220000D01*
X130600000Y-114685000D02*
X128401000Y-114685000D01*
X128401000Y-114685000D02*
X128270000Y-114554000D01*
X130600000Y-112735000D02*
X128565000Y-112735000D01*
X128565000Y-112735000D02*
X128270000Y-113284000D01*
X125546000Y-104016000D02*
X125546000Y-105226000D01*
X125546000Y-105226000D02*
X126238000Y-105918000D01*
X123400000Y-112085000D02*
X121991000Y-112085000D01*
X121991000Y-112085000D02*
X121412000Y-111506000D01*
X123400000Y-94305000D02*
X121483000Y-94305000D01*
X121483000Y-94305000D02*
X121158000Y-93980000D01*
D27*
X122428000Y-105410000D02*
X123190000Y-105410000D01*
X125222000Y-94488000D02*
X125476000Y-94742000D01*
X125476000Y-110490000D02*
X125730000Y-110490000D01*
X125222000Y-110744000D02*
X125476000Y-110490000D01*
X130980000Y-101280000D02*
X129728000Y-101280000D01*
X125984000Y-99314000D02*
X125095000Y-98425000D01*
X129728000Y-101280000D02*
X129540000Y-101092000D01*
X122866000Y-101216000D02*
X122866000Y-104016000D01*
X122866000Y-104016000D02*
X122936000Y-104086000D01*
X122936000Y-104086000D02*
X122936000Y-105156000D01*
X122936000Y-105156000D02*
X123190000Y-105410000D01*
X123190000Y-105410000D02*
X125730000Y-107950000D01*
X125730000Y-107950000D02*
X125730000Y-109982000D01*
X125476000Y-94996000D02*
X125476000Y-98044000D01*
D28*
X125476000Y-93980000D02*
X125476000Y-94742000D01*
X125476000Y-94742000D02*
X125476000Y-94996000D01*
X123400000Y-93655000D02*
X125151000Y-93655000D01*
X125151000Y-93655000D02*
X125222000Y-93726000D01*
X125222000Y-93726000D02*
X125476000Y-93980000D01*
D27*
X125476000Y-98044000D02*
X124968000Y-98552000D01*
X124968000Y-98552000D02*
X122866000Y-100654000D01*
X122866000Y-100654000D02*
X122866000Y-101216000D01*
D28*
X123400000Y-111435000D02*
X125293000Y-111435000D01*
X125730000Y-110998000D02*
X125730000Y-110490000D01*
X125730000Y-110490000D02*
X125730000Y-109982000D01*
X125293000Y-111435000D02*
X125730000Y-110998000D01*
D27*
X138557000Y-92075000D02*
X139860000Y-92075000D01*
X138430000Y-92202000D02*
X138557000Y-92075000D01*
X128270000Y-93472000D02*
X128778000Y-93218000D01*
X128270000Y-110998000D02*
X128778000Y-111252000D01*
X129982000Y-105090000D02*
X129606000Y-104582000D01*
X128016000Y-109220000D02*
X128270000Y-109474000D01*
X128016000Y-106934000D02*
X128016000Y-109220000D01*
X129606000Y-104582000D02*
X129540000Y-104648000D01*
X139860000Y-92075000D02*
X141605000Y-92075000D01*
X142320000Y-92790000D02*
X143510000Y-92790000D01*
X141605000Y-92075000D02*
X142320000Y-92790000D01*
D28*
X130600000Y-92355000D02*
X131927000Y-92355000D01*
X139860000Y-90584000D02*
X139860000Y-92075000D01*
X139446000Y-90170000D02*
X139860000Y-90584000D01*
X133350000Y-90170000D02*
X139446000Y-90170000D01*
X132588000Y-90932000D02*
X133350000Y-90170000D01*
X132588000Y-91694000D02*
X132588000Y-90932000D01*
X131927000Y-92355000D02*
X132588000Y-91694000D01*
X130600000Y-94305000D02*
X128270000Y-94305000D01*
X128270000Y-94305000D02*
X128270000Y-94488000D01*
X128270000Y-94488000D02*
X128270000Y-93472000D01*
X128270000Y-93472000D02*
X128270000Y-92964000D01*
D27*
X129982000Y-105090000D02*
X128524000Y-103632000D01*
X128524000Y-103632000D02*
X128524000Y-98298000D01*
X128524000Y-98298000D02*
X128270000Y-98044000D01*
X128270000Y-98044000D02*
X128270000Y-94488000D01*
X130114000Y-105090000D02*
X129982000Y-105090000D01*
D28*
X128879000Y-92355000D02*
X130600000Y-92355000D01*
X128270000Y-92964000D02*
X128879000Y-92355000D01*
X130600000Y-112085000D02*
X128595000Y-112085000D01*
X128595000Y-112085000D02*
X128270000Y-111760000D01*
X128270000Y-111760000D02*
X128270000Y-110998000D01*
X128270000Y-110998000D02*
X128270000Y-109474000D01*
X130600000Y-110135000D02*
X128931000Y-110135000D01*
X128931000Y-110135000D02*
X128524000Y-109728000D01*
D27*
X128270000Y-109474000D02*
X128524000Y-109728000D01*
X130980000Y-105090000D02*
X130114000Y-105090000D01*
D29*
X130600000Y-96255000D02*
X132091000Y-96255000D01*
X132181000Y-95605000D02*
X130600000Y-95605000D01*
X132334000Y-95758000D02*
X132181000Y-95605000D01*
X132334000Y-96012000D02*
X132334000Y-95758000D01*
X132091000Y-96255000D02*
X132334000Y-96012000D01*
X130600000Y-114035000D02*
X132069000Y-114035000D01*
X132137000Y-113385000D02*
X130600000Y-113385000D01*
X132312000Y-113560000D02*
X132137000Y-113385000D01*
X132312000Y-113792000D02*
X132312000Y-113560000D01*
X132069000Y-114035000D02*
X132312000Y-113792000D01*
D27*
X133180000Y-101280000D02*
X134366000Y-101280000D01*
X134366000Y-101280000D02*
X134366000Y-101092000D01*
X134366000Y-103378000D02*
X134366000Y-101092000D01*
X134366000Y-101092000D02*
X134366000Y-99568000D01*
X134178000Y-99380000D02*
X133180000Y-99380000D01*
X134366000Y-99568000D02*
X134178000Y-99380000D01*
X134366000Y-103378000D02*
X134366000Y-104902000D01*
X134178000Y-105090000D02*
X133180000Y-105090000D01*
X134366000Y-104902000D02*
X134178000Y-105090000D01*
D30*
X135890000Y-107950000D02*
X135890000Y-106934000D01*
X135890000Y-106934000D02*
X136652000Y-106172000D01*
X136652000Y-106172000D02*
X136652000Y-104140000D01*
D27*
X134178000Y-103190000D02*
X133180000Y-103190000D01*
X134366000Y-103378000D02*
X134178000Y-103190000D01*
X152908000Y-108458000D02*
X152908000Y-93298000D01*
X152908000Y-93298000D02*
X152400000Y-92790000D01*
D30*
X135890000Y-107950000D02*
X137922000Y-109982000D01*
X149606000Y-108458000D02*
X152908000Y-108458000D01*
X148082000Y-109982000D02*
X149606000Y-108458000D01*
X137922000Y-109982000D02*
X148082000Y-109982000D01*
X163322000Y-108458000D02*
X165100000Y-106680000D01*
X152908000Y-108458000D02*
X163322000Y-108458000D01*
D29*
X140396000Y-98806000D02*
X140970000Y-98806000D01*
X140970000Y-98806000D02*
X141478000Y-98298000D01*
X141478000Y-98298000D02*
X141478000Y-96266000D01*
X141478000Y-96266000D02*
X141097000Y-95885000D01*
X141097000Y-95885000D02*
X139860000Y-95885000D01*
X138430000Y-102790000D02*
X138430000Y-98872000D01*
X138430000Y-98872000D02*
X138496000Y-98806000D01*
D28*
X140970000Y-102790000D02*
X138430000Y-102790000D01*
D29*
X143576000Y-98806000D02*
X143576000Y-97348000D01*
X141351000Y-93345000D02*
X139860000Y-93345000D01*
X142240000Y-94234000D02*
X141351000Y-93345000D01*
X142240000Y-96012000D02*
X142240000Y-94234000D01*
X143576000Y-97348000D02*
X142240000Y-96012000D01*
X146050000Y-102790000D02*
X146050000Y-99380000D01*
X146050000Y-99380000D02*
X145476000Y-98806000D01*
D28*
X146050000Y-102790000D02*
X143510000Y-102790000D01*
D29*
X141097000Y-94615000D02*
X139860000Y-94615000D01*
X141224000Y-94488000D02*
X141097000Y-94615000D01*
X146050000Y-93726000D02*
X146050000Y-93980000D01*
X146050000Y-92790000D02*
X146050000Y-93726000D01*
X145288000Y-94742000D02*
X143510000Y-94742000D01*
X146050000Y-93980000D02*
X145288000Y-94742000D01*
X148590000Y-92790000D02*
X146050000Y-92790000D01*
X152400000Y-90090000D02*
X153590000Y-90090000D01*
X153590000Y-90090000D02*
X154940000Y-91440000D01*
X123400000Y-91055000D02*
X121789000Y-91055000D01*
X118110000Y-90170000D02*
X116840000Y-91440000D01*
X120904000Y-90170000D02*
X118110000Y-90170000D01*
X121789000Y-91055000D02*
X120904000Y-90170000D01*
X123400000Y-91705000D02*
X119645000Y-91705000D01*
X119645000Y-91705000D02*
X119380000Y-91440000D01*
D28*
X119645000Y-91705000D02*
X119380000Y-91440000D01*
D29*
X123400000Y-92355000D02*
X120751000Y-92355000D01*
X118110000Y-92710000D02*
X116840000Y-93980000D01*
X120396000Y-92710000D02*
X118110000Y-92710000D01*
X120751000Y-92355000D02*
X120396000Y-92710000D01*
X119380000Y-93980000D02*
X119888000Y-93980000D01*
X119888000Y-93980000D02*
X120142000Y-93726000D01*
X120142000Y-93726000D02*
X119380000Y-93980000D01*
X123400000Y-93005000D02*
X120863000Y-93005000D01*
X120863000Y-93005000D02*
X119888000Y-93980000D01*
X123400000Y-94955000D02*
X120691000Y-94955000D01*
X118110000Y-95250000D02*
X116840000Y-96520000D01*
X120396000Y-95250000D02*
X118110000Y-95250000D01*
X120691000Y-94955000D02*
X120396000Y-95250000D01*
X123400000Y-95605000D02*
X120803000Y-95605000D01*
X120803000Y-95605000D02*
X119888000Y-96520000D01*
X119888000Y-96520000D02*
X119380000Y-96520000D01*
X123400000Y-96255000D02*
X121423000Y-96255000D01*
X118110000Y-97790000D02*
X116840000Y-99060000D01*
X120142000Y-97790000D02*
X118110000Y-97790000D01*
X120650000Y-97282000D02*
X120142000Y-97790000D01*
X120650000Y-97028000D02*
X120650000Y-97282000D01*
X121423000Y-96255000D02*
X120650000Y-97028000D01*
X123400000Y-96905000D02*
X121789000Y-96905000D01*
X121789000Y-96905000D02*
X119634000Y-99060000D01*
X119634000Y-99060000D02*
X119380000Y-99060000D01*
D28*
X119888000Y-99060000D02*
X119380000Y-99060000D01*
D29*
X128270000Y-105664000D02*
X129540000Y-106934000D01*
X129540000Y-106934000D02*
X129794000Y-107188000D01*
X127762000Y-105156000D02*
X128270000Y-105664000D01*
X127762000Y-102870000D02*
X127762000Y-105156000D01*
X126108000Y-101216000D02*
X127762000Y-102870000D01*
X130600000Y-107486000D02*
X130600000Y-108835000D01*
X130302000Y-107188000D02*
X130600000Y-107486000D01*
X129794000Y-107188000D02*
X130302000Y-107188000D01*
X125546000Y-101216000D02*
X126108000Y-101216000D01*
X126108000Y-101216000D02*
X126746000Y-101854000D01*
X126746000Y-101854000D02*
X126746000Y-102362000D01*
X125546000Y-101216000D02*
X126368000Y-101216000D01*
X127000000Y-98806000D02*
X127000000Y-91694000D01*
X127000000Y-91694000D02*
X127639000Y-91055000D01*
X127639000Y-91055000D02*
X130600000Y-91055000D01*
X127000000Y-100584000D02*
X127000000Y-98806000D01*
X126368000Y-101216000D02*
X127000000Y-100584000D01*
D27*
X126110000Y-101280000D02*
X125860000Y-101530000D01*
X126100000Y-101770000D02*
X125860000Y-101530000D01*
D29*
X123400000Y-108835000D02*
X123400000Y-108668000D01*
X123400000Y-108668000D02*
X120142000Y-105410000D01*
X120142000Y-105410000D02*
X118110000Y-105410000D01*
X118110000Y-105410000D02*
X116840000Y-106680000D01*
X123400000Y-109485000D02*
X122185000Y-109485000D01*
X122185000Y-109485000D02*
X119380000Y-106680000D01*
X123400000Y-110135000D02*
X122073000Y-110135000D01*
X118110000Y-107950000D02*
X116840000Y-109220000D01*
X119888000Y-107950000D02*
X118110000Y-107950000D01*
X122073000Y-110135000D02*
X119888000Y-107950000D01*
X123400000Y-110785000D02*
X121707000Y-110785000D01*
X121707000Y-110785000D02*
X120142000Y-109220000D01*
X120142000Y-109220000D02*
X119380000Y-109220000D01*
X123400000Y-112735000D02*
X121371000Y-112735000D01*
X118110000Y-110490000D02*
X116840000Y-111760000D01*
X120142000Y-110490000D02*
X118110000Y-110490000D01*
X120650000Y-110998000D02*
X120142000Y-110490000D01*
X120650000Y-112014000D02*
X120650000Y-110998000D01*
X121371000Y-112735000D02*
X120650000Y-112014000D01*
X123400000Y-113385000D02*
X121005000Y-113385000D01*
X121005000Y-113385000D02*
X119507000Y-111887000D01*
X119380000Y-112014000D02*
X119380000Y-111760000D01*
X123400000Y-114035000D02*
X120893000Y-114035000D01*
X118110000Y-113030000D02*
X116840000Y-114300000D01*
X119888000Y-113030000D02*
X118110000Y-113030000D01*
X120893000Y-114035000D02*
X119888000Y-113030000D01*
X123400000Y-114685000D02*
X119765000Y-114685000D01*
X119765000Y-114685000D02*
X119380000Y-114300000D01*
D28*
X140970000Y-107950000D02*
X140970000Y-105490000D01*
X146050000Y-107950000D02*
X146050000Y-105490000D01*
D29*
X157480000Y-96520000D02*
X158750000Y-96520000D01*
X161290000Y-99060000D02*
X162560000Y-99060000D01*
X158750000Y-96520000D02*
X161290000Y-99060000D01*
X157480000Y-99060000D02*
X159258000Y-99060000D01*
X163830000Y-100330000D02*
X165100000Y-99060000D01*
X160528000Y-100330000D02*
X163830000Y-100330000D01*
X159258000Y-99060000D02*
X160528000Y-100330000D01*
X157480000Y-101600000D02*
X162560000Y-101600000D01*
X157480000Y-104140000D02*
X158750000Y-104140000D01*
X163830000Y-102870000D02*
X165100000Y-101600000D01*
X160020000Y-102870000D02*
X163830000Y-102870000D01*
X158750000Y-104140000D02*
X160020000Y-102870000D01*
X143510000Y-90090000D02*
X146050000Y-90090000D01*
X134460000Y-94615000D02*
X135763000Y-94615000D01*
X132334000Y-111506000D02*
X130671000Y-111506000D01*
X132588000Y-111252000D02*
X132334000Y-111506000D01*
X133858000Y-109982000D02*
X132588000Y-111252000D01*
X133858000Y-109416002D02*
X133858000Y-109982000D01*
X133858000Y-107442000D02*
X133858000Y-109416002D01*
X135636000Y-105664000D02*
X133858000Y-107442000D01*
X135636000Y-97536000D02*
X135636000Y-105664000D01*
X136144000Y-97028000D02*
X135636000Y-97536000D01*
X136144000Y-94996000D02*
X136144000Y-97028000D01*
X135763000Y-94615000D02*
X136144000Y-94996000D01*
X130671000Y-111506000D02*
X130600000Y-111435000D01*
X134460000Y-94615000D02*
X133477000Y-94615000D01*
X131755000Y-93655000D02*
X130600000Y-93655000D01*
X132080000Y-93980000D02*
X131755000Y-93655000D01*
X132842000Y-93980000D02*
X132080000Y-93980000D01*
X133477000Y-94615000D02*
X132842000Y-93980000D01*
X134460000Y-93345000D02*
X133477000Y-93345000D01*
X131867000Y-93005000D02*
X130600000Y-93005000D01*
X132334000Y-93472000D02*
X131867000Y-93005000D01*
X133350000Y-93472000D02*
X132334000Y-93472000D01*
X133477000Y-93345000D02*
X133350000Y-93472000D01*
X133350000Y-107188000D02*
X133350000Y-109728000D01*
X135128000Y-105410000D02*
X133350000Y-107188000D01*
X135128000Y-97282000D02*
X135128000Y-105410000D01*
X134460000Y-95885000D02*
X134460000Y-96614000D01*
X132293000Y-110785000D02*
X130600000Y-110785000D01*
X133350000Y-109728000D02*
X132293000Y-110785000D01*
X134460000Y-96614000D02*
X135128000Y-97282000D01*
M02*
