M48
METRIC,TZ
T1C0.400
T2C0.550
T3C0.800
T4C0.900
T5C1.000
T6C1.001
T7C1.501
%
G90
G05
T1
X121158Y-93980
X121412Y-111506
X126238Y-105918
X126746Y-102362
X132312Y-113792
X132334Y-96012
X141224Y-94488
X143510Y-94742
T2
X122428Y-105410
X125222Y-94488
X125222Y-110744
X125984Y-99314
X128016Y-91948
X128016Y-106934
X128270Y-113284
X128270Y-114554
X128778Y-93218
X128778Y-111252
X129540Y-101092
X129540Y-104648
X132080Y-100330
X132080Y-104140
X132334Y-94742
X132334Y-97028
X132334Y-109220
X132842Y-92710
X134366Y-103378
X136652Y-104140
X138430Y-92202
X138430Y-107442
X143510Y-107442
X150114Y-90170
X159004Y-91440
T3
X149860Y-96520
X149860Y-99060
X149860Y-101600
X149860Y-104140
X157480Y-96520
X157480Y-99060
X157480Y-101600
X157480Y-104140
T4
X154940Y-91440
X157480Y-91440
T5
X116840Y-91440
X116840Y-93980
X116840Y-96520
X116840Y-99060
X116840Y-101600
X116840Y-104140
X116840Y-106680
X116840Y-109220
X116840Y-111760
X116840Y-114300
X119380Y-91440
X119380Y-93980
X119380Y-96520
X119380Y-99060
X119380Y-101600
X119380Y-104140
X119380Y-106680
X119380Y-109220
X119380Y-111760
X119380Y-114300
X162560Y-99060
X162560Y-101600
X162560Y-104140
X162560Y-106680
X165100Y-99060
X165100Y-101600
X165100Y-104140
X165100Y-106680
T6
X135890Y-107950
X140970Y-107950
X146050Y-107950
T7
X135890Y-113030
X140970Y-113030
X146050Y-113030
T0
M30
