G04 #@! TF.FileFunction,Soldermask,Top*
%FSLAX46Y46*%
G04 Gerber Fmt 4.6, Leading zero omitted, Abs format (unit mm)*
G04 Created by KiCad (PCBNEW 4.0.4-stable) date 11/01/17 12:47:17*
%MOMM*%
%LPD*%
G01*
G04 APERTURE LIST*
%ADD10C,0.100000*%
G04 APERTURE END LIST*
D10*
G36*
X155129062Y-120121196D02*
X155474854Y-120192176D01*
X155800267Y-120328967D01*
X156092916Y-120526362D01*
X156341655Y-120776842D01*
X156536997Y-121070858D01*
X156671517Y-121397225D01*
X156739944Y-121742811D01*
X156739944Y-121742828D01*
X156740077Y-121743501D01*
X156734447Y-122146691D01*
X156734295Y-122147359D01*
X156734295Y-122147378D01*
X156656245Y-122490916D01*
X156512666Y-122813400D01*
X156309186Y-123101852D01*
X156053557Y-123345285D01*
X155755504Y-123534434D01*
X155426403Y-123662084D01*
X155078761Y-123723383D01*
X154725841Y-123715990D01*
X154381076Y-123640188D01*
X154057602Y-123498866D01*
X153767738Y-123297406D01*
X153522524Y-123043479D01*
X153331300Y-122746758D01*
X153201353Y-122418548D01*
X153137630Y-122071348D01*
X153142558Y-121718387D01*
X153215951Y-121373101D01*
X153355013Y-121048643D01*
X153554446Y-120757380D01*
X153806653Y-120510400D01*
X154102028Y-120317112D01*
X154429323Y-120184876D01*
X154776071Y-120118730D01*
X155129062Y-120121196D01*
X155129062Y-120121196D01*
G37*
G36*
X127211034Y-120886351D02*
X127211052Y-120886357D01*
X127211132Y-120886365D01*
X127406891Y-120946963D01*
X127587153Y-121044430D01*
X127745049Y-121175053D01*
X127874567Y-121333858D01*
X127970773Y-121514795D01*
X128030003Y-121710973D01*
X128050000Y-121914919D01*
X128050000Y-121925154D01*
X128049927Y-121935685D01*
X128049926Y-121935692D01*
X128049898Y-121939741D01*
X128027055Y-122143388D01*
X127965092Y-122338720D01*
X127866369Y-122518296D01*
X127734647Y-122675277D01*
X127574941Y-122803684D01*
X127393337Y-122898624D01*
X127196750Y-122956483D01*
X127196680Y-122956489D01*
X127196661Y-122956495D01*
X126992675Y-122975059D01*
X126788966Y-122953649D01*
X126788948Y-122953643D01*
X126788868Y-122953635D01*
X126593109Y-122893037D01*
X126412847Y-122795570D01*
X126254951Y-122664947D01*
X126125433Y-122506142D01*
X126029227Y-122325205D01*
X125969997Y-122129027D01*
X125950000Y-121925081D01*
X125950000Y-121914846D01*
X125950073Y-121904315D01*
X125950074Y-121904308D01*
X125950102Y-121900259D01*
X125972945Y-121696612D01*
X126034908Y-121501280D01*
X126133631Y-121321704D01*
X126265353Y-121164723D01*
X126425059Y-121036316D01*
X126606663Y-120941376D01*
X126803250Y-120883517D01*
X126803320Y-120883511D01*
X126803339Y-120883505D01*
X127007325Y-120864941D01*
X127211034Y-120886351D01*
X127211034Y-120886351D01*
G37*
G36*
X137371034Y-120886351D02*
X137371052Y-120886357D01*
X137371132Y-120886365D01*
X137566891Y-120946963D01*
X137747153Y-121044430D01*
X137905049Y-121175053D01*
X138034567Y-121333858D01*
X138130773Y-121514795D01*
X138190003Y-121710973D01*
X138210000Y-121914919D01*
X138210000Y-121925154D01*
X138209927Y-121935685D01*
X138209926Y-121935692D01*
X138209898Y-121939741D01*
X138187055Y-122143388D01*
X138125092Y-122338720D01*
X138026369Y-122518296D01*
X137894647Y-122675277D01*
X137734941Y-122803684D01*
X137553337Y-122898624D01*
X137356750Y-122956483D01*
X137356680Y-122956489D01*
X137356661Y-122956495D01*
X137152675Y-122975059D01*
X136948966Y-122953649D01*
X136948948Y-122953643D01*
X136948868Y-122953635D01*
X136753109Y-122893037D01*
X136572847Y-122795570D01*
X136414951Y-122664947D01*
X136285433Y-122506142D01*
X136189227Y-122325205D01*
X136129997Y-122129027D01*
X136110000Y-121925081D01*
X136110000Y-121914846D01*
X136110073Y-121904315D01*
X136110074Y-121904308D01*
X136110102Y-121900259D01*
X136132945Y-121696612D01*
X136194908Y-121501280D01*
X136293631Y-121321704D01*
X136425353Y-121164723D01*
X136585059Y-121036316D01*
X136766663Y-120941376D01*
X136963250Y-120883517D01*
X136963320Y-120883511D01*
X136963339Y-120883505D01*
X137167325Y-120864941D01*
X137371034Y-120886351D01*
X137371034Y-120886351D01*
G37*
G36*
X129751034Y-120886351D02*
X129751052Y-120886357D01*
X129751132Y-120886365D01*
X129946891Y-120946963D01*
X130127153Y-121044430D01*
X130285049Y-121175053D01*
X130414567Y-121333858D01*
X130510773Y-121514795D01*
X130570003Y-121710973D01*
X130590000Y-121914919D01*
X130590000Y-121925154D01*
X130589927Y-121935685D01*
X130589926Y-121935692D01*
X130589898Y-121939741D01*
X130567055Y-122143388D01*
X130505092Y-122338720D01*
X130406369Y-122518296D01*
X130274647Y-122675277D01*
X130114941Y-122803684D01*
X129933337Y-122898624D01*
X129736750Y-122956483D01*
X129736680Y-122956489D01*
X129736661Y-122956495D01*
X129532675Y-122975059D01*
X129328966Y-122953649D01*
X129328948Y-122953643D01*
X129328868Y-122953635D01*
X129133109Y-122893037D01*
X128952847Y-122795570D01*
X128794951Y-122664947D01*
X128665433Y-122506142D01*
X128569227Y-122325205D01*
X128509997Y-122129027D01*
X128490000Y-121925081D01*
X128490000Y-121914846D01*
X128490073Y-121904315D01*
X128490074Y-121904308D01*
X128490102Y-121900259D01*
X128512945Y-121696612D01*
X128574908Y-121501280D01*
X128673631Y-121321704D01*
X128805353Y-121164723D01*
X128965059Y-121036316D01*
X129146663Y-120941376D01*
X129343250Y-120883517D01*
X129343320Y-120883511D01*
X129343339Y-120883505D01*
X129547325Y-120864941D01*
X129751034Y-120886351D01*
X129751034Y-120886351D01*
G37*
G36*
X132291034Y-120886351D02*
X132291052Y-120886357D01*
X132291132Y-120886365D01*
X132486891Y-120946963D01*
X132667153Y-121044430D01*
X132825049Y-121175053D01*
X132954567Y-121333858D01*
X133050773Y-121514795D01*
X133110003Y-121710973D01*
X133130000Y-121914919D01*
X133130000Y-121925154D01*
X133129927Y-121935685D01*
X133129926Y-121935692D01*
X133129898Y-121939741D01*
X133107055Y-122143388D01*
X133045092Y-122338720D01*
X132946369Y-122518296D01*
X132814647Y-122675277D01*
X132654941Y-122803684D01*
X132473337Y-122898624D01*
X132276750Y-122956483D01*
X132276680Y-122956489D01*
X132276661Y-122956495D01*
X132072675Y-122975059D01*
X131868966Y-122953649D01*
X131868948Y-122953643D01*
X131868868Y-122953635D01*
X131673109Y-122893037D01*
X131492847Y-122795570D01*
X131334951Y-122664947D01*
X131205433Y-122506142D01*
X131109227Y-122325205D01*
X131049997Y-122129027D01*
X131030000Y-121925081D01*
X131030000Y-121914846D01*
X131030073Y-121904315D01*
X131030074Y-121904308D01*
X131030102Y-121900259D01*
X131052945Y-121696612D01*
X131114908Y-121501280D01*
X131213631Y-121321704D01*
X131345353Y-121164723D01*
X131505059Y-121036316D01*
X131686663Y-120941376D01*
X131883250Y-120883517D01*
X131883320Y-120883511D01*
X131883339Y-120883505D01*
X132087325Y-120864941D01*
X132291034Y-120886351D01*
X132291034Y-120886351D01*
G37*
G36*
X139911034Y-120886351D02*
X139911052Y-120886357D01*
X139911132Y-120886365D01*
X140106891Y-120946963D01*
X140287153Y-121044430D01*
X140445049Y-121175053D01*
X140574567Y-121333858D01*
X140670773Y-121514795D01*
X140730003Y-121710973D01*
X140750000Y-121914919D01*
X140750000Y-121925154D01*
X140749927Y-121935685D01*
X140749926Y-121935692D01*
X140749898Y-121939741D01*
X140727055Y-122143388D01*
X140665092Y-122338720D01*
X140566369Y-122518296D01*
X140434647Y-122675277D01*
X140274941Y-122803684D01*
X140093337Y-122898624D01*
X139896750Y-122956483D01*
X139896680Y-122956489D01*
X139896661Y-122956495D01*
X139692675Y-122975059D01*
X139488966Y-122953649D01*
X139488948Y-122953643D01*
X139488868Y-122953635D01*
X139293109Y-122893037D01*
X139112847Y-122795570D01*
X138954951Y-122664947D01*
X138825433Y-122506142D01*
X138729227Y-122325205D01*
X138669997Y-122129027D01*
X138650000Y-121925081D01*
X138650000Y-121914846D01*
X138650073Y-121904315D01*
X138650074Y-121904308D01*
X138650102Y-121900259D01*
X138672945Y-121696612D01*
X138734908Y-121501280D01*
X138833631Y-121321704D01*
X138965353Y-121164723D01*
X139125059Y-121036316D01*
X139306663Y-120941376D01*
X139503250Y-120883517D01*
X139503320Y-120883511D01*
X139503339Y-120883505D01*
X139707325Y-120864941D01*
X139911034Y-120886351D01*
X139911034Y-120886351D01*
G37*
G36*
X134831034Y-120886351D02*
X134831052Y-120886357D01*
X134831132Y-120886365D01*
X135026891Y-120946963D01*
X135207153Y-121044430D01*
X135365049Y-121175053D01*
X135494567Y-121333858D01*
X135590773Y-121514795D01*
X135650003Y-121710973D01*
X135670000Y-121914919D01*
X135670000Y-121925154D01*
X135669927Y-121935685D01*
X135669926Y-121935692D01*
X135669898Y-121939741D01*
X135647055Y-122143388D01*
X135585092Y-122338720D01*
X135486369Y-122518296D01*
X135354647Y-122675277D01*
X135194941Y-122803684D01*
X135013337Y-122898624D01*
X134816750Y-122956483D01*
X134816680Y-122956489D01*
X134816661Y-122956495D01*
X134612675Y-122975059D01*
X134408966Y-122953649D01*
X134408948Y-122953643D01*
X134408868Y-122953635D01*
X134213109Y-122893037D01*
X134032847Y-122795570D01*
X133874951Y-122664947D01*
X133745433Y-122506142D01*
X133649227Y-122325205D01*
X133589997Y-122129027D01*
X133570000Y-121925081D01*
X133570000Y-121914846D01*
X133570073Y-121904315D01*
X133570074Y-121904308D01*
X133570102Y-121900259D01*
X133592945Y-121696612D01*
X133654908Y-121501280D01*
X133753631Y-121321704D01*
X133885353Y-121164723D01*
X134045059Y-121036316D01*
X134226663Y-120941376D01*
X134423250Y-120883517D01*
X134423320Y-120883511D01*
X134423339Y-120883505D01*
X134627325Y-120864941D01*
X134831034Y-120886351D01*
X134831034Y-120886351D01*
G37*
G36*
X142451034Y-120886351D02*
X142451052Y-120886357D01*
X142451132Y-120886365D01*
X142646891Y-120946963D01*
X142827153Y-121044430D01*
X142985049Y-121175053D01*
X143114567Y-121333858D01*
X143210773Y-121514795D01*
X143270003Y-121710973D01*
X143290000Y-121914919D01*
X143290000Y-121925154D01*
X143289927Y-121935685D01*
X143289926Y-121935692D01*
X143289898Y-121939741D01*
X143267055Y-122143388D01*
X143205092Y-122338720D01*
X143106369Y-122518296D01*
X142974647Y-122675277D01*
X142814941Y-122803684D01*
X142633337Y-122898624D01*
X142436750Y-122956483D01*
X142436680Y-122956489D01*
X142436661Y-122956495D01*
X142232675Y-122975059D01*
X142028966Y-122953649D01*
X142028948Y-122953643D01*
X142028868Y-122953635D01*
X141833109Y-122893037D01*
X141652847Y-122795570D01*
X141494951Y-122664947D01*
X141365433Y-122506142D01*
X141269227Y-122325205D01*
X141209997Y-122129027D01*
X141190000Y-121925081D01*
X141190000Y-121914846D01*
X141190073Y-121904315D01*
X141190074Y-121904308D01*
X141190102Y-121900259D01*
X141212945Y-121696612D01*
X141274908Y-121501280D01*
X141373631Y-121321704D01*
X141505353Y-121164723D01*
X141665059Y-121036316D01*
X141846663Y-120941376D01*
X142043250Y-120883517D01*
X142043320Y-120883511D01*
X142043339Y-120883505D01*
X142247325Y-120864941D01*
X142451034Y-120886351D01*
X142451034Y-120886351D01*
G37*
G36*
X125510000Y-122970000D02*
X123410000Y-122970000D01*
X123410000Y-120870000D01*
X125510000Y-120870000D01*
X125510000Y-122970000D01*
X125510000Y-122970000D01*
G37*
G36*
X151196076Y-116191462D02*
X151618709Y-116278215D01*
X152016438Y-116445405D01*
X152374123Y-116686666D01*
X152678131Y-116992804D01*
X152916886Y-117352161D01*
X153081298Y-117751052D01*
X153164962Y-118173589D01*
X153164962Y-118173611D01*
X153165094Y-118174279D01*
X153158213Y-118667067D01*
X153158062Y-118667730D01*
X153158062Y-118667754D01*
X153062633Y-119087787D01*
X152887146Y-119481937D01*
X152638452Y-119834482D01*
X152326013Y-120132015D01*
X151961728Y-120363196D01*
X151559491Y-120519214D01*
X151134598Y-120594135D01*
X150703250Y-120585098D01*
X150281871Y-120492452D01*
X149886513Y-120319725D01*
X149532235Y-120073495D01*
X149232529Y-119763141D01*
X148998812Y-119400482D01*
X148839987Y-118999336D01*
X148762103Y-118574981D01*
X148768127Y-118143584D01*
X148857829Y-117721567D01*
X149027794Y-117325009D01*
X149271545Y-116969021D01*
X149579799Y-116667156D01*
X149940813Y-116430915D01*
X150340839Y-116269294D01*
X150764642Y-116188449D01*
X151196076Y-116191462D01*
X151196076Y-116191462D01*
G37*
G36*
X142451034Y-118346351D02*
X142451052Y-118346357D01*
X142451132Y-118346365D01*
X142646891Y-118406963D01*
X142827153Y-118504430D01*
X142985049Y-118635053D01*
X143114567Y-118793858D01*
X143210773Y-118974795D01*
X143270003Y-119170973D01*
X143290000Y-119374919D01*
X143290000Y-119385154D01*
X143289927Y-119395685D01*
X143289926Y-119395692D01*
X143289898Y-119399741D01*
X143267055Y-119603388D01*
X143205092Y-119798720D01*
X143106369Y-119978296D01*
X142974647Y-120135277D01*
X142814941Y-120263684D01*
X142633337Y-120358624D01*
X142436750Y-120416483D01*
X142436680Y-120416489D01*
X142436661Y-120416495D01*
X142232675Y-120435059D01*
X142028966Y-120413649D01*
X142028948Y-120413643D01*
X142028868Y-120413635D01*
X141833109Y-120353037D01*
X141652847Y-120255570D01*
X141494951Y-120124947D01*
X141365433Y-119966142D01*
X141269227Y-119785205D01*
X141209997Y-119589027D01*
X141190000Y-119385081D01*
X141190000Y-119374846D01*
X141190073Y-119364315D01*
X141190074Y-119364308D01*
X141190102Y-119360259D01*
X141212945Y-119156612D01*
X141274908Y-118961280D01*
X141373631Y-118781704D01*
X141505353Y-118624723D01*
X141665059Y-118496316D01*
X141846663Y-118401376D01*
X142043250Y-118343517D01*
X142043320Y-118343511D01*
X142043339Y-118343505D01*
X142247325Y-118324941D01*
X142451034Y-118346351D01*
X142451034Y-118346351D01*
G37*
G36*
X137371034Y-118346351D02*
X137371052Y-118346357D01*
X137371132Y-118346365D01*
X137566891Y-118406963D01*
X137747153Y-118504430D01*
X137905049Y-118635053D01*
X138034567Y-118793858D01*
X138130773Y-118974795D01*
X138190003Y-119170973D01*
X138210000Y-119374919D01*
X138210000Y-119385154D01*
X138209927Y-119395685D01*
X138209926Y-119395692D01*
X138209898Y-119399741D01*
X138187055Y-119603388D01*
X138125092Y-119798720D01*
X138026369Y-119978296D01*
X137894647Y-120135277D01*
X137734941Y-120263684D01*
X137553337Y-120358624D01*
X137356750Y-120416483D01*
X137356680Y-120416489D01*
X137356661Y-120416495D01*
X137152675Y-120435059D01*
X136948966Y-120413649D01*
X136948948Y-120413643D01*
X136948868Y-120413635D01*
X136753109Y-120353037D01*
X136572847Y-120255570D01*
X136414951Y-120124947D01*
X136285433Y-119966142D01*
X136189227Y-119785205D01*
X136129997Y-119589027D01*
X136110000Y-119385081D01*
X136110000Y-119374846D01*
X136110073Y-119364315D01*
X136110074Y-119364308D01*
X136110102Y-119360259D01*
X136132945Y-119156612D01*
X136194908Y-118961280D01*
X136293631Y-118781704D01*
X136425353Y-118624723D01*
X136585059Y-118496316D01*
X136766663Y-118401376D01*
X136963250Y-118343517D01*
X136963320Y-118343511D01*
X136963339Y-118343505D01*
X137167325Y-118324941D01*
X137371034Y-118346351D01*
X137371034Y-118346351D01*
G37*
G36*
X139911034Y-118346351D02*
X139911052Y-118346357D01*
X139911132Y-118346365D01*
X140106891Y-118406963D01*
X140287153Y-118504430D01*
X140445049Y-118635053D01*
X140574567Y-118793858D01*
X140670773Y-118974795D01*
X140730003Y-119170973D01*
X140750000Y-119374919D01*
X140750000Y-119385154D01*
X140749927Y-119395685D01*
X140749926Y-119395692D01*
X140749898Y-119399741D01*
X140727055Y-119603388D01*
X140665092Y-119798720D01*
X140566369Y-119978296D01*
X140434647Y-120135277D01*
X140274941Y-120263684D01*
X140093337Y-120358624D01*
X139896750Y-120416483D01*
X139896680Y-120416489D01*
X139896661Y-120416495D01*
X139692675Y-120435059D01*
X139488966Y-120413649D01*
X139488948Y-120413643D01*
X139488868Y-120413635D01*
X139293109Y-120353037D01*
X139112847Y-120255570D01*
X138954951Y-120124947D01*
X138825433Y-119966142D01*
X138729227Y-119785205D01*
X138669997Y-119589027D01*
X138650000Y-119385081D01*
X138650000Y-119374846D01*
X138650073Y-119364315D01*
X138650074Y-119364308D01*
X138650102Y-119360259D01*
X138672945Y-119156612D01*
X138734908Y-118961280D01*
X138833631Y-118781704D01*
X138965353Y-118624723D01*
X139125059Y-118496316D01*
X139306663Y-118401376D01*
X139503250Y-118343517D01*
X139503320Y-118343511D01*
X139503339Y-118343505D01*
X139707325Y-118324941D01*
X139911034Y-118346351D01*
X139911034Y-118346351D01*
G37*
G36*
X134831034Y-118346351D02*
X134831052Y-118346357D01*
X134831132Y-118346365D01*
X135026891Y-118406963D01*
X135207153Y-118504430D01*
X135365049Y-118635053D01*
X135494567Y-118793858D01*
X135590773Y-118974795D01*
X135650003Y-119170973D01*
X135670000Y-119374919D01*
X135670000Y-119385154D01*
X135669927Y-119395685D01*
X135669926Y-119395692D01*
X135669898Y-119399741D01*
X135647055Y-119603388D01*
X135585092Y-119798720D01*
X135486369Y-119978296D01*
X135354647Y-120135277D01*
X135194941Y-120263684D01*
X135013337Y-120358624D01*
X134816750Y-120416483D01*
X134816680Y-120416489D01*
X134816661Y-120416495D01*
X134612675Y-120435059D01*
X134408966Y-120413649D01*
X134408948Y-120413643D01*
X134408868Y-120413635D01*
X134213109Y-120353037D01*
X134032847Y-120255570D01*
X133874951Y-120124947D01*
X133745433Y-119966142D01*
X133649227Y-119785205D01*
X133589997Y-119589027D01*
X133570000Y-119385081D01*
X133570000Y-119374846D01*
X133570073Y-119364315D01*
X133570074Y-119364308D01*
X133570102Y-119360259D01*
X133592945Y-119156612D01*
X133654908Y-118961280D01*
X133753631Y-118781704D01*
X133885353Y-118624723D01*
X134045059Y-118496316D01*
X134226663Y-118401376D01*
X134423250Y-118343517D01*
X134423320Y-118343511D01*
X134423339Y-118343505D01*
X134627325Y-118324941D01*
X134831034Y-118346351D01*
X134831034Y-118346351D01*
G37*
G36*
X132291034Y-118346351D02*
X132291052Y-118346357D01*
X132291132Y-118346365D01*
X132486891Y-118406963D01*
X132667153Y-118504430D01*
X132825049Y-118635053D01*
X132954567Y-118793858D01*
X133050773Y-118974795D01*
X133110003Y-119170973D01*
X133130000Y-119374919D01*
X133130000Y-119385154D01*
X133129927Y-119395685D01*
X133129926Y-119395692D01*
X133129898Y-119399741D01*
X133107055Y-119603388D01*
X133045092Y-119798720D01*
X132946369Y-119978296D01*
X132814647Y-120135277D01*
X132654941Y-120263684D01*
X132473337Y-120358624D01*
X132276750Y-120416483D01*
X132276680Y-120416489D01*
X132276661Y-120416495D01*
X132072675Y-120435059D01*
X131868966Y-120413649D01*
X131868948Y-120413643D01*
X131868868Y-120413635D01*
X131673109Y-120353037D01*
X131492847Y-120255570D01*
X131334951Y-120124947D01*
X131205433Y-119966142D01*
X131109227Y-119785205D01*
X131049997Y-119589027D01*
X131030000Y-119385081D01*
X131030000Y-119374846D01*
X131030073Y-119364315D01*
X131030074Y-119364308D01*
X131030102Y-119360259D01*
X131052945Y-119156612D01*
X131114908Y-118961280D01*
X131213631Y-118781704D01*
X131345353Y-118624723D01*
X131505059Y-118496316D01*
X131686663Y-118401376D01*
X131883250Y-118343517D01*
X131883320Y-118343511D01*
X131883339Y-118343505D01*
X132087325Y-118324941D01*
X132291034Y-118346351D01*
X132291034Y-118346351D01*
G37*
G36*
X129751034Y-118346351D02*
X129751052Y-118346357D01*
X129751132Y-118346365D01*
X129946891Y-118406963D01*
X130127153Y-118504430D01*
X130285049Y-118635053D01*
X130414567Y-118793858D01*
X130510773Y-118974795D01*
X130570003Y-119170973D01*
X130590000Y-119374919D01*
X130590000Y-119385154D01*
X130589927Y-119395685D01*
X130589926Y-119395692D01*
X130589898Y-119399741D01*
X130567055Y-119603388D01*
X130505092Y-119798720D01*
X130406369Y-119978296D01*
X130274647Y-120135277D01*
X130114941Y-120263684D01*
X129933337Y-120358624D01*
X129736750Y-120416483D01*
X129736680Y-120416489D01*
X129736661Y-120416495D01*
X129532675Y-120435059D01*
X129328966Y-120413649D01*
X129328948Y-120413643D01*
X129328868Y-120413635D01*
X129133109Y-120353037D01*
X128952847Y-120255570D01*
X128794951Y-120124947D01*
X128665433Y-119966142D01*
X128569227Y-119785205D01*
X128509997Y-119589027D01*
X128490000Y-119385081D01*
X128490000Y-119374846D01*
X128490073Y-119364315D01*
X128490074Y-119364308D01*
X128490102Y-119360259D01*
X128512945Y-119156612D01*
X128574908Y-118961280D01*
X128673631Y-118781704D01*
X128805353Y-118624723D01*
X128965059Y-118496316D01*
X129146663Y-118401376D01*
X129343250Y-118343517D01*
X129343320Y-118343511D01*
X129343339Y-118343505D01*
X129547325Y-118324941D01*
X129751034Y-118346351D01*
X129751034Y-118346351D01*
G37*
G36*
X127211034Y-118346351D02*
X127211052Y-118346357D01*
X127211132Y-118346365D01*
X127406891Y-118406963D01*
X127587153Y-118504430D01*
X127745049Y-118635053D01*
X127874567Y-118793858D01*
X127970773Y-118974795D01*
X128030003Y-119170973D01*
X128050000Y-119374919D01*
X128050000Y-119385154D01*
X128049927Y-119395685D01*
X128049926Y-119395692D01*
X128049898Y-119399741D01*
X128027055Y-119603388D01*
X127965092Y-119798720D01*
X127866369Y-119978296D01*
X127734647Y-120135277D01*
X127574941Y-120263684D01*
X127393337Y-120358624D01*
X127196750Y-120416483D01*
X127196680Y-120416489D01*
X127196661Y-120416495D01*
X126992675Y-120435059D01*
X126788966Y-120413649D01*
X126788948Y-120413643D01*
X126788868Y-120413635D01*
X126593109Y-120353037D01*
X126412847Y-120255570D01*
X126254951Y-120124947D01*
X126125433Y-119966142D01*
X126029227Y-119785205D01*
X125969997Y-119589027D01*
X125950000Y-119385081D01*
X125950000Y-119374846D01*
X125950073Y-119364315D01*
X125950074Y-119364308D01*
X125950102Y-119360259D01*
X125972945Y-119156612D01*
X126034908Y-118961280D01*
X126133631Y-118781704D01*
X126265353Y-118624723D01*
X126425059Y-118496316D01*
X126606663Y-118401376D01*
X126803250Y-118343517D01*
X126803320Y-118343511D01*
X126803339Y-118343505D01*
X127007325Y-118324941D01*
X127211034Y-118346351D01*
X127211034Y-118346351D01*
G37*
G36*
X124671034Y-118346351D02*
X124671052Y-118346357D01*
X124671132Y-118346365D01*
X124866891Y-118406963D01*
X125047153Y-118504430D01*
X125205049Y-118635053D01*
X125334567Y-118793858D01*
X125430773Y-118974795D01*
X125490003Y-119170973D01*
X125510000Y-119374919D01*
X125510000Y-119385154D01*
X125509927Y-119395685D01*
X125509926Y-119395692D01*
X125509898Y-119399741D01*
X125487055Y-119603388D01*
X125425092Y-119798720D01*
X125326369Y-119978296D01*
X125194647Y-120135277D01*
X125034941Y-120263684D01*
X124853337Y-120358624D01*
X124656750Y-120416483D01*
X124656680Y-120416489D01*
X124656661Y-120416495D01*
X124452675Y-120435059D01*
X124248966Y-120413649D01*
X124248948Y-120413643D01*
X124248868Y-120413635D01*
X124053109Y-120353037D01*
X123872847Y-120255570D01*
X123714951Y-120124947D01*
X123585433Y-119966142D01*
X123489227Y-119785205D01*
X123429997Y-119589027D01*
X123410000Y-119385081D01*
X123410000Y-119374846D01*
X123410073Y-119364315D01*
X123410074Y-119364308D01*
X123410102Y-119360259D01*
X123432945Y-119156612D01*
X123494908Y-118961280D01*
X123593631Y-118781704D01*
X123725353Y-118624723D01*
X123885059Y-118496316D01*
X124066663Y-118401376D01*
X124263250Y-118343517D01*
X124263320Y-118343511D01*
X124263339Y-118343505D01*
X124467325Y-118324941D01*
X124671034Y-118346351D01*
X124671034Y-118346351D01*
G37*
G36*
X147518559Y-113841129D02*
X147845140Y-113908166D01*
X148152475Y-114037358D01*
X148428869Y-114223788D01*
X148663783Y-114460348D01*
X148848275Y-114738033D01*
X148975322Y-115046272D01*
X149039940Y-115372614D01*
X149039940Y-115372633D01*
X149040073Y-115373306D01*
X149034756Y-115754097D01*
X149034604Y-115754765D01*
X149034604Y-115754784D01*
X148960898Y-116079203D01*
X148825298Y-116383763D01*
X148633120Y-116656194D01*
X148391692Y-116886101D01*
X148110200Y-117064743D01*
X147799379Y-117185302D01*
X147471052Y-117243195D01*
X147137739Y-117236213D01*
X146812127Y-117164622D01*
X146506624Y-117031152D01*
X146232864Y-116840883D01*
X146001273Y-116601064D01*
X145820674Y-116320828D01*
X145697943Y-116010849D01*
X145637761Y-115682941D01*
X145642416Y-115349588D01*
X145711731Y-115023484D01*
X145843068Y-114717052D01*
X146031422Y-114441970D01*
X146269614Y-114208714D01*
X146548586Y-114026160D01*
X146857693Y-113901272D01*
X147185178Y-113838801D01*
X147518559Y-113841129D01*
X147518559Y-113841129D01*
G37*
G36*
X154768559Y-113841129D02*
X155095140Y-113908166D01*
X155402475Y-114037358D01*
X155678869Y-114223788D01*
X155913783Y-114460348D01*
X156098275Y-114738033D01*
X156225322Y-115046272D01*
X156289940Y-115372614D01*
X156289940Y-115372633D01*
X156290073Y-115373306D01*
X156284756Y-115754097D01*
X156284604Y-115754765D01*
X156284604Y-115754784D01*
X156210898Y-116079203D01*
X156075298Y-116383763D01*
X155883120Y-116656194D01*
X155641692Y-116886101D01*
X155360200Y-117064743D01*
X155049379Y-117185302D01*
X154721052Y-117243195D01*
X154387739Y-117236213D01*
X154062127Y-117164622D01*
X153756624Y-117031152D01*
X153482864Y-116840883D01*
X153251273Y-116601064D01*
X153070674Y-116320828D01*
X152947943Y-116010849D01*
X152887761Y-115682941D01*
X152892416Y-115349588D01*
X152961731Y-115023484D01*
X153093068Y-114717052D01*
X153281422Y-114441970D01*
X153519614Y-114208714D01*
X153798586Y-114026160D01*
X154107693Y-113901272D01*
X154435178Y-113838801D01*
X154768559Y-113841129D01*
X154768559Y-113841129D01*
G37*
G36*
X120463000Y-117066000D02*
X119313000Y-117066000D01*
X119313000Y-115466000D01*
X120463000Y-115466000D01*
X120463000Y-117066000D01*
X120463000Y-117066000D01*
G37*
G36*
X120463000Y-115166000D02*
X119313000Y-115166000D01*
X119313000Y-113566000D01*
X120463000Y-113566000D01*
X120463000Y-115166000D01*
X120463000Y-115166000D01*
G37*
G36*
X124310000Y-111827000D02*
X122710000Y-111827000D01*
X122710000Y-110677000D01*
X124310000Y-110677000D01*
X124310000Y-111827000D01*
X124310000Y-111827000D01*
G37*
G36*
X126210000Y-111827000D02*
X124610000Y-111827000D01*
X124610000Y-110677000D01*
X126210000Y-110677000D01*
X126210000Y-111827000D01*
X126210000Y-111827000D01*
G37*
G36*
X141582000Y-110303000D02*
X139982000Y-110303000D01*
X139982000Y-109153000D01*
X141582000Y-109153000D01*
X141582000Y-110303000D01*
X141582000Y-110303000D01*
G37*
G36*
X143482000Y-110303000D02*
X141882000Y-110303000D01*
X141882000Y-109153000D01*
X143482000Y-109153000D01*
X143482000Y-110303000D01*
X143482000Y-110303000D01*
G37*
G36*
X121479000Y-110208000D02*
X120329000Y-110208000D01*
X120329000Y-108608000D01*
X121479000Y-108608000D01*
X121479000Y-110208000D01*
X121479000Y-110208000D01*
G37*
G36*
X131385000Y-110208000D02*
X130235000Y-110208000D01*
X130235000Y-108608000D01*
X131385000Y-108608000D01*
X131385000Y-110208000D01*
X131385000Y-110208000D01*
G37*
G36*
X127067000Y-110208000D02*
X125917000Y-110208000D01*
X125917000Y-108608000D01*
X127067000Y-108608000D01*
X127067000Y-110208000D01*
X127067000Y-110208000D01*
G37*
G36*
X137481000Y-110208000D02*
X136331000Y-110208000D01*
X136331000Y-108608000D01*
X137481000Y-108608000D01*
X137481000Y-110208000D01*
X137481000Y-110208000D01*
G37*
G36*
X143069000Y-108938000D02*
X141919000Y-108938000D01*
X141919000Y-107338000D01*
X143069000Y-107338000D01*
X143069000Y-108938000D01*
X143069000Y-108938000D01*
G37*
G36*
X121479000Y-108308000D02*
X120329000Y-108308000D01*
X120329000Y-106708000D01*
X121479000Y-106708000D01*
X121479000Y-108308000D01*
X121479000Y-108308000D01*
G37*
G36*
X131385000Y-108308000D02*
X130235000Y-108308000D01*
X130235000Y-106708000D01*
X131385000Y-106708000D01*
X131385000Y-108308000D01*
X131385000Y-108308000D01*
G37*
G36*
X137481000Y-108308000D02*
X136331000Y-108308000D01*
X136331000Y-106708000D01*
X137481000Y-106708000D01*
X137481000Y-108308000D01*
X137481000Y-108308000D01*
G37*
G36*
X127067000Y-108308000D02*
X125917000Y-108308000D01*
X125917000Y-106708000D01*
X127067000Y-106708000D01*
X127067000Y-108308000D01*
X127067000Y-108308000D01*
G37*
G36*
X143069000Y-107038000D02*
X141919000Y-107038000D01*
X141919000Y-105438000D01*
X143069000Y-105438000D01*
X143069000Y-107038000D01*
X143069000Y-107038000D01*
G37*
G36*
X123802000Y-106747000D02*
X122202000Y-106747000D01*
X122202000Y-105597000D01*
X123802000Y-105597000D01*
X123802000Y-106747000D01*
X123802000Y-106747000D01*
G37*
G36*
X125702000Y-106747000D02*
X124102000Y-106747000D01*
X124102000Y-105597000D01*
X125702000Y-105597000D01*
X125702000Y-106747000D01*
X125702000Y-106747000D01*
G37*
G36*
X125702000Y-105223000D02*
X124102000Y-105223000D01*
X124102000Y-104073000D01*
X125702000Y-104073000D01*
X125702000Y-105223000D01*
X125702000Y-105223000D01*
G37*
G36*
X123802000Y-105223000D02*
X122202000Y-105223000D01*
X122202000Y-104073000D01*
X123802000Y-104073000D01*
X123802000Y-105223000D01*
X123802000Y-105223000D01*
G37*
G36*
X141450000Y-104715000D02*
X139850000Y-104715000D01*
X139850000Y-102295000D01*
X141450000Y-102295000D01*
X141450000Y-104715000D01*
X141450000Y-104715000D01*
G37*
G36*
X139550000Y-104715000D02*
X137950000Y-104715000D01*
X137950000Y-102295000D01*
X139550000Y-102295000D01*
X139550000Y-104715000D01*
X139550000Y-104715000D01*
G37*
G36*
X123802000Y-103445000D02*
X122202000Y-103445000D01*
X122202000Y-102295000D01*
X123802000Y-102295000D01*
X123802000Y-103445000D01*
X123802000Y-103445000D01*
G37*
G36*
X125702000Y-103445000D02*
X124102000Y-103445000D01*
X124102000Y-102295000D01*
X125702000Y-102295000D01*
X125702000Y-103445000D01*
X125702000Y-103445000D01*
G37*
G36*
X147518559Y-99841129D02*
X147845140Y-99908166D01*
X148152475Y-100037358D01*
X148428869Y-100223788D01*
X148663783Y-100460348D01*
X148848275Y-100738033D01*
X148975322Y-101046272D01*
X149039940Y-101372614D01*
X149039940Y-101372633D01*
X149040073Y-101373306D01*
X149034756Y-101754097D01*
X149034604Y-101754765D01*
X149034604Y-101754784D01*
X148960898Y-102079203D01*
X148825298Y-102383763D01*
X148633120Y-102656194D01*
X148391692Y-102886101D01*
X148110200Y-103064743D01*
X147799379Y-103185302D01*
X147471052Y-103243195D01*
X147137739Y-103236213D01*
X146812127Y-103164622D01*
X146506624Y-103031152D01*
X146232864Y-102840883D01*
X146001273Y-102601064D01*
X145820674Y-102320828D01*
X145697943Y-102010849D01*
X145637761Y-101682941D01*
X145642416Y-101349588D01*
X145711731Y-101023484D01*
X145843068Y-100717052D01*
X146031422Y-100441970D01*
X146269614Y-100208714D01*
X146548586Y-100026160D01*
X146857693Y-99901272D01*
X147185178Y-99838801D01*
X147518559Y-99841129D01*
X147518559Y-99841129D01*
G37*
G36*
X154768559Y-99841129D02*
X155095140Y-99908166D01*
X155402475Y-100037358D01*
X155678869Y-100223788D01*
X155913783Y-100460348D01*
X156098275Y-100738033D01*
X156225322Y-101046272D01*
X156289940Y-101372614D01*
X156289940Y-101372633D01*
X156290073Y-101373306D01*
X156284756Y-101754097D01*
X156284604Y-101754765D01*
X156284604Y-101754784D01*
X156210898Y-102079203D01*
X156075298Y-102383763D01*
X155883120Y-102656194D01*
X155641692Y-102886101D01*
X155360200Y-103064743D01*
X155049379Y-103185302D01*
X154721052Y-103243195D01*
X154387739Y-103236213D01*
X154062127Y-103164622D01*
X153756624Y-103031152D01*
X153482864Y-102840883D01*
X153251273Y-102601064D01*
X153070674Y-102320828D01*
X152947943Y-102010849D01*
X152887761Y-101682941D01*
X152892416Y-101349588D01*
X152961731Y-101023484D01*
X153093068Y-100717052D01*
X153281422Y-100441970D01*
X153519614Y-100208714D01*
X153798586Y-100026160D01*
X154107693Y-99901272D01*
X154435178Y-99838801D01*
X154768559Y-99841129D01*
X154768559Y-99841129D01*
G37*
G36*
X141450000Y-100397000D02*
X139850000Y-100397000D01*
X139850000Y-99247000D01*
X141450000Y-99247000D01*
X141450000Y-100397000D01*
X141450000Y-100397000D01*
G37*
G36*
X139550000Y-100397000D02*
X137950000Y-100397000D01*
X137950000Y-99247000D01*
X139550000Y-99247000D01*
X139550000Y-100397000D01*
X139550000Y-100397000D01*
G37*
G36*
X125702000Y-98365000D02*
X124102000Y-98365000D01*
X124102000Y-97215000D01*
X125702000Y-97215000D01*
X125702000Y-98365000D01*
X125702000Y-98365000D01*
G37*
G36*
X123802000Y-98365000D02*
X122202000Y-98365000D01*
X122202000Y-97215000D01*
X123802000Y-97215000D01*
X123802000Y-98365000D01*
X123802000Y-98365000D01*
G37*
G36*
X125702000Y-96079000D02*
X124102000Y-96079000D01*
X124102000Y-94929000D01*
X125702000Y-94929000D01*
X125702000Y-96079000D01*
X125702000Y-96079000D01*
G37*
G36*
X123802000Y-96079000D02*
X122202000Y-96079000D01*
X122202000Y-94929000D01*
X123802000Y-94929000D01*
X123802000Y-96079000D01*
X123802000Y-96079000D01*
G37*
G36*
X141450000Y-95063000D02*
X139850000Y-95063000D01*
X139850000Y-93913000D01*
X141450000Y-93913000D01*
X141450000Y-95063000D01*
X141450000Y-95063000D01*
G37*
G36*
X139550000Y-95063000D02*
X137950000Y-95063000D01*
X137950000Y-93913000D01*
X139550000Y-93913000D01*
X139550000Y-95063000D01*
X139550000Y-95063000D01*
G37*
G36*
X133671000Y-94587000D02*
X132521000Y-94587000D01*
X132521000Y-92987000D01*
X133671000Y-92987000D01*
X133671000Y-94587000D01*
X133671000Y-94587000D01*
G37*
G36*
X129099000Y-94587000D02*
X127949000Y-94587000D01*
X127949000Y-92987000D01*
X129099000Y-92987000D01*
X129099000Y-94587000D01*
X129099000Y-94587000D01*
G37*
G36*
X136973000Y-94460000D02*
X135823000Y-94460000D01*
X135823000Y-92860000D01*
X136973000Y-92860000D01*
X136973000Y-94460000D01*
X136973000Y-94460000D01*
G37*
G36*
X123511000Y-93698000D02*
X122361000Y-93698000D01*
X122361000Y-92098000D01*
X123511000Y-92098000D01*
X123511000Y-93698000D01*
X123511000Y-93698000D01*
G37*
G36*
X129099000Y-92687000D02*
X127949000Y-92687000D01*
X127949000Y-91087000D01*
X129099000Y-91087000D01*
X129099000Y-92687000D01*
X129099000Y-92687000D01*
G37*
G36*
X133671000Y-92687000D02*
X132521000Y-92687000D01*
X132521000Y-91087000D01*
X133671000Y-91087000D01*
X133671000Y-92687000D01*
X133671000Y-92687000D01*
G37*
G36*
X136973000Y-92560000D02*
X135823000Y-92560000D01*
X135823000Y-90960000D01*
X136973000Y-90960000D01*
X136973000Y-92560000D01*
X136973000Y-92560000D01*
G37*
G36*
X141037000Y-90765000D02*
X141040959Y-90792859D01*
X141052523Y-90818513D01*
X141070776Y-90839929D01*
X141094272Y-90855412D01*
X141121152Y-90863736D01*
X141137000Y-90865000D01*
X142090000Y-90865000D01*
X142090000Y-92015000D01*
X140490000Y-92015000D01*
X140490000Y-91512000D01*
X140486041Y-91484141D01*
X140474477Y-91458487D01*
X140456224Y-91437071D01*
X140432728Y-91421588D01*
X140405848Y-91413264D01*
X140390000Y-91412000D01*
X139887000Y-91412000D01*
X139887000Y-89812000D01*
X141037000Y-89812000D01*
X141037000Y-90765000D01*
X141037000Y-90765000D01*
G37*
G36*
X143990000Y-92015000D02*
X142390000Y-92015000D01*
X142390000Y-90865000D01*
X143990000Y-90865000D01*
X143990000Y-92015000D01*
X143990000Y-92015000D01*
G37*
G36*
X123511000Y-91798000D02*
X122361000Y-91798000D01*
X122361000Y-90198000D01*
X123511000Y-90198000D01*
X123511000Y-91798000D01*
X123511000Y-91798000D01*
G37*
G36*
X144970000Y-90465000D02*
X143320000Y-90465000D01*
X143320000Y-88565000D01*
X144970000Y-88565000D01*
X144970000Y-90465000D01*
X144970000Y-90465000D01*
G37*
G36*
X127480000Y-89983000D02*
X125880000Y-89983000D01*
X125880000Y-88833000D01*
X127480000Y-88833000D01*
X127480000Y-89983000D01*
X127480000Y-89983000D01*
G37*
G36*
X125580000Y-89983000D02*
X123980000Y-89983000D01*
X123980000Y-88833000D01*
X125580000Y-88833000D01*
X125580000Y-89983000D01*
X125580000Y-89983000D01*
G37*
G36*
X140525000Y-87290000D02*
X138825000Y-87290000D01*
X138797141Y-87293959D01*
X138771487Y-87305523D01*
X138750071Y-87323776D01*
X138734588Y-87347272D01*
X138726264Y-87374152D01*
X138725000Y-87390000D01*
X138725000Y-88479000D01*
X138728959Y-88506859D01*
X138740523Y-88532513D01*
X138758776Y-88553929D01*
X138782272Y-88569412D01*
X138809152Y-88577736D01*
X138825000Y-88579000D01*
X139164000Y-88579000D01*
X139164000Y-89729000D01*
X137564000Y-89729000D01*
X137564000Y-88555000D01*
X137560041Y-88527141D01*
X137548477Y-88501487D01*
X137530224Y-88480071D01*
X137506728Y-88464588D01*
X137479848Y-88456264D01*
X137464000Y-88455000D01*
X137364000Y-88455000D01*
X137336141Y-88458959D01*
X137310487Y-88470523D01*
X137289071Y-88488776D01*
X137273588Y-88512272D01*
X137265264Y-88539152D01*
X137264000Y-88555000D01*
X137264000Y-89729000D01*
X135664000Y-89729000D01*
X135664000Y-88555000D01*
X135660041Y-88527141D01*
X135648477Y-88501487D01*
X135630224Y-88480071D01*
X135606728Y-88464588D01*
X135579848Y-88456264D01*
X135564000Y-88455000D01*
X134325000Y-88455000D01*
X134325000Y-86805000D01*
X136225000Y-86805000D01*
X136225000Y-88479000D01*
X136228959Y-88506859D01*
X136240523Y-88532513D01*
X136258776Y-88553929D01*
X136282272Y-88569412D01*
X136309152Y-88577736D01*
X136325000Y-88579000D01*
X136725000Y-88579000D01*
X136752859Y-88575041D01*
X136778513Y-88563477D01*
X136799929Y-88545224D01*
X136815412Y-88521728D01*
X136823736Y-88494848D01*
X136825000Y-88479000D01*
X136825000Y-86805000D01*
X138775000Y-86805000D01*
X138802859Y-86801041D01*
X138828513Y-86789477D01*
X138849929Y-86771224D01*
X138865412Y-86747728D01*
X138873736Y-86720848D01*
X138875000Y-86705000D01*
X138875000Y-85390000D01*
X140525000Y-85390000D01*
X140525000Y-87290000D01*
X140525000Y-87290000D01*
G37*
G36*
X141037000Y-89512000D02*
X139887000Y-89512000D01*
X139887000Y-87912000D01*
X141037000Y-87912000D01*
X141037000Y-89512000D01*
X141037000Y-89512000D01*
G37*
G36*
X147518559Y-85841129D02*
X147845140Y-85908166D01*
X148152475Y-86037358D01*
X148428869Y-86223788D01*
X148663783Y-86460348D01*
X148848275Y-86738033D01*
X148975322Y-87046272D01*
X149039940Y-87372614D01*
X149039940Y-87372633D01*
X149040073Y-87373306D01*
X149034756Y-87754097D01*
X149034604Y-87754765D01*
X149034604Y-87754784D01*
X148960898Y-88079203D01*
X148825298Y-88383763D01*
X148633120Y-88656194D01*
X148391692Y-88886101D01*
X148110200Y-89064743D01*
X147799379Y-89185302D01*
X147471052Y-89243195D01*
X147137739Y-89236213D01*
X146812127Y-89164622D01*
X146506624Y-89031152D01*
X146232864Y-88840883D01*
X146001273Y-88601064D01*
X145820674Y-88320828D01*
X145697943Y-88010849D01*
X145637761Y-87682941D01*
X145642416Y-87349588D01*
X145711731Y-87023484D01*
X145843068Y-86717052D01*
X146031422Y-86441970D01*
X146269614Y-86208714D01*
X146548586Y-86026160D01*
X146857693Y-85901272D01*
X147185178Y-85838801D01*
X147518559Y-85841129D01*
X147518559Y-85841129D01*
G37*
G36*
X154768559Y-85841129D02*
X155095140Y-85908166D01*
X155402475Y-86037358D01*
X155678869Y-86223788D01*
X155913783Y-86460348D01*
X156098275Y-86738033D01*
X156225322Y-87046272D01*
X156289940Y-87372614D01*
X156289940Y-87372633D01*
X156290073Y-87373306D01*
X156284756Y-87754097D01*
X156284604Y-87754765D01*
X156284604Y-87754784D01*
X156210898Y-88079203D01*
X156075298Y-88383763D01*
X155883120Y-88656194D01*
X155641692Y-88886101D01*
X155360200Y-89064743D01*
X155049379Y-89185302D01*
X154721052Y-89243195D01*
X154387739Y-89236213D01*
X154062127Y-89164622D01*
X153756624Y-89031152D01*
X153482864Y-88840883D01*
X153251273Y-88601064D01*
X153070674Y-88320828D01*
X152947943Y-88010849D01*
X152887761Y-87682941D01*
X152892416Y-87349588D01*
X152961731Y-87023484D01*
X153093068Y-86717052D01*
X153281422Y-86441970D01*
X153519614Y-86208714D01*
X153798586Y-86026160D01*
X154107693Y-85901272D01*
X154435178Y-85838801D01*
X154768559Y-85841129D01*
X154768559Y-85841129D01*
G37*
G36*
X144970000Y-87965000D02*
X143320000Y-87965000D01*
X143320000Y-86065000D01*
X144970000Y-86065000D01*
X144970000Y-87965000D01*
X144970000Y-87965000D01*
G37*
G36*
X143065000Y-87290000D02*
X141415000Y-87290000D01*
X141415000Y-85390000D01*
X143065000Y-85390000D01*
X143065000Y-87290000D01*
X143065000Y-87290000D01*
G37*
G36*
X132670000Y-85800000D02*
X130270000Y-85800000D01*
X130270000Y-83900000D01*
X132670000Y-83900000D01*
X132670000Y-85800000D01*
X132670000Y-85800000D01*
G37*
G36*
X122970000Y-84870000D02*
X120870000Y-84870000D01*
X120870000Y-82770000D01*
X122970000Y-82770000D01*
X122970000Y-84870000D01*
X122970000Y-84870000D01*
G37*
G36*
X119395685Y-82770073D02*
X119395692Y-82770074D01*
X119399741Y-82770102D01*
X119603388Y-82792945D01*
X119798720Y-82854908D01*
X119978296Y-82953631D01*
X120135277Y-83085353D01*
X120263684Y-83245059D01*
X120358624Y-83426663D01*
X120416483Y-83623250D01*
X120416489Y-83623320D01*
X120416495Y-83623339D01*
X120435059Y-83827325D01*
X120413649Y-84031034D01*
X120413643Y-84031052D01*
X120413635Y-84031132D01*
X120353037Y-84226891D01*
X120255570Y-84407153D01*
X120124947Y-84565049D01*
X119966142Y-84694567D01*
X119785205Y-84790773D01*
X119589027Y-84850003D01*
X119385081Y-84870000D01*
X119374846Y-84870000D01*
X119364315Y-84869927D01*
X119364308Y-84869926D01*
X119360259Y-84869898D01*
X119156612Y-84847055D01*
X118961280Y-84785092D01*
X118781704Y-84686369D01*
X118624723Y-84554647D01*
X118496316Y-84394941D01*
X118401376Y-84213337D01*
X118343517Y-84016750D01*
X118343511Y-84016680D01*
X118343505Y-84016661D01*
X118324941Y-83812675D01*
X118346351Y-83608966D01*
X118346357Y-83608948D01*
X118346365Y-83608868D01*
X118406963Y-83413109D01*
X118504430Y-83232847D01*
X118635053Y-83074951D01*
X118793858Y-82945433D01*
X118974795Y-82849227D01*
X119170973Y-82789997D01*
X119374919Y-82770000D01*
X119385154Y-82770000D01*
X119395685Y-82770073D01*
X119395685Y-82770073D01*
G37*
G36*
X143065000Y-84790000D02*
X141415000Y-84790000D01*
X141415000Y-82890000D01*
X143065000Y-82890000D01*
X143065000Y-84790000D01*
X143065000Y-84790000D01*
G37*
G36*
X138970000Y-82790000D02*
X138973959Y-82817859D01*
X138985523Y-82843513D01*
X139003776Y-82864929D01*
X139027272Y-82880412D01*
X139054152Y-82888736D01*
X139070000Y-82890000D01*
X140525000Y-82890000D01*
X140525000Y-84790000D01*
X138875000Y-84790000D01*
X138875000Y-84750000D01*
X138871041Y-84722141D01*
X138859477Y-84696487D01*
X138841224Y-84675071D01*
X138817728Y-84659588D01*
X138790848Y-84651264D01*
X138775000Y-84650000D01*
X136570000Y-84650000D01*
X136570000Y-80450000D01*
X138970000Y-80450000D01*
X138970000Y-82790000D01*
X138970000Y-82790000D01*
G37*
G36*
X132670000Y-83500000D02*
X130270000Y-83500000D01*
X130270000Y-81600000D01*
X132670000Y-81600000D01*
X132670000Y-83500000D01*
X132670000Y-83500000D01*
G37*
G36*
X121935685Y-80230073D02*
X121935692Y-80230074D01*
X121939741Y-80230102D01*
X122143388Y-80252945D01*
X122338720Y-80314908D01*
X122518296Y-80413631D01*
X122675277Y-80545353D01*
X122803684Y-80705059D01*
X122898624Y-80886663D01*
X122956483Y-81083250D01*
X122956489Y-81083320D01*
X122956495Y-81083339D01*
X122975059Y-81287325D01*
X122953649Y-81491034D01*
X122953643Y-81491052D01*
X122953635Y-81491132D01*
X122893037Y-81686891D01*
X122795570Y-81867153D01*
X122664947Y-82025049D01*
X122506142Y-82154567D01*
X122325205Y-82250773D01*
X122129027Y-82310003D01*
X121925081Y-82330000D01*
X121914846Y-82330000D01*
X121904315Y-82329927D01*
X121904308Y-82329926D01*
X121900259Y-82329898D01*
X121696612Y-82307055D01*
X121501280Y-82245092D01*
X121321704Y-82146369D01*
X121164723Y-82014647D01*
X121036316Y-81854941D01*
X120941376Y-81673337D01*
X120883517Y-81476750D01*
X120883511Y-81476680D01*
X120883505Y-81476661D01*
X120864941Y-81272675D01*
X120886351Y-81068966D01*
X120886357Y-81068948D01*
X120886365Y-81068868D01*
X120946963Y-80873109D01*
X121044430Y-80692847D01*
X121175053Y-80534951D01*
X121333858Y-80405433D01*
X121514795Y-80309227D01*
X121710973Y-80249997D01*
X121914919Y-80230000D01*
X121925154Y-80230000D01*
X121935685Y-80230073D01*
X121935685Y-80230073D01*
G37*
G36*
X119395685Y-80230073D02*
X119395692Y-80230074D01*
X119399741Y-80230102D01*
X119603388Y-80252945D01*
X119798720Y-80314908D01*
X119978296Y-80413631D01*
X120135277Y-80545353D01*
X120263684Y-80705059D01*
X120358624Y-80886663D01*
X120416483Y-81083250D01*
X120416489Y-81083320D01*
X120416495Y-81083339D01*
X120435059Y-81287325D01*
X120413649Y-81491034D01*
X120413643Y-81491052D01*
X120413635Y-81491132D01*
X120353037Y-81686891D01*
X120255570Y-81867153D01*
X120124947Y-82025049D01*
X119966142Y-82154567D01*
X119785205Y-82250773D01*
X119589027Y-82310003D01*
X119385081Y-82330000D01*
X119374846Y-82330000D01*
X119364315Y-82329927D01*
X119364308Y-82329926D01*
X119360259Y-82329898D01*
X119156612Y-82307055D01*
X118961280Y-82245092D01*
X118781704Y-82146369D01*
X118624723Y-82014647D01*
X118496316Y-81854941D01*
X118401376Y-81673337D01*
X118343517Y-81476750D01*
X118343511Y-81476680D01*
X118343505Y-81476661D01*
X118324941Y-81272675D01*
X118346351Y-81068966D01*
X118346357Y-81068948D01*
X118346365Y-81068868D01*
X118406963Y-80873109D01*
X118504430Y-80692847D01*
X118635053Y-80534951D01*
X118793858Y-80405433D01*
X118974795Y-80309227D01*
X119170973Y-80249997D01*
X119374919Y-80230000D01*
X119385154Y-80230000D01*
X119395685Y-80230073D01*
X119395685Y-80230073D01*
G37*
G36*
X132670000Y-81200000D02*
X130270000Y-81200000D01*
X130270000Y-79300000D01*
X132670000Y-79300000D01*
X132670000Y-81200000D01*
X132670000Y-81200000D01*
G37*
G36*
X126700000Y-80835000D02*
X124800000Y-80835000D01*
X124800000Y-79185000D01*
X126700000Y-79185000D01*
X126700000Y-80835000D01*
X126700000Y-80835000D01*
G37*
G36*
X129200000Y-80835000D02*
X127300000Y-80835000D01*
X127300000Y-79185000D01*
X129200000Y-79185000D01*
X129200000Y-80835000D01*
X129200000Y-80835000D01*
G37*
G36*
X121935685Y-77690073D02*
X121935692Y-77690074D01*
X121939741Y-77690102D01*
X122143388Y-77712945D01*
X122338720Y-77774908D01*
X122518296Y-77873631D01*
X122675277Y-78005353D01*
X122803684Y-78165059D01*
X122898624Y-78346663D01*
X122956483Y-78543250D01*
X122956489Y-78543320D01*
X122956495Y-78543339D01*
X122975059Y-78747325D01*
X122953649Y-78951034D01*
X122953643Y-78951052D01*
X122953635Y-78951132D01*
X122893037Y-79146891D01*
X122795570Y-79327153D01*
X122664947Y-79485049D01*
X122506142Y-79614567D01*
X122325205Y-79710773D01*
X122129027Y-79770003D01*
X121925081Y-79790000D01*
X121914846Y-79790000D01*
X121904315Y-79789927D01*
X121904308Y-79789926D01*
X121900259Y-79789898D01*
X121696612Y-79767055D01*
X121501280Y-79705092D01*
X121321704Y-79606369D01*
X121164723Y-79474647D01*
X121036316Y-79314941D01*
X120941376Y-79133337D01*
X120883517Y-78936750D01*
X120883511Y-78936680D01*
X120883505Y-78936661D01*
X120864941Y-78732675D01*
X120886351Y-78528966D01*
X120886357Y-78528948D01*
X120886365Y-78528868D01*
X120946963Y-78333109D01*
X121044430Y-78152847D01*
X121175053Y-77994951D01*
X121333858Y-77865433D01*
X121514795Y-77769227D01*
X121710973Y-77709997D01*
X121914919Y-77690000D01*
X121925154Y-77690000D01*
X121935685Y-77690073D01*
X121935685Y-77690073D01*
G37*
G36*
X119395685Y-77690073D02*
X119395692Y-77690074D01*
X119399741Y-77690102D01*
X119603388Y-77712945D01*
X119798720Y-77774908D01*
X119978296Y-77873631D01*
X120135277Y-78005353D01*
X120263684Y-78165059D01*
X120358624Y-78346663D01*
X120416483Y-78543250D01*
X120416489Y-78543320D01*
X120416495Y-78543339D01*
X120435059Y-78747325D01*
X120413649Y-78951034D01*
X120413643Y-78951052D01*
X120413635Y-78951132D01*
X120353037Y-79146891D01*
X120255570Y-79327153D01*
X120124947Y-79485049D01*
X119966142Y-79614567D01*
X119785205Y-79710773D01*
X119589027Y-79770003D01*
X119385081Y-79790000D01*
X119374846Y-79790000D01*
X119364315Y-79789927D01*
X119364308Y-79789926D01*
X119360259Y-79789898D01*
X119156612Y-79767055D01*
X118961280Y-79705092D01*
X118781704Y-79606369D01*
X118624723Y-79474647D01*
X118496316Y-79314941D01*
X118401376Y-79133337D01*
X118343517Y-78936750D01*
X118343511Y-78936680D01*
X118343505Y-78936661D01*
X118324941Y-78732675D01*
X118346351Y-78528966D01*
X118346357Y-78528948D01*
X118346365Y-78528868D01*
X118406963Y-78333109D01*
X118504430Y-78152847D01*
X118635053Y-77994951D01*
X118793858Y-77865433D01*
X118974795Y-77769227D01*
X119170973Y-77709997D01*
X119374919Y-77690000D01*
X119385154Y-77690000D01*
X119395685Y-77690073D01*
X119395685Y-77690073D01*
G37*
G36*
X141900000Y-79565000D02*
X140000000Y-79565000D01*
X140000000Y-77915000D01*
X141900000Y-77915000D01*
X141900000Y-79565000D01*
X141900000Y-79565000D01*
G37*
G36*
X139400000Y-79565000D02*
X137500000Y-79565000D01*
X137500000Y-77915000D01*
X139400000Y-77915000D01*
X139400000Y-79565000D01*
X139400000Y-79565000D01*
G37*
G36*
X151196076Y-74991462D02*
X151618709Y-75078215D01*
X152016438Y-75245405D01*
X152374123Y-75486666D01*
X152678131Y-75792804D01*
X152916886Y-76152161D01*
X153081298Y-76551052D01*
X153164962Y-76973589D01*
X153164962Y-76973611D01*
X153165094Y-76974279D01*
X153158213Y-77467067D01*
X153158062Y-77467730D01*
X153158062Y-77467754D01*
X153062633Y-77887787D01*
X152887146Y-78281937D01*
X152638452Y-78634482D01*
X152326013Y-78932015D01*
X151961728Y-79163196D01*
X151559491Y-79319214D01*
X151134598Y-79394135D01*
X150703250Y-79385098D01*
X150281871Y-79292452D01*
X149886513Y-79119725D01*
X149532235Y-78873495D01*
X149232529Y-78563141D01*
X148998812Y-78200482D01*
X148839987Y-77799336D01*
X148762103Y-77374981D01*
X148768127Y-76943584D01*
X148857829Y-76521567D01*
X149027794Y-76125009D01*
X149271545Y-75769021D01*
X149579799Y-75467156D01*
X149940813Y-75230915D01*
X150340839Y-75069294D01*
X150764642Y-74988449D01*
X151196076Y-74991462D01*
X151196076Y-74991462D01*
G37*
G36*
X132291034Y-75166351D02*
X132291052Y-75166357D01*
X132291132Y-75166365D01*
X132486891Y-75226963D01*
X132667153Y-75324430D01*
X132825049Y-75455053D01*
X132954567Y-75613858D01*
X133050773Y-75794795D01*
X133110003Y-75990973D01*
X133130000Y-76194919D01*
X133130000Y-76205154D01*
X133129927Y-76215685D01*
X133129926Y-76215692D01*
X133129898Y-76219741D01*
X133107055Y-76423388D01*
X133045092Y-76618720D01*
X132946369Y-76798296D01*
X132814647Y-76955277D01*
X132654941Y-77083684D01*
X132473337Y-77178624D01*
X132276750Y-77236483D01*
X132276680Y-77236489D01*
X132276661Y-77236495D01*
X132072675Y-77255059D01*
X131868966Y-77233649D01*
X131868948Y-77233643D01*
X131868868Y-77233635D01*
X131673109Y-77173037D01*
X131492847Y-77075570D01*
X131334951Y-76944947D01*
X131205433Y-76786142D01*
X131109227Y-76605205D01*
X131049997Y-76409027D01*
X131030000Y-76205081D01*
X131030000Y-76194846D01*
X131030073Y-76184315D01*
X131030074Y-76184308D01*
X131030102Y-76180259D01*
X131052945Y-75976612D01*
X131114908Y-75781280D01*
X131213631Y-75601704D01*
X131345353Y-75444723D01*
X131505059Y-75316316D01*
X131686663Y-75221376D01*
X131883250Y-75163517D01*
X131883320Y-75163511D01*
X131883339Y-75163505D01*
X132087325Y-75144941D01*
X132291034Y-75166351D01*
X132291034Y-75166351D01*
G37*
G36*
X134831034Y-75166351D02*
X134831052Y-75166357D01*
X134831132Y-75166365D01*
X135026891Y-75226963D01*
X135207153Y-75324430D01*
X135365049Y-75455053D01*
X135494567Y-75613858D01*
X135590773Y-75794795D01*
X135650003Y-75990973D01*
X135670000Y-76194919D01*
X135670000Y-76205154D01*
X135669927Y-76215685D01*
X135669926Y-76215692D01*
X135669898Y-76219741D01*
X135647055Y-76423388D01*
X135585092Y-76618720D01*
X135486369Y-76798296D01*
X135354647Y-76955277D01*
X135194941Y-77083684D01*
X135013337Y-77178624D01*
X134816750Y-77236483D01*
X134816680Y-77236489D01*
X134816661Y-77236495D01*
X134612675Y-77255059D01*
X134408966Y-77233649D01*
X134408948Y-77233643D01*
X134408868Y-77233635D01*
X134213109Y-77173037D01*
X134032847Y-77075570D01*
X133874951Y-76944947D01*
X133745433Y-76786142D01*
X133649227Y-76605205D01*
X133589997Y-76409027D01*
X133570000Y-76205081D01*
X133570000Y-76194846D01*
X133570073Y-76184315D01*
X133570074Y-76184308D01*
X133570102Y-76180259D01*
X133592945Y-75976612D01*
X133654908Y-75781280D01*
X133753631Y-75601704D01*
X133885353Y-75444723D01*
X134045059Y-75316316D01*
X134226663Y-75221376D01*
X134423250Y-75163517D01*
X134423320Y-75163511D01*
X134423339Y-75163505D01*
X134627325Y-75144941D01*
X134831034Y-75166351D01*
X134831034Y-75166351D01*
G37*
G36*
X137371034Y-75166351D02*
X137371052Y-75166357D01*
X137371132Y-75166365D01*
X137566891Y-75226963D01*
X137747153Y-75324430D01*
X137905049Y-75455053D01*
X138034567Y-75613858D01*
X138130773Y-75794795D01*
X138190003Y-75990973D01*
X138210000Y-76194919D01*
X138210000Y-76205154D01*
X138209927Y-76215685D01*
X138209926Y-76215692D01*
X138209898Y-76219741D01*
X138187055Y-76423388D01*
X138125092Y-76618720D01*
X138026369Y-76798296D01*
X137894647Y-76955277D01*
X137734941Y-77083684D01*
X137553337Y-77178624D01*
X137356750Y-77236483D01*
X137356680Y-77236489D01*
X137356661Y-77236495D01*
X137152675Y-77255059D01*
X136948966Y-77233649D01*
X136948948Y-77233643D01*
X136948868Y-77233635D01*
X136753109Y-77173037D01*
X136572847Y-77075570D01*
X136414951Y-76944947D01*
X136285433Y-76786142D01*
X136189227Y-76605205D01*
X136129997Y-76409027D01*
X136110000Y-76205081D01*
X136110000Y-76194846D01*
X136110073Y-76184315D01*
X136110074Y-76184308D01*
X136110102Y-76180259D01*
X136132945Y-75976612D01*
X136194908Y-75781280D01*
X136293631Y-75601704D01*
X136425353Y-75444723D01*
X136585059Y-75316316D01*
X136766663Y-75221376D01*
X136963250Y-75163517D01*
X136963320Y-75163511D01*
X136963339Y-75163505D01*
X137167325Y-75144941D01*
X137371034Y-75166351D01*
X137371034Y-75166351D01*
G37*
G36*
X139911034Y-75166351D02*
X139911052Y-75166357D01*
X139911132Y-75166365D01*
X140106891Y-75226963D01*
X140287153Y-75324430D01*
X140445049Y-75455053D01*
X140574567Y-75613858D01*
X140670773Y-75794795D01*
X140730003Y-75990973D01*
X140750000Y-76194919D01*
X140750000Y-76205154D01*
X140749927Y-76215685D01*
X140749926Y-76215692D01*
X140749898Y-76219741D01*
X140727055Y-76423388D01*
X140665092Y-76618720D01*
X140566369Y-76798296D01*
X140434647Y-76955277D01*
X140274941Y-77083684D01*
X140093337Y-77178624D01*
X139896750Y-77236483D01*
X139896680Y-77236489D01*
X139896661Y-77236495D01*
X139692675Y-77255059D01*
X139488966Y-77233649D01*
X139488948Y-77233643D01*
X139488868Y-77233635D01*
X139293109Y-77173037D01*
X139112847Y-77075570D01*
X138954951Y-76944947D01*
X138825433Y-76786142D01*
X138729227Y-76605205D01*
X138669997Y-76409027D01*
X138650000Y-76205081D01*
X138650000Y-76194846D01*
X138650073Y-76184315D01*
X138650074Y-76184308D01*
X138650102Y-76180259D01*
X138672945Y-75976612D01*
X138734908Y-75781280D01*
X138833631Y-75601704D01*
X138965353Y-75444723D01*
X139125059Y-75316316D01*
X139306663Y-75221376D01*
X139503250Y-75163517D01*
X139503320Y-75163511D01*
X139503339Y-75163505D01*
X139707325Y-75144941D01*
X139911034Y-75166351D01*
X139911034Y-75166351D01*
G37*
G36*
X142451034Y-75166351D02*
X142451052Y-75166357D01*
X142451132Y-75166365D01*
X142646891Y-75226963D01*
X142827153Y-75324430D01*
X142985049Y-75455053D01*
X143114567Y-75613858D01*
X143210773Y-75794795D01*
X143270003Y-75990973D01*
X143290000Y-76194919D01*
X143290000Y-76205154D01*
X143289927Y-76215685D01*
X143289926Y-76215692D01*
X143289898Y-76219741D01*
X143267055Y-76423388D01*
X143205092Y-76618720D01*
X143106369Y-76798296D01*
X142974647Y-76955277D01*
X142814941Y-77083684D01*
X142633337Y-77178624D01*
X142436750Y-77236483D01*
X142436680Y-77236489D01*
X142436661Y-77236495D01*
X142232675Y-77255059D01*
X142028966Y-77233649D01*
X142028948Y-77233643D01*
X142028868Y-77233635D01*
X141833109Y-77173037D01*
X141652847Y-77075570D01*
X141494951Y-76944947D01*
X141365433Y-76786142D01*
X141269227Y-76605205D01*
X141209997Y-76409027D01*
X141190000Y-76205081D01*
X141190000Y-76194846D01*
X141190073Y-76184315D01*
X141190074Y-76184308D01*
X141190102Y-76180259D01*
X141212945Y-75976612D01*
X141274908Y-75781280D01*
X141373631Y-75601704D01*
X141505353Y-75444723D01*
X141665059Y-75316316D01*
X141846663Y-75221376D01*
X142043250Y-75163517D01*
X142043320Y-75163511D01*
X142043339Y-75163505D01*
X142247325Y-75144941D01*
X142451034Y-75166351D01*
X142451034Y-75166351D01*
G37*
G36*
X121935685Y-75150073D02*
X121935692Y-75150074D01*
X121939741Y-75150102D01*
X122143388Y-75172945D01*
X122338720Y-75234908D01*
X122518296Y-75333631D01*
X122675277Y-75465353D01*
X122803684Y-75625059D01*
X122898624Y-75806663D01*
X122956483Y-76003250D01*
X122956489Y-76003320D01*
X122956495Y-76003339D01*
X122975059Y-76207325D01*
X122953649Y-76411034D01*
X122953643Y-76411052D01*
X122953635Y-76411132D01*
X122893037Y-76606891D01*
X122795570Y-76787153D01*
X122664947Y-76945049D01*
X122506142Y-77074567D01*
X122325205Y-77170773D01*
X122129027Y-77230003D01*
X121925081Y-77250000D01*
X121914846Y-77250000D01*
X121904315Y-77249927D01*
X121904308Y-77249926D01*
X121900259Y-77249898D01*
X121696612Y-77227055D01*
X121501280Y-77165092D01*
X121321704Y-77066369D01*
X121164723Y-76934647D01*
X121036316Y-76774941D01*
X120941376Y-76593337D01*
X120883517Y-76396750D01*
X120883511Y-76396680D01*
X120883505Y-76396661D01*
X120864941Y-76192675D01*
X120886351Y-75988966D01*
X120886357Y-75988948D01*
X120886365Y-75988868D01*
X120946963Y-75793109D01*
X121044430Y-75612847D01*
X121175053Y-75454951D01*
X121333858Y-75325433D01*
X121514795Y-75229227D01*
X121710973Y-75169997D01*
X121914919Y-75150000D01*
X121925154Y-75150000D01*
X121935685Y-75150073D01*
X121935685Y-75150073D01*
G37*
G36*
X130590000Y-77250000D02*
X128490000Y-77250000D01*
X128490000Y-75150000D01*
X130590000Y-75150000D01*
X130590000Y-77250000D01*
X130590000Y-77250000D01*
G37*
G36*
X128050000Y-77250000D02*
X125950000Y-77250000D01*
X125950000Y-75150000D01*
X128050000Y-75150000D01*
X128050000Y-77250000D01*
X128050000Y-77250000D01*
G37*
G36*
X119395685Y-75150073D02*
X119395692Y-75150074D01*
X119399741Y-75150102D01*
X119603388Y-75172945D01*
X119798720Y-75234908D01*
X119978296Y-75333631D01*
X120135277Y-75465353D01*
X120263684Y-75625059D01*
X120358624Y-75806663D01*
X120416483Y-76003250D01*
X120416489Y-76003320D01*
X120416495Y-76003339D01*
X120435059Y-76207325D01*
X120413649Y-76411034D01*
X120413643Y-76411052D01*
X120413635Y-76411132D01*
X120353037Y-76606891D01*
X120255570Y-76787153D01*
X120124947Y-76945049D01*
X119966142Y-77074567D01*
X119785205Y-77170773D01*
X119589027Y-77230003D01*
X119385081Y-77250000D01*
X119374846Y-77250000D01*
X119364315Y-77249927D01*
X119364308Y-77249926D01*
X119360259Y-77249898D01*
X119156612Y-77227055D01*
X118961280Y-77165092D01*
X118781704Y-77066369D01*
X118624723Y-76934647D01*
X118496316Y-76774941D01*
X118401376Y-76593337D01*
X118343517Y-76396750D01*
X118343511Y-76396680D01*
X118343505Y-76396661D01*
X118324941Y-76192675D01*
X118346351Y-75988966D01*
X118346357Y-75988948D01*
X118346365Y-75988868D01*
X118406963Y-75793109D01*
X118504430Y-75612847D01*
X118635053Y-75454951D01*
X118793858Y-75325433D01*
X118974795Y-75229227D01*
X119170973Y-75169997D01*
X119374919Y-75150000D01*
X119385154Y-75150000D01*
X119395685Y-75150073D01*
X119395685Y-75150073D01*
G37*
G36*
X155129062Y-71861196D02*
X155474854Y-71932176D01*
X155800267Y-72068967D01*
X156092916Y-72266362D01*
X156341655Y-72516842D01*
X156536997Y-72810858D01*
X156671517Y-73137225D01*
X156739944Y-73482811D01*
X156739944Y-73482828D01*
X156740077Y-73483501D01*
X156734447Y-73886691D01*
X156734295Y-73887359D01*
X156734295Y-73887378D01*
X156656245Y-74230916D01*
X156512666Y-74553400D01*
X156309186Y-74841852D01*
X156053557Y-75085285D01*
X155755504Y-75274434D01*
X155426403Y-75402084D01*
X155078761Y-75463383D01*
X154725841Y-75455990D01*
X154381076Y-75380188D01*
X154057602Y-75238866D01*
X153767738Y-75037406D01*
X153522524Y-74783479D01*
X153331300Y-74486758D01*
X153201353Y-74158548D01*
X153137630Y-73811348D01*
X153142558Y-73458387D01*
X153215951Y-73113101D01*
X153355013Y-72788643D01*
X153554446Y-72497380D01*
X153806653Y-72250400D01*
X154102028Y-72057112D01*
X154429323Y-71924876D01*
X154776071Y-71858730D01*
X155129062Y-71861196D01*
X155129062Y-71861196D01*
G37*
G36*
X137371034Y-72626351D02*
X137371052Y-72626357D01*
X137371132Y-72626365D01*
X137566891Y-72686963D01*
X137747153Y-72784430D01*
X137905049Y-72915053D01*
X138034567Y-73073858D01*
X138130773Y-73254795D01*
X138190003Y-73450973D01*
X138210000Y-73654919D01*
X138210000Y-73665154D01*
X138209927Y-73675685D01*
X138209926Y-73675692D01*
X138209898Y-73679741D01*
X138187055Y-73883388D01*
X138125092Y-74078720D01*
X138026369Y-74258296D01*
X137894647Y-74415277D01*
X137734941Y-74543684D01*
X137553337Y-74638624D01*
X137356750Y-74696483D01*
X137356680Y-74696489D01*
X137356661Y-74696495D01*
X137152675Y-74715059D01*
X136948966Y-74693649D01*
X136948948Y-74693643D01*
X136948868Y-74693635D01*
X136753109Y-74633037D01*
X136572847Y-74535570D01*
X136414951Y-74404947D01*
X136285433Y-74246142D01*
X136189227Y-74065205D01*
X136129997Y-73869027D01*
X136110000Y-73665081D01*
X136110000Y-73654846D01*
X136110073Y-73644315D01*
X136110074Y-73644308D01*
X136110102Y-73640259D01*
X136132945Y-73436612D01*
X136194908Y-73241280D01*
X136293631Y-73061704D01*
X136425353Y-72904723D01*
X136585059Y-72776316D01*
X136766663Y-72681376D01*
X136963250Y-72623517D01*
X136963320Y-72623511D01*
X136963339Y-72623505D01*
X137167325Y-72604941D01*
X137371034Y-72626351D01*
X137371034Y-72626351D01*
G37*
G36*
X139911034Y-72626351D02*
X139911052Y-72626357D01*
X139911132Y-72626365D01*
X140106891Y-72686963D01*
X140287153Y-72784430D01*
X140445049Y-72915053D01*
X140574567Y-73073858D01*
X140670773Y-73254795D01*
X140730003Y-73450973D01*
X140750000Y-73654919D01*
X140750000Y-73665154D01*
X140749927Y-73675685D01*
X140749926Y-73675692D01*
X140749898Y-73679741D01*
X140727055Y-73883388D01*
X140665092Y-74078720D01*
X140566369Y-74258296D01*
X140434647Y-74415277D01*
X140274941Y-74543684D01*
X140093337Y-74638624D01*
X139896750Y-74696483D01*
X139896680Y-74696489D01*
X139896661Y-74696495D01*
X139692675Y-74715059D01*
X139488966Y-74693649D01*
X139488948Y-74693643D01*
X139488868Y-74693635D01*
X139293109Y-74633037D01*
X139112847Y-74535570D01*
X138954951Y-74404947D01*
X138825433Y-74246142D01*
X138729227Y-74065205D01*
X138669997Y-73869027D01*
X138650000Y-73665081D01*
X138650000Y-73654846D01*
X138650073Y-73644315D01*
X138650074Y-73644308D01*
X138650102Y-73640259D01*
X138672945Y-73436612D01*
X138734908Y-73241280D01*
X138833631Y-73061704D01*
X138965353Y-72904723D01*
X139125059Y-72776316D01*
X139306663Y-72681376D01*
X139503250Y-72623517D01*
X139503320Y-72623511D01*
X139503339Y-72623505D01*
X139707325Y-72604941D01*
X139911034Y-72626351D01*
X139911034Y-72626351D01*
G37*
G36*
X132291034Y-72626351D02*
X132291052Y-72626357D01*
X132291132Y-72626365D01*
X132486891Y-72686963D01*
X132667153Y-72784430D01*
X132825049Y-72915053D01*
X132954567Y-73073858D01*
X133050773Y-73254795D01*
X133110003Y-73450973D01*
X133130000Y-73654919D01*
X133130000Y-73665154D01*
X133129927Y-73675685D01*
X133129926Y-73675692D01*
X133129898Y-73679741D01*
X133107055Y-73883388D01*
X133045092Y-74078720D01*
X132946369Y-74258296D01*
X132814647Y-74415277D01*
X132654941Y-74543684D01*
X132473337Y-74638624D01*
X132276750Y-74696483D01*
X132276680Y-74696489D01*
X132276661Y-74696495D01*
X132072675Y-74715059D01*
X131868966Y-74693649D01*
X131868948Y-74693643D01*
X131868868Y-74693635D01*
X131673109Y-74633037D01*
X131492847Y-74535570D01*
X131334951Y-74404947D01*
X131205433Y-74246142D01*
X131109227Y-74065205D01*
X131049997Y-73869027D01*
X131030000Y-73665081D01*
X131030000Y-73654846D01*
X131030073Y-73644315D01*
X131030074Y-73644308D01*
X131030102Y-73640259D01*
X131052945Y-73436612D01*
X131114908Y-73241280D01*
X131213631Y-73061704D01*
X131345353Y-72904723D01*
X131505059Y-72776316D01*
X131686663Y-72681376D01*
X131883250Y-72623517D01*
X131883320Y-72623511D01*
X131883339Y-72623505D01*
X132087325Y-72604941D01*
X132291034Y-72626351D01*
X132291034Y-72626351D01*
G37*
G36*
X134831034Y-72626351D02*
X134831052Y-72626357D01*
X134831132Y-72626365D01*
X135026891Y-72686963D01*
X135207153Y-72784430D01*
X135365049Y-72915053D01*
X135494567Y-73073858D01*
X135590773Y-73254795D01*
X135650003Y-73450973D01*
X135670000Y-73654919D01*
X135670000Y-73665154D01*
X135669927Y-73675685D01*
X135669926Y-73675692D01*
X135669898Y-73679741D01*
X135647055Y-73883388D01*
X135585092Y-74078720D01*
X135486369Y-74258296D01*
X135354647Y-74415277D01*
X135194941Y-74543684D01*
X135013337Y-74638624D01*
X134816750Y-74696483D01*
X134816680Y-74696489D01*
X134816661Y-74696495D01*
X134612675Y-74715059D01*
X134408966Y-74693649D01*
X134408948Y-74693643D01*
X134408868Y-74693635D01*
X134213109Y-74633037D01*
X134032847Y-74535570D01*
X133874951Y-74404947D01*
X133745433Y-74246142D01*
X133649227Y-74065205D01*
X133589997Y-73869027D01*
X133570000Y-73665081D01*
X133570000Y-73654846D01*
X133570073Y-73644315D01*
X133570074Y-73644308D01*
X133570102Y-73640259D01*
X133592945Y-73436612D01*
X133654908Y-73241280D01*
X133753631Y-73061704D01*
X133885353Y-72904723D01*
X134045059Y-72776316D01*
X134226663Y-72681376D01*
X134423250Y-72623517D01*
X134423320Y-72623511D01*
X134423339Y-72623505D01*
X134627325Y-72604941D01*
X134831034Y-72626351D01*
X134831034Y-72626351D01*
G37*
G36*
X129555685Y-72610073D02*
X129555692Y-72610074D01*
X129559741Y-72610102D01*
X129763388Y-72632945D01*
X129958720Y-72694908D01*
X130138296Y-72793631D01*
X130295277Y-72925353D01*
X130423684Y-73085059D01*
X130518624Y-73266663D01*
X130576483Y-73463250D01*
X130576489Y-73463320D01*
X130576495Y-73463339D01*
X130595059Y-73667325D01*
X130573649Y-73871034D01*
X130573643Y-73871052D01*
X130573635Y-73871132D01*
X130513037Y-74066891D01*
X130415570Y-74247153D01*
X130284947Y-74405049D01*
X130126142Y-74534567D01*
X129945205Y-74630773D01*
X129749027Y-74690003D01*
X129545081Y-74710000D01*
X129534846Y-74710000D01*
X129524315Y-74709927D01*
X129524308Y-74709926D01*
X129520259Y-74709898D01*
X129316612Y-74687055D01*
X129121280Y-74625092D01*
X128941704Y-74526369D01*
X128784723Y-74394647D01*
X128656316Y-74234941D01*
X128561376Y-74053337D01*
X128503517Y-73856750D01*
X128503511Y-73856680D01*
X128503505Y-73856661D01*
X128484941Y-73652675D01*
X128506351Y-73448966D01*
X128506357Y-73448948D01*
X128506365Y-73448868D01*
X128566963Y-73253109D01*
X128664430Y-73072847D01*
X128795053Y-72914951D01*
X128953858Y-72785433D01*
X129134795Y-72689227D01*
X129330973Y-72629997D01*
X129534919Y-72610000D01*
X129545154Y-72610000D01*
X129555685Y-72610073D01*
X129555685Y-72610073D01*
G37*
G36*
X121935685Y-72610073D02*
X121935692Y-72610074D01*
X121939741Y-72610102D01*
X122143388Y-72632945D01*
X122338720Y-72694908D01*
X122518296Y-72793631D01*
X122675277Y-72925353D01*
X122803684Y-73085059D01*
X122898624Y-73266663D01*
X122956483Y-73463250D01*
X122956489Y-73463320D01*
X122956495Y-73463339D01*
X122975059Y-73667325D01*
X122953649Y-73871034D01*
X122953643Y-73871052D01*
X122953635Y-73871132D01*
X122893037Y-74066891D01*
X122795570Y-74247153D01*
X122664947Y-74405049D01*
X122506142Y-74534567D01*
X122325205Y-74630773D01*
X122129027Y-74690003D01*
X121925081Y-74710000D01*
X121914846Y-74710000D01*
X121904315Y-74709927D01*
X121904308Y-74709926D01*
X121900259Y-74709898D01*
X121696612Y-74687055D01*
X121501280Y-74625092D01*
X121321704Y-74526369D01*
X121164723Y-74394647D01*
X121036316Y-74234941D01*
X120941376Y-74053337D01*
X120883517Y-73856750D01*
X120883511Y-73856680D01*
X120883505Y-73856661D01*
X120864941Y-73652675D01*
X120886351Y-73448966D01*
X120886357Y-73448948D01*
X120886365Y-73448868D01*
X120946963Y-73253109D01*
X121044430Y-73072847D01*
X121175053Y-72914951D01*
X121333858Y-72785433D01*
X121514795Y-72689227D01*
X121710973Y-72629997D01*
X121914919Y-72610000D01*
X121925154Y-72610000D01*
X121935685Y-72610073D01*
X121935685Y-72610073D01*
G37*
G36*
X119395685Y-72610073D02*
X119395692Y-72610074D01*
X119399741Y-72610102D01*
X119603388Y-72632945D01*
X119798720Y-72694908D01*
X119978296Y-72793631D01*
X120135277Y-72925353D01*
X120263684Y-73085059D01*
X120358624Y-73266663D01*
X120416483Y-73463250D01*
X120416489Y-73463320D01*
X120416495Y-73463339D01*
X120435059Y-73667325D01*
X120413649Y-73871034D01*
X120413643Y-73871052D01*
X120413635Y-73871132D01*
X120353037Y-74066891D01*
X120255570Y-74247153D01*
X120124947Y-74405049D01*
X119966142Y-74534567D01*
X119785205Y-74630773D01*
X119589027Y-74690003D01*
X119385081Y-74710000D01*
X119374846Y-74710000D01*
X119364315Y-74709927D01*
X119364308Y-74709926D01*
X119360259Y-74709898D01*
X119156612Y-74687055D01*
X118961280Y-74625092D01*
X118781704Y-74526369D01*
X118624723Y-74394647D01*
X118496316Y-74234941D01*
X118401376Y-74053337D01*
X118343517Y-73856750D01*
X118343511Y-73856680D01*
X118343505Y-73856661D01*
X118324941Y-73652675D01*
X118346351Y-73448966D01*
X118346357Y-73448948D01*
X118346365Y-73448868D01*
X118406963Y-73253109D01*
X118504430Y-73072847D01*
X118635053Y-72914951D01*
X118793858Y-72785433D01*
X118974795Y-72689227D01*
X119170973Y-72629997D01*
X119374919Y-72610000D01*
X119385154Y-72610000D01*
X119395685Y-72610073D01*
X119395685Y-72610073D01*
G37*
G36*
X127015685Y-72610073D02*
X127015692Y-72610074D01*
X127019741Y-72610102D01*
X127223388Y-72632945D01*
X127418720Y-72694908D01*
X127598296Y-72793631D01*
X127755277Y-72925353D01*
X127883684Y-73085059D01*
X127978624Y-73266663D01*
X128036483Y-73463250D01*
X128036489Y-73463320D01*
X128036495Y-73463339D01*
X128055059Y-73667325D01*
X128033649Y-73871034D01*
X128033643Y-73871052D01*
X128033635Y-73871132D01*
X127973037Y-74066891D01*
X127875570Y-74247153D01*
X127744947Y-74405049D01*
X127586142Y-74534567D01*
X127405205Y-74630773D01*
X127209027Y-74690003D01*
X127005081Y-74710000D01*
X126994846Y-74710000D01*
X126984315Y-74709927D01*
X126984308Y-74709926D01*
X126980259Y-74709898D01*
X126776612Y-74687055D01*
X126581280Y-74625092D01*
X126401704Y-74526369D01*
X126244723Y-74394647D01*
X126116316Y-74234941D01*
X126021376Y-74053337D01*
X125963517Y-73856750D01*
X125963511Y-73856680D01*
X125963505Y-73856661D01*
X125944941Y-73652675D01*
X125966351Y-73448966D01*
X125966357Y-73448948D01*
X125966365Y-73448868D01*
X126026963Y-73253109D01*
X126124430Y-73072847D01*
X126255053Y-72914951D01*
X126413858Y-72785433D01*
X126594795Y-72689227D01*
X126790973Y-72629997D01*
X126994919Y-72610000D01*
X127005154Y-72610000D01*
X127015685Y-72610073D01*
X127015685Y-72610073D01*
G37*
G36*
X143290000Y-74710000D02*
X141190000Y-74710000D01*
X141190000Y-72610000D01*
X143290000Y-72610000D01*
X143290000Y-74710000D01*
X143290000Y-74710000D01*
G37*
M02*
