M48
METRIC,TZ
T1C0.400
T2C0.600
T3C1.000
T4C1.500
T5C3.000
%
G90
G05
T1
X121920Y-92075
X121920Y-92964
X121920Y-95580
X121920Y-96901
X121920Y-97790
X121920Y-102870
X121920Y-103886
X121920Y-104902
X121920Y-106172
X121920Y-107442
X121920Y-108585
X123444Y-109728
X124587Y-90932
X124587Y-93472
X124587Y-107188
X124714Y-81915
X124714Y-109855
X125730Y-109728
X127254Y-84328
X127508Y-90805
X127508Y-114808
X128397Y-90805
X128651Y-109855
X130195Y-109982
X132080Y-90805
X132334Y-86360
X133223Y-90805
X135128Y-109855
X136144Y-109728
X136398Y-90805
X137287Y-90805
X138430Y-93218
X138430Y-107188
X139192Y-90805
X139573Y-87630
X140195Y-109334
X140716Y-88138
X140716Y-101600
X140843Y-108204
X140970Y-93980
X140970Y-95504
X140970Y-100584
X140970Y-102362
X140970Y-104902
X140970Y-106045
X141224Y-92202
X142113Y-88646
X144272Y-91567
X144780Y-76962
X157099Y-94615
X157480Y-102616
X158115Y-82931
X158115Y-95885
X158115Y-111633
X158877Y-88646
X158877Y-103378
T2
X118110Y-88646
X121412Y-116332
X143510Y-79375
X143510Y-81915
X144018Y-83566
X150368Y-80010
X158242Y-79756
T3
X119380Y-73660
X119380Y-76200
X119380Y-78740
X119380Y-81280
X119380Y-83820
X121920Y-73660
X121920Y-76200
X121920Y-78740
X121920Y-81280
X121920Y-83820
X124460Y-119380
X124460Y-121920
X127000Y-73660
X127000Y-76200
X127000Y-119380
X127000Y-121920
X129540Y-73660
X129540Y-76200
X129540Y-119380
X129540Y-121920
X132080Y-73660
X132080Y-76200
X132080Y-119380
X132080Y-121920
X134620Y-73660
X134620Y-76200
X134620Y-119380
X134620Y-121920
X137160Y-73660
X137160Y-76200
X137160Y-119380
X137160Y-121920
X139700Y-73660
X139700Y-76200
X139700Y-119380
X139700Y-121920
X142240Y-73660
X142240Y-76200
X142240Y-119380
X142240Y-121920
T4
X147340Y-87540
X147340Y-101540
X147340Y-115540
X154590Y-87540
X154590Y-101540
X154590Y-115540
T5
X131445Y-100330
T0
M30
