G04 #@! TF.FileFunction,Legend,Top*
%FSLAX46Y46*%
G04 Gerber Fmt 4.6, Leading zero omitted, Abs format (unit mm)*
G04 Created by KiCad (PCBNEW 4.0.4-stable) date 12/09/17 18:10:45*
%MOMM*%
%LPD*%
G01*
G04 APERTURE LIST*
%ADD10C,0.100000*%
%ADD11C,0.200000*%
%ADD12C,0.300000*%
%ADD13C,0.150000*%
%ADD14C,0.120000*%
%ADD15C,0.010000*%
G04 APERTURE END LIST*
D10*
D11*
X117856000Y-115316000D02*
X117856000Y-110490000D01*
X117348000Y-115316000D02*
X117856000Y-115316000D01*
X117348000Y-118618000D02*
X117348000Y-115316000D01*
X117856000Y-118618000D02*
X117348000Y-118618000D01*
X117856000Y-123190000D02*
X117856000Y-118618000D01*
D12*
X125650572Y-97198571D02*
X124793429Y-97198571D01*
X125222001Y-97198571D02*
X125222001Y-95698571D01*
X125079144Y-95912857D01*
X124936286Y-96055714D01*
X124793429Y-96127143D01*
D11*
X128444762Y-123404381D02*
X128778095Y-124404381D01*
X129111429Y-123404381D01*
X129444762Y-124404381D02*
X129444762Y-123404381D01*
X129920952Y-124404381D02*
X129920952Y-123404381D01*
X130492381Y-124404381D01*
X130492381Y-123404381D01*
X125650762Y-123150381D02*
X125984095Y-124150381D01*
X126317429Y-123150381D01*
X126650762Y-124150381D02*
X126650762Y-123150381D01*
X127126952Y-124150381D02*
X127126952Y-123150381D01*
X127698381Y-124150381D01*
X127698381Y-123150381D01*
D12*
X142922572Y-117518571D02*
X142065429Y-117518571D01*
X142494001Y-117518571D02*
X142494001Y-116018571D01*
X142351144Y-116232857D01*
X142208286Y-116375714D01*
X142065429Y-116447143D01*
X145208572Y-74084571D02*
X144351429Y-74084571D01*
X144780001Y-74084571D02*
X144780001Y-72584571D01*
X144637144Y-72798857D01*
X144494286Y-72941714D01*
X144351429Y-73013143D01*
X144771000Y-106011714D02*
X144771000Y-105297428D01*
X145199571Y-106154571D02*
X143699571Y-105654571D01*
X145199571Y-105154571D01*
X144628143Y-104654571D02*
X144628143Y-103511714D01*
X143699571Y-103011714D02*
X145199571Y-102511714D01*
X143699571Y-102011714D01*
X145199571Y-101511714D02*
X144199571Y-101511714D01*
X143699571Y-101511714D02*
X143771000Y-101583143D01*
X143842429Y-101511714D01*
X143771000Y-101440286D01*
X143699571Y-101511714D01*
X143842429Y-101511714D01*
X145199571Y-100154571D02*
X143699571Y-100154571D01*
X145128143Y-100154571D02*
X145199571Y-100297428D01*
X145199571Y-100583142D01*
X145128143Y-100726000D01*
X145056714Y-100797428D01*
X144913857Y-100868857D01*
X144485286Y-100868857D01*
X144342429Y-100797428D01*
X144271000Y-100726000D01*
X144199571Y-100583142D01*
X144199571Y-100297428D01*
X144271000Y-100154571D01*
X145128143Y-98868857D02*
X145199571Y-99011714D01*
X145199571Y-99297428D01*
X145128143Y-99440285D01*
X144985286Y-99511714D01*
X144413857Y-99511714D01*
X144271000Y-99440285D01*
X144199571Y-99297428D01*
X144199571Y-99011714D01*
X144271000Y-98868857D01*
X144413857Y-98797428D01*
X144556714Y-98797428D01*
X144699571Y-99511714D01*
X145199571Y-97940285D02*
X145128143Y-98083143D01*
X145056714Y-98154571D01*
X144913857Y-98226000D01*
X144485286Y-98226000D01*
X144342429Y-98154571D01*
X144271000Y-98083143D01*
X144199571Y-97940285D01*
X144199571Y-97726000D01*
X144271000Y-97583143D01*
X144342429Y-97511714D01*
X144485286Y-97440285D01*
X144913857Y-97440285D01*
X145056714Y-97511714D01*
X145128143Y-97583143D01*
X145199571Y-97726000D01*
X145199571Y-97940285D01*
X144413857Y-95154571D02*
X144485286Y-94940285D01*
X144556714Y-94868857D01*
X144699571Y-94797428D01*
X144913857Y-94797428D01*
X145056714Y-94868857D01*
X145128143Y-94940285D01*
X145199571Y-95083143D01*
X145199571Y-95654571D01*
X143699571Y-95654571D01*
X143699571Y-95154571D01*
X143771000Y-95011714D01*
X143842429Y-94940285D01*
X143985286Y-94868857D01*
X144128143Y-94868857D01*
X144271000Y-94940285D01*
X144342429Y-95011714D01*
X144413857Y-95154571D01*
X144413857Y-95654571D01*
X145199571Y-93940285D02*
X145128143Y-94083143D01*
X145056714Y-94154571D01*
X144913857Y-94226000D01*
X144485286Y-94226000D01*
X144342429Y-94154571D01*
X144271000Y-94083143D01*
X144199571Y-93940285D01*
X144199571Y-93726000D01*
X144271000Y-93583143D01*
X144342429Y-93511714D01*
X144485286Y-93440285D01*
X144913857Y-93440285D01*
X145056714Y-93511714D01*
X145128143Y-93583143D01*
X145199571Y-93726000D01*
X145199571Y-93940285D01*
X145199571Y-92154571D02*
X144413857Y-92154571D01*
X144271000Y-92226000D01*
X144199571Y-92368857D01*
X144199571Y-92654571D01*
X144271000Y-92797428D01*
X145128143Y-92154571D02*
X145199571Y-92297428D01*
X145199571Y-92654571D01*
X145128143Y-92797428D01*
X144985286Y-92868857D01*
X144842429Y-92868857D01*
X144699571Y-92797428D01*
X144628143Y-92654571D01*
X144628143Y-92297428D01*
X144556714Y-92154571D01*
X145199571Y-91440285D02*
X144199571Y-91440285D01*
X144485286Y-91440285D02*
X144342429Y-91368857D01*
X144271000Y-91297428D01*
X144199571Y-91154571D01*
X144199571Y-91011714D01*
X145199571Y-89868857D02*
X143699571Y-89868857D01*
X145128143Y-89868857D02*
X145199571Y-90011714D01*
X145199571Y-90297428D01*
X145128143Y-90440286D01*
X145056714Y-90511714D01*
X144913857Y-90583143D01*
X144485286Y-90583143D01*
X144342429Y-90511714D01*
X144271000Y-90440286D01*
X144199571Y-90297428D01*
X144199571Y-90011714D01*
X144271000Y-89868857D01*
X145199571Y-87154571D02*
X144485286Y-87654571D01*
X145199571Y-88011714D02*
X143699571Y-88011714D01*
X143699571Y-87440286D01*
X143771000Y-87297428D01*
X143842429Y-87226000D01*
X143985286Y-87154571D01*
X144199571Y-87154571D01*
X144342429Y-87226000D01*
X144413857Y-87297428D01*
X144485286Y-87440286D01*
X144485286Y-88011714D01*
X145128143Y-85940286D02*
X145199571Y-86083143D01*
X145199571Y-86368857D01*
X145128143Y-86511714D01*
X144985286Y-86583143D01*
X144413857Y-86583143D01*
X144271000Y-86511714D01*
X144199571Y-86368857D01*
X144199571Y-86083143D01*
X144271000Y-85940286D01*
X144413857Y-85868857D01*
X144556714Y-85868857D01*
X144699571Y-86583143D01*
X144199571Y-85368857D02*
X145199571Y-85011714D01*
X144199571Y-84654572D01*
X145056714Y-84083143D02*
X145128143Y-84011715D01*
X145199571Y-84083143D01*
X145128143Y-84154572D01*
X145056714Y-84083143D01*
X145199571Y-84083143D01*
X143842429Y-82297429D02*
X143771000Y-82226000D01*
X143699571Y-82083143D01*
X143699571Y-81726000D01*
X143771000Y-81583143D01*
X143842429Y-81511714D01*
X143985286Y-81440286D01*
X144128143Y-81440286D01*
X144342429Y-81511714D01*
X145199571Y-82368857D01*
X145199571Y-81440286D01*
X146749571Y-107368857D02*
X147963857Y-107368857D01*
X148106714Y-107440286D01*
X148178143Y-107511714D01*
X148249571Y-107654571D01*
X148249571Y-107868857D01*
X148178143Y-108011714D01*
X147678143Y-107368857D02*
X147749571Y-107511714D01*
X147749571Y-107797428D01*
X147678143Y-107940286D01*
X147606714Y-108011714D01*
X147463857Y-108083143D01*
X147035286Y-108083143D01*
X146892429Y-108011714D01*
X146821000Y-107940286D01*
X146749571Y-107797428D01*
X146749571Y-107511714D01*
X146821000Y-107368857D01*
X147749571Y-106654571D02*
X146749571Y-106654571D01*
X146249571Y-106654571D02*
X146321000Y-106726000D01*
X146392429Y-106654571D01*
X146321000Y-106583143D01*
X146249571Y-106654571D01*
X146392429Y-106654571D01*
X146749571Y-106154571D02*
X146749571Y-105583142D01*
X146249571Y-105940285D02*
X147535286Y-105940285D01*
X147678143Y-105868857D01*
X147749571Y-105725999D01*
X147749571Y-105583142D01*
X147749571Y-105083142D02*
X146249571Y-105083142D01*
X147749571Y-104440285D02*
X146963857Y-104440285D01*
X146821000Y-104511714D01*
X146749571Y-104654571D01*
X146749571Y-104868856D01*
X146821000Y-105011714D01*
X146892429Y-105083142D01*
X146749571Y-103083142D02*
X147749571Y-103083142D01*
X146749571Y-103725999D02*
X147535286Y-103725999D01*
X147678143Y-103654571D01*
X147749571Y-103511713D01*
X147749571Y-103297428D01*
X147678143Y-103154571D01*
X147606714Y-103083142D01*
X147749571Y-102368856D02*
X146249571Y-102368856D01*
X146821000Y-102368856D02*
X146749571Y-102225999D01*
X146749571Y-101940285D01*
X146821000Y-101797428D01*
X146892429Y-101725999D01*
X147035286Y-101654570D01*
X147463857Y-101654570D01*
X147606714Y-101725999D01*
X147678143Y-101797428D01*
X147749571Y-101940285D01*
X147749571Y-102225999D01*
X147678143Y-102368856D01*
X147606714Y-101011713D02*
X147678143Y-100940285D01*
X147749571Y-101011713D01*
X147678143Y-101083142D01*
X147606714Y-101011713D01*
X147749571Y-101011713D01*
X147678143Y-99654570D02*
X147749571Y-99797427D01*
X147749571Y-100083141D01*
X147678143Y-100225999D01*
X147606714Y-100297427D01*
X147463857Y-100368856D01*
X147035286Y-100368856D01*
X146892429Y-100297427D01*
X146821000Y-100225999D01*
X146749571Y-100083141D01*
X146749571Y-99797427D01*
X146821000Y-99654570D01*
X147749571Y-98797427D02*
X147678143Y-98940285D01*
X147606714Y-99011713D01*
X147463857Y-99083142D01*
X147035286Y-99083142D01*
X146892429Y-99011713D01*
X146821000Y-98940285D01*
X146749571Y-98797427D01*
X146749571Y-98583142D01*
X146821000Y-98440285D01*
X146892429Y-98368856D01*
X147035286Y-98297427D01*
X147463857Y-98297427D01*
X147606714Y-98368856D01*
X147678143Y-98440285D01*
X147749571Y-98583142D01*
X147749571Y-98797427D01*
X147749571Y-97654570D02*
X146749571Y-97654570D01*
X146892429Y-97654570D02*
X146821000Y-97583142D01*
X146749571Y-97440284D01*
X146749571Y-97225999D01*
X146821000Y-97083142D01*
X146963857Y-97011713D01*
X147749571Y-97011713D01*
X146963857Y-97011713D02*
X146821000Y-96940284D01*
X146749571Y-96797427D01*
X146749571Y-96583142D01*
X146821000Y-96440284D01*
X146963857Y-96368856D01*
X147749571Y-96368856D01*
X146178143Y-94583142D02*
X148106714Y-95868856D01*
X147678143Y-93440284D02*
X147749571Y-93583141D01*
X147749571Y-93868855D01*
X147678143Y-94011713D01*
X147606714Y-94083141D01*
X147463857Y-94154570D01*
X147035286Y-94154570D01*
X146892429Y-94083141D01*
X146821000Y-94011713D01*
X146749571Y-93868855D01*
X146749571Y-93583141D01*
X146821000Y-93440284D01*
X146249571Y-92511713D02*
X146249571Y-92368856D01*
X146321000Y-92225999D01*
X146392429Y-92154570D01*
X146535286Y-92083141D01*
X146821000Y-92011713D01*
X147178143Y-92011713D01*
X147463857Y-92083141D01*
X147606714Y-92154570D01*
X147678143Y-92225999D01*
X147749571Y-92368856D01*
X147749571Y-92511713D01*
X147678143Y-92654570D01*
X147606714Y-92725999D01*
X147463857Y-92797427D01*
X147178143Y-92868856D01*
X146821000Y-92868856D01*
X146535286Y-92797427D01*
X146392429Y-92725999D01*
X146321000Y-92654570D01*
X146249571Y-92511713D01*
X146749571Y-91368856D02*
X148249571Y-91368856D01*
X146821000Y-91368856D02*
X146749571Y-91225999D01*
X146749571Y-90940285D01*
X146821000Y-90797428D01*
X146892429Y-90725999D01*
X147035286Y-90654570D01*
X147463857Y-90654570D01*
X147606714Y-90725999D01*
X147678143Y-90797428D01*
X147749571Y-90940285D01*
X147749571Y-91225999D01*
X147678143Y-91368856D01*
X146749571Y-90011713D02*
X148249571Y-90011713D01*
X146821000Y-90011713D02*
X146749571Y-89868856D01*
X146749571Y-89583142D01*
X146821000Y-89440285D01*
X146892429Y-89368856D01*
X147035286Y-89297427D01*
X147463857Y-89297427D01*
X147606714Y-89368856D01*
X147678143Y-89440285D01*
X147749571Y-89583142D01*
X147749571Y-89868856D01*
X147678143Y-90011713D01*
X147678143Y-88083142D02*
X147749571Y-88225999D01*
X147749571Y-88511713D01*
X147678143Y-88654570D01*
X147535286Y-88725999D01*
X146963857Y-88725999D01*
X146821000Y-88654570D01*
X146749571Y-88511713D01*
X146749571Y-88225999D01*
X146821000Y-88083142D01*
X146963857Y-88011713D01*
X147106714Y-88011713D01*
X147249571Y-88725999D01*
X147749571Y-87368856D02*
X146749571Y-87368856D01*
X147035286Y-87368856D02*
X146892429Y-87297428D01*
X146821000Y-87225999D01*
X146749571Y-87083142D01*
X146749571Y-86940285D01*
X147749571Y-85797428D02*
X146249571Y-85797428D01*
X147678143Y-85797428D02*
X147749571Y-85940285D01*
X147749571Y-86225999D01*
X147678143Y-86368857D01*
X147606714Y-86440285D01*
X147463857Y-86511714D01*
X147035286Y-86511714D01*
X146892429Y-86440285D01*
X146821000Y-86368857D01*
X146749571Y-86225999D01*
X146749571Y-85940285D01*
X146821000Y-85797428D01*
X147749571Y-85083142D02*
X146749571Y-85083142D01*
X147035286Y-85083142D02*
X146892429Y-85011714D01*
X146821000Y-84940285D01*
X146749571Y-84797428D01*
X146749571Y-84654571D01*
X147749571Y-83511714D02*
X146963857Y-83511714D01*
X146821000Y-83583143D01*
X146749571Y-83726000D01*
X146749571Y-84011714D01*
X146821000Y-84154571D01*
X147678143Y-83511714D02*
X147749571Y-83654571D01*
X147749571Y-84011714D01*
X147678143Y-84154571D01*
X147535286Y-84226000D01*
X147392429Y-84226000D01*
X147249571Y-84154571D01*
X147178143Y-84011714D01*
X147178143Y-83654571D01*
X147106714Y-83511714D01*
X146749571Y-82154571D02*
X147963857Y-82154571D01*
X148106714Y-82226000D01*
X148178143Y-82297428D01*
X148249571Y-82440285D01*
X148249571Y-82654571D01*
X148178143Y-82797428D01*
X147678143Y-82154571D02*
X147749571Y-82297428D01*
X147749571Y-82583142D01*
X147678143Y-82726000D01*
X147606714Y-82797428D01*
X147463857Y-82868857D01*
X147035286Y-82868857D01*
X146892429Y-82797428D01*
X146821000Y-82726000D01*
X146749571Y-82583142D01*
X146749571Y-82297428D01*
X146821000Y-82154571D01*
X147749571Y-81225999D02*
X147678143Y-81368857D01*
X147606714Y-81440285D01*
X147463857Y-81511714D01*
X147035286Y-81511714D01*
X146892429Y-81440285D01*
X146821000Y-81368857D01*
X146749571Y-81225999D01*
X146749571Y-81011714D01*
X146821000Y-80868857D01*
X146892429Y-80797428D01*
X147035286Y-80725999D01*
X147463857Y-80725999D01*
X147606714Y-80797428D01*
X147678143Y-80868857D01*
X147749571Y-81011714D01*
X147749571Y-81225999D01*
X146749571Y-80083142D02*
X147749571Y-80083142D01*
X146892429Y-80083142D02*
X146821000Y-80011714D01*
X146749571Y-79868856D01*
X146749571Y-79654571D01*
X146821000Y-79511714D01*
X146963857Y-79440285D01*
X147749571Y-79440285D01*
D10*
X160020000Y-102890000D02*
X158320000Y-102890000D01*
X158320000Y-102890000D02*
X158320000Y-101190000D01*
X158320000Y-101190000D02*
X160020000Y-101190000D01*
X160020000Y-92690000D02*
X158320000Y-92690000D01*
X158320000Y-92690000D02*
X158320000Y-94390000D01*
X158320000Y-94390000D02*
X160020000Y-94390000D01*
X158320000Y-92790000D02*
X158320000Y-93690000D01*
D13*
X160020000Y-97790000D02*
X160020000Y-92790000D01*
X160020000Y-92790000D02*
X150020000Y-92790000D01*
X150020000Y-92790000D02*
X150020000Y-102790000D01*
X150020000Y-102790000D02*
X160020000Y-102790000D01*
X160020000Y-102790000D02*
X160020000Y-97790000D01*
D14*
X128210000Y-123250000D02*
X130870000Y-123250000D01*
X128210000Y-120650000D02*
X128210000Y-123250000D01*
X130870000Y-120650000D02*
X130870000Y-123250000D01*
X128210000Y-120650000D02*
X130870000Y-120650000D01*
X128210000Y-119380000D02*
X128210000Y-118050000D01*
X128210000Y-118050000D02*
X129540000Y-118050000D01*
X125670000Y-123250000D02*
X128330000Y-123250000D01*
X125670000Y-120650000D02*
X125670000Y-123250000D01*
X128330000Y-120650000D02*
X128330000Y-123250000D01*
X125670000Y-120650000D02*
X128330000Y-120650000D01*
X125670000Y-119380000D02*
X125670000Y-118050000D01*
X125670000Y-118050000D02*
X127000000Y-118050000D01*
D10*
X160020000Y-90190000D02*
X158320000Y-90190000D01*
X158320000Y-90190000D02*
X158320000Y-88490000D01*
X158320000Y-88490000D02*
X160020000Y-88490000D01*
X160020000Y-79990000D02*
X158320000Y-79990000D01*
X158320000Y-79990000D02*
X158320000Y-81690000D01*
X158320000Y-81690000D02*
X160020000Y-81690000D01*
X158320000Y-80090000D02*
X158320000Y-80990000D01*
D13*
X160020000Y-85090000D02*
X160020000Y-80090000D01*
X160020000Y-80090000D02*
X150020000Y-80090000D01*
X150020000Y-80090000D02*
X150020000Y-90090000D01*
X150020000Y-90090000D02*
X160020000Y-90090000D01*
X160020000Y-90090000D02*
X160020000Y-85090000D01*
D10*
X160020000Y-115590000D02*
X158320000Y-115590000D01*
X158320000Y-115590000D02*
X158320000Y-113890000D01*
X158320000Y-113890000D02*
X160020000Y-113890000D01*
X160020000Y-105390000D02*
X158320000Y-105390000D01*
X158320000Y-105390000D02*
X158320000Y-107090000D01*
X158320000Y-107090000D02*
X160020000Y-107090000D01*
X158320000Y-105490000D02*
X158320000Y-106390000D01*
D13*
X160020000Y-110490000D02*
X160020000Y-105490000D01*
X160020000Y-105490000D02*
X150020000Y-105490000D01*
X150020000Y-105490000D02*
X150020000Y-115490000D01*
X150020000Y-115490000D02*
X160020000Y-115490000D01*
X160020000Y-115490000D02*
X160020000Y-110490000D01*
D14*
X131730000Y-112430000D02*
X132430000Y-112430000D01*
X132430000Y-113630000D02*
X131730000Y-113630000D01*
X118050000Y-72330000D02*
X118050000Y-77530000D01*
X140970000Y-72330000D02*
X118050000Y-72330000D01*
X143570000Y-77530000D02*
X118050000Y-77530000D01*
X140970000Y-72330000D02*
X140970000Y-74930000D01*
X140970000Y-74930000D02*
X143570000Y-74930000D01*
X143570000Y-74930000D02*
X143570000Y-77530000D01*
X142240000Y-72330000D02*
X143570000Y-72330000D01*
X143570000Y-72330000D02*
X143570000Y-73660000D01*
X130750000Y-118050000D02*
X130750000Y-123250000D01*
X140970000Y-118050000D02*
X130750000Y-118050000D01*
X143570000Y-123250000D02*
X130750000Y-123250000D01*
X140970000Y-118050000D02*
X140970000Y-120650000D01*
X140970000Y-120650000D02*
X143570000Y-120650000D01*
X143570000Y-120650000D02*
X143570000Y-123250000D01*
X142240000Y-118050000D02*
X143570000Y-118050000D01*
X143570000Y-118050000D02*
X143570000Y-119380000D01*
X118050000Y-123250000D02*
X123250000Y-123250000D01*
X118050000Y-113030000D02*
X118050000Y-123250000D01*
X123250000Y-110430000D02*
X123250000Y-123250000D01*
X118050000Y-113030000D02*
X120650000Y-113030000D01*
X120650000Y-113030000D02*
X120650000Y-110430000D01*
X120650000Y-110430000D02*
X123250000Y-110430000D01*
X118050000Y-111760000D02*
X118050000Y-110430000D01*
X118050000Y-110430000D02*
X119380000Y-110430000D01*
X118880000Y-103720000D02*
X119880000Y-103720000D01*
X119880000Y-102020000D02*
X118880000Y-102020000D01*
X134644000Y-107166000D02*
X135034000Y-107166000D01*
X135034000Y-107166000D02*
X135034000Y-110766000D01*
X135034000Y-110766000D02*
X134644000Y-110766000D01*
X131964000Y-107166000D02*
X132704000Y-107166000D01*
X130024000Y-111466000D02*
X130024000Y-110766000D01*
X130024000Y-110766000D02*
X129634000Y-110766000D01*
X129634000Y-110766000D02*
X129634000Y-107166000D01*
X129634000Y-107166000D02*
X130024000Y-107166000D01*
X132704000Y-110766000D02*
X131964000Y-110766000D01*
X131964000Y-110766000D02*
X131964000Y-111466000D01*
X122800000Y-106080000D02*
X122800000Y-107280000D01*
X121040000Y-107280000D02*
X121040000Y-106080000D01*
X125340000Y-106080000D02*
X125340000Y-107280000D01*
X123580000Y-107280000D02*
X123580000Y-106080000D01*
X120260000Y-106080000D02*
X120260000Y-107280000D01*
X118500000Y-107280000D02*
X118500000Y-106080000D01*
X125340000Y-111160000D02*
X125340000Y-112360000D01*
X123580000Y-112360000D02*
X123580000Y-111160000D01*
X146720000Y-115960000D02*
X147920000Y-115960000D01*
X147920000Y-117720000D02*
X146720000Y-117720000D01*
X146720000Y-113420000D02*
X147920000Y-113420000D01*
X147920000Y-115180000D02*
X146720000Y-115180000D01*
X146720000Y-110880000D02*
X147920000Y-110880000D01*
X147920000Y-112640000D02*
X146720000Y-112640000D01*
D13*
X121560000Y-101440000D02*
X120810000Y-100690000D01*
X120810000Y-82190000D02*
X120810000Y-81440000D01*
X120810000Y-81440000D02*
X121560000Y-81440000D01*
X140810000Y-100690000D02*
X140810000Y-101440000D01*
X140810000Y-101440000D02*
X140060000Y-101440000D01*
X140810000Y-82190000D02*
X140810000Y-81440000D01*
X140810000Y-81440000D02*
X140060000Y-81440000D01*
D14*
X146900000Y-121150000D02*
X146900000Y-120150000D01*
X145200000Y-120150000D02*
X145200000Y-121150000D01*
D15*
G36*
X141111918Y-112890256D02*
X141139568Y-112834799D01*
X141190480Y-112785852D01*
X141209338Y-112772371D01*
X141234015Y-112757686D01*
X141260816Y-112748158D01*
X141296587Y-112742707D01*
X141348169Y-112740253D01*
X141416267Y-112739714D01*
X141509588Y-112742148D01*
X141579657Y-112750606D01*
X141631931Y-112766826D01*
X141671869Y-112792546D01*
X141704929Y-112829503D01*
X141706886Y-112832218D01*
X141726908Y-112868640D01*
X141736815Y-112912498D01*
X141739257Y-112968276D01*
X141739257Y-113058952D01*
X141827283Y-113058990D01*
X141876308Y-113059834D01*
X141905065Y-113064976D01*
X141922311Y-113078413D01*
X141936808Y-113104142D01*
X141939769Y-113110321D01*
X141953648Y-113139236D01*
X141962414Y-113161624D01*
X141963171Y-113178271D01*
X141953023Y-113189964D01*
X141929073Y-113197490D01*
X141888426Y-113201634D01*
X141828186Y-113203185D01*
X141745455Y-113202929D01*
X141637339Y-113201651D01*
X141605000Y-113201252D01*
X141493524Y-113199815D01*
X141420603Y-113198528D01*
X141420603Y-113059029D01*
X141482499Y-113058245D01*
X141522997Y-113054760D01*
X141549708Y-113046876D01*
X141570244Y-113032895D01*
X141580260Y-113023403D01*
X141609567Y-112984596D01*
X141611952Y-112950237D01*
X141587750Y-112914784D01*
X141586857Y-112913886D01*
X141568153Y-112899461D01*
X141542732Y-112890687D01*
X141503584Y-112886261D01*
X141443697Y-112884882D01*
X141430430Y-112884857D01*
X141347901Y-112888188D01*
X141290691Y-112899031D01*
X141255766Y-112918660D01*
X141240094Y-112948350D01*
X141238514Y-112965509D01*
X141245926Y-113006234D01*
X141270330Y-113034168D01*
X141314980Y-113050983D01*
X141383130Y-113058350D01*
X141420603Y-113059029D01*
X141420603Y-113198528D01*
X141407245Y-113198292D01*
X141342333Y-113196323D01*
X141294958Y-113193550D01*
X141261290Y-113189612D01*
X141237498Y-113184151D01*
X141219753Y-113176808D01*
X141204224Y-113167223D01*
X141198381Y-113163113D01*
X141143185Y-113108595D01*
X141111890Y-113039664D01*
X141103165Y-112959928D01*
X141111918Y-112890256D01*
X141111918Y-112890256D01*
G37*
X141111918Y-112890256D02*
X141139568Y-112834799D01*
X141190480Y-112785852D01*
X141209338Y-112772371D01*
X141234015Y-112757686D01*
X141260816Y-112748158D01*
X141296587Y-112742707D01*
X141348169Y-112740253D01*
X141416267Y-112739714D01*
X141509588Y-112742148D01*
X141579657Y-112750606D01*
X141631931Y-112766826D01*
X141671869Y-112792546D01*
X141704929Y-112829503D01*
X141706886Y-112832218D01*
X141726908Y-112868640D01*
X141736815Y-112912498D01*
X141739257Y-112968276D01*
X141739257Y-113058952D01*
X141827283Y-113058990D01*
X141876308Y-113059834D01*
X141905065Y-113064976D01*
X141922311Y-113078413D01*
X141936808Y-113104142D01*
X141939769Y-113110321D01*
X141953648Y-113139236D01*
X141962414Y-113161624D01*
X141963171Y-113178271D01*
X141953023Y-113189964D01*
X141929073Y-113197490D01*
X141888426Y-113201634D01*
X141828186Y-113203185D01*
X141745455Y-113202929D01*
X141637339Y-113201651D01*
X141605000Y-113201252D01*
X141493524Y-113199815D01*
X141420603Y-113198528D01*
X141420603Y-113059029D01*
X141482499Y-113058245D01*
X141522997Y-113054760D01*
X141549708Y-113046876D01*
X141570244Y-113032895D01*
X141580260Y-113023403D01*
X141609567Y-112984596D01*
X141611952Y-112950237D01*
X141587750Y-112914784D01*
X141586857Y-112913886D01*
X141568153Y-112899461D01*
X141542732Y-112890687D01*
X141503584Y-112886261D01*
X141443697Y-112884882D01*
X141430430Y-112884857D01*
X141347901Y-112888188D01*
X141290691Y-112899031D01*
X141255766Y-112918660D01*
X141240094Y-112948350D01*
X141238514Y-112965509D01*
X141245926Y-113006234D01*
X141270330Y-113034168D01*
X141314980Y-113050983D01*
X141383130Y-113058350D01*
X141420603Y-113059029D01*
X141420603Y-113198528D01*
X141407245Y-113198292D01*
X141342333Y-113196323D01*
X141294958Y-113193550D01*
X141261290Y-113189612D01*
X141237498Y-113184151D01*
X141219753Y-113176808D01*
X141204224Y-113167223D01*
X141198381Y-113163113D01*
X141143185Y-113108595D01*
X141111890Y-113039664D01*
X141103165Y-112959928D01*
X141111918Y-112890256D01*
G36*
X141119780Y-111773907D02*
X141146723Y-111727328D01*
X141173466Y-111694943D01*
X141201484Y-111671258D01*
X141235748Y-111654941D01*
X141281227Y-111644661D01*
X141342892Y-111639086D01*
X141425711Y-111636884D01*
X141485246Y-111636629D01*
X141704391Y-111636629D01*
X141732044Y-111698314D01*
X141759697Y-111760000D01*
X141519670Y-111767257D01*
X141430028Y-111770256D01*
X141364962Y-111773402D01*
X141320026Y-111777299D01*
X141290770Y-111782553D01*
X141272748Y-111789769D01*
X141261511Y-111799550D01*
X141259079Y-111802688D01*
X141240083Y-111850239D01*
X141247600Y-111898303D01*
X141267543Y-111926914D01*
X141281675Y-111938553D01*
X141300220Y-111946609D01*
X141328334Y-111951729D01*
X141371173Y-111954559D01*
X141433895Y-111955744D01*
X141499261Y-111955943D01*
X141581268Y-111955982D01*
X141639316Y-111957386D01*
X141678465Y-111962086D01*
X141703780Y-111972013D01*
X141720323Y-111989097D01*
X141733156Y-112015268D01*
X141746491Y-112050225D01*
X141761007Y-112088404D01*
X141503389Y-112083859D01*
X141410519Y-112082029D01*
X141341889Y-112079888D01*
X141292711Y-112076819D01*
X141258198Y-112072206D01*
X141233562Y-112065432D01*
X141214016Y-112055881D01*
X141196770Y-112044366D01*
X141141680Y-111988810D01*
X141109822Y-111921020D01*
X141102191Y-111847287D01*
X141119780Y-111773907D01*
X141119780Y-111773907D01*
G37*
X141119780Y-111773907D02*
X141146723Y-111727328D01*
X141173466Y-111694943D01*
X141201484Y-111671258D01*
X141235748Y-111654941D01*
X141281227Y-111644661D01*
X141342892Y-111639086D01*
X141425711Y-111636884D01*
X141485246Y-111636629D01*
X141704391Y-111636629D01*
X141732044Y-111698314D01*
X141759697Y-111760000D01*
X141519670Y-111767257D01*
X141430028Y-111770256D01*
X141364962Y-111773402D01*
X141320026Y-111777299D01*
X141290770Y-111782553D01*
X141272748Y-111789769D01*
X141261511Y-111799550D01*
X141259079Y-111802688D01*
X141240083Y-111850239D01*
X141247600Y-111898303D01*
X141267543Y-111926914D01*
X141281675Y-111938553D01*
X141300220Y-111946609D01*
X141328334Y-111951729D01*
X141371173Y-111954559D01*
X141433895Y-111955744D01*
X141499261Y-111955943D01*
X141581268Y-111955982D01*
X141639316Y-111957386D01*
X141678465Y-111962086D01*
X141703780Y-111972013D01*
X141720323Y-111989097D01*
X141733156Y-112015268D01*
X141746491Y-112050225D01*
X141761007Y-112088404D01*
X141503389Y-112083859D01*
X141410519Y-112082029D01*
X141341889Y-112079888D01*
X141292711Y-112076819D01*
X141258198Y-112072206D01*
X141233562Y-112065432D01*
X141214016Y-112055881D01*
X141196770Y-112044366D01*
X141141680Y-111988810D01*
X141109822Y-111921020D01*
X141102191Y-111847287D01*
X141119780Y-111773907D01*
G36*
X141113962Y-113448885D02*
X141149733Y-113380855D01*
X141207301Y-113330649D01*
X141244312Y-113312815D01*
X141299882Y-113298937D01*
X141370096Y-113291833D01*
X141446727Y-113291160D01*
X141521552Y-113296573D01*
X141586342Y-113307730D01*
X141632873Y-113324286D01*
X141640887Y-113329374D01*
X141700707Y-113389645D01*
X141736535Y-113461231D01*
X141747020Y-113538908D01*
X141730810Y-113617452D01*
X141721092Y-113639311D01*
X141691143Y-113681878D01*
X141651433Y-113719237D01*
X141646397Y-113722768D01*
X141622124Y-113737119D01*
X141596178Y-113746606D01*
X141562022Y-113752210D01*
X141513119Y-113754914D01*
X141442935Y-113755701D01*
X141427200Y-113755714D01*
X141422192Y-113755678D01*
X141422192Y-113610571D01*
X141488430Y-113609727D01*
X141532386Y-113606404D01*
X141560779Y-113599417D01*
X141580325Y-113587584D01*
X141586857Y-113581543D01*
X141611680Y-113546814D01*
X141610548Y-113513097D01*
X141589016Y-113479005D01*
X141566029Y-113458671D01*
X141532478Y-113446629D01*
X141479569Y-113439866D01*
X141473399Y-113439402D01*
X141377513Y-113438248D01*
X141306299Y-113450312D01*
X141260194Y-113475430D01*
X141239635Y-113513440D01*
X141238514Y-113527008D01*
X141244152Y-113562636D01*
X141263686Y-113587006D01*
X141301042Y-113601907D01*
X141360150Y-113609125D01*
X141422192Y-113610571D01*
X141422192Y-113755678D01*
X141352413Y-113755174D01*
X141300159Y-113752904D01*
X141263949Y-113747932D01*
X141237299Y-113739287D01*
X141213722Y-113725995D01*
X141209338Y-113723057D01*
X141150249Y-113673687D01*
X141115947Y-113619891D01*
X141102331Y-113554398D01*
X141101665Y-113532158D01*
X141113962Y-113448885D01*
X141113962Y-113448885D01*
G37*
X141113962Y-113448885D02*
X141149733Y-113380855D01*
X141207301Y-113330649D01*
X141244312Y-113312815D01*
X141299882Y-113298937D01*
X141370096Y-113291833D01*
X141446727Y-113291160D01*
X141521552Y-113296573D01*
X141586342Y-113307730D01*
X141632873Y-113324286D01*
X141640887Y-113329374D01*
X141700707Y-113389645D01*
X141736535Y-113461231D01*
X141747020Y-113538908D01*
X141730810Y-113617452D01*
X141721092Y-113639311D01*
X141691143Y-113681878D01*
X141651433Y-113719237D01*
X141646397Y-113722768D01*
X141622124Y-113737119D01*
X141596178Y-113746606D01*
X141562022Y-113752210D01*
X141513119Y-113754914D01*
X141442935Y-113755701D01*
X141427200Y-113755714D01*
X141422192Y-113755678D01*
X141422192Y-113610571D01*
X141488430Y-113609727D01*
X141532386Y-113606404D01*
X141560779Y-113599417D01*
X141580325Y-113587584D01*
X141586857Y-113581543D01*
X141611680Y-113546814D01*
X141610548Y-113513097D01*
X141589016Y-113479005D01*
X141566029Y-113458671D01*
X141532478Y-113446629D01*
X141479569Y-113439866D01*
X141473399Y-113439402D01*
X141377513Y-113438248D01*
X141306299Y-113450312D01*
X141260194Y-113475430D01*
X141239635Y-113513440D01*
X141238514Y-113527008D01*
X141244152Y-113562636D01*
X141263686Y-113587006D01*
X141301042Y-113601907D01*
X141360150Y-113609125D01*
X141422192Y-113610571D01*
X141422192Y-113755678D01*
X141352413Y-113755174D01*
X141300159Y-113752904D01*
X141263949Y-113747932D01*
X141237299Y-113739287D01*
X141213722Y-113725995D01*
X141209338Y-113723057D01*
X141150249Y-113673687D01*
X141115947Y-113619891D01*
X141102331Y-113554398D01*
X141101665Y-113532158D01*
X141113962Y-113448885D01*
G36*
X141123239Y-112321697D02*
X141161735Y-112264473D01*
X141217335Y-112220251D01*
X141288086Y-112193833D01*
X141340162Y-112188490D01*
X141361893Y-112189097D01*
X141378531Y-112194178D01*
X141393437Y-112208145D01*
X141409973Y-112235411D01*
X141431498Y-112280388D01*
X141461374Y-112347489D01*
X141461524Y-112347829D01*
X141489813Y-112409593D01*
X141514933Y-112460241D01*
X141534179Y-112494596D01*
X141544848Y-112507482D01*
X141544934Y-112507486D01*
X141568166Y-112496128D01*
X141593774Y-112469569D01*
X141612221Y-112439077D01*
X141615886Y-112423630D01*
X141603212Y-112381485D01*
X141571471Y-112345192D01*
X141536572Y-112327483D01*
X141510845Y-112310448D01*
X141481546Y-112277078D01*
X141456235Y-112237851D01*
X141442471Y-112203244D01*
X141441714Y-112196007D01*
X141454160Y-112187861D01*
X141485972Y-112187370D01*
X141528866Y-112193357D01*
X141574558Y-112204643D01*
X141614761Y-112220050D01*
X141616322Y-112220829D01*
X141681062Y-112267196D01*
X141725097Y-112327289D01*
X141746711Y-112395535D01*
X141744185Y-112466362D01*
X141715804Y-112534196D01*
X141713808Y-112537212D01*
X141665448Y-112590573D01*
X141602352Y-112625660D01*
X141519387Y-112645078D01*
X141496078Y-112647684D01*
X141386055Y-112652299D01*
X141334748Y-112646767D01*
X141334748Y-112507486D01*
X141366753Y-112505676D01*
X141376093Y-112495778D01*
X141369105Y-112471102D01*
X141352587Y-112432205D01*
X141331881Y-112388725D01*
X141331333Y-112387644D01*
X141311949Y-112350791D01*
X141299013Y-112336000D01*
X141285451Y-112339647D01*
X141267632Y-112355005D01*
X141241845Y-112394077D01*
X141239950Y-112436154D01*
X141258717Y-112473897D01*
X141294915Y-112499966D01*
X141334748Y-112507486D01*
X141334748Y-112646767D01*
X141298027Y-112642806D01*
X141228212Y-112618450D01*
X141179302Y-112584544D01*
X141129878Y-112523347D01*
X141105359Y-112455937D01*
X141103797Y-112387120D01*
X141123239Y-112321697D01*
X141123239Y-112321697D01*
G37*
X141123239Y-112321697D02*
X141161735Y-112264473D01*
X141217335Y-112220251D01*
X141288086Y-112193833D01*
X141340162Y-112188490D01*
X141361893Y-112189097D01*
X141378531Y-112194178D01*
X141393437Y-112208145D01*
X141409973Y-112235411D01*
X141431498Y-112280388D01*
X141461374Y-112347489D01*
X141461524Y-112347829D01*
X141489813Y-112409593D01*
X141514933Y-112460241D01*
X141534179Y-112494596D01*
X141544848Y-112507482D01*
X141544934Y-112507486D01*
X141568166Y-112496128D01*
X141593774Y-112469569D01*
X141612221Y-112439077D01*
X141615886Y-112423630D01*
X141603212Y-112381485D01*
X141571471Y-112345192D01*
X141536572Y-112327483D01*
X141510845Y-112310448D01*
X141481546Y-112277078D01*
X141456235Y-112237851D01*
X141442471Y-112203244D01*
X141441714Y-112196007D01*
X141454160Y-112187861D01*
X141485972Y-112187370D01*
X141528866Y-112193357D01*
X141574558Y-112204643D01*
X141614761Y-112220050D01*
X141616322Y-112220829D01*
X141681062Y-112267196D01*
X141725097Y-112327289D01*
X141746711Y-112395535D01*
X141744185Y-112466362D01*
X141715804Y-112534196D01*
X141713808Y-112537212D01*
X141665448Y-112590573D01*
X141602352Y-112625660D01*
X141519387Y-112645078D01*
X141496078Y-112647684D01*
X141386055Y-112652299D01*
X141334748Y-112646767D01*
X141334748Y-112507486D01*
X141366753Y-112505676D01*
X141376093Y-112495778D01*
X141369105Y-112471102D01*
X141352587Y-112432205D01*
X141331881Y-112388725D01*
X141331333Y-112387644D01*
X141311949Y-112350791D01*
X141299013Y-112336000D01*
X141285451Y-112339647D01*
X141267632Y-112355005D01*
X141241845Y-112394077D01*
X141239950Y-112436154D01*
X141258717Y-112473897D01*
X141294915Y-112499966D01*
X141334748Y-112507486D01*
X141334748Y-112646767D01*
X141298027Y-112642806D01*
X141228212Y-112618450D01*
X141179302Y-112584544D01*
X141129878Y-112523347D01*
X141105359Y-112455937D01*
X141103797Y-112387120D01*
X141123239Y-112321697D01*
G36*
X141043289Y-111114114D02*
X141102613Y-111109861D01*
X141137572Y-111104975D01*
X141152820Y-111098205D01*
X141153015Y-111088298D01*
X141151195Y-111085086D01*
X141138015Y-111042356D01*
X141138785Y-110986773D01*
X141152333Y-110930263D01*
X141169861Y-110894918D01*
X141197861Y-110858679D01*
X141229549Y-110832187D01*
X141269813Y-110814001D01*
X141323543Y-110802678D01*
X141395626Y-110796778D01*
X141490951Y-110794857D01*
X141509237Y-110794823D01*
X141714646Y-110794800D01*
X141730580Y-110840509D01*
X141741420Y-110872973D01*
X141746468Y-110890785D01*
X141746514Y-110891309D01*
X141732828Y-110893063D01*
X141695076Y-110894556D01*
X141638224Y-110895674D01*
X141567234Y-110896303D01*
X141524073Y-110896400D01*
X141438973Y-110896602D01*
X141377981Y-110897642D01*
X141336177Y-110900169D01*
X141308642Y-110904836D01*
X141290456Y-110912293D01*
X141276698Y-110923189D01*
X141270073Y-110929993D01*
X141243375Y-110976728D01*
X141241375Y-111027728D01*
X141263955Y-111073999D01*
X141272107Y-111082556D01*
X141287436Y-111095107D01*
X141305618Y-111103812D01*
X141331909Y-111109369D01*
X141371562Y-111112474D01*
X141429832Y-111113824D01*
X141510173Y-111114114D01*
X141714646Y-111114114D01*
X141730580Y-111159823D01*
X141741420Y-111192287D01*
X141746468Y-111210099D01*
X141746514Y-111210623D01*
X141732623Y-111211963D01*
X141693439Y-111213172D01*
X141632700Y-111214199D01*
X141554141Y-111214998D01*
X141461498Y-111215519D01*
X141358509Y-111215714D01*
X140961342Y-111215714D01*
X140941444Y-111168543D01*
X140921547Y-111121371D01*
X141043289Y-111114114D01*
X141043289Y-111114114D01*
G37*
X141043289Y-111114114D02*
X141102613Y-111109861D01*
X141137572Y-111104975D01*
X141152820Y-111098205D01*
X141153015Y-111088298D01*
X141151195Y-111085086D01*
X141138015Y-111042356D01*
X141138785Y-110986773D01*
X141152333Y-110930263D01*
X141169861Y-110894918D01*
X141197861Y-110858679D01*
X141229549Y-110832187D01*
X141269813Y-110814001D01*
X141323543Y-110802678D01*
X141395626Y-110796778D01*
X141490951Y-110794857D01*
X141509237Y-110794823D01*
X141714646Y-110794800D01*
X141730580Y-110840509D01*
X141741420Y-110872973D01*
X141746468Y-110890785D01*
X141746514Y-110891309D01*
X141732828Y-110893063D01*
X141695076Y-110894556D01*
X141638224Y-110895674D01*
X141567234Y-110896303D01*
X141524073Y-110896400D01*
X141438973Y-110896602D01*
X141377981Y-110897642D01*
X141336177Y-110900169D01*
X141308642Y-110904836D01*
X141290456Y-110912293D01*
X141276698Y-110923189D01*
X141270073Y-110929993D01*
X141243375Y-110976728D01*
X141241375Y-111027728D01*
X141263955Y-111073999D01*
X141272107Y-111082556D01*
X141287436Y-111095107D01*
X141305618Y-111103812D01*
X141331909Y-111109369D01*
X141371562Y-111112474D01*
X141429832Y-111113824D01*
X141510173Y-111114114D01*
X141714646Y-111114114D01*
X141730580Y-111159823D01*
X141741420Y-111192287D01*
X141746468Y-111210099D01*
X141746514Y-111210623D01*
X141732623Y-111211963D01*
X141693439Y-111213172D01*
X141632700Y-111214199D01*
X141554141Y-111214998D01*
X141461498Y-111215519D01*
X141358509Y-111215714D01*
X140961342Y-111215714D01*
X140941444Y-111168543D01*
X140921547Y-111121371D01*
X141043289Y-111114114D01*
G36*
X141142968Y-110450256D02*
X141164087Y-110393384D01*
X141164493Y-110392733D01*
X141190380Y-110357560D01*
X141220633Y-110331593D01*
X141260058Y-110313330D01*
X141313462Y-110301268D01*
X141385651Y-110293904D01*
X141481432Y-110289736D01*
X141495078Y-110289371D01*
X141700842Y-110284124D01*
X141723678Y-110328284D01*
X141739110Y-110360237D01*
X141746423Y-110379530D01*
X141746514Y-110380422D01*
X141733022Y-110383761D01*
X141696626Y-110386413D01*
X141643452Y-110388044D01*
X141600393Y-110388400D01*
X141530641Y-110388408D01*
X141486837Y-110391597D01*
X141465944Y-110402712D01*
X141464925Y-110426499D01*
X141480741Y-110467704D01*
X141509815Y-110529914D01*
X141533963Y-110575659D01*
X141554913Y-110599187D01*
X141577747Y-110606104D01*
X141578877Y-110606114D01*
X141618212Y-110594701D01*
X141639462Y-110560908D01*
X141642539Y-110509191D01*
X141642006Y-110471939D01*
X141652735Y-110452297D01*
X141678505Y-110440048D01*
X141711337Y-110432998D01*
X141729966Y-110443158D01*
X141732632Y-110446983D01*
X141743340Y-110482999D01*
X141744856Y-110533434D01*
X141737759Y-110585374D01*
X141724788Y-110622178D01*
X141681585Y-110673062D01*
X141621446Y-110701986D01*
X141574462Y-110707714D01*
X141532082Y-110703343D01*
X141497488Y-110687525D01*
X141466763Y-110656203D01*
X141435990Y-110605322D01*
X141401252Y-110530824D01*
X141399288Y-110526286D01*
X141368287Y-110459179D01*
X141342862Y-110417768D01*
X141320014Y-110400019D01*
X141296745Y-110403893D01*
X141270056Y-110427357D01*
X141263914Y-110434373D01*
X141240100Y-110481370D01*
X141241103Y-110530067D01*
X141264451Y-110572478D01*
X141307675Y-110600616D01*
X141316160Y-110603231D01*
X141357308Y-110628692D01*
X141377128Y-110660999D01*
X141396770Y-110707714D01*
X141345950Y-110707714D01*
X141272082Y-110693504D01*
X141204327Y-110651325D01*
X141181661Y-110629376D01*
X141152569Y-110579483D01*
X141139400Y-110516033D01*
X141142968Y-110450256D01*
X141142968Y-110450256D01*
G37*
X141142968Y-110450256D02*
X141164087Y-110393384D01*
X141164493Y-110392733D01*
X141190380Y-110357560D01*
X141220633Y-110331593D01*
X141260058Y-110313330D01*
X141313462Y-110301268D01*
X141385651Y-110293904D01*
X141481432Y-110289736D01*
X141495078Y-110289371D01*
X141700842Y-110284124D01*
X141723678Y-110328284D01*
X141739110Y-110360237D01*
X141746423Y-110379530D01*
X141746514Y-110380422D01*
X141733022Y-110383761D01*
X141696626Y-110386413D01*
X141643452Y-110388044D01*
X141600393Y-110388400D01*
X141530641Y-110388408D01*
X141486837Y-110391597D01*
X141465944Y-110402712D01*
X141464925Y-110426499D01*
X141480741Y-110467704D01*
X141509815Y-110529914D01*
X141533963Y-110575659D01*
X141554913Y-110599187D01*
X141577747Y-110606104D01*
X141578877Y-110606114D01*
X141618212Y-110594701D01*
X141639462Y-110560908D01*
X141642539Y-110509191D01*
X141642006Y-110471939D01*
X141652735Y-110452297D01*
X141678505Y-110440048D01*
X141711337Y-110432998D01*
X141729966Y-110443158D01*
X141732632Y-110446983D01*
X141743340Y-110482999D01*
X141744856Y-110533434D01*
X141737759Y-110585374D01*
X141724788Y-110622178D01*
X141681585Y-110673062D01*
X141621446Y-110701986D01*
X141574462Y-110707714D01*
X141532082Y-110703343D01*
X141497488Y-110687525D01*
X141466763Y-110656203D01*
X141435990Y-110605322D01*
X141401252Y-110530824D01*
X141399288Y-110526286D01*
X141368287Y-110459179D01*
X141342862Y-110417768D01*
X141320014Y-110400019D01*
X141296745Y-110403893D01*
X141270056Y-110427357D01*
X141263914Y-110434373D01*
X141240100Y-110481370D01*
X141241103Y-110530067D01*
X141264451Y-110572478D01*
X141307675Y-110600616D01*
X141316160Y-110603231D01*
X141357308Y-110628692D01*
X141377128Y-110660999D01*
X141396770Y-110707714D01*
X141345950Y-110707714D01*
X141272082Y-110693504D01*
X141204327Y-110651325D01*
X141181661Y-110629376D01*
X141152569Y-110579483D01*
X141139400Y-110516033D01*
X141142968Y-110450256D01*
G36*
X141141755Y-109960074D02*
X141166084Y-109894142D01*
X141209117Y-109840727D01*
X141239409Y-109819836D01*
X141294994Y-109797061D01*
X141335186Y-109797534D01*
X141362217Y-109821438D01*
X141366813Y-109830283D01*
X141381144Y-109868470D01*
X141377472Y-109887972D01*
X141353407Y-109894578D01*
X141340114Y-109894914D01*
X141291210Y-109907008D01*
X141256999Y-109938529D01*
X141240476Y-109982341D01*
X141244634Y-110031305D01*
X141266227Y-110071106D01*
X141278544Y-110084550D01*
X141293487Y-110094079D01*
X141316075Y-110100515D01*
X141351328Y-110104683D01*
X141404266Y-110107403D01*
X141479907Y-110109498D01*
X141503857Y-110110040D01*
X141585790Y-110112019D01*
X141643455Y-110114269D01*
X141681608Y-110117643D01*
X141705004Y-110122994D01*
X141718398Y-110131176D01*
X141726545Y-110143041D01*
X141730144Y-110150638D01*
X141742452Y-110182898D01*
X141746514Y-110201889D01*
X141732948Y-110208164D01*
X141691934Y-110211994D01*
X141622999Y-110213400D01*
X141525669Y-110212402D01*
X141510657Y-110212092D01*
X141421859Y-110209899D01*
X141357019Y-110207307D01*
X141311067Y-110203618D01*
X141278935Y-110198136D01*
X141255553Y-110190165D01*
X141235852Y-110179007D01*
X141227410Y-110173170D01*
X141190057Y-110139704D01*
X141161003Y-110102273D01*
X141158467Y-110097691D01*
X141138443Y-110030574D01*
X141141755Y-109960074D01*
X141141755Y-109960074D01*
G37*
X141141755Y-109960074D02*
X141166084Y-109894142D01*
X141209117Y-109840727D01*
X141239409Y-109819836D01*
X141294994Y-109797061D01*
X141335186Y-109797534D01*
X141362217Y-109821438D01*
X141366813Y-109830283D01*
X141381144Y-109868470D01*
X141377472Y-109887972D01*
X141353407Y-109894578D01*
X141340114Y-109894914D01*
X141291210Y-109907008D01*
X141256999Y-109938529D01*
X141240476Y-109982341D01*
X141244634Y-110031305D01*
X141266227Y-110071106D01*
X141278544Y-110084550D01*
X141293487Y-110094079D01*
X141316075Y-110100515D01*
X141351328Y-110104683D01*
X141404266Y-110107403D01*
X141479907Y-110109498D01*
X141503857Y-110110040D01*
X141585790Y-110112019D01*
X141643455Y-110114269D01*
X141681608Y-110117643D01*
X141705004Y-110122994D01*
X141718398Y-110131176D01*
X141726545Y-110143041D01*
X141730144Y-110150638D01*
X141742452Y-110182898D01*
X141746514Y-110201889D01*
X141732948Y-110208164D01*
X141691934Y-110211994D01*
X141622999Y-110213400D01*
X141525669Y-110212402D01*
X141510657Y-110212092D01*
X141421859Y-110209899D01*
X141357019Y-110207307D01*
X141311067Y-110203618D01*
X141278935Y-110198136D01*
X141255553Y-110190165D01*
X141235852Y-110179007D01*
X141227410Y-110173170D01*
X141190057Y-110139704D01*
X141161003Y-110102273D01*
X141158467Y-110097691D01*
X141138443Y-110030574D01*
X141141755Y-109960074D01*
G36*
X141257358Y-109299883D02*
X141365837Y-109300067D01*
X141449287Y-109300781D01*
X141511704Y-109302325D01*
X141557085Y-109304999D01*
X141589429Y-109309106D01*
X141612733Y-109314945D01*
X141630995Y-109322818D01*
X141641418Y-109328779D01*
X141697945Y-109378145D01*
X141733377Y-109440736D01*
X141746090Y-109509987D01*
X141734463Y-109579332D01*
X141713568Y-109620625D01*
X141677422Y-109663975D01*
X141633276Y-109693519D01*
X141575462Y-109711345D01*
X141498313Y-109719537D01*
X141441714Y-109720698D01*
X141437647Y-109720542D01*
X141437647Y-109619143D01*
X141502550Y-109618524D01*
X141545514Y-109615686D01*
X141573622Y-109609160D01*
X141593953Y-109597477D01*
X141609288Y-109583517D01*
X141638890Y-109536635D01*
X141641419Y-109486299D01*
X141616705Y-109438724D01*
X141613356Y-109435021D01*
X141595935Y-109419217D01*
X141575209Y-109409307D01*
X141544362Y-109403942D01*
X141496577Y-109401772D01*
X141443748Y-109401429D01*
X141377381Y-109402173D01*
X141333106Y-109405252D01*
X141304009Y-109411939D01*
X141283173Y-109423504D01*
X141272107Y-109432987D01*
X141244198Y-109477040D01*
X141240843Y-109527776D01*
X141262159Y-109576204D01*
X141270073Y-109585550D01*
X141287647Y-109601460D01*
X141308587Y-109611390D01*
X141339782Y-109616722D01*
X141388122Y-109618837D01*
X141437647Y-109619143D01*
X141437647Y-109720542D01*
X141350568Y-109717190D01*
X141282086Y-109705274D01*
X141230600Y-109682865D01*
X141190443Y-109647876D01*
X141169861Y-109620625D01*
X141147625Y-109571093D01*
X141137304Y-109513684D01*
X141140067Y-109460318D01*
X141151212Y-109430457D01*
X141154383Y-109418739D01*
X141142557Y-109410963D01*
X141110866Y-109405535D01*
X141062593Y-109401429D01*
X141008829Y-109396933D01*
X140976482Y-109390687D01*
X140957985Y-109379324D01*
X140945770Y-109359472D01*
X140940362Y-109347000D01*
X140920601Y-109299829D01*
X141257358Y-109299883D01*
X141257358Y-109299883D01*
G37*
X141257358Y-109299883D02*
X141365837Y-109300067D01*
X141449287Y-109300781D01*
X141511704Y-109302325D01*
X141557085Y-109304999D01*
X141589429Y-109309106D01*
X141612733Y-109314945D01*
X141630995Y-109322818D01*
X141641418Y-109328779D01*
X141697945Y-109378145D01*
X141733377Y-109440736D01*
X141746090Y-109509987D01*
X141734463Y-109579332D01*
X141713568Y-109620625D01*
X141677422Y-109663975D01*
X141633276Y-109693519D01*
X141575462Y-109711345D01*
X141498313Y-109719537D01*
X141441714Y-109720698D01*
X141437647Y-109720542D01*
X141437647Y-109619143D01*
X141502550Y-109618524D01*
X141545514Y-109615686D01*
X141573622Y-109609160D01*
X141593953Y-109597477D01*
X141609288Y-109583517D01*
X141638890Y-109536635D01*
X141641419Y-109486299D01*
X141616705Y-109438724D01*
X141613356Y-109435021D01*
X141595935Y-109419217D01*
X141575209Y-109409307D01*
X141544362Y-109403942D01*
X141496577Y-109401772D01*
X141443748Y-109401429D01*
X141377381Y-109402173D01*
X141333106Y-109405252D01*
X141304009Y-109411939D01*
X141283173Y-109423504D01*
X141272107Y-109432987D01*
X141244198Y-109477040D01*
X141240843Y-109527776D01*
X141262159Y-109576204D01*
X141270073Y-109585550D01*
X141287647Y-109601460D01*
X141308587Y-109611390D01*
X141339782Y-109616722D01*
X141388122Y-109618837D01*
X141437647Y-109619143D01*
X141437647Y-109720542D01*
X141350568Y-109717190D01*
X141282086Y-109705274D01*
X141230600Y-109682865D01*
X141190443Y-109647876D01*
X141169861Y-109620625D01*
X141147625Y-109571093D01*
X141137304Y-109513684D01*
X141140067Y-109460318D01*
X141151212Y-109430457D01*
X141154383Y-109418739D01*
X141142557Y-109410963D01*
X141110866Y-109405535D01*
X141062593Y-109401429D01*
X141008829Y-109396933D01*
X140976482Y-109390687D01*
X140957985Y-109379324D01*
X140945770Y-109359472D01*
X140940362Y-109347000D01*
X140920601Y-109299829D01*
X141257358Y-109299883D01*
G36*
X141150663Y-108710167D02*
X141188850Y-108707952D01*
X141246886Y-108706216D01*
X141320180Y-108705101D01*
X141397055Y-108704743D01*
X141657196Y-108704743D01*
X141703127Y-108750674D01*
X141731429Y-108782325D01*
X141742893Y-108810110D01*
X141742168Y-108848085D01*
X141740321Y-108863160D01*
X141734948Y-108910274D01*
X141731869Y-108949244D01*
X141731585Y-108958743D01*
X141733445Y-108990767D01*
X141738114Y-109036568D01*
X141740321Y-109054326D01*
X141743735Y-109097943D01*
X141736320Y-109127255D01*
X141713427Y-109156320D01*
X141703127Y-109166812D01*
X141657196Y-109212743D01*
X141170602Y-109212743D01*
X141153758Y-109175774D01*
X141141282Y-109143941D01*
X141136914Y-109125317D01*
X141150718Y-109120542D01*
X141189286Y-109116079D01*
X141248356Y-109112225D01*
X141323663Y-109109278D01*
X141387286Y-109107857D01*
X141637657Y-109103886D01*
X141642556Y-109069241D01*
X141639131Y-109037732D01*
X141628041Y-109022292D01*
X141607308Y-109017977D01*
X141563145Y-109014292D01*
X141501146Y-109011531D01*
X141426909Y-109009988D01*
X141388706Y-109009765D01*
X141168783Y-109009543D01*
X141152849Y-108963834D01*
X141142015Y-108931482D01*
X141136962Y-108913885D01*
X141136914Y-108913377D01*
X141150648Y-108911612D01*
X141188730Y-108909671D01*
X141246482Y-108907718D01*
X141319227Y-108905916D01*
X141387286Y-108904657D01*
X141637657Y-108900686D01*
X141637657Y-108813600D01*
X141409240Y-108809604D01*
X141180822Y-108805608D01*
X141158868Y-108763153D01*
X141143793Y-108731808D01*
X141136951Y-108713256D01*
X141136914Y-108712721D01*
X141150663Y-108710167D01*
X141150663Y-108710167D01*
G37*
X141150663Y-108710167D02*
X141188850Y-108707952D01*
X141246886Y-108706216D01*
X141320180Y-108705101D01*
X141397055Y-108704743D01*
X141657196Y-108704743D01*
X141703127Y-108750674D01*
X141731429Y-108782325D01*
X141742893Y-108810110D01*
X141742168Y-108848085D01*
X141740321Y-108863160D01*
X141734948Y-108910274D01*
X141731869Y-108949244D01*
X141731585Y-108958743D01*
X141733445Y-108990767D01*
X141738114Y-109036568D01*
X141740321Y-109054326D01*
X141743735Y-109097943D01*
X141736320Y-109127255D01*
X141713427Y-109156320D01*
X141703127Y-109166812D01*
X141657196Y-109212743D01*
X141170602Y-109212743D01*
X141153758Y-109175774D01*
X141141282Y-109143941D01*
X141136914Y-109125317D01*
X141150718Y-109120542D01*
X141189286Y-109116079D01*
X141248356Y-109112225D01*
X141323663Y-109109278D01*
X141387286Y-109107857D01*
X141637657Y-109103886D01*
X141642556Y-109069241D01*
X141639131Y-109037732D01*
X141628041Y-109022292D01*
X141607308Y-109017977D01*
X141563145Y-109014292D01*
X141501146Y-109011531D01*
X141426909Y-109009988D01*
X141388706Y-109009765D01*
X141168783Y-109009543D01*
X141152849Y-108963834D01*
X141142015Y-108931482D01*
X141136962Y-108913885D01*
X141136914Y-108913377D01*
X141150648Y-108911612D01*
X141188730Y-108909671D01*
X141246482Y-108907718D01*
X141319227Y-108905916D01*
X141387286Y-108904657D01*
X141637657Y-108900686D01*
X141637657Y-108813600D01*
X141409240Y-108809604D01*
X141180822Y-108805608D01*
X141158868Y-108763153D01*
X141143793Y-108731808D01*
X141136951Y-108713256D01*
X141136914Y-108712721D01*
X141150663Y-108710167D01*
G36*
X141148335Y-108345124D02*
X141167344Y-108303333D01*
X141190378Y-108270531D01*
X141216133Y-108246497D01*
X141249358Y-108229903D01*
X141294800Y-108219423D01*
X141357207Y-108213729D01*
X141441327Y-108211493D01*
X141496721Y-108211257D01*
X141712826Y-108211257D01*
X141729670Y-108248226D01*
X141741981Y-108277344D01*
X141746514Y-108291769D01*
X141733025Y-108294528D01*
X141696653Y-108296718D01*
X141643542Y-108298058D01*
X141601372Y-108298343D01*
X141540447Y-108299566D01*
X141492115Y-108302864D01*
X141462518Y-108307679D01*
X141456229Y-108311504D01*
X141462652Y-108337217D01*
X141479125Y-108377582D01*
X141501458Y-108424321D01*
X141525457Y-108469155D01*
X141546930Y-108503807D01*
X141561685Y-108519998D01*
X141561845Y-108520062D01*
X141589152Y-108518670D01*
X141615219Y-108506182D01*
X141636392Y-108484257D01*
X141643474Y-108452257D01*
X141642649Y-108424908D01*
X141642042Y-108386174D01*
X141651116Y-108365842D01*
X141675092Y-108353631D01*
X141679613Y-108352091D01*
X141713806Y-108346797D01*
X141734568Y-108360953D01*
X141744462Y-108397852D01*
X141746292Y-108437711D01*
X141732727Y-108509438D01*
X141713355Y-108546568D01*
X141667845Y-108592424D01*
X141611983Y-108616744D01*
X141552957Y-108618927D01*
X141497953Y-108598371D01*
X141463486Y-108567451D01*
X141444189Y-108536580D01*
X141419759Y-108488058D01*
X141394985Y-108431515D01*
X141391199Y-108422090D01*
X141363791Y-108359981D01*
X141339634Y-108324178D01*
X141315619Y-108312663D01*
X141288635Y-108323420D01*
X141267543Y-108341886D01*
X141241572Y-108385531D01*
X141239624Y-108433554D01*
X141259637Y-108477594D01*
X141299551Y-108509291D01*
X141309848Y-108513451D01*
X141347724Y-108537673D01*
X141375842Y-108573035D01*
X141398917Y-108617657D01*
X141333485Y-108617657D01*
X141293506Y-108615031D01*
X141261997Y-108603770D01*
X141228378Y-108578801D01*
X141202484Y-108554831D01*
X141165817Y-108517559D01*
X141146121Y-108488599D01*
X141138220Y-108457495D01*
X141136914Y-108422287D01*
X141148335Y-108345124D01*
X141148335Y-108345124D01*
G37*
X141148335Y-108345124D02*
X141167344Y-108303333D01*
X141190378Y-108270531D01*
X141216133Y-108246497D01*
X141249358Y-108229903D01*
X141294800Y-108219423D01*
X141357207Y-108213729D01*
X141441327Y-108211493D01*
X141496721Y-108211257D01*
X141712826Y-108211257D01*
X141729670Y-108248226D01*
X141741981Y-108277344D01*
X141746514Y-108291769D01*
X141733025Y-108294528D01*
X141696653Y-108296718D01*
X141643542Y-108298058D01*
X141601372Y-108298343D01*
X141540447Y-108299566D01*
X141492115Y-108302864D01*
X141462518Y-108307679D01*
X141456229Y-108311504D01*
X141462652Y-108337217D01*
X141479125Y-108377582D01*
X141501458Y-108424321D01*
X141525457Y-108469155D01*
X141546930Y-108503807D01*
X141561685Y-108519998D01*
X141561845Y-108520062D01*
X141589152Y-108518670D01*
X141615219Y-108506182D01*
X141636392Y-108484257D01*
X141643474Y-108452257D01*
X141642649Y-108424908D01*
X141642042Y-108386174D01*
X141651116Y-108365842D01*
X141675092Y-108353631D01*
X141679613Y-108352091D01*
X141713806Y-108346797D01*
X141734568Y-108360953D01*
X141744462Y-108397852D01*
X141746292Y-108437711D01*
X141732727Y-108509438D01*
X141713355Y-108546568D01*
X141667845Y-108592424D01*
X141611983Y-108616744D01*
X141552957Y-108618927D01*
X141497953Y-108598371D01*
X141463486Y-108567451D01*
X141444189Y-108536580D01*
X141419759Y-108488058D01*
X141394985Y-108431515D01*
X141391199Y-108422090D01*
X141363791Y-108359981D01*
X141339634Y-108324178D01*
X141315619Y-108312663D01*
X141288635Y-108323420D01*
X141267543Y-108341886D01*
X141241572Y-108385531D01*
X141239624Y-108433554D01*
X141259637Y-108477594D01*
X141299551Y-108509291D01*
X141309848Y-108513451D01*
X141347724Y-108537673D01*
X141375842Y-108573035D01*
X141398917Y-108617657D01*
X141333485Y-108617657D01*
X141293506Y-108615031D01*
X141261997Y-108603770D01*
X141228378Y-108578801D01*
X141202484Y-108554831D01*
X141165817Y-108517559D01*
X141146121Y-108488599D01*
X141138220Y-108457495D01*
X141136914Y-108422287D01*
X141148335Y-108345124D01*
G36*
X141150752Y-107837400D02*
X141158334Y-107820052D01*
X141191128Y-107778644D01*
X141238547Y-107743235D01*
X141289151Y-107721336D01*
X141314098Y-107717771D01*
X141348927Y-107729721D01*
X141367357Y-107755933D01*
X141378516Y-107784036D01*
X141380572Y-107796905D01*
X141365649Y-107803171D01*
X141333175Y-107815544D01*
X141318502Y-107820972D01*
X141267744Y-107851410D01*
X141242427Y-107895480D01*
X141243206Y-107951990D01*
X141244203Y-107956175D01*
X141258507Y-107986345D01*
X141286393Y-108008524D01*
X141331287Y-108023673D01*
X141396615Y-108032750D01*
X141485804Y-108036714D01*
X141533261Y-108037086D01*
X141608071Y-108037270D01*
X141659069Y-108038478D01*
X141691471Y-108041691D01*
X141710495Y-108047891D01*
X141721356Y-108058060D01*
X141729272Y-108073181D01*
X141729670Y-108074054D01*
X141741981Y-108103172D01*
X141746514Y-108117597D01*
X141732809Y-108119814D01*
X141694925Y-108121711D01*
X141637715Y-108123153D01*
X141566027Y-108124002D01*
X141513565Y-108124171D01*
X141412047Y-108123308D01*
X141335032Y-108119930D01*
X141278023Y-108112858D01*
X141236526Y-108100912D01*
X141206043Y-108082910D01*
X141182080Y-108057673D01*
X141165355Y-108032753D01*
X141143097Y-107972829D01*
X141138076Y-107903089D01*
X141150752Y-107837400D01*
X141150752Y-107837400D01*
G37*
X141150752Y-107837400D02*
X141158334Y-107820052D01*
X141191128Y-107778644D01*
X141238547Y-107743235D01*
X141289151Y-107721336D01*
X141314098Y-107717771D01*
X141348927Y-107729721D01*
X141367357Y-107755933D01*
X141378516Y-107784036D01*
X141380572Y-107796905D01*
X141365649Y-107803171D01*
X141333175Y-107815544D01*
X141318502Y-107820972D01*
X141267744Y-107851410D01*
X141242427Y-107895480D01*
X141243206Y-107951990D01*
X141244203Y-107956175D01*
X141258507Y-107986345D01*
X141286393Y-108008524D01*
X141331287Y-108023673D01*
X141396615Y-108032750D01*
X141485804Y-108036714D01*
X141533261Y-108037086D01*
X141608071Y-108037270D01*
X141659069Y-108038478D01*
X141691471Y-108041691D01*
X141710495Y-108047891D01*
X141721356Y-108058060D01*
X141729272Y-108073181D01*
X141729670Y-108074054D01*
X141741981Y-108103172D01*
X141746514Y-108117597D01*
X141732809Y-108119814D01*
X141694925Y-108121711D01*
X141637715Y-108123153D01*
X141566027Y-108124002D01*
X141513565Y-108124171D01*
X141412047Y-108123308D01*
X141335032Y-108119930D01*
X141278023Y-108112858D01*
X141236526Y-108100912D01*
X141206043Y-108082910D01*
X141182080Y-108057673D01*
X141165355Y-108032753D01*
X141143097Y-107972829D01*
X141138076Y-107903089D01*
X141150752Y-107837400D01*
G36*
X141158966Y-107336405D02*
X141196497Y-107278979D01*
X141230096Y-107251281D01*
X141291064Y-107229338D01*
X141339308Y-107227595D01*
X141403816Y-107231543D01*
X141468934Y-107380314D01*
X141502202Y-107452651D01*
X141528964Y-107499916D01*
X141552144Y-107524493D01*
X141574667Y-107528763D01*
X141599455Y-107515111D01*
X141615886Y-107500057D01*
X141642235Y-107456254D01*
X141644081Y-107408611D01*
X141623546Y-107364855D01*
X141582752Y-107332711D01*
X141568347Y-107326962D01*
X141523356Y-107299424D01*
X141504182Y-107267742D01*
X141487779Y-107224286D01*
X141549966Y-107224286D01*
X141592283Y-107228128D01*
X141627969Y-107243177D01*
X141668943Y-107274720D01*
X141674267Y-107279408D01*
X141710720Y-107314494D01*
X141730283Y-107344653D01*
X141739283Y-107382385D01*
X141742230Y-107413665D01*
X141742965Y-107469615D01*
X141733660Y-107509445D01*
X141719846Y-107534292D01*
X141689467Y-107573344D01*
X141656613Y-107600375D01*
X141615294Y-107617483D01*
X141559521Y-107626762D01*
X141483305Y-107630307D01*
X141444622Y-107630590D01*
X141398247Y-107629628D01*
X141398247Y-107541993D01*
X141423126Y-107540977D01*
X141427200Y-107538444D01*
X141421665Y-107521726D01*
X141407017Y-107485751D01*
X141386190Y-107437669D01*
X141381714Y-107427614D01*
X141350814Y-107366848D01*
X141323657Y-107333368D01*
X141298220Y-107326010D01*
X141272481Y-107343609D01*
X141261109Y-107358144D01*
X141238364Y-107410590D01*
X141242122Y-107459678D01*
X141269884Y-107500773D01*
X141319152Y-107529242D01*
X141358257Y-107538369D01*
X141398247Y-107541993D01*
X141398247Y-107629628D01*
X141354249Y-107628715D01*
X141287384Y-107621804D01*
X141238695Y-107608116D01*
X141202849Y-107585904D01*
X141174513Y-107553426D01*
X141165355Y-107539267D01*
X141141507Y-107474947D01*
X141140006Y-107404527D01*
X141158966Y-107336405D01*
X141158966Y-107336405D01*
G37*
X141158966Y-107336405D02*
X141196497Y-107278979D01*
X141230096Y-107251281D01*
X141291064Y-107229338D01*
X141339308Y-107227595D01*
X141403816Y-107231543D01*
X141468934Y-107380314D01*
X141502202Y-107452651D01*
X141528964Y-107499916D01*
X141552144Y-107524493D01*
X141574667Y-107528763D01*
X141599455Y-107515111D01*
X141615886Y-107500057D01*
X141642235Y-107456254D01*
X141644081Y-107408611D01*
X141623546Y-107364855D01*
X141582752Y-107332711D01*
X141568347Y-107326962D01*
X141523356Y-107299424D01*
X141504182Y-107267742D01*
X141487779Y-107224286D01*
X141549966Y-107224286D01*
X141592283Y-107228128D01*
X141627969Y-107243177D01*
X141668943Y-107274720D01*
X141674267Y-107279408D01*
X141710720Y-107314494D01*
X141730283Y-107344653D01*
X141739283Y-107382385D01*
X141742230Y-107413665D01*
X141742965Y-107469615D01*
X141733660Y-107509445D01*
X141719846Y-107534292D01*
X141689467Y-107573344D01*
X141656613Y-107600375D01*
X141615294Y-107617483D01*
X141559521Y-107626762D01*
X141483305Y-107630307D01*
X141444622Y-107630590D01*
X141398247Y-107629628D01*
X141398247Y-107541993D01*
X141423126Y-107540977D01*
X141427200Y-107538444D01*
X141421665Y-107521726D01*
X141407017Y-107485751D01*
X141386190Y-107437669D01*
X141381714Y-107427614D01*
X141350814Y-107366848D01*
X141323657Y-107333368D01*
X141298220Y-107326010D01*
X141272481Y-107343609D01*
X141261109Y-107358144D01*
X141238364Y-107410590D01*
X141242122Y-107459678D01*
X141269884Y-107500773D01*
X141319152Y-107529242D01*
X141358257Y-107538369D01*
X141398247Y-107541993D01*
X141398247Y-107629628D01*
X141354249Y-107628715D01*
X141287384Y-107621804D01*
X141238695Y-107608116D01*
X141202849Y-107585904D01*
X141174513Y-107553426D01*
X141165355Y-107539267D01*
X141141507Y-107474947D01*
X141140006Y-107404527D01*
X141158966Y-107336405D01*
G36*
X136434348Y-110386090D02*
X136434778Y-110307546D01*
X136435942Y-110250702D01*
X136438207Y-110211895D01*
X136441940Y-110187462D01*
X136447506Y-110173738D01*
X136455273Y-110167060D01*
X136465605Y-110163764D01*
X136466943Y-110163444D01*
X136491079Y-110158438D01*
X136538701Y-110149171D01*
X136604741Y-110136608D01*
X136684128Y-110121713D01*
X136771796Y-110105449D01*
X136774875Y-110104881D01*
X136860789Y-110088590D01*
X136936696Y-110073348D01*
X136998045Y-110060139D01*
X137040282Y-110049946D01*
X137058855Y-110043752D01*
X137059184Y-110043457D01*
X137068253Y-110025212D01*
X137083367Y-109987595D01*
X137101262Y-109938729D01*
X137101358Y-109938457D01*
X137124493Y-109876907D01*
X137153965Y-109804343D01*
X137183597Y-109735943D01*
X137185062Y-109732706D01*
X137235626Y-109621298D01*
X137067160Y-109374601D01*
X137015803Y-109298923D01*
X136969889Y-109230369D01*
X136932030Y-109172912D01*
X136904837Y-109130524D01*
X136890921Y-109107175D01*
X136889889Y-109104958D01*
X136894484Y-109087990D01*
X136916655Y-109056299D01*
X136957447Y-109008648D01*
X137017905Y-108943802D01*
X137082227Y-108877603D01*
X137145612Y-108813786D01*
X137203451Y-108756671D01*
X137252175Y-108709695D01*
X137288210Y-108676297D01*
X137307984Y-108659915D01*
X137309002Y-108659306D01*
X137322572Y-108657495D01*
X137344733Y-108664317D01*
X137378478Y-108681460D01*
X137426800Y-108710607D01*
X137492692Y-108753445D01*
X137577517Y-108810552D01*
X137652177Y-108861234D01*
X137719140Y-108906539D01*
X137774516Y-108943850D01*
X137814420Y-108970548D01*
X137834962Y-108984015D01*
X137836356Y-108984863D01*
X137856038Y-108983219D01*
X137894293Y-108970755D01*
X137943889Y-108949952D01*
X137959728Y-108942538D01*
X138030290Y-108910186D01*
X138110353Y-108875672D01*
X138179629Y-108847635D01*
X138231045Y-108827432D01*
X138270119Y-108811385D01*
X138290541Y-108802112D01*
X138292114Y-108800959D01*
X138294721Y-108783904D01*
X138301863Y-108743702D01*
X138312523Y-108685698D01*
X138325685Y-108615237D01*
X138340333Y-108537665D01*
X138355449Y-108458328D01*
X138370018Y-108382569D01*
X138383022Y-108315736D01*
X138393445Y-108263172D01*
X138400270Y-108230224D01*
X138402199Y-108222143D01*
X138406962Y-108213795D01*
X138417718Y-108207494D01*
X138438098Y-108202955D01*
X138471734Y-108199896D01*
X138522255Y-108198033D01*
X138593292Y-108197082D01*
X138688476Y-108196760D01*
X138727492Y-108196743D01*
X139044799Y-108196743D01*
X139059839Y-108272943D01*
X139067995Y-108315337D01*
X139079899Y-108378600D01*
X139094116Y-108455038D01*
X139109210Y-108536957D01*
X139113355Y-108559600D01*
X139128053Y-108635194D01*
X139142505Y-108701047D01*
X139155375Y-108751634D01*
X139165322Y-108781426D01*
X139168287Y-108786388D01*
X139189283Y-108798574D01*
X139229967Y-108816047D01*
X139282322Y-108835423D01*
X139293600Y-108839266D01*
X139363523Y-108864661D01*
X139442418Y-108896183D01*
X139513266Y-108927031D01*
X139513595Y-108927183D01*
X139624733Y-108978553D01*
X139873253Y-108809601D01*
X140121772Y-108640648D01*
X140339058Y-108857571D01*
X140403726Y-108923181D01*
X140460733Y-108983021D01*
X140507033Y-109033733D01*
X140539584Y-109071954D01*
X140555343Y-109094325D01*
X140556343Y-109097534D01*
X140548469Y-109116374D01*
X140526578Y-109154820D01*
X140493267Y-109208670D01*
X140451131Y-109273724D01*
X140403943Y-109344060D01*
X140355810Y-109415445D01*
X140313928Y-109479092D01*
X140280871Y-109530959D01*
X140259218Y-109567005D01*
X140251543Y-109583133D01*
X140258037Y-109602811D01*
X140275150Y-109640125D01*
X140299326Y-109687379D01*
X140302013Y-109692388D01*
X140333927Y-109756023D01*
X140349579Y-109799659D01*
X140349745Y-109826798D01*
X140335204Y-109840943D01*
X140335000Y-109841025D01*
X140317779Y-109848095D01*
X140276899Y-109864958D01*
X140215525Y-109890305D01*
X140136819Y-109922829D01*
X140043947Y-109961222D01*
X139940072Y-110004178D01*
X139839502Y-110045778D01*
X139728516Y-110091496D01*
X139625703Y-110133474D01*
X139534215Y-110170452D01*
X139457201Y-110201173D01*
X139397815Y-110224378D01*
X139359209Y-110238810D01*
X139344800Y-110243257D01*
X139328272Y-110232104D01*
X139301930Y-110202931D01*
X139272887Y-110164029D01*
X139181039Y-110053243D01*
X139075759Y-109966649D01*
X138959266Y-109905284D01*
X138833776Y-109870185D01*
X138701507Y-109862392D01*
X138640457Y-109868057D01*
X138513795Y-109898922D01*
X138401941Y-109952080D01*
X138306001Y-110024233D01*
X138227076Y-110112083D01*
X138166270Y-110212335D01*
X138124687Y-110321690D01*
X138103428Y-110436853D01*
X138103599Y-110554525D01*
X138126301Y-110671410D01*
X138172638Y-110784211D01*
X138243713Y-110889631D01*
X138283911Y-110933632D01*
X138387129Y-111018021D01*
X138499925Y-111076778D01*
X138619010Y-111110296D01*
X138741095Y-111118965D01*
X138862893Y-111103177D01*
X138981116Y-111063322D01*
X139092475Y-110999793D01*
X139193684Y-110912979D01*
X139272887Y-110815971D01*
X139303162Y-110775563D01*
X139329219Y-110747018D01*
X139344825Y-110736743D01*
X139361843Y-110742123D01*
X139402500Y-110757425D01*
X139463642Y-110781388D01*
X139542119Y-110812756D01*
X139634780Y-110850268D01*
X139738472Y-110892667D01*
X139839526Y-110934337D01*
X139950607Y-110980310D01*
X140053541Y-111022893D01*
X140145165Y-111060779D01*
X140222316Y-111092660D01*
X140281831Y-111117229D01*
X140320544Y-111133180D01*
X140335000Y-111139090D01*
X140349685Y-111153052D01*
X140349642Y-111180060D01*
X140334099Y-111223587D01*
X140302284Y-111287110D01*
X140302013Y-111287612D01*
X140277323Y-111335440D01*
X140259338Y-111374103D01*
X140251614Y-111395905D01*
X140251543Y-111396867D01*
X140259378Y-111413279D01*
X140281165Y-111449513D01*
X140314328Y-111501526D01*
X140356291Y-111565275D01*
X140403943Y-111635940D01*
X140452191Y-111707884D01*
X140494151Y-111772726D01*
X140527227Y-111826265D01*
X140548821Y-111864303D01*
X140556343Y-111882467D01*
X140546457Y-111899192D01*
X140518826Y-111932820D01*
X140476495Y-111979990D01*
X140422505Y-112037342D01*
X140359899Y-112101516D01*
X140338983Y-112122503D01*
X140121623Y-112339501D01*
X139879220Y-112174332D01*
X139804781Y-112124136D01*
X139737972Y-112080081D01*
X139682665Y-112044638D01*
X139642729Y-112020281D01*
X139622036Y-112009478D01*
X139620563Y-112009162D01*
X139601058Y-112014857D01*
X139561822Y-112030174D01*
X139509430Y-112052463D01*
X139474355Y-112068107D01*
X139407201Y-112097359D01*
X139339358Y-112124906D01*
X139282034Y-112146263D01*
X139264572Y-112152065D01*
X139217938Y-112168548D01*
X139181905Y-112184660D01*
X139168287Y-112193510D01*
X139159952Y-112213040D01*
X139148137Y-112255666D01*
X139134181Y-112315855D01*
X139119422Y-112388078D01*
X139113355Y-112420400D01*
X139098273Y-112502478D01*
X139083669Y-112581205D01*
X139070980Y-112648891D01*
X139061642Y-112697840D01*
X139059839Y-112707057D01*
X139044799Y-112783257D01*
X138727492Y-112783257D01*
X138623154Y-112783086D01*
X138544213Y-112782384D01*
X138487038Y-112780866D01*
X138447999Y-112778251D01*
X138423465Y-112774254D01*
X138409805Y-112768591D01*
X138403389Y-112760980D01*
X138402199Y-112757857D01*
X138397980Y-112739022D01*
X138389562Y-112697412D01*
X138377961Y-112638370D01*
X138364195Y-112567243D01*
X138349280Y-112489375D01*
X138334232Y-112410113D01*
X138320069Y-112334802D01*
X138307806Y-112268787D01*
X138298461Y-112217413D01*
X138293050Y-112186025D01*
X138292114Y-112179041D01*
X138279596Y-112172715D01*
X138246246Y-112158710D01*
X138198377Y-112139645D01*
X138179629Y-112132366D01*
X138107195Y-112103004D01*
X138027170Y-112068429D01*
X137959728Y-112037463D01*
X137908159Y-112014677D01*
X137865785Y-111999518D01*
X137839834Y-111994458D01*
X137836356Y-111995264D01*
X137819936Y-112005959D01*
X137783417Y-112030380D01*
X137730687Y-112065905D01*
X137665635Y-112109913D01*
X137592151Y-112159783D01*
X137577645Y-112169644D01*
X137491704Y-112227508D01*
X137426261Y-112270044D01*
X137378304Y-112298946D01*
X137344820Y-112315910D01*
X137322795Y-112322633D01*
X137309217Y-112320810D01*
X137309131Y-112320764D01*
X137291297Y-112306414D01*
X137256817Y-112274677D01*
X137209268Y-112228990D01*
X137152222Y-112172796D01*
X137089255Y-112109532D01*
X137082227Y-112102398D01*
X137005020Y-112022670D01*
X136948330Y-111961143D01*
X136911110Y-111916579D01*
X136892315Y-111887743D01*
X136889889Y-111875042D01*
X136900471Y-111856506D01*
X136924916Y-111818039D01*
X136960612Y-111763614D01*
X137004947Y-111697202D01*
X137055311Y-111622775D01*
X137067160Y-111605399D01*
X137235626Y-111358703D01*
X137185062Y-111247294D01*
X137155595Y-111179543D01*
X137125959Y-111106817D01*
X137102330Y-111044297D01*
X137101358Y-111041543D01*
X137083457Y-110992640D01*
X137068320Y-110954943D01*
X137059210Y-110936575D01*
X137059184Y-110936544D01*
X137042717Y-110930715D01*
X137002219Y-110920808D01*
X136942242Y-110907805D01*
X136867340Y-110892691D01*
X136782064Y-110876448D01*
X136774875Y-110875119D01*
X136687014Y-110858825D01*
X136607260Y-110843867D01*
X136540681Y-110831209D01*
X136492347Y-110821814D01*
X136467325Y-110816646D01*
X136466943Y-110816556D01*
X136456299Y-110813411D01*
X136448262Y-110807296D01*
X136442467Y-110794547D01*
X136438547Y-110771500D01*
X136436135Y-110734491D01*
X136434865Y-110679856D01*
X136434371Y-110603933D01*
X136434286Y-110503056D01*
X136434286Y-110490000D01*
X136434348Y-110386090D01*
X136434348Y-110386090D01*
G37*
X136434348Y-110386090D02*
X136434778Y-110307546D01*
X136435942Y-110250702D01*
X136438207Y-110211895D01*
X136441940Y-110187462D01*
X136447506Y-110173738D01*
X136455273Y-110167060D01*
X136465605Y-110163764D01*
X136466943Y-110163444D01*
X136491079Y-110158438D01*
X136538701Y-110149171D01*
X136604741Y-110136608D01*
X136684128Y-110121713D01*
X136771796Y-110105449D01*
X136774875Y-110104881D01*
X136860789Y-110088590D01*
X136936696Y-110073348D01*
X136998045Y-110060139D01*
X137040282Y-110049946D01*
X137058855Y-110043752D01*
X137059184Y-110043457D01*
X137068253Y-110025212D01*
X137083367Y-109987595D01*
X137101262Y-109938729D01*
X137101358Y-109938457D01*
X137124493Y-109876907D01*
X137153965Y-109804343D01*
X137183597Y-109735943D01*
X137185062Y-109732706D01*
X137235626Y-109621298D01*
X137067160Y-109374601D01*
X137015803Y-109298923D01*
X136969889Y-109230369D01*
X136932030Y-109172912D01*
X136904837Y-109130524D01*
X136890921Y-109107175D01*
X136889889Y-109104958D01*
X136894484Y-109087990D01*
X136916655Y-109056299D01*
X136957447Y-109008648D01*
X137017905Y-108943802D01*
X137082227Y-108877603D01*
X137145612Y-108813786D01*
X137203451Y-108756671D01*
X137252175Y-108709695D01*
X137288210Y-108676297D01*
X137307984Y-108659915D01*
X137309002Y-108659306D01*
X137322572Y-108657495D01*
X137344733Y-108664317D01*
X137378478Y-108681460D01*
X137426800Y-108710607D01*
X137492692Y-108753445D01*
X137577517Y-108810552D01*
X137652177Y-108861234D01*
X137719140Y-108906539D01*
X137774516Y-108943850D01*
X137814420Y-108970548D01*
X137834962Y-108984015D01*
X137836356Y-108984863D01*
X137856038Y-108983219D01*
X137894293Y-108970755D01*
X137943889Y-108949952D01*
X137959728Y-108942538D01*
X138030290Y-108910186D01*
X138110353Y-108875672D01*
X138179629Y-108847635D01*
X138231045Y-108827432D01*
X138270119Y-108811385D01*
X138290541Y-108802112D01*
X138292114Y-108800959D01*
X138294721Y-108783904D01*
X138301863Y-108743702D01*
X138312523Y-108685698D01*
X138325685Y-108615237D01*
X138340333Y-108537665D01*
X138355449Y-108458328D01*
X138370018Y-108382569D01*
X138383022Y-108315736D01*
X138393445Y-108263172D01*
X138400270Y-108230224D01*
X138402199Y-108222143D01*
X138406962Y-108213795D01*
X138417718Y-108207494D01*
X138438098Y-108202955D01*
X138471734Y-108199896D01*
X138522255Y-108198033D01*
X138593292Y-108197082D01*
X138688476Y-108196760D01*
X138727492Y-108196743D01*
X139044799Y-108196743D01*
X139059839Y-108272943D01*
X139067995Y-108315337D01*
X139079899Y-108378600D01*
X139094116Y-108455038D01*
X139109210Y-108536957D01*
X139113355Y-108559600D01*
X139128053Y-108635194D01*
X139142505Y-108701047D01*
X139155375Y-108751634D01*
X139165322Y-108781426D01*
X139168287Y-108786388D01*
X139189283Y-108798574D01*
X139229967Y-108816047D01*
X139282322Y-108835423D01*
X139293600Y-108839266D01*
X139363523Y-108864661D01*
X139442418Y-108896183D01*
X139513266Y-108927031D01*
X139513595Y-108927183D01*
X139624733Y-108978553D01*
X139873253Y-108809601D01*
X140121772Y-108640648D01*
X140339058Y-108857571D01*
X140403726Y-108923181D01*
X140460733Y-108983021D01*
X140507033Y-109033733D01*
X140539584Y-109071954D01*
X140555343Y-109094325D01*
X140556343Y-109097534D01*
X140548469Y-109116374D01*
X140526578Y-109154820D01*
X140493267Y-109208670D01*
X140451131Y-109273724D01*
X140403943Y-109344060D01*
X140355810Y-109415445D01*
X140313928Y-109479092D01*
X140280871Y-109530959D01*
X140259218Y-109567005D01*
X140251543Y-109583133D01*
X140258037Y-109602811D01*
X140275150Y-109640125D01*
X140299326Y-109687379D01*
X140302013Y-109692388D01*
X140333927Y-109756023D01*
X140349579Y-109799659D01*
X140349745Y-109826798D01*
X140335204Y-109840943D01*
X140335000Y-109841025D01*
X140317779Y-109848095D01*
X140276899Y-109864958D01*
X140215525Y-109890305D01*
X140136819Y-109922829D01*
X140043947Y-109961222D01*
X139940072Y-110004178D01*
X139839502Y-110045778D01*
X139728516Y-110091496D01*
X139625703Y-110133474D01*
X139534215Y-110170452D01*
X139457201Y-110201173D01*
X139397815Y-110224378D01*
X139359209Y-110238810D01*
X139344800Y-110243257D01*
X139328272Y-110232104D01*
X139301930Y-110202931D01*
X139272887Y-110164029D01*
X139181039Y-110053243D01*
X139075759Y-109966649D01*
X138959266Y-109905284D01*
X138833776Y-109870185D01*
X138701507Y-109862392D01*
X138640457Y-109868057D01*
X138513795Y-109898922D01*
X138401941Y-109952080D01*
X138306001Y-110024233D01*
X138227076Y-110112083D01*
X138166270Y-110212335D01*
X138124687Y-110321690D01*
X138103428Y-110436853D01*
X138103599Y-110554525D01*
X138126301Y-110671410D01*
X138172638Y-110784211D01*
X138243713Y-110889631D01*
X138283911Y-110933632D01*
X138387129Y-111018021D01*
X138499925Y-111076778D01*
X138619010Y-111110296D01*
X138741095Y-111118965D01*
X138862893Y-111103177D01*
X138981116Y-111063322D01*
X139092475Y-110999793D01*
X139193684Y-110912979D01*
X139272887Y-110815971D01*
X139303162Y-110775563D01*
X139329219Y-110747018D01*
X139344825Y-110736743D01*
X139361843Y-110742123D01*
X139402500Y-110757425D01*
X139463642Y-110781388D01*
X139542119Y-110812756D01*
X139634780Y-110850268D01*
X139738472Y-110892667D01*
X139839526Y-110934337D01*
X139950607Y-110980310D01*
X140053541Y-111022893D01*
X140145165Y-111060779D01*
X140222316Y-111092660D01*
X140281831Y-111117229D01*
X140320544Y-111133180D01*
X140335000Y-111139090D01*
X140349685Y-111153052D01*
X140349642Y-111180060D01*
X140334099Y-111223587D01*
X140302284Y-111287110D01*
X140302013Y-111287612D01*
X140277323Y-111335440D01*
X140259338Y-111374103D01*
X140251614Y-111395905D01*
X140251543Y-111396867D01*
X140259378Y-111413279D01*
X140281165Y-111449513D01*
X140314328Y-111501526D01*
X140356291Y-111565275D01*
X140403943Y-111635940D01*
X140452191Y-111707884D01*
X140494151Y-111772726D01*
X140527227Y-111826265D01*
X140548821Y-111864303D01*
X140556343Y-111882467D01*
X140546457Y-111899192D01*
X140518826Y-111932820D01*
X140476495Y-111979990D01*
X140422505Y-112037342D01*
X140359899Y-112101516D01*
X140338983Y-112122503D01*
X140121623Y-112339501D01*
X139879220Y-112174332D01*
X139804781Y-112124136D01*
X139737972Y-112080081D01*
X139682665Y-112044638D01*
X139642729Y-112020281D01*
X139622036Y-112009478D01*
X139620563Y-112009162D01*
X139601058Y-112014857D01*
X139561822Y-112030174D01*
X139509430Y-112052463D01*
X139474355Y-112068107D01*
X139407201Y-112097359D01*
X139339358Y-112124906D01*
X139282034Y-112146263D01*
X139264572Y-112152065D01*
X139217938Y-112168548D01*
X139181905Y-112184660D01*
X139168287Y-112193510D01*
X139159952Y-112213040D01*
X139148137Y-112255666D01*
X139134181Y-112315855D01*
X139119422Y-112388078D01*
X139113355Y-112420400D01*
X139098273Y-112502478D01*
X139083669Y-112581205D01*
X139070980Y-112648891D01*
X139061642Y-112697840D01*
X139059839Y-112707057D01*
X139044799Y-112783257D01*
X138727492Y-112783257D01*
X138623154Y-112783086D01*
X138544213Y-112782384D01*
X138487038Y-112780866D01*
X138447999Y-112778251D01*
X138423465Y-112774254D01*
X138409805Y-112768591D01*
X138403389Y-112760980D01*
X138402199Y-112757857D01*
X138397980Y-112739022D01*
X138389562Y-112697412D01*
X138377961Y-112638370D01*
X138364195Y-112567243D01*
X138349280Y-112489375D01*
X138334232Y-112410113D01*
X138320069Y-112334802D01*
X138307806Y-112268787D01*
X138298461Y-112217413D01*
X138293050Y-112186025D01*
X138292114Y-112179041D01*
X138279596Y-112172715D01*
X138246246Y-112158710D01*
X138198377Y-112139645D01*
X138179629Y-112132366D01*
X138107195Y-112103004D01*
X138027170Y-112068429D01*
X137959728Y-112037463D01*
X137908159Y-112014677D01*
X137865785Y-111999518D01*
X137839834Y-111994458D01*
X137836356Y-111995264D01*
X137819936Y-112005959D01*
X137783417Y-112030380D01*
X137730687Y-112065905D01*
X137665635Y-112109913D01*
X137592151Y-112159783D01*
X137577645Y-112169644D01*
X137491704Y-112227508D01*
X137426261Y-112270044D01*
X137378304Y-112298946D01*
X137344820Y-112315910D01*
X137322795Y-112322633D01*
X137309217Y-112320810D01*
X137309131Y-112320764D01*
X137291297Y-112306414D01*
X137256817Y-112274677D01*
X137209268Y-112228990D01*
X137152222Y-112172796D01*
X137089255Y-112109532D01*
X137082227Y-112102398D01*
X137005020Y-112022670D01*
X136948330Y-111961143D01*
X136911110Y-111916579D01*
X136892315Y-111887743D01*
X136889889Y-111875042D01*
X136900471Y-111856506D01*
X136924916Y-111818039D01*
X136960612Y-111763614D01*
X137004947Y-111697202D01*
X137055311Y-111622775D01*
X137067160Y-111605399D01*
X137235626Y-111358703D01*
X137185062Y-111247294D01*
X137155595Y-111179543D01*
X137125959Y-111106817D01*
X137102330Y-111044297D01*
X137101358Y-111041543D01*
X137083457Y-110992640D01*
X137068320Y-110954943D01*
X137059210Y-110936575D01*
X137059184Y-110936544D01*
X137042717Y-110930715D01*
X137002219Y-110920808D01*
X136942242Y-110907805D01*
X136867340Y-110892691D01*
X136782064Y-110876448D01*
X136774875Y-110875119D01*
X136687014Y-110858825D01*
X136607260Y-110843867D01*
X136540681Y-110831209D01*
X136492347Y-110821814D01*
X136467325Y-110816646D01*
X136466943Y-110816556D01*
X136456299Y-110813411D01*
X136448262Y-110807296D01*
X136442467Y-110794547D01*
X136438547Y-110771500D01*
X136436135Y-110734491D01*
X136434865Y-110679856D01*
X136434371Y-110603933D01*
X136434286Y-110503056D01*
X136434286Y-110490000D01*
X136434348Y-110386090D01*
D13*
X153701905Y-94686381D02*
X153701905Y-93686381D01*
X154082858Y-93686381D01*
X154178096Y-93734000D01*
X154225715Y-93781619D01*
X154273334Y-93876857D01*
X154273334Y-94019714D01*
X154225715Y-94114952D01*
X154178096Y-94162571D01*
X154082858Y-94210190D01*
X153701905Y-94210190D01*
X155035239Y-94162571D02*
X155178096Y-94210190D01*
X155225715Y-94257810D01*
X155273334Y-94353048D01*
X155273334Y-94495905D01*
X155225715Y-94591143D01*
X155178096Y-94638762D01*
X155082858Y-94686381D01*
X154701905Y-94686381D01*
X154701905Y-93686381D01*
X155035239Y-93686381D01*
X155130477Y-93734000D01*
X155178096Y-93781619D01*
X155225715Y-93876857D01*
X155225715Y-93972095D01*
X155178096Y-94067333D01*
X155130477Y-94114952D01*
X155035239Y-94162571D01*
X154701905Y-94162571D01*
X156225715Y-94686381D02*
X155654286Y-94686381D01*
X155940000Y-94686381D02*
X155940000Y-93686381D01*
X155844762Y-93829238D01*
X155749524Y-93924476D01*
X155654286Y-93972095D01*
X129032096Y-116340000D02*
X128936858Y-116292381D01*
X128794001Y-116292381D01*
X128651143Y-116340000D01*
X128555905Y-116435238D01*
X128508286Y-116530476D01*
X128460667Y-116720952D01*
X128460667Y-116863810D01*
X128508286Y-117054286D01*
X128555905Y-117149524D01*
X128651143Y-117244762D01*
X128794001Y-117292381D01*
X128889239Y-117292381D01*
X129032096Y-117244762D01*
X129079715Y-117197143D01*
X129079715Y-116863810D01*
X128889239Y-116863810D01*
X129508286Y-117292381D02*
X129508286Y-116292381D01*
X130079715Y-117292381D01*
X130079715Y-116292381D01*
X130555905Y-117292381D02*
X130555905Y-116292381D01*
X130794000Y-116292381D01*
X130936858Y-116340000D01*
X131032096Y-116435238D01*
X131079715Y-116530476D01*
X131127334Y-116720952D01*
X131127334Y-116863810D01*
X131079715Y-117054286D01*
X131032096Y-117149524D01*
X130936858Y-117244762D01*
X130794000Y-117292381D01*
X130555905Y-117292381D01*
X125984096Y-116340000D02*
X125888858Y-116292381D01*
X125746001Y-116292381D01*
X125603143Y-116340000D01*
X125507905Y-116435238D01*
X125460286Y-116530476D01*
X125412667Y-116720952D01*
X125412667Y-116863810D01*
X125460286Y-117054286D01*
X125507905Y-117149524D01*
X125603143Y-117244762D01*
X125746001Y-117292381D01*
X125841239Y-117292381D01*
X125984096Y-117244762D01*
X126031715Y-117197143D01*
X126031715Y-116863810D01*
X125841239Y-116863810D01*
X126460286Y-117292381D02*
X126460286Y-116292381D01*
X127031715Y-117292381D01*
X127031715Y-116292381D01*
X127507905Y-117292381D02*
X127507905Y-116292381D01*
X127746000Y-116292381D01*
X127888858Y-116340000D01*
X127984096Y-116435238D01*
X128031715Y-116530476D01*
X128079334Y-116720952D01*
X128079334Y-116863810D01*
X128031715Y-117054286D01*
X127984096Y-117149524D01*
X127888858Y-117244762D01*
X127746000Y-117292381D01*
X127507905Y-117292381D01*
X153955905Y-82240381D02*
X153955905Y-81240381D01*
X154336858Y-81240381D01*
X154432096Y-81288000D01*
X154479715Y-81335619D01*
X154527334Y-81430857D01*
X154527334Y-81573714D01*
X154479715Y-81668952D01*
X154432096Y-81716571D01*
X154336858Y-81764190D01*
X153955905Y-81764190D01*
X155527334Y-82240381D02*
X155194000Y-81764190D01*
X154955905Y-82240381D02*
X154955905Y-81240381D01*
X155336858Y-81240381D01*
X155432096Y-81288000D01*
X155479715Y-81335619D01*
X155527334Y-81430857D01*
X155527334Y-81573714D01*
X155479715Y-81668952D01*
X155432096Y-81716571D01*
X155336858Y-81764190D01*
X154955905Y-81764190D01*
X156479715Y-82240381D02*
X155908286Y-82240381D01*
X156194000Y-82240381D02*
X156194000Y-81240381D01*
X156098762Y-81383238D01*
X156003524Y-81478476D01*
X155908286Y-81526095D01*
X154717809Y-106910190D02*
X154717809Y-107386381D01*
X154384476Y-106386381D02*
X154717809Y-106910190D01*
X155051143Y-106386381D01*
X155908286Y-107386381D02*
X155336857Y-107386381D01*
X155622571Y-107386381D02*
X155622571Y-106386381D01*
X155527333Y-106529238D01*
X155432095Y-106624476D01*
X155336857Y-106672095D01*
X131913334Y-114911143D02*
X131865715Y-114958762D01*
X131722858Y-115006381D01*
X131627620Y-115006381D01*
X131484762Y-114958762D01*
X131389524Y-114863524D01*
X131341905Y-114768286D01*
X131294286Y-114577810D01*
X131294286Y-114434952D01*
X131341905Y-114244476D01*
X131389524Y-114149238D01*
X131484762Y-114054000D01*
X131627620Y-114006381D01*
X131722858Y-114006381D01*
X131865715Y-114054000D01*
X131913334Y-114101619D01*
X132770477Y-114006381D02*
X132580000Y-114006381D01*
X132484762Y-114054000D01*
X132437143Y-114101619D01*
X132341905Y-114244476D01*
X132294286Y-114434952D01*
X132294286Y-114815905D01*
X132341905Y-114911143D01*
X132389524Y-114958762D01*
X132484762Y-115006381D01*
X132675239Y-115006381D01*
X132770477Y-114958762D01*
X132818096Y-114911143D01*
X132865715Y-114815905D01*
X132865715Y-114577810D01*
X132818096Y-114482571D01*
X132770477Y-114434952D01*
X132675239Y-114387333D01*
X132484762Y-114387333D01*
X132389524Y-114434952D01*
X132341905Y-114482571D01*
X132294286Y-114577810D01*
X139747810Y-77986000D02*
X139652572Y-77938381D01*
X139509715Y-77938381D01*
X139366857Y-77986000D01*
X139271619Y-78081238D01*
X139224000Y-78176476D01*
X139176381Y-78366952D01*
X139176381Y-78509810D01*
X139224000Y-78700286D01*
X139271619Y-78795524D01*
X139366857Y-78890762D01*
X139509715Y-78938381D01*
X139604953Y-78938381D01*
X139747810Y-78890762D01*
X139795429Y-78843143D01*
X139795429Y-78509810D01*
X139604953Y-78509810D01*
X140224000Y-78938381D02*
X140224000Y-77938381D01*
X140604953Y-77938381D01*
X140700191Y-77986000D01*
X140747810Y-78033619D01*
X140795429Y-78128857D01*
X140795429Y-78271714D01*
X140747810Y-78366952D01*
X140700191Y-78414571D01*
X140604953Y-78462190D01*
X140224000Y-78462190D01*
X141224000Y-78938381D02*
X141224000Y-77938381D01*
X141890666Y-77938381D02*
X142081143Y-77938381D01*
X142176381Y-77986000D01*
X142271619Y-78081238D01*
X142319238Y-78271714D01*
X142319238Y-78605048D01*
X142271619Y-78795524D01*
X142176381Y-78890762D01*
X142081143Y-78938381D01*
X141890666Y-78938381D01*
X141795428Y-78890762D01*
X141700190Y-78795524D01*
X141652571Y-78605048D01*
X141652571Y-78271714D01*
X141700190Y-78081238D01*
X141795428Y-77986000D01*
X141890666Y-77938381D01*
X143271619Y-78938381D02*
X142700190Y-78938381D01*
X142985904Y-78938381D02*
X142985904Y-77938381D01*
X142890666Y-78081238D01*
X142795428Y-78176476D01*
X142700190Y-78224095D01*
X136191810Y-116086000D02*
X136096572Y-116038381D01*
X135953715Y-116038381D01*
X135810857Y-116086000D01*
X135715619Y-116181238D01*
X135668000Y-116276476D01*
X135620381Y-116466952D01*
X135620381Y-116609810D01*
X135668000Y-116800286D01*
X135715619Y-116895524D01*
X135810857Y-116990762D01*
X135953715Y-117038381D01*
X136048953Y-117038381D01*
X136191810Y-116990762D01*
X136239429Y-116943143D01*
X136239429Y-116609810D01*
X136048953Y-116609810D01*
X136668000Y-117038381D02*
X136668000Y-116038381D01*
X137048953Y-116038381D01*
X137144191Y-116086000D01*
X137191810Y-116133619D01*
X137239429Y-116228857D01*
X137239429Y-116371714D01*
X137191810Y-116466952D01*
X137144191Y-116514571D01*
X137048953Y-116562190D01*
X136668000Y-116562190D01*
X137668000Y-117038381D02*
X137668000Y-116038381D01*
X138334666Y-116038381D02*
X138525143Y-116038381D01*
X138620381Y-116086000D01*
X138715619Y-116181238D01*
X138763238Y-116371714D01*
X138763238Y-116705048D01*
X138715619Y-116895524D01*
X138620381Y-116990762D01*
X138525143Y-117038381D01*
X138334666Y-117038381D01*
X138239428Y-116990762D01*
X138144190Y-116895524D01*
X138096571Y-116705048D01*
X138096571Y-116371714D01*
X138144190Y-116181238D01*
X138239428Y-116086000D01*
X138334666Y-116038381D01*
X139144190Y-116133619D02*
X139191809Y-116086000D01*
X139287047Y-116038381D01*
X139525143Y-116038381D01*
X139620381Y-116086000D01*
X139668000Y-116133619D01*
X139715619Y-116228857D01*
X139715619Y-116324095D01*
X139668000Y-116466952D01*
X139096571Y-117038381D01*
X139715619Y-117038381D01*
X123658381Y-119244857D02*
X124372667Y-119244857D01*
X124515524Y-119292477D01*
X124610762Y-119387715D01*
X124658381Y-119530572D01*
X124658381Y-119625810D01*
X123658381Y-118911524D02*
X123658381Y-118340095D01*
X124658381Y-118625810D02*
X123658381Y-118625810D01*
X124372667Y-118054381D02*
X124372667Y-117578190D01*
X124658381Y-118149619D02*
X123658381Y-117816286D01*
X124658381Y-117482952D01*
X123706000Y-116625809D02*
X123658381Y-116721047D01*
X123658381Y-116863904D01*
X123706000Y-117006762D01*
X123801238Y-117102000D01*
X123896476Y-117149619D01*
X124086952Y-117197238D01*
X124229810Y-117197238D01*
X124420286Y-117149619D01*
X124515524Y-117102000D01*
X124610762Y-117006762D01*
X124658381Y-116863904D01*
X124658381Y-116768666D01*
X124610762Y-116625809D01*
X124563143Y-116578190D01*
X124229810Y-116578190D01*
X124229810Y-116768666D01*
X124658381Y-115625809D02*
X124658381Y-116197238D01*
X124658381Y-115911524D02*
X123658381Y-115911524D01*
X123801238Y-116006762D01*
X123896476Y-116102000D01*
X123944095Y-116197238D01*
X117943334Y-101798381D02*
X117467143Y-101798381D01*
X117467143Y-100798381D01*
X118800477Y-101798381D02*
X118229048Y-101798381D01*
X118514762Y-101798381D02*
X118514762Y-100798381D01*
X118419524Y-100941238D01*
X118324286Y-101036476D01*
X118229048Y-101084095D01*
X130786381Y-105118381D02*
X130976858Y-105118381D01*
X131072096Y-105166000D01*
X131167334Y-105261238D01*
X131214953Y-105451714D01*
X131214953Y-105785048D01*
X131167334Y-105975524D01*
X131072096Y-106070762D01*
X130976858Y-106118381D01*
X130786381Y-106118381D01*
X130691143Y-106070762D01*
X130595905Y-105975524D01*
X130548286Y-105785048D01*
X130548286Y-105451714D01*
X130595905Y-105261238D01*
X130691143Y-105166000D01*
X130786381Y-105118381D01*
X131595905Y-106070762D02*
X131738762Y-106118381D01*
X131976858Y-106118381D01*
X132072096Y-106070762D01*
X132119715Y-106023143D01*
X132167334Y-105927905D01*
X132167334Y-105832667D01*
X132119715Y-105737429D01*
X132072096Y-105689810D01*
X131976858Y-105642190D01*
X131786381Y-105594571D01*
X131691143Y-105546952D01*
X131643524Y-105499333D01*
X131595905Y-105404095D01*
X131595905Y-105308857D01*
X131643524Y-105213619D01*
X131691143Y-105166000D01*
X131786381Y-105118381D01*
X132024477Y-105118381D01*
X132167334Y-105166000D01*
X133167334Y-106023143D02*
X133119715Y-106070762D01*
X132976858Y-106118381D01*
X132881620Y-106118381D01*
X132738762Y-106070762D01*
X132643524Y-105975524D01*
X132595905Y-105880286D01*
X132548286Y-105689810D01*
X132548286Y-105546952D01*
X132595905Y-105356476D01*
X132643524Y-105261238D01*
X132738762Y-105166000D01*
X132881620Y-105118381D01*
X132976858Y-105118381D01*
X133119715Y-105166000D01*
X133167334Y-105213619D01*
X134119715Y-106118381D02*
X133548286Y-106118381D01*
X133834000Y-106118381D02*
X133834000Y-105118381D01*
X133738762Y-105261238D01*
X133643524Y-105356476D01*
X133548286Y-105404095D01*
X126690381Y-107322857D02*
X126214190Y-107656191D01*
X126690381Y-107894286D02*
X125690381Y-107894286D01*
X125690381Y-107513333D01*
X125738000Y-107418095D01*
X125785619Y-107370476D01*
X125880857Y-107322857D01*
X126023714Y-107322857D01*
X126118952Y-107370476D01*
X126166571Y-107418095D01*
X126214190Y-107513333D01*
X126214190Y-107894286D01*
X125785619Y-106941905D02*
X125738000Y-106894286D01*
X125690381Y-106799048D01*
X125690381Y-106560952D01*
X125738000Y-106465714D01*
X125785619Y-106418095D01*
X125880857Y-106370476D01*
X125976095Y-106370476D01*
X126118952Y-106418095D01*
X126690381Y-106989524D01*
X126690381Y-106370476D01*
X125690381Y-105751429D02*
X125690381Y-105656190D01*
X125738000Y-105560952D01*
X125785619Y-105513333D01*
X125880857Y-105465714D01*
X126071333Y-105418095D01*
X126309429Y-105418095D01*
X126499905Y-105465714D01*
X126595143Y-105513333D01*
X126642762Y-105560952D01*
X126690381Y-105656190D01*
X126690381Y-105751429D01*
X126642762Y-105846667D01*
X126595143Y-105894286D01*
X126499905Y-105941905D01*
X126309429Y-105989524D01*
X126071333Y-105989524D01*
X125880857Y-105941905D01*
X125785619Y-105894286D01*
X125738000Y-105846667D01*
X125690381Y-105751429D01*
X127960381Y-107322857D02*
X127484190Y-107656191D01*
X127960381Y-107894286D02*
X126960381Y-107894286D01*
X126960381Y-107513333D01*
X127008000Y-107418095D01*
X127055619Y-107370476D01*
X127150857Y-107322857D01*
X127293714Y-107322857D01*
X127388952Y-107370476D01*
X127436571Y-107418095D01*
X127484190Y-107513333D01*
X127484190Y-107894286D01*
X127055619Y-106941905D02*
X127008000Y-106894286D01*
X126960381Y-106799048D01*
X126960381Y-106560952D01*
X127008000Y-106465714D01*
X127055619Y-106418095D01*
X127150857Y-106370476D01*
X127246095Y-106370476D01*
X127388952Y-106418095D01*
X127960381Y-106989524D01*
X127960381Y-106370476D01*
X127960381Y-105418095D02*
X127960381Y-105989524D01*
X127960381Y-105703810D02*
X126960381Y-105703810D01*
X127103238Y-105799048D01*
X127198476Y-105894286D01*
X127246095Y-105989524D01*
X118132381Y-107322857D02*
X117656190Y-107656191D01*
X118132381Y-107894286D02*
X117132381Y-107894286D01*
X117132381Y-107513333D01*
X117180000Y-107418095D01*
X117227619Y-107370476D01*
X117322857Y-107322857D01*
X117465714Y-107322857D01*
X117560952Y-107370476D01*
X117608571Y-107418095D01*
X117656190Y-107513333D01*
X117656190Y-107894286D01*
X117227619Y-106941905D02*
X117180000Y-106894286D01*
X117132381Y-106799048D01*
X117132381Y-106560952D01*
X117180000Y-106465714D01*
X117227619Y-106418095D01*
X117322857Y-106370476D01*
X117418095Y-106370476D01*
X117560952Y-106418095D01*
X118132381Y-106989524D01*
X118132381Y-106370476D01*
X117227619Y-105989524D02*
X117180000Y-105941905D01*
X117132381Y-105846667D01*
X117132381Y-105608571D01*
X117180000Y-105513333D01*
X117227619Y-105465714D01*
X117322857Y-105418095D01*
X117418095Y-105418095D01*
X117560952Y-105465714D01*
X118132381Y-106037143D01*
X118132381Y-105418095D01*
X126690381Y-112148857D02*
X126214190Y-112482191D01*
X126690381Y-112720286D02*
X125690381Y-112720286D01*
X125690381Y-112339333D01*
X125738000Y-112244095D01*
X125785619Y-112196476D01*
X125880857Y-112148857D01*
X126023714Y-112148857D01*
X126118952Y-112196476D01*
X126166571Y-112244095D01*
X126214190Y-112339333D01*
X126214190Y-112720286D01*
X125785619Y-111767905D02*
X125738000Y-111720286D01*
X125690381Y-111625048D01*
X125690381Y-111386952D01*
X125738000Y-111291714D01*
X125785619Y-111244095D01*
X125880857Y-111196476D01*
X125976095Y-111196476D01*
X126118952Y-111244095D01*
X126690381Y-111815524D01*
X126690381Y-111196476D01*
X125690381Y-110863143D02*
X125690381Y-110244095D01*
X126071333Y-110577429D01*
X126071333Y-110434571D01*
X126118952Y-110339333D01*
X126166571Y-110291714D01*
X126261810Y-110244095D01*
X126499905Y-110244095D01*
X126595143Y-110291714D01*
X126642762Y-110339333D01*
X126690381Y-110434571D01*
X126690381Y-110720286D01*
X126642762Y-110815524D01*
X126595143Y-110863143D01*
X150233143Y-117292381D02*
X149899809Y-116816190D01*
X149661714Y-117292381D02*
X149661714Y-116292381D01*
X150042667Y-116292381D01*
X150137905Y-116340000D01*
X150185524Y-116387619D01*
X150233143Y-116482857D01*
X150233143Y-116625714D01*
X150185524Y-116720952D01*
X150137905Y-116768571D01*
X150042667Y-116816190D01*
X149661714Y-116816190D01*
X150614095Y-116387619D02*
X150661714Y-116340000D01*
X150756952Y-116292381D01*
X150995048Y-116292381D01*
X151090286Y-116340000D01*
X151137905Y-116387619D01*
X151185524Y-116482857D01*
X151185524Y-116578095D01*
X151137905Y-116720952D01*
X150566476Y-117292381D01*
X151185524Y-117292381D01*
X151518857Y-116292381D02*
X152185524Y-116292381D01*
X151756952Y-117292381D01*
X150233143Y-115006381D02*
X149899809Y-114530190D01*
X149661714Y-115006381D02*
X149661714Y-114006381D01*
X150042667Y-114006381D01*
X150137905Y-114054000D01*
X150185524Y-114101619D01*
X150233143Y-114196857D01*
X150233143Y-114339714D01*
X150185524Y-114434952D01*
X150137905Y-114482571D01*
X150042667Y-114530190D01*
X149661714Y-114530190D01*
X150614095Y-114101619D02*
X150661714Y-114054000D01*
X150756952Y-114006381D01*
X150995048Y-114006381D01*
X151090286Y-114054000D01*
X151137905Y-114101619D01*
X151185524Y-114196857D01*
X151185524Y-114292095D01*
X151137905Y-114434952D01*
X150566476Y-115006381D01*
X151185524Y-115006381D01*
X151756952Y-114434952D02*
X151661714Y-114387333D01*
X151614095Y-114339714D01*
X151566476Y-114244476D01*
X151566476Y-114196857D01*
X151614095Y-114101619D01*
X151661714Y-114054000D01*
X151756952Y-114006381D01*
X151947429Y-114006381D01*
X152042667Y-114054000D01*
X152090286Y-114101619D01*
X152137905Y-114196857D01*
X152137905Y-114244476D01*
X152090286Y-114339714D01*
X152042667Y-114387333D01*
X151947429Y-114434952D01*
X151756952Y-114434952D01*
X151661714Y-114482571D01*
X151614095Y-114530190D01*
X151566476Y-114625429D01*
X151566476Y-114815905D01*
X151614095Y-114911143D01*
X151661714Y-114958762D01*
X151756952Y-115006381D01*
X151947429Y-115006381D01*
X152042667Y-114958762D01*
X152090286Y-114911143D01*
X152137905Y-114815905D01*
X152137905Y-114625429D01*
X152090286Y-114530190D01*
X152042667Y-114482571D01*
X151947429Y-114434952D01*
X150233143Y-112720381D02*
X149899809Y-112244190D01*
X149661714Y-112720381D02*
X149661714Y-111720381D01*
X150042667Y-111720381D01*
X150137905Y-111768000D01*
X150185524Y-111815619D01*
X150233143Y-111910857D01*
X150233143Y-112053714D01*
X150185524Y-112148952D01*
X150137905Y-112196571D01*
X150042667Y-112244190D01*
X149661714Y-112244190D01*
X150614095Y-111815619D02*
X150661714Y-111768000D01*
X150756952Y-111720381D01*
X150995048Y-111720381D01*
X151090286Y-111768000D01*
X151137905Y-111815619D01*
X151185524Y-111910857D01*
X151185524Y-112006095D01*
X151137905Y-112148952D01*
X150566476Y-112720381D01*
X151185524Y-112720381D01*
X151661714Y-112720381D02*
X151852190Y-112720381D01*
X151947429Y-112672762D01*
X151995048Y-112625143D01*
X152090286Y-112482286D01*
X152137905Y-112291810D01*
X152137905Y-111910857D01*
X152090286Y-111815619D01*
X152042667Y-111768000D01*
X151947429Y-111720381D01*
X151756952Y-111720381D01*
X151661714Y-111768000D01*
X151614095Y-111815619D01*
X151566476Y-111910857D01*
X151566476Y-112148952D01*
X151614095Y-112244190D01*
X151661714Y-112291810D01*
X151756952Y-112339429D01*
X151947429Y-112339429D01*
X152042667Y-112291810D01*
X152090286Y-112244190D01*
X152137905Y-112148952D01*
X148252381Y-120816666D02*
X148252381Y-121292857D01*
X147252381Y-121292857D01*
X147252381Y-120578571D02*
X147252381Y-119959523D01*
X147633333Y-120292857D01*
X147633333Y-120149999D01*
X147680952Y-120054761D01*
X147728571Y-120007142D01*
X147823810Y-119959523D01*
X148061905Y-119959523D01*
X148157143Y-120007142D01*
X148204762Y-120054761D01*
X148252381Y-120149999D01*
X148252381Y-120435714D01*
X148204762Y-120530952D01*
X148157143Y-120578571D01*
X153606667Y-72852381D02*
X153273333Y-72376190D01*
X153035238Y-72852381D02*
X153035238Y-71852381D01*
X153416191Y-71852381D01*
X153511429Y-71900000D01*
X153559048Y-71947619D01*
X153606667Y-72042857D01*
X153606667Y-72185714D01*
X153559048Y-72280952D01*
X153511429Y-72328571D01*
X153416191Y-72376190D01*
X153035238Y-72376190D01*
X154035238Y-72328571D02*
X154368572Y-72328571D01*
X154511429Y-72852381D02*
X154035238Y-72852381D01*
X154035238Y-71852381D01*
X154511429Y-71852381D01*
X155273334Y-72328571D02*
X154940000Y-72328571D01*
X154940000Y-72852381D02*
X154940000Y-71852381D01*
X155416191Y-71852381D01*
X155940000Y-71852381D02*
X155940000Y-72090476D01*
X155701905Y-71995238D02*
X155940000Y-72090476D01*
X156178096Y-71995238D01*
X155797143Y-72280952D02*
X155940000Y-72090476D01*
X156082858Y-72280952D01*
X156701905Y-71852381D02*
X156701905Y-72090476D01*
X156463810Y-71995238D02*
X156701905Y-72090476D01*
X156940001Y-71995238D01*
X156559048Y-72280952D02*
X156701905Y-72090476D01*
X156844763Y-72280952D01*
X153606667Y-116032381D02*
X153273333Y-115556190D01*
X153035238Y-116032381D02*
X153035238Y-115032381D01*
X153416191Y-115032381D01*
X153511429Y-115080000D01*
X153559048Y-115127619D01*
X153606667Y-115222857D01*
X153606667Y-115365714D01*
X153559048Y-115460952D01*
X153511429Y-115508571D01*
X153416191Y-115556190D01*
X153035238Y-115556190D01*
X154035238Y-115508571D02*
X154368572Y-115508571D01*
X154511429Y-116032381D02*
X154035238Y-116032381D01*
X154035238Y-115032381D01*
X154511429Y-115032381D01*
X155273334Y-115508571D02*
X154940000Y-115508571D01*
X154940000Y-116032381D02*
X154940000Y-115032381D01*
X155416191Y-115032381D01*
X155940000Y-115032381D02*
X155940000Y-115270476D01*
X155701905Y-115175238D02*
X155940000Y-115270476D01*
X156178096Y-115175238D01*
X155797143Y-115460952D02*
X155940000Y-115270476D01*
X156082858Y-115460952D01*
X156701905Y-115032381D02*
X156701905Y-115270476D01*
X156463810Y-115175238D02*
X156701905Y-115270476D01*
X156940001Y-115175238D01*
X156559048Y-115460952D02*
X156701905Y-115270476D01*
X156844763Y-115460952D01*
M02*
