G04 #@! TF.FileFunction,Copper,L2,Bot,Signal*
%FSLAX46Y46*%
G04 Gerber Fmt 4.6, Leading zero omitted, Abs format (unit mm)*
G04 Created by KiCad (PCBNEW 4.0.4-stable) date 11/01/17 12:47:16*
%MOMM*%
%LPD*%
G01*
G04 APERTURE LIST*
%ADD10C,0.100000*%
%ADD11R,1.200000X0.750000*%
%ADD12R,1.700000X1.700000*%
%ADD13O,1.700000X1.700000*%
%ADD14O,0.250000X1.400000*%
%ADD15O,1.400000X0.250000*%
%ADD16R,6.000000X6.000000*%
%ADD17C,4.000000*%
%ADD18C,3.000000*%
%ADD19R,1.500000X1.300000*%
%ADD20R,1.300000X1.500000*%
%ADD21R,1.750000X0.900000*%
%ADD22R,1.550000X0.600000*%
%ADD23C,0.600000*%
%ADD24C,1.000000*%
%ADD25C,0.250000*%
%ADD26C,0.500000*%
%ADD27C,0.750000*%
%ADD28C,1.000000*%
G04 APERTURE END LIST*
D10*
D11*
X157160000Y-78740000D03*
X155260000Y-78740000D03*
D12*
X142240000Y-73660000D03*
D13*
X142240000Y-76200000D03*
X139700000Y-73660000D03*
X139700000Y-76200000D03*
X137160000Y-73660000D03*
X137160000Y-76200000D03*
X134620000Y-73660000D03*
X134620000Y-76200000D03*
X132080000Y-73660000D03*
X132080000Y-76200000D03*
D12*
X124460000Y-121920000D03*
D13*
X124460000Y-119380000D03*
X127000000Y-121920000D03*
X127000000Y-119380000D03*
X129540000Y-121920000D03*
X129540000Y-119380000D03*
X132080000Y-121920000D03*
X132080000Y-119380000D03*
X134620000Y-121920000D03*
X134620000Y-119380000D03*
X137160000Y-121920000D03*
X137160000Y-119380000D03*
X139700000Y-121920000D03*
X139700000Y-119380000D03*
X142240000Y-121920000D03*
X142240000Y-119380000D03*
D14*
X122695000Y-89330000D03*
X123195000Y-89330000D03*
X123695000Y-89330000D03*
X124195000Y-89330000D03*
X124695000Y-89330000D03*
X125195000Y-89330000D03*
X125695000Y-89330000D03*
X126195000Y-89330000D03*
X126695000Y-89330000D03*
X127195000Y-89330000D03*
X127695000Y-89330000D03*
X128195000Y-89330000D03*
X128695000Y-89330000D03*
X129195000Y-89330000D03*
X129695000Y-89330000D03*
X130195000Y-89330000D03*
X130695000Y-89330000D03*
X131195000Y-89330000D03*
X131695000Y-89330000D03*
X132195000Y-89330000D03*
X132695000Y-89330000D03*
X133195000Y-89330000D03*
X133695000Y-89330000D03*
X134195000Y-89330000D03*
X134695000Y-89330000D03*
X135195000Y-89330000D03*
X135695000Y-89330000D03*
X136195000Y-89330000D03*
X136695000Y-89330000D03*
X137195000Y-89330000D03*
X137695000Y-89330000D03*
X138195000Y-89330000D03*
X138695000Y-89330000D03*
X139195000Y-89330000D03*
X139695000Y-89330000D03*
X140195000Y-89330000D03*
D15*
X142445000Y-91580000D03*
X142445000Y-92080000D03*
X142445000Y-92580000D03*
X142445000Y-93080000D03*
X142445000Y-93580000D03*
X142445000Y-94080000D03*
X142445000Y-94580000D03*
X142445000Y-95080000D03*
X142445000Y-95580000D03*
X142445000Y-96080000D03*
X142445000Y-96580000D03*
X142445000Y-97080000D03*
X142445000Y-97580000D03*
X142445000Y-98080000D03*
X142445000Y-98580000D03*
X142445000Y-99080000D03*
X142445000Y-99580000D03*
X142445000Y-100080000D03*
X142445000Y-100580000D03*
X142445000Y-101080000D03*
X142445000Y-101580000D03*
X142445000Y-102080000D03*
X142445000Y-102580000D03*
X142445000Y-103080000D03*
X142445000Y-103580000D03*
X142445000Y-104080000D03*
X142445000Y-104580000D03*
X142445000Y-105080000D03*
X142445000Y-105580000D03*
X142445000Y-106080000D03*
X142445000Y-106580000D03*
X142445000Y-107080000D03*
X142445000Y-107580000D03*
X142445000Y-108080000D03*
X142445000Y-108580000D03*
X142445000Y-109080000D03*
D14*
X140195000Y-111330000D03*
X139695000Y-111330000D03*
X139195000Y-111330000D03*
X138695000Y-111330000D03*
X138195000Y-111330000D03*
X137695000Y-111330000D03*
X137195000Y-111330000D03*
X136695000Y-111330000D03*
X136195000Y-111330000D03*
X135695000Y-111330000D03*
X135195000Y-111330000D03*
X134695000Y-111330000D03*
X134195000Y-111330000D03*
X133695000Y-111330000D03*
X133195000Y-111330000D03*
X132695000Y-111330000D03*
X132195000Y-111330000D03*
X131695000Y-111330000D03*
X131195000Y-111330000D03*
X130695000Y-111330000D03*
X130195000Y-111330000D03*
X129695000Y-111330000D03*
X129195000Y-111330000D03*
X128695000Y-111330000D03*
X128195000Y-111330000D03*
X127695000Y-111330000D03*
X127195000Y-111330000D03*
X126695000Y-111330000D03*
X126195000Y-111330000D03*
X125695000Y-111330000D03*
X125195000Y-111330000D03*
X124695000Y-111330000D03*
X124195000Y-111330000D03*
X123695000Y-111330000D03*
X123195000Y-111330000D03*
X122695000Y-111330000D03*
D15*
X120445000Y-109080000D03*
X120445000Y-108580000D03*
X120445000Y-108080000D03*
X120445000Y-107580000D03*
X120445000Y-107080000D03*
X120445000Y-106580000D03*
X120445000Y-106080000D03*
X120445000Y-105580000D03*
X120445000Y-105080000D03*
X120445000Y-104580000D03*
X120445000Y-104080000D03*
X120445000Y-103580000D03*
X120445000Y-103080000D03*
X120445000Y-102580000D03*
X120445000Y-102080000D03*
X120445000Y-101580000D03*
X120445000Y-101080000D03*
X120445000Y-100580000D03*
X120445000Y-100080000D03*
X120445000Y-99580000D03*
X120445000Y-99080000D03*
X120445000Y-98580000D03*
X120445000Y-98080000D03*
X120445000Y-97580000D03*
X120445000Y-97080000D03*
X120445000Y-96580000D03*
X120445000Y-96080000D03*
X120445000Y-95580000D03*
X120445000Y-95080000D03*
X120445000Y-94580000D03*
X120445000Y-94080000D03*
X120445000Y-93580000D03*
X120445000Y-93080000D03*
X120445000Y-92580000D03*
X120445000Y-92080000D03*
X120445000Y-91580000D03*
D16*
X131445000Y-100330000D03*
D17*
X150965000Y-77190000D03*
X150965000Y-118390000D03*
D18*
X147340000Y-101540000D03*
X154590000Y-101540000D03*
X147340000Y-115540000D03*
X154590000Y-115540000D03*
X147340000Y-87540000D03*
X154590000Y-87540000D03*
D19*
X144700000Y-84455000D03*
X147400000Y-84455000D03*
X144700000Y-81915000D03*
X147400000Y-81915000D03*
X144700000Y-79375000D03*
X147400000Y-79375000D03*
D20*
X118110000Y-106760000D03*
X118110000Y-104060000D03*
X118110000Y-100410000D03*
X118110000Y-97710000D03*
X118110000Y-91360000D03*
X118110000Y-94060000D03*
D19*
X152955000Y-112395000D03*
X155655000Y-112395000D03*
X147875000Y-112395000D03*
X150575000Y-112395000D03*
X152955000Y-109855000D03*
X155655000Y-109855000D03*
X147875000Y-109855000D03*
X150575000Y-109855000D03*
X152955000Y-107315000D03*
X155655000Y-107315000D03*
D20*
X158115000Y-107235000D03*
X158115000Y-109935000D03*
D19*
X147875000Y-107315000D03*
X150575000Y-107315000D03*
X152955000Y-104775000D03*
X155655000Y-104775000D03*
X147875000Y-104775000D03*
X150575000Y-104775000D03*
X126285000Y-82550000D03*
X128985000Y-82550000D03*
X152955000Y-98425000D03*
X155655000Y-98425000D03*
X147875000Y-98425000D03*
X150575000Y-98425000D03*
X120984000Y-86614000D03*
X118284000Y-86614000D03*
X128985000Y-79375000D03*
X126285000Y-79375000D03*
X128985000Y-85725000D03*
X126285000Y-85725000D03*
D20*
X158115000Y-98345000D03*
X158115000Y-101045000D03*
D19*
X152955000Y-95885000D03*
X155655000Y-95885000D03*
X147875000Y-95885000D03*
X150575000Y-95885000D03*
X152955000Y-93345000D03*
X155655000Y-93345000D03*
X147875000Y-93345000D03*
X150575000Y-93345000D03*
X152955000Y-90805000D03*
X155655000Y-90805000D03*
D20*
X158115000Y-90725000D03*
X158115000Y-93425000D03*
D19*
X147875000Y-90805000D03*
X150575000Y-90805000D03*
D12*
X127000000Y-76200000D03*
D13*
X127000000Y-73660000D03*
D21*
X123010000Y-114795000D03*
X125910000Y-114795000D03*
X125910000Y-116345000D03*
X123010000Y-116345000D03*
D12*
X121920000Y-83820000D03*
D13*
X119380000Y-83820000D03*
X121920000Y-81280000D03*
X119380000Y-81280000D03*
X121920000Y-78740000D03*
X119380000Y-78740000D03*
X121920000Y-76200000D03*
X119380000Y-76200000D03*
X121920000Y-73660000D03*
X119380000Y-73660000D03*
D22*
X156370000Y-81280000D03*
X156370000Y-82550000D03*
X156370000Y-83820000D03*
X156370000Y-85090000D03*
X150970000Y-85090000D03*
X150970000Y-83820000D03*
X150970000Y-82550000D03*
X150970000Y-81280000D03*
D12*
X129540000Y-76200000D03*
D13*
X129540000Y-73660000D03*
D23*
X124714000Y-81915000D03*
X141224000Y-92202000D03*
X140716000Y-101600000D03*
X140970000Y-106045000D03*
X135128000Y-109855000D03*
X128651000Y-109855000D03*
X124714000Y-109855000D03*
X121920000Y-108585000D03*
X121920000Y-103886000D03*
X121920000Y-96901000D03*
X121920000Y-92075000D03*
X127508000Y-90805000D03*
X132080000Y-90805000D03*
X137287000Y-90805000D03*
X140970000Y-95504000D03*
D17*
X131445000Y-100330000D03*
D23*
X157480000Y-102616000D03*
X157099000Y-94615000D03*
X158115000Y-111633000D03*
X127508000Y-114808000D03*
D24*
X158242000Y-79756000D03*
X150368000Y-80010000D03*
D23*
X144780000Y-76962000D03*
D24*
X121412000Y-116332000D03*
X118110000Y-88646000D03*
D23*
X140970000Y-102362000D03*
X140970000Y-93980000D03*
X140970000Y-100584000D03*
X140970000Y-104902000D03*
X140195000Y-109334000D03*
X136144000Y-109728000D03*
X130195000Y-109982000D03*
X125730000Y-109728000D03*
X121920000Y-107442000D03*
X121920000Y-106172000D03*
X121920000Y-104902000D03*
X121920000Y-102870000D03*
X121920000Y-97790000D03*
X121920000Y-95580000D03*
X121920000Y-92964000D03*
X128397000Y-90805000D03*
X133223000Y-90805000D03*
X136398000Y-90805000D03*
X140716000Y-88138000D03*
X144272000Y-91567000D03*
X142113000Y-88646000D03*
X124587000Y-93472000D03*
X124587000Y-90932000D03*
X138430000Y-107188000D03*
X140843000Y-108204000D03*
X138430000Y-93218000D03*
X139192000Y-90805000D03*
X124587000Y-107188000D03*
X123444000Y-109728000D03*
X139573000Y-87630000D03*
X158877000Y-88646000D03*
X158877000Y-103378000D03*
X158115000Y-82931000D03*
X158115000Y-95885000D03*
X127254000Y-84328000D03*
X132334000Y-86360000D03*
D24*
X143510000Y-79375000D03*
X143510000Y-81915000D03*
X144018000Y-83566000D03*
D25*
X126285000Y-82550000D02*
X125349000Y-82550000D01*
X125349000Y-82550000D02*
X124714000Y-81915000D01*
X142445000Y-92080000D02*
X141219000Y-92080000D01*
X141219000Y-92080000D02*
X141224000Y-92202000D01*
X142445000Y-101580000D02*
X140736000Y-101580000D01*
X140736000Y-101580000D02*
X140716000Y-101600000D01*
X142445000Y-106080000D02*
X141005000Y-106080000D01*
X141005000Y-106080000D02*
X140970000Y-106045000D01*
X135195000Y-111330000D02*
X135195000Y-109922000D01*
X135195000Y-109922000D02*
X135128000Y-109855000D01*
X128695000Y-111330000D02*
X128695000Y-109899000D01*
X128695000Y-109899000D02*
X128651000Y-109855000D01*
X124695000Y-111330000D02*
X124695000Y-109874000D01*
X124695000Y-109874000D02*
X124714000Y-109855000D01*
X120445000Y-108580000D02*
X121915000Y-108580000D01*
X121915000Y-108580000D02*
X121920000Y-108585000D01*
X120445000Y-104080000D02*
X121726000Y-104080000D01*
X121726000Y-104080000D02*
X121920000Y-103886000D01*
X120445000Y-97080000D02*
X121741000Y-97080000D01*
X121741000Y-97080000D02*
X121920000Y-96901000D01*
X120445000Y-92080000D02*
X121915000Y-92080000D01*
X121915000Y-92080000D02*
X121920000Y-92075000D01*
X127695000Y-89330000D02*
X127695000Y-90618000D01*
X127695000Y-90618000D02*
X127508000Y-90805000D01*
X132195000Y-89330000D02*
X132195000Y-90690000D01*
X132195000Y-90690000D02*
X132080000Y-90805000D01*
X137195000Y-89330000D02*
X137195000Y-90713000D01*
X137195000Y-90713000D02*
X137287000Y-90805000D01*
X142445000Y-95580000D02*
X141046000Y-95580000D01*
X141046000Y-95580000D02*
X140970000Y-95504000D01*
X158115000Y-101045000D02*
X157480000Y-102616000D01*
X158115000Y-93425000D02*
X157099000Y-94615000D01*
X158115000Y-109935000D02*
X158115000Y-111633000D01*
D26*
X125910000Y-114795000D02*
X127495000Y-114795000D01*
X127495000Y-114795000D02*
X127508000Y-114808000D01*
D27*
X150970000Y-85090000D02*
X149790000Y-85090000D01*
X149790000Y-85090000D02*
X147340000Y-87540000D01*
X157160000Y-78740000D02*
X157226000Y-78740000D01*
X157226000Y-78740000D02*
X158242000Y-79756000D01*
D25*
X120445000Y-108580000D02*
X118740000Y-108580000D01*
X118110000Y-107950000D02*
X118110000Y-106760000D01*
X118740000Y-108580000D02*
X118110000Y-107950000D01*
D27*
X152908000Y-80010000D02*
X153924000Y-81026000D01*
X151892000Y-80010000D02*
X152908000Y-80010000D01*
X150368000Y-80010000D02*
X151892000Y-80010000D01*
X144780000Y-76200000D02*
X144780000Y-76962000D01*
X142240000Y-76200000D02*
X144780000Y-76200000D01*
X121412000Y-116332000D02*
X121425000Y-116345000D01*
X121425000Y-116345000D02*
X123010000Y-116345000D01*
X117602000Y-88138000D02*
X118110000Y-88646000D01*
X117602000Y-85852000D02*
X117602000Y-88138000D01*
X123010000Y-114795000D02*
X123010000Y-116345000D01*
X153924000Y-81026000D02*
X153924000Y-79248000D01*
X153924000Y-79248000D02*
X154432000Y-78740000D01*
X154432000Y-78740000D02*
X155260000Y-78740000D01*
X154686000Y-85090000D02*
X156370000Y-85090000D01*
X153924000Y-81026000D02*
X153924000Y-84328000D01*
X153924000Y-84328000D02*
X154686000Y-85090000D01*
D25*
X118284000Y-86614000D02*
X118284000Y-85678000D01*
X118618000Y-85344000D02*
X125904000Y-85344000D01*
X118284000Y-85678000D02*
X118618000Y-85344000D01*
X125904000Y-85344000D02*
X126285000Y-85725000D01*
X120650000Y-72136000D02*
X120650000Y-74676000D01*
X123444000Y-76708000D02*
X126111000Y-79375000D01*
X123444000Y-75438000D02*
X123444000Y-76708000D01*
X122936000Y-74930000D02*
X123444000Y-75438000D01*
X120904000Y-74930000D02*
X122936000Y-74930000D01*
X120650000Y-74676000D02*
X120904000Y-74930000D01*
X126111000Y-79375000D02*
X126285000Y-79375000D01*
D27*
X117602000Y-79502000D02*
X117602000Y-85852000D01*
X117602000Y-85852000D02*
X117602000Y-85932000D01*
X117602000Y-85932000D02*
X118284000Y-86614000D01*
X117602000Y-79502000D02*
X119380000Y-81280000D01*
X117602000Y-72644000D02*
X117602000Y-79502000D01*
X144780000Y-76200000D02*
X144780000Y-73660000D01*
X144780000Y-73660000D02*
X144780000Y-72898000D01*
X144780000Y-72898000D02*
X144018000Y-72136000D01*
X133604000Y-72136000D02*
X120650000Y-72136000D01*
X144018000Y-72136000D02*
X133604000Y-72136000D01*
D25*
X142240000Y-76962000D02*
X142240000Y-76200000D01*
D27*
X118110000Y-72136000D02*
X117602000Y-72644000D01*
X120650000Y-72136000D02*
X118110000Y-72136000D01*
D25*
X141252000Y-102080000D02*
X140970000Y-102362000D01*
X140970000Y-102362000D02*
X139700000Y-102362000D01*
X142445000Y-102080000D02*
X141252000Y-102080000D01*
X141478000Y-94580000D02*
X141478000Y-94488000D01*
X141478000Y-94488000D02*
X140970000Y-93980000D01*
X141097000Y-100838000D02*
X141097000Y-100711000D01*
X141097000Y-100711000D02*
X140970000Y-100584000D01*
X140970000Y-105080000D02*
X140970000Y-104902000D01*
X135890000Y-109982000D02*
X136144000Y-109728000D01*
X125695000Y-110236000D02*
X125695000Y-109763000D01*
X125695000Y-109763000D02*
X125730000Y-109728000D01*
X121793000Y-107442000D02*
X121920000Y-107442000D01*
X121793000Y-107823000D02*
X121793000Y-107442000D01*
X121793000Y-107442000D02*
X121793000Y-107080000D01*
X121666000Y-107188000D02*
X121666000Y-107080000D01*
X121685000Y-107188000D02*
X121666000Y-107188000D01*
X121793000Y-107080000D02*
X121685000Y-107188000D01*
X121666000Y-106080000D02*
X121828000Y-106080000D01*
X121828000Y-106080000D02*
X121920000Y-106172000D01*
X121666000Y-104580000D02*
X121666000Y-104648000D01*
X121666000Y-104648000D02*
X121920000Y-104902000D01*
X121920000Y-103080000D02*
X121920000Y-102870000D01*
X121666000Y-97580000D02*
X121710000Y-97580000D01*
X121710000Y-97580000D02*
X121920000Y-97790000D01*
X121666000Y-92710000D02*
X121920000Y-92964000D01*
X128195000Y-90603000D02*
X128195000Y-90372000D01*
X128397000Y-90805000D02*
X128195000Y-90603000D01*
X133195000Y-90777000D02*
X133195000Y-89330000D01*
X133223000Y-90805000D02*
X133195000Y-90777000D01*
X136398000Y-90805000D02*
X136695000Y-90508000D01*
X140195000Y-89330000D02*
X140195000Y-88659000D01*
X140195000Y-88659000D02*
X140716000Y-88138000D01*
X142445000Y-91580000D02*
X144259000Y-91580000D01*
X144259000Y-91580000D02*
X144272000Y-91567000D01*
D28*
X142113000Y-89789000D02*
X142113000Y-88646000D01*
X139700000Y-92075000D02*
X139827000Y-92075000D01*
X139827000Y-92075000D02*
X142113000Y-89789000D01*
X135255000Y-92075000D02*
X136525000Y-92075000D01*
D25*
X140195000Y-89330000D02*
X140195000Y-91580000D01*
X140195000Y-91580000D02*
X139700000Y-92075000D01*
X142445000Y-91580000D02*
X141491000Y-91580000D01*
X140335000Y-91440000D02*
X139700000Y-92075000D01*
X141351000Y-91440000D02*
X140335000Y-91440000D01*
X141491000Y-91580000D02*
X141351000Y-91440000D01*
X142445000Y-94580000D02*
X141478000Y-94580000D01*
X141478000Y-94580000D02*
X139700000Y-94580000D01*
X139700000Y-94580000D02*
X139700000Y-94615000D01*
X142445000Y-101080000D02*
X141339000Y-101080000D01*
X141097000Y-100838000D02*
X139700000Y-100838000D01*
X141339000Y-101080000D02*
X141097000Y-100838000D01*
X142445000Y-105080000D02*
X140970000Y-105080000D01*
X140970000Y-105080000D02*
X139700000Y-105080000D01*
X139827000Y-105029000D02*
X139700000Y-105029000D01*
X139751000Y-105029000D02*
X139827000Y-105029000D01*
X139700000Y-105080000D02*
X139751000Y-105029000D01*
X142445000Y-109080000D02*
X140195000Y-109080000D01*
X140195000Y-109080000D02*
X139700000Y-108585000D01*
X140195000Y-111330000D02*
X140195000Y-109334000D01*
X140195000Y-109334000D02*
X139446000Y-108585000D01*
X135695000Y-111330000D02*
X135695000Y-110177000D01*
X135890000Y-109982000D02*
X135890000Y-108585000D01*
X135695000Y-110177000D02*
X135890000Y-109982000D01*
X130195000Y-111330000D02*
X130195000Y-109982000D01*
X130195000Y-109982000D02*
X130195000Y-108585000D01*
X130195000Y-108585000D02*
X130175000Y-108585000D01*
X125695000Y-111330000D02*
X125695000Y-110236000D01*
X125695000Y-110236000D02*
X125695000Y-108585000D01*
X125695000Y-108585000D02*
X125730000Y-108585000D01*
X122695000Y-111330000D02*
X122695000Y-109080000D01*
X122695000Y-109080000D02*
X123190000Y-108585000D01*
X120445000Y-109080000D02*
X121526000Y-109080000D01*
X122555000Y-109220000D02*
X123190000Y-108585000D01*
X121666000Y-109220000D02*
X122555000Y-109220000D01*
X121526000Y-109080000D02*
X121666000Y-109220000D01*
X120445000Y-108080000D02*
X121536000Y-108080000D01*
X121793000Y-107823000D02*
X123190000Y-107823000D01*
X121536000Y-108080000D02*
X121793000Y-107823000D01*
X120445000Y-107080000D02*
X121666000Y-107080000D01*
X121666000Y-107080000D02*
X123190000Y-107080000D01*
X123190000Y-107080000D02*
X123190000Y-107061000D01*
X120445000Y-106080000D02*
X121666000Y-106080000D01*
X121666000Y-106080000D02*
X123190000Y-106080000D01*
X123190000Y-106080000D02*
X123190000Y-106045000D01*
X120445000Y-104580000D02*
X121666000Y-104580000D01*
X121666000Y-104580000D02*
X123190000Y-104580000D01*
X123190000Y-104580000D02*
X123190000Y-104521000D01*
X120445000Y-103080000D02*
X121920000Y-103080000D01*
X121920000Y-103080000D02*
X123190000Y-103080000D01*
X123190000Y-103080000D02*
X123190000Y-103124000D01*
X120445000Y-102580000D02*
X123190000Y-102580000D01*
X123190000Y-102580000D02*
X123190000Y-102616000D01*
X120445000Y-97580000D02*
X121666000Y-97580000D01*
X121666000Y-97580000D02*
X123190000Y-97580000D01*
X123190000Y-97580000D02*
X123190000Y-97536000D01*
X120445000Y-95580000D02*
X121920000Y-95580000D01*
X121920000Y-95580000D02*
X123190000Y-95580000D01*
X123190000Y-95580000D02*
X123190000Y-95631000D01*
X120445000Y-92580000D02*
X121536000Y-92580000D01*
X121666000Y-92710000D02*
X123190000Y-92710000D01*
X121536000Y-92580000D02*
X121666000Y-92710000D01*
X120445000Y-91580000D02*
X121526000Y-91580000D01*
X122695000Y-91580000D02*
X123190000Y-92075000D01*
X122428000Y-91313000D02*
X122695000Y-91580000D01*
X121793000Y-91313000D02*
X122428000Y-91313000D01*
X121526000Y-91580000D02*
X121793000Y-91313000D01*
X120445000Y-91580000D02*
X118330000Y-91580000D01*
X118330000Y-91580000D02*
X118110000Y-91360000D01*
X122695000Y-89330000D02*
X122695000Y-91326000D01*
X122695000Y-91326000D02*
X123444000Y-92075000D01*
X128195000Y-89330000D02*
X128195000Y-90297000D01*
X128195000Y-90297000D02*
X128195000Y-92075000D01*
X128195000Y-92075000D02*
X128143000Y-92075000D01*
X133195000Y-89330000D02*
X133195000Y-92075000D01*
X133195000Y-92075000D02*
X133223000Y-92075000D01*
X136695000Y-89330000D02*
X136695000Y-90508000D01*
X136695000Y-90508000D02*
X136525000Y-90678000D01*
X136525000Y-90678000D02*
X136525000Y-92075000D01*
D28*
X136525000Y-92075000D02*
X139700000Y-92075000D01*
X123190000Y-108585000D02*
X123190000Y-107823000D01*
X123190000Y-107823000D02*
X123190000Y-107061000D01*
X123190000Y-107061000D02*
X123190000Y-106045000D01*
X123190000Y-106045000D02*
X123190000Y-104521000D01*
X123190000Y-104521000D02*
X123190000Y-103124000D01*
X123190000Y-103124000D02*
X123190000Y-102616000D01*
X139700000Y-108585000D02*
X139446000Y-108585000D01*
X139446000Y-108585000D02*
X135890000Y-108585000D01*
X135890000Y-108585000D02*
X130175000Y-108585000D01*
X130175000Y-108585000D02*
X125730000Y-108585000D01*
X125730000Y-108585000D02*
X123190000Y-108585000D01*
X139700000Y-92075000D02*
X139700000Y-94615000D01*
X139700000Y-94615000D02*
X139700000Y-100838000D01*
X139700000Y-100838000D02*
X139700000Y-102362000D01*
X139700000Y-102362000D02*
X139700000Y-105029000D01*
X139700000Y-105029000D02*
X139700000Y-108585000D01*
X123190000Y-102616000D02*
X123190000Y-97536000D01*
X123190000Y-97536000D02*
X123190000Y-95631000D01*
X123190000Y-95631000D02*
X123190000Y-92710000D01*
X123190000Y-92710000D02*
X123190000Y-92075000D01*
X123190000Y-92075000D02*
X123444000Y-92075000D01*
X123444000Y-92075000D02*
X128143000Y-92075000D01*
X128143000Y-92075000D02*
X133223000Y-92075000D01*
X133223000Y-92075000D02*
X135255000Y-92075000D01*
X135255000Y-92075000D02*
X133985000Y-92075000D01*
D25*
X118110000Y-100410000D02*
X118110000Y-102108000D01*
X118582000Y-102580000D02*
X120445000Y-102580000D01*
X118110000Y-102108000D02*
X118582000Y-102580000D01*
X123195000Y-89330000D02*
X123195000Y-90556000D01*
X123444000Y-90805000D02*
X123195000Y-90556000D01*
X124460000Y-90805000D02*
X123444000Y-90805000D01*
X124587000Y-90932000D02*
X124460000Y-90805000D01*
D28*
X124587000Y-107188000D02*
X124587000Y-93472000D01*
X125095000Y-93980000D02*
X138430000Y-93980000D01*
X124587000Y-93472000D02*
X125095000Y-93980000D01*
D25*
X142445000Y-108580000D02*
X141219000Y-108580000D01*
X141219000Y-108580000D02*
X140843000Y-108204000D01*
X123195000Y-111330000D02*
X123195000Y-109977000D01*
D27*
X139446000Y-90551000D02*
X139192000Y-90805000D01*
X139446000Y-90551000D02*
X139446000Y-89281000D01*
X138430000Y-93218000D02*
X138430000Y-93980000D01*
X138430000Y-93980000D02*
X138430000Y-107188000D01*
X138430000Y-107188000D02*
X138430000Y-107315000D01*
X138430000Y-107315000D02*
X138303000Y-107188000D01*
X138303000Y-107188000D02*
X124587000Y-107188000D01*
D25*
X123195000Y-109977000D02*
X123444000Y-109728000D01*
X139695000Y-89330000D02*
X139446000Y-89330000D01*
X139195000Y-89330000D02*
X139446000Y-89330000D01*
X139446000Y-89330000D02*
X139446000Y-89281000D01*
D27*
X139573000Y-88011000D02*
X139446000Y-88138000D01*
X139446000Y-88138000D02*
X139446000Y-89281000D01*
X139573000Y-87630000D02*
X139573000Y-88011000D01*
D25*
X152955000Y-93345000D02*
X152527000Y-93345000D01*
X152527000Y-93345000D02*
X151257000Y-94615000D01*
X151257000Y-94615000D02*
X145288000Y-94615000D01*
X145288000Y-94615000D02*
X144753000Y-94080000D01*
X144753000Y-94080000D02*
X142445000Y-94080000D01*
X147875000Y-95885000D02*
X145669000Y-95885000D01*
X144864000Y-95080000D02*
X142445000Y-95080000D01*
X145669000Y-95885000D02*
X144864000Y-95080000D01*
X152955000Y-95885000D02*
X152654000Y-95885000D01*
X152654000Y-95885000D02*
X151384000Y-97155000D01*
X151384000Y-97155000D02*
X145923000Y-97155000D01*
X145923000Y-97155000D02*
X144848000Y-96080000D01*
X144848000Y-96080000D02*
X142445000Y-96080000D01*
X128695000Y-89330000D02*
X128695000Y-87459000D01*
X128358000Y-87122000D02*
X121492000Y-87122000D01*
X128695000Y-87459000D02*
X128358000Y-87122000D01*
X121492000Y-87122000D02*
X120984000Y-86614000D01*
X142445000Y-103580000D02*
X146760000Y-103580000D01*
X146760000Y-103580000D02*
X147875000Y-104695000D01*
X147875000Y-104695000D02*
X147875000Y-104775000D01*
X158115000Y-107235000D02*
X158115000Y-104140000D01*
X157988000Y-81280000D02*
X156370000Y-81280000D01*
X158877000Y-82169000D02*
X157988000Y-81280000D01*
X158877000Y-88646000D02*
X158877000Y-82169000D01*
X158115000Y-104140000D02*
X158877000Y-103378000D01*
X155655000Y-111125000D02*
X153416000Y-111125000D01*
X152146000Y-111125000D02*
X150876000Y-112395000D01*
X152146000Y-111125000D02*
X153416000Y-111125000D01*
X155655000Y-108585000D02*
X153416000Y-108585000D01*
X152146000Y-108585000D02*
X153416000Y-108585000D01*
X152146000Y-108585000D02*
X150876000Y-109855000D01*
X155655000Y-108585000D02*
X155575000Y-108585000D01*
X155575000Y-108585000D02*
X155655000Y-108585000D01*
X155655000Y-112395000D02*
X155655000Y-111125000D01*
X155655000Y-111125000D02*
X155655000Y-109855000D01*
X155655000Y-109855000D02*
X155655000Y-108585000D01*
X155655000Y-108585000D02*
X155655000Y-107315000D01*
X155655000Y-107315000D02*
X155735000Y-107235000D01*
X155735000Y-107235000D02*
X158115000Y-107235000D01*
X150575000Y-109855000D02*
X150876000Y-109855000D01*
X150575000Y-112395000D02*
X151003000Y-112395000D01*
X158115000Y-98345000D02*
X158115000Y-95885000D01*
X157734000Y-82550000D02*
X156370000Y-82550000D01*
X158115000Y-82931000D02*
X157734000Y-82550000D01*
X155655000Y-98425000D02*
X158035000Y-98425000D01*
X158035000Y-98425000D02*
X158115000Y-98345000D01*
X155655000Y-97155000D02*
X155194000Y-97155000D01*
X152273000Y-97155000D02*
X155194000Y-97155000D01*
X152273000Y-97155000D02*
X151003000Y-98425000D01*
X155655000Y-97155000D02*
X155575000Y-97155000D01*
X155575000Y-97155000D02*
X155655000Y-97155000D01*
X155655000Y-95885000D02*
X155655000Y-97155000D01*
X155655000Y-97155000D02*
X155655000Y-98425000D01*
X152273000Y-106045000D02*
X155448000Y-106045000D01*
X151003000Y-107315000D02*
X152273000Y-106045000D01*
X155655000Y-105838000D02*
X155655000Y-104775000D01*
X155448000Y-106045000D02*
X155655000Y-105838000D01*
X154813000Y-103505000D02*
X155608000Y-103505000D01*
X152273000Y-103505000D02*
X154813000Y-103505000D01*
X151003000Y-104775000D02*
X152273000Y-103505000D01*
X155608000Y-103505000D02*
X155655000Y-103552000D01*
X155655000Y-104775000D02*
X155655000Y-103552000D01*
X156718000Y-99488000D02*
X155655000Y-98425000D01*
X155655000Y-103552000D02*
X156718000Y-102489000D01*
X156718000Y-102489000D02*
X156718000Y-99488000D01*
X150575000Y-104775000D02*
X151003000Y-104775000D01*
X150575000Y-98425000D02*
X151003000Y-98425000D01*
X150575000Y-107315000D02*
X151003000Y-107315000D01*
X158115000Y-90725000D02*
X158115000Y-84201000D01*
X157734000Y-83820000D02*
X156370000Y-83820000D01*
X158115000Y-84201000D02*
X157734000Y-83820000D01*
X155655000Y-90805000D02*
X155655000Y-89615000D01*
X152273000Y-89535000D02*
X155575000Y-89535000D01*
X152273000Y-89535000D02*
X151003000Y-90805000D01*
X155655000Y-89615000D02*
X155575000Y-89535000D01*
X155655000Y-90805000D02*
X158035000Y-90805000D01*
X158035000Y-90805000D02*
X158115000Y-90725000D01*
X150575000Y-90805000D02*
X151003000Y-90805000D01*
X155655000Y-92075000D02*
X155321000Y-92075000D01*
X152273000Y-92075000D02*
X155321000Y-92075000D01*
X152273000Y-92075000D02*
X151003000Y-93345000D01*
X155655000Y-92075000D02*
X155702000Y-92075000D01*
X155702000Y-92075000D02*
X155655000Y-92075000D01*
X155655000Y-93345000D02*
X155655000Y-92075000D01*
X155655000Y-92075000D02*
X155655000Y-90805000D01*
X150575000Y-93345000D02*
X151003000Y-93345000D01*
X150575000Y-95885000D02*
X151003000Y-95885000D01*
X151003000Y-95885000D02*
X152273000Y-94615000D01*
X152273000Y-94615000D02*
X155067000Y-94615000D01*
X155067000Y-94615000D02*
X155655000Y-94027000D01*
X155655000Y-94027000D02*
X155655000Y-93345000D01*
D27*
X147400000Y-84455000D02*
X148717000Y-84455000D01*
X149352000Y-83820000D02*
X150970000Y-83820000D01*
X148717000Y-84455000D02*
X149352000Y-83820000D01*
X147400000Y-81915000D02*
X148209000Y-81915000D01*
X148844000Y-82550000D02*
X150970000Y-82550000D01*
X148209000Y-81915000D02*
X148844000Y-82550000D01*
X147400000Y-79375000D02*
X147955000Y-79375000D01*
X147955000Y-79375000D02*
X149860000Y-81280000D01*
X149860000Y-81280000D02*
X150970000Y-81280000D01*
D25*
X132195000Y-111330000D02*
X132195000Y-112661000D01*
X125730000Y-120142000D02*
X127000000Y-121412000D01*
X125730000Y-118618000D02*
X125730000Y-120142000D01*
X126492000Y-117856000D02*
X125730000Y-118618000D01*
X127000000Y-117856000D02*
X126492000Y-117856000D01*
X132195000Y-112661000D02*
X127000000Y-117856000D01*
X127000000Y-121412000D02*
X127000000Y-121920000D01*
X132695000Y-111330000D02*
X132695000Y-113177000D01*
X132695000Y-113177000D02*
X127000000Y-118872000D01*
X127000000Y-118872000D02*
X127000000Y-119380000D01*
X133195000Y-111330000D02*
X133195000Y-113693000D01*
X128270000Y-120650000D02*
X129540000Y-121920000D01*
X128270000Y-118618000D02*
X128270000Y-120650000D01*
X133195000Y-113693000D02*
X128270000Y-118618000D01*
X133695000Y-111330000D02*
X133695000Y-114209000D01*
X129540000Y-118364000D02*
X129540000Y-119380000D01*
X133695000Y-114209000D02*
X129540000Y-118364000D01*
X134195000Y-111330000D02*
X134195000Y-114725000D01*
X130810000Y-120650000D02*
X132080000Y-121920000D01*
X130810000Y-118110000D02*
X130810000Y-120650000D01*
X134195000Y-114725000D02*
X130810000Y-118110000D01*
X134695000Y-111330000D02*
X134695000Y-115241000D01*
X132080000Y-117856000D02*
X132080000Y-119380000D01*
X134695000Y-115241000D02*
X132080000Y-117856000D01*
X136195000Y-111330000D02*
X136195000Y-114757000D01*
X133350000Y-120650000D02*
X134620000Y-121920000D01*
X133350000Y-117602000D02*
X133350000Y-120650000D01*
X136195000Y-114757000D02*
X133350000Y-117602000D01*
X136695000Y-111330000D02*
X136695000Y-115527000D01*
X134620000Y-117602000D02*
X134620000Y-119380000D01*
X136695000Y-115527000D02*
X134620000Y-117602000D01*
X137195000Y-111330000D02*
X137195000Y-116043000D01*
X135890000Y-120650000D02*
X137160000Y-121920000D01*
X135890000Y-117348000D02*
X135890000Y-120650000D01*
X137195000Y-116043000D02*
X135890000Y-117348000D01*
X137695000Y-111330000D02*
X137695000Y-116559000D01*
X137160000Y-117094000D02*
X137160000Y-119380000D01*
X137695000Y-116559000D02*
X137160000Y-117094000D01*
X138195000Y-111330000D02*
X138195000Y-116732000D01*
X138430000Y-120650000D02*
X139700000Y-121920000D01*
X138430000Y-116967000D02*
X138430000Y-120650000D01*
X138195000Y-116732000D02*
X138430000Y-116967000D01*
X138695000Y-111330000D02*
X138695000Y-115835000D01*
X139700000Y-116840000D02*
X139700000Y-119380000D01*
X138695000Y-115835000D02*
X139700000Y-116840000D01*
X139195000Y-111330000D02*
X139195000Y-115065000D01*
X140970000Y-120650000D02*
X142240000Y-121920000D01*
X140970000Y-116840000D02*
X140970000Y-120650000D01*
X139195000Y-115065000D02*
X140970000Y-116840000D01*
X139695000Y-111330000D02*
X139695000Y-114295000D01*
X142240000Y-116840000D02*
X142240000Y-119380000D01*
X139695000Y-114295000D02*
X142240000Y-116840000D01*
X128985000Y-82550000D02*
X128985000Y-81233000D01*
X120650000Y-82804000D02*
X121666000Y-83820000D01*
X120650000Y-82296000D02*
X120650000Y-82804000D01*
X120650000Y-77978000D02*
X120650000Y-82296000D01*
X121158000Y-77470000D02*
X120650000Y-77978000D01*
X123190000Y-77470000D02*
X121158000Y-77470000D01*
X123444000Y-77724000D02*
X123190000Y-77470000D01*
X123444000Y-79248000D02*
X123444000Y-77724000D01*
X125222000Y-81026000D02*
X123444000Y-79248000D01*
X128778000Y-81026000D02*
X125222000Y-81026000D01*
X128985000Y-81233000D02*
X128778000Y-81026000D01*
X121666000Y-83820000D02*
X121920000Y-83820000D01*
X130195000Y-89330000D02*
X130195000Y-87229000D01*
X130810000Y-84375000D02*
X128985000Y-82550000D01*
X130810000Y-86614000D02*
X130810000Y-84375000D01*
X130195000Y-87229000D02*
X130810000Y-86614000D01*
X121920000Y-81280000D02*
X121920000Y-81534000D01*
X121920000Y-81534000D02*
X124714000Y-84328000D01*
X124714000Y-84328000D02*
X127254000Y-84328000D01*
X132334000Y-86360000D02*
X132334000Y-86868000D01*
X132334000Y-86868000D02*
X131195000Y-88007000D01*
X131195000Y-88007000D02*
X131195000Y-89330000D01*
X127508000Y-83566000D02*
X128016000Y-84074000D01*
X127508000Y-83566000D02*
X124968000Y-83566000D01*
X124968000Y-83566000D02*
X123444000Y-82042000D01*
X123444000Y-82042000D02*
X123444000Y-80264000D01*
X121920000Y-78740000D02*
X123444000Y-80264000D01*
X129540000Y-84582000D02*
X129540000Y-85170000D01*
X129032000Y-84074000D02*
X129540000Y-84582000D01*
X128016000Y-84074000D02*
X129032000Y-84074000D01*
X129540000Y-85170000D02*
X128985000Y-85725000D01*
X128985000Y-85725000D02*
X128985000Y-85043000D01*
X128985000Y-85725000D02*
X128985000Y-86059000D01*
X128985000Y-86059000D02*
X129695000Y-86769000D01*
X129695000Y-86769000D02*
X129695000Y-89330000D01*
X124079000Y-75819000D02*
X124079000Y-74295000D01*
X128985000Y-78185000D02*
X128778000Y-77978000D01*
X128778000Y-77978000D02*
X125730000Y-77978000D01*
X125730000Y-77978000D02*
X124079000Y-76327000D01*
X124079000Y-76327000D02*
X124079000Y-75819000D01*
X128985000Y-79375000D02*
X128985000Y-78185000D01*
X123444000Y-73660000D02*
X121920000Y-73660000D01*
X124079000Y-74295000D02*
X123444000Y-73660000D01*
X130695000Y-89330000D02*
X130695000Y-87491000D01*
X131572000Y-81962000D02*
X128985000Y-79375000D01*
X131572000Y-86614000D02*
X131572000Y-81962000D01*
X130695000Y-87491000D02*
X131572000Y-86614000D01*
X125910000Y-116345000D02*
X127495000Y-116345000D01*
X131195000Y-112645000D02*
X131195000Y-111330000D01*
X127495000Y-116345000D02*
X131195000Y-112645000D01*
X147875000Y-90805000D02*
X146812000Y-90805000D01*
X145037000Y-92580000D02*
X142445000Y-92580000D01*
X146812000Y-90805000D02*
X145037000Y-92580000D01*
X152955000Y-90805000D02*
X152654000Y-90805000D01*
X152654000Y-90805000D02*
X151384000Y-92075000D01*
X151384000Y-92075000D02*
X146431000Y-92075000D01*
X146431000Y-92075000D02*
X145426000Y-93080000D01*
X145426000Y-93080000D02*
X142445000Y-93080000D01*
X147875000Y-93345000D02*
X146304000Y-93345000D01*
X146069000Y-93580000D02*
X142445000Y-93580000D01*
X146304000Y-93345000D02*
X146069000Y-93580000D01*
X142445000Y-96580000D02*
X144332000Y-96580000D01*
X146177000Y-98425000D02*
X147875000Y-98425000D01*
X144332000Y-96580000D02*
X146177000Y-98425000D01*
X142445000Y-97080000D02*
X143943000Y-97080000D01*
X151685000Y-99695000D02*
X152955000Y-98425000D01*
X146558000Y-99695000D02*
X151685000Y-99695000D01*
X143943000Y-97080000D02*
X146558000Y-99695000D01*
X142445000Y-104080000D02*
X145228000Y-104080000D01*
X151384000Y-106045000D02*
X152654000Y-104775000D01*
X147193000Y-106045000D02*
X151384000Y-106045000D01*
X146685000Y-105537000D02*
X147193000Y-106045000D01*
X146685000Y-105537000D02*
X146685000Y-105537000D01*
X145228000Y-104080000D02*
X146685000Y-105537000D01*
X152955000Y-104775000D02*
X152654000Y-104775000D01*
X147875000Y-107315000D02*
X147701000Y-107315000D01*
X147701000Y-107315000D02*
X146234998Y-105848998D01*
X146234998Y-105848998D02*
X146234998Y-105848998D01*
X146234998Y-105848998D02*
X144966000Y-104580000D01*
X144966000Y-104580000D02*
X142445000Y-104580000D01*
X148590000Y-108585000D02*
X147193000Y-108585000D01*
X151384000Y-108585000D02*
X148590000Y-108585000D01*
X152654000Y-107315000D02*
X151384000Y-108585000D01*
X145204000Y-105580000D02*
X142445000Y-105580000D01*
X146747801Y-107123801D02*
X145204000Y-105580000D01*
X146747801Y-108139801D02*
X146747801Y-107123801D01*
X147193000Y-108585000D02*
X146747801Y-108139801D01*
X152955000Y-107315000D02*
X152654000Y-107315000D01*
X147875000Y-109855000D02*
X147574000Y-109855000D01*
X147574000Y-109855000D02*
X146177000Y-108458000D01*
X146177000Y-108458000D02*
X146177000Y-107442000D01*
X146177000Y-107442000D02*
X145315000Y-106580000D01*
X145315000Y-106580000D02*
X142445000Y-106580000D01*
X149606000Y-111125000D02*
X146939000Y-111125000D01*
X151384000Y-111125000D02*
X149606000Y-111125000D01*
X152654000Y-109855000D02*
X151384000Y-111125000D01*
X144926000Y-107080000D02*
X142445000Y-107080000D01*
X145669000Y-107823000D02*
X144926000Y-107080000D01*
X145669000Y-108712000D02*
X145669000Y-107823000D01*
X146558000Y-109601000D02*
X145669000Y-108712000D01*
X146558000Y-110744000D02*
X146558000Y-109601000D01*
X146939000Y-111125000D02*
X146558000Y-110744000D01*
X152955000Y-109855000D02*
X152654000Y-109855000D01*
X147875000Y-112395000D02*
X147447000Y-112395000D01*
X147447000Y-112395000D02*
X146050000Y-110998000D01*
X146050000Y-110998000D02*
X146050000Y-109982000D01*
X146050000Y-109982000D02*
X145034000Y-108966000D01*
X145034000Y-108966000D02*
X145034000Y-108077000D01*
X145034000Y-108077000D02*
X144537000Y-107580000D01*
X144537000Y-107580000D02*
X142445000Y-107580000D01*
X142445000Y-108080000D02*
X144148000Y-108080000D01*
X151685000Y-113665000D02*
X152955000Y-112395000D01*
X146685000Y-113665000D02*
X151685000Y-113665000D01*
X146431000Y-113411000D02*
X146685000Y-113665000D01*
X146431000Y-112395000D02*
X146431000Y-113411000D01*
X144526000Y-110490000D02*
X146431000Y-112395000D01*
X144526000Y-108458000D02*
X144526000Y-110490000D01*
X144148000Y-108080000D02*
X144526000Y-108458000D01*
X120445000Y-96080000D02*
X118686000Y-96080000D01*
X118110000Y-95504000D02*
X118110000Y-94060000D01*
X118686000Y-96080000D02*
X118110000Y-95504000D01*
X120445000Y-98080000D02*
X118480000Y-98080000D01*
X118480000Y-98080000D02*
X118110000Y-97710000D01*
X120445000Y-103580000D02*
X118590000Y-103580000D01*
X118590000Y-103580000D02*
X118110000Y-104060000D01*
D27*
X144700000Y-79375000D02*
X143510000Y-79375000D01*
X144700000Y-81915000D02*
X143510000Y-81915000D01*
X144018000Y-83566000D02*
X144700000Y-84455000D01*
D25*
X138695000Y-89330000D02*
X138695000Y-79237000D01*
X140970000Y-74930000D02*
X139700000Y-73660000D01*
X140970000Y-76962000D02*
X140970000Y-74930000D01*
X138695000Y-79237000D02*
X140970000Y-76962000D01*
X138195000Y-89330000D02*
X138195000Y-78467000D01*
X139700000Y-76962000D02*
X139700000Y-76200000D01*
X138195000Y-78467000D02*
X139700000Y-76962000D01*
X139700000Y-76708000D02*
X139700000Y-76200000D01*
X137695000Y-89330000D02*
X137695000Y-77951000D01*
X138430000Y-74930000D02*
X137160000Y-73660000D01*
X138430000Y-77216000D02*
X138430000Y-74930000D01*
X137695000Y-77951000D02*
X138430000Y-77216000D01*
X136195000Y-89330000D02*
X136195000Y-78435000D01*
X137160000Y-77470000D02*
X137160000Y-76200000D01*
X136195000Y-78435000D02*
X137160000Y-77470000D01*
X137160000Y-76962000D02*
X137160000Y-76200000D01*
X135695000Y-89330000D02*
X135695000Y-77724000D01*
X135890000Y-74930000D02*
X134620000Y-73660000D01*
X135890000Y-77529000D02*
X135890000Y-74930000D01*
X135695000Y-77724000D02*
X135890000Y-77529000D01*
X135195000Y-89330000D02*
X135195000Y-78045000D01*
X134620000Y-77470000D02*
X134620000Y-76200000D01*
X135195000Y-78045000D02*
X134620000Y-77470000D01*
X134695000Y-89330000D02*
X134695000Y-78815000D01*
X133350000Y-74930000D02*
X132080000Y-73660000D01*
X133350000Y-77470000D02*
X133350000Y-74930000D01*
X134695000Y-78815000D02*
X133350000Y-77470000D01*
X134195000Y-89330000D02*
X134195000Y-79585000D01*
X132080000Y-77470000D02*
X132080000Y-76200000D01*
X134195000Y-79585000D02*
X132080000Y-77470000D01*
M02*
