M48
METRIC,TZ
T1C0.400
T2C0.600
T3C1.000
T4C1.300
T5C3.000
T6C3.200
%
G90
G05
T1
X117602Y-105918
X117602Y-106680
X117602Y-107696
X117856Y-83312
X117856Y-88138
X117856Y-89408
X117856Y-93472
X117856Y-94742
X117856Y-96012
X117856Y-99060
X117856Y-100076
X119380Y-109982
X120650Y-104140
X120650Y-106934
X121158Y-81280
X121158Y-87630
X121158Y-99060
X121412Y-84328
X121412Y-86360
X121412Y-88900
X121412Y-95250
X122428Y-101092
X122936Y-81788
X122936Y-107950
X123444Y-98044
X123444Y-98806
X123952Y-81788
X123952Y-109474
X124460Y-114554
X124714Y-84074
X125060Y-81915
X125222Y-107696
X125730Y-100838
X125984Y-104902
X126238Y-108204
X126746Y-105664
X127000Y-101092
X128016Y-81788
X128270Y-100838
X129032Y-104902
X129540Y-81788
X129794Y-106172
X131572Y-101092
X132588Y-101092
X134366Y-81788
X134874Y-111506
X135382Y-81788
X135382Y-101092
X136652Y-101092
X138036Y-98876
X138176Y-84836
X138684Y-101092
X139954Y-82296
X139954Y-97790
X140208Y-86868
X140335Y-90170
X140462Y-83566
X140462Y-85598
X140462Y-96266
X140462Y-99568
X140462Y-101092
X143510Y-90170
X143510Y-105156
X144526Y-87122
X144526Y-88392
X144526Y-112268
X144526Y-113792
X145542Y-74930
X145542Y-107950
X145796Y-85090
X145796Y-90170
X145796Y-116078
X146050Y-92710
X146050Y-105410
X146304Y-77470
X146812Y-80010
X146812Y-82550
X147574Y-102870
X147828Y-95250
X148082Y-100330
X148590Y-97790
X150876Y-83058
X151130Y-95250
X153670Y-107950
X155194Y-94742
X155194Y-100584
X155194Y-107696
T2
X124460Y-117856
X128524Y-108458
X129540Y-108458
X129540Y-115062
X130556Y-108458
X146050Y-118618
T3
X119380Y-73660
X119380Y-76200
X119380Y-111760
X119380Y-114300
X119380Y-116840
X119380Y-119380
X119380Y-121920
X121920Y-73660
X121920Y-76200
X121920Y-111760
X121920Y-114300
X121920Y-116840
X121920Y-119380
X121920Y-121920
X124460Y-73660
X124460Y-76200
X127000Y-73660
X127000Y-76200
X127000Y-119380
X127000Y-121920
X129540Y-73660
X129540Y-76200
X129540Y-119380
X129540Y-121920
X132080Y-73660
X132080Y-76200
X132080Y-119380
X132080Y-121920
X134620Y-73660
X134620Y-76200
X134620Y-119380
X134620Y-121920
X137160Y-73660
X137160Y-76200
X137160Y-119380
X137160Y-121920
X139700Y-73660
X139700Y-76200
X139700Y-119380
X139700Y-121920
X142240Y-73660
X142240Y-76200
X142240Y-119380
X142240Y-121920
T5
X130810Y-91440
T6
X154940Y-76200
X154940Y-119380
T3
X150870Y-85090G85X152170Y-85090
G05
X150870Y-97790G85X152170Y-97790
G05
X150870Y-110490G85X152170Y-110490
G05
T4
X156020Y-84040G85X156020Y-86140
G05
X156020Y-96740G85X156020Y-98840
G05
X156020Y-109440G85X156020Y-111540
G05
T0
M30
