G04 #@! TF.FileFunction,Copper,L1,Top,Signal*
%FSLAX46Y46*%
G04 Gerber Fmt 4.6, Leading zero omitted, Abs format (unit mm)*
G04 Created by KiCad (PCBNEW 4.0.4-stable) date 11/01/17 12:47:16*
%MOMM*%
%LPD*%
G01*
G04 APERTURE LIST*
%ADD10C,0.100000*%
%ADD11R,1.200000X0.750000*%
%ADD12R,0.750000X1.200000*%
%ADD13R,1.700000X1.700000*%
%ADD14O,1.700000X1.700000*%
%ADD15R,2.000000X3.800000*%
%ADD16R,2.000000X1.500000*%
%ADD17C,4.000000*%
%ADD18C,3.000000*%
%ADD19R,1.250000X1.500000*%
%ADD20R,1.500000X1.250000*%
%ADD21C,0.600000*%
%ADD22C,1.000000*%
%ADD23C,0.750000*%
%ADD24C,1.000000*%
%ADD25C,0.250000*%
%ADD26C,0.500000*%
G04 APERTURE END LIST*
D10*
D11*
X140650000Y-102870000D03*
X138750000Y-102870000D03*
X140650000Y-94488000D03*
X138750000Y-94488000D03*
X140650000Y-99822000D03*
X138750000Y-99822000D03*
X140650000Y-104140000D03*
X138750000Y-104140000D03*
X140782000Y-109728000D03*
X142682000Y-109728000D03*
D12*
X142494000Y-108138000D03*
X142494000Y-106238000D03*
D11*
X123510000Y-111252000D03*
X125410000Y-111252000D03*
X124780000Y-89408000D03*
X126680000Y-89408000D03*
X138364000Y-89154000D03*
X136464000Y-89154000D03*
D12*
X136906000Y-109408000D03*
X136906000Y-107508000D03*
X130810000Y-109408000D03*
X130810000Y-107508000D03*
X126492000Y-109408000D03*
X126492000Y-107508000D03*
X120904000Y-107508000D03*
X120904000Y-109408000D03*
D11*
X123002000Y-106172000D03*
X124902000Y-106172000D03*
X123002000Y-104648000D03*
X124902000Y-104648000D03*
X123002000Y-102870000D03*
X124902000Y-102870000D03*
X123002000Y-97790000D03*
X124902000Y-97790000D03*
X123002000Y-95504000D03*
X124902000Y-95504000D03*
D12*
X122936000Y-92898000D03*
X122936000Y-90998000D03*
X128524000Y-91887000D03*
X128524000Y-93787000D03*
X133096000Y-91887000D03*
X133096000Y-93787000D03*
X136398000Y-91760000D03*
X136398000Y-93660000D03*
X140462000Y-88712000D03*
X140462000Y-90612000D03*
D11*
X143190000Y-91440000D03*
X141290000Y-91440000D03*
D12*
X119888000Y-116266000D03*
X119888000Y-114366000D03*
D13*
X142240000Y-73660000D03*
D14*
X142240000Y-76200000D03*
X139700000Y-73660000D03*
X139700000Y-76200000D03*
X137160000Y-73660000D03*
X137160000Y-76200000D03*
X134620000Y-73660000D03*
X134620000Y-76200000D03*
X132080000Y-73660000D03*
X132080000Y-76200000D03*
D13*
X124460000Y-121920000D03*
D14*
X124460000Y-119380000D03*
X127000000Y-121920000D03*
X127000000Y-119380000D03*
X129540000Y-121920000D03*
X129540000Y-119380000D03*
X132080000Y-121920000D03*
X132080000Y-119380000D03*
X134620000Y-121920000D03*
X134620000Y-119380000D03*
X137160000Y-121920000D03*
X137160000Y-119380000D03*
X139700000Y-121920000D03*
X139700000Y-119380000D03*
X142240000Y-121920000D03*
X142240000Y-119380000D03*
D15*
X137770000Y-82550000D03*
D16*
X131470000Y-82550000D03*
X131470000Y-84850000D03*
X131470000Y-80250000D03*
D17*
X150965000Y-77190000D03*
X150965000Y-118390000D03*
D18*
X147340000Y-101540000D03*
X154590000Y-101540000D03*
X147340000Y-115540000D03*
X154590000Y-115540000D03*
X147340000Y-87540000D03*
X154590000Y-87540000D03*
D13*
X127000000Y-76200000D03*
D14*
X127000000Y-73660000D03*
D19*
X139700000Y-86340000D03*
X139700000Y-83840000D03*
X142240000Y-86340000D03*
X142240000Y-83840000D03*
D13*
X121920000Y-83820000D03*
D14*
X119380000Y-83820000D03*
X121920000Y-81280000D03*
X119380000Y-81280000D03*
X121920000Y-78740000D03*
X119380000Y-78740000D03*
X121920000Y-76200000D03*
X119380000Y-76200000D03*
X121920000Y-73660000D03*
X119380000Y-73660000D03*
D19*
X144145000Y-87015000D03*
X144145000Y-89515000D03*
D20*
X137775000Y-87630000D03*
X135275000Y-87630000D03*
X140950000Y-78740000D03*
X138450000Y-78740000D03*
X125750000Y-80010000D03*
X128250000Y-80010000D03*
D13*
X129540000Y-76200000D03*
D14*
X129540000Y-73660000D03*
D21*
X124714000Y-81915000D03*
X141224000Y-92202000D03*
X140716000Y-101600000D03*
X140970000Y-106045000D03*
X135128000Y-109855000D03*
X128651000Y-109855000D03*
X124714000Y-109855000D03*
X121920000Y-108585000D03*
X121920000Y-103886000D03*
X121920000Y-96901000D03*
X121920000Y-92075000D03*
X127508000Y-90805000D03*
X132080000Y-90805000D03*
X137287000Y-90805000D03*
X140970000Y-95504000D03*
D17*
X131445000Y-100330000D03*
D21*
X157480000Y-102616000D03*
X157099000Y-94615000D03*
X158115000Y-111633000D03*
X127508000Y-114808000D03*
D22*
X158242000Y-79756000D03*
X150368000Y-80010000D03*
D21*
X144780000Y-76962000D03*
D22*
X121412000Y-116332000D03*
X118110000Y-88646000D03*
D21*
X140970000Y-102362000D03*
X140970000Y-93980000D03*
X140970000Y-100584000D03*
X140970000Y-104902000D03*
X140195000Y-109334000D03*
X136144000Y-109728000D03*
X130195000Y-109982000D03*
X125730000Y-109728000D03*
X121920000Y-107442000D03*
X121920000Y-106172000D03*
X121920000Y-104902000D03*
X121920000Y-102870000D03*
X121920000Y-97790000D03*
X121920000Y-95580000D03*
X121920000Y-92964000D03*
X128397000Y-90805000D03*
X133223000Y-90805000D03*
X136398000Y-90805000D03*
X140716000Y-88138000D03*
X144272000Y-91567000D03*
X142113000Y-88646000D03*
X124587000Y-93472000D03*
X124587000Y-90932000D03*
X138430000Y-107188000D03*
X140843000Y-108204000D03*
X138430000Y-93218000D03*
X139192000Y-90805000D03*
X124587000Y-107188000D03*
X123444000Y-109728000D03*
X139573000Y-87630000D03*
X158877000Y-88646000D03*
X158877000Y-103378000D03*
X158115000Y-82931000D03*
X158115000Y-95885000D03*
X127254000Y-84328000D03*
X132334000Y-86360000D03*
D22*
X143510000Y-79375000D03*
X143510000Y-81915000D03*
X144018000Y-83566000D03*
D23*
X144226733Y-77414673D02*
X146502673Y-77414673D01*
X149098000Y-80010000D02*
X146558000Y-77470000D01*
X150368000Y-80010000D02*
X149098000Y-80010000D01*
X146502673Y-77414673D02*
X146558000Y-77470000D01*
D24*
X140970000Y-82550000D02*
X141478000Y-82550000D01*
X141478000Y-82550000D02*
X142240000Y-83312000D01*
X142240000Y-83312000D02*
X142240000Y-83840000D01*
X139700000Y-83840000D02*
X139700000Y-82550000D01*
D23*
X140950000Y-78740000D02*
X141605000Y-78740000D01*
X141605000Y-78740000D02*
X142353168Y-77991832D01*
X143521317Y-77991832D02*
X144226733Y-77414673D01*
X144226733Y-77414673D02*
X144655515Y-77063851D01*
X144655515Y-77063851D02*
X144780000Y-76962000D01*
X142353168Y-77991832D02*
X143521317Y-77991832D01*
D24*
X137770000Y-82550000D02*
X139700000Y-82550000D01*
X139700000Y-82550000D02*
X140970000Y-82550000D01*
X140950000Y-82530000D02*
X140950000Y-78740000D01*
X140970000Y-82550000D02*
X140950000Y-82530000D01*
D23*
X118110000Y-116586000D02*
X119568000Y-116586000D01*
X119568000Y-116586000D02*
X119822000Y-116332000D01*
X119822000Y-116332000D02*
X121412000Y-116332000D01*
X118110000Y-111252000D02*
X118110000Y-116586000D01*
X118110000Y-116586000D02*
X118110000Y-116840000D01*
X118110000Y-116840000D02*
X118110000Y-118618000D01*
X118110000Y-88646000D02*
X118110000Y-111252000D01*
X118892000Y-119400000D02*
X121920000Y-119400000D01*
X118110000Y-118618000D02*
X118892000Y-119400000D01*
X121920000Y-119400000D02*
X124440000Y-119400000D01*
X124440000Y-119400000D02*
X124460000Y-119380000D01*
D25*
X140970000Y-102362000D02*
X140650000Y-102682000D01*
X140650000Y-102682000D02*
X140650000Y-102870000D01*
X140970000Y-93980000D02*
X140650000Y-94300000D01*
X140650000Y-94300000D02*
X140650000Y-94488000D01*
X140650000Y-100264000D02*
X140650000Y-99822000D01*
X140970000Y-100584000D02*
X140650000Y-100264000D01*
X140650000Y-104582000D02*
X140650000Y-104140000D01*
X140970000Y-104902000D02*
X140650000Y-104582000D01*
X140195000Y-109334000D02*
X140589000Y-109728000D01*
X140589000Y-109728000D02*
X140782000Y-109728000D01*
X136464000Y-109408000D02*
X136906000Y-109408000D01*
X136144000Y-109728000D02*
X136464000Y-109408000D01*
X130195000Y-109982000D02*
X130769000Y-109408000D01*
X130769000Y-109408000D02*
X130810000Y-109408000D01*
X126050000Y-109408000D02*
X126492000Y-109408000D01*
X125730000Y-109728000D02*
X126050000Y-109408000D01*
X121854000Y-107508000D02*
X120904000Y-107508000D01*
X121920000Y-107442000D02*
X121854000Y-107508000D01*
X121920000Y-106172000D02*
X123002000Y-106172000D01*
X122174000Y-104648000D02*
X123002000Y-104648000D01*
X121920000Y-104902000D02*
X122174000Y-104648000D01*
X121920000Y-102870000D02*
X123002000Y-102870000D01*
X121920000Y-97790000D02*
X123002000Y-97790000D01*
X123002000Y-95504000D02*
X121996000Y-95504000D01*
X121996000Y-95504000D02*
X121920000Y-95580000D01*
X121920000Y-92964000D02*
X122870000Y-92964000D01*
X122870000Y-92964000D02*
X122936000Y-92898000D01*
X121920000Y-92964000D02*
X121854000Y-92898000D01*
X128524000Y-91887000D02*
X128524000Y-90932000D01*
X128524000Y-90932000D02*
X128397000Y-90805000D01*
X133096000Y-91887000D02*
X133096000Y-90932000D01*
X133096000Y-90932000D02*
X133223000Y-90805000D01*
X136398000Y-91760000D02*
X136398000Y-90805000D01*
X140716000Y-88138000D02*
X140462000Y-88392000D01*
X140462000Y-88392000D02*
X140462000Y-88712000D01*
X144145000Y-91440000D02*
X143190000Y-91440000D01*
X144272000Y-91567000D02*
X144145000Y-91440000D01*
D24*
X142113000Y-88646000D02*
X142113000Y-87630000D01*
X142113000Y-87630000D02*
X142240000Y-87503000D01*
X142240000Y-87503000D02*
X142240000Y-86340000D01*
X144145000Y-87015000D02*
X142915000Y-87015000D01*
X142915000Y-87015000D02*
X142240000Y-86340000D01*
D25*
X142494000Y-108138000D02*
X140909000Y-108138000D01*
X140909000Y-108138000D02*
X140843000Y-108204000D01*
X123444000Y-109728000D02*
X123444000Y-111186000D01*
X123444000Y-111186000D02*
X123510000Y-111252000D01*
X124587000Y-90932000D02*
X124587000Y-89601000D01*
X124587000Y-89601000D02*
X124780000Y-89408000D01*
X124587000Y-90932000D02*
X124587000Y-93472000D01*
D26*
X138364000Y-89154000D02*
X138364000Y-88839000D01*
X138364000Y-88839000D02*
X139573000Y-87630000D01*
D25*
X139827000Y-107188000D02*
X138430000Y-107188000D01*
X140843000Y-108204000D02*
X139827000Y-107188000D01*
D23*
X138430000Y-91567000D02*
X138430000Y-93218000D01*
X139192000Y-90805000D02*
X138430000Y-91567000D01*
D25*
X124587000Y-108585000D02*
X124587000Y-107188000D01*
X123444000Y-109728000D02*
X124587000Y-108585000D01*
D24*
X137775000Y-87630000D02*
X139573000Y-87630000D01*
X139700000Y-87503000D02*
X139573000Y-87630000D01*
X139700000Y-87503000D02*
X139700000Y-86340000D01*
D25*
X158877000Y-103378000D02*
X158877000Y-88646000D01*
X158115000Y-95885000D02*
X158115000Y-82931000D01*
D24*
X127000000Y-73660000D02*
X129540000Y-73660000D01*
X125750000Y-80010000D02*
X125750000Y-79268000D01*
X125730000Y-73660000D02*
X127000000Y-73660000D01*
X124968000Y-74422000D02*
X125730000Y-73660000D01*
X124968000Y-78486000D02*
X124968000Y-74422000D01*
X125750000Y-79268000D02*
X124968000Y-78486000D01*
X125730000Y-79990000D02*
X125730000Y-81280000D01*
X125730000Y-81280000D02*
X129300000Y-84850000D01*
X129300000Y-84850000D02*
X131470000Y-84850000D01*
D25*
X127254000Y-84328000D02*
X129286000Y-86360000D01*
X129286000Y-86360000D02*
X132334000Y-86360000D01*
D23*
X145669000Y-79375000D02*
X153834000Y-87540000D01*
X143510000Y-79375000D02*
X145669000Y-79375000D01*
X153580000Y-87540000D02*
X154590000Y-87540000D01*
X154590000Y-88550000D02*
X154590000Y-87540000D01*
X151130000Y-98080000D02*
X154590000Y-101540000D01*
X151130000Y-86487000D02*
X151130000Y-98080000D01*
X146558000Y-81915000D02*
X151130000Y-86487000D01*
X143510000Y-81915000D02*
X146558000Y-81915000D01*
X144018000Y-83566000D02*
X146558000Y-83566000D01*
X154590000Y-115540000D02*
X149860000Y-110810000D01*
X149860000Y-86868000D02*
X149860000Y-110810000D01*
X147447000Y-84455000D02*
X149860000Y-86868000D01*
X146558000Y-83566000D02*
X147447000Y-84455000D01*
X132060000Y-73680000D02*
X132080000Y-73660000D01*
D25*
G36*
X159570000Y-124010000D02*
X117290000Y-124010000D01*
X117290000Y-121896001D01*
X125775000Y-121896001D01*
X125775000Y-121943999D01*
X125868248Y-122412786D01*
X126133794Y-122810205D01*
X126531213Y-123075751D01*
X127000000Y-123168999D01*
X127468787Y-123075751D01*
X127866206Y-122810205D01*
X128131752Y-122412786D01*
X128225000Y-121943999D01*
X128225000Y-121896001D01*
X128315000Y-121896001D01*
X128315000Y-121943999D01*
X128408248Y-122412786D01*
X128673794Y-122810205D01*
X129071213Y-123075751D01*
X129540000Y-123168999D01*
X130008787Y-123075751D01*
X130406206Y-122810205D01*
X130671752Y-122412786D01*
X130765000Y-121943999D01*
X130765000Y-121896001D01*
X130855000Y-121896001D01*
X130855000Y-121943999D01*
X130948248Y-122412786D01*
X131213794Y-122810205D01*
X131611213Y-123075751D01*
X132080000Y-123168999D01*
X132548787Y-123075751D01*
X132946206Y-122810205D01*
X133211752Y-122412786D01*
X133305000Y-121943999D01*
X133305000Y-121896001D01*
X133395000Y-121896001D01*
X133395000Y-121943999D01*
X133488248Y-122412786D01*
X133753794Y-122810205D01*
X134151213Y-123075751D01*
X134620000Y-123168999D01*
X135088787Y-123075751D01*
X135486206Y-122810205D01*
X135751752Y-122412786D01*
X135845000Y-121943999D01*
X135845000Y-121896001D01*
X135935000Y-121896001D01*
X135935000Y-121943999D01*
X136028248Y-122412786D01*
X136293794Y-122810205D01*
X136691213Y-123075751D01*
X137160000Y-123168999D01*
X137628787Y-123075751D01*
X138026206Y-122810205D01*
X138291752Y-122412786D01*
X138385000Y-121943999D01*
X138385000Y-121896001D01*
X138475000Y-121896001D01*
X138475000Y-121943999D01*
X138568248Y-122412786D01*
X138833794Y-122810205D01*
X139231213Y-123075751D01*
X139700000Y-123168999D01*
X140168787Y-123075751D01*
X140566206Y-122810205D01*
X140831752Y-122412786D01*
X140925000Y-121943999D01*
X140925000Y-121896001D01*
X141015000Y-121896001D01*
X141015000Y-121943999D01*
X141108248Y-122412786D01*
X141373794Y-122810205D01*
X141771213Y-123075751D01*
X142240000Y-123168999D01*
X142708787Y-123075751D01*
X143106206Y-122810205D01*
X143371752Y-122412786D01*
X143391973Y-122311128D01*
X152964657Y-122311128D01*
X153264700Y-123037286D01*
X153819791Y-123593348D01*
X154545425Y-123894657D01*
X155331128Y-123895343D01*
X156057286Y-123595300D01*
X156613348Y-123040209D01*
X156914657Y-122314575D01*
X156915343Y-121528872D01*
X156615300Y-120802714D01*
X156060209Y-120246652D01*
X155334575Y-119945343D01*
X154548872Y-119944657D01*
X153822714Y-120244700D01*
X153266652Y-120799791D01*
X152965343Y-121525425D01*
X152964657Y-122311128D01*
X143391973Y-122311128D01*
X143465000Y-121943999D01*
X143465000Y-121896001D01*
X143371752Y-121427214D01*
X143106206Y-121029795D01*
X142708787Y-120764249D01*
X142240000Y-120671001D01*
X141771213Y-120764249D01*
X141373794Y-121029795D01*
X141108248Y-121427214D01*
X141015000Y-121896001D01*
X140925000Y-121896001D01*
X140831752Y-121427214D01*
X140566206Y-121029795D01*
X140168787Y-120764249D01*
X139700000Y-120671001D01*
X139231213Y-120764249D01*
X138833794Y-121029795D01*
X138568248Y-121427214D01*
X138475000Y-121896001D01*
X138385000Y-121896001D01*
X138291752Y-121427214D01*
X138026206Y-121029795D01*
X137628787Y-120764249D01*
X137160000Y-120671001D01*
X136691213Y-120764249D01*
X136293794Y-121029795D01*
X136028248Y-121427214D01*
X135935000Y-121896001D01*
X135845000Y-121896001D01*
X135751752Y-121427214D01*
X135486206Y-121029795D01*
X135088787Y-120764249D01*
X134620000Y-120671001D01*
X134151213Y-120764249D01*
X133753794Y-121029795D01*
X133488248Y-121427214D01*
X133395000Y-121896001D01*
X133305000Y-121896001D01*
X133211752Y-121427214D01*
X132946206Y-121029795D01*
X132548787Y-120764249D01*
X132080000Y-120671001D01*
X131611213Y-120764249D01*
X131213794Y-121029795D01*
X130948248Y-121427214D01*
X130855000Y-121896001D01*
X130765000Y-121896001D01*
X130671752Y-121427214D01*
X130406206Y-121029795D01*
X130008787Y-120764249D01*
X129540000Y-120671001D01*
X129071213Y-120764249D01*
X128673794Y-121029795D01*
X128408248Y-121427214D01*
X128315000Y-121896001D01*
X128225000Y-121896001D01*
X128131752Y-121427214D01*
X127866206Y-121029795D01*
X127468787Y-120764249D01*
X127000000Y-120671001D01*
X126531213Y-120764249D01*
X126133794Y-121029795D01*
X125868248Y-121427214D01*
X125775000Y-121896001D01*
X117290000Y-121896001D01*
X117290000Y-88952761D01*
X117360000Y-89122173D01*
X117360000Y-118618000D01*
X117417090Y-118905013D01*
X117579670Y-119148330D01*
X118361670Y-119930330D01*
X118604987Y-120092910D01*
X118892000Y-120150000D01*
X123513476Y-120150000D01*
X123593794Y-120270205D01*
X123991213Y-120535751D01*
X124460000Y-120628999D01*
X124928787Y-120535751D01*
X125326206Y-120270205D01*
X125591752Y-119872786D01*
X125685000Y-119403999D01*
X125685000Y-119356001D01*
X125775000Y-119356001D01*
X125775000Y-119403999D01*
X125868248Y-119872786D01*
X126133794Y-120270205D01*
X126531213Y-120535751D01*
X127000000Y-120628999D01*
X127468787Y-120535751D01*
X127866206Y-120270205D01*
X128131752Y-119872786D01*
X128225000Y-119403999D01*
X128225000Y-119356001D01*
X128315000Y-119356001D01*
X128315000Y-119403999D01*
X128408248Y-119872786D01*
X128673794Y-120270205D01*
X129071213Y-120535751D01*
X129540000Y-120628999D01*
X130008787Y-120535751D01*
X130406206Y-120270205D01*
X130671752Y-119872786D01*
X130765000Y-119403999D01*
X130765000Y-119356001D01*
X130855000Y-119356001D01*
X130855000Y-119403999D01*
X130948248Y-119872786D01*
X131213794Y-120270205D01*
X131611213Y-120535751D01*
X132080000Y-120628999D01*
X132548787Y-120535751D01*
X132946206Y-120270205D01*
X133211752Y-119872786D01*
X133305000Y-119403999D01*
X133305000Y-119356001D01*
X133395000Y-119356001D01*
X133395000Y-119403999D01*
X133488248Y-119872786D01*
X133753794Y-120270205D01*
X134151213Y-120535751D01*
X134620000Y-120628999D01*
X135088787Y-120535751D01*
X135486206Y-120270205D01*
X135751752Y-119872786D01*
X135845000Y-119403999D01*
X135845000Y-119356001D01*
X135935000Y-119356001D01*
X135935000Y-119403999D01*
X136028248Y-119872786D01*
X136293794Y-120270205D01*
X136691213Y-120535751D01*
X137160000Y-120628999D01*
X137628787Y-120535751D01*
X138026206Y-120270205D01*
X138291752Y-119872786D01*
X138385000Y-119403999D01*
X138385000Y-119356001D01*
X138475000Y-119356001D01*
X138475000Y-119403999D01*
X138568248Y-119872786D01*
X138833794Y-120270205D01*
X139231213Y-120535751D01*
X139700000Y-120628999D01*
X140168787Y-120535751D01*
X140566206Y-120270205D01*
X140831752Y-119872786D01*
X140925000Y-119403999D01*
X140925000Y-119356001D01*
X141015000Y-119356001D01*
X141015000Y-119403999D01*
X141108248Y-119872786D01*
X141373794Y-120270205D01*
X141771213Y-120535751D01*
X142240000Y-120628999D01*
X142708787Y-120535751D01*
X143106206Y-120270205D01*
X143371752Y-119872786D01*
X143465000Y-119403999D01*
X143465000Y-119356001D01*
X143371752Y-118887214D01*
X143353799Y-118860344D01*
X148589589Y-118860344D01*
X148950399Y-119733572D01*
X149617914Y-120402253D01*
X150490511Y-120764587D01*
X151435344Y-120765411D01*
X152308572Y-120404601D01*
X152977253Y-119737086D01*
X153339587Y-118864489D01*
X153340411Y-117919656D01*
X152979601Y-117046428D01*
X152312086Y-116377747D01*
X151439489Y-116015413D01*
X150494656Y-116014589D01*
X149621428Y-116375399D01*
X148952747Y-117042914D01*
X148590413Y-117915511D01*
X148589589Y-118860344D01*
X143353799Y-118860344D01*
X143106206Y-118489795D01*
X142708787Y-118224249D01*
X142240000Y-118131001D01*
X141771213Y-118224249D01*
X141373794Y-118489795D01*
X141108248Y-118887214D01*
X141015000Y-119356001D01*
X140925000Y-119356001D01*
X140831752Y-118887214D01*
X140566206Y-118489795D01*
X140168787Y-118224249D01*
X139700000Y-118131001D01*
X139231213Y-118224249D01*
X138833794Y-118489795D01*
X138568248Y-118887214D01*
X138475000Y-119356001D01*
X138385000Y-119356001D01*
X138291752Y-118887214D01*
X138026206Y-118489795D01*
X137628787Y-118224249D01*
X137160000Y-118131001D01*
X136691213Y-118224249D01*
X136293794Y-118489795D01*
X136028248Y-118887214D01*
X135935000Y-119356001D01*
X135845000Y-119356001D01*
X135751752Y-118887214D01*
X135486206Y-118489795D01*
X135088787Y-118224249D01*
X134620000Y-118131001D01*
X134151213Y-118224249D01*
X133753794Y-118489795D01*
X133488248Y-118887214D01*
X133395000Y-119356001D01*
X133305000Y-119356001D01*
X133211752Y-118887214D01*
X132946206Y-118489795D01*
X132548787Y-118224249D01*
X132080000Y-118131001D01*
X131611213Y-118224249D01*
X131213794Y-118489795D01*
X130948248Y-118887214D01*
X130855000Y-119356001D01*
X130765000Y-119356001D01*
X130671752Y-118887214D01*
X130406206Y-118489795D01*
X130008787Y-118224249D01*
X129540000Y-118131001D01*
X129071213Y-118224249D01*
X128673794Y-118489795D01*
X128408248Y-118887214D01*
X128315000Y-119356001D01*
X128225000Y-119356001D01*
X128131752Y-118887214D01*
X127866206Y-118489795D01*
X127468787Y-118224249D01*
X127000000Y-118131001D01*
X126531213Y-118224249D01*
X126133794Y-118489795D01*
X125868248Y-118887214D01*
X125775000Y-119356001D01*
X125685000Y-119356001D01*
X125591752Y-118887214D01*
X125326206Y-118489795D01*
X124928787Y-118224249D01*
X124460000Y-118131001D01*
X123991213Y-118224249D01*
X123593794Y-118489795D01*
X123486749Y-118650000D01*
X119202660Y-118650000D01*
X118860000Y-118307340D01*
X118860000Y-117336000D01*
X119568000Y-117336000D01*
X119855013Y-117278910D01*
X119900755Y-117248346D01*
X120263000Y-117248346D01*
X120401966Y-117222198D01*
X120529599Y-117140069D01*
X120569276Y-117082000D01*
X120936522Y-117082000D01*
X121237188Y-117206848D01*
X121585285Y-117207151D01*
X121907000Y-117074221D01*
X122153356Y-116828295D01*
X122286848Y-116506812D01*
X122287151Y-116158715D01*
X122154221Y-115837000D01*
X121908295Y-115590644D01*
X121586812Y-115457152D01*
X121238715Y-115456849D01*
X120935827Y-115582000D01*
X120629540Y-115582000D01*
X120619198Y-115527034D01*
X120537069Y-115399401D01*
X120411754Y-115313777D01*
X120263000Y-115283654D01*
X119513000Y-115283654D01*
X119374034Y-115309802D01*
X119246401Y-115391931D01*
X119160777Y-115517246D01*
X119130654Y-115666000D01*
X119130654Y-115836000D01*
X118860000Y-115836000D01*
X118860000Y-110877000D01*
X122527654Y-110877000D01*
X122527654Y-111627000D01*
X122553802Y-111765966D01*
X122635931Y-111893599D01*
X122761246Y-111979223D01*
X122910000Y-112009346D01*
X124110000Y-112009346D01*
X124248966Y-111983198D01*
X124376599Y-111901069D01*
X124462223Y-111775754D01*
X124492346Y-111627000D01*
X124492346Y-110877000D01*
X124466198Y-110738034D01*
X124384069Y-110610401D01*
X124258754Y-110524777D01*
X124110000Y-110494654D01*
X123944000Y-110494654D01*
X123944000Y-110182634D01*
X124015903Y-110110856D01*
X124118883Y-109862855D01*
X124118884Y-109861677D01*
X125054883Y-109861677D01*
X125157429Y-110109857D01*
X125347144Y-110299903D01*
X125595145Y-110402883D01*
X125863677Y-110403117D01*
X125967960Y-110360028D01*
X125968246Y-110360223D01*
X126117000Y-110390346D01*
X126867000Y-110390346D01*
X127005966Y-110364198D01*
X127133599Y-110282069D01*
X127219223Y-110156754D01*
X127227541Y-110115677D01*
X129519883Y-110115677D01*
X129622429Y-110363857D01*
X129812144Y-110553903D01*
X130060145Y-110656883D01*
X130328677Y-110657117D01*
X130576857Y-110554571D01*
X130741369Y-110390346D01*
X131185000Y-110390346D01*
X131323966Y-110364198D01*
X131451599Y-110282069D01*
X131537223Y-110156754D01*
X131567346Y-110008000D01*
X131567346Y-109861677D01*
X135468883Y-109861677D01*
X135571429Y-110109857D01*
X135761144Y-110299903D01*
X136009145Y-110402883D01*
X136277677Y-110403117D01*
X136381960Y-110360028D01*
X136382246Y-110360223D01*
X136531000Y-110390346D01*
X137281000Y-110390346D01*
X137419966Y-110364198D01*
X137547599Y-110282069D01*
X137633223Y-110156754D01*
X137663346Y-110008000D01*
X137663346Y-108808000D01*
X137637198Y-108669034D01*
X137555069Y-108541401D01*
X137429754Y-108455777D01*
X137281000Y-108425654D01*
X136531000Y-108425654D01*
X136392034Y-108451802D01*
X136264401Y-108533931D01*
X136178777Y-108659246D01*
X136148654Y-108808000D01*
X136148654Y-109028917D01*
X136112653Y-109052972D01*
X136010323Y-109052883D01*
X135762143Y-109155429D01*
X135572097Y-109345144D01*
X135469117Y-109593145D01*
X135468883Y-109861677D01*
X131567346Y-109861677D01*
X131567346Y-108808000D01*
X131541198Y-108669034D01*
X131459069Y-108541401D01*
X131333754Y-108455777D01*
X131185000Y-108425654D01*
X130435000Y-108425654D01*
X130296034Y-108451802D01*
X130168401Y-108533931D01*
X130082777Y-108659246D01*
X130052654Y-108808000D01*
X130052654Y-109310465D01*
X129813143Y-109409429D01*
X129623097Y-109599144D01*
X129520117Y-109847145D01*
X129519883Y-110115677D01*
X127227541Y-110115677D01*
X127249346Y-110008000D01*
X127249346Y-108808000D01*
X127223198Y-108669034D01*
X127141069Y-108541401D01*
X127015754Y-108455777D01*
X126867000Y-108425654D01*
X126117000Y-108425654D01*
X125978034Y-108451802D01*
X125850401Y-108533931D01*
X125764777Y-108659246D01*
X125734654Y-108808000D01*
X125734654Y-109028917D01*
X125698653Y-109052972D01*
X125596323Y-109052883D01*
X125348143Y-109155429D01*
X125158097Y-109345144D01*
X125055117Y-109593145D01*
X125054883Y-109861677D01*
X124118884Y-109861677D01*
X124118973Y-109760133D01*
X124940553Y-108938553D01*
X125048940Y-108776342D01*
X125051906Y-108761429D01*
X125087000Y-108585000D01*
X125087000Y-107642634D01*
X125158903Y-107570856D01*
X125261883Y-107322855D01*
X125261884Y-107321677D01*
X137754883Y-107321677D01*
X137857429Y-107569857D01*
X138047144Y-107759903D01*
X138295145Y-107862883D01*
X138563677Y-107863117D01*
X138811857Y-107760571D01*
X138884555Y-107688000D01*
X139619894Y-107688000D01*
X140167972Y-108236078D01*
X140167883Y-108337677D01*
X140270429Y-108585857D01*
X140353265Y-108668838D01*
X140329855Y-108659117D01*
X140061323Y-108658883D01*
X139813143Y-108761429D01*
X139623097Y-108951144D01*
X139520117Y-109199145D01*
X139519883Y-109467677D01*
X139622429Y-109715857D01*
X139799654Y-109893391D01*
X139799654Y-110103000D01*
X139825802Y-110241966D01*
X139907931Y-110369599D01*
X140033246Y-110455223D01*
X140182000Y-110485346D01*
X141382000Y-110485346D01*
X141520966Y-110459198D01*
X141648599Y-110377069D01*
X141734223Y-110251754D01*
X141764346Y-110103000D01*
X141764346Y-109353000D01*
X141738198Y-109214034D01*
X141656069Y-109086401D01*
X141530754Y-109000777D01*
X141382000Y-108970654D01*
X140775220Y-108970654D01*
X140767571Y-108952143D01*
X140684735Y-108869162D01*
X140708145Y-108878883D01*
X140976677Y-108879117D01*
X141224857Y-108776571D01*
X141363670Y-108638000D01*
X141736654Y-108638000D01*
X141736654Y-108738000D01*
X141762802Y-108876966D01*
X141844931Y-109004599D01*
X141970246Y-109090223D01*
X142119000Y-109120346D01*
X142869000Y-109120346D01*
X143007966Y-109094198D01*
X143135599Y-109012069D01*
X143221223Y-108886754D01*
X143251346Y-108738000D01*
X143251346Y-107538000D01*
X143225198Y-107399034D01*
X143143069Y-107271401D01*
X143017754Y-107185777D01*
X142869000Y-107155654D01*
X142119000Y-107155654D01*
X141980034Y-107181802D01*
X141852401Y-107263931D01*
X141766777Y-107389246D01*
X141736654Y-107538000D01*
X141736654Y-107638000D01*
X141231749Y-107638000D01*
X141225856Y-107632097D01*
X140977855Y-107529117D01*
X140875133Y-107529027D01*
X140180553Y-106834447D01*
X140018342Y-106726060D01*
X139827000Y-106688000D01*
X138884634Y-106688000D01*
X138812856Y-106616097D01*
X138564855Y-106513117D01*
X138296323Y-106512883D01*
X138048143Y-106615429D01*
X137858097Y-106805144D01*
X137755117Y-107053145D01*
X137754883Y-107321677D01*
X125261884Y-107321677D01*
X125262117Y-107054323D01*
X125159571Y-106806143D01*
X124969856Y-106616097D01*
X124721855Y-106513117D01*
X124453323Y-106512883D01*
X124205143Y-106615429D01*
X124015097Y-106805144D01*
X123912117Y-107053145D01*
X123911883Y-107321677D01*
X124014429Y-107569857D01*
X124087000Y-107642555D01*
X124087000Y-108377894D01*
X123411922Y-109052972D01*
X123310323Y-109052883D01*
X123062143Y-109155429D01*
X122872097Y-109345144D01*
X122769117Y-109593145D01*
X122768883Y-109861677D01*
X122871429Y-110109857D01*
X122944000Y-110182555D01*
X122944000Y-110494654D01*
X122910000Y-110494654D01*
X122771034Y-110520802D01*
X122643401Y-110602931D01*
X122557777Y-110728246D01*
X122527654Y-110877000D01*
X118860000Y-110877000D01*
X118860000Y-106908000D01*
X120146654Y-106908000D01*
X120146654Y-108108000D01*
X120172802Y-108246966D01*
X120254931Y-108374599D01*
X120380246Y-108460223D01*
X120529000Y-108490346D01*
X121279000Y-108490346D01*
X121417966Y-108464198D01*
X121545599Y-108382069D01*
X121631223Y-108256754D01*
X121661346Y-108108000D01*
X121661346Y-108065477D01*
X121785145Y-108116883D01*
X122053677Y-108117117D01*
X122301857Y-108014571D01*
X122491903Y-107824856D01*
X122594883Y-107576855D01*
X122595117Y-107308323D01*
X122492571Y-107060143D01*
X122351868Y-106919194D01*
X122402000Y-106929346D01*
X123602000Y-106929346D01*
X123740966Y-106903198D01*
X123868599Y-106821069D01*
X123954223Y-106695754D01*
X123984346Y-106547000D01*
X123984346Y-105797000D01*
X123958198Y-105658034D01*
X123876069Y-105530401D01*
X123750754Y-105444777D01*
X123602000Y-105414654D01*
X122402000Y-105414654D01*
X122352560Y-105423957D01*
X122376397Y-105400161D01*
X122402000Y-105405346D01*
X123602000Y-105405346D01*
X123740966Y-105379198D01*
X123868599Y-105297069D01*
X123954223Y-105171754D01*
X123984346Y-105023000D01*
X123984346Y-104273000D01*
X123958198Y-104134034D01*
X123876069Y-104006401D01*
X123750754Y-103920777D01*
X123602000Y-103890654D01*
X122402000Y-103890654D01*
X122263034Y-103916802D01*
X122135401Y-103998931D01*
X122049777Y-104124246D01*
X122039551Y-104174743D01*
X121982658Y-104186060D01*
X121921386Y-104227001D01*
X121786323Y-104226883D01*
X121538143Y-104329429D01*
X121348097Y-104519144D01*
X121245117Y-104767145D01*
X121244883Y-105035677D01*
X121347429Y-105283857D01*
X121537144Y-105473903D01*
X121689165Y-105537028D01*
X121538143Y-105599429D01*
X121348097Y-105789144D01*
X121245117Y-106037145D01*
X121244883Y-106305677D01*
X121340960Y-106538201D01*
X121279000Y-106525654D01*
X120529000Y-106525654D01*
X120390034Y-106551802D01*
X120262401Y-106633931D01*
X120176777Y-106759246D01*
X120146654Y-106908000D01*
X118860000Y-106908000D01*
X118860000Y-103003677D01*
X121244883Y-103003677D01*
X121347429Y-103251857D01*
X121537144Y-103441903D01*
X121785145Y-103544883D01*
X122053677Y-103545117D01*
X122130518Y-103513367D01*
X122253246Y-103597223D01*
X122402000Y-103627346D01*
X123602000Y-103627346D01*
X123740966Y-103601198D01*
X123868599Y-103519069D01*
X123954223Y-103393754D01*
X123984346Y-103245000D01*
X123984346Y-102495000D01*
X139667654Y-102495000D01*
X139667654Y-103245000D01*
X139693802Y-103383966D01*
X139772705Y-103506585D01*
X139697777Y-103616246D01*
X139667654Y-103765000D01*
X139667654Y-104515000D01*
X139693802Y-104653966D01*
X139775931Y-104781599D01*
X139901246Y-104867223D01*
X140050000Y-104897346D01*
X140270918Y-104897346D01*
X140294972Y-104933346D01*
X140294883Y-105035677D01*
X140397429Y-105283857D01*
X140587144Y-105473903D01*
X140835145Y-105576883D01*
X141103677Y-105577117D01*
X141351857Y-105474571D01*
X141541903Y-105284856D01*
X141644883Y-105036855D01*
X141645117Y-104768323D01*
X141602028Y-104664040D01*
X141602223Y-104663754D01*
X141632346Y-104515000D01*
X141632346Y-103765000D01*
X141606198Y-103626034D01*
X141527295Y-103503415D01*
X141602223Y-103393754D01*
X141632346Y-103245000D01*
X141632346Y-102527047D01*
X141644883Y-102496855D01*
X141645117Y-102228323D01*
X141542571Y-101980143D01*
X141352856Y-101790097D01*
X141104855Y-101687117D01*
X140836323Y-101686883D01*
X140588143Y-101789429D01*
X140398097Y-101979144D01*
X140342658Y-102112654D01*
X140050000Y-102112654D01*
X139911034Y-102138802D01*
X139783401Y-102220931D01*
X139697777Y-102346246D01*
X139667654Y-102495000D01*
X123984346Y-102495000D01*
X123958198Y-102356034D01*
X123876069Y-102228401D01*
X123750754Y-102142777D01*
X123602000Y-102112654D01*
X122402000Y-102112654D01*
X122263034Y-102138802D01*
X122135401Y-102220931D01*
X122131339Y-102226876D01*
X122054855Y-102195117D01*
X121786323Y-102194883D01*
X121538143Y-102297429D01*
X121348097Y-102487144D01*
X121245117Y-102735145D01*
X121244883Y-103003677D01*
X118860000Y-103003677D01*
X118860000Y-99447000D01*
X139667654Y-99447000D01*
X139667654Y-100197000D01*
X139693802Y-100335966D01*
X139775931Y-100463599D01*
X139901246Y-100549223D01*
X140050000Y-100579346D01*
X140270918Y-100579346D01*
X140294972Y-100615346D01*
X140294883Y-100717677D01*
X140397429Y-100965857D01*
X140587144Y-101155903D01*
X140835145Y-101258883D01*
X141103677Y-101259117D01*
X141351857Y-101156571D01*
X141541903Y-100966856D01*
X141644883Y-100718855D01*
X141645117Y-100450323D01*
X141602028Y-100346040D01*
X141602223Y-100345754D01*
X141632346Y-100197000D01*
X141632346Y-99447000D01*
X141606198Y-99308034D01*
X141524069Y-99180401D01*
X141398754Y-99094777D01*
X141250000Y-99064654D01*
X140050000Y-99064654D01*
X139911034Y-99090802D01*
X139783401Y-99172931D01*
X139697777Y-99298246D01*
X139667654Y-99447000D01*
X118860000Y-99447000D01*
X118860000Y-97923677D01*
X121244883Y-97923677D01*
X121347429Y-98171857D01*
X121537144Y-98361903D01*
X121785145Y-98464883D01*
X122053677Y-98465117D01*
X122130518Y-98433367D01*
X122253246Y-98517223D01*
X122402000Y-98547346D01*
X123602000Y-98547346D01*
X123740966Y-98521198D01*
X123868599Y-98439069D01*
X123954223Y-98313754D01*
X123984346Y-98165000D01*
X123984346Y-97415000D01*
X123958198Y-97276034D01*
X123876069Y-97148401D01*
X123750754Y-97062777D01*
X123602000Y-97032654D01*
X122402000Y-97032654D01*
X122263034Y-97058802D01*
X122135401Y-97140931D01*
X122131339Y-97146876D01*
X122054855Y-97115117D01*
X121786323Y-97114883D01*
X121538143Y-97217429D01*
X121348097Y-97407144D01*
X121245117Y-97655145D01*
X121244883Y-97923677D01*
X118860000Y-97923677D01*
X118860000Y-95713677D01*
X121244883Y-95713677D01*
X121347429Y-95961857D01*
X121537144Y-96151903D01*
X121785145Y-96254883D01*
X122053677Y-96255117D01*
X122199832Y-96194727D01*
X122253246Y-96231223D01*
X122402000Y-96261346D01*
X123602000Y-96261346D01*
X123740966Y-96235198D01*
X123868599Y-96153069D01*
X123954223Y-96027754D01*
X123984346Y-95879000D01*
X123984346Y-95129000D01*
X123958198Y-94990034D01*
X123876069Y-94862401D01*
X123750754Y-94776777D01*
X123602000Y-94746654D01*
X122402000Y-94746654D01*
X122263034Y-94772802D01*
X122135401Y-94854931D01*
X122090887Y-94920079D01*
X122054855Y-94905117D01*
X121786323Y-94904883D01*
X121538143Y-95007429D01*
X121348097Y-95197144D01*
X121245117Y-95445145D01*
X121244883Y-95713677D01*
X118860000Y-95713677D01*
X118860000Y-93097677D01*
X121244883Y-93097677D01*
X121347429Y-93345857D01*
X121537144Y-93535903D01*
X121785145Y-93638883D01*
X122053677Y-93639117D01*
X122194276Y-93581023D01*
X122204802Y-93636966D01*
X122286931Y-93764599D01*
X122412246Y-93850223D01*
X122561000Y-93880346D01*
X123311000Y-93880346D01*
X123449966Y-93854198D01*
X123577599Y-93772069D01*
X123663223Y-93646754D01*
X123693346Y-93498000D01*
X123693346Y-92298000D01*
X123667198Y-92159034D01*
X123585069Y-92031401D01*
X123459754Y-91945777D01*
X123311000Y-91915654D01*
X122561000Y-91915654D01*
X122422034Y-91941802D01*
X122294401Y-92023931D01*
X122208777Y-92149246D01*
X122178654Y-92298000D01*
X122178654Y-92340523D01*
X122054855Y-92289117D01*
X121786323Y-92288883D01*
X121538143Y-92391429D01*
X121348097Y-92581144D01*
X121245117Y-92829145D01*
X121244883Y-93097677D01*
X118860000Y-93097677D01*
X118860000Y-89121478D01*
X118896739Y-89033000D01*
X123797654Y-89033000D01*
X123797654Y-89783000D01*
X123823802Y-89921966D01*
X123905931Y-90049599D01*
X124031246Y-90135223D01*
X124087000Y-90146513D01*
X124087000Y-90477366D01*
X124015097Y-90549144D01*
X123912117Y-90797145D01*
X123911883Y-91065677D01*
X124014429Y-91313857D01*
X124087000Y-91386555D01*
X124087000Y-93017366D01*
X124015097Y-93089144D01*
X123912117Y-93337145D01*
X123911883Y-93605677D01*
X124014429Y-93853857D01*
X124204144Y-94043903D01*
X124452145Y-94146883D01*
X124720677Y-94147117D01*
X124803246Y-94113000D01*
X139667654Y-94113000D01*
X139667654Y-94863000D01*
X139693802Y-95001966D01*
X139775931Y-95129599D01*
X139901246Y-95215223D01*
X140050000Y-95245346D01*
X141250000Y-95245346D01*
X141388966Y-95219198D01*
X141516599Y-95137069D01*
X141602223Y-95011754D01*
X141632346Y-94863000D01*
X141632346Y-94145047D01*
X141644883Y-94114855D01*
X141645117Y-93846323D01*
X141542571Y-93598143D01*
X141352856Y-93408097D01*
X141104855Y-93305117D01*
X140836323Y-93304883D01*
X140588143Y-93407429D01*
X140398097Y-93597144D01*
X140342658Y-93730654D01*
X140050000Y-93730654D01*
X139911034Y-93756802D01*
X139783401Y-93838931D01*
X139697777Y-93964246D01*
X139667654Y-94113000D01*
X124803246Y-94113000D01*
X124968857Y-94044571D01*
X125158903Y-93854856D01*
X125261883Y-93606855D01*
X125262117Y-93338323D01*
X125159571Y-93090143D01*
X125087000Y-93017445D01*
X125087000Y-91386634D01*
X125158903Y-91314856D01*
X125261883Y-91066855D01*
X125261994Y-90938677D01*
X127721883Y-90938677D01*
X127801492Y-91131345D01*
X127796777Y-91138246D01*
X127766654Y-91287000D01*
X127766654Y-92487000D01*
X127792802Y-92625966D01*
X127874931Y-92753599D01*
X128000246Y-92839223D01*
X128149000Y-92869346D01*
X128899000Y-92869346D01*
X129037966Y-92843198D01*
X129165599Y-92761069D01*
X129251223Y-92635754D01*
X129281346Y-92487000D01*
X129281346Y-91287000D01*
X132338654Y-91287000D01*
X132338654Y-92487000D01*
X132364802Y-92625966D01*
X132446931Y-92753599D01*
X132572246Y-92839223D01*
X132721000Y-92869346D01*
X133471000Y-92869346D01*
X133609966Y-92843198D01*
X133737599Y-92761069D01*
X133823223Y-92635754D01*
X133853346Y-92487000D01*
X133853346Y-91287000D01*
X133829450Y-91160000D01*
X135640654Y-91160000D01*
X135640654Y-92360000D01*
X135666802Y-92498966D01*
X135748931Y-92626599D01*
X135874246Y-92712223D01*
X136023000Y-92742346D01*
X136773000Y-92742346D01*
X136911966Y-92716198D01*
X137039599Y-92634069D01*
X137125223Y-92508754D01*
X137155346Y-92360000D01*
X137155346Y-91567000D01*
X137680000Y-91567000D01*
X137680000Y-93218000D01*
X137737090Y-93505013D01*
X137899670Y-93748330D01*
X138142987Y-93910910D01*
X138430000Y-93968000D01*
X138717013Y-93910910D01*
X138960330Y-93748330D01*
X139122910Y-93505013D01*
X139180000Y-93218000D01*
X139180000Y-91877660D01*
X139722330Y-91335330D01*
X139884910Y-91092012D01*
X139890282Y-91065000D01*
X142207654Y-91065000D01*
X142207654Y-91815000D01*
X142233802Y-91953966D01*
X142315931Y-92081599D01*
X142441246Y-92167223D01*
X142590000Y-92197346D01*
X143790000Y-92197346D01*
X143928966Y-92171198D01*
X143943851Y-92161620D01*
X144137145Y-92241883D01*
X144405677Y-92242117D01*
X144653857Y-92139571D01*
X144843903Y-91949856D01*
X144946883Y-91701855D01*
X144947117Y-91433323D01*
X144844571Y-91185143D01*
X144654856Y-90995097D01*
X144406855Y-90892117D01*
X144138323Y-90891883D01*
X144127184Y-90896485D01*
X144064069Y-90798401D01*
X143938754Y-90712777D01*
X143790000Y-90682654D01*
X142590000Y-90682654D01*
X142451034Y-90708802D01*
X142323401Y-90790931D01*
X142237777Y-90916246D01*
X142207654Y-91065000D01*
X139890282Y-91065000D01*
X139942000Y-90805000D01*
X139884910Y-90517987D01*
X139722330Y-90274670D01*
X139479013Y-90112090D01*
X139192000Y-90055000D01*
X138904988Y-90112090D01*
X138661670Y-90274670D01*
X137899670Y-91036670D01*
X137737090Y-91279987D01*
X137680000Y-91567000D01*
X137155346Y-91567000D01*
X137155346Y-91160000D01*
X137129198Y-91021034D01*
X137072889Y-90933526D01*
X137073117Y-90671323D01*
X136970571Y-90423143D01*
X136780856Y-90233097D01*
X136532855Y-90130117D01*
X136264323Y-90129883D01*
X136016143Y-90232429D01*
X135826097Y-90422144D01*
X135723117Y-90670145D01*
X135722886Y-90934982D01*
X135670777Y-91011246D01*
X135640654Y-91160000D01*
X133829450Y-91160000D01*
X133827198Y-91148034D01*
X133817620Y-91133149D01*
X133897883Y-90939855D01*
X133898117Y-90671323D01*
X133795571Y-90423143D01*
X133605856Y-90233097D01*
X133357855Y-90130117D01*
X133089323Y-90129883D01*
X132841143Y-90232429D01*
X132651097Y-90422144D01*
X132548117Y-90670145D01*
X132547883Y-90938677D01*
X132552485Y-90949816D01*
X132454401Y-91012931D01*
X132368777Y-91138246D01*
X132338654Y-91287000D01*
X129281346Y-91287000D01*
X129255198Y-91148034D01*
X129173069Y-91020401D01*
X129068193Y-90948742D01*
X129071883Y-90939855D01*
X129072117Y-90671323D01*
X128969571Y-90423143D01*
X128779856Y-90233097D01*
X128531855Y-90130117D01*
X128263323Y-90129883D01*
X128015143Y-90232429D01*
X127825097Y-90422144D01*
X127722117Y-90670145D01*
X127721883Y-90938677D01*
X125261994Y-90938677D01*
X125262117Y-90798323D01*
X125159571Y-90550143D01*
X125087000Y-90477445D01*
X125087000Y-90165346D01*
X125380000Y-90165346D01*
X125518966Y-90139198D01*
X125646599Y-90057069D01*
X125732223Y-89931754D01*
X125762346Y-89783000D01*
X125762346Y-89033000D01*
X125736198Y-88894034D01*
X125654069Y-88766401D01*
X125528754Y-88680777D01*
X125380000Y-88650654D01*
X124180000Y-88650654D01*
X124041034Y-88676802D01*
X123913401Y-88758931D01*
X123827777Y-88884246D01*
X123797654Y-89033000D01*
X118896739Y-89033000D01*
X118984848Y-88820812D01*
X118985151Y-88472715D01*
X118852221Y-88151000D01*
X118606295Y-87904644D01*
X118284812Y-87771152D01*
X117936715Y-87770849D01*
X117615000Y-87903779D01*
X117368644Y-88149705D01*
X117290000Y-88339100D01*
X117290000Y-82970000D01*
X120687654Y-82970000D01*
X120687654Y-84670000D01*
X120713802Y-84808966D01*
X120795931Y-84936599D01*
X120921246Y-85022223D01*
X121070000Y-85052346D01*
X122770000Y-85052346D01*
X122908966Y-85026198D01*
X123036599Y-84944069D01*
X123122223Y-84818754D01*
X123152346Y-84670000D01*
X123152346Y-82970000D01*
X123126198Y-82831034D01*
X123044069Y-82703401D01*
X122918754Y-82617777D01*
X122770000Y-82587654D01*
X121070000Y-82587654D01*
X120931034Y-82613802D01*
X120803401Y-82695931D01*
X120717777Y-82821246D01*
X120687654Y-82970000D01*
X117290000Y-82970000D01*
X117290000Y-81280000D01*
X118131001Y-81280000D01*
X118224249Y-81748787D01*
X118489795Y-82146206D01*
X118887214Y-82411752D01*
X119356001Y-82505000D01*
X119403999Y-82505000D01*
X119872786Y-82411752D01*
X120270205Y-82146206D01*
X120535751Y-81748787D01*
X120628999Y-81280000D01*
X120671001Y-81280000D01*
X120764249Y-81748787D01*
X121029795Y-82146206D01*
X121427214Y-82411752D01*
X121896001Y-82505000D01*
X121943999Y-82505000D01*
X122412786Y-82411752D01*
X122810205Y-82146206D01*
X123075751Y-81748787D01*
X123168999Y-81280000D01*
X123075751Y-80811213D01*
X122810205Y-80413794D01*
X122412786Y-80148248D01*
X121943999Y-80055000D01*
X121896001Y-80055000D01*
X121427214Y-80148248D01*
X121029795Y-80413794D01*
X120764249Y-80811213D01*
X120671001Y-81280000D01*
X120628999Y-81280000D01*
X120535751Y-80811213D01*
X120270205Y-80413794D01*
X119872786Y-80148248D01*
X119403999Y-80055000D01*
X119356001Y-80055000D01*
X118887214Y-80148248D01*
X118489795Y-80413794D01*
X118224249Y-80811213D01*
X118131001Y-81280000D01*
X117290000Y-81280000D01*
X117290000Y-78740000D01*
X118131001Y-78740000D01*
X118224249Y-79208787D01*
X118489795Y-79606206D01*
X118887214Y-79871752D01*
X119356001Y-79965000D01*
X119403999Y-79965000D01*
X119872786Y-79871752D01*
X120270205Y-79606206D01*
X120535751Y-79208787D01*
X120628999Y-78740000D01*
X120671001Y-78740000D01*
X120764249Y-79208787D01*
X121029795Y-79606206D01*
X121427214Y-79871752D01*
X121896001Y-79965000D01*
X121943999Y-79965000D01*
X122412786Y-79871752D01*
X122810205Y-79606206D01*
X123075751Y-79208787D01*
X123168999Y-78740000D01*
X123075751Y-78271213D01*
X122810205Y-77873794D01*
X122412786Y-77608248D01*
X121943999Y-77515000D01*
X121896001Y-77515000D01*
X121427214Y-77608248D01*
X121029795Y-77873794D01*
X120764249Y-78271213D01*
X120671001Y-78740000D01*
X120628999Y-78740000D01*
X120535751Y-78271213D01*
X120270205Y-77873794D01*
X119872786Y-77608248D01*
X119403999Y-77515000D01*
X119356001Y-77515000D01*
X118887214Y-77608248D01*
X118489795Y-77873794D01*
X118224249Y-78271213D01*
X118131001Y-78740000D01*
X117290000Y-78740000D01*
X117290000Y-76200000D01*
X118131001Y-76200000D01*
X118224249Y-76668787D01*
X118489795Y-77066206D01*
X118887214Y-77331752D01*
X119356001Y-77425000D01*
X119403999Y-77425000D01*
X119872786Y-77331752D01*
X120270205Y-77066206D01*
X120535751Y-76668787D01*
X120628999Y-76200000D01*
X120671001Y-76200000D01*
X120764249Y-76668787D01*
X121029795Y-77066206D01*
X121427214Y-77331752D01*
X121896001Y-77425000D01*
X121943999Y-77425000D01*
X122412786Y-77331752D01*
X122810205Y-77066206D01*
X123075751Y-76668787D01*
X123168999Y-76200000D01*
X123075751Y-75731213D01*
X122810205Y-75333794D01*
X122412786Y-75068248D01*
X121943999Y-74975000D01*
X121896001Y-74975000D01*
X121427214Y-75068248D01*
X121029795Y-75333794D01*
X120764249Y-75731213D01*
X120671001Y-76200000D01*
X120628999Y-76200000D01*
X120535751Y-75731213D01*
X120270205Y-75333794D01*
X119872786Y-75068248D01*
X119403999Y-74975000D01*
X119356001Y-74975000D01*
X118887214Y-75068248D01*
X118489795Y-75333794D01*
X118224249Y-75731213D01*
X118131001Y-76200000D01*
X117290000Y-76200000D01*
X117290000Y-73660000D01*
X120671001Y-73660000D01*
X120764249Y-74128787D01*
X121029795Y-74526206D01*
X121427214Y-74791752D01*
X121896001Y-74885000D01*
X121943999Y-74885000D01*
X122412786Y-74791752D01*
X122810205Y-74526206D01*
X122879832Y-74422000D01*
X124093000Y-74422000D01*
X124093000Y-78486000D01*
X124143888Y-78741832D01*
X124159605Y-78820848D01*
X124349282Y-79104718D01*
X124619660Y-79375096D01*
X124617654Y-79385000D01*
X124617654Y-80635000D01*
X124643802Y-80773966D01*
X124725931Y-80901599D01*
X124851246Y-80987223D01*
X124855000Y-80987983D01*
X124855000Y-81280000D01*
X124921605Y-81614848D01*
X125111282Y-81898718D01*
X126939968Y-83727404D01*
X126872143Y-83755429D01*
X126682097Y-83945144D01*
X126579117Y-84193145D01*
X126578883Y-84461677D01*
X126681429Y-84709857D01*
X126871144Y-84899903D01*
X127119145Y-85002883D01*
X127221867Y-85002973D01*
X128932447Y-86713553D01*
X129094658Y-86821940D01*
X129286000Y-86860000D01*
X131879366Y-86860000D01*
X131951144Y-86931903D01*
X132199145Y-87034883D01*
X132467677Y-87035117D01*
X132540565Y-87005000D01*
X136642654Y-87005000D01*
X136642654Y-88255000D01*
X136668802Y-88393966D01*
X136750931Y-88521599D01*
X136876246Y-88607223D01*
X137025000Y-88637346D01*
X137410339Y-88637346D01*
X137381654Y-88779000D01*
X137381654Y-89529000D01*
X137407802Y-89667966D01*
X137489931Y-89795599D01*
X137615246Y-89881223D01*
X137764000Y-89911346D01*
X138964000Y-89911346D01*
X139102966Y-89885198D01*
X139230599Y-89803069D01*
X139316223Y-89677754D01*
X139346346Y-89529000D01*
X139346346Y-88779000D01*
X139340255Y-88746629D01*
X139584090Y-88502794D01*
X139704654Y-88478813D01*
X139704654Y-89312000D01*
X139730802Y-89450966D01*
X139812931Y-89578599D01*
X139938246Y-89664223D01*
X140087000Y-89694346D01*
X140837000Y-89694346D01*
X140975966Y-89668198D01*
X141103599Y-89586069D01*
X141189223Y-89460754D01*
X141219346Y-89312000D01*
X141219346Y-88589294D01*
X141238000Y-88570672D01*
X141238000Y-88646000D01*
X141304605Y-88980848D01*
X141494282Y-89264718D01*
X141778152Y-89454395D01*
X142113000Y-89521000D01*
X142447848Y-89454395D01*
X142731718Y-89264718D01*
X142921395Y-88980848D01*
X142988000Y-88646000D01*
X142988000Y-87928235D01*
X143013548Y-87890000D01*
X143161174Y-87890000D01*
X143163802Y-87903966D01*
X143245931Y-88031599D01*
X143371246Y-88117223D01*
X143520000Y-88147346D01*
X144770000Y-88147346D01*
X144908966Y-88121198D01*
X145036599Y-88039069D01*
X145122223Y-87913754D01*
X145152346Y-87765000D01*
X145152346Y-86265000D01*
X145126198Y-86126034D01*
X145044069Y-85998401D01*
X144918754Y-85912777D01*
X144770000Y-85882654D01*
X143520000Y-85882654D01*
X143381034Y-85908802D01*
X143253401Y-85990931D01*
X143247346Y-85999793D01*
X143247346Y-85590000D01*
X143221198Y-85451034D01*
X143139069Y-85323401D01*
X143013754Y-85237777D01*
X142865000Y-85207654D01*
X141615000Y-85207654D01*
X141476034Y-85233802D01*
X141348401Y-85315931D01*
X141262777Y-85441246D01*
X141232654Y-85590000D01*
X141232654Y-87090000D01*
X141258802Y-87228966D01*
X141303846Y-87298967D01*
X141238000Y-87630000D01*
X141238000Y-87705484D01*
X141098856Y-87566097D01*
X140850855Y-87463117D01*
X140582323Y-87462883D01*
X140575000Y-87465909D01*
X140575000Y-87374750D01*
X140591599Y-87364069D01*
X140677223Y-87238754D01*
X140707346Y-87090000D01*
X140707346Y-85590000D01*
X140681198Y-85451034D01*
X140599069Y-85323401D01*
X140473754Y-85237777D01*
X140325000Y-85207654D01*
X139075000Y-85207654D01*
X138936034Y-85233802D01*
X138808401Y-85315931D01*
X138722777Y-85441246D01*
X138692654Y-85590000D01*
X138692654Y-86665691D01*
X138673754Y-86652777D01*
X138525000Y-86622654D01*
X137025000Y-86622654D01*
X136886034Y-86648802D01*
X136758401Y-86730931D01*
X136672777Y-86856246D01*
X136642654Y-87005000D01*
X132540565Y-87005000D01*
X132715857Y-86932571D01*
X132905903Y-86742856D01*
X133008883Y-86494855D01*
X133009117Y-86226323D01*
X132906571Y-85978143D01*
X132763450Y-85834772D01*
X132822223Y-85748754D01*
X132852346Y-85600000D01*
X132852346Y-84100000D01*
X132826198Y-83961034D01*
X132744069Y-83833401D01*
X132618754Y-83747777D01*
X132470000Y-83717654D01*
X130470000Y-83717654D01*
X130331034Y-83743802D01*
X130203401Y-83825931D01*
X130117777Y-83951246D01*
X130112967Y-83975000D01*
X129662437Y-83975000D01*
X127487437Y-81800000D01*
X130087654Y-81800000D01*
X130087654Y-83300000D01*
X130113802Y-83438966D01*
X130195931Y-83566599D01*
X130321246Y-83652223D01*
X130470000Y-83682346D01*
X132470000Y-83682346D01*
X132608966Y-83656198D01*
X132736599Y-83574069D01*
X132822223Y-83448754D01*
X132852346Y-83300000D01*
X132852346Y-81800000D01*
X132826198Y-81661034D01*
X132744069Y-81533401D01*
X132618754Y-81447777D01*
X132470000Y-81417654D01*
X130470000Y-81417654D01*
X130331034Y-81443802D01*
X130203401Y-81525931D01*
X130117777Y-81651246D01*
X130087654Y-81800000D01*
X127487437Y-81800000D01*
X126663103Y-80975667D01*
X126766599Y-80909069D01*
X126852223Y-80783754D01*
X126879308Y-80650000D01*
X136387654Y-80650000D01*
X136387654Y-84450000D01*
X136413802Y-84588966D01*
X136495931Y-84716599D01*
X136621246Y-84802223D01*
X136770000Y-84832346D01*
X138770000Y-84832346D01*
X138783670Y-84829774D01*
X138800931Y-84856599D01*
X138926246Y-84942223D01*
X139075000Y-84972346D01*
X140325000Y-84972346D01*
X140463966Y-84946198D01*
X140591599Y-84864069D01*
X140677223Y-84738754D01*
X140707346Y-84590000D01*
X140707346Y-83425000D01*
X141115564Y-83425000D01*
X141232654Y-83542090D01*
X141232654Y-84590000D01*
X141258802Y-84728966D01*
X141340931Y-84856599D01*
X141466246Y-84942223D01*
X141615000Y-84972346D01*
X142865000Y-84972346D01*
X143003966Y-84946198D01*
X143131599Y-84864069D01*
X143217223Y-84738754D01*
X143247346Y-84590000D01*
X143247346Y-83992187D01*
X143275779Y-84061000D01*
X143521705Y-84307356D01*
X143843188Y-84440848D01*
X144191285Y-84441151D01*
X144494173Y-84316000D01*
X146247340Y-84316000D01*
X149110000Y-87178660D01*
X149110000Y-110810000D01*
X149167090Y-111097013D01*
X149329670Y-111340330D01*
X152844254Y-114854914D01*
X152715327Y-115165403D01*
X152714676Y-115911324D01*
X152999526Y-116600714D01*
X153526511Y-117128620D01*
X154215403Y-117414673D01*
X154961324Y-117415324D01*
X155650714Y-117130474D01*
X156178620Y-116603489D01*
X156464673Y-115914597D01*
X156465324Y-115168676D01*
X156180474Y-114479286D01*
X155653489Y-113951380D01*
X154964597Y-113665327D01*
X154218676Y-113664676D01*
X153904961Y-113794301D01*
X150610000Y-110499340D01*
X150610000Y-98620660D01*
X152844254Y-100854914D01*
X152715327Y-101165403D01*
X152714676Y-101911324D01*
X152999526Y-102600714D01*
X153526511Y-103128620D01*
X154215403Y-103414673D01*
X154961324Y-103415324D01*
X155650714Y-103130474D01*
X156178620Y-102603489D01*
X156464673Y-101914597D01*
X156465324Y-101168676D01*
X156180474Y-100479286D01*
X155653489Y-99951380D01*
X154964597Y-99665327D01*
X154218676Y-99664676D01*
X153904961Y-99794301D01*
X151880000Y-97769340D01*
X151880000Y-86646660D01*
X152715051Y-87481711D01*
X152714676Y-87911324D01*
X152999526Y-88600714D01*
X153526511Y-89128620D01*
X154215403Y-89414673D01*
X154961324Y-89415324D01*
X155650714Y-89130474D01*
X156178620Y-88603489D01*
X156464673Y-87914597D01*
X156465324Y-87168676D01*
X156180474Y-86479286D01*
X155653489Y-85951380D01*
X154964597Y-85665327D01*
X154218676Y-85664676D01*
X153529286Y-85949526D01*
X153416638Y-86061978D01*
X150419337Y-83064677D01*
X157439883Y-83064677D01*
X157542429Y-83312857D01*
X157615000Y-83385555D01*
X157615000Y-95430366D01*
X157543097Y-95502144D01*
X157440117Y-95750145D01*
X157439883Y-96018677D01*
X157542429Y-96266857D01*
X157732144Y-96456903D01*
X157980145Y-96559883D01*
X158248677Y-96560117D01*
X158377000Y-96507095D01*
X158377000Y-102923366D01*
X158305097Y-102995144D01*
X158202117Y-103243145D01*
X158201883Y-103511677D01*
X158304429Y-103759857D01*
X158494144Y-103949903D01*
X158742145Y-104052883D01*
X159010677Y-104053117D01*
X159258857Y-103950571D01*
X159448903Y-103760856D01*
X159551883Y-103512855D01*
X159552117Y-103244323D01*
X159449571Y-102996143D01*
X159377000Y-102923445D01*
X159377000Y-89100634D01*
X159448903Y-89028856D01*
X159551883Y-88780855D01*
X159552117Y-88512323D01*
X159449571Y-88264143D01*
X159259856Y-88074097D01*
X159011855Y-87971117D01*
X158743323Y-87970883D01*
X158615000Y-88023905D01*
X158615000Y-83385634D01*
X158686903Y-83313856D01*
X158789883Y-83065855D01*
X158790117Y-82797323D01*
X158687571Y-82549143D01*
X158497856Y-82359097D01*
X158249855Y-82256117D01*
X157981323Y-82255883D01*
X157733143Y-82358429D01*
X157543097Y-82548144D01*
X157440117Y-82796145D01*
X157439883Y-83064677D01*
X150419337Y-83064677D01*
X146199330Y-78844670D01*
X145956013Y-78682090D01*
X145669000Y-78625000D01*
X143985478Y-78625000D01*
X143935928Y-78604425D01*
X143996246Y-78572300D01*
X144494456Y-78164673D01*
X146192013Y-78164673D01*
X148567670Y-80540330D01*
X148810987Y-80702910D01*
X149098000Y-80760000D01*
X149892522Y-80760000D01*
X150193188Y-80884848D01*
X150541285Y-80885151D01*
X150863000Y-80752221D01*
X151109356Y-80506295D01*
X151242848Y-80184812D01*
X151243151Y-79836715D01*
X151130941Y-79565146D01*
X151435344Y-79565411D01*
X152308572Y-79204601D01*
X152977253Y-78537086D01*
X153339587Y-77664489D01*
X153340411Y-76719656D01*
X152979601Y-75846428D01*
X152312086Y-75177747D01*
X151439489Y-74815413D01*
X150494656Y-74814589D01*
X149621428Y-75175399D01*
X148952747Y-75842914D01*
X148590413Y-76715511D01*
X148589589Y-77660344D01*
X148950399Y-78533572D01*
X149617914Y-79202253D01*
X149756984Y-79260000D01*
X149408660Y-79260000D01*
X147033003Y-76884343D01*
X146789686Y-76721763D01*
X146502673Y-76664673D01*
X145455058Y-76664673D01*
X145360469Y-76487073D01*
X145134536Y-76301088D01*
X144854629Y-76215722D01*
X144563360Y-76243969D01*
X144305073Y-76381531D01*
X144180588Y-76483382D01*
X144180587Y-76483383D01*
X143751804Y-76834205D01*
X143751802Y-76834208D01*
X143253594Y-77241832D01*
X142879279Y-77241832D01*
X143106206Y-77090205D01*
X143371752Y-76692786D01*
X143465000Y-76223999D01*
X143465000Y-76176001D01*
X143371752Y-75707214D01*
X143106206Y-75309795D01*
X142708787Y-75044249D01*
X142240000Y-74951001D01*
X141771213Y-75044249D01*
X141373794Y-75309795D01*
X141108248Y-75707214D01*
X141015000Y-76176001D01*
X141015000Y-76223999D01*
X141108248Y-76692786D01*
X141373794Y-77090205D01*
X141771213Y-77355751D01*
X141932955Y-77387924D01*
X141822838Y-77461502D01*
X141551686Y-77732654D01*
X140200000Y-77732654D01*
X140061034Y-77758802D01*
X139933401Y-77840931D01*
X139847777Y-77966246D01*
X139817654Y-78115000D01*
X139817654Y-79365000D01*
X139843802Y-79503966D01*
X139925931Y-79631599D01*
X140051246Y-79717223D01*
X140075000Y-79722033D01*
X140075000Y-81675000D01*
X139152346Y-81675000D01*
X139152346Y-80650000D01*
X139126198Y-80511034D01*
X139044069Y-80383401D01*
X138918754Y-80297777D01*
X138770000Y-80267654D01*
X136770000Y-80267654D01*
X136631034Y-80293802D01*
X136503401Y-80375931D01*
X136417777Y-80501246D01*
X136387654Y-80650000D01*
X126879308Y-80650000D01*
X126882346Y-80635000D01*
X126882346Y-79385000D01*
X126856198Y-79246034D01*
X126774069Y-79118401D01*
X126648754Y-79032777D01*
X126575251Y-79017892D01*
X126558395Y-78933152D01*
X126368718Y-78649282D01*
X125843000Y-78123564D01*
X125843000Y-76176001D01*
X130855000Y-76176001D01*
X130855000Y-76223999D01*
X130948248Y-76692786D01*
X131213794Y-77090205D01*
X131611213Y-77355751D01*
X132080000Y-77448999D01*
X132548787Y-77355751D01*
X132946206Y-77090205D01*
X133211752Y-76692786D01*
X133305000Y-76223999D01*
X133305000Y-76176001D01*
X133395000Y-76176001D01*
X133395000Y-76223999D01*
X133488248Y-76692786D01*
X133753794Y-77090205D01*
X134151213Y-77355751D01*
X134620000Y-77448999D01*
X135088787Y-77355751D01*
X135486206Y-77090205D01*
X135751752Y-76692786D01*
X135845000Y-76223999D01*
X135845000Y-76176001D01*
X135935000Y-76176001D01*
X135935000Y-76223999D01*
X136028248Y-76692786D01*
X136293794Y-77090205D01*
X136691213Y-77355751D01*
X137160000Y-77448999D01*
X137628787Y-77355751D01*
X138026206Y-77090205D01*
X138291752Y-76692786D01*
X138385000Y-76223999D01*
X138385000Y-76176001D01*
X138475000Y-76176001D01*
X138475000Y-76223999D01*
X138568248Y-76692786D01*
X138833794Y-77090205D01*
X139231213Y-77355751D01*
X139700000Y-77448999D01*
X140168787Y-77355751D01*
X140566206Y-77090205D01*
X140831752Y-76692786D01*
X140925000Y-76223999D01*
X140925000Y-76176001D01*
X140831752Y-75707214D01*
X140566206Y-75309795D01*
X140168787Y-75044249D01*
X139700000Y-74951001D01*
X139231213Y-75044249D01*
X138833794Y-75309795D01*
X138568248Y-75707214D01*
X138475000Y-76176001D01*
X138385000Y-76176001D01*
X138291752Y-75707214D01*
X138026206Y-75309795D01*
X137628787Y-75044249D01*
X137160000Y-74951001D01*
X136691213Y-75044249D01*
X136293794Y-75309795D01*
X136028248Y-75707214D01*
X135935000Y-76176001D01*
X135845000Y-76176001D01*
X135751752Y-75707214D01*
X135486206Y-75309795D01*
X135088787Y-75044249D01*
X134620000Y-74951001D01*
X134151213Y-75044249D01*
X133753794Y-75309795D01*
X133488248Y-75707214D01*
X133395000Y-76176001D01*
X133305000Y-76176001D01*
X133211752Y-75707214D01*
X132946206Y-75309795D01*
X132548787Y-75044249D01*
X132080000Y-74951001D01*
X131611213Y-75044249D01*
X131213794Y-75309795D01*
X130948248Y-75707214D01*
X130855000Y-76176001D01*
X125843000Y-76176001D01*
X125843000Y-74784436D01*
X126092437Y-74535000D01*
X126122956Y-74535000D01*
X126507214Y-74791752D01*
X126976001Y-74885000D01*
X127023999Y-74885000D01*
X127492786Y-74791752D01*
X127877044Y-74535000D01*
X128662956Y-74535000D01*
X129047214Y-74791752D01*
X129516001Y-74885000D01*
X129563999Y-74885000D01*
X130032786Y-74791752D01*
X130430205Y-74526206D01*
X130695751Y-74128787D01*
X130788999Y-73660000D01*
X130784226Y-73636001D01*
X130855000Y-73636001D01*
X130855000Y-73683999D01*
X130948248Y-74152786D01*
X131213794Y-74550205D01*
X131611213Y-74815751D01*
X132080000Y-74908999D01*
X132548787Y-74815751D01*
X132946206Y-74550205D01*
X133211752Y-74152786D01*
X133305000Y-73683999D01*
X133305000Y-73636001D01*
X133395000Y-73636001D01*
X133395000Y-73683999D01*
X133488248Y-74152786D01*
X133753794Y-74550205D01*
X134151213Y-74815751D01*
X134620000Y-74908999D01*
X135088787Y-74815751D01*
X135486206Y-74550205D01*
X135751752Y-74152786D01*
X135845000Y-73683999D01*
X135845000Y-73636001D01*
X135935000Y-73636001D01*
X135935000Y-73683999D01*
X136028248Y-74152786D01*
X136293794Y-74550205D01*
X136691213Y-74815751D01*
X137160000Y-74908999D01*
X137628787Y-74815751D01*
X138026206Y-74550205D01*
X138291752Y-74152786D01*
X138385000Y-73683999D01*
X138385000Y-73636001D01*
X138475000Y-73636001D01*
X138475000Y-73683999D01*
X138568248Y-74152786D01*
X138833794Y-74550205D01*
X139231213Y-74815751D01*
X139700000Y-74908999D01*
X140168787Y-74815751D01*
X140566206Y-74550205D01*
X140831752Y-74152786D01*
X140851973Y-74051128D01*
X152964657Y-74051128D01*
X153264700Y-74777286D01*
X153819791Y-75333348D01*
X154545425Y-75634657D01*
X155331128Y-75635343D01*
X156057286Y-75335300D01*
X156613348Y-74780209D01*
X156914657Y-74054575D01*
X156915343Y-73268872D01*
X156615300Y-72542714D01*
X156060209Y-71986652D01*
X155334575Y-71685343D01*
X154548872Y-71684657D01*
X153822714Y-71984700D01*
X153266652Y-72539791D01*
X152965343Y-73265425D01*
X152964657Y-74051128D01*
X140851973Y-74051128D01*
X140925000Y-73683999D01*
X140925000Y-73636001D01*
X140831752Y-73167214D01*
X140566206Y-72769795D01*
X140168787Y-72504249D01*
X139700000Y-72411001D01*
X139231213Y-72504249D01*
X138833794Y-72769795D01*
X138568248Y-73167214D01*
X138475000Y-73636001D01*
X138385000Y-73636001D01*
X138291752Y-73167214D01*
X138026206Y-72769795D01*
X137628787Y-72504249D01*
X137160000Y-72411001D01*
X136691213Y-72504249D01*
X136293794Y-72769795D01*
X136028248Y-73167214D01*
X135935000Y-73636001D01*
X135845000Y-73636001D01*
X135751752Y-73167214D01*
X135486206Y-72769795D01*
X135088787Y-72504249D01*
X134620000Y-72411001D01*
X134151213Y-72504249D01*
X133753794Y-72769795D01*
X133488248Y-73167214D01*
X133395000Y-73636001D01*
X133305000Y-73636001D01*
X133211752Y-73167214D01*
X132946206Y-72769795D01*
X132548787Y-72504249D01*
X132080000Y-72411001D01*
X131611213Y-72504249D01*
X131213794Y-72769795D01*
X130948248Y-73167214D01*
X130855000Y-73636001D01*
X130784226Y-73636001D01*
X130695751Y-73191213D01*
X130430205Y-72793794D01*
X130032786Y-72528248D01*
X129563999Y-72435000D01*
X129516001Y-72435000D01*
X129047214Y-72528248D01*
X128662956Y-72785000D01*
X127877044Y-72785000D01*
X127492786Y-72528248D01*
X127023999Y-72435000D01*
X126976001Y-72435000D01*
X126507214Y-72528248D01*
X126122956Y-72785000D01*
X125730000Y-72785000D01*
X125395152Y-72851605D01*
X125111282Y-73041281D01*
X124349282Y-73803282D01*
X124159605Y-74087152D01*
X124093000Y-74422000D01*
X122879832Y-74422000D01*
X123075751Y-74128787D01*
X123168999Y-73660000D01*
X123075751Y-73191213D01*
X122810205Y-72793794D01*
X122412786Y-72528248D01*
X121943999Y-72435000D01*
X121896001Y-72435000D01*
X121427214Y-72528248D01*
X121029795Y-72793794D01*
X120764249Y-73191213D01*
X120671001Y-73660000D01*
X117290000Y-73660000D01*
X117290000Y-71570000D01*
X159570000Y-71570000D01*
X159570000Y-124010000D01*
X159570000Y-124010000D01*
G37*
X159570000Y-124010000D02*
X117290000Y-124010000D01*
X117290000Y-121896001D01*
X125775000Y-121896001D01*
X125775000Y-121943999D01*
X125868248Y-122412786D01*
X126133794Y-122810205D01*
X126531213Y-123075751D01*
X127000000Y-123168999D01*
X127468787Y-123075751D01*
X127866206Y-122810205D01*
X128131752Y-122412786D01*
X128225000Y-121943999D01*
X128225000Y-121896001D01*
X128315000Y-121896001D01*
X128315000Y-121943999D01*
X128408248Y-122412786D01*
X128673794Y-122810205D01*
X129071213Y-123075751D01*
X129540000Y-123168999D01*
X130008787Y-123075751D01*
X130406206Y-122810205D01*
X130671752Y-122412786D01*
X130765000Y-121943999D01*
X130765000Y-121896001D01*
X130855000Y-121896001D01*
X130855000Y-121943999D01*
X130948248Y-122412786D01*
X131213794Y-122810205D01*
X131611213Y-123075751D01*
X132080000Y-123168999D01*
X132548787Y-123075751D01*
X132946206Y-122810205D01*
X133211752Y-122412786D01*
X133305000Y-121943999D01*
X133305000Y-121896001D01*
X133395000Y-121896001D01*
X133395000Y-121943999D01*
X133488248Y-122412786D01*
X133753794Y-122810205D01*
X134151213Y-123075751D01*
X134620000Y-123168999D01*
X135088787Y-123075751D01*
X135486206Y-122810205D01*
X135751752Y-122412786D01*
X135845000Y-121943999D01*
X135845000Y-121896001D01*
X135935000Y-121896001D01*
X135935000Y-121943999D01*
X136028248Y-122412786D01*
X136293794Y-122810205D01*
X136691213Y-123075751D01*
X137160000Y-123168999D01*
X137628787Y-123075751D01*
X138026206Y-122810205D01*
X138291752Y-122412786D01*
X138385000Y-121943999D01*
X138385000Y-121896001D01*
X138475000Y-121896001D01*
X138475000Y-121943999D01*
X138568248Y-122412786D01*
X138833794Y-122810205D01*
X139231213Y-123075751D01*
X139700000Y-123168999D01*
X140168787Y-123075751D01*
X140566206Y-122810205D01*
X140831752Y-122412786D01*
X140925000Y-121943999D01*
X140925000Y-121896001D01*
X141015000Y-121896001D01*
X141015000Y-121943999D01*
X141108248Y-122412786D01*
X141373794Y-122810205D01*
X141771213Y-123075751D01*
X142240000Y-123168999D01*
X142708787Y-123075751D01*
X143106206Y-122810205D01*
X143371752Y-122412786D01*
X143391973Y-122311128D01*
X152964657Y-122311128D01*
X153264700Y-123037286D01*
X153819791Y-123593348D01*
X154545425Y-123894657D01*
X155331128Y-123895343D01*
X156057286Y-123595300D01*
X156613348Y-123040209D01*
X156914657Y-122314575D01*
X156915343Y-121528872D01*
X156615300Y-120802714D01*
X156060209Y-120246652D01*
X155334575Y-119945343D01*
X154548872Y-119944657D01*
X153822714Y-120244700D01*
X153266652Y-120799791D01*
X152965343Y-121525425D01*
X152964657Y-122311128D01*
X143391973Y-122311128D01*
X143465000Y-121943999D01*
X143465000Y-121896001D01*
X143371752Y-121427214D01*
X143106206Y-121029795D01*
X142708787Y-120764249D01*
X142240000Y-120671001D01*
X141771213Y-120764249D01*
X141373794Y-121029795D01*
X141108248Y-121427214D01*
X141015000Y-121896001D01*
X140925000Y-121896001D01*
X140831752Y-121427214D01*
X140566206Y-121029795D01*
X140168787Y-120764249D01*
X139700000Y-120671001D01*
X139231213Y-120764249D01*
X138833794Y-121029795D01*
X138568248Y-121427214D01*
X138475000Y-121896001D01*
X138385000Y-121896001D01*
X138291752Y-121427214D01*
X138026206Y-121029795D01*
X137628787Y-120764249D01*
X137160000Y-120671001D01*
X136691213Y-120764249D01*
X136293794Y-121029795D01*
X136028248Y-121427214D01*
X135935000Y-121896001D01*
X135845000Y-121896001D01*
X135751752Y-121427214D01*
X135486206Y-121029795D01*
X135088787Y-120764249D01*
X134620000Y-120671001D01*
X134151213Y-120764249D01*
X133753794Y-121029795D01*
X133488248Y-121427214D01*
X133395000Y-121896001D01*
X133305000Y-121896001D01*
X133211752Y-121427214D01*
X132946206Y-121029795D01*
X132548787Y-120764249D01*
X132080000Y-120671001D01*
X131611213Y-120764249D01*
X131213794Y-121029795D01*
X130948248Y-121427214D01*
X130855000Y-121896001D01*
X130765000Y-121896001D01*
X130671752Y-121427214D01*
X130406206Y-121029795D01*
X130008787Y-120764249D01*
X129540000Y-120671001D01*
X129071213Y-120764249D01*
X128673794Y-121029795D01*
X128408248Y-121427214D01*
X128315000Y-121896001D01*
X128225000Y-121896001D01*
X128131752Y-121427214D01*
X127866206Y-121029795D01*
X127468787Y-120764249D01*
X127000000Y-120671001D01*
X126531213Y-120764249D01*
X126133794Y-121029795D01*
X125868248Y-121427214D01*
X125775000Y-121896001D01*
X117290000Y-121896001D01*
X117290000Y-88952761D01*
X117360000Y-89122173D01*
X117360000Y-118618000D01*
X117417090Y-118905013D01*
X117579670Y-119148330D01*
X118361670Y-119930330D01*
X118604987Y-120092910D01*
X118892000Y-120150000D01*
X123513476Y-120150000D01*
X123593794Y-120270205D01*
X123991213Y-120535751D01*
X124460000Y-120628999D01*
X124928787Y-120535751D01*
X125326206Y-120270205D01*
X125591752Y-119872786D01*
X125685000Y-119403999D01*
X125685000Y-119356001D01*
X125775000Y-119356001D01*
X125775000Y-119403999D01*
X125868248Y-119872786D01*
X126133794Y-120270205D01*
X126531213Y-120535751D01*
X127000000Y-120628999D01*
X127468787Y-120535751D01*
X127866206Y-120270205D01*
X128131752Y-119872786D01*
X128225000Y-119403999D01*
X128225000Y-119356001D01*
X128315000Y-119356001D01*
X128315000Y-119403999D01*
X128408248Y-119872786D01*
X128673794Y-120270205D01*
X129071213Y-120535751D01*
X129540000Y-120628999D01*
X130008787Y-120535751D01*
X130406206Y-120270205D01*
X130671752Y-119872786D01*
X130765000Y-119403999D01*
X130765000Y-119356001D01*
X130855000Y-119356001D01*
X130855000Y-119403999D01*
X130948248Y-119872786D01*
X131213794Y-120270205D01*
X131611213Y-120535751D01*
X132080000Y-120628999D01*
X132548787Y-120535751D01*
X132946206Y-120270205D01*
X133211752Y-119872786D01*
X133305000Y-119403999D01*
X133305000Y-119356001D01*
X133395000Y-119356001D01*
X133395000Y-119403999D01*
X133488248Y-119872786D01*
X133753794Y-120270205D01*
X134151213Y-120535751D01*
X134620000Y-120628999D01*
X135088787Y-120535751D01*
X135486206Y-120270205D01*
X135751752Y-119872786D01*
X135845000Y-119403999D01*
X135845000Y-119356001D01*
X135935000Y-119356001D01*
X135935000Y-119403999D01*
X136028248Y-119872786D01*
X136293794Y-120270205D01*
X136691213Y-120535751D01*
X137160000Y-120628999D01*
X137628787Y-120535751D01*
X138026206Y-120270205D01*
X138291752Y-119872786D01*
X138385000Y-119403999D01*
X138385000Y-119356001D01*
X138475000Y-119356001D01*
X138475000Y-119403999D01*
X138568248Y-119872786D01*
X138833794Y-120270205D01*
X139231213Y-120535751D01*
X139700000Y-120628999D01*
X140168787Y-120535751D01*
X140566206Y-120270205D01*
X140831752Y-119872786D01*
X140925000Y-119403999D01*
X140925000Y-119356001D01*
X141015000Y-119356001D01*
X141015000Y-119403999D01*
X141108248Y-119872786D01*
X141373794Y-120270205D01*
X141771213Y-120535751D01*
X142240000Y-120628999D01*
X142708787Y-120535751D01*
X143106206Y-120270205D01*
X143371752Y-119872786D01*
X143465000Y-119403999D01*
X143465000Y-119356001D01*
X143371752Y-118887214D01*
X143353799Y-118860344D01*
X148589589Y-118860344D01*
X148950399Y-119733572D01*
X149617914Y-120402253D01*
X150490511Y-120764587D01*
X151435344Y-120765411D01*
X152308572Y-120404601D01*
X152977253Y-119737086D01*
X153339587Y-118864489D01*
X153340411Y-117919656D01*
X152979601Y-117046428D01*
X152312086Y-116377747D01*
X151439489Y-116015413D01*
X150494656Y-116014589D01*
X149621428Y-116375399D01*
X148952747Y-117042914D01*
X148590413Y-117915511D01*
X148589589Y-118860344D01*
X143353799Y-118860344D01*
X143106206Y-118489795D01*
X142708787Y-118224249D01*
X142240000Y-118131001D01*
X141771213Y-118224249D01*
X141373794Y-118489795D01*
X141108248Y-118887214D01*
X141015000Y-119356001D01*
X140925000Y-119356001D01*
X140831752Y-118887214D01*
X140566206Y-118489795D01*
X140168787Y-118224249D01*
X139700000Y-118131001D01*
X139231213Y-118224249D01*
X138833794Y-118489795D01*
X138568248Y-118887214D01*
X138475000Y-119356001D01*
X138385000Y-119356001D01*
X138291752Y-118887214D01*
X138026206Y-118489795D01*
X137628787Y-118224249D01*
X137160000Y-118131001D01*
X136691213Y-118224249D01*
X136293794Y-118489795D01*
X136028248Y-118887214D01*
X135935000Y-119356001D01*
X135845000Y-119356001D01*
X135751752Y-118887214D01*
X135486206Y-118489795D01*
X135088787Y-118224249D01*
X134620000Y-118131001D01*
X134151213Y-118224249D01*
X133753794Y-118489795D01*
X133488248Y-118887214D01*
X133395000Y-119356001D01*
X133305000Y-119356001D01*
X133211752Y-118887214D01*
X132946206Y-118489795D01*
X132548787Y-118224249D01*
X132080000Y-118131001D01*
X131611213Y-118224249D01*
X131213794Y-118489795D01*
X130948248Y-118887214D01*
X130855000Y-119356001D01*
X130765000Y-119356001D01*
X130671752Y-118887214D01*
X130406206Y-118489795D01*
X130008787Y-118224249D01*
X129540000Y-118131001D01*
X129071213Y-118224249D01*
X128673794Y-118489795D01*
X128408248Y-118887214D01*
X128315000Y-119356001D01*
X128225000Y-119356001D01*
X128131752Y-118887214D01*
X127866206Y-118489795D01*
X127468787Y-118224249D01*
X127000000Y-118131001D01*
X126531213Y-118224249D01*
X126133794Y-118489795D01*
X125868248Y-118887214D01*
X125775000Y-119356001D01*
X125685000Y-119356001D01*
X125591752Y-118887214D01*
X125326206Y-118489795D01*
X124928787Y-118224249D01*
X124460000Y-118131001D01*
X123991213Y-118224249D01*
X123593794Y-118489795D01*
X123486749Y-118650000D01*
X119202660Y-118650000D01*
X118860000Y-118307340D01*
X118860000Y-117336000D01*
X119568000Y-117336000D01*
X119855013Y-117278910D01*
X119900755Y-117248346D01*
X120263000Y-117248346D01*
X120401966Y-117222198D01*
X120529599Y-117140069D01*
X120569276Y-117082000D01*
X120936522Y-117082000D01*
X121237188Y-117206848D01*
X121585285Y-117207151D01*
X121907000Y-117074221D01*
X122153356Y-116828295D01*
X122286848Y-116506812D01*
X122287151Y-116158715D01*
X122154221Y-115837000D01*
X121908295Y-115590644D01*
X121586812Y-115457152D01*
X121238715Y-115456849D01*
X120935827Y-115582000D01*
X120629540Y-115582000D01*
X120619198Y-115527034D01*
X120537069Y-115399401D01*
X120411754Y-115313777D01*
X120263000Y-115283654D01*
X119513000Y-115283654D01*
X119374034Y-115309802D01*
X119246401Y-115391931D01*
X119160777Y-115517246D01*
X119130654Y-115666000D01*
X119130654Y-115836000D01*
X118860000Y-115836000D01*
X118860000Y-110877000D01*
X122527654Y-110877000D01*
X122527654Y-111627000D01*
X122553802Y-111765966D01*
X122635931Y-111893599D01*
X122761246Y-111979223D01*
X122910000Y-112009346D01*
X124110000Y-112009346D01*
X124248966Y-111983198D01*
X124376599Y-111901069D01*
X124462223Y-111775754D01*
X124492346Y-111627000D01*
X124492346Y-110877000D01*
X124466198Y-110738034D01*
X124384069Y-110610401D01*
X124258754Y-110524777D01*
X124110000Y-110494654D01*
X123944000Y-110494654D01*
X123944000Y-110182634D01*
X124015903Y-110110856D01*
X124118883Y-109862855D01*
X124118884Y-109861677D01*
X125054883Y-109861677D01*
X125157429Y-110109857D01*
X125347144Y-110299903D01*
X125595145Y-110402883D01*
X125863677Y-110403117D01*
X125967960Y-110360028D01*
X125968246Y-110360223D01*
X126117000Y-110390346D01*
X126867000Y-110390346D01*
X127005966Y-110364198D01*
X127133599Y-110282069D01*
X127219223Y-110156754D01*
X127227541Y-110115677D01*
X129519883Y-110115677D01*
X129622429Y-110363857D01*
X129812144Y-110553903D01*
X130060145Y-110656883D01*
X130328677Y-110657117D01*
X130576857Y-110554571D01*
X130741369Y-110390346D01*
X131185000Y-110390346D01*
X131323966Y-110364198D01*
X131451599Y-110282069D01*
X131537223Y-110156754D01*
X131567346Y-110008000D01*
X131567346Y-109861677D01*
X135468883Y-109861677D01*
X135571429Y-110109857D01*
X135761144Y-110299903D01*
X136009145Y-110402883D01*
X136277677Y-110403117D01*
X136381960Y-110360028D01*
X136382246Y-110360223D01*
X136531000Y-110390346D01*
X137281000Y-110390346D01*
X137419966Y-110364198D01*
X137547599Y-110282069D01*
X137633223Y-110156754D01*
X137663346Y-110008000D01*
X137663346Y-108808000D01*
X137637198Y-108669034D01*
X137555069Y-108541401D01*
X137429754Y-108455777D01*
X137281000Y-108425654D01*
X136531000Y-108425654D01*
X136392034Y-108451802D01*
X136264401Y-108533931D01*
X136178777Y-108659246D01*
X136148654Y-108808000D01*
X136148654Y-109028917D01*
X136112653Y-109052972D01*
X136010323Y-109052883D01*
X135762143Y-109155429D01*
X135572097Y-109345144D01*
X135469117Y-109593145D01*
X135468883Y-109861677D01*
X131567346Y-109861677D01*
X131567346Y-108808000D01*
X131541198Y-108669034D01*
X131459069Y-108541401D01*
X131333754Y-108455777D01*
X131185000Y-108425654D01*
X130435000Y-108425654D01*
X130296034Y-108451802D01*
X130168401Y-108533931D01*
X130082777Y-108659246D01*
X130052654Y-108808000D01*
X130052654Y-109310465D01*
X129813143Y-109409429D01*
X129623097Y-109599144D01*
X129520117Y-109847145D01*
X129519883Y-110115677D01*
X127227541Y-110115677D01*
X127249346Y-110008000D01*
X127249346Y-108808000D01*
X127223198Y-108669034D01*
X127141069Y-108541401D01*
X127015754Y-108455777D01*
X126867000Y-108425654D01*
X126117000Y-108425654D01*
X125978034Y-108451802D01*
X125850401Y-108533931D01*
X125764777Y-108659246D01*
X125734654Y-108808000D01*
X125734654Y-109028917D01*
X125698653Y-109052972D01*
X125596323Y-109052883D01*
X125348143Y-109155429D01*
X125158097Y-109345144D01*
X125055117Y-109593145D01*
X125054883Y-109861677D01*
X124118884Y-109861677D01*
X124118973Y-109760133D01*
X124940553Y-108938553D01*
X125048940Y-108776342D01*
X125051906Y-108761429D01*
X125087000Y-108585000D01*
X125087000Y-107642634D01*
X125158903Y-107570856D01*
X125261883Y-107322855D01*
X125261884Y-107321677D01*
X137754883Y-107321677D01*
X137857429Y-107569857D01*
X138047144Y-107759903D01*
X138295145Y-107862883D01*
X138563677Y-107863117D01*
X138811857Y-107760571D01*
X138884555Y-107688000D01*
X139619894Y-107688000D01*
X140167972Y-108236078D01*
X140167883Y-108337677D01*
X140270429Y-108585857D01*
X140353265Y-108668838D01*
X140329855Y-108659117D01*
X140061323Y-108658883D01*
X139813143Y-108761429D01*
X139623097Y-108951144D01*
X139520117Y-109199145D01*
X139519883Y-109467677D01*
X139622429Y-109715857D01*
X139799654Y-109893391D01*
X139799654Y-110103000D01*
X139825802Y-110241966D01*
X139907931Y-110369599D01*
X140033246Y-110455223D01*
X140182000Y-110485346D01*
X141382000Y-110485346D01*
X141520966Y-110459198D01*
X141648599Y-110377069D01*
X141734223Y-110251754D01*
X141764346Y-110103000D01*
X141764346Y-109353000D01*
X141738198Y-109214034D01*
X141656069Y-109086401D01*
X141530754Y-109000777D01*
X141382000Y-108970654D01*
X140775220Y-108970654D01*
X140767571Y-108952143D01*
X140684735Y-108869162D01*
X140708145Y-108878883D01*
X140976677Y-108879117D01*
X141224857Y-108776571D01*
X141363670Y-108638000D01*
X141736654Y-108638000D01*
X141736654Y-108738000D01*
X141762802Y-108876966D01*
X141844931Y-109004599D01*
X141970246Y-109090223D01*
X142119000Y-109120346D01*
X142869000Y-109120346D01*
X143007966Y-109094198D01*
X143135599Y-109012069D01*
X143221223Y-108886754D01*
X143251346Y-108738000D01*
X143251346Y-107538000D01*
X143225198Y-107399034D01*
X143143069Y-107271401D01*
X143017754Y-107185777D01*
X142869000Y-107155654D01*
X142119000Y-107155654D01*
X141980034Y-107181802D01*
X141852401Y-107263931D01*
X141766777Y-107389246D01*
X141736654Y-107538000D01*
X141736654Y-107638000D01*
X141231749Y-107638000D01*
X141225856Y-107632097D01*
X140977855Y-107529117D01*
X140875133Y-107529027D01*
X140180553Y-106834447D01*
X140018342Y-106726060D01*
X139827000Y-106688000D01*
X138884634Y-106688000D01*
X138812856Y-106616097D01*
X138564855Y-106513117D01*
X138296323Y-106512883D01*
X138048143Y-106615429D01*
X137858097Y-106805144D01*
X137755117Y-107053145D01*
X137754883Y-107321677D01*
X125261884Y-107321677D01*
X125262117Y-107054323D01*
X125159571Y-106806143D01*
X124969856Y-106616097D01*
X124721855Y-106513117D01*
X124453323Y-106512883D01*
X124205143Y-106615429D01*
X124015097Y-106805144D01*
X123912117Y-107053145D01*
X123911883Y-107321677D01*
X124014429Y-107569857D01*
X124087000Y-107642555D01*
X124087000Y-108377894D01*
X123411922Y-109052972D01*
X123310323Y-109052883D01*
X123062143Y-109155429D01*
X122872097Y-109345144D01*
X122769117Y-109593145D01*
X122768883Y-109861677D01*
X122871429Y-110109857D01*
X122944000Y-110182555D01*
X122944000Y-110494654D01*
X122910000Y-110494654D01*
X122771034Y-110520802D01*
X122643401Y-110602931D01*
X122557777Y-110728246D01*
X122527654Y-110877000D01*
X118860000Y-110877000D01*
X118860000Y-106908000D01*
X120146654Y-106908000D01*
X120146654Y-108108000D01*
X120172802Y-108246966D01*
X120254931Y-108374599D01*
X120380246Y-108460223D01*
X120529000Y-108490346D01*
X121279000Y-108490346D01*
X121417966Y-108464198D01*
X121545599Y-108382069D01*
X121631223Y-108256754D01*
X121661346Y-108108000D01*
X121661346Y-108065477D01*
X121785145Y-108116883D01*
X122053677Y-108117117D01*
X122301857Y-108014571D01*
X122491903Y-107824856D01*
X122594883Y-107576855D01*
X122595117Y-107308323D01*
X122492571Y-107060143D01*
X122351868Y-106919194D01*
X122402000Y-106929346D01*
X123602000Y-106929346D01*
X123740966Y-106903198D01*
X123868599Y-106821069D01*
X123954223Y-106695754D01*
X123984346Y-106547000D01*
X123984346Y-105797000D01*
X123958198Y-105658034D01*
X123876069Y-105530401D01*
X123750754Y-105444777D01*
X123602000Y-105414654D01*
X122402000Y-105414654D01*
X122352560Y-105423957D01*
X122376397Y-105400161D01*
X122402000Y-105405346D01*
X123602000Y-105405346D01*
X123740966Y-105379198D01*
X123868599Y-105297069D01*
X123954223Y-105171754D01*
X123984346Y-105023000D01*
X123984346Y-104273000D01*
X123958198Y-104134034D01*
X123876069Y-104006401D01*
X123750754Y-103920777D01*
X123602000Y-103890654D01*
X122402000Y-103890654D01*
X122263034Y-103916802D01*
X122135401Y-103998931D01*
X122049777Y-104124246D01*
X122039551Y-104174743D01*
X121982658Y-104186060D01*
X121921386Y-104227001D01*
X121786323Y-104226883D01*
X121538143Y-104329429D01*
X121348097Y-104519144D01*
X121245117Y-104767145D01*
X121244883Y-105035677D01*
X121347429Y-105283857D01*
X121537144Y-105473903D01*
X121689165Y-105537028D01*
X121538143Y-105599429D01*
X121348097Y-105789144D01*
X121245117Y-106037145D01*
X121244883Y-106305677D01*
X121340960Y-106538201D01*
X121279000Y-106525654D01*
X120529000Y-106525654D01*
X120390034Y-106551802D01*
X120262401Y-106633931D01*
X120176777Y-106759246D01*
X120146654Y-106908000D01*
X118860000Y-106908000D01*
X118860000Y-103003677D01*
X121244883Y-103003677D01*
X121347429Y-103251857D01*
X121537144Y-103441903D01*
X121785145Y-103544883D01*
X122053677Y-103545117D01*
X122130518Y-103513367D01*
X122253246Y-103597223D01*
X122402000Y-103627346D01*
X123602000Y-103627346D01*
X123740966Y-103601198D01*
X123868599Y-103519069D01*
X123954223Y-103393754D01*
X123984346Y-103245000D01*
X123984346Y-102495000D01*
X139667654Y-102495000D01*
X139667654Y-103245000D01*
X139693802Y-103383966D01*
X139772705Y-103506585D01*
X139697777Y-103616246D01*
X139667654Y-103765000D01*
X139667654Y-104515000D01*
X139693802Y-104653966D01*
X139775931Y-104781599D01*
X139901246Y-104867223D01*
X140050000Y-104897346D01*
X140270918Y-104897346D01*
X140294972Y-104933346D01*
X140294883Y-105035677D01*
X140397429Y-105283857D01*
X140587144Y-105473903D01*
X140835145Y-105576883D01*
X141103677Y-105577117D01*
X141351857Y-105474571D01*
X141541903Y-105284856D01*
X141644883Y-105036855D01*
X141645117Y-104768323D01*
X141602028Y-104664040D01*
X141602223Y-104663754D01*
X141632346Y-104515000D01*
X141632346Y-103765000D01*
X141606198Y-103626034D01*
X141527295Y-103503415D01*
X141602223Y-103393754D01*
X141632346Y-103245000D01*
X141632346Y-102527047D01*
X141644883Y-102496855D01*
X141645117Y-102228323D01*
X141542571Y-101980143D01*
X141352856Y-101790097D01*
X141104855Y-101687117D01*
X140836323Y-101686883D01*
X140588143Y-101789429D01*
X140398097Y-101979144D01*
X140342658Y-102112654D01*
X140050000Y-102112654D01*
X139911034Y-102138802D01*
X139783401Y-102220931D01*
X139697777Y-102346246D01*
X139667654Y-102495000D01*
X123984346Y-102495000D01*
X123958198Y-102356034D01*
X123876069Y-102228401D01*
X123750754Y-102142777D01*
X123602000Y-102112654D01*
X122402000Y-102112654D01*
X122263034Y-102138802D01*
X122135401Y-102220931D01*
X122131339Y-102226876D01*
X122054855Y-102195117D01*
X121786323Y-102194883D01*
X121538143Y-102297429D01*
X121348097Y-102487144D01*
X121245117Y-102735145D01*
X121244883Y-103003677D01*
X118860000Y-103003677D01*
X118860000Y-99447000D01*
X139667654Y-99447000D01*
X139667654Y-100197000D01*
X139693802Y-100335966D01*
X139775931Y-100463599D01*
X139901246Y-100549223D01*
X140050000Y-100579346D01*
X140270918Y-100579346D01*
X140294972Y-100615346D01*
X140294883Y-100717677D01*
X140397429Y-100965857D01*
X140587144Y-101155903D01*
X140835145Y-101258883D01*
X141103677Y-101259117D01*
X141351857Y-101156571D01*
X141541903Y-100966856D01*
X141644883Y-100718855D01*
X141645117Y-100450323D01*
X141602028Y-100346040D01*
X141602223Y-100345754D01*
X141632346Y-100197000D01*
X141632346Y-99447000D01*
X141606198Y-99308034D01*
X141524069Y-99180401D01*
X141398754Y-99094777D01*
X141250000Y-99064654D01*
X140050000Y-99064654D01*
X139911034Y-99090802D01*
X139783401Y-99172931D01*
X139697777Y-99298246D01*
X139667654Y-99447000D01*
X118860000Y-99447000D01*
X118860000Y-97923677D01*
X121244883Y-97923677D01*
X121347429Y-98171857D01*
X121537144Y-98361903D01*
X121785145Y-98464883D01*
X122053677Y-98465117D01*
X122130518Y-98433367D01*
X122253246Y-98517223D01*
X122402000Y-98547346D01*
X123602000Y-98547346D01*
X123740966Y-98521198D01*
X123868599Y-98439069D01*
X123954223Y-98313754D01*
X123984346Y-98165000D01*
X123984346Y-97415000D01*
X123958198Y-97276034D01*
X123876069Y-97148401D01*
X123750754Y-97062777D01*
X123602000Y-97032654D01*
X122402000Y-97032654D01*
X122263034Y-97058802D01*
X122135401Y-97140931D01*
X122131339Y-97146876D01*
X122054855Y-97115117D01*
X121786323Y-97114883D01*
X121538143Y-97217429D01*
X121348097Y-97407144D01*
X121245117Y-97655145D01*
X121244883Y-97923677D01*
X118860000Y-97923677D01*
X118860000Y-95713677D01*
X121244883Y-95713677D01*
X121347429Y-95961857D01*
X121537144Y-96151903D01*
X121785145Y-96254883D01*
X122053677Y-96255117D01*
X122199832Y-96194727D01*
X122253246Y-96231223D01*
X122402000Y-96261346D01*
X123602000Y-96261346D01*
X123740966Y-96235198D01*
X123868599Y-96153069D01*
X123954223Y-96027754D01*
X123984346Y-95879000D01*
X123984346Y-95129000D01*
X123958198Y-94990034D01*
X123876069Y-94862401D01*
X123750754Y-94776777D01*
X123602000Y-94746654D01*
X122402000Y-94746654D01*
X122263034Y-94772802D01*
X122135401Y-94854931D01*
X122090887Y-94920079D01*
X122054855Y-94905117D01*
X121786323Y-94904883D01*
X121538143Y-95007429D01*
X121348097Y-95197144D01*
X121245117Y-95445145D01*
X121244883Y-95713677D01*
X118860000Y-95713677D01*
X118860000Y-93097677D01*
X121244883Y-93097677D01*
X121347429Y-93345857D01*
X121537144Y-93535903D01*
X121785145Y-93638883D01*
X122053677Y-93639117D01*
X122194276Y-93581023D01*
X122204802Y-93636966D01*
X122286931Y-93764599D01*
X122412246Y-93850223D01*
X122561000Y-93880346D01*
X123311000Y-93880346D01*
X123449966Y-93854198D01*
X123577599Y-93772069D01*
X123663223Y-93646754D01*
X123693346Y-93498000D01*
X123693346Y-92298000D01*
X123667198Y-92159034D01*
X123585069Y-92031401D01*
X123459754Y-91945777D01*
X123311000Y-91915654D01*
X122561000Y-91915654D01*
X122422034Y-91941802D01*
X122294401Y-92023931D01*
X122208777Y-92149246D01*
X122178654Y-92298000D01*
X122178654Y-92340523D01*
X122054855Y-92289117D01*
X121786323Y-92288883D01*
X121538143Y-92391429D01*
X121348097Y-92581144D01*
X121245117Y-92829145D01*
X121244883Y-93097677D01*
X118860000Y-93097677D01*
X118860000Y-89121478D01*
X118896739Y-89033000D01*
X123797654Y-89033000D01*
X123797654Y-89783000D01*
X123823802Y-89921966D01*
X123905931Y-90049599D01*
X124031246Y-90135223D01*
X124087000Y-90146513D01*
X124087000Y-90477366D01*
X124015097Y-90549144D01*
X123912117Y-90797145D01*
X123911883Y-91065677D01*
X124014429Y-91313857D01*
X124087000Y-91386555D01*
X124087000Y-93017366D01*
X124015097Y-93089144D01*
X123912117Y-93337145D01*
X123911883Y-93605677D01*
X124014429Y-93853857D01*
X124204144Y-94043903D01*
X124452145Y-94146883D01*
X124720677Y-94147117D01*
X124803246Y-94113000D01*
X139667654Y-94113000D01*
X139667654Y-94863000D01*
X139693802Y-95001966D01*
X139775931Y-95129599D01*
X139901246Y-95215223D01*
X140050000Y-95245346D01*
X141250000Y-95245346D01*
X141388966Y-95219198D01*
X141516599Y-95137069D01*
X141602223Y-95011754D01*
X141632346Y-94863000D01*
X141632346Y-94145047D01*
X141644883Y-94114855D01*
X141645117Y-93846323D01*
X141542571Y-93598143D01*
X141352856Y-93408097D01*
X141104855Y-93305117D01*
X140836323Y-93304883D01*
X140588143Y-93407429D01*
X140398097Y-93597144D01*
X140342658Y-93730654D01*
X140050000Y-93730654D01*
X139911034Y-93756802D01*
X139783401Y-93838931D01*
X139697777Y-93964246D01*
X139667654Y-94113000D01*
X124803246Y-94113000D01*
X124968857Y-94044571D01*
X125158903Y-93854856D01*
X125261883Y-93606855D01*
X125262117Y-93338323D01*
X125159571Y-93090143D01*
X125087000Y-93017445D01*
X125087000Y-91386634D01*
X125158903Y-91314856D01*
X125261883Y-91066855D01*
X125261994Y-90938677D01*
X127721883Y-90938677D01*
X127801492Y-91131345D01*
X127796777Y-91138246D01*
X127766654Y-91287000D01*
X127766654Y-92487000D01*
X127792802Y-92625966D01*
X127874931Y-92753599D01*
X128000246Y-92839223D01*
X128149000Y-92869346D01*
X128899000Y-92869346D01*
X129037966Y-92843198D01*
X129165599Y-92761069D01*
X129251223Y-92635754D01*
X129281346Y-92487000D01*
X129281346Y-91287000D01*
X132338654Y-91287000D01*
X132338654Y-92487000D01*
X132364802Y-92625966D01*
X132446931Y-92753599D01*
X132572246Y-92839223D01*
X132721000Y-92869346D01*
X133471000Y-92869346D01*
X133609966Y-92843198D01*
X133737599Y-92761069D01*
X133823223Y-92635754D01*
X133853346Y-92487000D01*
X133853346Y-91287000D01*
X133829450Y-91160000D01*
X135640654Y-91160000D01*
X135640654Y-92360000D01*
X135666802Y-92498966D01*
X135748931Y-92626599D01*
X135874246Y-92712223D01*
X136023000Y-92742346D01*
X136773000Y-92742346D01*
X136911966Y-92716198D01*
X137039599Y-92634069D01*
X137125223Y-92508754D01*
X137155346Y-92360000D01*
X137155346Y-91567000D01*
X137680000Y-91567000D01*
X137680000Y-93218000D01*
X137737090Y-93505013D01*
X137899670Y-93748330D01*
X138142987Y-93910910D01*
X138430000Y-93968000D01*
X138717013Y-93910910D01*
X138960330Y-93748330D01*
X139122910Y-93505013D01*
X139180000Y-93218000D01*
X139180000Y-91877660D01*
X139722330Y-91335330D01*
X139884910Y-91092012D01*
X139890282Y-91065000D01*
X142207654Y-91065000D01*
X142207654Y-91815000D01*
X142233802Y-91953966D01*
X142315931Y-92081599D01*
X142441246Y-92167223D01*
X142590000Y-92197346D01*
X143790000Y-92197346D01*
X143928966Y-92171198D01*
X143943851Y-92161620D01*
X144137145Y-92241883D01*
X144405677Y-92242117D01*
X144653857Y-92139571D01*
X144843903Y-91949856D01*
X144946883Y-91701855D01*
X144947117Y-91433323D01*
X144844571Y-91185143D01*
X144654856Y-90995097D01*
X144406855Y-90892117D01*
X144138323Y-90891883D01*
X144127184Y-90896485D01*
X144064069Y-90798401D01*
X143938754Y-90712777D01*
X143790000Y-90682654D01*
X142590000Y-90682654D01*
X142451034Y-90708802D01*
X142323401Y-90790931D01*
X142237777Y-90916246D01*
X142207654Y-91065000D01*
X139890282Y-91065000D01*
X139942000Y-90805000D01*
X139884910Y-90517987D01*
X139722330Y-90274670D01*
X139479013Y-90112090D01*
X139192000Y-90055000D01*
X138904988Y-90112090D01*
X138661670Y-90274670D01*
X137899670Y-91036670D01*
X137737090Y-91279987D01*
X137680000Y-91567000D01*
X137155346Y-91567000D01*
X137155346Y-91160000D01*
X137129198Y-91021034D01*
X137072889Y-90933526D01*
X137073117Y-90671323D01*
X136970571Y-90423143D01*
X136780856Y-90233097D01*
X136532855Y-90130117D01*
X136264323Y-90129883D01*
X136016143Y-90232429D01*
X135826097Y-90422144D01*
X135723117Y-90670145D01*
X135722886Y-90934982D01*
X135670777Y-91011246D01*
X135640654Y-91160000D01*
X133829450Y-91160000D01*
X133827198Y-91148034D01*
X133817620Y-91133149D01*
X133897883Y-90939855D01*
X133898117Y-90671323D01*
X133795571Y-90423143D01*
X133605856Y-90233097D01*
X133357855Y-90130117D01*
X133089323Y-90129883D01*
X132841143Y-90232429D01*
X132651097Y-90422144D01*
X132548117Y-90670145D01*
X132547883Y-90938677D01*
X132552485Y-90949816D01*
X132454401Y-91012931D01*
X132368777Y-91138246D01*
X132338654Y-91287000D01*
X129281346Y-91287000D01*
X129255198Y-91148034D01*
X129173069Y-91020401D01*
X129068193Y-90948742D01*
X129071883Y-90939855D01*
X129072117Y-90671323D01*
X128969571Y-90423143D01*
X128779856Y-90233097D01*
X128531855Y-90130117D01*
X128263323Y-90129883D01*
X128015143Y-90232429D01*
X127825097Y-90422144D01*
X127722117Y-90670145D01*
X127721883Y-90938677D01*
X125261994Y-90938677D01*
X125262117Y-90798323D01*
X125159571Y-90550143D01*
X125087000Y-90477445D01*
X125087000Y-90165346D01*
X125380000Y-90165346D01*
X125518966Y-90139198D01*
X125646599Y-90057069D01*
X125732223Y-89931754D01*
X125762346Y-89783000D01*
X125762346Y-89033000D01*
X125736198Y-88894034D01*
X125654069Y-88766401D01*
X125528754Y-88680777D01*
X125380000Y-88650654D01*
X124180000Y-88650654D01*
X124041034Y-88676802D01*
X123913401Y-88758931D01*
X123827777Y-88884246D01*
X123797654Y-89033000D01*
X118896739Y-89033000D01*
X118984848Y-88820812D01*
X118985151Y-88472715D01*
X118852221Y-88151000D01*
X118606295Y-87904644D01*
X118284812Y-87771152D01*
X117936715Y-87770849D01*
X117615000Y-87903779D01*
X117368644Y-88149705D01*
X117290000Y-88339100D01*
X117290000Y-82970000D01*
X120687654Y-82970000D01*
X120687654Y-84670000D01*
X120713802Y-84808966D01*
X120795931Y-84936599D01*
X120921246Y-85022223D01*
X121070000Y-85052346D01*
X122770000Y-85052346D01*
X122908966Y-85026198D01*
X123036599Y-84944069D01*
X123122223Y-84818754D01*
X123152346Y-84670000D01*
X123152346Y-82970000D01*
X123126198Y-82831034D01*
X123044069Y-82703401D01*
X122918754Y-82617777D01*
X122770000Y-82587654D01*
X121070000Y-82587654D01*
X120931034Y-82613802D01*
X120803401Y-82695931D01*
X120717777Y-82821246D01*
X120687654Y-82970000D01*
X117290000Y-82970000D01*
X117290000Y-81280000D01*
X118131001Y-81280000D01*
X118224249Y-81748787D01*
X118489795Y-82146206D01*
X118887214Y-82411752D01*
X119356001Y-82505000D01*
X119403999Y-82505000D01*
X119872786Y-82411752D01*
X120270205Y-82146206D01*
X120535751Y-81748787D01*
X120628999Y-81280000D01*
X120671001Y-81280000D01*
X120764249Y-81748787D01*
X121029795Y-82146206D01*
X121427214Y-82411752D01*
X121896001Y-82505000D01*
X121943999Y-82505000D01*
X122412786Y-82411752D01*
X122810205Y-82146206D01*
X123075751Y-81748787D01*
X123168999Y-81280000D01*
X123075751Y-80811213D01*
X122810205Y-80413794D01*
X122412786Y-80148248D01*
X121943999Y-80055000D01*
X121896001Y-80055000D01*
X121427214Y-80148248D01*
X121029795Y-80413794D01*
X120764249Y-80811213D01*
X120671001Y-81280000D01*
X120628999Y-81280000D01*
X120535751Y-80811213D01*
X120270205Y-80413794D01*
X119872786Y-80148248D01*
X119403999Y-80055000D01*
X119356001Y-80055000D01*
X118887214Y-80148248D01*
X118489795Y-80413794D01*
X118224249Y-80811213D01*
X118131001Y-81280000D01*
X117290000Y-81280000D01*
X117290000Y-78740000D01*
X118131001Y-78740000D01*
X118224249Y-79208787D01*
X118489795Y-79606206D01*
X118887214Y-79871752D01*
X119356001Y-79965000D01*
X119403999Y-79965000D01*
X119872786Y-79871752D01*
X120270205Y-79606206D01*
X120535751Y-79208787D01*
X120628999Y-78740000D01*
X120671001Y-78740000D01*
X120764249Y-79208787D01*
X121029795Y-79606206D01*
X121427214Y-79871752D01*
X121896001Y-79965000D01*
X121943999Y-79965000D01*
X122412786Y-79871752D01*
X122810205Y-79606206D01*
X123075751Y-79208787D01*
X123168999Y-78740000D01*
X123075751Y-78271213D01*
X122810205Y-77873794D01*
X122412786Y-77608248D01*
X121943999Y-77515000D01*
X121896001Y-77515000D01*
X121427214Y-77608248D01*
X121029795Y-77873794D01*
X120764249Y-78271213D01*
X120671001Y-78740000D01*
X120628999Y-78740000D01*
X120535751Y-78271213D01*
X120270205Y-77873794D01*
X119872786Y-77608248D01*
X119403999Y-77515000D01*
X119356001Y-77515000D01*
X118887214Y-77608248D01*
X118489795Y-77873794D01*
X118224249Y-78271213D01*
X118131001Y-78740000D01*
X117290000Y-78740000D01*
X117290000Y-76200000D01*
X118131001Y-76200000D01*
X118224249Y-76668787D01*
X118489795Y-77066206D01*
X118887214Y-77331752D01*
X119356001Y-77425000D01*
X119403999Y-77425000D01*
X119872786Y-77331752D01*
X120270205Y-77066206D01*
X120535751Y-76668787D01*
X120628999Y-76200000D01*
X120671001Y-76200000D01*
X120764249Y-76668787D01*
X121029795Y-77066206D01*
X121427214Y-77331752D01*
X121896001Y-77425000D01*
X121943999Y-77425000D01*
X122412786Y-77331752D01*
X122810205Y-77066206D01*
X123075751Y-76668787D01*
X123168999Y-76200000D01*
X123075751Y-75731213D01*
X122810205Y-75333794D01*
X122412786Y-75068248D01*
X121943999Y-74975000D01*
X121896001Y-74975000D01*
X121427214Y-75068248D01*
X121029795Y-75333794D01*
X120764249Y-75731213D01*
X120671001Y-76200000D01*
X120628999Y-76200000D01*
X120535751Y-75731213D01*
X120270205Y-75333794D01*
X119872786Y-75068248D01*
X119403999Y-74975000D01*
X119356001Y-74975000D01*
X118887214Y-75068248D01*
X118489795Y-75333794D01*
X118224249Y-75731213D01*
X118131001Y-76200000D01*
X117290000Y-76200000D01*
X117290000Y-73660000D01*
X120671001Y-73660000D01*
X120764249Y-74128787D01*
X121029795Y-74526206D01*
X121427214Y-74791752D01*
X121896001Y-74885000D01*
X121943999Y-74885000D01*
X122412786Y-74791752D01*
X122810205Y-74526206D01*
X122879832Y-74422000D01*
X124093000Y-74422000D01*
X124093000Y-78486000D01*
X124143888Y-78741832D01*
X124159605Y-78820848D01*
X124349282Y-79104718D01*
X124619660Y-79375096D01*
X124617654Y-79385000D01*
X124617654Y-80635000D01*
X124643802Y-80773966D01*
X124725931Y-80901599D01*
X124851246Y-80987223D01*
X124855000Y-80987983D01*
X124855000Y-81280000D01*
X124921605Y-81614848D01*
X125111282Y-81898718D01*
X126939968Y-83727404D01*
X126872143Y-83755429D01*
X126682097Y-83945144D01*
X126579117Y-84193145D01*
X126578883Y-84461677D01*
X126681429Y-84709857D01*
X126871144Y-84899903D01*
X127119145Y-85002883D01*
X127221867Y-85002973D01*
X128932447Y-86713553D01*
X129094658Y-86821940D01*
X129286000Y-86860000D01*
X131879366Y-86860000D01*
X131951144Y-86931903D01*
X132199145Y-87034883D01*
X132467677Y-87035117D01*
X132540565Y-87005000D01*
X136642654Y-87005000D01*
X136642654Y-88255000D01*
X136668802Y-88393966D01*
X136750931Y-88521599D01*
X136876246Y-88607223D01*
X137025000Y-88637346D01*
X137410339Y-88637346D01*
X137381654Y-88779000D01*
X137381654Y-89529000D01*
X137407802Y-89667966D01*
X137489931Y-89795599D01*
X137615246Y-89881223D01*
X137764000Y-89911346D01*
X138964000Y-89911346D01*
X139102966Y-89885198D01*
X139230599Y-89803069D01*
X139316223Y-89677754D01*
X139346346Y-89529000D01*
X139346346Y-88779000D01*
X139340255Y-88746629D01*
X139584090Y-88502794D01*
X139704654Y-88478813D01*
X139704654Y-89312000D01*
X139730802Y-89450966D01*
X139812931Y-89578599D01*
X139938246Y-89664223D01*
X140087000Y-89694346D01*
X140837000Y-89694346D01*
X140975966Y-89668198D01*
X141103599Y-89586069D01*
X141189223Y-89460754D01*
X141219346Y-89312000D01*
X141219346Y-88589294D01*
X141238000Y-88570672D01*
X141238000Y-88646000D01*
X141304605Y-88980848D01*
X141494282Y-89264718D01*
X141778152Y-89454395D01*
X142113000Y-89521000D01*
X142447848Y-89454395D01*
X142731718Y-89264718D01*
X142921395Y-88980848D01*
X142988000Y-88646000D01*
X142988000Y-87928235D01*
X143013548Y-87890000D01*
X143161174Y-87890000D01*
X143163802Y-87903966D01*
X143245931Y-88031599D01*
X143371246Y-88117223D01*
X143520000Y-88147346D01*
X144770000Y-88147346D01*
X144908966Y-88121198D01*
X145036599Y-88039069D01*
X145122223Y-87913754D01*
X145152346Y-87765000D01*
X145152346Y-86265000D01*
X145126198Y-86126034D01*
X145044069Y-85998401D01*
X144918754Y-85912777D01*
X144770000Y-85882654D01*
X143520000Y-85882654D01*
X143381034Y-85908802D01*
X143253401Y-85990931D01*
X143247346Y-85999793D01*
X143247346Y-85590000D01*
X143221198Y-85451034D01*
X143139069Y-85323401D01*
X143013754Y-85237777D01*
X142865000Y-85207654D01*
X141615000Y-85207654D01*
X141476034Y-85233802D01*
X141348401Y-85315931D01*
X141262777Y-85441246D01*
X141232654Y-85590000D01*
X141232654Y-87090000D01*
X141258802Y-87228966D01*
X141303846Y-87298967D01*
X141238000Y-87630000D01*
X141238000Y-87705484D01*
X141098856Y-87566097D01*
X140850855Y-87463117D01*
X140582323Y-87462883D01*
X140575000Y-87465909D01*
X140575000Y-87374750D01*
X140591599Y-87364069D01*
X140677223Y-87238754D01*
X140707346Y-87090000D01*
X140707346Y-85590000D01*
X140681198Y-85451034D01*
X140599069Y-85323401D01*
X140473754Y-85237777D01*
X140325000Y-85207654D01*
X139075000Y-85207654D01*
X138936034Y-85233802D01*
X138808401Y-85315931D01*
X138722777Y-85441246D01*
X138692654Y-85590000D01*
X138692654Y-86665691D01*
X138673754Y-86652777D01*
X138525000Y-86622654D01*
X137025000Y-86622654D01*
X136886034Y-86648802D01*
X136758401Y-86730931D01*
X136672777Y-86856246D01*
X136642654Y-87005000D01*
X132540565Y-87005000D01*
X132715857Y-86932571D01*
X132905903Y-86742856D01*
X133008883Y-86494855D01*
X133009117Y-86226323D01*
X132906571Y-85978143D01*
X132763450Y-85834772D01*
X132822223Y-85748754D01*
X132852346Y-85600000D01*
X132852346Y-84100000D01*
X132826198Y-83961034D01*
X132744069Y-83833401D01*
X132618754Y-83747777D01*
X132470000Y-83717654D01*
X130470000Y-83717654D01*
X130331034Y-83743802D01*
X130203401Y-83825931D01*
X130117777Y-83951246D01*
X130112967Y-83975000D01*
X129662437Y-83975000D01*
X127487437Y-81800000D01*
X130087654Y-81800000D01*
X130087654Y-83300000D01*
X130113802Y-83438966D01*
X130195931Y-83566599D01*
X130321246Y-83652223D01*
X130470000Y-83682346D01*
X132470000Y-83682346D01*
X132608966Y-83656198D01*
X132736599Y-83574069D01*
X132822223Y-83448754D01*
X132852346Y-83300000D01*
X132852346Y-81800000D01*
X132826198Y-81661034D01*
X132744069Y-81533401D01*
X132618754Y-81447777D01*
X132470000Y-81417654D01*
X130470000Y-81417654D01*
X130331034Y-81443802D01*
X130203401Y-81525931D01*
X130117777Y-81651246D01*
X130087654Y-81800000D01*
X127487437Y-81800000D01*
X126663103Y-80975667D01*
X126766599Y-80909069D01*
X126852223Y-80783754D01*
X126879308Y-80650000D01*
X136387654Y-80650000D01*
X136387654Y-84450000D01*
X136413802Y-84588966D01*
X136495931Y-84716599D01*
X136621246Y-84802223D01*
X136770000Y-84832346D01*
X138770000Y-84832346D01*
X138783670Y-84829774D01*
X138800931Y-84856599D01*
X138926246Y-84942223D01*
X139075000Y-84972346D01*
X140325000Y-84972346D01*
X140463966Y-84946198D01*
X140591599Y-84864069D01*
X140677223Y-84738754D01*
X140707346Y-84590000D01*
X140707346Y-83425000D01*
X141115564Y-83425000D01*
X141232654Y-83542090D01*
X141232654Y-84590000D01*
X141258802Y-84728966D01*
X141340931Y-84856599D01*
X141466246Y-84942223D01*
X141615000Y-84972346D01*
X142865000Y-84972346D01*
X143003966Y-84946198D01*
X143131599Y-84864069D01*
X143217223Y-84738754D01*
X143247346Y-84590000D01*
X143247346Y-83992187D01*
X143275779Y-84061000D01*
X143521705Y-84307356D01*
X143843188Y-84440848D01*
X144191285Y-84441151D01*
X144494173Y-84316000D01*
X146247340Y-84316000D01*
X149110000Y-87178660D01*
X149110000Y-110810000D01*
X149167090Y-111097013D01*
X149329670Y-111340330D01*
X152844254Y-114854914D01*
X152715327Y-115165403D01*
X152714676Y-115911324D01*
X152999526Y-116600714D01*
X153526511Y-117128620D01*
X154215403Y-117414673D01*
X154961324Y-117415324D01*
X155650714Y-117130474D01*
X156178620Y-116603489D01*
X156464673Y-115914597D01*
X156465324Y-115168676D01*
X156180474Y-114479286D01*
X155653489Y-113951380D01*
X154964597Y-113665327D01*
X154218676Y-113664676D01*
X153904961Y-113794301D01*
X150610000Y-110499340D01*
X150610000Y-98620660D01*
X152844254Y-100854914D01*
X152715327Y-101165403D01*
X152714676Y-101911324D01*
X152999526Y-102600714D01*
X153526511Y-103128620D01*
X154215403Y-103414673D01*
X154961324Y-103415324D01*
X155650714Y-103130474D01*
X156178620Y-102603489D01*
X156464673Y-101914597D01*
X156465324Y-101168676D01*
X156180474Y-100479286D01*
X155653489Y-99951380D01*
X154964597Y-99665327D01*
X154218676Y-99664676D01*
X153904961Y-99794301D01*
X151880000Y-97769340D01*
X151880000Y-86646660D01*
X152715051Y-87481711D01*
X152714676Y-87911324D01*
X152999526Y-88600714D01*
X153526511Y-89128620D01*
X154215403Y-89414673D01*
X154961324Y-89415324D01*
X155650714Y-89130474D01*
X156178620Y-88603489D01*
X156464673Y-87914597D01*
X156465324Y-87168676D01*
X156180474Y-86479286D01*
X155653489Y-85951380D01*
X154964597Y-85665327D01*
X154218676Y-85664676D01*
X153529286Y-85949526D01*
X153416638Y-86061978D01*
X150419337Y-83064677D01*
X157439883Y-83064677D01*
X157542429Y-83312857D01*
X157615000Y-83385555D01*
X157615000Y-95430366D01*
X157543097Y-95502144D01*
X157440117Y-95750145D01*
X157439883Y-96018677D01*
X157542429Y-96266857D01*
X157732144Y-96456903D01*
X157980145Y-96559883D01*
X158248677Y-96560117D01*
X158377000Y-96507095D01*
X158377000Y-102923366D01*
X158305097Y-102995144D01*
X158202117Y-103243145D01*
X158201883Y-103511677D01*
X158304429Y-103759857D01*
X158494144Y-103949903D01*
X158742145Y-104052883D01*
X159010677Y-104053117D01*
X159258857Y-103950571D01*
X159448903Y-103760856D01*
X159551883Y-103512855D01*
X159552117Y-103244323D01*
X159449571Y-102996143D01*
X159377000Y-102923445D01*
X159377000Y-89100634D01*
X159448903Y-89028856D01*
X159551883Y-88780855D01*
X159552117Y-88512323D01*
X159449571Y-88264143D01*
X159259856Y-88074097D01*
X159011855Y-87971117D01*
X158743323Y-87970883D01*
X158615000Y-88023905D01*
X158615000Y-83385634D01*
X158686903Y-83313856D01*
X158789883Y-83065855D01*
X158790117Y-82797323D01*
X158687571Y-82549143D01*
X158497856Y-82359097D01*
X158249855Y-82256117D01*
X157981323Y-82255883D01*
X157733143Y-82358429D01*
X157543097Y-82548144D01*
X157440117Y-82796145D01*
X157439883Y-83064677D01*
X150419337Y-83064677D01*
X146199330Y-78844670D01*
X145956013Y-78682090D01*
X145669000Y-78625000D01*
X143985478Y-78625000D01*
X143935928Y-78604425D01*
X143996246Y-78572300D01*
X144494456Y-78164673D01*
X146192013Y-78164673D01*
X148567670Y-80540330D01*
X148810987Y-80702910D01*
X149098000Y-80760000D01*
X149892522Y-80760000D01*
X150193188Y-80884848D01*
X150541285Y-80885151D01*
X150863000Y-80752221D01*
X151109356Y-80506295D01*
X151242848Y-80184812D01*
X151243151Y-79836715D01*
X151130941Y-79565146D01*
X151435344Y-79565411D01*
X152308572Y-79204601D01*
X152977253Y-78537086D01*
X153339587Y-77664489D01*
X153340411Y-76719656D01*
X152979601Y-75846428D01*
X152312086Y-75177747D01*
X151439489Y-74815413D01*
X150494656Y-74814589D01*
X149621428Y-75175399D01*
X148952747Y-75842914D01*
X148590413Y-76715511D01*
X148589589Y-77660344D01*
X148950399Y-78533572D01*
X149617914Y-79202253D01*
X149756984Y-79260000D01*
X149408660Y-79260000D01*
X147033003Y-76884343D01*
X146789686Y-76721763D01*
X146502673Y-76664673D01*
X145455058Y-76664673D01*
X145360469Y-76487073D01*
X145134536Y-76301088D01*
X144854629Y-76215722D01*
X144563360Y-76243969D01*
X144305073Y-76381531D01*
X144180588Y-76483382D01*
X144180587Y-76483383D01*
X143751804Y-76834205D01*
X143751802Y-76834208D01*
X143253594Y-77241832D01*
X142879279Y-77241832D01*
X143106206Y-77090205D01*
X143371752Y-76692786D01*
X143465000Y-76223999D01*
X143465000Y-76176001D01*
X143371752Y-75707214D01*
X143106206Y-75309795D01*
X142708787Y-75044249D01*
X142240000Y-74951001D01*
X141771213Y-75044249D01*
X141373794Y-75309795D01*
X141108248Y-75707214D01*
X141015000Y-76176001D01*
X141015000Y-76223999D01*
X141108248Y-76692786D01*
X141373794Y-77090205D01*
X141771213Y-77355751D01*
X141932955Y-77387924D01*
X141822838Y-77461502D01*
X141551686Y-77732654D01*
X140200000Y-77732654D01*
X140061034Y-77758802D01*
X139933401Y-77840931D01*
X139847777Y-77966246D01*
X139817654Y-78115000D01*
X139817654Y-79365000D01*
X139843802Y-79503966D01*
X139925931Y-79631599D01*
X140051246Y-79717223D01*
X140075000Y-79722033D01*
X140075000Y-81675000D01*
X139152346Y-81675000D01*
X139152346Y-80650000D01*
X139126198Y-80511034D01*
X139044069Y-80383401D01*
X138918754Y-80297777D01*
X138770000Y-80267654D01*
X136770000Y-80267654D01*
X136631034Y-80293802D01*
X136503401Y-80375931D01*
X136417777Y-80501246D01*
X136387654Y-80650000D01*
X126879308Y-80650000D01*
X126882346Y-80635000D01*
X126882346Y-79385000D01*
X126856198Y-79246034D01*
X126774069Y-79118401D01*
X126648754Y-79032777D01*
X126575251Y-79017892D01*
X126558395Y-78933152D01*
X126368718Y-78649282D01*
X125843000Y-78123564D01*
X125843000Y-76176001D01*
X130855000Y-76176001D01*
X130855000Y-76223999D01*
X130948248Y-76692786D01*
X131213794Y-77090205D01*
X131611213Y-77355751D01*
X132080000Y-77448999D01*
X132548787Y-77355751D01*
X132946206Y-77090205D01*
X133211752Y-76692786D01*
X133305000Y-76223999D01*
X133305000Y-76176001D01*
X133395000Y-76176001D01*
X133395000Y-76223999D01*
X133488248Y-76692786D01*
X133753794Y-77090205D01*
X134151213Y-77355751D01*
X134620000Y-77448999D01*
X135088787Y-77355751D01*
X135486206Y-77090205D01*
X135751752Y-76692786D01*
X135845000Y-76223999D01*
X135845000Y-76176001D01*
X135935000Y-76176001D01*
X135935000Y-76223999D01*
X136028248Y-76692786D01*
X136293794Y-77090205D01*
X136691213Y-77355751D01*
X137160000Y-77448999D01*
X137628787Y-77355751D01*
X138026206Y-77090205D01*
X138291752Y-76692786D01*
X138385000Y-76223999D01*
X138385000Y-76176001D01*
X138475000Y-76176001D01*
X138475000Y-76223999D01*
X138568248Y-76692786D01*
X138833794Y-77090205D01*
X139231213Y-77355751D01*
X139700000Y-77448999D01*
X140168787Y-77355751D01*
X140566206Y-77090205D01*
X140831752Y-76692786D01*
X140925000Y-76223999D01*
X140925000Y-76176001D01*
X140831752Y-75707214D01*
X140566206Y-75309795D01*
X140168787Y-75044249D01*
X139700000Y-74951001D01*
X139231213Y-75044249D01*
X138833794Y-75309795D01*
X138568248Y-75707214D01*
X138475000Y-76176001D01*
X138385000Y-76176001D01*
X138291752Y-75707214D01*
X138026206Y-75309795D01*
X137628787Y-75044249D01*
X137160000Y-74951001D01*
X136691213Y-75044249D01*
X136293794Y-75309795D01*
X136028248Y-75707214D01*
X135935000Y-76176001D01*
X135845000Y-76176001D01*
X135751752Y-75707214D01*
X135486206Y-75309795D01*
X135088787Y-75044249D01*
X134620000Y-74951001D01*
X134151213Y-75044249D01*
X133753794Y-75309795D01*
X133488248Y-75707214D01*
X133395000Y-76176001D01*
X133305000Y-76176001D01*
X133211752Y-75707214D01*
X132946206Y-75309795D01*
X132548787Y-75044249D01*
X132080000Y-74951001D01*
X131611213Y-75044249D01*
X131213794Y-75309795D01*
X130948248Y-75707214D01*
X130855000Y-76176001D01*
X125843000Y-76176001D01*
X125843000Y-74784436D01*
X126092437Y-74535000D01*
X126122956Y-74535000D01*
X126507214Y-74791752D01*
X126976001Y-74885000D01*
X127023999Y-74885000D01*
X127492786Y-74791752D01*
X127877044Y-74535000D01*
X128662956Y-74535000D01*
X129047214Y-74791752D01*
X129516001Y-74885000D01*
X129563999Y-74885000D01*
X130032786Y-74791752D01*
X130430205Y-74526206D01*
X130695751Y-74128787D01*
X130788999Y-73660000D01*
X130784226Y-73636001D01*
X130855000Y-73636001D01*
X130855000Y-73683999D01*
X130948248Y-74152786D01*
X131213794Y-74550205D01*
X131611213Y-74815751D01*
X132080000Y-74908999D01*
X132548787Y-74815751D01*
X132946206Y-74550205D01*
X133211752Y-74152786D01*
X133305000Y-73683999D01*
X133305000Y-73636001D01*
X133395000Y-73636001D01*
X133395000Y-73683999D01*
X133488248Y-74152786D01*
X133753794Y-74550205D01*
X134151213Y-74815751D01*
X134620000Y-74908999D01*
X135088787Y-74815751D01*
X135486206Y-74550205D01*
X135751752Y-74152786D01*
X135845000Y-73683999D01*
X135845000Y-73636001D01*
X135935000Y-73636001D01*
X135935000Y-73683999D01*
X136028248Y-74152786D01*
X136293794Y-74550205D01*
X136691213Y-74815751D01*
X137160000Y-74908999D01*
X137628787Y-74815751D01*
X138026206Y-74550205D01*
X138291752Y-74152786D01*
X138385000Y-73683999D01*
X138385000Y-73636001D01*
X138475000Y-73636001D01*
X138475000Y-73683999D01*
X138568248Y-74152786D01*
X138833794Y-74550205D01*
X139231213Y-74815751D01*
X139700000Y-74908999D01*
X140168787Y-74815751D01*
X140566206Y-74550205D01*
X140831752Y-74152786D01*
X140851973Y-74051128D01*
X152964657Y-74051128D01*
X153264700Y-74777286D01*
X153819791Y-75333348D01*
X154545425Y-75634657D01*
X155331128Y-75635343D01*
X156057286Y-75335300D01*
X156613348Y-74780209D01*
X156914657Y-74054575D01*
X156915343Y-73268872D01*
X156615300Y-72542714D01*
X156060209Y-71986652D01*
X155334575Y-71685343D01*
X154548872Y-71684657D01*
X153822714Y-71984700D01*
X153266652Y-72539791D01*
X152965343Y-73265425D01*
X152964657Y-74051128D01*
X140851973Y-74051128D01*
X140925000Y-73683999D01*
X140925000Y-73636001D01*
X140831752Y-73167214D01*
X140566206Y-72769795D01*
X140168787Y-72504249D01*
X139700000Y-72411001D01*
X139231213Y-72504249D01*
X138833794Y-72769795D01*
X138568248Y-73167214D01*
X138475000Y-73636001D01*
X138385000Y-73636001D01*
X138291752Y-73167214D01*
X138026206Y-72769795D01*
X137628787Y-72504249D01*
X137160000Y-72411001D01*
X136691213Y-72504249D01*
X136293794Y-72769795D01*
X136028248Y-73167214D01*
X135935000Y-73636001D01*
X135845000Y-73636001D01*
X135751752Y-73167214D01*
X135486206Y-72769795D01*
X135088787Y-72504249D01*
X134620000Y-72411001D01*
X134151213Y-72504249D01*
X133753794Y-72769795D01*
X133488248Y-73167214D01*
X133395000Y-73636001D01*
X133305000Y-73636001D01*
X133211752Y-73167214D01*
X132946206Y-72769795D01*
X132548787Y-72504249D01*
X132080000Y-72411001D01*
X131611213Y-72504249D01*
X131213794Y-72769795D01*
X130948248Y-73167214D01*
X130855000Y-73636001D01*
X130784226Y-73636001D01*
X130695751Y-73191213D01*
X130430205Y-72793794D01*
X130032786Y-72528248D01*
X129563999Y-72435000D01*
X129516001Y-72435000D01*
X129047214Y-72528248D01*
X128662956Y-72785000D01*
X127877044Y-72785000D01*
X127492786Y-72528248D01*
X127023999Y-72435000D01*
X126976001Y-72435000D01*
X126507214Y-72528248D01*
X126122956Y-72785000D01*
X125730000Y-72785000D01*
X125395152Y-72851605D01*
X125111282Y-73041281D01*
X124349282Y-73803282D01*
X124159605Y-74087152D01*
X124093000Y-74422000D01*
X122879832Y-74422000D01*
X123075751Y-74128787D01*
X123168999Y-73660000D01*
X123075751Y-73191213D01*
X122810205Y-72793794D01*
X122412786Y-72528248D01*
X121943999Y-72435000D01*
X121896001Y-72435000D01*
X121427214Y-72528248D01*
X121029795Y-72793794D01*
X120764249Y-73191213D01*
X120671001Y-73660000D01*
X117290000Y-73660000D01*
X117290000Y-71570000D01*
X159570000Y-71570000D01*
X159570000Y-124010000D01*
M02*
