G04 #@! TF.FileFunction,Profile,NP*
%FSLAX46Y46*%
G04 Gerber Fmt 4.6, Leading zero omitted, Abs format (unit mm)*
G04 Created by KiCad (PCBNEW 4.0.4-stable) date 12/09/17 18:10:45*
%MOMM*%
%LPD*%
G01*
G04 APERTURE LIST*
%ADD10C,0.100000*%
%ADD11C,0.150000*%
G04 APERTURE END LIST*
D10*
D11*
X157480000Y-93726000D02*
X157480000Y-93472000D01*
X157480000Y-81026000D02*
X157480000Y-80772000D01*
X157480000Y-89408000D02*
X157480000Y-89154000D01*
X157480000Y-102108000D02*
X157480000Y-101854000D01*
X157480000Y-106426000D02*
X157480000Y-106172000D01*
X157480000Y-114554000D02*
X157480000Y-114808000D01*
X157480000Y-114808000D02*
G75*
G03X158242000Y-115570000I762000J0D01*
G01*
X158242000Y-113792000D02*
G75*
G03X157480000Y-114554000I0J-762000D01*
G01*
X157480000Y-106426000D02*
G75*
G03X158242000Y-107188000I762000J0D01*
G01*
X158242000Y-105410000D02*
G75*
G03X157480000Y-106172000I0J-762000D01*
G01*
X157480000Y-102108000D02*
G75*
G03X158242000Y-102870000I762000J0D01*
G01*
X158242000Y-101092000D02*
G75*
G03X157480000Y-101854000I0J-762000D01*
G01*
X157480000Y-93726000D02*
G75*
G03X158242000Y-94488000I762000J0D01*
G01*
X158242000Y-92710000D02*
G75*
G03X157480000Y-93472000I0J-762000D01*
G01*
X157480000Y-89408000D02*
G75*
G03X158242000Y-90170000I762000J0D01*
G01*
X158242000Y-88392000D02*
G75*
G03X157480000Y-89154000I0J-762000D01*
G01*
X157480000Y-81026000D02*
G75*
G03X158242000Y-81788000I762000J0D01*
G01*
X158242000Y-80010000D02*
G75*
G03X157480000Y-80772000I0J-762000D01*
G01*
X160020000Y-115570000D02*
X160020000Y-124460000D01*
X160020000Y-107188000D02*
X160020000Y-113792000D01*
X160020000Y-102870000D02*
X160020000Y-105410000D01*
X160020000Y-94488000D02*
X160020000Y-101092000D01*
X160020000Y-90170000D02*
X160020000Y-92710000D01*
X160020000Y-81788000D02*
X160020000Y-88392000D01*
X160020000Y-71120000D02*
X160020000Y-80010000D01*
X160020000Y-115570000D02*
X158242000Y-115570000D01*
X160020000Y-113792000D02*
X158242000Y-113792000D01*
X160020000Y-107188000D02*
X158242000Y-107188000D01*
X160020000Y-105410000D02*
X158242000Y-105410000D01*
X160020000Y-102870000D02*
X158242000Y-102870000D01*
X160020000Y-101092000D02*
X158242000Y-101092000D01*
X160020000Y-90170000D02*
X158242000Y-90170000D01*
X160020000Y-80010000D02*
X158242000Y-80010000D01*
X160020000Y-81788000D02*
X158242000Y-81788000D01*
X160020000Y-94488000D02*
X158242000Y-94488000D01*
X160020000Y-92710000D02*
X158242000Y-92710000D01*
X160020000Y-88392000D02*
X158242000Y-88392000D01*
X160020000Y-71120000D02*
X116840000Y-71120000D01*
X116840000Y-124460000D02*
X160020000Y-124460000D01*
X116840000Y-71120000D02*
X116840000Y-124460000D01*
M02*
