G04 #@! TF.FileFunction,Copper,L1,Top,Signal*
%FSLAX46Y46*%
G04 Gerber Fmt 4.6, Leading zero omitted, Abs format (unit mm)*
G04 Created by KiCad (PCBNEW 4.0.4-stable) date 12/09/17 18:10:44*
%MOMM*%
%LPD*%
G01*
G04 APERTURE LIST*
%ADD10C,0.100000*%
%ADD11O,1.900000X4.000000*%
%ADD12O,2.900000X1.600000*%
%ADD13R,1.700000X1.700000*%
%ADD14O,1.700000X1.700000*%
%ADD15R,1.200000X0.750000*%
%ADD16R,1.500000X1.250000*%
%ADD17R,1.540000X1.800000*%
%ADD18R,1.300000X1.500000*%
%ADD19R,1.500000X1.300000*%
%ADD20O,0.250000X1.400000*%
%ADD21O,1.400000X0.250000*%
%ADD22R,6.000000X6.000000*%
%ADD23R,1.250000X1.500000*%
%ADD24C,5.600000*%
%ADD25C,0.600000*%
%ADD26C,4.000000*%
%ADD27C,1.000000*%
%ADD28C,0.250000*%
%ADD29C,0.500000*%
%ADD30C,1.000000*%
G04 APERTURE END LIST*
D10*
D11*
X156020000Y-97790000D03*
D12*
X151520000Y-97790000D03*
D13*
X129540000Y-119380000D03*
D14*
X129540000Y-121920000D03*
D13*
X127000000Y-119380000D03*
D14*
X127000000Y-121920000D03*
D11*
X156020000Y-85090000D03*
D12*
X151520000Y-85090000D03*
D11*
X156020000Y-110490000D03*
D12*
X151520000Y-110490000D03*
D15*
X131130000Y-113030000D03*
X133030000Y-113030000D03*
D13*
X142240000Y-73660000D03*
D14*
X142240000Y-76200000D03*
X139700000Y-73660000D03*
X139700000Y-76200000D03*
X137160000Y-73660000D03*
X137160000Y-76200000D03*
X134620000Y-73660000D03*
X134620000Y-76200000D03*
X132080000Y-73660000D03*
X132080000Y-76200000D03*
X129540000Y-73660000D03*
X129540000Y-76200000D03*
X127000000Y-73660000D03*
X127000000Y-76200000D03*
X124460000Y-73660000D03*
X124460000Y-76200000D03*
X121920000Y-73660000D03*
X121920000Y-76200000D03*
X119380000Y-73660000D03*
X119380000Y-76200000D03*
D13*
X142240000Y-119380000D03*
D14*
X142240000Y-121920000D03*
X139700000Y-119380000D03*
X139700000Y-121920000D03*
X137160000Y-119380000D03*
X137160000Y-121920000D03*
X134620000Y-119380000D03*
X134620000Y-121920000D03*
X132080000Y-119380000D03*
X132080000Y-121920000D03*
D13*
X119380000Y-111760000D03*
D14*
X121920000Y-111760000D03*
X119380000Y-114300000D03*
X121920000Y-114300000D03*
X119380000Y-116840000D03*
X121920000Y-116840000D03*
X119380000Y-119380000D03*
X121920000Y-119380000D03*
X119380000Y-121920000D03*
X121920000Y-121920000D03*
D16*
X120630000Y-102870000D03*
X118130000Y-102870000D03*
D17*
X130994000Y-110366000D03*
X133674000Y-110366000D03*
X133674000Y-107566000D03*
X130994000Y-107566000D03*
D18*
X121920000Y-108030000D03*
X121920000Y-105330000D03*
X124460000Y-108030000D03*
X124460000Y-105330000D03*
X119380000Y-108030000D03*
X119380000Y-105330000D03*
X124460000Y-113110000D03*
X124460000Y-110410000D03*
D19*
X148670000Y-116840000D03*
X145970000Y-116840000D03*
X148670000Y-114300000D03*
X145970000Y-114300000D03*
X148670000Y-111760000D03*
X145970000Y-111760000D03*
D20*
X122060000Y-102440000D03*
X122560000Y-102440000D03*
X123060000Y-102440000D03*
X123560000Y-102440000D03*
X124060000Y-102440000D03*
X124560000Y-102440000D03*
X125060000Y-102440000D03*
X125560000Y-102440000D03*
X126060000Y-102440000D03*
X126560000Y-102440000D03*
X127060000Y-102440000D03*
X127560000Y-102440000D03*
X128060000Y-102440000D03*
X128560000Y-102440000D03*
X129060000Y-102440000D03*
X129560000Y-102440000D03*
X130060000Y-102440000D03*
X130560000Y-102440000D03*
X131060000Y-102440000D03*
X131560000Y-102440000D03*
X132060000Y-102440000D03*
X132560000Y-102440000D03*
X133060000Y-102440000D03*
X133560000Y-102440000D03*
X134060000Y-102440000D03*
X134560000Y-102440000D03*
X135060000Y-102440000D03*
X135560000Y-102440000D03*
X136060000Y-102440000D03*
X136560000Y-102440000D03*
X137060000Y-102440000D03*
X137560000Y-102440000D03*
X138060000Y-102440000D03*
X138560000Y-102440000D03*
X139060000Y-102440000D03*
X139560000Y-102440000D03*
D21*
X141810000Y-100190000D03*
X141810000Y-99690000D03*
X141810000Y-99190000D03*
X141810000Y-98690000D03*
X141810000Y-98190000D03*
X141810000Y-97690000D03*
X141810000Y-97190000D03*
X141810000Y-96690000D03*
X141810000Y-96190000D03*
X141810000Y-95690000D03*
X141810000Y-95190000D03*
X141810000Y-94690000D03*
X141810000Y-94190000D03*
X141810000Y-93690000D03*
X141810000Y-93190000D03*
X141810000Y-92690000D03*
X141810000Y-92190000D03*
X141810000Y-91690000D03*
X141810000Y-91190000D03*
X141810000Y-90690000D03*
X141810000Y-90190000D03*
X141810000Y-89690000D03*
X141810000Y-89190000D03*
X141810000Y-88690000D03*
X141810000Y-88190000D03*
X141810000Y-87690000D03*
X141810000Y-87190000D03*
X141810000Y-86690000D03*
X141810000Y-86190000D03*
X141810000Y-85690000D03*
X141810000Y-85190000D03*
X141810000Y-84690000D03*
X141810000Y-84190000D03*
X141810000Y-83690000D03*
X141810000Y-83190000D03*
X141810000Y-82690000D03*
D20*
X139560000Y-80440000D03*
X139060000Y-80440000D03*
X138560000Y-80440000D03*
X138060000Y-80440000D03*
X137560000Y-80440000D03*
X137060000Y-80440000D03*
X136560000Y-80440000D03*
X136060000Y-80440000D03*
X135560000Y-80440000D03*
X135060000Y-80440000D03*
X134560000Y-80440000D03*
X134060000Y-80440000D03*
X133560000Y-80440000D03*
X133060000Y-80440000D03*
X132560000Y-80440000D03*
X132060000Y-80440000D03*
X131560000Y-80440000D03*
X131060000Y-80440000D03*
X130560000Y-80440000D03*
X130060000Y-80440000D03*
X129560000Y-80440000D03*
X129060000Y-80440000D03*
X128560000Y-80440000D03*
X128060000Y-80440000D03*
X127560000Y-80440000D03*
X127060000Y-80440000D03*
X126560000Y-80440000D03*
X126060000Y-80440000D03*
X125560000Y-80440000D03*
X125060000Y-80440000D03*
X124560000Y-80440000D03*
X124060000Y-80440000D03*
X123560000Y-80440000D03*
X123060000Y-80440000D03*
X122560000Y-80440000D03*
X122060000Y-80440000D03*
D21*
X119810000Y-82690000D03*
X119810000Y-83190000D03*
X119810000Y-83690000D03*
X119810000Y-84190000D03*
X119810000Y-84690000D03*
X119810000Y-85190000D03*
X119810000Y-85690000D03*
X119810000Y-86190000D03*
X119810000Y-86690000D03*
X119810000Y-87190000D03*
X119810000Y-87690000D03*
X119810000Y-88190000D03*
X119810000Y-88690000D03*
X119810000Y-89190000D03*
X119810000Y-89690000D03*
X119810000Y-90190000D03*
X119810000Y-90690000D03*
X119810000Y-91190000D03*
X119810000Y-91690000D03*
X119810000Y-92190000D03*
X119810000Y-92690000D03*
X119810000Y-93190000D03*
X119810000Y-93690000D03*
X119810000Y-94190000D03*
X119810000Y-94690000D03*
X119810000Y-95190000D03*
X119810000Y-95690000D03*
X119810000Y-96190000D03*
X119810000Y-96690000D03*
X119810000Y-97190000D03*
X119810000Y-97690000D03*
X119810000Y-98190000D03*
X119810000Y-98690000D03*
X119810000Y-99190000D03*
X119810000Y-99690000D03*
X119810000Y-100190000D03*
D22*
X130810000Y-91440000D03*
D23*
X146050000Y-119400000D03*
X146050000Y-121900000D03*
D24*
X154940000Y-76200000D03*
X154940000Y-119380000D03*
D25*
X140462000Y-96266000D03*
X143510000Y-90170000D03*
X117856000Y-83312000D03*
X117856000Y-94742000D03*
X117856000Y-100076000D03*
X127000000Y-101092000D03*
X131572000Y-101092000D03*
X136652000Y-101092000D03*
X140462000Y-99568000D03*
X140462000Y-85598000D03*
X134366000Y-81788000D03*
X128016000Y-81788000D03*
X123952000Y-81788000D03*
X121158000Y-87630000D03*
D26*
X130810000Y-91440000D03*
D25*
X124460000Y-114554000D03*
X134874000Y-111506000D03*
D27*
X128524000Y-108458000D03*
X129540000Y-108458000D03*
D25*
X117602000Y-106680000D03*
X117602000Y-107696000D03*
X117602000Y-105918000D03*
D27*
X130556000Y-108458000D03*
D25*
X125730000Y-100838000D03*
X128270000Y-100838000D03*
X132588000Y-101092000D03*
X135382000Y-101092000D03*
X140462000Y-101092000D03*
X139954000Y-97790000D03*
X140335000Y-90170000D03*
X140208000Y-86868000D03*
X139954000Y-82296000D03*
X135382000Y-81788000D03*
X129540000Y-81788000D03*
X125060000Y-81915000D03*
X121158000Y-81280000D03*
X121412000Y-84328000D03*
X121412000Y-86360000D03*
X121412000Y-88900000D03*
X121412000Y-95250000D03*
X121158000Y-99060000D03*
X117856000Y-99060000D03*
X117856000Y-89408000D03*
X138684000Y-101092000D03*
X138036004Y-98875998D03*
X140462000Y-83566000D03*
X138176000Y-84836000D03*
X124714000Y-84074000D03*
X122936000Y-81788000D03*
X122428000Y-101092000D03*
X123444000Y-98806000D03*
X123444000Y-98044000D03*
X148082000Y-100330000D03*
X148590000Y-97790000D03*
X147828000Y-95250000D03*
X144526000Y-87122000D03*
X146304000Y-77470000D03*
X151130000Y-95250000D03*
X153670000Y-107950000D03*
X150876000Y-83058000D03*
X155194000Y-94742000D03*
X155194000Y-100584000D03*
X155194000Y-107696000D03*
X145796000Y-116078000D03*
X144526000Y-113792000D03*
X144526000Y-112268000D03*
D27*
X129540000Y-115062000D03*
X124460000Y-117856000D03*
D25*
X126238000Y-108204000D03*
X129032000Y-104902000D03*
X119380000Y-109982000D03*
X123952000Y-109474000D03*
X129794000Y-106172000D03*
X122936000Y-107950000D03*
X125984000Y-104902000D03*
X126746000Y-105664000D03*
X125222000Y-107696000D03*
X143510000Y-105156000D03*
X146050000Y-105410000D03*
X147574000Y-102870000D03*
X145796000Y-85090000D03*
X146812000Y-82550000D03*
X145542000Y-74930000D03*
X120650000Y-106934000D03*
X120650000Y-104140000D03*
X117856000Y-96012000D03*
X117856000Y-93472000D03*
X117856000Y-88138000D03*
X145542000Y-107950000D03*
X146050000Y-92710000D03*
X145796000Y-90170000D03*
X144526000Y-88392000D03*
X146812000Y-80010000D03*
D27*
X146050000Y-118618000D03*
D28*
X141810000Y-96190000D02*
X140538000Y-96190000D01*
X140538000Y-96190000D02*
X140462000Y-96266000D01*
X141810000Y-90190000D02*
X143490000Y-90190000D01*
X143490000Y-90190000D02*
X143510000Y-90170000D01*
X119810000Y-83190000D02*
X117978000Y-83190000D01*
X117978000Y-83190000D02*
X117856000Y-83312000D01*
X119810000Y-94690000D02*
X117908000Y-94690000D01*
X117908000Y-94690000D02*
X117856000Y-94742000D01*
X119810000Y-99690000D02*
X118242000Y-99690000D01*
X118242000Y-99690000D02*
X117856000Y-100076000D01*
X127060000Y-102440000D02*
X127060000Y-101152000D01*
X127060000Y-101152000D02*
X127000000Y-101092000D01*
X131560000Y-102440000D02*
X131560000Y-101104000D01*
X131560000Y-101104000D02*
X131572000Y-101092000D01*
X136560000Y-102440000D02*
X136560000Y-101184000D01*
X136560000Y-101184000D02*
X136652000Y-101092000D01*
X141810000Y-99690000D02*
X140584000Y-99690000D01*
X140584000Y-99690000D02*
X140462000Y-99568000D01*
X141810000Y-85690000D02*
X140554000Y-85690000D01*
X140554000Y-85690000D02*
X140462000Y-85598000D01*
X134560000Y-80440000D02*
X134560000Y-81728000D01*
X134500000Y-81788000D02*
X134366000Y-81788000D01*
X134560000Y-81728000D02*
X134500000Y-81788000D01*
X128060000Y-80440000D02*
X128060000Y-81744000D01*
X128060000Y-81744000D02*
X128016000Y-81788000D01*
X124060000Y-80440000D02*
X124060000Y-81680000D01*
X124060000Y-81680000D02*
X123952000Y-81788000D01*
X119810000Y-87690000D02*
X121098000Y-87690000D01*
X121098000Y-87690000D02*
X121158000Y-87630000D01*
D29*
X133674000Y-110366000D02*
X133674000Y-112386000D01*
X133674000Y-112386000D02*
X133030000Y-113030000D01*
D28*
X124460000Y-113110000D02*
X124460000Y-114554000D01*
D29*
X133674000Y-110366000D02*
X133734000Y-110366000D01*
X133734000Y-110366000D02*
X134874000Y-111506000D01*
D30*
X128270000Y-108204000D02*
X128270000Y-107442000D01*
X128524000Y-108458000D02*
X128270000Y-108204000D01*
X129286000Y-107442000D02*
X129286000Y-108204000D01*
X129286000Y-108204000D02*
X129540000Y-108458000D01*
X117602000Y-108712000D02*
X117602000Y-106680000D01*
X117602000Y-106680000D02*
X117602000Y-105410000D01*
X117602000Y-105410000D02*
X118110000Y-104902000D01*
X117602000Y-107696000D02*
X117602000Y-108712000D01*
X118110000Y-104902000D02*
X118110000Y-102890000D01*
X118110000Y-102890000D02*
X118130000Y-102870000D01*
D28*
X121920000Y-114300000D02*
X121920000Y-114808000D01*
X121920000Y-114808000D02*
X120650000Y-116078000D01*
X120650000Y-116078000D02*
X120650000Y-117602000D01*
X120650000Y-117602000D02*
X120142000Y-118110000D01*
X120142000Y-118110000D02*
X117602000Y-118110000D01*
D30*
X144272000Y-123698000D02*
X120650000Y-123698000D01*
X117682000Y-105330000D02*
X118110000Y-104902000D01*
X118110000Y-104902000D02*
X117602000Y-105410000D01*
X117602000Y-105410000D02*
X117602000Y-105918000D01*
X117602000Y-108712000D02*
X117602000Y-118110000D01*
X117602000Y-118110000D02*
X117602000Y-122936000D01*
X117602000Y-122936000D02*
X118364000Y-123698000D01*
X118364000Y-123698000D02*
X120650000Y-123698000D01*
X117682000Y-105330000D02*
X119380000Y-105330000D01*
D29*
X130994000Y-107566000D02*
X130994000Y-108020000D01*
X130994000Y-108020000D02*
X130994000Y-110366000D01*
X130994000Y-110366000D02*
X131130000Y-110502000D01*
X131130000Y-110502000D02*
X131130000Y-113030000D01*
D30*
X142240000Y-119380000D02*
X143510000Y-119380000D01*
X144272000Y-120142000D02*
X144272000Y-123698000D01*
X143510000Y-119380000D02*
X144272000Y-120142000D01*
D29*
X131130000Y-110502000D02*
X130994000Y-110366000D01*
D30*
X144272000Y-123698000D02*
X145288000Y-123698000D01*
X146050000Y-122936000D02*
X146050000Y-121900000D01*
X145288000Y-123698000D02*
X146050000Y-122936000D01*
X121920000Y-105330000D02*
X120650000Y-105330000D01*
X120650000Y-105330000D02*
X119380000Y-105330000D01*
X124460000Y-105330000D02*
X121920000Y-105330000D01*
X125810000Y-106680000D02*
X124460000Y-105330000D01*
X126238000Y-106680000D02*
X125810000Y-106680000D01*
X127000000Y-107442000D02*
X126238000Y-106680000D01*
X129540000Y-107442000D02*
X129286000Y-107442000D01*
X129286000Y-107442000D02*
X128270000Y-107442000D01*
X128270000Y-107442000D02*
X127000000Y-107442000D01*
X130556000Y-108458000D02*
X129540000Y-107442000D01*
X125730000Y-100076000D02*
X125730000Y-100838000D01*
X124460000Y-100076000D02*
X125730000Y-100076000D01*
D28*
X127762000Y-100838000D02*
X128270000Y-100838000D01*
X127560000Y-102440000D02*
X127560000Y-101548000D01*
X127762000Y-101346000D02*
X127762000Y-100838000D01*
X127762000Y-100838000D02*
X127762000Y-100076000D01*
X127560000Y-101548000D02*
X127762000Y-101346000D01*
X132560000Y-101600000D02*
X132560000Y-101120000D01*
X132560000Y-101120000D02*
X132588000Y-101092000D01*
X132560000Y-102440000D02*
X132560000Y-101600000D01*
X132560000Y-101600000D02*
X132560000Y-100076000D01*
X132560000Y-100076000D02*
X132588000Y-100076000D01*
X135890000Y-101346000D02*
X135636000Y-101346000D01*
X135636000Y-101346000D02*
X135382000Y-101092000D01*
X136060000Y-102440000D02*
X136060000Y-101516000D01*
X135890000Y-101346000D02*
X135890000Y-100076000D01*
X136060000Y-101516000D02*
X135890000Y-101346000D01*
X140462000Y-100330000D02*
X140462000Y-101092000D01*
X141810000Y-100190000D02*
X140602000Y-100190000D01*
X139700000Y-100330000D02*
X139446000Y-100076000D01*
X140462000Y-100330000D02*
X139700000Y-100330000D01*
X140602000Y-100190000D02*
X140462000Y-100330000D01*
X139560000Y-101092000D02*
X140462000Y-101092000D01*
X139560000Y-102440000D02*
X139560000Y-101092000D01*
X139560000Y-101092000D02*
X139560000Y-100190000D01*
X139560000Y-100190000D02*
X139446000Y-100076000D01*
X139446000Y-97790000D02*
X139954000Y-97790000D01*
X141810000Y-97190000D02*
X140808000Y-97190000D01*
X140208000Y-97790000D02*
X139446000Y-97790000D01*
X140808000Y-97190000D02*
X140208000Y-97790000D01*
X140335000Y-90170000D02*
X140335000Y-90690000D01*
X140335000Y-90690000D02*
X140335000Y-90805000D01*
X140335000Y-90805000D02*
X140335000Y-90690000D01*
X140335000Y-89690000D02*
X140335000Y-90170000D01*
X141810000Y-90690000D02*
X140335000Y-90690000D01*
X140335000Y-90690000D02*
X139446000Y-90690000D01*
X139446000Y-90690000D02*
X139561000Y-90805000D01*
X139561000Y-90805000D02*
X139700000Y-90805000D01*
X139700000Y-90805000D02*
X139446000Y-90805000D01*
X141810000Y-89690000D02*
X140335000Y-89690000D01*
X140335000Y-89690000D02*
X139446000Y-89690000D01*
X139700000Y-89535000D02*
X139446000Y-89535000D01*
X139601000Y-89535000D02*
X139700000Y-89535000D01*
X139446000Y-89690000D02*
X139601000Y-89535000D01*
X139446000Y-87122000D02*
X139954000Y-87122000D01*
X139954000Y-87122000D02*
X140208000Y-86868000D01*
X140208000Y-86868000D02*
X140386000Y-86690000D01*
X140386000Y-86690000D02*
X141810000Y-86690000D01*
X139446000Y-82804000D02*
X139954000Y-82296000D01*
X139560000Y-80440000D02*
X139560000Y-82690000D01*
X139560000Y-82690000D02*
X139446000Y-82804000D01*
X141810000Y-82690000D02*
X139560000Y-82690000D01*
X139560000Y-82690000D02*
X139446000Y-82804000D01*
X135060000Y-81788000D02*
X135382000Y-81788000D01*
X135060000Y-80440000D02*
X135060000Y-81788000D01*
X135060000Y-81788000D02*
X135060000Y-82804000D01*
X135060000Y-82804000D02*
X135128000Y-82804000D01*
X129560000Y-81534000D02*
X129560000Y-81768000D01*
X129560000Y-81768000D02*
X129540000Y-81788000D01*
X129560000Y-80440000D02*
X129560000Y-81534000D01*
X129560000Y-81534000D02*
X129560000Y-82804000D01*
X129560000Y-82804000D02*
X129540000Y-82804000D01*
X125060000Y-80440000D02*
X125060000Y-81915000D01*
X125060000Y-81915000D02*
X125060000Y-82804000D01*
X125060000Y-82804000D02*
X124968000Y-82804000D01*
X121158000Y-82690000D02*
X121158000Y-81280000D01*
X122060000Y-81280000D02*
X121158000Y-81280000D01*
X121158000Y-81280000D02*
X121158000Y-81342000D01*
X122060000Y-80440000D02*
X121998000Y-80440000D01*
X119810000Y-82690000D02*
X121158000Y-82690000D01*
X121158000Y-82690000D02*
X122060000Y-82690000D01*
X122060000Y-82690000D02*
X122060000Y-81280000D01*
X122060000Y-81280000D02*
X122060000Y-80440000D01*
X119810000Y-84690000D02*
X121050000Y-84690000D01*
X121050000Y-84690000D02*
X121412000Y-84328000D01*
X119810000Y-83690000D02*
X120774000Y-83690000D01*
X121412000Y-84328000D02*
X122174000Y-84328000D01*
X120774000Y-83690000D02*
X121412000Y-84328000D01*
X121666000Y-86360000D02*
X121412000Y-86360000D01*
X119810000Y-85690000D02*
X120996000Y-85690000D01*
X120996000Y-85690000D02*
X121666000Y-86360000D01*
X119810000Y-87190000D02*
X120582000Y-87190000D01*
X121666000Y-86360000D02*
X122174000Y-86360000D01*
X120582000Y-87190000D02*
X121412000Y-86360000D01*
X122174000Y-88900000D02*
X121412000Y-88900000D01*
X119810000Y-88690000D02*
X122174000Y-88690000D01*
X121674000Y-89190000D02*
X119810000Y-89190000D01*
X122174000Y-88690000D02*
X121674000Y-89190000D01*
X121412000Y-95250000D02*
X121920000Y-95250000D01*
X119810000Y-94190000D02*
X121368000Y-94190000D01*
X121368000Y-94190000D02*
X122174000Y-94996000D01*
X119810000Y-96190000D02*
X120980000Y-96190000D01*
X120980000Y-96190000D02*
X121920000Y-95250000D01*
X121920000Y-95250000D02*
X122174000Y-94996000D01*
X119810000Y-100190000D02*
X120536000Y-100190000D01*
X121158000Y-99568000D02*
X121158000Y-99060000D01*
X120536000Y-100190000D02*
X121158000Y-99568000D01*
X121158000Y-99190000D02*
X121158000Y-99060000D01*
X119810000Y-99190000D02*
X121158000Y-99190000D01*
X121158000Y-99190000D02*
X122174000Y-99190000D01*
X122174000Y-99190000D02*
X122174000Y-99314000D01*
X122060000Y-102440000D02*
X121060000Y-102440000D01*
X121060000Y-102440000D02*
X120630000Y-102870000D01*
D30*
X120630000Y-102870000D02*
X120630000Y-101366000D01*
X120630000Y-101366000D02*
X121920000Y-100076000D01*
X121920000Y-100076000D02*
X124460000Y-100076000D01*
X124460000Y-100076000D02*
X127762000Y-100076000D01*
X127762000Y-100076000D02*
X132588000Y-100076000D01*
X132588000Y-100076000D02*
X135890000Y-100076000D01*
X135890000Y-100076000D02*
X139446000Y-100076000D01*
X122174000Y-82804000D02*
X122174000Y-84328000D01*
X122174000Y-84328000D02*
X122174000Y-86360000D01*
X122174000Y-86360000D02*
X122174000Y-88900000D01*
X122174000Y-88900000D02*
X122174000Y-94996000D01*
X122174000Y-94996000D02*
X122174000Y-99314000D01*
X139446000Y-82804000D02*
X135128000Y-82804000D01*
X135128000Y-82804000D02*
X129540000Y-82804000D01*
X129540000Y-82804000D02*
X124968000Y-82804000D01*
X124968000Y-82804000D02*
X122174000Y-82804000D01*
X139446000Y-100076000D02*
X139446000Y-97790000D01*
X139446000Y-97790000D02*
X139446000Y-90805000D01*
X139446000Y-90805000D02*
X139446000Y-89535000D01*
X139446000Y-89535000D02*
X139446000Y-89154000D01*
X139446000Y-89154000D02*
X139446000Y-87122000D01*
X139446000Y-87122000D02*
X139446000Y-82804000D01*
X122174000Y-99314000D02*
X122174000Y-99822000D01*
X122174000Y-99822000D02*
X121920000Y-100076000D01*
D28*
X119810000Y-99190000D02*
X117986000Y-99190000D01*
X117986000Y-99190000D02*
X117856000Y-99060000D01*
X119810000Y-89190000D02*
X118074000Y-89190000D01*
X118074000Y-89190000D02*
X117856000Y-89408000D01*
X139060000Y-102440000D02*
X139060000Y-101478000D01*
X138928000Y-101092000D02*
X138684000Y-101092000D01*
X139060000Y-101478000D02*
X138928000Y-101092000D01*
X138560000Y-101216000D02*
X138560000Y-102440000D01*
X138684000Y-101092000D02*
X138560000Y-101216000D01*
X137922000Y-98875998D02*
X138036004Y-98875998D01*
X141810000Y-83190000D02*
X140838000Y-83190000D01*
X140838000Y-83190000D02*
X140462000Y-83566000D01*
X122560000Y-80440000D02*
X122560000Y-81412000D01*
X122936000Y-81788000D02*
X122560000Y-81412000D01*
X122560000Y-102440000D02*
X122560000Y-101224000D01*
X122560000Y-101224000D02*
X122428000Y-101092000D01*
D30*
X123444000Y-98806000D02*
X123444000Y-98875998D01*
X123444000Y-98875998D02*
X123444000Y-98806000D01*
X123444000Y-98806000D02*
X123444000Y-98044000D01*
X123444000Y-98875998D02*
X137922000Y-98875998D01*
X123444000Y-84004002D02*
X123444000Y-98044000D01*
X123444000Y-84004002D02*
X123513998Y-84074000D01*
X123513998Y-84074000D02*
X124714000Y-84074000D01*
X124714000Y-84074000D02*
X138245998Y-84074000D01*
X138245998Y-84074000D02*
X138176000Y-84143998D01*
X138176000Y-84143998D02*
X138176000Y-84836000D01*
X138176000Y-84836000D02*
X138176000Y-98736002D01*
X138176000Y-98736002D02*
X138036004Y-98875998D01*
D28*
X141810000Y-93690000D02*
X144490000Y-93690000D01*
X147770002Y-100018002D02*
X148082000Y-100330000D01*
X147770002Y-96970002D02*
X147770002Y-100018002D01*
X144490000Y-93690000D02*
X147770002Y-96970002D01*
X141810000Y-93190000D02*
X144752000Y-93190000D01*
X148336000Y-97536000D02*
X148590000Y-97790000D01*
X148336000Y-96774000D02*
X148336000Y-97536000D01*
X144752000Y-93190000D02*
X148336000Y-96774000D01*
X141810000Y-92690000D02*
X145014000Y-92690000D01*
X147574000Y-95250000D02*
X147828000Y-95250000D01*
X145014000Y-92690000D02*
X147574000Y-95250000D01*
X141810000Y-88190000D02*
X143458000Y-88190000D01*
X143458000Y-88190000D02*
X144526000Y-87122000D01*
X141810000Y-84190000D02*
X143394000Y-84190000D01*
X146050000Y-77724000D02*
X146304000Y-77470000D01*
X146050000Y-81534000D02*
X146050000Y-77724000D01*
X143394000Y-84190000D02*
X146050000Y-81534000D01*
D29*
X152400000Y-95250000D02*
X151130000Y-95250000D01*
X153670000Y-96520000D02*
X152400000Y-95250000D01*
X153670000Y-107950000D02*
X153670000Y-96520000D01*
X152400000Y-83058000D02*
X150876000Y-83058000D01*
X153924000Y-84582000D02*
X152400000Y-83058000D01*
X153924000Y-86614000D02*
X153924000Y-84582000D01*
X155194000Y-87884000D02*
X153924000Y-86614000D01*
X155194000Y-94742000D02*
X155194000Y-87884000D01*
X155194000Y-107696000D02*
X155194000Y-100584000D01*
X145796000Y-116078000D02*
X145970000Y-116252000D01*
X145970000Y-116252000D02*
X145970000Y-116840000D01*
X145970000Y-116760000D02*
X145970000Y-116840000D01*
X145034000Y-114300000D02*
X145970000Y-114300000D01*
X144526000Y-113792000D02*
X145034000Y-114300000D01*
X145034000Y-111760000D02*
X145970000Y-111760000D01*
X144526000Y-112268000D02*
X145034000Y-111760000D01*
D30*
X124460000Y-117856000D02*
X124460000Y-117348000D01*
X128524000Y-116078000D02*
X129540000Y-115062000D01*
X125730000Y-116078000D02*
X128524000Y-116078000D01*
X124460000Y-117348000D02*
X125730000Y-116078000D01*
X129540000Y-121920000D02*
X127000000Y-121920000D01*
X127000000Y-121920000D02*
X125476000Y-121920000D01*
X124460000Y-120904000D02*
X124460000Y-117856000D01*
X125476000Y-121920000D02*
X124460000Y-120904000D01*
D28*
X138060000Y-80440000D02*
X138060000Y-78856000D01*
X140970000Y-74930000D02*
X139700000Y-73660000D01*
X140970000Y-77216000D02*
X140970000Y-74930000D01*
X140208000Y-77978000D02*
X140970000Y-77216000D01*
X138938000Y-77978000D02*
X140208000Y-77978000D01*
X138060000Y-78856000D02*
X138938000Y-77978000D01*
X137560000Y-80440000D02*
X137560000Y-78594000D01*
X137560000Y-78594000D02*
X139700000Y-76454000D01*
X139700000Y-76454000D02*
X139700000Y-76200000D01*
X137060000Y-80440000D02*
X137060000Y-78332000D01*
X138430000Y-74930000D02*
X137160000Y-73660000D01*
X138430000Y-76962000D02*
X138430000Y-74930000D01*
X137060000Y-78332000D02*
X138430000Y-76962000D01*
X136560000Y-80440000D02*
X136560000Y-76800000D01*
X136560000Y-76800000D02*
X137160000Y-76200000D01*
X136060000Y-80440000D02*
X136060000Y-78064000D01*
X135890000Y-74930000D02*
X134620000Y-73660000D01*
X135890000Y-77894000D02*
X135890000Y-74930000D01*
X136060000Y-78064000D02*
X135890000Y-77894000D01*
X135560000Y-80440000D02*
X135560000Y-78918000D01*
X134620000Y-77978000D02*
X134620000Y-76200000D01*
X135560000Y-78918000D02*
X134620000Y-77978000D01*
X132560000Y-80440000D02*
X132560000Y-78768000D01*
X133350000Y-74930000D02*
X132080000Y-73660000D01*
X133350000Y-77978000D02*
X133350000Y-74930000D01*
X132560000Y-78768000D02*
X133350000Y-77978000D01*
X132060000Y-80440000D02*
X132060000Y-76220000D01*
X132060000Y-76220000D02*
X132080000Y-76200000D01*
X130560000Y-80440000D02*
X130560000Y-78482000D01*
X130810000Y-74930000D02*
X129540000Y-73660000D01*
X130810000Y-78232000D02*
X130810000Y-74930000D01*
X130560000Y-78482000D02*
X130810000Y-78232000D01*
X130060000Y-80440000D02*
X130060000Y-76720000D01*
X130060000Y-76720000D02*
X129540000Y-76200000D01*
X127560000Y-80440000D02*
X127560000Y-78688000D01*
X128270000Y-74930000D02*
X127000000Y-73660000D01*
X128270000Y-77978000D02*
X128270000Y-74930000D01*
X127560000Y-78688000D02*
X128270000Y-77978000D01*
X127060000Y-80440000D02*
X127060000Y-76260000D01*
X127000000Y-76200000D02*
X127000000Y-76200000D01*
X127060000Y-76260000D02*
X127000000Y-76200000D01*
X126560000Y-80440000D02*
X126560000Y-77792000D01*
X125730000Y-74930000D02*
X124460000Y-73660000D01*
X125730000Y-76962000D02*
X125730000Y-74930000D01*
X126560000Y-77792000D02*
X125730000Y-76962000D01*
X126060000Y-80440000D02*
X126060000Y-78308000D01*
X126060000Y-78308000D02*
X124460000Y-76708000D01*
X124460000Y-76708000D02*
X124460000Y-76200000D01*
X123952000Y-109474000D02*
X123952000Y-109902000D01*
X123952000Y-109902000D02*
X124460000Y-110410000D01*
X125730000Y-108712000D02*
X125730000Y-108966000D01*
X125730000Y-108712000D02*
X126238000Y-108204000D01*
X129032000Y-104902000D02*
X129560000Y-104374000D01*
X129560000Y-102440000D02*
X129560000Y-104374000D01*
X119380000Y-109982000D02*
X119380000Y-111760000D01*
X124206000Y-109220000D02*
X123952000Y-109474000D01*
X125476000Y-109220000D02*
X124206000Y-109220000D01*
X125730000Y-108966000D02*
X125476000Y-109220000D01*
X124460000Y-109982000D02*
X124888000Y-110410000D01*
X130560000Y-105406000D02*
X129794000Y-106172000D01*
X130560000Y-105406000D02*
X130560000Y-102440000D01*
X120650000Y-114300000D02*
X120650000Y-115062000D01*
X120650000Y-114300000D02*
X120650000Y-109300000D01*
X121920000Y-108030000D02*
X120650000Y-109300000D01*
X120650000Y-115062000D02*
X119380000Y-116332000D01*
X119380000Y-116332000D02*
X119380000Y-116840000D01*
X129060000Y-102440000D02*
X129060000Y-103604000D01*
X122856000Y-108030000D02*
X121920000Y-108030000D01*
X122936000Y-107950000D02*
X122856000Y-108030000D01*
X127762000Y-104902000D02*
X125984000Y-104902000D01*
X129060000Y-103604000D02*
X127762000Y-104902000D01*
X121920000Y-108030000D02*
X122094000Y-108030000D01*
X120650000Y-120650000D02*
X120650000Y-118618000D01*
X122428000Y-118110000D02*
X123190000Y-117348000D01*
X121158000Y-118110000D02*
X122428000Y-118110000D01*
X120650000Y-118618000D02*
X121158000Y-118110000D01*
X124460000Y-108030000D02*
X124888000Y-108030000D01*
X124888000Y-108030000D02*
X125222000Y-107696000D01*
X130060000Y-104890000D02*
X129286000Y-105664000D01*
X129286000Y-105664000D02*
X126826000Y-105664000D01*
X130060000Y-102440000D02*
X130060000Y-104890000D01*
X126746000Y-105664000D02*
X126826000Y-105664000D01*
X124460000Y-108030000D02*
X124460000Y-107950000D01*
X119380000Y-121920000D02*
X120396000Y-120904000D01*
X123190000Y-109300000D02*
X124460000Y-108030000D01*
X123190000Y-117348000D02*
X123190000Y-109300000D01*
X120396000Y-120904000D02*
X120650000Y-120650000D01*
X133674000Y-107566000D02*
X133674000Y-104578000D01*
X134060000Y-104192000D02*
X134060000Y-102440000D01*
X133674000Y-104578000D02*
X134060000Y-104192000D01*
X143510000Y-104902000D02*
X143510000Y-105156000D01*
X143442000Y-95690000D02*
X145796000Y-98044000D01*
X145796000Y-98044000D02*
X145796000Y-102616000D01*
X145796000Y-102616000D02*
X143510000Y-104902000D01*
X141810000Y-95690000D02*
X143442000Y-95690000D01*
X145796000Y-104140000D02*
X145796000Y-105156000D01*
X143966000Y-94690000D02*
X146696004Y-97420004D01*
X146696004Y-97420004D02*
X146696004Y-103239996D01*
X146696004Y-103239996D02*
X145796000Y-104140000D01*
X141810000Y-94690000D02*
X143966000Y-94690000D01*
X145796000Y-105156000D02*
X146050000Y-105410000D01*
X147320000Y-97282000D02*
X147320000Y-102616000D01*
X141810000Y-94190000D02*
X144228000Y-94190000D01*
X144228000Y-94190000D02*
X147320000Y-97282000D01*
X147320000Y-102616000D02*
X147574000Y-102870000D01*
X141810000Y-87190000D02*
X143188000Y-87190000D01*
X145288000Y-85090000D02*
X145796000Y-85090000D01*
X143188000Y-87190000D02*
X145288000Y-85090000D01*
X141810000Y-86190000D02*
X143172000Y-86190000D01*
X143172000Y-86190000D02*
X146812000Y-82550000D01*
X141810000Y-83690000D02*
X143132000Y-83690000D01*
X145542000Y-81280000D02*
X145542000Y-74930000D01*
X143132000Y-83690000D02*
X145542000Y-81280000D01*
X128060000Y-102440000D02*
X128060000Y-103842000D01*
X120650000Y-106934000D02*
X119554000Y-108030000D01*
X127762000Y-104140000D02*
X120650000Y-104140000D01*
X128060000Y-103842000D02*
X127762000Y-104140000D01*
X119554000Y-108030000D02*
X119380000Y-108030000D01*
X119380000Y-108030000D02*
X119554000Y-108030000D01*
X119380000Y-108030000D02*
X119380000Y-108204000D01*
X119810000Y-95690000D02*
X118178000Y-95690000D01*
X118178000Y-95690000D02*
X117856000Y-96012000D01*
X119810000Y-93690000D02*
X118074000Y-93690000D01*
X118074000Y-93690000D02*
X117856000Y-93472000D01*
X119810000Y-88190000D02*
X117908000Y-88190000D01*
X117908000Y-88190000D02*
X117856000Y-88138000D01*
D29*
X148670000Y-111760000D02*
X150250000Y-111760000D01*
X150250000Y-111760000D02*
X151520000Y-110490000D01*
D28*
X139700000Y-119380000D02*
X139700000Y-118618000D01*
X140970000Y-105156000D02*
X144272000Y-101854000D01*
X140970000Y-117348000D02*
X140970000Y-105156000D01*
X139700000Y-118618000D02*
X140970000Y-117348000D01*
X141810000Y-98190000D02*
X143656000Y-98190000D01*
X144272000Y-98806000D02*
X144272000Y-101854000D01*
X143656000Y-98190000D02*
X144272000Y-98806000D01*
X139700000Y-121920000D02*
X139446000Y-121920000D01*
X139446000Y-121920000D02*
X138430000Y-120904000D01*
X138430000Y-120904000D02*
X138430000Y-118618000D01*
X138430000Y-118618000D02*
X140208000Y-116840000D01*
X140208000Y-116840000D02*
X140208000Y-105156000D01*
X140208000Y-105156000D02*
X143764000Y-101600000D01*
X143764000Y-101600000D02*
X143764000Y-99060000D01*
X143764000Y-99060000D02*
X143443998Y-98739998D01*
X143443998Y-98739998D02*
X141810000Y-98739998D01*
X141810000Y-98739998D02*
X141810000Y-98690000D01*
X137160000Y-119380000D02*
X137160000Y-118618000D01*
X143132000Y-99190000D02*
X141810000Y-99190000D01*
X143256000Y-99314000D02*
X143132000Y-99190000D01*
X143256000Y-101346000D02*
X143256000Y-99314000D01*
X139446000Y-105156000D02*
X143256000Y-101346000D01*
X139446000Y-116332000D02*
X139446000Y-105156000D01*
X137160000Y-118618000D02*
X139446000Y-116332000D01*
X137160000Y-121920000D02*
X135890000Y-120650000D01*
X138060000Y-103770000D02*
X138060000Y-102440000D01*
X138684000Y-104394000D02*
X138060000Y-103770000D01*
X138684000Y-115824000D02*
X138684000Y-104394000D01*
X135890000Y-118618000D02*
X138684000Y-115824000D01*
X135890000Y-120650000D02*
X135890000Y-118618000D01*
X134620000Y-119380000D02*
X134620000Y-118618000D01*
X134620000Y-118618000D02*
X137922000Y-115316000D01*
X137560000Y-104540000D02*
X137560000Y-102440000D01*
X137922000Y-104902000D02*
X137560000Y-104540000D01*
X137922000Y-115316000D02*
X137922000Y-104902000D01*
X134620000Y-121920000D02*
X133350000Y-120650000D01*
X137060000Y-105310000D02*
X137060000Y-102440000D01*
X137160000Y-105410000D02*
X137060000Y-105310000D01*
X137160000Y-114554000D02*
X137160000Y-105410000D01*
X133350000Y-118364000D02*
X137160000Y-114554000D01*
X133350000Y-120650000D02*
X133350000Y-118364000D01*
X132080000Y-119380000D02*
X132080000Y-118364000D01*
X135560000Y-104318000D02*
X135560000Y-102440000D01*
X136398000Y-105156000D02*
X135560000Y-104318000D01*
X136398000Y-114046000D02*
X136398000Y-105156000D01*
X132080000Y-118364000D02*
X136398000Y-114046000D01*
X135510002Y-102440000D02*
X135560000Y-102440000D01*
X132080000Y-121920000D02*
X130810000Y-120650000D01*
X135060000Y-105088000D02*
X135060000Y-102440000D01*
X135636000Y-105664000D02*
X135060000Y-105088000D01*
X135636000Y-113284000D02*
X135636000Y-105664000D01*
X130810000Y-118110000D02*
X135636000Y-113284000D01*
X130810000Y-120650000D02*
X130810000Y-118110000D01*
D29*
X153670000Y-109220000D02*
X152908000Y-108458000D01*
X152908000Y-99178000D02*
X151520000Y-97790000D01*
X152908000Y-108458000D02*
X152908000Y-99178000D01*
X148670000Y-114300000D02*
X150622000Y-114300000D01*
X153670000Y-111252000D02*
X153670000Y-109220000D01*
X150622000Y-114300000D02*
X153670000Y-111252000D01*
X154432000Y-94234000D02*
X154432000Y-88392000D01*
X148670000Y-116840000D02*
X149606000Y-116840000D01*
X154432000Y-88392000D02*
X151520000Y-85480000D01*
X154432000Y-94234000D02*
X154432000Y-94234000D01*
X154432000Y-100330000D02*
X154432000Y-94234000D01*
X154432000Y-100330000D02*
X154432000Y-100330000D01*
X154432000Y-107950000D02*
X154432000Y-100330000D01*
X154432000Y-107950000D02*
X154432000Y-107950000D01*
X154432000Y-112014000D02*
X154432000Y-107950000D01*
X149606000Y-116840000D02*
X154432000Y-112014000D01*
X151520000Y-85480000D02*
X151520000Y-85090000D01*
D28*
X125560000Y-80440000D02*
X125560000Y-78570000D01*
X123190000Y-74930000D02*
X121920000Y-73660000D01*
X123190000Y-76962000D02*
X123190000Y-74930000D01*
X123952000Y-77724000D02*
X123190000Y-76962000D01*
X124714000Y-77724000D02*
X123952000Y-77724000D01*
X125560000Y-78570000D02*
X124714000Y-77724000D01*
X124560000Y-80440000D02*
X124560000Y-79094000D01*
X124560000Y-79094000D02*
X121920000Y-76454000D01*
X121920000Y-76454000D02*
X121920000Y-76200000D01*
X123560000Y-80440000D02*
X123560000Y-78856000D01*
X120650000Y-74930000D02*
X119380000Y-73660000D01*
X120650000Y-77216000D02*
X120650000Y-74930000D01*
X121158000Y-77724000D02*
X120650000Y-77216000D01*
X122428000Y-77724000D02*
X121158000Y-77724000D01*
X123560000Y-78856000D02*
X122428000Y-77724000D01*
X123060000Y-80440000D02*
X123060000Y-79118000D01*
X119380000Y-77216000D02*
X119380000Y-76200000D01*
X120396000Y-78232000D02*
X119380000Y-77216000D01*
X122174000Y-78232000D02*
X120396000Y-78232000D01*
X123060000Y-79118000D02*
X122174000Y-78232000D01*
X145288000Y-106172000D02*
X145288000Y-107696000D01*
X141810000Y-95190000D02*
X143704000Y-95190000D01*
X145288000Y-103886000D02*
X145288000Y-106172000D01*
X146246002Y-102927998D02*
X145288000Y-103886000D01*
X146246002Y-97732002D02*
X146246002Y-102927998D01*
X143704000Y-95190000D02*
X146246002Y-97732002D01*
X145288000Y-107696000D02*
X145542000Y-107950000D01*
X141810000Y-92190000D02*
X145530000Y-92190000D01*
X145530000Y-92190000D02*
X146050000Y-92710000D01*
X141810000Y-89190000D02*
X144816000Y-89190000D01*
X144816000Y-89190000D02*
X145796000Y-90170000D01*
X141810000Y-88690000D02*
X144228000Y-88690000D01*
X144228000Y-88690000D02*
X144526000Y-88392000D01*
X141810000Y-85190000D02*
X143156000Y-85190000D01*
X146558000Y-80264000D02*
X146812000Y-80010000D01*
X146558000Y-81788000D02*
X146558000Y-80264000D01*
X143156000Y-85190000D02*
X146558000Y-81788000D01*
D30*
X146050000Y-119400000D02*
X146050000Y-118618000D01*
D28*
X139060000Y-80440000D02*
X139060000Y-79380000D01*
X143510000Y-74930000D02*
X142240000Y-73660000D01*
X143510000Y-78232000D02*
X143510000Y-74930000D01*
X142748000Y-78994000D02*
X143510000Y-78232000D01*
X139446000Y-78994000D02*
X142748000Y-78994000D01*
X139060000Y-79380000D02*
X139446000Y-78994000D01*
X138560000Y-80440000D02*
X138560000Y-79118000D01*
X142240000Y-77470000D02*
X142240000Y-76200000D01*
X141224000Y-78486000D02*
X142240000Y-77470000D01*
X139192000Y-78486000D02*
X141224000Y-78486000D01*
X138560000Y-79118000D02*
X139192000Y-78486000D01*
M02*
