G04 #@! TF.FileFunction,Soldermask,Top*
%FSLAX46Y46*%
G04 Gerber Fmt 4.6, Leading zero omitted, Abs format (unit mm)*
G04 Created by KiCad (PCBNEW 4.0.4-stable) date 12/09/17 18:10:45*
%MOMM*%
%LPD*%
G01*
G04 APERTURE LIST*
%ADD10C,0.100000*%
G04 APERTURE END LIST*
D10*
G36*
X132291034Y-120886351D02*
X132291052Y-120886357D01*
X132291132Y-120886365D01*
X132486891Y-120946963D01*
X132667153Y-121044430D01*
X132825049Y-121175053D01*
X132954567Y-121333858D01*
X133050773Y-121514795D01*
X133110003Y-121710973D01*
X133130000Y-121914919D01*
X133130000Y-121925154D01*
X133129927Y-121935685D01*
X133129926Y-121935692D01*
X133129898Y-121939741D01*
X133107055Y-122143388D01*
X133045092Y-122338720D01*
X132946369Y-122518296D01*
X132814647Y-122675277D01*
X132654941Y-122803684D01*
X132473337Y-122898624D01*
X132276750Y-122956483D01*
X132276680Y-122956489D01*
X132276661Y-122956495D01*
X132072675Y-122975059D01*
X131868966Y-122953649D01*
X131868948Y-122953643D01*
X131868868Y-122953635D01*
X131673109Y-122893037D01*
X131492847Y-122795570D01*
X131334951Y-122664947D01*
X131205433Y-122506142D01*
X131109227Y-122325205D01*
X131049997Y-122129027D01*
X131030000Y-121925081D01*
X131030000Y-121914846D01*
X131030073Y-121904315D01*
X131030074Y-121904308D01*
X131030102Y-121900259D01*
X131052945Y-121696612D01*
X131114908Y-121501280D01*
X131213631Y-121321704D01*
X131345353Y-121164723D01*
X131505059Y-121036316D01*
X131686663Y-120941376D01*
X131883250Y-120883517D01*
X131883320Y-120883511D01*
X131883339Y-120883505D01*
X132087325Y-120864941D01*
X132291034Y-120886351D01*
X132291034Y-120886351D01*
G37*
G36*
X134831034Y-120886351D02*
X134831052Y-120886357D01*
X134831132Y-120886365D01*
X135026891Y-120946963D01*
X135207153Y-121044430D01*
X135365049Y-121175053D01*
X135494567Y-121333858D01*
X135590773Y-121514795D01*
X135650003Y-121710973D01*
X135670000Y-121914919D01*
X135670000Y-121925154D01*
X135669927Y-121935685D01*
X135669926Y-121935692D01*
X135669898Y-121939741D01*
X135647055Y-122143388D01*
X135585092Y-122338720D01*
X135486369Y-122518296D01*
X135354647Y-122675277D01*
X135194941Y-122803684D01*
X135013337Y-122898624D01*
X134816750Y-122956483D01*
X134816680Y-122956489D01*
X134816661Y-122956495D01*
X134612675Y-122975059D01*
X134408966Y-122953649D01*
X134408948Y-122953643D01*
X134408868Y-122953635D01*
X134213109Y-122893037D01*
X134032847Y-122795570D01*
X133874951Y-122664947D01*
X133745433Y-122506142D01*
X133649227Y-122325205D01*
X133589997Y-122129027D01*
X133570000Y-121925081D01*
X133570000Y-121914846D01*
X133570073Y-121904315D01*
X133570074Y-121904308D01*
X133570102Y-121900259D01*
X133592945Y-121696612D01*
X133654908Y-121501280D01*
X133753631Y-121321704D01*
X133885353Y-121164723D01*
X134045059Y-121036316D01*
X134226663Y-120941376D01*
X134423250Y-120883517D01*
X134423320Y-120883511D01*
X134423339Y-120883505D01*
X134627325Y-120864941D01*
X134831034Y-120886351D01*
X134831034Y-120886351D01*
G37*
G36*
X139911034Y-120886351D02*
X139911052Y-120886357D01*
X139911132Y-120886365D01*
X140106891Y-120946963D01*
X140287153Y-121044430D01*
X140445049Y-121175053D01*
X140574567Y-121333858D01*
X140670773Y-121514795D01*
X140730003Y-121710973D01*
X140750000Y-121914919D01*
X140750000Y-121925154D01*
X140749927Y-121935685D01*
X140749926Y-121935692D01*
X140749898Y-121939741D01*
X140727055Y-122143388D01*
X140665092Y-122338720D01*
X140566369Y-122518296D01*
X140434647Y-122675277D01*
X140274941Y-122803684D01*
X140093337Y-122898624D01*
X139896750Y-122956483D01*
X139896680Y-122956489D01*
X139896661Y-122956495D01*
X139692675Y-122975059D01*
X139488966Y-122953649D01*
X139488948Y-122953643D01*
X139488868Y-122953635D01*
X139293109Y-122893037D01*
X139112847Y-122795570D01*
X138954951Y-122664947D01*
X138825433Y-122506142D01*
X138729227Y-122325205D01*
X138669997Y-122129027D01*
X138650000Y-121925081D01*
X138650000Y-121914846D01*
X138650073Y-121904315D01*
X138650074Y-121904308D01*
X138650102Y-121900259D01*
X138672945Y-121696612D01*
X138734908Y-121501280D01*
X138833631Y-121321704D01*
X138965353Y-121164723D01*
X139125059Y-121036316D01*
X139306663Y-120941376D01*
X139503250Y-120883517D01*
X139503320Y-120883511D01*
X139503339Y-120883505D01*
X139707325Y-120864941D01*
X139911034Y-120886351D01*
X139911034Y-120886351D01*
G37*
G36*
X142451034Y-120886351D02*
X142451052Y-120886357D01*
X142451132Y-120886365D01*
X142646891Y-120946963D01*
X142827153Y-121044430D01*
X142985049Y-121175053D01*
X143114567Y-121333858D01*
X143210773Y-121514795D01*
X143270003Y-121710973D01*
X143290000Y-121914919D01*
X143290000Y-121925154D01*
X143289927Y-121935685D01*
X143289926Y-121935692D01*
X143289898Y-121939741D01*
X143267055Y-122143388D01*
X143205092Y-122338720D01*
X143106369Y-122518296D01*
X142974647Y-122675277D01*
X142814941Y-122803684D01*
X142633337Y-122898624D01*
X142436750Y-122956483D01*
X142436680Y-122956489D01*
X142436661Y-122956495D01*
X142232675Y-122975059D01*
X142028966Y-122953649D01*
X142028948Y-122953643D01*
X142028868Y-122953635D01*
X141833109Y-122893037D01*
X141652847Y-122795570D01*
X141494951Y-122664947D01*
X141365433Y-122506142D01*
X141269227Y-122325205D01*
X141209997Y-122129027D01*
X141190000Y-121925081D01*
X141190000Y-121914846D01*
X141190073Y-121904315D01*
X141190074Y-121904308D01*
X141190102Y-121900259D01*
X141212945Y-121696612D01*
X141274908Y-121501280D01*
X141373631Y-121321704D01*
X141505353Y-121164723D01*
X141665059Y-121036316D01*
X141846663Y-120941376D01*
X142043250Y-120883517D01*
X142043320Y-120883511D01*
X142043339Y-120883505D01*
X142247325Y-120864941D01*
X142451034Y-120886351D01*
X142451034Y-120886351D01*
G37*
G36*
X137371034Y-120886351D02*
X137371052Y-120886357D01*
X137371132Y-120886365D01*
X137566891Y-120946963D01*
X137747153Y-121044430D01*
X137905049Y-121175053D01*
X138034567Y-121333858D01*
X138130773Y-121514795D01*
X138190003Y-121710973D01*
X138210000Y-121914919D01*
X138210000Y-121925154D01*
X138209927Y-121935685D01*
X138209926Y-121935692D01*
X138209898Y-121939741D01*
X138187055Y-122143388D01*
X138125092Y-122338720D01*
X138026369Y-122518296D01*
X137894647Y-122675277D01*
X137734941Y-122803684D01*
X137553337Y-122898624D01*
X137356750Y-122956483D01*
X137356680Y-122956489D01*
X137356661Y-122956495D01*
X137152675Y-122975059D01*
X136948966Y-122953649D01*
X136948948Y-122953643D01*
X136948868Y-122953635D01*
X136753109Y-122893037D01*
X136572847Y-122795570D01*
X136414951Y-122664947D01*
X136285433Y-122506142D01*
X136189227Y-122325205D01*
X136129997Y-122129027D01*
X136110000Y-121925081D01*
X136110000Y-121914846D01*
X136110073Y-121904315D01*
X136110074Y-121904308D01*
X136110102Y-121900259D01*
X136132945Y-121696612D01*
X136194908Y-121501280D01*
X136293631Y-121321704D01*
X136425353Y-121164723D01*
X136585059Y-121036316D01*
X136766663Y-120941376D01*
X136963250Y-120883517D01*
X136963320Y-120883511D01*
X136963339Y-120883505D01*
X137167325Y-120864941D01*
X137371034Y-120886351D01*
X137371034Y-120886351D01*
G37*
G36*
X127015685Y-120870073D02*
X127015692Y-120870074D01*
X127019741Y-120870102D01*
X127223388Y-120892945D01*
X127418720Y-120954908D01*
X127598296Y-121053631D01*
X127755277Y-121185353D01*
X127883684Y-121345059D01*
X127978624Y-121526663D01*
X128036483Y-121723250D01*
X128036489Y-121723320D01*
X128036495Y-121723339D01*
X128055059Y-121927325D01*
X128033649Y-122131034D01*
X128033643Y-122131052D01*
X128033635Y-122131132D01*
X127973037Y-122326891D01*
X127875570Y-122507153D01*
X127744947Y-122665049D01*
X127586142Y-122794567D01*
X127405205Y-122890773D01*
X127209027Y-122950003D01*
X127005081Y-122970000D01*
X126994846Y-122970000D01*
X126984315Y-122969927D01*
X126984308Y-122969926D01*
X126980259Y-122969898D01*
X126776612Y-122947055D01*
X126581280Y-122885092D01*
X126401704Y-122786369D01*
X126244723Y-122654647D01*
X126116316Y-122494941D01*
X126021376Y-122313337D01*
X125963517Y-122116750D01*
X125963511Y-122116680D01*
X125963505Y-122116661D01*
X125944941Y-121912675D01*
X125966351Y-121708966D01*
X125966357Y-121708948D01*
X125966365Y-121708868D01*
X126026963Y-121513109D01*
X126124430Y-121332847D01*
X126255053Y-121174951D01*
X126413858Y-121045433D01*
X126594795Y-120949227D01*
X126790973Y-120889997D01*
X126994919Y-120870000D01*
X127005154Y-120870000D01*
X127015685Y-120870073D01*
X127015685Y-120870073D01*
G37*
G36*
X119395685Y-120870073D02*
X119395692Y-120870074D01*
X119399741Y-120870102D01*
X119603388Y-120892945D01*
X119798720Y-120954908D01*
X119978296Y-121053631D01*
X120135277Y-121185353D01*
X120263684Y-121345059D01*
X120358624Y-121526663D01*
X120416483Y-121723250D01*
X120416489Y-121723320D01*
X120416495Y-121723339D01*
X120435059Y-121927325D01*
X120413649Y-122131034D01*
X120413643Y-122131052D01*
X120413635Y-122131132D01*
X120353037Y-122326891D01*
X120255570Y-122507153D01*
X120124947Y-122665049D01*
X119966142Y-122794567D01*
X119785205Y-122890773D01*
X119589027Y-122950003D01*
X119385081Y-122970000D01*
X119374846Y-122970000D01*
X119364315Y-122969927D01*
X119364308Y-122969926D01*
X119360259Y-122969898D01*
X119156612Y-122947055D01*
X118961280Y-122885092D01*
X118781704Y-122786369D01*
X118624723Y-122654647D01*
X118496316Y-122494941D01*
X118401376Y-122313337D01*
X118343517Y-122116750D01*
X118343511Y-122116680D01*
X118343505Y-122116661D01*
X118324941Y-121912675D01*
X118346351Y-121708966D01*
X118346357Y-121708948D01*
X118346365Y-121708868D01*
X118406963Y-121513109D01*
X118504430Y-121332847D01*
X118635053Y-121174951D01*
X118793858Y-121045433D01*
X118974795Y-120949227D01*
X119170973Y-120889997D01*
X119374919Y-120870000D01*
X119385154Y-120870000D01*
X119395685Y-120870073D01*
X119395685Y-120870073D01*
G37*
G36*
X121935685Y-120870073D02*
X121935692Y-120870074D01*
X121939741Y-120870102D01*
X122143388Y-120892945D01*
X122338720Y-120954908D01*
X122518296Y-121053631D01*
X122675277Y-121185353D01*
X122803684Y-121345059D01*
X122898624Y-121526663D01*
X122956483Y-121723250D01*
X122956489Y-121723320D01*
X122956495Y-121723339D01*
X122975059Y-121927325D01*
X122953649Y-122131034D01*
X122953643Y-122131052D01*
X122953635Y-122131132D01*
X122893037Y-122326891D01*
X122795570Y-122507153D01*
X122664947Y-122665049D01*
X122506142Y-122794567D01*
X122325205Y-122890773D01*
X122129027Y-122950003D01*
X121925081Y-122970000D01*
X121914846Y-122970000D01*
X121904315Y-122969927D01*
X121904308Y-122969926D01*
X121900259Y-122969898D01*
X121696612Y-122947055D01*
X121501280Y-122885092D01*
X121321704Y-122786369D01*
X121164723Y-122654647D01*
X121036316Y-122494941D01*
X120941376Y-122313337D01*
X120883517Y-122116750D01*
X120883511Y-122116680D01*
X120883505Y-122116661D01*
X120864941Y-121912675D01*
X120886351Y-121708966D01*
X120886357Y-121708948D01*
X120886365Y-121708868D01*
X120946963Y-121513109D01*
X121044430Y-121332847D01*
X121175053Y-121174951D01*
X121333858Y-121045433D01*
X121514795Y-120949227D01*
X121710973Y-120889997D01*
X121914919Y-120870000D01*
X121925154Y-120870000D01*
X121935685Y-120870073D01*
X121935685Y-120870073D01*
G37*
G36*
X129555685Y-120870073D02*
X129555692Y-120870074D01*
X129559741Y-120870102D01*
X129763388Y-120892945D01*
X129958720Y-120954908D01*
X130138296Y-121053631D01*
X130295277Y-121185353D01*
X130423684Y-121345059D01*
X130518624Y-121526663D01*
X130576483Y-121723250D01*
X130576489Y-121723320D01*
X130576495Y-121723339D01*
X130595059Y-121927325D01*
X130573649Y-122131034D01*
X130573643Y-122131052D01*
X130573635Y-122131132D01*
X130513037Y-122326891D01*
X130415570Y-122507153D01*
X130284947Y-122665049D01*
X130126142Y-122794567D01*
X129945205Y-122890773D01*
X129749027Y-122950003D01*
X129545081Y-122970000D01*
X129534846Y-122970000D01*
X129524315Y-122969927D01*
X129524308Y-122969926D01*
X129520259Y-122969898D01*
X129316612Y-122947055D01*
X129121280Y-122885092D01*
X128941704Y-122786369D01*
X128784723Y-122654647D01*
X128656316Y-122494941D01*
X128561376Y-122313337D01*
X128503517Y-122116750D01*
X128503511Y-122116680D01*
X128503505Y-122116661D01*
X128484941Y-121912675D01*
X128506351Y-121708966D01*
X128506357Y-121708948D01*
X128506365Y-121708868D01*
X128566963Y-121513109D01*
X128664430Y-121332847D01*
X128795053Y-121174951D01*
X128953858Y-121045433D01*
X129134795Y-120949227D01*
X129330973Y-120889997D01*
X129534919Y-120870000D01*
X129545154Y-120870000D01*
X129555685Y-120870073D01*
X129555685Y-120870073D01*
G37*
G36*
X146875000Y-122850000D02*
X145225000Y-122850000D01*
X145225000Y-120950000D01*
X146875000Y-120950000D01*
X146875000Y-122850000D01*
X146875000Y-122850000D01*
G37*
G36*
X155255103Y-116381994D02*
X155831421Y-116500295D01*
X156373778Y-116728281D01*
X156861530Y-117057273D01*
X157276086Y-117474734D01*
X157601662Y-117964766D01*
X157825859Y-118508708D01*
X157939996Y-119085145D01*
X157939996Y-119085162D01*
X157940129Y-119085835D01*
X157930746Y-119757819D01*
X157930594Y-119758487D01*
X157930594Y-119758506D01*
X157800407Y-120331528D01*
X157561108Y-120869003D01*
X157221979Y-121349748D01*
X156795925Y-121755473D01*
X156299176Y-122070720D01*
X155750668Y-122283472D01*
X155171270Y-122385636D01*
X154583069Y-122373315D01*
X154008461Y-122246979D01*
X153469337Y-122011442D01*
X152986231Y-121675674D01*
X152577541Y-121252463D01*
X152258836Y-120757930D01*
X152042257Y-120210913D01*
X151936052Y-119632247D01*
X151944266Y-119043977D01*
X152066587Y-118468501D01*
X152298357Y-117927741D01*
X152630745Y-117442303D01*
X153051090Y-117030669D01*
X153543383Y-116708522D01*
X154088873Y-116488129D01*
X154666786Y-116377886D01*
X155255103Y-116381994D01*
X155255103Y-116381994D01*
G37*
G36*
X137371034Y-118346351D02*
X137371052Y-118346357D01*
X137371132Y-118346365D01*
X137566891Y-118406963D01*
X137747153Y-118504430D01*
X137905049Y-118635053D01*
X138034567Y-118793858D01*
X138130773Y-118974795D01*
X138190003Y-119170973D01*
X138210000Y-119374919D01*
X138210000Y-119385154D01*
X138209927Y-119395685D01*
X138209926Y-119395692D01*
X138209898Y-119399741D01*
X138187055Y-119603388D01*
X138125092Y-119798720D01*
X138026369Y-119978296D01*
X137894647Y-120135277D01*
X137734941Y-120263684D01*
X137553337Y-120358624D01*
X137356750Y-120416483D01*
X137356680Y-120416489D01*
X137356661Y-120416495D01*
X137152675Y-120435059D01*
X136948966Y-120413649D01*
X136948948Y-120413643D01*
X136948868Y-120413635D01*
X136753109Y-120353037D01*
X136572847Y-120255570D01*
X136414951Y-120124947D01*
X136285433Y-119966142D01*
X136189227Y-119785205D01*
X136129997Y-119589027D01*
X136110000Y-119385081D01*
X136110000Y-119374846D01*
X136110073Y-119364315D01*
X136110074Y-119364308D01*
X136110102Y-119360259D01*
X136132945Y-119156612D01*
X136194908Y-118961280D01*
X136293631Y-118781704D01*
X136425353Y-118624723D01*
X136585059Y-118496316D01*
X136766663Y-118401376D01*
X136963250Y-118343517D01*
X136963320Y-118343511D01*
X136963339Y-118343505D01*
X137167325Y-118324941D01*
X137371034Y-118346351D01*
X137371034Y-118346351D01*
G37*
G36*
X139911034Y-118346351D02*
X139911052Y-118346357D01*
X139911132Y-118346365D01*
X140106891Y-118406963D01*
X140287153Y-118504430D01*
X140445049Y-118635053D01*
X140574567Y-118793858D01*
X140670773Y-118974795D01*
X140730003Y-119170973D01*
X140750000Y-119374919D01*
X140750000Y-119385154D01*
X140749927Y-119395685D01*
X140749926Y-119395692D01*
X140749898Y-119399741D01*
X140727055Y-119603388D01*
X140665092Y-119798720D01*
X140566369Y-119978296D01*
X140434647Y-120135277D01*
X140274941Y-120263684D01*
X140093337Y-120358624D01*
X139896750Y-120416483D01*
X139896680Y-120416489D01*
X139896661Y-120416495D01*
X139692675Y-120435059D01*
X139488966Y-120413649D01*
X139488948Y-120413643D01*
X139488868Y-120413635D01*
X139293109Y-120353037D01*
X139112847Y-120255570D01*
X138954951Y-120124947D01*
X138825433Y-119966142D01*
X138729227Y-119785205D01*
X138669997Y-119589027D01*
X138650000Y-119385081D01*
X138650000Y-119374846D01*
X138650073Y-119364315D01*
X138650074Y-119364308D01*
X138650102Y-119360259D01*
X138672945Y-119156612D01*
X138734908Y-118961280D01*
X138833631Y-118781704D01*
X138965353Y-118624723D01*
X139125059Y-118496316D01*
X139306663Y-118401376D01*
X139503250Y-118343517D01*
X139503320Y-118343511D01*
X139503339Y-118343505D01*
X139707325Y-118324941D01*
X139911034Y-118346351D01*
X139911034Y-118346351D01*
G37*
G36*
X134831034Y-118346351D02*
X134831052Y-118346357D01*
X134831132Y-118346365D01*
X135026891Y-118406963D01*
X135207153Y-118504430D01*
X135365049Y-118635053D01*
X135494567Y-118793858D01*
X135590773Y-118974795D01*
X135650003Y-119170973D01*
X135670000Y-119374919D01*
X135670000Y-119385154D01*
X135669927Y-119395685D01*
X135669926Y-119395692D01*
X135669898Y-119399741D01*
X135647055Y-119603388D01*
X135585092Y-119798720D01*
X135486369Y-119978296D01*
X135354647Y-120135277D01*
X135194941Y-120263684D01*
X135013337Y-120358624D01*
X134816750Y-120416483D01*
X134816680Y-120416489D01*
X134816661Y-120416495D01*
X134612675Y-120435059D01*
X134408966Y-120413649D01*
X134408948Y-120413643D01*
X134408868Y-120413635D01*
X134213109Y-120353037D01*
X134032847Y-120255570D01*
X133874951Y-120124947D01*
X133745433Y-119966142D01*
X133649227Y-119785205D01*
X133589997Y-119589027D01*
X133570000Y-119385081D01*
X133570000Y-119374846D01*
X133570073Y-119364315D01*
X133570074Y-119364308D01*
X133570102Y-119360259D01*
X133592945Y-119156612D01*
X133654908Y-118961280D01*
X133753631Y-118781704D01*
X133885353Y-118624723D01*
X134045059Y-118496316D01*
X134226663Y-118401376D01*
X134423250Y-118343517D01*
X134423320Y-118343511D01*
X134423339Y-118343505D01*
X134627325Y-118324941D01*
X134831034Y-118346351D01*
X134831034Y-118346351D01*
G37*
G36*
X132291034Y-118346351D02*
X132291052Y-118346357D01*
X132291132Y-118346365D01*
X132486891Y-118406963D01*
X132667153Y-118504430D01*
X132825049Y-118635053D01*
X132954567Y-118793858D01*
X133050773Y-118974795D01*
X133110003Y-119170973D01*
X133130000Y-119374919D01*
X133130000Y-119385154D01*
X133129927Y-119395685D01*
X133129926Y-119395692D01*
X133129898Y-119399741D01*
X133107055Y-119603388D01*
X133045092Y-119798720D01*
X132946369Y-119978296D01*
X132814647Y-120135277D01*
X132654941Y-120263684D01*
X132473337Y-120358624D01*
X132276750Y-120416483D01*
X132276680Y-120416489D01*
X132276661Y-120416495D01*
X132072675Y-120435059D01*
X131868966Y-120413649D01*
X131868948Y-120413643D01*
X131868868Y-120413635D01*
X131673109Y-120353037D01*
X131492847Y-120255570D01*
X131334951Y-120124947D01*
X131205433Y-119966142D01*
X131109227Y-119785205D01*
X131049997Y-119589027D01*
X131030000Y-119385081D01*
X131030000Y-119374846D01*
X131030073Y-119364315D01*
X131030074Y-119364308D01*
X131030102Y-119360259D01*
X131052945Y-119156612D01*
X131114908Y-118961280D01*
X131213631Y-118781704D01*
X131345353Y-118624723D01*
X131505059Y-118496316D01*
X131686663Y-118401376D01*
X131883250Y-118343517D01*
X131883320Y-118343511D01*
X131883339Y-118343505D01*
X132087325Y-118324941D01*
X132291034Y-118346351D01*
X132291034Y-118346351D01*
G37*
G36*
X143290000Y-120430000D02*
X141190000Y-120430000D01*
X141190000Y-118330000D01*
X143290000Y-118330000D01*
X143290000Y-120430000D01*
X143290000Y-120430000D01*
G37*
G36*
X130590000Y-120430000D02*
X128490000Y-120430000D01*
X128490000Y-118330000D01*
X130590000Y-118330000D01*
X130590000Y-120430000D01*
X130590000Y-120430000D01*
G37*
G36*
X128050000Y-120430000D02*
X125950000Y-120430000D01*
X125950000Y-118330000D01*
X128050000Y-118330000D01*
X128050000Y-120430000D01*
X128050000Y-120430000D01*
G37*
G36*
X119395685Y-118330073D02*
X119395692Y-118330074D01*
X119399741Y-118330102D01*
X119603388Y-118352945D01*
X119798720Y-118414908D01*
X119978296Y-118513631D01*
X120135277Y-118645353D01*
X120263684Y-118805059D01*
X120358624Y-118986663D01*
X120416483Y-119183250D01*
X120416489Y-119183320D01*
X120416495Y-119183339D01*
X120435059Y-119387325D01*
X120413649Y-119591034D01*
X120413643Y-119591052D01*
X120413635Y-119591132D01*
X120353037Y-119786891D01*
X120255570Y-119967153D01*
X120124947Y-120125049D01*
X119966142Y-120254567D01*
X119785205Y-120350773D01*
X119589027Y-120410003D01*
X119385081Y-120430000D01*
X119374846Y-120430000D01*
X119364315Y-120429927D01*
X119364308Y-120429926D01*
X119360259Y-120429898D01*
X119156612Y-120407055D01*
X118961280Y-120345092D01*
X118781704Y-120246369D01*
X118624723Y-120114647D01*
X118496316Y-119954941D01*
X118401376Y-119773337D01*
X118343517Y-119576750D01*
X118343511Y-119576680D01*
X118343505Y-119576661D01*
X118324941Y-119372675D01*
X118346351Y-119168966D01*
X118346357Y-119168948D01*
X118346365Y-119168868D01*
X118406963Y-118973109D01*
X118504430Y-118792847D01*
X118635053Y-118634951D01*
X118793858Y-118505433D01*
X118974795Y-118409227D01*
X119170973Y-118349997D01*
X119374919Y-118330000D01*
X119385154Y-118330000D01*
X119395685Y-118330073D01*
X119395685Y-118330073D01*
G37*
G36*
X121935685Y-118330073D02*
X121935692Y-118330074D01*
X121939741Y-118330102D01*
X122143388Y-118352945D01*
X122338720Y-118414908D01*
X122518296Y-118513631D01*
X122675277Y-118645353D01*
X122803684Y-118805059D01*
X122898624Y-118986663D01*
X122956483Y-119183250D01*
X122956489Y-119183320D01*
X122956495Y-119183339D01*
X122975059Y-119387325D01*
X122953649Y-119591034D01*
X122953643Y-119591052D01*
X122953635Y-119591132D01*
X122893037Y-119786891D01*
X122795570Y-119967153D01*
X122664947Y-120125049D01*
X122506142Y-120254567D01*
X122325205Y-120350773D01*
X122129027Y-120410003D01*
X121925081Y-120430000D01*
X121914846Y-120430000D01*
X121904315Y-120429927D01*
X121904308Y-120429926D01*
X121900259Y-120429898D01*
X121696612Y-120407055D01*
X121501280Y-120345092D01*
X121321704Y-120246369D01*
X121164723Y-120114647D01*
X121036316Y-119954941D01*
X120941376Y-119773337D01*
X120883517Y-119576750D01*
X120883511Y-119576680D01*
X120883505Y-119576661D01*
X120864941Y-119372675D01*
X120886351Y-119168966D01*
X120886357Y-119168948D01*
X120886365Y-119168868D01*
X120946963Y-118973109D01*
X121044430Y-118792847D01*
X121175053Y-118634951D01*
X121333858Y-118505433D01*
X121514795Y-118409227D01*
X121710973Y-118349997D01*
X121914919Y-118330000D01*
X121925154Y-118330000D01*
X121935685Y-118330073D01*
X121935685Y-118330073D01*
G37*
G36*
X146875000Y-120350000D02*
X145225000Y-120350000D01*
X145225000Y-118450000D01*
X146875000Y-118450000D01*
X146875000Y-120350000D01*
X146875000Y-120350000D01*
G37*
G36*
X121935685Y-115790073D02*
X121935692Y-115790074D01*
X121939741Y-115790102D01*
X122143388Y-115812945D01*
X122338720Y-115874908D01*
X122518296Y-115973631D01*
X122675277Y-116105353D01*
X122803684Y-116265059D01*
X122898624Y-116446663D01*
X122956483Y-116643250D01*
X122956489Y-116643320D01*
X122956495Y-116643339D01*
X122975059Y-116847325D01*
X122953649Y-117051034D01*
X122953643Y-117051052D01*
X122953635Y-117051132D01*
X122893037Y-117246891D01*
X122795570Y-117427153D01*
X122664947Y-117585049D01*
X122506142Y-117714567D01*
X122325205Y-117810773D01*
X122129027Y-117870003D01*
X121925081Y-117890000D01*
X121914846Y-117890000D01*
X121904315Y-117889927D01*
X121904308Y-117889926D01*
X121900259Y-117889898D01*
X121696612Y-117867055D01*
X121501280Y-117805092D01*
X121321704Y-117706369D01*
X121164723Y-117574647D01*
X121036316Y-117414941D01*
X120941376Y-117233337D01*
X120883517Y-117036750D01*
X120883511Y-117036680D01*
X120883505Y-117036661D01*
X120864941Y-116832675D01*
X120886351Y-116628966D01*
X120886357Y-116628948D01*
X120886365Y-116628868D01*
X120946963Y-116433109D01*
X121044430Y-116252847D01*
X121175053Y-116094951D01*
X121333858Y-115965433D01*
X121514795Y-115869227D01*
X121710973Y-115809997D01*
X121914919Y-115790000D01*
X121925154Y-115790000D01*
X121935685Y-115790073D01*
X121935685Y-115790073D01*
G37*
G36*
X119395685Y-115790073D02*
X119395692Y-115790074D01*
X119399741Y-115790102D01*
X119603388Y-115812945D01*
X119798720Y-115874908D01*
X119978296Y-115973631D01*
X120135277Y-116105353D01*
X120263684Y-116265059D01*
X120358624Y-116446663D01*
X120416483Y-116643250D01*
X120416489Y-116643320D01*
X120416495Y-116643339D01*
X120435059Y-116847325D01*
X120413649Y-117051034D01*
X120413643Y-117051052D01*
X120413635Y-117051132D01*
X120353037Y-117246891D01*
X120255570Y-117427153D01*
X120124947Y-117585049D01*
X119966142Y-117714567D01*
X119785205Y-117810773D01*
X119589027Y-117870003D01*
X119385081Y-117890000D01*
X119374846Y-117890000D01*
X119364315Y-117889927D01*
X119364308Y-117889926D01*
X119360259Y-117889898D01*
X119156612Y-117867055D01*
X118961280Y-117805092D01*
X118781704Y-117706369D01*
X118624723Y-117574647D01*
X118496316Y-117414941D01*
X118401376Y-117233337D01*
X118343517Y-117036750D01*
X118343511Y-117036680D01*
X118343505Y-117036661D01*
X118324941Y-116832675D01*
X118346351Y-116628966D01*
X118346357Y-116628948D01*
X118346365Y-116628868D01*
X118406963Y-116433109D01*
X118504430Y-116252847D01*
X118635053Y-116094951D01*
X118793858Y-115965433D01*
X118974795Y-115869227D01*
X119170973Y-115809997D01*
X119374919Y-115790000D01*
X119385154Y-115790000D01*
X119395685Y-115790073D01*
X119395685Y-115790073D01*
G37*
G36*
X149620000Y-117690000D02*
X147720000Y-117690000D01*
X147720000Y-115990000D01*
X149620000Y-115990000D01*
X149620000Y-117690000D01*
X149620000Y-117690000D01*
G37*
G36*
X146920000Y-117690000D02*
X145020000Y-117690000D01*
X145020000Y-115990000D01*
X146920000Y-115990000D01*
X146920000Y-117690000D01*
X146920000Y-117690000D01*
G37*
G36*
X121935685Y-113250073D02*
X121935692Y-113250074D01*
X121939741Y-113250102D01*
X122143388Y-113272945D01*
X122338720Y-113334908D01*
X122518296Y-113433631D01*
X122675277Y-113565353D01*
X122803684Y-113725059D01*
X122898624Y-113906663D01*
X122956483Y-114103250D01*
X122956489Y-114103320D01*
X122956495Y-114103339D01*
X122975059Y-114307325D01*
X122953649Y-114511034D01*
X122953643Y-114511052D01*
X122953635Y-114511132D01*
X122893037Y-114706891D01*
X122795570Y-114887153D01*
X122664947Y-115045049D01*
X122506142Y-115174567D01*
X122325205Y-115270773D01*
X122129027Y-115330003D01*
X121925081Y-115350000D01*
X121914846Y-115350000D01*
X121904315Y-115349927D01*
X121904308Y-115349926D01*
X121900259Y-115349898D01*
X121696612Y-115327055D01*
X121501280Y-115265092D01*
X121321704Y-115166369D01*
X121164723Y-115034647D01*
X121036316Y-114874941D01*
X120941376Y-114693337D01*
X120883517Y-114496750D01*
X120883511Y-114496680D01*
X120883505Y-114496661D01*
X120864941Y-114292675D01*
X120886351Y-114088966D01*
X120886357Y-114088948D01*
X120886365Y-114088868D01*
X120946963Y-113893109D01*
X121044430Y-113712847D01*
X121175053Y-113554951D01*
X121333858Y-113425433D01*
X121514795Y-113329227D01*
X121710973Y-113269997D01*
X121914919Y-113250000D01*
X121925154Y-113250000D01*
X121935685Y-113250073D01*
X121935685Y-113250073D01*
G37*
G36*
X119395685Y-113250073D02*
X119395692Y-113250074D01*
X119399741Y-113250102D01*
X119603388Y-113272945D01*
X119798720Y-113334908D01*
X119978296Y-113433631D01*
X120135277Y-113565353D01*
X120263684Y-113725059D01*
X120358624Y-113906663D01*
X120416483Y-114103250D01*
X120416489Y-114103320D01*
X120416495Y-114103339D01*
X120435059Y-114307325D01*
X120413649Y-114511034D01*
X120413643Y-114511052D01*
X120413635Y-114511132D01*
X120353037Y-114706891D01*
X120255570Y-114887153D01*
X120124947Y-115045049D01*
X119966142Y-115174567D01*
X119785205Y-115270773D01*
X119589027Y-115330003D01*
X119385081Y-115350000D01*
X119374846Y-115350000D01*
X119364315Y-115349927D01*
X119364308Y-115349926D01*
X119360259Y-115349898D01*
X119156612Y-115327055D01*
X118961280Y-115265092D01*
X118781704Y-115166369D01*
X118624723Y-115034647D01*
X118496316Y-114874941D01*
X118401376Y-114693337D01*
X118343517Y-114496750D01*
X118343511Y-114496680D01*
X118343505Y-114496661D01*
X118324941Y-114292675D01*
X118346351Y-114088966D01*
X118346357Y-114088948D01*
X118346365Y-114088868D01*
X118406963Y-113893109D01*
X118504430Y-113712847D01*
X118635053Y-113554951D01*
X118793858Y-113425433D01*
X118974795Y-113329227D01*
X119170973Y-113269997D01*
X119374919Y-113250000D01*
X119385154Y-113250000D01*
X119395685Y-113250073D01*
X119395685Y-113250073D01*
G37*
G36*
X146920000Y-115150000D02*
X145020000Y-115150000D01*
X145020000Y-113450000D01*
X146920000Y-113450000D01*
X146920000Y-115150000D01*
X146920000Y-115150000D01*
G37*
G36*
X149620000Y-115150000D02*
X147720000Y-115150000D01*
X147720000Y-113450000D01*
X149620000Y-113450000D01*
X149620000Y-115150000D01*
X149620000Y-115150000D01*
G37*
G36*
X125310000Y-114060000D02*
X123610000Y-114060000D01*
X123610000Y-112160000D01*
X125310000Y-112160000D01*
X125310000Y-114060000D01*
X125310000Y-114060000D01*
G37*
G36*
X133830000Y-113605000D02*
X132230000Y-113605000D01*
X132230000Y-112455000D01*
X133830000Y-112455000D01*
X133830000Y-113605000D01*
X133830000Y-113605000D01*
G37*
G36*
X131930000Y-113605000D02*
X130330000Y-113605000D01*
X130330000Y-112455000D01*
X131930000Y-112455000D01*
X131930000Y-113605000D01*
X131930000Y-113605000D01*
G37*
G36*
X121935685Y-110710073D02*
X121935692Y-110710074D01*
X121939741Y-110710102D01*
X122143388Y-110732945D01*
X122338720Y-110794908D01*
X122518296Y-110893631D01*
X122675277Y-111025353D01*
X122803684Y-111185059D01*
X122898624Y-111366663D01*
X122956483Y-111563250D01*
X122956489Y-111563320D01*
X122956495Y-111563339D01*
X122975059Y-111767325D01*
X122953649Y-111971034D01*
X122953643Y-111971052D01*
X122953635Y-111971132D01*
X122893037Y-112166891D01*
X122795570Y-112347153D01*
X122664947Y-112505049D01*
X122506142Y-112634567D01*
X122325205Y-112730773D01*
X122129027Y-112790003D01*
X121925081Y-112810000D01*
X121914846Y-112810000D01*
X121904315Y-112809927D01*
X121904308Y-112809926D01*
X121900259Y-112809898D01*
X121696612Y-112787055D01*
X121501280Y-112725092D01*
X121321704Y-112626369D01*
X121164723Y-112494647D01*
X121036316Y-112334941D01*
X120941376Y-112153337D01*
X120883517Y-111956750D01*
X120883511Y-111956680D01*
X120883505Y-111956661D01*
X120864941Y-111752675D01*
X120886351Y-111548966D01*
X120886357Y-111548948D01*
X120886365Y-111548868D01*
X120946963Y-111353109D01*
X121044430Y-111172847D01*
X121175053Y-111014951D01*
X121333858Y-110885433D01*
X121514795Y-110789227D01*
X121710973Y-110729997D01*
X121914919Y-110710000D01*
X121925154Y-110710000D01*
X121935685Y-110710073D01*
X121935685Y-110710073D01*
G37*
G36*
X120430000Y-112810000D02*
X118330000Y-112810000D01*
X118330000Y-110710000D01*
X120430000Y-110710000D01*
X120430000Y-112810000D01*
X120430000Y-112810000D01*
G37*
G36*
X156251141Y-108302829D02*
X156251159Y-108302834D01*
X156251240Y-108302843D01*
X156465643Y-108369212D01*
X156663072Y-108475962D01*
X156836006Y-108619026D01*
X156977859Y-108792955D01*
X157083228Y-108991124D01*
X157148098Y-109205985D01*
X157170000Y-109429355D01*
X157170000Y-111550716D01*
X157169917Y-111562645D01*
X157169916Y-111562652D01*
X157169888Y-111566702D01*
X157144870Y-111789743D01*
X157077006Y-112003678D01*
X156968881Y-112200357D01*
X156824613Y-112372289D01*
X156649698Y-112512924D01*
X156450798Y-112616906D01*
X156235489Y-112680275D01*
X156235428Y-112680281D01*
X156235399Y-112680289D01*
X156011976Y-112700622D01*
X155788859Y-112677171D01*
X155788841Y-112677166D01*
X155788760Y-112677157D01*
X155574357Y-112610788D01*
X155376928Y-112504038D01*
X155203994Y-112360974D01*
X155062141Y-112187045D01*
X154956772Y-111988876D01*
X154891902Y-111774015D01*
X154870000Y-111550645D01*
X154870000Y-109429284D01*
X154870083Y-109417355D01*
X154870084Y-109417348D01*
X154870112Y-109413298D01*
X154895130Y-109190257D01*
X154962994Y-108976322D01*
X155071119Y-108779643D01*
X155215387Y-108607711D01*
X155390302Y-108467076D01*
X155589202Y-108363094D01*
X155804511Y-108299725D01*
X155804572Y-108299719D01*
X155804601Y-108299711D01*
X156028024Y-108279378D01*
X156251141Y-108302829D01*
X156251141Y-108302829D01*
G37*
G36*
X146920000Y-112610000D02*
X145020000Y-112610000D01*
X145020000Y-110910000D01*
X146920000Y-110910000D01*
X146920000Y-112610000D01*
X146920000Y-112610000D01*
G37*
G36*
X149620000Y-112610000D02*
X147720000Y-112610000D01*
X147720000Y-110910000D01*
X149620000Y-110910000D01*
X149620000Y-112610000D01*
X149620000Y-112610000D01*
G37*
G36*
X152187890Y-109490068D02*
X152187898Y-109490069D01*
X152191946Y-109490097D01*
X152385896Y-109511852D01*
X152571926Y-109570865D01*
X152742951Y-109664887D01*
X152892457Y-109790337D01*
X153014748Y-109942437D01*
X153105168Y-110115393D01*
X153160271Y-110302619D01*
X153160277Y-110302680D01*
X153160285Y-110302709D01*
X153177964Y-110496976D01*
X153157574Y-110690980D01*
X153157567Y-110691003D01*
X153157559Y-110691078D01*
X153099847Y-110877516D01*
X153007022Y-111049193D01*
X152882618Y-111199571D01*
X152731376Y-111322921D01*
X152559054Y-111414546D01*
X152372218Y-111470955D01*
X152177984Y-111490000D01*
X150861942Y-111490000D01*
X150852110Y-111489932D01*
X150852102Y-111489931D01*
X150848054Y-111489903D01*
X150654104Y-111468148D01*
X150468074Y-111409135D01*
X150297049Y-111315113D01*
X150147543Y-111189663D01*
X150025252Y-111037563D01*
X149934832Y-110864607D01*
X149879729Y-110677381D01*
X149879723Y-110677320D01*
X149879715Y-110677291D01*
X149862036Y-110483024D01*
X149882426Y-110289020D01*
X149882433Y-110288997D01*
X149882441Y-110288922D01*
X149940153Y-110102484D01*
X150032978Y-109930807D01*
X150157382Y-109780429D01*
X150308624Y-109657079D01*
X150480946Y-109565454D01*
X150667782Y-109509045D01*
X150862016Y-109490000D01*
X152178058Y-109490000D01*
X152187890Y-109490068D01*
X152187890Y-109490068D01*
G37*
G36*
X134644000Y-111466000D02*
X132704000Y-111466000D01*
X132704000Y-109266000D01*
X134644000Y-109266000D01*
X134644000Y-111466000D01*
X134644000Y-111466000D01*
G37*
G36*
X131964000Y-111466000D02*
X130024000Y-111466000D01*
X130024000Y-109266000D01*
X131964000Y-109266000D01*
X131964000Y-111466000D01*
X131964000Y-111466000D01*
G37*
G36*
X125310000Y-111360000D02*
X123610000Y-111360000D01*
X123610000Y-109460000D01*
X125310000Y-109460000D01*
X125310000Y-111360000D01*
X125310000Y-111360000D01*
G37*
G36*
X122770000Y-108980000D02*
X121070000Y-108980000D01*
X121070000Y-107080000D01*
X122770000Y-107080000D01*
X122770000Y-108980000D01*
X122770000Y-108980000D01*
G37*
G36*
X125310000Y-108980000D02*
X123610000Y-108980000D01*
X123610000Y-107080000D01*
X125310000Y-107080000D01*
X125310000Y-108980000D01*
X125310000Y-108980000D01*
G37*
G36*
X120230000Y-108980000D02*
X118530000Y-108980000D01*
X118530000Y-107080000D01*
X120230000Y-107080000D01*
X120230000Y-108980000D01*
X120230000Y-108980000D01*
G37*
G36*
X131964000Y-108666000D02*
X130024000Y-108666000D01*
X130024000Y-106466000D01*
X131964000Y-106466000D01*
X131964000Y-108666000D01*
X131964000Y-108666000D01*
G37*
G36*
X134644000Y-108666000D02*
X132704000Y-108666000D01*
X132704000Y-106466000D01*
X134644000Y-106466000D01*
X134644000Y-108666000D01*
X134644000Y-108666000D01*
G37*
G36*
X125310000Y-106280000D02*
X123610000Y-106280000D01*
X123610000Y-104380000D01*
X125310000Y-104380000D01*
X125310000Y-106280000D01*
X125310000Y-106280000D01*
G37*
G36*
X122770000Y-106280000D02*
X121070000Y-106280000D01*
X121070000Y-104380000D01*
X122770000Y-104380000D01*
X122770000Y-106280000D01*
X122770000Y-106280000D01*
G37*
G36*
X120230000Y-106280000D02*
X118530000Y-106280000D01*
X118530000Y-104380000D01*
X120230000Y-104380000D01*
X120230000Y-106280000D01*
X120230000Y-106280000D01*
G37*
G36*
X119080000Y-103695000D02*
X117180000Y-103695000D01*
X117180000Y-102045000D01*
X119080000Y-102045000D01*
X119080000Y-103695000D01*
X119080000Y-103695000D01*
G37*
G36*
X139625254Y-101542269D02*
X139625273Y-101542275D01*
X139625350Y-101542283D01*
X139685943Y-101561039D01*
X139741738Y-101591208D01*
X139790610Y-101631639D01*
X139830699Y-101680793D01*
X139860477Y-101736797D01*
X139878810Y-101797519D01*
X139885000Y-101860645D01*
X139885000Y-103019437D01*
X139884997Y-103019839D01*
X139884968Y-103023893D01*
X139877898Y-103086926D01*
X139858719Y-103147386D01*
X139828162Y-103202969D01*
X139787391Y-103251559D01*
X139737958Y-103291303D01*
X139681747Y-103320690D01*
X139620899Y-103338598D01*
X139620838Y-103338604D01*
X139620809Y-103338612D01*
X139557736Y-103344352D01*
X139494746Y-103337731D01*
X139494727Y-103337725D01*
X139494650Y-103337717D01*
X139434057Y-103318961D01*
X139378262Y-103288792D01*
X139372866Y-103284328D01*
X139349504Y-103270005D01*
X139322367Y-103262564D01*
X139294231Y-103262977D01*
X139267324Y-103271213D01*
X139247799Y-103283391D01*
X139237958Y-103291303D01*
X139181747Y-103320690D01*
X139120899Y-103338598D01*
X139120838Y-103338604D01*
X139120809Y-103338612D01*
X139057736Y-103344352D01*
X138994746Y-103337731D01*
X138994727Y-103337725D01*
X138994650Y-103337717D01*
X138934057Y-103318961D01*
X138878262Y-103288792D01*
X138872866Y-103284328D01*
X138849504Y-103270005D01*
X138822367Y-103262564D01*
X138794231Y-103262977D01*
X138767324Y-103271213D01*
X138747799Y-103283391D01*
X138737958Y-103291303D01*
X138681747Y-103320690D01*
X138620899Y-103338598D01*
X138620838Y-103338604D01*
X138620809Y-103338612D01*
X138557736Y-103344352D01*
X138494746Y-103337731D01*
X138494727Y-103337725D01*
X138494650Y-103337717D01*
X138434057Y-103318961D01*
X138378262Y-103288792D01*
X138372866Y-103284328D01*
X138349504Y-103270005D01*
X138322367Y-103262564D01*
X138294231Y-103262977D01*
X138267324Y-103271213D01*
X138247799Y-103283391D01*
X138237958Y-103291303D01*
X138181747Y-103320690D01*
X138120899Y-103338598D01*
X138120838Y-103338604D01*
X138120809Y-103338612D01*
X138057736Y-103344352D01*
X137994746Y-103337731D01*
X137994727Y-103337725D01*
X137994650Y-103337717D01*
X137934057Y-103318961D01*
X137878262Y-103288792D01*
X137872866Y-103284328D01*
X137849504Y-103270005D01*
X137822367Y-103262564D01*
X137794231Y-103262977D01*
X137767324Y-103271213D01*
X137747799Y-103283391D01*
X137737958Y-103291303D01*
X137681747Y-103320690D01*
X137620899Y-103338598D01*
X137620838Y-103338604D01*
X137620809Y-103338612D01*
X137557736Y-103344352D01*
X137494746Y-103337731D01*
X137494727Y-103337725D01*
X137494650Y-103337717D01*
X137434057Y-103318961D01*
X137378262Y-103288792D01*
X137372866Y-103284328D01*
X137349504Y-103270005D01*
X137322367Y-103262564D01*
X137294231Y-103262977D01*
X137267324Y-103271213D01*
X137247799Y-103283391D01*
X137237958Y-103291303D01*
X137181747Y-103320690D01*
X137120899Y-103338598D01*
X137120838Y-103338604D01*
X137120809Y-103338612D01*
X137057736Y-103344352D01*
X136994746Y-103337731D01*
X136994727Y-103337725D01*
X136994650Y-103337717D01*
X136934057Y-103318961D01*
X136878262Y-103288792D01*
X136872866Y-103284328D01*
X136849504Y-103270005D01*
X136822367Y-103262564D01*
X136794231Y-103262977D01*
X136767324Y-103271213D01*
X136747799Y-103283391D01*
X136737958Y-103291303D01*
X136681747Y-103320690D01*
X136620899Y-103338598D01*
X136620838Y-103338604D01*
X136620809Y-103338612D01*
X136557736Y-103344352D01*
X136494746Y-103337731D01*
X136494727Y-103337725D01*
X136494650Y-103337717D01*
X136434057Y-103318961D01*
X136378262Y-103288792D01*
X136372866Y-103284328D01*
X136349504Y-103270005D01*
X136322367Y-103262564D01*
X136294231Y-103262977D01*
X136267324Y-103271213D01*
X136247799Y-103283391D01*
X136237958Y-103291303D01*
X136181747Y-103320690D01*
X136120899Y-103338598D01*
X136120838Y-103338604D01*
X136120809Y-103338612D01*
X136057736Y-103344352D01*
X135994746Y-103337731D01*
X135994727Y-103337725D01*
X135994650Y-103337717D01*
X135934057Y-103318961D01*
X135878262Y-103288792D01*
X135872866Y-103284328D01*
X135849504Y-103270005D01*
X135822367Y-103262564D01*
X135794231Y-103262977D01*
X135767324Y-103271213D01*
X135747799Y-103283391D01*
X135737958Y-103291303D01*
X135681747Y-103320690D01*
X135620899Y-103338598D01*
X135620838Y-103338604D01*
X135620809Y-103338612D01*
X135557736Y-103344352D01*
X135494746Y-103337731D01*
X135494727Y-103337725D01*
X135494650Y-103337717D01*
X135434057Y-103318961D01*
X135378262Y-103288792D01*
X135372866Y-103284328D01*
X135349504Y-103270005D01*
X135322367Y-103262564D01*
X135294231Y-103262977D01*
X135267324Y-103271213D01*
X135247799Y-103283391D01*
X135237958Y-103291303D01*
X135181747Y-103320690D01*
X135120899Y-103338598D01*
X135120838Y-103338604D01*
X135120809Y-103338612D01*
X135057736Y-103344352D01*
X134994746Y-103337731D01*
X134994727Y-103337725D01*
X134994650Y-103337717D01*
X134934057Y-103318961D01*
X134878262Y-103288792D01*
X134872866Y-103284328D01*
X134849504Y-103270005D01*
X134822367Y-103262564D01*
X134794231Y-103262977D01*
X134767324Y-103271213D01*
X134747799Y-103283391D01*
X134737958Y-103291303D01*
X134681747Y-103320690D01*
X134620899Y-103338598D01*
X134620838Y-103338604D01*
X134620809Y-103338612D01*
X134557736Y-103344352D01*
X134494746Y-103337731D01*
X134494727Y-103337725D01*
X134494650Y-103337717D01*
X134434057Y-103318961D01*
X134378262Y-103288792D01*
X134372866Y-103284328D01*
X134349504Y-103270005D01*
X134322367Y-103262564D01*
X134294231Y-103262977D01*
X134267324Y-103271213D01*
X134247799Y-103283391D01*
X134237958Y-103291303D01*
X134181747Y-103320690D01*
X134120899Y-103338598D01*
X134120838Y-103338604D01*
X134120809Y-103338612D01*
X134057736Y-103344352D01*
X133994746Y-103337731D01*
X133994727Y-103337725D01*
X133994650Y-103337717D01*
X133934057Y-103318961D01*
X133878262Y-103288792D01*
X133872866Y-103284328D01*
X133849504Y-103270005D01*
X133822367Y-103262564D01*
X133794231Y-103262977D01*
X133767324Y-103271213D01*
X133747799Y-103283391D01*
X133737958Y-103291303D01*
X133681747Y-103320690D01*
X133620899Y-103338598D01*
X133620838Y-103338604D01*
X133620809Y-103338612D01*
X133557736Y-103344352D01*
X133494746Y-103337731D01*
X133494727Y-103337725D01*
X133494650Y-103337717D01*
X133434057Y-103318961D01*
X133378262Y-103288792D01*
X133372866Y-103284328D01*
X133349504Y-103270005D01*
X133322367Y-103262564D01*
X133294231Y-103262977D01*
X133267324Y-103271213D01*
X133247799Y-103283391D01*
X133237958Y-103291303D01*
X133181747Y-103320690D01*
X133120899Y-103338598D01*
X133120838Y-103338604D01*
X133120809Y-103338612D01*
X133057736Y-103344352D01*
X132994746Y-103337731D01*
X132994727Y-103337725D01*
X132994650Y-103337717D01*
X132934057Y-103318961D01*
X132878262Y-103288792D01*
X132872866Y-103284328D01*
X132849504Y-103270005D01*
X132822367Y-103262564D01*
X132794231Y-103262977D01*
X132767324Y-103271213D01*
X132747799Y-103283391D01*
X132737958Y-103291303D01*
X132681747Y-103320690D01*
X132620899Y-103338598D01*
X132620838Y-103338604D01*
X132620809Y-103338612D01*
X132557736Y-103344352D01*
X132494746Y-103337731D01*
X132494727Y-103337725D01*
X132494650Y-103337717D01*
X132434057Y-103318961D01*
X132378262Y-103288792D01*
X132372866Y-103284328D01*
X132349504Y-103270005D01*
X132322367Y-103262564D01*
X132294231Y-103262977D01*
X132267324Y-103271213D01*
X132247799Y-103283391D01*
X132237958Y-103291303D01*
X132181747Y-103320690D01*
X132120899Y-103338598D01*
X132120838Y-103338604D01*
X132120809Y-103338612D01*
X132057736Y-103344352D01*
X131994746Y-103337731D01*
X131994727Y-103337725D01*
X131994650Y-103337717D01*
X131934057Y-103318961D01*
X131878262Y-103288792D01*
X131872866Y-103284328D01*
X131849504Y-103270005D01*
X131822367Y-103262564D01*
X131794231Y-103262977D01*
X131767324Y-103271213D01*
X131747799Y-103283391D01*
X131737958Y-103291303D01*
X131681747Y-103320690D01*
X131620899Y-103338598D01*
X131620838Y-103338604D01*
X131620809Y-103338612D01*
X131557736Y-103344352D01*
X131494746Y-103337731D01*
X131494727Y-103337725D01*
X131494650Y-103337717D01*
X131434057Y-103318961D01*
X131378262Y-103288792D01*
X131372866Y-103284328D01*
X131349504Y-103270005D01*
X131322367Y-103262564D01*
X131294231Y-103262977D01*
X131267324Y-103271213D01*
X131247799Y-103283391D01*
X131237958Y-103291303D01*
X131181747Y-103320690D01*
X131120899Y-103338598D01*
X131120838Y-103338604D01*
X131120809Y-103338612D01*
X131057736Y-103344352D01*
X130994746Y-103337731D01*
X130994727Y-103337725D01*
X130994650Y-103337717D01*
X130934057Y-103318961D01*
X130878262Y-103288792D01*
X130872866Y-103284328D01*
X130849504Y-103270005D01*
X130822367Y-103262564D01*
X130794231Y-103262977D01*
X130767324Y-103271213D01*
X130747799Y-103283391D01*
X130737958Y-103291303D01*
X130681747Y-103320690D01*
X130620899Y-103338598D01*
X130620838Y-103338604D01*
X130620809Y-103338612D01*
X130557736Y-103344352D01*
X130494746Y-103337731D01*
X130494727Y-103337725D01*
X130494650Y-103337717D01*
X130434057Y-103318961D01*
X130378262Y-103288792D01*
X130372866Y-103284328D01*
X130349504Y-103270005D01*
X130322367Y-103262564D01*
X130294231Y-103262977D01*
X130267324Y-103271213D01*
X130247799Y-103283391D01*
X130237958Y-103291303D01*
X130181747Y-103320690D01*
X130120899Y-103338598D01*
X130120838Y-103338604D01*
X130120809Y-103338612D01*
X130057736Y-103344352D01*
X129994746Y-103337731D01*
X129994727Y-103337725D01*
X129994650Y-103337717D01*
X129934057Y-103318961D01*
X129878262Y-103288792D01*
X129872866Y-103284328D01*
X129849504Y-103270005D01*
X129822367Y-103262564D01*
X129794231Y-103262977D01*
X129767324Y-103271213D01*
X129747799Y-103283391D01*
X129737958Y-103291303D01*
X129681747Y-103320690D01*
X129620899Y-103338598D01*
X129620838Y-103338604D01*
X129620809Y-103338612D01*
X129557736Y-103344352D01*
X129494746Y-103337731D01*
X129494727Y-103337725D01*
X129494650Y-103337717D01*
X129434057Y-103318961D01*
X129378262Y-103288792D01*
X129372866Y-103284328D01*
X129349504Y-103270005D01*
X129322367Y-103262564D01*
X129294231Y-103262977D01*
X129267324Y-103271213D01*
X129247799Y-103283391D01*
X129237958Y-103291303D01*
X129181747Y-103320690D01*
X129120899Y-103338598D01*
X129120838Y-103338604D01*
X129120809Y-103338612D01*
X129057736Y-103344352D01*
X128994746Y-103337731D01*
X128994727Y-103337725D01*
X128994650Y-103337717D01*
X128934057Y-103318961D01*
X128878262Y-103288792D01*
X128872866Y-103284328D01*
X128849504Y-103270005D01*
X128822367Y-103262564D01*
X128794231Y-103262977D01*
X128767324Y-103271213D01*
X128747799Y-103283391D01*
X128737958Y-103291303D01*
X128681747Y-103320690D01*
X128620899Y-103338598D01*
X128620838Y-103338604D01*
X128620809Y-103338612D01*
X128557736Y-103344352D01*
X128494746Y-103337731D01*
X128494727Y-103337725D01*
X128494650Y-103337717D01*
X128434057Y-103318961D01*
X128378262Y-103288792D01*
X128372866Y-103284328D01*
X128349504Y-103270005D01*
X128322367Y-103262564D01*
X128294231Y-103262977D01*
X128267324Y-103271213D01*
X128247799Y-103283391D01*
X128237958Y-103291303D01*
X128181747Y-103320690D01*
X128120899Y-103338598D01*
X128120838Y-103338604D01*
X128120809Y-103338612D01*
X128057736Y-103344352D01*
X127994746Y-103337731D01*
X127994727Y-103337725D01*
X127994650Y-103337717D01*
X127934057Y-103318961D01*
X127878262Y-103288792D01*
X127872866Y-103284328D01*
X127849504Y-103270005D01*
X127822367Y-103262564D01*
X127794231Y-103262977D01*
X127767324Y-103271213D01*
X127747799Y-103283391D01*
X127737958Y-103291303D01*
X127681747Y-103320690D01*
X127620899Y-103338598D01*
X127620838Y-103338604D01*
X127620809Y-103338612D01*
X127557736Y-103344352D01*
X127494746Y-103337731D01*
X127494727Y-103337725D01*
X127494650Y-103337717D01*
X127434057Y-103318961D01*
X127378262Y-103288792D01*
X127372866Y-103284328D01*
X127349504Y-103270005D01*
X127322367Y-103262564D01*
X127294231Y-103262977D01*
X127267324Y-103271213D01*
X127247799Y-103283391D01*
X127237958Y-103291303D01*
X127181747Y-103320690D01*
X127120899Y-103338598D01*
X127120838Y-103338604D01*
X127120809Y-103338612D01*
X127057736Y-103344352D01*
X126994746Y-103337731D01*
X126994727Y-103337725D01*
X126994650Y-103337717D01*
X126934057Y-103318961D01*
X126878262Y-103288792D01*
X126872866Y-103284328D01*
X126849504Y-103270005D01*
X126822367Y-103262564D01*
X126794231Y-103262977D01*
X126767324Y-103271213D01*
X126747799Y-103283391D01*
X126737958Y-103291303D01*
X126681747Y-103320690D01*
X126620899Y-103338598D01*
X126620838Y-103338604D01*
X126620809Y-103338612D01*
X126557736Y-103344352D01*
X126494746Y-103337731D01*
X126494727Y-103337725D01*
X126494650Y-103337717D01*
X126434057Y-103318961D01*
X126378262Y-103288792D01*
X126372866Y-103284328D01*
X126349504Y-103270005D01*
X126322367Y-103262564D01*
X126294231Y-103262977D01*
X126267324Y-103271213D01*
X126247799Y-103283391D01*
X126237958Y-103291303D01*
X126181747Y-103320690D01*
X126120899Y-103338598D01*
X126120838Y-103338604D01*
X126120809Y-103338612D01*
X126057736Y-103344352D01*
X125994746Y-103337731D01*
X125994727Y-103337725D01*
X125994650Y-103337717D01*
X125934057Y-103318961D01*
X125878262Y-103288792D01*
X125872866Y-103284328D01*
X125849504Y-103270005D01*
X125822367Y-103262564D01*
X125794231Y-103262977D01*
X125767324Y-103271213D01*
X125747799Y-103283391D01*
X125737958Y-103291303D01*
X125681747Y-103320690D01*
X125620899Y-103338598D01*
X125620838Y-103338604D01*
X125620809Y-103338612D01*
X125557736Y-103344352D01*
X125494746Y-103337731D01*
X125494727Y-103337725D01*
X125494650Y-103337717D01*
X125434057Y-103318961D01*
X125378262Y-103288792D01*
X125372866Y-103284328D01*
X125349504Y-103270005D01*
X125322367Y-103262564D01*
X125294231Y-103262977D01*
X125267324Y-103271213D01*
X125247799Y-103283391D01*
X125237958Y-103291303D01*
X125181747Y-103320690D01*
X125120899Y-103338598D01*
X125120838Y-103338604D01*
X125120809Y-103338612D01*
X125057736Y-103344352D01*
X124994746Y-103337731D01*
X124994727Y-103337725D01*
X124994650Y-103337717D01*
X124934057Y-103318961D01*
X124878262Y-103288792D01*
X124872866Y-103284328D01*
X124849504Y-103270005D01*
X124822367Y-103262564D01*
X124794231Y-103262977D01*
X124767324Y-103271213D01*
X124747799Y-103283391D01*
X124737958Y-103291303D01*
X124681747Y-103320690D01*
X124620899Y-103338598D01*
X124620838Y-103338604D01*
X124620809Y-103338612D01*
X124557736Y-103344352D01*
X124494746Y-103337731D01*
X124494727Y-103337725D01*
X124494650Y-103337717D01*
X124434057Y-103318961D01*
X124378262Y-103288792D01*
X124372866Y-103284328D01*
X124349504Y-103270005D01*
X124322367Y-103262564D01*
X124294231Y-103262977D01*
X124267324Y-103271213D01*
X124247799Y-103283391D01*
X124237958Y-103291303D01*
X124181747Y-103320690D01*
X124120899Y-103338598D01*
X124120838Y-103338604D01*
X124120809Y-103338612D01*
X124057736Y-103344352D01*
X123994746Y-103337731D01*
X123994727Y-103337725D01*
X123994650Y-103337717D01*
X123934057Y-103318961D01*
X123878262Y-103288792D01*
X123872866Y-103284328D01*
X123849504Y-103270005D01*
X123822367Y-103262564D01*
X123794231Y-103262977D01*
X123767324Y-103271213D01*
X123747799Y-103283391D01*
X123737958Y-103291303D01*
X123681747Y-103320690D01*
X123620899Y-103338598D01*
X123620838Y-103338604D01*
X123620809Y-103338612D01*
X123557736Y-103344352D01*
X123494746Y-103337731D01*
X123494727Y-103337725D01*
X123494650Y-103337717D01*
X123434057Y-103318961D01*
X123378262Y-103288792D01*
X123372866Y-103284328D01*
X123349504Y-103270005D01*
X123322367Y-103262564D01*
X123294231Y-103262977D01*
X123267324Y-103271213D01*
X123247799Y-103283391D01*
X123237958Y-103291303D01*
X123181747Y-103320690D01*
X123120899Y-103338598D01*
X123120838Y-103338604D01*
X123120809Y-103338612D01*
X123057736Y-103344352D01*
X122994746Y-103337731D01*
X122994727Y-103337725D01*
X122994650Y-103337717D01*
X122934057Y-103318961D01*
X122878262Y-103288792D01*
X122872866Y-103284328D01*
X122849504Y-103270005D01*
X122822367Y-103262564D01*
X122794231Y-103262977D01*
X122767324Y-103271213D01*
X122747799Y-103283391D01*
X122737958Y-103291303D01*
X122681747Y-103320690D01*
X122620899Y-103338598D01*
X122620838Y-103338604D01*
X122620809Y-103338612D01*
X122557736Y-103344352D01*
X122494746Y-103337731D01*
X122494727Y-103337725D01*
X122494650Y-103337717D01*
X122434057Y-103318961D01*
X122378262Y-103288792D01*
X122372866Y-103284328D01*
X122349504Y-103270005D01*
X122322367Y-103262564D01*
X122294231Y-103262977D01*
X122267324Y-103271213D01*
X122247799Y-103283391D01*
X122237958Y-103291303D01*
X122181747Y-103320690D01*
X122120899Y-103338598D01*
X122120838Y-103338604D01*
X122120809Y-103338612D01*
X122057736Y-103344352D01*
X121994746Y-103337731D01*
X121994727Y-103337725D01*
X121994650Y-103337717D01*
X121934057Y-103318961D01*
X121878262Y-103288792D01*
X121829390Y-103248361D01*
X121789301Y-103199207D01*
X121767250Y-103157735D01*
X121751720Y-103136429D01*
X121729466Y-103119207D01*
X121703296Y-103108867D01*
X121675281Y-103106227D01*
X121647639Y-103111497D01*
X121622560Y-103124258D01*
X121602029Y-103143502D01*
X121587672Y-103167703D01*
X121580000Y-103206116D01*
X121580000Y-103695000D01*
X119680000Y-103695000D01*
X119680000Y-102045000D01*
X121635000Y-102045000D01*
X121662859Y-102041041D01*
X121688513Y-102029477D01*
X121709929Y-102011224D01*
X121725412Y-101987728D01*
X121733736Y-101960848D01*
X121735000Y-101945000D01*
X121735000Y-101860563D01*
X121735003Y-101860161D01*
X121735003Y-101860157D01*
X121735032Y-101856107D01*
X121742102Y-101793074D01*
X121761281Y-101732614D01*
X121791838Y-101677031D01*
X121832609Y-101628441D01*
X121882042Y-101588697D01*
X121938253Y-101559310D01*
X121999101Y-101541402D01*
X121999162Y-101541396D01*
X121999191Y-101541388D01*
X122062264Y-101535648D01*
X122125254Y-101542269D01*
X122125273Y-101542275D01*
X122125350Y-101542283D01*
X122185943Y-101561039D01*
X122241738Y-101591208D01*
X122247134Y-101595672D01*
X122270496Y-101609995D01*
X122297633Y-101617436D01*
X122325769Y-101617023D01*
X122352676Y-101608787D01*
X122372201Y-101596609D01*
X122382042Y-101588697D01*
X122438253Y-101559310D01*
X122499101Y-101541402D01*
X122499162Y-101541396D01*
X122499191Y-101541388D01*
X122562264Y-101535648D01*
X122625254Y-101542269D01*
X122625273Y-101542275D01*
X122625350Y-101542283D01*
X122685943Y-101561039D01*
X122741738Y-101591208D01*
X122747134Y-101595672D01*
X122770496Y-101609995D01*
X122797633Y-101617436D01*
X122825769Y-101617023D01*
X122852676Y-101608787D01*
X122872201Y-101596609D01*
X122882042Y-101588697D01*
X122938253Y-101559310D01*
X122999101Y-101541402D01*
X122999162Y-101541396D01*
X122999191Y-101541388D01*
X123062264Y-101535648D01*
X123125254Y-101542269D01*
X123125273Y-101542275D01*
X123125350Y-101542283D01*
X123185943Y-101561039D01*
X123241738Y-101591208D01*
X123247134Y-101595672D01*
X123270496Y-101609995D01*
X123297633Y-101617436D01*
X123325769Y-101617023D01*
X123352676Y-101608787D01*
X123372201Y-101596609D01*
X123382042Y-101588697D01*
X123438253Y-101559310D01*
X123499101Y-101541402D01*
X123499162Y-101541396D01*
X123499191Y-101541388D01*
X123562264Y-101535648D01*
X123625254Y-101542269D01*
X123625273Y-101542275D01*
X123625350Y-101542283D01*
X123685943Y-101561039D01*
X123741738Y-101591208D01*
X123747134Y-101595672D01*
X123770496Y-101609995D01*
X123797633Y-101617436D01*
X123825769Y-101617023D01*
X123852676Y-101608787D01*
X123872201Y-101596609D01*
X123882042Y-101588697D01*
X123938253Y-101559310D01*
X123999101Y-101541402D01*
X123999162Y-101541396D01*
X123999191Y-101541388D01*
X124062264Y-101535648D01*
X124125254Y-101542269D01*
X124125273Y-101542275D01*
X124125350Y-101542283D01*
X124185943Y-101561039D01*
X124241738Y-101591208D01*
X124247134Y-101595672D01*
X124270496Y-101609995D01*
X124297633Y-101617436D01*
X124325769Y-101617023D01*
X124352676Y-101608787D01*
X124372201Y-101596609D01*
X124382042Y-101588697D01*
X124438253Y-101559310D01*
X124499101Y-101541402D01*
X124499162Y-101541396D01*
X124499191Y-101541388D01*
X124562264Y-101535648D01*
X124625254Y-101542269D01*
X124625273Y-101542275D01*
X124625350Y-101542283D01*
X124685943Y-101561039D01*
X124741738Y-101591208D01*
X124747134Y-101595672D01*
X124770496Y-101609995D01*
X124797633Y-101617436D01*
X124825769Y-101617023D01*
X124852676Y-101608787D01*
X124872201Y-101596609D01*
X124882042Y-101588697D01*
X124938253Y-101559310D01*
X124999101Y-101541402D01*
X124999162Y-101541396D01*
X124999191Y-101541388D01*
X125062264Y-101535648D01*
X125125254Y-101542269D01*
X125125273Y-101542275D01*
X125125350Y-101542283D01*
X125185943Y-101561039D01*
X125241738Y-101591208D01*
X125247134Y-101595672D01*
X125270496Y-101609995D01*
X125297633Y-101617436D01*
X125325769Y-101617023D01*
X125352676Y-101608787D01*
X125372201Y-101596609D01*
X125382042Y-101588697D01*
X125438253Y-101559310D01*
X125499101Y-101541402D01*
X125499162Y-101541396D01*
X125499191Y-101541388D01*
X125562264Y-101535648D01*
X125625254Y-101542269D01*
X125625273Y-101542275D01*
X125625350Y-101542283D01*
X125685943Y-101561039D01*
X125741738Y-101591208D01*
X125747134Y-101595672D01*
X125770496Y-101609995D01*
X125797633Y-101617436D01*
X125825769Y-101617023D01*
X125852676Y-101608787D01*
X125872201Y-101596609D01*
X125882042Y-101588697D01*
X125938253Y-101559310D01*
X125999101Y-101541402D01*
X125999162Y-101541396D01*
X125999191Y-101541388D01*
X126062264Y-101535648D01*
X126125254Y-101542269D01*
X126125273Y-101542275D01*
X126125350Y-101542283D01*
X126185943Y-101561039D01*
X126241738Y-101591208D01*
X126247134Y-101595672D01*
X126270496Y-101609995D01*
X126297633Y-101617436D01*
X126325769Y-101617023D01*
X126352676Y-101608787D01*
X126372201Y-101596609D01*
X126382042Y-101588697D01*
X126438253Y-101559310D01*
X126499101Y-101541402D01*
X126499162Y-101541396D01*
X126499191Y-101541388D01*
X126562264Y-101535648D01*
X126625254Y-101542269D01*
X126625273Y-101542275D01*
X126625350Y-101542283D01*
X126685943Y-101561039D01*
X126741738Y-101591208D01*
X126747134Y-101595672D01*
X126770496Y-101609995D01*
X126797633Y-101617436D01*
X126825769Y-101617023D01*
X126852676Y-101608787D01*
X126872201Y-101596609D01*
X126882042Y-101588697D01*
X126938253Y-101559310D01*
X126999101Y-101541402D01*
X126999162Y-101541396D01*
X126999191Y-101541388D01*
X127062264Y-101535648D01*
X127125254Y-101542269D01*
X127125273Y-101542275D01*
X127125350Y-101542283D01*
X127185943Y-101561039D01*
X127241738Y-101591208D01*
X127247134Y-101595672D01*
X127270496Y-101609995D01*
X127297633Y-101617436D01*
X127325769Y-101617023D01*
X127352676Y-101608787D01*
X127372201Y-101596609D01*
X127382042Y-101588697D01*
X127438253Y-101559310D01*
X127499101Y-101541402D01*
X127499162Y-101541396D01*
X127499191Y-101541388D01*
X127562264Y-101535648D01*
X127625254Y-101542269D01*
X127625273Y-101542275D01*
X127625350Y-101542283D01*
X127685943Y-101561039D01*
X127741738Y-101591208D01*
X127747134Y-101595672D01*
X127770496Y-101609995D01*
X127797633Y-101617436D01*
X127825769Y-101617023D01*
X127852676Y-101608787D01*
X127872201Y-101596609D01*
X127882042Y-101588697D01*
X127938253Y-101559310D01*
X127999101Y-101541402D01*
X127999162Y-101541396D01*
X127999191Y-101541388D01*
X128062264Y-101535648D01*
X128125254Y-101542269D01*
X128125273Y-101542275D01*
X128125350Y-101542283D01*
X128185943Y-101561039D01*
X128241738Y-101591208D01*
X128247134Y-101595672D01*
X128270496Y-101609995D01*
X128297633Y-101617436D01*
X128325769Y-101617023D01*
X128352676Y-101608787D01*
X128372201Y-101596609D01*
X128382042Y-101588697D01*
X128438253Y-101559310D01*
X128499101Y-101541402D01*
X128499162Y-101541396D01*
X128499191Y-101541388D01*
X128562264Y-101535648D01*
X128625254Y-101542269D01*
X128625273Y-101542275D01*
X128625350Y-101542283D01*
X128685943Y-101561039D01*
X128741738Y-101591208D01*
X128747134Y-101595672D01*
X128770496Y-101609995D01*
X128797633Y-101617436D01*
X128825769Y-101617023D01*
X128852676Y-101608787D01*
X128872201Y-101596609D01*
X128882042Y-101588697D01*
X128938253Y-101559310D01*
X128999101Y-101541402D01*
X128999162Y-101541396D01*
X128999191Y-101541388D01*
X129062264Y-101535648D01*
X129125254Y-101542269D01*
X129125273Y-101542275D01*
X129125350Y-101542283D01*
X129185943Y-101561039D01*
X129241738Y-101591208D01*
X129247134Y-101595672D01*
X129270496Y-101609995D01*
X129297633Y-101617436D01*
X129325769Y-101617023D01*
X129352676Y-101608787D01*
X129372201Y-101596609D01*
X129382042Y-101588697D01*
X129438253Y-101559310D01*
X129499101Y-101541402D01*
X129499162Y-101541396D01*
X129499191Y-101541388D01*
X129562264Y-101535648D01*
X129625254Y-101542269D01*
X129625273Y-101542275D01*
X129625350Y-101542283D01*
X129685943Y-101561039D01*
X129741738Y-101591208D01*
X129747134Y-101595672D01*
X129770496Y-101609995D01*
X129797633Y-101617436D01*
X129825769Y-101617023D01*
X129852676Y-101608787D01*
X129872201Y-101596609D01*
X129882042Y-101588697D01*
X129938253Y-101559310D01*
X129999101Y-101541402D01*
X129999162Y-101541396D01*
X129999191Y-101541388D01*
X130062264Y-101535648D01*
X130125254Y-101542269D01*
X130125273Y-101542275D01*
X130125350Y-101542283D01*
X130185943Y-101561039D01*
X130241738Y-101591208D01*
X130247134Y-101595672D01*
X130270496Y-101609995D01*
X130297633Y-101617436D01*
X130325769Y-101617023D01*
X130352676Y-101608787D01*
X130372201Y-101596609D01*
X130382042Y-101588697D01*
X130438253Y-101559310D01*
X130499101Y-101541402D01*
X130499162Y-101541396D01*
X130499191Y-101541388D01*
X130562264Y-101535648D01*
X130625254Y-101542269D01*
X130625273Y-101542275D01*
X130625350Y-101542283D01*
X130685943Y-101561039D01*
X130741738Y-101591208D01*
X130747134Y-101595672D01*
X130770496Y-101609995D01*
X130797633Y-101617436D01*
X130825769Y-101617023D01*
X130852676Y-101608787D01*
X130872201Y-101596609D01*
X130882042Y-101588697D01*
X130938253Y-101559310D01*
X130999101Y-101541402D01*
X130999162Y-101541396D01*
X130999191Y-101541388D01*
X131062264Y-101535648D01*
X131125254Y-101542269D01*
X131125273Y-101542275D01*
X131125350Y-101542283D01*
X131185943Y-101561039D01*
X131241738Y-101591208D01*
X131247134Y-101595672D01*
X131270496Y-101609995D01*
X131297633Y-101617436D01*
X131325769Y-101617023D01*
X131352676Y-101608787D01*
X131372201Y-101596609D01*
X131382042Y-101588697D01*
X131438253Y-101559310D01*
X131499101Y-101541402D01*
X131499162Y-101541396D01*
X131499191Y-101541388D01*
X131562264Y-101535648D01*
X131625254Y-101542269D01*
X131625273Y-101542275D01*
X131625350Y-101542283D01*
X131685943Y-101561039D01*
X131741738Y-101591208D01*
X131747134Y-101595672D01*
X131770496Y-101609995D01*
X131797633Y-101617436D01*
X131825769Y-101617023D01*
X131852676Y-101608787D01*
X131872201Y-101596609D01*
X131882042Y-101588697D01*
X131938253Y-101559310D01*
X131999101Y-101541402D01*
X131999162Y-101541396D01*
X131999191Y-101541388D01*
X132062264Y-101535648D01*
X132125254Y-101542269D01*
X132125273Y-101542275D01*
X132125350Y-101542283D01*
X132185943Y-101561039D01*
X132241738Y-101591208D01*
X132247134Y-101595672D01*
X132270496Y-101609995D01*
X132297633Y-101617436D01*
X132325769Y-101617023D01*
X132352676Y-101608787D01*
X132372201Y-101596609D01*
X132382042Y-101588697D01*
X132438253Y-101559310D01*
X132499101Y-101541402D01*
X132499162Y-101541396D01*
X132499191Y-101541388D01*
X132562264Y-101535648D01*
X132625254Y-101542269D01*
X132625273Y-101542275D01*
X132625350Y-101542283D01*
X132685943Y-101561039D01*
X132741738Y-101591208D01*
X132747134Y-101595672D01*
X132770496Y-101609995D01*
X132797633Y-101617436D01*
X132825769Y-101617023D01*
X132852676Y-101608787D01*
X132872201Y-101596609D01*
X132882042Y-101588697D01*
X132938253Y-101559310D01*
X132999101Y-101541402D01*
X132999162Y-101541396D01*
X132999191Y-101541388D01*
X133062264Y-101535648D01*
X133125254Y-101542269D01*
X133125273Y-101542275D01*
X133125350Y-101542283D01*
X133185943Y-101561039D01*
X133241738Y-101591208D01*
X133247134Y-101595672D01*
X133270496Y-101609995D01*
X133297633Y-101617436D01*
X133325769Y-101617023D01*
X133352676Y-101608787D01*
X133372201Y-101596609D01*
X133382042Y-101588697D01*
X133438253Y-101559310D01*
X133499101Y-101541402D01*
X133499162Y-101541396D01*
X133499191Y-101541388D01*
X133562264Y-101535648D01*
X133625254Y-101542269D01*
X133625273Y-101542275D01*
X133625350Y-101542283D01*
X133685943Y-101561039D01*
X133741738Y-101591208D01*
X133747134Y-101595672D01*
X133770496Y-101609995D01*
X133797633Y-101617436D01*
X133825769Y-101617023D01*
X133852676Y-101608787D01*
X133872201Y-101596609D01*
X133882042Y-101588697D01*
X133938253Y-101559310D01*
X133999101Y-101541402D01*
X133999162Y-101541396D01*
X133999191Y-101541388D01*
X134062264Y-101535648D01*
X134125254Y-101542269D01*
X134125273Y-101542275D01*
X134125350Y-101542283D01*
X134185943Y-101561039D01*
X134241738Y-101591208D01*
X134247134Y-101595672D01*
X134270496Y-101609995D01*
X134297633Y-101617436D01*
X134325769Y-101617023D01*
X134352676Y-101608787D01*
X134372201Y-101596609D01*
X134382042Y-101588697D01*
X134438253Y-101559310D01*
X134499101Y-101541402D01*
X134499162Y-101541396D01*
X134499191Y-101541388D01*
X134562264Y-101535648D01*
X134625254Y-101542269D01*
X134625273Y-101542275D01*
X134625350Y-101542283D01*
X134685943Y-101561039D01*
X134741738Y-101591208D01*
X134747134Y-101595672D01*
X134770496Y-101609995D01*
X134797633Y-101617436D01*
X134825769Y-101617023D01*
X134852676Y-101608787D01*
X134872201Y-101596609D01*
X134882042Y-101588697D01*
X134938253Y-101559310D01*
X134999101Y-101541402D01*
X134999162Y-101541396D01*
X134999191Y-101541388D01*
X135062264Y-101535648D01*
X135125254Y-101542269D01*
X135125273Y-101542275D01*
X135125350Y-101542283D01*
X135185943Y-101561039D01*
X135241738Y-101591208D01*
X135247134Y-101595672D01*
X135270496Y-101609995D01*
X135297633Y-101617436D01*
X135325769Y-101617023D01*
X135352676Y-101608787D01*
X135372201Y-101596609D01*
X135382042Y-101588697D01*
X135438253Y-101559310D01*
X135499101Y-101541402D01*
X135499162Y-101541396D01*
X135499191Y-101541388D01*
X135562264Y-101535648D01*
X135625254Y-101542269D01*
X135625273Y-101542275D01*
X135625350Y-101542283D01*
X135685943Y-101561039D01*
X135741738Y-101591208D01*
X135747134Y-101595672D01*
X135770496Y-101609995D01*
X135797633Y-101617436D01*
X135825769Y-101617023D01*
X135852676Y-101608787D01*
X135872201Y-101596609D01*
X135882042Y-101588697D01*
X135938253Y-101559310D01*
X135999101Y-101541402D01*
X135999162Y-101541396D01*
X135999191Y-101541388D01*
X136062264Y-101535648D01*
X136125254Y-101542269D01*
X136125273Y-101542275D01*
X136125350Y-101542283D01*
X136185943Y-101561039D01*
X136241738Y-101591208D01*
X136247134Y-101595672D01*
X136270496Y-101609995D01*
X136297633Y-101617436D01*
X136325769Y-101617023D01*
X136352676Y-101608787D01*
X136372201Y-101596609D01*
X136382042Y-101588697D01*
X136438253Y-101559310D01*
X136499101Y-101541402D01*
X136499162Y-101541396D01*
X136499191Y-101541388D01*
X136562264Y-101535648D01*
X136625254Y-101542269D01*
X136625273Y-101542275D01*
X136625350Y-101542283D01*
X136685943Y-101561039D01*
X136741738Y-101591208D01*
X136747134Y-101595672D01*
X136770496Y-101609995D01*
X136797633Y-101617436D01*
X136825769Y-101617023D01*
X136852676Y-101608787D01*
X136872201Y-101596609D01*
X136882042Y-101588697D01*
X136938253Y-101559310D01*
X136999101Y-101541402D01*
X136999162Y-101541396D01*
X136999191Y-101541388D01*
X137062264Y-101535648D01*
X137125254Y-101542269D01*
X137125273Y-101542275D01*
X137125350Y-101542283D01*
X137185943Y-101561039D01*
X137241738Y-101591208D01*
X137247134Y-101595672D01*
X137270496Y-101609995D01*
X137297633Y-101617436D01*
X137325769Y-101617023D01*
X137352676Y-101608787D01*
X137372201Y-101596609D01*
X137382042Y-101588697D01*
X137438253Y-101559310D01*
X137499101Y-101541402D01*
X137499162Y-101541396D01*
X137499191Y-101541388D01*
X137562264Y-101535648D01*
X137625254Y-101542269D01*
X137625273Y-101542275D01*
X137625350Y-101542283D01*
X137685943Y-101561039D01*
X137741738Y-101591208D01*
X137747134Y-101595672D01*
X137770496Y-101609995D01*
X137797633Y-101617436D01*
X137825769Y-101617023D01*
X137852676Y-101608787D01*
X137872201Y-101596609D01*
X137882042Y-101588697D01*
X137938253Y-101559310D01*
X137999101Y-101541402D01*
X137999162Y-101541396D01*
X137999191Y-101541388D01*
X138062264Y-101535648D01*
X138125254Y-101542269D01*
X138125273Y-101542275D01*
X138125350Y-101542283D01*
X138185943Y-101561039D01*
X138241738Y-101591208D01*
X138247134Y-101595672D01*
X138270496Y-101609995D01*
X138297633Y-101617436D01*
X138325769Y-101617023D01*
X138352676Y-101608787D01*
X138372201Y-101596609D01*
X138382042Y-101588697D01*
X138438253Y-101559310D01*
X138499101Y-101541402D01*
X138499162Y-101541396D01*
X138499191Y-101541388D01*
X138562264Y-101535648D01*
X138625254Y-101542269D01*
X138625273Y-101542275D01*
X138625350Y-101542283D01*
X138685943Y-101561039D01*
X138741738Y-101591208D01*
X138747134Y-101595672D01*
X138770496Y-101609995D01*
X138797633Y-101617436D01*
X138825769Y-101617023D01*
X138852676Y-101608787D01*
X138872201Y-101596609D01*
X138882042Y-101588697D01*
X138938253Y-101559310D01*
X138999101Y-101541402D01*
X138999162Y-101541396D01*
X138999191Y-101541388D01*
X139062264Y-101535648D01*
X139125254Y-101542269D01*
X139125273Y-101542275D01*
X139125350Y-101542283D01*
X139185943Y-101561039D01*
X139241738Y-101591208D01*
X139247134Y-101595672D01*
X139270496Y-101609995D01*
X139297633Y-101617436D01*
X139325769Y-101617023D01*
X139352676Y-101608787D01*
X139372201Y-101596609D01*
X139382042Y-101588697D01*
X139438253Y-101559310D01*
X139499101Y-101541402D01*
X139499162Y-101541396D01*
X139499191Y-101541388D01*
X139562264Y-101535648D01*
X139625254Y-101542269D01*
X139625254Y-101542269D01*
G37*
G36*
X120389839Y-82365003D02*
X120389843Y-82365003D01*
X120393893Y-82365032D01*
X120456926Y-82372102D01*
X120517386Y-82391281D01*
X120572969Y-82421838D01*
X120621559Y-82462609D01*
X120661303Y-82512042D01*
X120690690Y-82568253D01*
X120708598Y-82629101D01*
X120708604Y-82629162D01*
X120708612Y-82629191D01*
X120714352Y-82692264D01*
X120707731Y-82755254D01*
X120707725Y-82755273D01*
X120707717Y-82755350D01*
X120688961Y-82815943D01*
X120658792Y-82871738D01*
X120654328Y-82877134D01*
X120640005Y-82900496D01*
X120632564Y-82927633D01*
X120632977Y-82955769D01*
X120641213Y-82982676D01*
X120653391Y-83002201D01*
X120661303Y-83012042D01*
X120690690Y-83068253D01*
X120708598Y-83129101D01*
X120708604Y-83129162D01*
X120708612Y-83129191D01*
X120714352Y-83192264D01*
X120707731Y-83255254D01*
X120707725Y-83255273D01*
X120707717Y-83255350D01*
X120688961Y-83315943D01*
X120658792Y-83371738D01*
X120654328Y-83377134D01*
X120640005Y-83400496D01*
X120632564Y-83427633D01*
X120632977Y-83455769D01*
X120641213Y-83482676D01*
X120653391Y-83502201D01*
X120661303Y-83512042D01*
X120690690Y-83568253D01*
X120708598Y-83629101D01*
X120708604Y-83629162D01*
X120708612Y-83629191D01*
X120714352Y-83692264D01*
X120707731Y-83755254D01*
X120707725Y-83755273D01*
X120707717Y-83755350D01*
X120688961Y-83815943D01*
X120658792Y-83871738D01*
X120654328Y-83877134D01*
X120640005Y-83900496D01*
X120632564Y-83927633D01*
X120632977Y-83955769D01*
X120641213Y-83982676D01*
X120653391Y-84002201D01*
X120661303Y-84012042D01*
X120690690Y-84068253D01*
X120708598Y-84129101D01*
X120708604Y-84129162D01*
X120708612Y-84129191D01*
X120714352Y-84192264D01*
X120707731Y-84255254D01*
X120707725Y-84255273D01*
X120707717Y-84255350D01*
X120688961Y-84315943D01*
X120658792Y-84371738D01*
X120654328Y-84377134D01*
X120640005Y-84400496D01*
X120632564Y-84427633D01*
X120632977Y-84455769D01*
X120641213Y-84482676D01*
X120653391Y-84502201D01*
X120661303Y-84512042D01*
X120690690Y-84568253D01*
X120708598Y-84629101D01*
X120708604Y-84629162D01*
X120708612Y-84629191D01*
X120714352Y-84692264D01*
X120707731Y-84755254D01*
X120707725Y-84755273D01*
X120707717Y-84755350D01*
X120688961Y-84815943D01*
X120658792Y-84871738D01*
X120654328Y-84877134D01*
X120640005Y-84900496D01*
X120632564Y-84927633D01*
X120632977Y-84955769D01*
X120641213Y-84982676D01*
X120653391Y-85002201D01*
X120661303Y-85012042D01*
X120690690Y-85068253D01*
X120708598Y-85129101D01*
X120708604Y-85129162D01*
X120708612Y-85129191D01*
X120714352Y-85192264D01*
X120707731Y-85255254D01*
X120707725Y-85255273D01*
X120707717Y-85255350D01*
X120688961Y-85315943D01*
X120658792Y-85371738D01*
X120654328Y-85377134D01*
X120640005Y-85400496D01*
X120632564Y-85427633D01*
X120632977Y-85455769D01*
X120641213Y-85482676D01*
X120653391Y-85502201D01*
X120661303Y-85512042D01*
X120690690Y-85568253D01*
X120708598Y-85629101D01*
X120708604Y-85629162D01*
X120708612Y-85629191D01*
X120714352Y-85692264D01*
X120707731Y-85755254D01*
X120707725Y-85755273D01*
X120707717Y-85755350D01*
X120688961Y-85815943D01*
X120658792Y-85871738D01*
X120654328Y-85877134D01*
X120640005Y-85900496D01*
X120632564Y-85927633D01*
X120632977Y-85955769D01*
X120641213Y-85982676D01*
X120653391Y-86002201D01*
X120661303Y-86012042D01*
X120690690Y-86068253D01*
X120708598Y-86129101D01*
X120708604Y-86129162D01*
X120708612Y-86129191D01*
X120714352Y-86192264D01*
X120707731Y-86255254D01*
X120707725Y-86255273D01*
X120707717Y-86255350D01*
X120688961Y-86315943D01*
X120658792Y-86371738D01*
X120654328Y-86377134D01*
X120640005Y-86400496D01*
X120632564Y-86427633D01*
X120632977Y-86455769D01*
X120641213Y-86482676D01*
X120653391Y-86502201D01*
X120661303Y-86512042D01*
X120690690Y-86568253D01*
X120708598Y-86629101D01*
X120708604Y-86629162D01*
X120708612Y-86629191D01*
X120714352Y-86692264D01*
X120707731Y-86755254D01*
X120707725Y-86755273D01*
X120707717Y-86755350D01*
X120688961Y-86815943D01*
X120658792Y-86871738D01*
X120654328Y-86877134D01*
X120640005Y-86900496D01*
X120632564Y-86927633D01*
X120632977Y-86955769D01*
X120641213Y-86982676D01*
X120653391Y-87002201D01*
X120661303Y-87012042D01*
X120690690Y-87068253D01*
X120708598Y-87129101D01*
X120708604Y-87129162D01*
X120708612Y-87129191D01*
X120714352Y-87192264D01*
X120707731Y-87255254D01*
X120707725Y-87255273D01*
X120707717Y-87255350D01*
X120688961Y-87315943D01*
X120658792Y-87371738D01*
X120654328Y-87377134D01*
X120640005Y-87400496D01*
X120632564Y-87427633D01*
X120632977Y-87455769D01*
X120641213Y-87482676D01*
X120653391Y-87502201D01*
X120661303Y-87512042D01*
X120690690Y-87568253D01*
X120708598Y-87629101D01*
X120708604Y-87629162D01*
X120708612Y-87629191D01*
X120714352Y-87692264D01*
X120707731Y-87755254D01*
X120707725Y-87755273D01*
X120707717Y-87755350D01*
X120688961Y-87815943D01*
X120658792Y-87871738D01*
X120654328Y-87877134D01*
X120640005Y-87900496D01*
X120632564Y-87927633D01*
X120632977Y-87955769D01*
X120641213Y-87982676D01*
X120653391Y-88002201D01*
X120661303Y-88012042D01*
X120690690Y-88068253D01*
X120708598Y-88129101D01*
X120708604Y-88129162D01*
X120708612Y-88129191D01*
X120714352Y-88192264D01*
X120707731Y-88255254D01*
X120707725Y-88255273D01*
X120707717Y-88255350D01*
X120688961Y-88315943D01*
X120658792Y-88371738D01*
X120654328Y-88377134D01*
X120640005Y-88400496D01*
X120632564Y-88427633D01*
X120632977Y-88455769D01*
X120641213Y-88482676D01*
X120653391Y-88502201D01*
X120661303Y-88512042D01*
X120690690Y-88568253D01*
X120708598Y-88629101D01*
X120708604Y-88629162D01*
X120708612Y-88629191D01*
X120714352Y-88692264D01*
X120707731Y-88755254D01*
X120707725Y-88755273D01*
X120707717Y-88755350D01*
X120688961Y-88815943D01*
X120658792Y-88871738D01*
X120654328Y-88877134D01*
X120640005Y-88900496D01*
X120632564Y-88927633D01*
X120632977Y-88955769D01*
X120641213Y-88982676D01*
X120653391Y-89002201D01*
X120661303Y-89012042D01*
X120690690Y-89068253D01*
X120708598Y-89129101D01*
X120708604Y-89129162D01*
X120708612Y-89129191D01*
X120714352Y-89192264D01*
X120707731Y-89255254D01*
X120707725Y-89255273D01*
X120707717Y-89255350D01*
X120688961Y-89315943D01*
X120658792Y-89371738D01*
X120654328Y-89377134D01*
X120640005Y-89400496D01*
X120632564Y-89427633D01*
X120632977Y-89455769D01*
X120641213Y-89482676D01*
X120653391Y-89502201D01*
X120661303Y-89512042D01*
X120690690Y-89568253D01*
X120708598Y-89629101D01*
X120708604Y-89629162D01*
X120708612Y-89629191D01*
X120714352Y-89692264D01*
X120707731Y-89755254D01*
X120707725Y-89755273D01*
X120707717Y-89755350D01*
X120688961Y-89815943D01*
X120658792Y-89871738D01*
X120654328Y-89877134D01*
X120640005Y-89900496D01*
X120632564Y-89927633D01*
X120632977Y-89955769D01*
X120641213Y-89982676D01*
X120653391Y-90002201D01*
X120661303Y-90012042D01*
X120690690Y-90068253D01*
X120708598Y-90129101D01*
X120708604Y-90129162D01*
X120708612Y-90129191D01*
X120714352Y-90192264D01*
X120707731Y-90255254D01*
X120707725Y-90255273D01*
X120707717Y-90255350D01*
X120688961Y-90315943D01*
X120658792Y-90371738D01*
X120654328Y-90377134D01*
X120640005Y-90400496D01*
X120632564Y-90427633D01*
X120632977Y-90455769D01*
X120641213Y-90482676D01*
X120653391Y-90502201D01*
X120661303Y-90512042D01*
X120690690Y-90568253D01*
X120708598Y-90629101D01*
X120708604Y-90629162D01*
X120708612Y-90629191D01*
X120714352Y-90692264D01*
X120707731Y-90755254D01*
X120707725Y-90755273D01*
X120707717Y-90755350D01*
X120688961Y-90815943D01*
X120658792Y-90871738D01*
X120654328Y-90877134D01*
X120640005Y-90900496D01*
X120632564Y-90927633D01*
X120632977Y-90955769D01*
X120641213Y-90982676D01*
X120653391Y-91002201D01*
X120661303Y-91012042D01*
X120690690Y-91068253D01*
X120708598Y-91129101D01*
X120708604Y-91129162D01*
X120708612Y-91129191D01*
X120714352Y-91192264D01*
X120707731Y-91255254D01*
X120707725Y-91255273D01*
X120707717Y-91255350D01*
X120688961Y-91315943D01*
X120658792Y-91371738D01*
X120654328Y-91377134D01*
X120640005Y-91400496D01*
X120632564Y-91427633D01*
X120632977Y-91455769D01*
X120641213Y-91482676D01*
X120653391Y-91502201D01*
X120661303Y-91512042D01*
X120690690Y-91568253D01*
X120708598Y-91629101D01*
X120708604Y-91629162D01*
X120708612Y-91629191D01*
X120714352Y-91692264D01*
X120707731Y-91755254D01*
X120707725Y-91755273D01*
X120707717Y-91755350D01*
X120688961Y-91815943D01*
X120658792Y-91871738D01*
X120654328Y-91877134D01*
X120640005Y-91900496D01*
X120632564Y-91927633D01*
X120632977Y-91955769D01*
X120641213Y-91982676D01*
X120653391Y-92002201D01*
X120661303Y-92012042D01*
X120690690Y-92068253D01*
X120708598Y-92129101D01*
X120708604Y-92129162D01*
X120708612Y-92129191D01*
X120714352Y-92192264D01*
X120707731Y-92255254D01*
X120707725Y-92255273D01*
X120707717Y-92255350D01*
X120688961Y-92315943D01*
X120658792Y-92371738D01*
X120654328Y-92377134D01*
X120640005Y-92400496D01*
X120632564Y-92427633D01*
X120632977Y-92455769D01*
X120641213Y-92482676D01*
X120653391Y-92502201D01*
X120661303Y-92512042D01*
X120690690Y-92568253D01*
X120708598Y-92629101D01*
X120708604Y-92629162D01*
X120708612Y-92629191D01*
X120714352Y-92692264D01*
X120707731Y-92755254D01*
X120707725Y-92755273D01*
X120707717Y-92755350D01*
X120688961Y-92815943D01*
X120658792Y-92871738D01*
X120654328Y-92877134D01*
X120640005Y-92900496D01*
X120632564Y-92927633D01*
X120632977Y-92955769D01*
X120641213Y-92982676D01*
X120653391Y-93002201D01*
X120661303Y-93012042D01*
X120690690Y-93068253D01*
X120708598Y-93129101D01*
X120708604Y-93129162D01*
X120708612Y-93129191D01*
X120714352Y-93192264D01*
X120707731Y-93255254D01*
X120707725Y-93255273D01*
X120707717Y-93255350D01*
X120688961Y-93315943D01*
X120658792Y-93371738D01*
X120654328Y-93377134D01*
X120640005Y-93400496D01*
X120632564Y-93427633D01*
X120632977Y-93455769D01*
X120641213Y-93482676D01*
X120653391Y-93502201D01*
X120661303Y-93512042D01*
X120690690Y-93568253D01*
X120708598Y-93629101D01*
X120708604Y-93629162D01*
X120708612Y-93629191D01*
X120714352Y-93692264D01*
X120707731Y-93755254D01*
X120707725Y-93755273D01*
X120707717Y-93755350D01*
X120688961Y-93815943D01*
X120658792Y-93871738D01*
X120654328Y-93877134D01*
X120640005Y-93900496D01*
X120632564Y-93927633D01*
X120632977Y-93955769D01*
X120641213Y-93982676D01*
X120653391Y-94002201D01*
X120661303Y-94012042D01*
X120690690Y-94068253D01*
X120708598Y-94129101D01*
X120708604Y-94129162D01*
X120708612Y-94129191D01*
X120714352Y-94192264D01*
X120707731Y-94255254D01*
X120707725Y-94255273D01*
X120707717Y-94255350D01*
X120688961Y-94315943D01*
X120658792Y-94371738D01*
X120654328Y-94377134D01*
X120640005Y-94400496D01*
X120632564Y-94427633D01*
X120632977Y-94455769D01*
X120641213Y-94482676D01*
X120653391Y-94502201D01*
X120661303Y-94512042D01*
X120690690Y-94568253D01*
X120708598Y-94629101D01*
X120708604Y-94629162D01*
X120708612Y-94629191D01*
X120714352Y-94692264D01*
X120707731Y-94755254D01*
X120707725Y-94755273D01*
X120707717Y-94755350D01*
X120688961Y-94815943D01*
X120658792Y-94871738D01*
X120654328Y-94877134D01*
X120640005Y-94900496D01*
X120632564Y-94927633D01*
X120632977Y-94955769D01*
X120641213Y-94982676D01*
X120653391Y-95002201D01*
X120661303Y-95012042D01*
X120690690Y-95068253D01*
X120708598Y-95129101D01*
X120708604Y-95129162D01*
X120708612Y-95129191D01*
X120714352Y-95192264D01*
X120707731Y-95255254D01*
X120707725Y-95255273D01*
X120707717Y-95255350D01*
X120688961Y-95315943D01*
X120658792Y-95371738D01*
X120654328Y-95377134D01*
X120640005Y-95400496D01*
X120632564Y-95427633D01*
X120632977Y-95455769D01*
X120641213Y-95482676D01*
X120653391Y-95502201D01*
X120661303Y-95512042D01*
X120690690Y-95568253D01*
X120708598Y-95629101D01*
X120708604Y-95629162D01*
X120708612Y-95629191D01*
X120714352Y-95692264D01*
X120707731Y-95755254D01*
X120707725Y-95755273D01*
X120707717Y-95755350D01*
X120688961Y-95815943D01*
X120658792Y-95871738D01*
X120654328Y-95877134D01*
X120640005Y-95900496D01*
X120632564Y-95927633D01*
X120632977Y-95955769D01*
X120641213Y-95982676D01*
X120653391Y-96002201D01*
X120661303Y-96012042D01*
X120690690Y-96068253D01*
X120708598Y-96129101D01*
X120708604Y-96129162D01*
X120708612Y-96129191D01*
X120714352Y-96192264D01*
X120707731Y-96255254D01*
X120707725Y-96255273D01*
X120707717Y-96255350D01*
X120688961Y-96315943D01*
X120658792Y-96371738D01*
X120654328Y-96377134D01*
X120640005Y-96400496D01*
X120632564Y-96427633D01*
X120632977Y-96455769D01*
X120641213Y-96482676D01*
X120653391Y-96502201D01*
X120661303Y-96512042D01*
X120690690Y-96568253D01*
X120708598Y-96629101D01*
X120708604Y-96629162D01*
X120708612Y-96629191D01*
X120714352Y-96692264D01*
X120707731Y-96755254D01*
X120707725Y-96755273D01*
X120707717Y-96755350D01*
X120688961Y-96815943D01*
X120658792Y-96871738D01*
X120654328Y-96877134D01*
X120640005Y-96900496D01*
X120632564Y-96927633D01*
X120632977Y-96955769D01*
X120641213Y-96982676D01*
X120653391Y-97002201D01*
X120661303Y-97012042D01*
X120690690Y-97068253D01*
X120708598Y-97129101D01*
X120708604Y-97129162D01*
X120708612Y-97129191D01*
X120714352Y-97192264D01*
X120707731Y-97255254D01*
X120707725Y-97255273D01*
X120707717Y-97255350D01*
X120688961Y-97315943D01*
X120658792Y-97371738D01*
X120654328Y-97377134D01*
X120640005Y-97400496D01*
X120632564Y-97427633D01*
X120632977Y-97455769D01*
X120641213Y-97482676D01*
X120653391Y-97502201D01*
X120661303Y-97512042D01*
X120690690Y-97568253D01*
X120708598Y-97629101D01*
X120708604Y-97629162D01*
X120708612Y-97629191D01*
X120714352Y-97692264D01*
X120707731Y-97755254D01*
X120707725Y-97755273D01*
X120707717Y-97755350D01*
X120688961Y-97815943D01*
X120658792Y-97871738D01*
X120654328Y-97877134D01*
X120640005Y-97900496D01*
X120632564Y-97927633D01*
X120632977Y-97955769D01*
X120641213Y-97982676D01*
X120653391Y-98002201D01*
X120661303Y-98012042D01*
X120690690Y-98068253D01*
X120708598Y-98129101D01*
X120708604Y-98129162D01*
X120708612Y-98129191D01*
X120714352Y-98192264D01*
X120707731Y-98255254D01*
X120707725Y-98255273D01*
X120707717Y-98255350D01*
X120688961Y-98315943D01*
X120658792Y-98371738D01*
X120654328Y-98377134D01*
X120640005Y-98400496D01*
X120632564Y-98427633D01*
X120632977Y-98455769D01*
X120641213Y-98482676D01*
X120653391Y-98502201D01*
X120661303Y-98512042D01*
X120690690Y-98568253D01*
X120708598Y-98629101D01*
X120708604Y-98629162D01*
X120708612Y-98629191D01*
X120714352Y-98692264D01*
X120707731Y-98755254D01*
X120707725Y-98755273D01*
X120707717Y-98755350D01*
X120688961Y-98815943D01*
X120658792Y-98871738D01*
X120654328Y-98877134D01*
X120640005Y-98900496D01*
X120632564Y-98927633D01*
X120632977Y-98955769D01*
X120641213Y-98982676D01*
X120653391Y-99002201D01*
X120661303Y-99012042D01*
X120690690Y-99068253D01*
X120708598Y-99129101D01*
X120708604Y-99129162D01*
X120708612Y-99129191D01*
X120714352Y-99192264D01*
X120707731Y-99255254D01*
X120707725Y-99255273D01*
X120707717Y-99255350D01*
X120688961Y-99315943D01*
X120658792Y-99371738D01*
X120654328Y-99377134D01*
X120640005Y-99400496D01*
X120632564Y-99427633D01*
X120632977Y-99455769D01*
X120641213Y-99482676D01*
X120653391Y-99502201D01*
X120661303Y-99512042D01*
X120690690Y-99568253D01*
X120708598Y-99629101D01*
X120708604Y-99629162D01*
X120708612Y-99629191D01*
X120714352Y-99692264D01*
X120707731Y-99755254D01*
X120707725Y-99755273D01*
X120707717Y-99755350D01*
X120688961Y-99815943D01*
X120658792Y-99871738D01*
X120654328Y-99877134D01*
X120640005Y-99900496D01*
X120632564Y-99927633D01*
X120632977Y-99955769D01*
X120641213Y-99982676D01*
X120653391Y-100002201D01*
X120661303Y-100012042D01*
X120690690Y-100068253D01*
X120708598Y-100129101D01*
X120708604Y-100129162D01*
X120708612Y-100129191D01*
X120714352Y-100192264D01*
X120707731Y-100255254D01*
X120707725Y-100255273D01*
X120707717Y-100255350D01*
X120688961Y-100315943D01*
X120658792Y-100371738D01*
X120618361Y-100420610D01*
X120569207Y-100460699D01*
X120513203Y-100490477D01*
X120452481Y-100508810D01*
X120389355Y-100515000D01*
X119230563Y-100515000D01*
X119230161Y-100514997D01*
X119230157Y-100514997D01*
X119226107Y-100514968D01*
X119163074Y-100507898D01*
X119102614Y-100488719D01*
X119047031Y-100458162D01*
X118998441Y-100417391D01*
X118958697Y-100367958D01*
X118929310Y-100311747D01*
X118911402Y-100250899D01*
X118911396Y-100250838D01*
X118911388Y-100250809D01*
X118905648Y-100187736D01*
X118912269Y-100124746D01*
X118912275Y-100124727D01*
X118912283Y-100124650D01*
X118931039Y-100064057D01*
X118961208Y-100008262D01*
X118965672Y-100002866D01*
X118979995Y-99979504D01*
X118987436Y-99952367D01*
X118987023Y-99924231D01*
X118978787Y-99897324D01*
X118966609Y-99877799D01*
X118958697Y-99867958D01*
X118929310Y-99811747D01*
X118911402Y-99750899D01*
X118911396Y-99750838D01*
X118911388Y-99750809D01*
X118905648Y-99687736D01*
X118912269Y-99624746D01*
X118912275Y-99624727D01*
X118912283Y-99624650D01*
X118931039Y-99564057D01*
X118961208Y-99508262D01*
X118965672Y-99502866D01*
X118979995Y-99479504D01*
X118987436Y-99452367D01*
X118987023Y-99424231D01*
X118978787Y-99397324D01*
X118966609Y-99377799D01*
X118958697Y-99367958D01*
X118929310Y-99311747D01*
X118911402Y-99250899D01*
X118911396Y-99250838D01*
X118911388Y-99250809D01*
X118905648Y-99187736D01*
X118912269Y-99124746D01*
X118912275Y-99124727D01*
X118912283Y-99124650D01*
X118931039Y-99064057D01*
X118961208Y-99008262D01*
X118965672Y-99002866D01*
X118979995Y-98979504D01*
X118987436Y-98952367D01*
X118987023Y-98924231D01*
X118978787Y-98897324D01*
X118966609Y-98877799D01*
X118958697Y-98867958D01*
X118929310Y-98811747D01*
X118911402Y-98750899D01*
X118911396Y-98750838D01*
X118911388Y-98750809D01*
X118905648Y-98687736D01*
X118912269Y-98624746D01*
X118912275Y-98624727D01*
X118912283Y-98624650D01*
X118931039Y-98564057D01*
X118961208Y-98508262D01*
X118965672Y-98502866D01*
X118979995Y-98479504D01*
X118987436Y-98452367D01*
X118987023Y-98424231D01*
X118978787Y-98397324D01*
X118966609Y-98377799D01*
X118958697Y-98367958D01*
X118929310Y-98311747D01*
X118911402Y-98250899D01*
X118911396Y-98250838D01*
X118911388Y-98250809D01*
X118905648Y-98187736D01*
X118912269Y-98124746D01*
X118912275Y-98124727D01*
X118912283Y-98124650D01*
X118931039Y-98064057D01*
X118961208Y-98008262D01*
X118965672Y-98002866D01*
X118979995Y-97979504D01*
X118987436Y-97952367D01*
X118987023Y-97924231D01*
X118978787Y-97897324D01*
X118966609Y-97877799D01*
X118958697Y-97867958D01*
X118929310Y-97811747D01*
X118911402Y-97750899D01*
X118911396Y-97750838D01*
X118911388Y-97750809D01*
X118905648Y-97687736D01*
X118912269Y-97624746D01*
X118912275Y-97624727D01*
X118912283Y-97624650D01*
X118931039Y-97564057D01*
X118961208Y-97508262D01*
X118965672Y-97502866D01*
X118979995Y-97479504D01*
X118987436Y-97452367D01*
X118987023Y-97424231D01*
X118978787Y-97397324D01*
X118966609Y-97377799D01*
X118958697Y-97367958D01*
X118929310Y-97311747D01*
X118911402Y-97250899D01*
X118911396Y-97250838D01*
X118911388Y-97250809D01*
X118905648Y-97187736D01*
X118912269Y-97124746D01*
X118912275Y-97124727D01*
X118912283Y-97124650D01*
X118931039Y-97064057D01*
X118961208Y-97008262D01*
X118965672Y-97002866D01*
X118979995Y-96979504D01*
X118987436Y-96952367D01*
X118987023Y-96924231D01*
X118978787Y-96897324D01*
X118966609Y-96877799D01*
X118958697Y-96867958D01*
X118929310Y-96811747D01*
X118911402Y-96750899D01*
X118911396Y-96750838D01*
X118911388Y-96750809D01*
X118905648Y-96687736D01*
X118912269Y-96624746D01*
X118912275Y-96624727D01*
X118912283Y-96624650D01*
X118931039Y-96564057D01*
X118961208Y-96508262D01*
X118965672Y-96502866D01*
X118979995Y-96479504D01*
X118987436Y-96452367D01*
X118987023Y-96424231D01*
X118978787Y-96397324D01*
X118966609Y-96377799D01*
X118958697Y-96367958D01*
X118929310Y-96311747D01*
X118911402Y-96250899D01*
X118911396Y-96250838D01*
X118911388Y-96250809D01*
X118905648Y-96187736D01*
X118912269Y-96124746D01*
X118912275Y-96124727D01*
X118912283Y-96124650D01*
X118931039Y-96064057D01*
X118961208Y-96008262D01*
X118965672Y-96002866D01*
X118979995Y-95979504D01*
X118987436Y-95952367D01*
X118987023Y-95924231D01*
X118978787Y-95897324D01*
X118966609Y-95877799D01*
X118958697Y-95867958D01*
X118929310Y-95811747D01*
X118911402Y-95750899D01*
X118911396Y-95750838D01*
X118911388Y-95750809D01*
X118905648Y-95687736D01*
X118912269Y-95624746D01*
X118912275Y-95624727D01*
X118912283Y-95624650D01*
X118931039Y-95564057D01*
X118961208Y-95508262D01*
X118965672Y-95502866D01*
X118979995Y-95479504D01*
X118987436Y-95452367D01*
X118987023Y-95424231D01*
X118978787Y-95397324D01*
X118966609Y-95377799D01*
X118958697Y-95367958D01*
X118929310Y-95311747D01*
X118911402Y-95250899D01*
X118911396Y-95250838D01*
X118911388Y-95250809D01*
X118905648Y-95187736D01*
X118912269Y-95124746D01*
X118912275Y-95124727D01*
X118912283Y-95124650D01*
X118931039Y-95064057D01*
X118961208Y-95008262D01*
X118965672Y-95002866D01*
X118979995Y-94979504D01*
X118987436Y-94952367D01*
X118987023Y-94924231D01*
X118978787Y-94897324D01*
X118966609Y-94877799D01*
X118958697Y-94867958D01*
X118929310Y-94811747D01*
X118911402Y-94750899D01*
X118911396Y-94750838D01*
X118911388Y-94750809D01*
X118905648Y-94687736D01*
X118912269Y-94624746D01*
X118912275Y-94624727D01*
X118912283Y-94624650D01*
X118931039Y-94564057D01*
X118961208Y-94508262D01*
X118965672Y-94502866D01*
X118979995Y-94479504D01*
X118987436Y-94452367D01*
X118987023Y-94424231D01*
X118978787Y-94397324D01*
X118966609Y-94377799D01*
X118958697Y-94367958D01*
X118929310Y-94311747D01*
X118911402Y-94250899D01*
X118911396Y-94250838D01*
X118911388Y-94250809D01*
X118905648Y-94187736D01*
X118912269Y-94124746D01*
X118912275Y-94124727D01*
X118912283Y-94124650D01*
X118931039Y-94064057D01*
X118961208Y-94008262D01*
X118965672Y-94002866D01*
X118979995Y-93979504D01*
X118987436Y-93952367D01*
X118987023Y-93924231D01*
X118978787Y-93897324D01*
X118966609Y-93877799D01*
X118958697Y-93867958D01*
X118929310Y-93811747D01*
X118911402Y-93750899D01*
X118911396Y-93750838D01*
X118911388Y-93750809D01*
X118905648Y-93687736D01*
X118912269Y-93624746D01*
X118912275Y-93624727D01*
X118912283Y-93624650D01*
X118931039Y-93564057D01*
X118961208Y-93508262D01*
X118965672Y-93502866D01*
X118979995Y-93479504D01*
X118987436Y-93452367D01*
X118987023Y-93424231D01*
X118978787Y-93397324D01*
X118966609Y-93377799D01*
X118958697Y-93367958D01*
X118929310Y-93311747D01*
X118911402Y-93250899D01*
X118911396Y-93250838D01*
X118911388Y-93250809D01*
X118905648Y-93187736D01*
X118912269Y-93124746D01*
X118912275Y-93124727D01*
X118912283Y-93124650D01*
X118931039Y-93064057D01*
X118961208Y-93008262D01*
X118965672Y-93002866D01*
X118979995Y-92979504D01*
X118987436Y-92952367D01*
X118987023Y-92924231D01*
X118978787Y-92897324D01*
X118966609Y-92877799D01*
X118958697Y-92867958D01*
X118929310Y-92811747D01*
X118911402Y-92750899D01*
X118911396Y-92750838D01*
X118911388Y-92750809D01*
X118905648Y-92687736D01*
X118912269Y-92624746D01*
X118912275Y-92624727D01*
X118912283Y-92624650D01*
X118931039Y-92564057D01*
X118961208Y-92508262D01*
X118965672Y-92502866D01*
X118979995Y-92479504D01*
X118987436Y-92452367D01*
X118987023Y-92424231D01*
X118978787Y-92397324D01*
X118966609Y-92377799D01*
X118958697Y-92367958D01*
X118929310Y-92311747D01*
X118911402Y-92250899D01*
X118911396Y-92250838D01*
X118911388Y-92250809D01*
X118905648Y-92187736D01*
X118912269Y-92124746D01*
X118912275Y-92124727D01*
X118912283Y-92124650D01*
X118931039Y-92064057D01*
X118961208Y-92008262D01*
X118965672Y-92002866D01*
X118979995Y-91979504D01*
X118987436Y-91952367D01*
X118987023Y-91924231D01*
X118978787Y-91897324D01*
X118966609Y-91877799D01*
X118958697Y-91867958D01*
X118929310Y-91811747D01*
X118911402Y-91750899D01*
X118911396Y-91750838D01*
X118911388Y-91750809D01*
X118905648Y-91687736D01*
X118912269Y-91624746D01*
X118912275Y-91624727D01*
X118912283Y-91624650D01*
X118931039Y-91564057D01*
X118961208Y-91508262D01*
X118965672Y-91502866D01*
X118979995Y-91479504D01*
X118987436Y-91452367D01*
X118987023Y-91424231D01*
X118978787Y-91397324D01*
X118966609Y-91377799D01*
X118958697Y-91367958D01*
X118929310Y-91311747D01*
X118911402Y-91250899D01*
X118911396Y-91250838D01*
X118911388Y-91250809D01*
X118905648Y-91187736D01*
X118912269Y-91124746D01*
X118912275Y-91124727D01*
X118912283Y-91124650D01*
X118931039Y-91064057D01*
X118961208Y-91008262D01*
X118965672Y-91002866D01*
X118979995Y-90979504D01*
X118987436Y-90952367D01*
X118987023Y-90924231D01*
X118978787Y-90897324D01*
X118966609Y-90877799D01*
X118958697Y-90867958D01*
X118929310Y-90811747D01*
X118911402Y-90750899D01*
X118911396Y-90750838D01*
X118911388Y-90750809D01*
X118905648Y-90687736D01*
X118912269Y-90624746D01*
X118912275Y-90624727D01*
X118912283Y-90624650D01*
X118931039Y-90564057D01*
X118961208Y-90508262D01*
X118965672Y-90502866D01*
X118979995Y-90479504D01*
X118987436Y-90452367D01*
X118987023Y-90424231D01*
X118978787Y-90397324D01*
X118966609Y-90377799D01*
X118958697Y-90367958D01*
X118929310Y-90311747D01*
X118911402Y-90250899D01*
X118911396Y-90250838D01*
X118911388Y-90250809D01*
X118905648Y-90187736D01*
X118912269Y-90124746D01*
X118912275Y-90124727D01*
X118912283Y-90124650D01*
X118931039Y-90064057D01*
X118961208Y-90008262D01*
X118965672Y-90002866D01*
X118979995Y-89979504D01*
X118987436Y-89952367D01*
X118987023Y-89924231D01*
X118978787Y-89897324D01*
X118966609Y-89877799D01*
X118958697Y-89867958D01*
X118929310Y-89811747D01*
X118911402Y-89750899D01*
X118911396Y-89750838D01*
X118911388Y-89750809D01*
X118905648Y-89687736D01*
X118912269Y-89624746D01*
X118912275Y-89624727D01*
X118912283Y-89624650D01*
X118931039Y-89564057D01*
X118961208Y-89508262D01*
X118965672Y-89502866D01*
X118979995Y-89479504D01*
X118987436Y-89452367D01*
X118987023Y-89424231D01*
X118978787Y-89397324D01*
X118966609Y-89377799D01*
X118958697Y-89367958D01*
X118929310Y-89311747D01*
X118911402Y-89250899D01*
X118911396Y-89250838D01*
X118911388Y-89250809D01*
X118905648Y-89187736D01*
X118912269Y-89124746D01*
X118912275Y-89124727D01*
X118912283Y-89124650D01*
X118931039Y-89064057D01*
X118961208Y-89008262D01*
X118965672Y-89002866D01*
X118979995Y-88979504D01*
X118987436Y-88952367D01*
X118987023Y-88924231D01*
X118978787Y-88897324D01*
X118966609Y-88877799D01*
X118958697Y-88867958D01*
X118929310Y-88811747D01*
X118911402Y-88750899D01*
X118911396Y-88750838D01*
X118911388Y-88750809D01*
X118905648Y-88687736D01*
X118912269Y-88624746D01*
X118912275Y-88624727D01*
X118912283Y-88624650D01*
X118931039Y-88564057D01*
X118961208Y-88508262D01*
X118965672Y-88502866D01*
X118979995Y-88479504D01*
X118987436Y-88452367D01*
X118987023Y-88424231D01*
X118978787Y-88397324D01*
X118966609Y-88377799D01*
X118958697Y-88367958D01*
X118929310Y-88311747D01*
X118911402Y-88250899D01*
X118911396Y-88250838D01*
X118911388Y-88250809D01*
X118905648Y-88187736D01*
X118912269Y-88124746D01*
X118912275Y-88124727D01*
X118912283Y-88124650D01*
X118931039Y-88064057D01*
X118961208Y-88008262D01*
X118965672Y-88002866D01*
X118979995Y-87979504D01*
X118987436Y-87952367D01*
X118987023Y-87924231D01*
X118978787Y-87897324D01*
X118966609Y-87877799D01*
X118958697Y-87867958D01*
X118929310Y-87811747D01*
X118911402Y-87750899D01*
X118911396Y-87750838D01*
X118911388Y-87750809D01*
X118905648Y-87687736D01*
X118912269Y-87624746D01*
X118912275Y-87624727D01*
X118912283Y-87624650D01*
X118931039Y-87564057D01*
X118961208Y-87508262D01*
X118965672Y-87502866D01*
X118979995Y-87479504D01*
X118987436Y-87452367D01*
X118987023Y-87424231D01*
X118978787Y-87397324D01*
X118966609Y-87377799D01*
X118958697Y-87367958D01*
X118929310Y-87311747D01*
X118911402Y-87250899D01*
X118911396Y-87250838D01*
X118911388Y-87250809D01*
X118905648Y-87187736D01*
X118912269Y-87124746D01*
X118912275Y-87124727D01*
X118912283Y-87124650D01*
X118931039Y-87064057D01*
X118961208Y-87008262D01*
X118965672Y-87002866D01*
X118979995Y-86979504D01*
X118987436Y-86952367D01*
X118987023Y-86924231D01*
X118978787Y-86897324D01*
X118966609Y-86877799D01*
X118958697Y-86867958D01*
X118929310Y-86811747D01*
X118911402Y-86750899D01*
X118911396Y-86750838D01*
X118911388Y-86750809D01*
X118905648Y-86687736D01*
X118912269Y-86624746D01*
X118912275Y-86624727D01*
X118912283Y-86624650D01*
X118931039Y-86564057D01*
X118961208Y-86508262D01*
X118965672Y-86502866D01*
X118979995Y-86479504D01*
X118987436Y-86452367D01*
X118987023Y-86424231D01*
X118978787Y-86397324D01*
X118966609Y-86377799D01*
X118958697Y-86367958D01*
X118929310Y-86311747D01*
X118911402Y-86250899D01*
X118911396Y-86250838D01*
X118911388Y-86250809D01*
X118905648Y-86187736D01*
X118912269Y-86124746D01*
X118912275Y-86124727D01*
X118912283Y-86124650D01*
X118931039Y-86064057D01*
X118961208Y-86008262D01*
X118965672Y-86002866D01*
X118979995Y-85979504D01*
X118987436Y-85952367D01*
X118987023Y-85924231D01*
X118978787Y-85897324D01*
X118966609Y-85877799D01*
X118958697Y-85867958D01*
X118929310Y-85811747D01*
X118911402Y-85750899D01*
X118911396Y-85750838D01*
X118911388Y-85750809D01*
X118905648Y-85687736D01*
X118912269Y-85624746D01*
X118912275Y-85624727D01*
X118912283Y-85624650D01*
X118931039Y-85564057D01*
X118961208Y-85508262D01*
X118965672Y-85502866D01*
X118979995Y-85479504D01*
X118987436Y-85452367D01*
X118987023Y-85424231D01*
X118978787Y-85397324D01*
X118966609Y-85377799D01*
X118958697Y-85367958D01*
X118929310Y-85311747D01*
X118911402Y-85250899D01*
X118911396Y-85250838D01*
X118911388Y-85250809D01*
X118905648Y-85187736D01*
X118912269Y-85124746D01*
X118912275Y-85124727D01*
X118912283Y-85124650D01*
X118931039Y-85064057D01*
X118961208Y-85008262D01*
X118965672Y-85002866D01*
X118979995Y-84979504D01*
X118987436Y-84952367D01*
X118987023Y-84924231D01*
X118978787Y-84897324D01*
X118966609Y-84877799D01*
X118958697Y-84867958D01*
X118929310Y-84811747D01*
X118911402Y-84750899D01*
X118911396Y-84750838D01*
X118911388Y-84750809D01*
X118905648Y-84687736D01*
X118912269Y-84624746D01*
X118912275Y-84624727D01*
X118912283Y-84624650D01*
X118931039Y-84564057D01*
X118961208Y-84508262D01*
X118965672Y-84502866D01*
X118979995Y-84479504D01*
X118987436Y-84452367D01*
X118987023Y-84424231D01*
X118978787Y-84397324D01*
X118966609Y-84377799D01*
X118958697Y-84367958D01*
X118929310Y-84311747D01*
X118911402Y-84250899D01*
X118911396Y-84250838D01*
X118911388Y-84250809D01*
X118905648Y-84187736D01*
X118912269Y-84124746D01*
X118912275Y-84124727D01*
X118912283Y-84124650D01*
X118931039Y-84064057D01*
X118961208Y-84008262D01*
X118965672Y-84002866D01*
X118979995Y-83979504D01*
X118987436Y-83952367D01*
X118987023Y-83924231D01*
X118978787Y-83897324D01*
X118966609Y-83877799D01*
X118958697Y-83867958D01*
X118929310Y-83811747D01*
X118911402Y-83750899D01*
X118911396Y-83750838D01*
X118911388Y-83750809D01*
X118905648Y-83687736D01*
X118912269Y-83624746D01*
X118912275Y-83624727D01*
X118912283Y-83624650D01*
X118931039Y-83564057D01*
X118961208Y-83508262D01*
X118965672Y-83502866D01*
X118979995Y-83479504D01*
X118987436Y-83452367D01*
X118987023Y-83424231D01*
X118978787Y-83397324D01*
X118966609Y-83377799D01*
X118958697Y-83367958D01*
X118929310Y-83311747D01*
X118911402Y-83250899D01*
X118911396Y-83250838D01*
X118911388Y-83250809D01*
X118905648Y-83187736D01*
X118912269Y-83124746D01*
X118912275Y-83124727D01*
X118912283Y-83124650D01*
X118931039Y-83064057D01*
X118961208Y-83008262D01*
X118965672Y-83002866D01*
X118979995Y-82979504D01*
X118987436Y-82952367D01*
X118987023Y-82924231D01*
X118978787Y-82897324D01*
X118966609Y-82877799D01*
X118958697Y-82867958D01*
X118929310Y-82811747D01*
X118911402Y-82750899D01*
X118911396Y-82750838D01*
X118911388Y-82750809D01*
X118905648Y-82687736D01*
X118912269Y-82624746D01*
X118912275Y-82624727D01*
X118912283Y-82624650D01*
X118931039Y-82564057D01*
X118961208Y-82508262D01*
X119001639Y-82459390D01*
X119050793Y-82419301D01*
X119106797Y-82389523D01*
X119167519Y-82371190D01*
X119230645Y-82365000D01*
X120389437Y-82365000D01*
X120389839Y-82365003D01*
X120389839Y-82365003D01*
G37*
G36*
X142389839Y-82365003D02*
X142389843Y-82365003D01*
X142393893Y-82365032D01*
X142456926Y-82372102D01*
X142517386Y-82391281D01*
X142572969Y-82421838D01*
X142621559Y-82462609D01*
X142661303Y-82512042D01*
X142690690Y-82568253D01*
X142708598Y-82629101D01*
X142708604Y-82629162D01*
X142708612Y-82629191D01*
X142714352Y-82692264D01*
X142707731Y-82755254D01*
X142707725Y-82755273D01*
X142707717Y-82755350D01*
X142688961Y-82815943D01*
X142658792Y-82871738D01*
X142654328Y-82877134D01*
X142640005Y-82900496D01*
X142632564Y-82927633D01*
X142632977Y-82955769D01*
X142641213Y-82982676D01*
X142653391Y-83002201D01*
X142661303Y-83012042D01*
X142690690Y-83068253D01*
X142708598Y-83129101D01*
X142708604Y-83129162D01*
X142708612Y-83129191D01*
X142714352Y-83192264D01*
X142707731Y-83255254D01*
X142707725Y-83255273D01*
X142707717Y-83255350D01*
X142688961Y-83315943D01*
X142658792Y-83371738D01*
X142654328Y-83377134D01*
X142640005Y-83400496D01*
X142632564Y-83427633D01*
X142632977Y-83455769D01*
X142641213Y-83482676D01*
X142653391Y-83502201D01*
X142661303Y-83512042D01*
X142690690Y-83568253D01*
X142708598Y-83629101D01*
X142708604Y-83629162D01*
X142708612Y-83629191D01*
X142714352Y-83692264D01*
X142707731Y-83755254D01*
X142707725Y-83755273D01*
X142707717Y-83755350D01*
X142688961Y-83815943D01*
X142658792Y-83871738D01*
X142654328Y-83877134D01*
X142640005Y-83900496D01*
X142632564Y-83927633D01*
X142632977Y-83955769D01*
X142641213Y-83982676D01*
X142653391Y-84002201D01*
X142661303Y-84012042D01*
X142690690Y-84068253D01*
X142708598Y-84129101D01*
X142708604Y-84129162D01*
X142708612Y-84129191D01*
X142714352Y-84192264D01*
X142707731Y-84255254D01*
X142707725Y-84255273D01*
X142707717Y-84255350D01*
X142688961Y-84315943D01*
X142658792Y-84371738D01*
X142654328Y-84377134D01*
X142640005Y-84400496D01*
X142632564Y-84427633D01*
X142632977Y-84455769D01*
X142641213Y-84482676D01*
X142653391Y-84502201D01*
X142661303Y-84512042D01*
X142690690Y-84568253D01*
X142708598Y-84629101D01*
X142708604Y-84629162D01*
X142708612Y-84629191D01*
X142714352Y-84692264D01*
X142707731Y-84755254D01*
X142707725Y-84755273D01*
X142707717Y-84755350D01*
X142688961Y-84815943D01*
X142658792Y-84871738D01*
X142654328Y-84877134D01*
X142640005Y-84900496D01*
X142632564Y-84927633D01*
X142632977Y-84955769D01*
X142641213Y-84982676D01*
X142653391Y-85002201D01*
X142661303Y-85012042D01*
X142690690Y-85068253D01*
X142708598Y-85129101D01*
X142708604Y-85129162D01*
X142708612Y-85129191D01*
X142714352Y-85192264D01*
X142707731Y-85255254D01*
X142707725Y-85255273D01*
X142707717Y-85255350D01*
X142688961Y-85315943D01*
X142658792Y-85371738D01*
X142654328Y-85377134D01*
X142640005Y-85400496D01*
X142632564Y-85427633D01*
X142632977Y-85455769D01*
X142641213Y-85482676D01*
X142653391Y-85502201D01*
X142661303Y-85512042D01*
X142690690Y-85568253D01*
X142708598Y-85629101D01*
X142708604Y-85629162D01*
X142708612Y-85629191D01*
X142714352Y-85692264D01*
X142707731Y-85755254D01*
X142707725Y-85755273D01*
X142707717Y-85755350D01*
X142688961Y-85815943D01*
X142658792Y-85871738D01*
X142654328Y-85877134D01*
X142640005Y-85900496D01*
X142632564Y-85927633D01*
X142632977Y-85955769D01*
X142641213Y-85982676D01*
X142653391Y-86002201D01*
X142661303Y-86012042D01*
X142690690Y-86068253D01*
X142708598Y-86129101D01*
X142708604Y-86129162D01*
X142708612Y-86129191D01*
X142714352Y-86192264D01*
X142707731Y-86255254D01*
X142707725Y-86255273D01*
X142707717Y-86255350D01*
X142688961Y-86315943D01*
X142658792Y-86371738D01*
X142654328Y-86377134D01*
X142640005Y-86400496D01*
X142632564Y-86427633D01*
X142632977Y-86455769D01*
X142641213Y-86482676D01*
X142653391Y-86502201D01*
X142661303Y-86512042D01*
X142690690Y-86568253D01*
X142708598Y-86629101D01*
X142708604Y-86629162D01*
X142708612Y-86629191D01*
X142714352Y-86692264D01*
X142707731Y-86755254D01*
X142707725Y-86755273D01*
X142707717Y-86755350D01*
X142688961Y-86815943D01*
X142658792Y-86871738D01*
X142654328Y-86877134D01*
X142640005Y-86900496D01*
X142632564Y-86927633D01*
X142632977Y-86955769D01*
X142641213Y-86982676D01*
X142653391Y-87002201D01*
X142661303Y-87012042D01*
X142690690Y-87068253D01*
X142708598Y-87129101D01*
X142708604Y-87129162D01*
X142708612Y-87129191D01*
X142714352Y-87192264D01*
X142707731Y-87255254D01*
X142707725Y-87255273D01*
X142707717Y-87255350D01*
X142688961Y-87315943D01*
X142658792Y-87371738D01*
X142654328Y-87377134D01*
X142640005Y-87400496D01*
X142632564Y-87427633D01*
X142632977Y-87455769D01*
X142641213Y-87482676D01*
X142653391Y-87502201D01*
X142661303Y-87512042D01*
X142690690Y-87568253D01*
X142708598Y-87629101D01*
X142708604Y-87629162D01*
X142708612Y-87629191D01*
X142714352Y-87692264D01*
X142707731Y-87755254D01*
X142707725Y-87755273D01*
X142707717Y-87755350D01*
X142688961Y-87815943D01*
X142658792Y-87871738D01*
X142654328Y-87877134D01*
X142640005Y-87900496D01*
X142632564Y-87927633D01*
X142632977Y-87955769D01*
X142641213Y-87982676D01*
X142653391Y-88002201D01*
X142661303Y-88012042D01*
X142690690Y-88068253D01*
X142708598Y-88129101D01*
X142708604Y-88129162D01*
X142708612Y-88129191D01*
X142714352Y-88192264D01*
X142707731Y-88255254D01*
X142707725Y-88255273D01*
X142707717Y-88255350D01*
X142688961Y-88315943D01*
X142658792Y-88371738D01*
X142654328Y-88377134D01*
X142640005Y-88400496D01*
X142632564Y-88427633D01*
X142632977Y-88455769D01*
X142641213Y-88482676D01*
X142653391Y-88502201D01*
X142661303Y-88512042D01*
X142690690Y-88568253D01*
X142708598Y-88629101D01*
X142708604Y-88629162D01*
X142708612Y-88629191D01*
X142714352Y-88692264D01*
X142707731Y-88755254D01*
X142707725Y-88755273D01*
X142707717Y-88755350D01*
X142688961Y-88815943D01*
X142658792Y-88871738D01*
X142654328Y-88877134D01*
X142640005Y-88900496D01*
X142632564Y-88927633D01*
X142632977Y-88955769D01*
X142641213Y-88982676D01*
X142653391Y-89002201D01*
X142661303Y-89012042D01*
X142690690Y-89068253D01*
X142708598Y-89129101D01*
X142708604Y-89129162D01*
X142708612Y-89129191D01*
X142714352Y-89192264D01*
X142707731Y-89255254D01*
X142707725Y-89255273D01*
X142707717Y-89255350D01*
X142688961Y-89315943D01*
X142658792Y-89371738D01*
X142654328Y-89377134D01*
X142640005Y-89400496D01*
X142632564Y-89427633D01*
X142632977Y-89455769D01*
X142641213Y-89482676D01*
X142653391Y-89502201D01*
X142661303Y-89512042D01*
X142690690Y-89568253D01*
X142708598Y-89629101D01*
X142708604Y-89629162D01*
X142708612Y-89629191D01*
X142714352Y-89692264D01*
X142707731Y-89755254D01*
X142707725Y-89755273D01*
X142707717Y-89755350D01*
X142688961Y-89815943D01*
X142658792Y-89871738D01*
X142654328Y-89877134D01*
X142640005Y-89900496D01*
X142632564Y-89927633D01*
X142632977Y-89955769D01*
X142641213Y-89982676D01*
X142653391Y-90002201D01*
X142661303Y-90012042D01*
X142690690Y-90068253D01*
X142708598Y-90129101D01*
X142708604Y-90129162D01*
X142708612Y-90129191D01*
X142714352Y-90192264D01*
X142707731Y-90255254D01*
X142707725Y-90255273D01*
X142707717Y-90255350D01*
X142688961Y-90315943D01*
X142658792Y-90371738D01*
X142654328Y-90377134D01*
X142640005Y-90400496D01*
X142632564Y-90427633D01*
X142632977Y-90455769D01*
X142641213Y-90482676D01*
X142653391Y-90502201D01*
X142661303Y-90512042D01*
X142690690Y-90568253D01*
X142708598Y-90629101D01*
X142708604Y-90629162D01*
X142708612Y-90629191D01*
X142714352Y-90692264D01*
X142707731Y-90755254D01*
X142707725Y-90755273D01*
X142707717Y-90755350D01*
X142688961Y-90815943D01*
X142658792Y-90871738D01*
X142654328Y-90877134D01*
X142640005Y-90900496D01*
X142632564Y-90927633D01*
X142632977Y-90955769D01*
X142641213Y-90982676D01*
X142653391Y-91002201D01*
X142661303Y-91012042D01*
X142690690Y-91068253D01*
X142708598Y-91129101D01*
X142708604Y-91129162D01*
X142708612Y-91129191D01*
X142714352Y-91192264D01*
X142707731Y-91255254D01*
X142707725Y-91255273D01*
X142707717Y-91255350D01*
X142688961Y-91315943D01*
X142658792Y-91371738D01*
X142654328Y-91377134D01*
X142640005Y-91400496D01*
X142632564Y-91427633D01*
X142632977Y-91455769D01*
X142641213Y-91482676D01*
X142653391Y-91502201D01*
X142661303Y-91512042D01*
X142690690Y-91568253D01*
X142708598Y-91629101D01*
X142708604Y-91629162D01*
X142708612Y-91629191D01*
X142714352Y-91692264D01*
X142707731Y-91755254D01*
X142707725Y-91755273D01*
X142707717Y-91755350D01*
X142688961Y-91815943D01*
X142658792Y-91871738D01*
X142654328Y-91877134D01*
X142640005Y-91900496D01*
X142632564Y-91927633D01*
X142632977Y-91955769D01*
X142641213Y-91982676D01*
X142653391Y-92002201D01*
X142661303Y-92012042D01*
X142690690Y-92068253D01*
X142708598Y-92129101D01*
X142708604Y-92129162D01*
X142708612Y-92129191D01*
X142714352Y-92192264D01*
X142707731Y-92255254D01*
X142707725Y-92255273D01*
X142707717Y-92255350D01*
X142688961Y-92315943D01*
X142658792Y-92371738D01*
X142654328Y-92377134D01*
X142640005Y-92400496D01*
X142632564Y-92427633D01*
X142632977Y-92455769D01*
X142641213Y-92482676D01*
X142653391Y-92502201D01*
X142661303Y-92512042D01*
X142690690Y-92568253D01*
X142708598Y-92629101D01*
X142708604Y-92629162D01*
X142708612Y-92629191D01*
X142714352Y-92692264D01*
X142707731Y-92755254D01*
X142707725Y-92755273D01*
X142707717Y-92755350D01*
X142688961Y-92815943D01*
X142658792Y-92871738D01*
X142654328Y-92877134D01*
X142640005Y-92900496D01*
X142632564Y-92927633D01*
X142632977Y-92955769D01*
X142641213Y-92982676D01*
X142653391Y-93002201D01*
X142661303Y-93012042D01*
X142690690Y-93068253D01*
X142708598Y-93129101D01*
X142708604Y-93129162D01*
X142708612Y-93129191D01*
X142714352Y-93192264D01*
X142707731Y-93255254D01*
X142707725Y-93255273D01*
X142707717Y-93255350D01*
X142688961Y-93315943D01*
X142658792Y-93371738D01*
X142654328Y-93377134D01*
X142640005Y-93400496D01*
X142632564Y-93427633D01*
X142632977Y-93455769D01*
X142641213Y-93482676D01*
X142653391Y-93502201D01*
X142661303Y-93512042D01*
X142690690Y-93568253D01*
X142708598Y-93629101D01*
X142708604Y-93629162D01*
X142708612Y-93629191D01*
X142714352Y-93692264D01*
X142707731Y-93755254D01*
X142707725Y-93755273D01*
X142707717Y-93755350D01*
X142688961Y-93815943D01*
X142658792Y-93871738D01*
X142654328Y-93877134D01*
X142640005Y-93900496D01*
X142632564Y-93927633D01*
X142632977Y-93955769D01*
X142641213Y-93982676D01*
X142653391Y-94002201D01*
X142661303Y-94012042D01*
X142690690Y-94068253D01*
X142708598Y-94129101D01*
X142708604Y-94129162D01*
X142708612Y-94129191D01*
X142714352Y-94192264D01*
X142707731Y-94255254D01*
X142707725Y-94255273D01*
X142707717Y-94255350D01*
X142688961Y-94315943D01*
X142658792Y-94371738D01*
X142654328Y-94377134D01*
X142640005Y-94400496D01*
X142632564Y-94427633D01*
X142632977Y-94455769D01*
X142641213Y-94482676D01*
X142653391Y-94502201D01*
X142661303Y-94512042D01*
X142690690Y-94568253D01*
X142708598Y-94629101D01*
X142708604Y-94629162D01*
X142708612Y-94629191D01*
X142714352Y-94692264D01*
X142707731Y-94755254D01*
X142707725Y-94755273D01*
X142707717Y-94755350D01*
X142688961Y-94815943D01*
X142658792Y-94871738D01*
X142654328Y-94877134D01*
X142640005Y-94900496D01*
X142632564Y-94927633D01*
X142632977Y-94955769D01*
X142641213Y-94982676D01*
X142653391Y-95002201D01*
X142661303Y-95012042D01*
X142690690Y-95068253D01*
X142708598Y-95129101D01*
X142708604Y-95129162D01*
X142708612Y-95129191D01*
X142714352Y-95192264D01*
X142707731Y-95255254D01*
X142707725Y-95255273D01*
X142707717Y-95255350D01*
X142688961Y-95315943D01*
X142658792Y-95371738D01*
X142654328Y-95377134D01*
X142640005Y-95400496D01*
X142632564Y-95427633D01*
X142632977Y-95455769D01*
X142641213Y-95482676D01*
X142653391Y-95502201D01*
X142661303Y-95512042D01*
X142690690Y-95568253D01*
X142708598Y-95629101D01*
X142708604Y-95629162D01*
X142708612Y-95629191D01*
X142714352Y-95692264D01*
X142707731Y-95755254D01*
X142707725Y-95755273D01*
X142707717Y-95755350D01*
X142688961Y-95815943D01*
X142658792Y-95871738D01*
X142654328Y-95877134D01*
X142640005Y-95900496D01*
X142632564Y-95927633D01*
X142632977Y-95955769D01*
X142641213Y-95982676D01*
X142653391Y-96002201D01*
X142661303Y-96012042D01*
X142690690Y-96068253D01*
X142708598Y-96129101D01*
X142708604Y-96129162D01*
X142708612Y-96129191D01*
X142714352Y-96192264D01*
X142707731Y-96255254D01*
X142707725Y-96255273D01*
X142707717Y-96255350D01*
X142688961Y-96315943D01*
X142658792Y-96371738D01*
X142654328Y-96377134D01*
X142640005Y-96400496D01*
X142632564Y-96427633D01*
X142632977Y-96455769D01*
X142641213Y-96482676D01*
X142653391Y-96502201D01*
X142661303Y-96512042D01*
X142690690Y-96568253D01*
X142708598Y-96629101D01*
X142708604Y-96629162D01*
X142708612Y-96629191D01*
X142714352Y-96692264D01*
X142707731Y-96755254D01*
X142707725Y-96755273D01*
X142707717Y-96755350D01*
X142688961Y-96815943D01*
X142658792Y-96871738D01*
X142654328Y-96877134D01*
X142640005Y-96900496D01*
X142632564Y-96927633D01*
X142632977Y-96955769D01*
X142641213Y-96982676D01*
X142653391Y-97002201D01*
X142661303Y-97012042D01*
X142690690Y-97068253D01*
X142708598Y-97129101D01*
X142708604Y-97129162D01*
X142708612Y-97129191D01*
X142714352Y-97192264D01*
X142707731Y-97255254D01*
X142707725Y-97255273D01*
X142707717Y-97255350D01*
X142688961Y-97315943D01*
X142658792Y-97371738D01*
X142654328Y-97377134D01*
X142640005Y-97400496D01*
X142632564Y-97427633D01*
X142632977Y-97455769D01*
X142641213Y-97482676D01*
X142653391Y-97502201D01*
X142661303Y-97512042D01*
X142690690Y-97568253D01*
X142708598Y-97629101D01*
X142708604Y-97629162D01*
X142708612Y-97629191D01*
X142714352Y-97692264D01*
X142707731Y-97755254D01*
X142707725Y-97755273D01*
X142707717Y-97755350D01*
X142688961Y-97815943D01*
X142658792Y-97871738D01*
X142654328Y-97877134D01*
X142640005Y-97900496D01*
X142632564Y-97927633D01*
X142632977Y-97955769D01*
X142641213Y-97982676D01*
X142653391Y-98002201D01*
X142661303Y-98012042D01*
X142690690Y-98068253D01*
X142708598Y-98129101D01*
X142708604Y-98129162D01*
X142708612Y-98129191D01*
X142714352Y-98192264D01*
X142707731Y-98255254D01*
X142707725Y-98255273D01*
X142707717Y-98255350D01*
X142688961Y-98315943D01*
X142658792Y-98371738D01*
X142654328Y-98377134D01*
X142640005Y-98400496D01*
X142632564Y-98427633D01*
X142632977Y-98455769D01*
X142641213Y-98482676D01*
X142653391Y-98502201D01*
X142661303Y-98512042D01*
X142690690Y-98568253D01*
X142708598Y-98629101D01*
X142708604Y-98629162D01*
X142708612Y-98629191D01*
X142714352Y-98692264D01*
X142707731Y-98755254D01*
X142707725Y-98755273D01*
X142707717Y-98755350D01*
X142688961Y-98815943D01*
X142658792Y-98871738D01*
X142654328Y-98877134D01*
X142640005Y-98900496D01*
X142632564Y-98927633D01*
X142632977Y-98955769D01*
X142641213Y-98982676D01*
X142653391Y-99002201D01*
X142661303Y-99012042D01*
X142690690Y-99068253D01*
X142708598Y-99129101D01*
X142708604Y-99129162D01*
X142708612Y-99129191D01*
X142714352Y-99192264D01*
X142707731Y-99255254D01*
X142707725Y-99255273D01*
X142707717Y-99255350D01*
X142688961Y-99315943D01*
X142658792Y-99371738D01*
X142654328Y-99377134D01*
X142640005Y-99400496D01*
X142632564Y-99427633D01*
X142632977Y-99455769D01*
X142641213Y-99482676D01*
X142653391Y-99502201D01*
X142661303Y-99512042D01*
X142690690Y-99568253D01*
X142708598Y-99629101D01*
X142708604Y-99629162D01*
X142708612Y-99629191D01*
X142714352Y-99692264D01*
X142707731Y-99755254D01*
X142707725Y-99755273D01*
X142707717Y-99755350D01*
X142688961Y-99815943D01*
X142658792Y-99871738D01*
X142654328Y-99877134D01*
X142640005Y-99900496D01*
X142632564Y-99927633D01*
X142632977Y-99955769D01*
X142641213Y-99982676D01*
X142653391Y-100002201D01*
X142661303Y-100012042D01*
X142690690Y-100068253D01*
X142708598Y-100129101D01*
X142708604Y-100129162D01*
X142708612Y-100129191D01*
X142714352Y-100192264D01*
X142707731Y-100255254D01*
X142707725Y-100255273D01*
X142707717Y-100255350D01*
X142688961Y-100315943D01*
X142658792Y-100371738D01*
X142618361Y-100420610D01*
X142569207Y-100460699D01*
X142513203Y-100490477D01*
X142452481Y-100508810D01*
X142389355Y-100515000D01*
X141230563Y-100515000D01*
X141230161Y-100514997D01*
X141230157Y-100514997D01*
X141226107Y-100514968D01*
X141163074Y-100507898D01*
X141102614Y-100488719D01*
X141047031Y-100458162D01*
X140998441Y-100417391D01*
X140958697Y-100367958D01*
X140929310Y-100311747D01*
X140911402Y-100250899D01*
X140911396Y-100250838D01*
X140911388Y-100250809D01*
X140905648Y-100187736D01*
X140912269Y-100124746D01*
X140912275Y-100124727D01*
X140912283Y-100124650D01*
X140931039Y-100064057D01*
X140961208Y-100008262D01*
X140965672Y-100002866D01*
X140979995Y-99979504D01*
X140987436Y-99952367D01*
X140987023Y-99924231D01*
X140978787Y-99897324D01*
X140966609Y-99877799D01*
X140958697Y-99867958D01*
X140929310Y-99811747D01*
X140911402Y-99750899D01*
X140911396Y-99750838D01*
X140911388Y-99750809D01*
X140905648Y-99687736D01*
X140912269Y-99624746D01*
X140912275Y-99624727D01*
X140912283Y-99624650D01*
X140931039Y-99564057D01*
X140961208Y-99508262D01*
X140965672Y-99502866D01*
X140979995Y-99479504D01*
X140987436Y-99452367D01*
X140987023Y-99424231D01*
X140978787Y-99397324D01*
X140966609Y-99377799D01*
X140958697Y-99367958D01*
X140929310Y-99311747D01*
X140911402Y-99250899D01*
X140911396Y-99250838D01*
X140911388Y-99250809D01*
X140905648Y-99187736D01*
X140912269Y-99124746D01*
X140912275Y-99124727D01*
X140912283Y-99124650D01*
X140931039Y-99064057D01*
X140961208Y-99008262D01*
X140965672Y-99002866D01*
X140979995Y-98979504D01*
X140987436Y-98952367D01*
X140987023Y-98924231D01*
X140978787Y-98897324D01*
X140966609Y-98877799D01*
X140958697Y-98867958D01*
X140929310Y-98811747D01*
X140911402Y-98750899D01*
X140911396Y-98750838D01*
X140911388Y-98750809D01*
X140905648Y-98687736D01*
X140912269Y-98624746D01*
X140912275Y-98624727D01*
X140912283Y-98624650D01*
X140931039Y-98564057D01*
X140961208Y-98508262D01*
X140965672Y-98502866D01*
X140979995Y-98479504D01*
X140987436Y-98452367D01*
X140987023Y-98424231D01*
X140978787Y-98397324D01*
X140966609Y-98377799D01*
X140958697Y-98367958D01*
X140929310Y-98311747D01*
X140911402Y-98250899D01*
X140911396Y-98250838D01*
X140911388Y-98250809D01*
X140905648Y-98187736D01*
X140912269Y-98124746D01*
X140912275Y-98124727D01*
X140912283Y-98124650D01*
X140931039Y-98064057D01*
X140961208Y-98008262D01*
X140965672Y-98002866D01*
X140979995Y-97979504D01*
X140987436Y-97952367D01*
X140987023Y-97924231D01*
X140978787Y-97897324D01*
X140966609Y-97877799D01*
X140958697Y-97867958D01*
X140929310Y-97811747D01*
X140911402Y-97750899D01*
X140911396Y-97750838D01*
X140911388Y-97750809D01*
X140905648Y-97687736D01*
X140912269Y-97624746D01*
X140912275Y-97624727D01*
X140912283Y-97624650D01*
X140931039Y-97564057D01*
X140961208Y-97508262D01*
X140965672Y-97502866D01*
X140979995Y-97479504D01*
X140987436Y-97452367D01*
X140987023Y-97424231D01*
X140978787Y-97397324D01*
X140966609Y-97377799D01*
X140958697Y-97367958D01*
X140929310Y-97311747D01*
X140911402Y-97250899D01*
X140911396Y-97250838D01*
X140911388Y-97250809D01*
X140905648Y-97187736D01*
X140912269Y-97124746D01*
X140912275Y-97124727D01*
X140912283Y-97124650D01*
X140931039Y-97064057D01*
X140961208Y-97008262D01*
X140965672Y-97002866D01*
X140979995Y-96979504D01*
X140987436Y-96952367D01*
X140987023Y-96924231D01*
X140978787Y-96897324D01*
X140966609Y-96877799D01*
X140958697Y-96867958D01*
X140929310Y-96811747D01*
X140911402Y-96750899D01*
X140911396Y-96750838D01*
X140911388Y-96750809D01*
X140905648Y-96687736D01*
X140912269Y-96624746D01*
X140912275Y-96624727D01*
X140912283Y-96624650D01*
X140931039Y-96564057D01*
X140961208Y-96508262D01*
X140965672Y-96502866D01*
X140979995Y-96479504D01*
X140987436Y-96452367D01*
X140987023Y-96424231D01*
X140978787Y-96397324D01*
X140966609Y-96377799D01*
X140958697Y-96367958D01*
X140929310Y-96311747D01*
X140911402Y-96250899D01*
X140911396Y-96250838D01*
X140911388Y-96250809D01*
X140905648Y-96187736D01*
X140912269Y-96124746D01*
X140912275Y-96124727D01*
X140912283Y-96124650D01*
X140931039Y-96064057D01*
X140961208Y-96008262D01*
X140965672Y-96002866D01*
X140979995Y-95979504D01*
X140987436Y-95952367D01*
X140987023Y-95924231D01*
X140978787Y-95897324D01*
X140966609Y-95877799D01*
X140958697Y-95867958D01*
X140929310Y-95811747D01*
X140911402Y-95750899D01*
X140911396Y-95750838D01*
X140911388Y-95750809D01*
X140905648Y-95687736D01*
X140912269Y-95624746D01*
X140912275Y-95624727D01*
X140912283Y-95624650D01*
X140931039Y-95564057D01*
X140961208Y-95508262D01*
X140965672Y-95502866D01*
X140979995Y-95479504D01*
X140987436Y-95452367D01*
X140987023Y-95424231D01*
X140978787Y-95397324D01*
X140966609Y-95377799D01*
X140958697Y-95367958D01*
X140929310Y-95311747D01*
X140911402Y-95250899D01*
X140911396Y-95250838D01*
X140911388Y-95250809D01*
X140905648Y-95187736D01*
X140912269Y-95124746D01*
X140912275Y-95124727D01*
X140912283Y-95124650D01*
X140931039Y-95064057D01*
X140961208Y-95008262D01*
X140965672Y-95002866D01*
X140979995Y-94979504D01*
X140987436Y-94952367D01*
X140987023Y-94924231D01*
X140978787Y-94897324D01*
X140966609Y-94877799D01*
X140958697Y-94867958D01*
X140929310Y-94811747D01*
X140911402Y-94750899D01*
X140911396Y-94750838D01*
X140911388Y-94750809D01*
X140905648Y-94687736D01*
X140912269Y-94624746D01*
X140912275Y-94624727D01*
X140912283Y-94624650D01*
X140931039Y-94564057D01*
X140961208Y-94508262D01*
X140965672Y-94502866D01*
X140979995Y-94479504D01*
X140987436Y-94452367D01*
X140987023Y-94424231D01*
X140978787Y-94397324D01*
X140966609Y-94377799D01*
X140958697Y-94367958D01*
X140929310Y-94311747D01*
X140911402Y-94250899D01*
X140911396Y-94250838D01*
X140911388Y-94250809D01*
X140905648Y-94187736D01*
X140912269Y-94124746D01*
X140912275Y-94124727D01*
X140912283Y-94124650D01*
X140931039Y-94064057D01*
X140961208Y-94008262D01*
X140965672Y-94002866D01*
X140979995Y-93979504D01*
X140987436Y-93952367D01*
X140987023Y-93924231D01*
X140978787Y-93897324D01*
X140966609Y-93877799D01*
X140958697Y-93867958D01*
X140929310Y-93811747D01*
X140911402Y-93750899D01*
X140911396Y-93750838D01*
X140911388Y-93750809D01*
X140905648Y-93687736D01*
X140912269Y-93624746D01*
X140912275Y-93624727D01*
X140912283Y-93624650D01*
X140931039Y-93564057D01*
X140961208Y-93508262D01*
X140965672Y-93502866D01*
X140979995Y-93479504D01*
X140987436Y-93452367D01*
X140987023Y-93424231D01*
X140978787Y-93397324D01*
X140966609Y-93377799D01*
X140958697Y-93367958D01*
X140929310Y-93311747D01*
X140911402Y-93250899D01*
X140911396Y-93250838D01*
X140911388Y-93250809D01*
X140905648Y-93187736D01*
X140912269Y-93124746D01*
X140912275Y-93124727D01*
X140912283Y-93124650D01*
X140931039Y-93064057D01*
X140961208Y-93008262D01*
X140965672Y-93002866D01*
X140979995Y-92979504D01*
X140987436Y-92952367D01*
X140987023Y-92924231D01*
X140978787Y-92897324D01*
X140966609Y-92877799D01*
X140958697Y-92867958D01*
X140929310Y-92811747D01*
X140911402Y-92750899D01*
X140911396Y-92750838D01*
X140911388Y-92750809D01*
X140905648Y-92687736D01*
X140912269Y-92624746D01*
X140912275Y-92624727D01*
X140912283Y-92624650D01*
X140931039Y-92564057D01*
X140961208Y-92508262D01*
X140965672Y-92502866D01*
X140979995Y-92479504D01*
X140987436Y-92452367D01*
X140987023Y-92424231D01*
X140978787Y-92397324D01*
X140966609Y-92377799D01*
X140958697Y-92367958D01*
X140929310Y-92311747D01*
X140911402Y-92250899D01*
X140911396Y-92250838D01*
X140911388Y-92250809D01*
X140905648Y-92187736D01*
X140912269Y-92124746D01*
X140912275Y-92124727D01*
X140912283Y-92124650D01*
X140931039Y-92064057D01*
X140961208Y-92008262D01*
X140965672Y-92002866D01*
X140979995Y-91979504D01*
X140987436Y-91952367D01*
X140987023Y-91924231D01*
X140978787Y-91897324D01*
X140966609Y-91877799D01*
X140958697Y-91867958D01*
X140929310Y-91811747D01*
X140911402Y-91750899D01*
X140911396Y-91750838D01*
X140911388Y-91750809D01*
X140905648Y-91687736D01*
X140912269Y-91624746D01*
X140912275Y-91624727D01*
X140912283Y-91624650D01*
X140931039Y-91564057D01*
X140961208Y-91508262D01*
X140965672Y-91502866D01*
X140979995Y-91479504D01*
X140987436Y-91452367D01*
X140987023Y-91424231D01*
X140978787Y-91397324D01*
X140966609Y-91377799D01*
X140958697Y-91367958D01*
X140929310Y-91311747D01*
X140911402Y-91250899D01*
X140911396Y-91250838D01*
X140911388Y-91250809D01*
X140905648Y-91187736D01*
X140912269Y-91124746D01*
X140912275Y-91124727D01*
X140912283Y-91124650D01*
X140931039Y-91064057D01*
X140961208Y-91008262D01*
X140965672Y-91002866D01*
X140979995Y-90979504D01*
X140987436Y-90952367D01*
X140987023Y-90924231D01*
X140978787Y-90897324D01*
X140966609Y-90877799D01*
X140958697Y-90867958D01*
X140929310Y-90811747D01*
X140911402Y-90750899D01*
X140911396Y-90750838D01*
X140911388Y-90750809D01*
X140905648Y-90687736D01*
X140912269Y-90624746D01*
X140912275Y-90624727D01*
X140912283Y-90624650D01*
X140931039Y-90564057D01*
X140961208Y-90508262D01*
X140965672Y-90502866D01*
X140979995Y-90479504D01*
X140987436Y-90452367D01*
X140987023Y-90424231D01*
X140978787Y-90397324D01*
X140966609Y-90377799D01*
X140958697Y-90367958D01*
X140929310Y-90311747D01*
X140911402Y-90250899D01*
X140911396Y-90250838D01*
X140911388Y-90250809D01*
X140905648Y-90187736D01*
X140912269Y-90124746D01*
X140912275Y-90124727D01*
X140912283Y-90124650D01*
X140931039Y-90064057D01*
X140961208Y-90008262D01*
X140965672Y-90002866D01*
X140979995Y-89979504D01*
X140987436Y-89952367D01*
X140987023Y-89924231D01*
X140978787Y-89897324D01*
X140966609Y-89877799D01*
X140958697Y-89867958D01*
X140929310Y-89811747D01*
X140911402Y-89750899D01*
X140911396Y-89750838D01*
X140911388Y-89750809D01*
X140905648Y-89687736D01*
X140912269Y-89624746D01*
X140912275Y-89624727D01*
X140912283Y-89624650D01*
X140931039Y-89564057D01*
X140961208Y-89508262D01*
X140965672Y-89502866D01*
X140979995Y-89479504D01*
X140987436Y-89452367D01*
X140987023Y-89424231D01*
X140978787Y-89397324D01*
X140966609Y-89377799D01*
X140958697Y-89367958D01*
X140929310Y-89311747D01*
X140911402Y-89250899D01*
X140911396Y-89250838D01*
X140911388Y-89250809D01*
X140905648Y-89187736D01*
X140912269Y-89124746D01*
X140912275Y-89124727D01*
X140912283Y-89124650D01*
X140931039Y-89064057D01*
X140961208Y-89008262D01*
X140965672Y-89002866D01*
X140979995Y-88979504D01*
X140987436Y-88952367D01*
X140987023Y-88924231D01*
X140978787Y-88897324D01*
X140966609Y-88877799D01*
X140958697Y-88867958D01*
X140929310Y-88811747D01*
X140911402Y-88750899D01*
X140911396Y-88750838D01*
X140911388Y-88750809D01*
X140905648Y-88687736D01*
X140912269Y-88624746D01*
X140912275Y-88624727D01*
X140912283Y-88624650D01*
X140931039Y-88564057D01*
X140961208Y-88508262D01*
X140965672Y-88502866D01*
X140979995Y-88479504D01*
X140987436Y-88452367D01*
X140987023Y-88424231D01*
X140978787Y-88397324D01*
X140966609Y-88377799D01*
X140958697Y-88367958D01*
X140929310Y-88311747D01*
X140911402Y-88250899D01*
X140911396Y-88250838D01*
X140911388Y-88250809D01*
X140905648Y-88187736D01*
X140912269Y-88124746D01*
X140912275Y-88124727D01*
X140912283Y-88124650D01*
X140931039Y-88064057D01*
X140961208Y-88008262D01*
X140965672Y-88002866D01*
X140979995Y-87979504D01*
X140987436Y-87952367D01*
X140987023Y-87924231D01*
X140978787Y-87897324D01*
X140966609Y-87877799D01*
X140958697Y-87867958D01*
X140929310Y-87811747D01*
X140911402Y-87750899D01*
X140911396Y-87750838D01*
X140911388Y-87750809D01*
X140905648Y-87687736D01*
X140912269Y-87624746D01*
X140912275Y-87624727D01*
X140912283Y-87624650D01*
X140931039Y-87564057D01*
X140961208Y-87508262D01*
X140965672Y-87502866D01*
X140979995Y-87479504D01*
X140987436Y-87452367D01*
X140987023Y-87424231D01*
X140978787Y-87397324D01*
X140966609Y-87377799D01*
X140958697Y-87367958D01*
X140929310Y-87311747D01*
X140911402Y-87250899D01*
X140911396Y-87250838D01*
X140911388Y-87250809D01*
X140905648Y-87187736D01*
X140912269Y-87124746D01*
X140912275Y-87124727D01*
X140912283Y-87124650D01*
X140931039Y-87064057D01*
X140961208Y-87008262D01*
X140965672Y-87002866D01*
X140979995Y-86979504D01*
X140987436Y-86952367D01*
X140987023Y-86924231D01*
X140978787Y-86897324D01*
X140966609Y-86877799D01*
X140958697Y-86867958D01*
X140929310Y-86811747D01*
X140911402Y-86750899D01*
X140911396Y-86750838D01*
X140911388Y-86750809D01*
X140905648Y-86687736D01*
X140912269Y-86624746D01*
X140912275Y-86624727D01*
X140912283Y-86624650D01*
X140931039Y-86564057D01*
X140961208Y-86508262D01*
X140965672Y-86502866D01*
X140979995Y-86479504D01*
X140987436Y-86452367D01*
X140987023Y-86424231D01*
X140978787Y-86397324D01*
X140966609Y-86377799D01*
X140958697Y-86367958D01*
X140929310Y-86311747D01*
X140911402Y-86250899D01*
X140911396Y-86250838D01*
X140911388Y-86250809D01*
X140905648Y-86187736D01*
X140912269Y-86124746D01*
X140912275Y-86124727D01*
X140912283Y-86124650D01*
X140931039Y-86064057D01*
X140961208Y-86008262D01*
X140965672Y-86002866D01*
X140979995Y-85979504D01*
X140987436Y-85952367D01*
X140987023Y-85924231D01*
X140978787Y-85897324D01*
X140966609Y-85877799D01*
X140958697Y-85867958D01*
X140929310Y-85811747D01*
X140911402Y-85750899D01*
X140911396Y-85750838D01*
X140911388Y-85750809D01*
X140905648Y-85687736D01*
X140912269Y-85624746D01*
X140912275Y-85624727D01*
X140912283Y-85624650D01*
X140931039Y-85564057D01*
X140961208Y-85508262D01*
X140965672Y-85502866D01*
X140979995Y-85479504D01*
X140987436Y-85452367D01*
X140987023Y-85424231D01*
X140978787Y-85397324D01*
X140966609Y-85377799D01*
X140958697Y-85367958D01*
X140929310Y-85311747D01*
X140911402Y-85250899D01*
X140911396Y-85250838D01*
X140911388Y-85250809D01*
X140905648Y-85187736D01*
X140912269Y-85124746D01*
X140912275Y-85124727D01*
X140912283Y-85124650D01*
X140931039Y-85064057D01*
X140961208Y-85008262D01*
X140965672Y-85002866D01*
X140979995Y-84979504D01*
X140987436Y-84952367D01*
X140987023Y-84924231D01*
X140978787Y-84897324D01*
X140966609Y-84877799D01*
X140958697Y-84867958D01*
X140929310Y-84811747D01*
X140911402Y-84750899D01*
X140911396Y-84750838D01*
X140911388Y-84750809D01*
X140905648Y-84687736D01*
X140912269Y-84624746D01*
X140912275Y-84624727D01*
X140912283Y-84624650D01*
X140931039Y-84564057D01*
X140961208Y-84508262D01*
X140965672Y-84502866D01*
X140979995Y-84479504D01*
X140987436Y-84452367D01*
X140987023Y-84424231D01*
X140978787Y-84397324D01*
X140966609Y-84377799D01*
X140958697Y-84367958D01*
X140929310Y-84311747D01*
X140911402Y-84250899D01*
X140911396Y-84250838D01*
X140911388Y-84250809D01*
X140905648Y-84187736D01*
X140912269Y-84124746D01*
X140912275Y-84124727D01*
X140912283Y-84124650D01*
X140931039Y-84064057D01*
X140961208Y-84008262D01*
X140965672Y-84002866D01*
X140979995Y-83979504D01*
X140987436Y-83952367D01*
X140987023Y-83924231D01*
X140978787Y-83897324D01*
X140966609Y-83877799D01*
X140958697Y-83867958D01*
X140929310Y-83811747D01*
X140911402Y-83750899D01*
X140911396Y-83750838D01*
X140911388Y-83750809D01*
X140905648Y-83687736D01*
X140912269Y-83624746D01*
X140912275Y-83624727D01*
X140912283Y-83624650D01*
X140931039Y-83564057D01*
X140961208Y-83508262D01*
X140965672Y-83502866D01*
X140979995Y-83479504D01*
X140987436Y-83452367D01*
X140987023Y-83424231D01*
X140978787Y-83397324D01*
X140966609Y-83377799D01*
X140958697Y-83367958D01*
X140929310Y-83311747D01*
X140911402Y-83250899D01*
X140911396Y-83250838D01*
X140911388Y-83250809D01*
X140905648Y-83187736D01*
X140912269Y-83124746D01*
X140912275Y-83124727D01*
X140912283Y-83124650D01*
X140931039Y-83064057D01*
X140961208Y-83008262D01*
X140965672Y-83002866D01*
X140979995Y-82979504D01*
X140987436Y-82952367D01*
X140987023Y-82924231D01*
X140978787Y-82897324D01*
X140966609Y-82877799D01*
X140958697Y-82867958D01*
X140929310Y-82811747D01*
X140911402Y-82750899D01*
X140911396Y-82750838D01*
X140911388Y-82750809D01*
X140905648Y-82687736D01*
X140912269Y-82624746D01*
X140912275Y-82624727D01*
X140912283Y-82624650D01*
X140931039Y-82564057D01*
X140961208Y-82508262D01*
X141001639Y-82459390D01*
X141050793Y-82419301D01*
X141106797Y-82389523D01*
X141167519Y-82371190D01*
X141230645Y-82365000D01*
X142389437Y-82365000D01*
X142389839Y-82365003D01*
X142389839Y-82365003D01*
G37*
G36*
X156251141Y-95602829D02*
X156251159Y-95602834D01*
X156251240Y-95602843D01*
X156465643Y-95669212D01*
X156663072Y-95775962D01*
X156836006Y-95919026D01*
X156977859Y-96092955D01*
X157083228Y-96291124D01*
X157148098Y-96505985D01*
X157170000Y-96729355D01*
X157170000Y-98850716D01*
X157169917Y-98862645D01*
X157169916Y-98862652D01*
X157169888Y-98866702D01*
X157144870Y-99089743D01*
X157077006Y-99303678D01*
X156968881Y-99500357D01*
X156824613Y-99672289D01*
X156649698Y-99812924D01*
X156450798Y-99916906D01*
X156235489Y-99980275D01*
X156235428Y-99980281D01*
X156235399Y-99980289D01*
X156011976Y-100000622D01*
X155788859Y-99977171D01*
X155788841Y-99977166D01*
X155788760Y-99977157D01*
X155574357Y-99910788D01*
X155376928Y-99804038D01*
X155203994Y-99660974D01*
X155062141Y-99487045D01*
X154956772Y-99288876D01*
X154891902Y-99074015D01*
X154870000Y-98850645D01*
X154870000Y-96729284D01*
X154870083Y-96717355D01*
X154870084Y-96717348D01*
X154870112Y-96713298D01*
X154895130Y-96490257D01*
X154962994Y-96276322D01*
X155071119Y-96079643D01*
X155215387Y-95907711D01*
X155390302Y-95767076D01*
X155589202Y-95663094D01*
X155804511Y-95599725D01*
X155804572Y-95599719D01*
X155804601Y-95599711D01*
X156028024Y-95579378D01*
X156251141Y-95602829D01*
X156251141Y-95602829D01*
G37*
G36*
X152187890Y-96790068D02*
X152187898Y-96790069D01*
X152191946Y-96790097D01*
X152385896Y-96811852D01*
X152571926Y-96870865D01*
X152742951Y-96964887D01*
X152892457Y-97090337D01*
X153014748Y-97242437D01*
X153105168Y-97415393D01*
X153160271Y-97602619D01*
X153160277Y-97602680D01*
X153160285Y-97602709D01*
X153177964Y-97796976D01*
X153157574Y-97990980D01*
X153157567Y-97991003D01*
X153157559Y-97991078D01*
X153099847Y-98177516D01*
X153007022Y-98349193D01*
X152882618Y-98499571D01*
X152731376Y-98622921D01*
X152559054Y-98714546D01*
X152372218Y-98770955D01*
X152177984Y-98790000D01*
X150861942Y-98790000D01*
X150852110Y-98789932D01*
X150852102Y-98789931D01*
X150848054Y-98789903D01*
X150654104Y-98768148D01*
X150468074Y-98709135D01*
X150297049Y-98615113D01*
X150147543Y-98489663D01*
X150025252Y-98337563D01*
X149934832Y-98164607D01*
X149879729Y-97977381D01*
X149879723Y-97977320D01*
X149879715Y-97977291D01*
X149862036Y-97783024D01*
X149882426Y-97589020D01*
X149882433Y-97588997D01*
X149882441Y-97588922D01*
X149940153Y-97402484D01*
X150032978Y-97230807D01*
X150157382Y-97080429D01*
X150308624Y-96957079D01*
X150480946Y-96865454D01*
X150667782Y-96809045D01*
X150862016Y-96790000D01*
X152178058Y-96790000D01*
X152187890Y-96790068D01*
X152187890Y-96790068D01*
G37*
G36*
X134010000Y-94640000D02*
X127610000Y-94640000D01*
X127610000Y-88240000D01*
X134010000Y-88240000D01*
X134010000Y-94640000D01*
X134010000Y-94640000D01*
G37*
G36*
X156251141Y-82902829D02*
X156251159Y-82902834D01*
X156251240Y-82902843D01*
X156465643Y-82969212D01*
X156663072Y-83075962D01*
X156836006Y-83219026D01*
X156977859Y-83392955D01*
X157083228Y-83591124D01*
X157148098Y-83805985D01*
X157170000Y-84029355D01*
X157170000Y-86150716D01*
X157169917Y-86162645D01*
X157169916Y-86162652D01*
X157169888Y-86166702D01*
X157144870Y-86389743D01*
X157077006Y-86603678D01*
X156968881Y-86800357D01*
X156824613Y-86972289D01*
X156649698Y-87112924D01*
X156450798Y-87216906D01*
X156235489Y-87280275D01*
X156235428Y-87280281D01*
X156235399Y-87280289D01*
X156011976Y-87300622D01*
X155788859Y-87277171D01*
X155788841Y-87277166D01*
X155788760Y-87277157D01*
X155574357Y-87210788D01*
X155376928Y-87104038D01*
X155203994Y-86960974D01*
X155062141Y-86787045D01*
X154956772Y-86588876D01*
X154891902Y-86374015D01*
X154870000Y-86150645D01*
X154870000Y-84029284D01*
X154870083Y-84017355D01*
X154870084Y-84017348D01*
X154870112Y-84013298D01*
X154895130Y-83790257D01*
X154962994Y-83576322D01*
X155071119Y-83379643D01*
X155215387Y-83207711D01*
X155390302Y-83067076D01*
X155589202Y-82963094D01*
X155804511Y-82899725D01*
X155804572Y-82899719D01*
X155804601Y-82899711D01*
X156028024Y-82879378D01*
X156251141Y-82902829D01*
X156251141Y-82902829D01*
G37*
G36*
X152187890Y-84090068D02*
X152187898Y-84090069D01*
X152191946Y-84090097D01*
X152385896Y-84111852D01*
X152571926Y-84170865D01*
X152742951Y-84264887D01*
X152892457Y-84390337D01*
X153014748Y-84542437D01*
X153105168Y-84715393D01*
X153160271Y-84902619D01*
X153160277Y-84902680D01*
X153160285Y-84902709D01*
X153177964Y-85096976D01*
X153157574Y-85290980D01*
X153157567Y-85291003D01*
X153157559Y-85291078D01*
X153099847Y-85477516D01*
X153007022Y-85649193D01*
X152882618Y-85799571D01*
X152731376Y-85922921D01*
X152559054Y-86014546D01*
X152372218Y-86070955D01*
X152177984Y-86090000D01*
X150861942Y-86090000D01*
X150852110Y-86089932D01*
X150852102Y-86089931D01*
X150848054Y-86089903D01*
X150654104Y-86068148D01*
X150468074Y-86009135D01*
X150297049Y-85915113D01*
X150147543Y-85789663D01*
X150025252Y-85637563D01*
X149934832Y-85464607D01*
X149879729Y-85277381D01*
X149879723Y-85277320D01*
X149879715Y-85277291D01*
X149862036Y-85083024D01*
X149882426Y-84889020D01*
X149882433Y-84888997D01*
X149882441Y-84888922D01*
X149940153Y-84702484D01*
X150032978Y-84530807D01*
X150157382Y-84380429D01*
X150308624Y-84257079D01*
X150480946Y-84165454D01*
X150667782Y-84109045D01*
X150862016Y-84090000D01*
X152178058Y-84090000D01*
X152187890Y-84090068D01*
X152187890Y-84090068D01*
G37*
G36*
X139625254Y-79542269D02*
X139625273Y-79542275D01*
X139625350Y-79542283D01*
X139685943Y-79561039D01*
X139741738Y-79591208D01*
X139790610Y-79631639D01*
X139830699Y-79680793D01*
X139860477Y-79736797D01*
X139878810Y-79797519D01*
X139885000Y-79860645D01*
X139885000Y-81019437D01*
X139884997Y-81019839D01*
X139884968Y-81023893D01*
X139877898Y-81086926D01*
X139858719Y-81147386D01*
X139828162Y-81202969D01*
X139787391Y-81251559D01*
X139737958Y-81291303D01*
X139681747Y-81320690D01*
X139620899Y-81338598D01*
X139620838Y-81338604D01*
X139620809Y-81338612D01*
X139557736Y-81344352D01*
X139494746Y-81337731D01*
X139494727Y-81337725D01*
X139494650Y-81337717D01*
X139434057Y-81318961D01*
X139378262Y-81288792D01*
X139372866Y-81284328D01*
X139349504Y-81270005D01*
X139322367Y-81262564D01*
X139294231Y-81262977D01*
X139267324Y-81271213D01*
X139247799Y-81283391D01*
X139237958Y-81291303D01*
X139181747Y-81320690D01*
X139120899Y-81338598D01*
X139120838Y-81338604D01*
X139120809Y-81338612D01*
X139057736Y-81344352D01*
X138994746Y-81337731D01*
X138994727Y-81337725D01*
X138994650Y-81337717D01*
X138934057Y-81318961D01*
X138878262Y-81288792D01*
X138872866Y-81284328D01*
X138849504Y-81270005D01*
X138822367Y-81262564D01*
X138794231Y-81262977D01*
X138767324Y-81271213D01*
X138747799Y-81283391D01*
X138737958Y-81291303D01*
X138681747Y-81320690D01*
X138620899Y-81338598D01*
X138620838Y-81338604D01*
X138620809Y-81338612D01*
X138557736Y-81344352D01*
X138494746Y-81337731D01*
X138494727Y-81337725D01*
X138494650Y-81337717D01*
X138434057Y-81318961D01*
X138378262Y-81288792D01*
X138372866Y-81284328D01*
X138349504Y-81270005D01*
X138322367Y-81262564D01*
X138294231Y-81262977D01*
X138267324Y-81271213D01*
X138247799Y-81283391D01*
X138237958Y-81291303D01*
X138181747Y-81320690D01*
X138120899Y-81338598D01*
X138120838Y-81338604D01*
X138120809Y-81338612D01*
X138057736Y-81344352D01*
X137994746Y-81337731D01*
X137994727Y-81337725D01*
X137994650Y-81337717D01*
X137934057Y-81318961D01*
X137878262Y-81288792D01*
X137872866Y-81284328D01*
X137849504Y-81270005D01*
X137822367Y-81262564D01*
X137794231Y-81262977D01*
X137767324Y-81271213D01*
X137747799Y-81283391D01*
X137737958Y-81291303D01*
X137681747Y-81320690D01*
X137620899Y-81338598D01*
X137620838Y-81338604D01*
X137620809Y-81338612D01*
X137557736Y-81344352D01*
X137494746Y-81337731D01*
X137494727Y-81337725D01*
X137494650Y-81337717D01*
X137434057Y-81318961D01*
X137378262Y-81288792D01*
X137372866Y-81284328D01*
X137349504Y-81270005D01*
X137322367Y-81262564D01*
X137294231Y-81262977D01*
X137267324Y-81271213D01*
X137247799Y-81283391D01*
X137237958Y-81291303D01*
X137181747Y-81320690D01*
X137120899Y-81338598D01*
X137120838Y-81338604D01*
X137120809Y-81338612D01*
X137057736Y-81344352D01*
X136994746Y-81337731D01*
X136994727Y-81337725D01*
X136994650Y-81337717D01*
X136934057Y-81318961D01*
X136878262Y-81288792D01*
X136872866Y-81284328D01*
X136849504Y-81270005D01*
X136822367Y-81262564D01*
X136794231Y-81262977D01*
X136767324Y-81271213D01*
X136747799Y-81283391D01*
X136737958Y-81291303D01*
X136681747Y-81320690D01*
X136620899Y-81338598D01*
X136620838Y-81338604D01*
X136620809Y-81338612D01*
X136557736Y-81344352D01*
X136494746Y-81337731D01*
X136494727Y-81337725D01*
X136494650Y-81337717D01*
X136434057Y-81318961D01*
X136378262Y-81288792D01*
X136372866Y-81284328D01*
X136349504Y-81270005D01*
X136322367Y-81262564D01*
X136294231Y-81262977D01*
X136267324Y-81271213D01*
X136247799Y-81283391D01*
X136237958Y-81291303D01*
X136181747Y-81320690D01*
X136120899Y-81338598D01*
X136120838Y-81338604D01*
X136120809Y-81338612D01*
X136057736Y-81344352D01*
X135994746Y-81337731D01*
X135994727Y-81337725D01*
X135994650Y-81337717D01*
X135934057Y-81318961D01*
X135878262Y-81288792D01*
X135872866Y-81284328D01*
X135849504Y-81270005D01*
X135822367Y-81262564D01*
X135794231Y-81262977D01*
X135767324Y-81271213D01*
X135747799Y-81283391D01*
X135737958Y-81291303D01*
X135681747Y-81320690D01*
X135620899Y-81338598D01*
X135620838Y-81338604D01*
X135620809Y-81338612D01*
X135557736Y-81344352D01*
X135494746Y-81337731D01*
X135494727Y-81337725D01*
X135494650Y-81337717D01*
X135434057Y-81318961D01*
X135378262Y-81288792D01*
X135372866Y-81284328D01*
X135349504Y-81270005D01*
X135322367Y-81262564D01*
X135294231Y-81262977D01*
X135267324Y-81271213D01*
X135247799Y-81283391D01*
X135237958Y-81291303D01*
X135181747Y-81320690D01*
X135120899Y-81338598D01*
X135120838Y-81338604D01*
X135120809Y-81338612D01*
X135057736Y-81344352D01*
X134994746Y-81337731D01*
X134994727Y-81337725D01*
X134994650Y-81337717D01*
X134934057Y-81318961D01*
X134878262Y-81288792D01*
X134872866Y-81284328D01*
X134849504Y-81270005D01*
X134822367Y-81262564D01*
X134794231Y-81262977D01*
X134767324Y-81271213D01*
X134747799Y-81283391D01*
X134737958Y-81291303D01*
X134681747Y-81320690D01*
X134620899Y-81338598D01*
X134620838Y-81338604D01*
X134620809Y-81338612D01*
X134557736Y-81344352D01*
X134494746Y-81337731D01*
X134494727Y-81337725D01*
X134494650Y-81337717D01*
X134434057Y-81318961D01*
X134378262Y-81288792D01*
X134372866Y-81284328D01*
X134349504Y-81270005D01*
X134322367Y-81262564D01*
X134294231Y-81262977D01*
X134267324Y-81271213D01*
X134247799Y-81283391D01*
X134237958Y-81291303D01*
X134181747Y-81320690D01*
X134120899Y-81338598D01*
X134120838Y-81338604D01*
X134120809Y-81338612D01*
X134057736Y-81344352D01*
X133994746Y-81337731D01*
X133994727Y-81337725D01*
X133994650Y-81337717D01*
X133934057Y-81318961D01*
X133878262Y-81288792D01*
X133872866Y-81284328D01*
X133849504Y-81270005D01*
X133822367Y-81262564D01*
X133794231Y-81262977D01*
X133767324Y-81271213D01*
X133747799Y-81283391D01*
X133737958Y-81291303D01*
X133681747Y-81320690D01*
X133620899Y-81338598D01*
X133620838Y-81338604D01*
X133620809Y-81338612D01*
X133557736Y-81344352D01*
X133494746Y-81337731D01*
X133494727Y-81337725D01*
X133494650Y-81337717D01*
X133434057Y-81318961D01*
X133378262Y-81288792D01*
X133372866Y-81284328D01*
X133349504Y-81270005D01*
X133322367Y-81262564D01*
X133294231Y-81262977D01*
X133267324Y-81271213D01*
X133247799Y-81283391D01*
X133237958Y-81291303D01*
X133181747Y-81320690D01*
X133120899Y-81338598D01*
X133120838Y-81338604D01*
X133120809Y-81338612D01*
X133057736Y-81344352D01*
X132994746Y-81337731D01*
X132994727Y-81337725D01*
X132994650Y-81337717D01*
X132934057Y-81318961D01*
X132878262Y-81288792D01*
X132872866Y-81284328D01*
X132849504Y-81270005D01*
X132822367Y-81262564D01*
X132794231Y-81262977D01*
X132767324Y-81271213D01*
X132747799Y-81283391D01*
X132737958Y-81291303D01*
X132681747Y-81320690D01*
X132620899Y-81338598D01*
X132620838Y-81338604D01*
X132620809Y-81338612D01*
X132557736Y-81344352D01*
X132494746Y-81337731D01*
X132494727Y-81337725D01*
X132494650Y-81337717D01*
X132434057Y-81318961D01*
X132378262Y-81288792D01*
X132372866Y-81284328D01*
X132349504Y-81270005D01*
X132322367Y-81262564D01*
X132294231Y-81262977D01*
X132267324Y-81271213D01*
X132247799Y-81283391D01*
X132237958Y-81291303D01*
X132181747Y-81320690D01*
X132120899Y-81338598D01*
X132120838Y-81338604D01*
X132120809Y-81338612D01*
X132057736Y-81344352D01*
X131994746Y-81337731D01*
X131994727Y-81337725D01*
X131994650Y-81337717D01*
X131934057Y-81318961D01*
X131878262Y-81288792D01*
X131872866Y-81284328D01*
X131849504Y-81270005D01*
X131822367Y-81262564D01*
X131794231Y-81262977D01*
X131767324Y-81271213D01*
X131747799Y-81283391D01*
X131737958Y-81291303D01*
X131681747Y-81320690D01*
X131620899Y-81338598D01*
X131620838Y-81338604D01*
X131620809Y-81338612D01*
X131557736Y-81344352D01*
X131494746Y-81337731D01*
X131494727Y-81337725D01*
X131494650Y-81337717D01*
X131434057Y-81318961D01*
X131378262Y-81288792D01*
X131372866Y-81284328D01*
X131349504Y-81270005D01*
X131322367Y-81262564D01*
X131294231Y-81262977D01*
X131267324Y-81271213D01*
X131247799Y-81283391D01*
X131237958Y-81291303D01*
X131181747Y-81320690D01*
X131120899Y-81338598D01*
X131120838Y-81338604D01*
X131120809Y-81338612D01*
X131057736Y-81344352D01*
X130994746Y-81337731D01*
X130994727Y-81337725D01*
X130994650Y-81337717D01*
X130934057Y-81318961D01*
X130878262Y-81288792D01*
X130872866Y-81284328D01*
X130849504Y-81270005D01*
X130822367Y-81262564D01*
X130794231Y-81262977D01*
X130767324Y-81271213D01*
X130747799Y-81283391D01*
X130737958Y-81291303D01*
X130681747Y-81320690D01*
X130620899Y-81338598D01*
X130620838Y-81338604D01*
X130620809Y-81338612D01*
X130557736Y-81344352D01*
X130494746Y-81337731D01*
X130494727Y-81337725D01*
X130494650Y-81337717D01*
X130434057Y-81318961D01*
X130378262Y-81288792D01*
X130372866Y-81284328D01*
X130349504Y-81270005D01*
X130322367Y-81262564D01*
X130294231Y-81262977D01*
X130267324Y-81271213D01*
X130247799Y-81283391D01*
X130237958Y-81291303D01*
X130181747Y-81320690D01*
X130120899Y-81338598D01*
X130120838Y-81338604D01*
X130120809Y-81338612D01*
X130057736Y-81344352D01*
X129994746Y-81337731D01*
X129994727Y-81337725D01*
X129994650Y-81337717D01*
X129934057Y-81318961D01*
X129878262Y-81288792D01*
X129872866Y-81284328D01*
X129849504Y-81270005D01*
X129822367Y-81262564D01*
X129794231Y-81262977D01*
X129767324Y-81271213D01*
X129747799Y-81283391D01*
X129737958Y-81291303D01*
X129681747Y-81320690D01*
X129620899Y-81338598D01*
X129620838Y-81338604D01*
X129620809Y-81338612D01*
X129557736Y-81344352D01*
X129494746Y-81337731D01*
X129494727Y-81337725D01*
X129494650Y-81337717D01*
X129434057Y-81318961D01*
X129378262Y-81288792D01*
X129372866Y-81284328D01*
X129349504Y-81270005D01*
X129322367Y-81262564D01*
X129294231Y-81262977D01*
X129267324Y-81271213D01*
X129247799Y-81283391D01*
X129237958Y-81291303D01*
X129181747Y-81320690D01*
X129120899Y-81338598D01*
X129120838Y-81338604D01*
X129120809Y-81338612D01*
X129057736Y-81344352D01*
X128994746Y-81337731D01*
X128994727Y-81337725D01*
X128994650Y-81337717D01*
X128934057Y-81318961D01*
X128878262Y-81288792D01*
X128872866Y-81284328D01*
X128849504Y-81270005D01*
X128822367Y-81262564D01*
X128794231Y-81262977D01*
X128767324Y-81271213D01*
X128747799Y-81283391D01*
X128737958Y-81291303D01*
X128681747Y-81320690D01*
X128620899Y-81338598D01*
X128620838Y-81338604D01*
X128620809Y-81338612D01*
X128557736Y-81344352D01*
X128494746Y-81337731D01*
X128494727Y-81337725D01*
X128494650Y-81337717D01*
X128434057Y-81318961D01*
X128378262Y-81288792D01*
X128372866Y-81284328D01*
X128349504Y-81270005D01*
X128322367Y-81262564D01*
X128294231Y-81262977D01*
X128267324Y-81271213D01*
X128247799Y-81283391D01*
X128237958Y-81291303D01*
X128181747Y-81320690D01*
X128120899Y-81338598D01*
X128120838Y-81338604D01*
X128120809Y-81338612D01*
X128057736Y-81344352D01*
X127994746Y-81337731D01*
X127994727Y-81337725D01*
X127994650Y-81337717D01*
X127934057Y-81318961D01*
X127878262Y-81288792D01*
X127872866Y-81284328D01*
X127849504Y-81270005D01*
X127822367Y-81262564D01*
X127794231Y-81262977D01*
X127767324Y-81271213D01*
X127747799Y-81283391D01*
X127737958Y-81291303D01*
X127681747Y-81320690D01*
X127620899Y-81338598D01*
X127620838Y-81338604D01*
X127620809Y-81338612D01*
X127557736Y-81344352D01*
X127494746Y-81337731D01*
X127494727Y-81337725D01*
X127494650Y-81337717D01*
X127434057Y-81318961D01*
X127378262Y-81288792D01*
X127372866Y-81284328D01*
X127349504Y-81270005D01*
X127322367Y-81262564D01*
X127294231Y-81262977D01*
X127267324Y-81271213D01*
X127247799Y-81283391D01*
X127237958Y-81291303D01*
X127181747Y-81320690D01*
X127120899Y-81338598D01*
X127120838Y-81338604D01*
X127120809Y-81338612D01*
X127057736Y-81344352D01*
X126994746Y-81337731D01*
X126994727Y-81337725D01*
X126994650Y-81337717D01*
X126934057Y-81318961D01*
X126878262Y-81288792D01*
X126872866Y-81284328D01*
X126849504Y-81270005D01*
X126822367Y-81262564D01*
X126794231Y-81262977D01*
X126767324Y-81271213D01*
X126747799Y-81283391D01*
X126737958Y-81291303D01*
X126681747Y-81320690D01*
X126620899Y-81338598D01*
X126620838Y-81338604D01*
X126620809Y-81338612D01*
X126557736Y-81344352D01*
X126494746Y-81337731D01*
X126494727Y-81337725D01*
X126494650Y-81337717D01*
X126434057Y-81318961D01*
X126378262Y-81288792D01*
X126372866Y-81284328D01*
X126349504Y-81270005D01*
X126322367Y-81262564D01*
X126294231Y-81262977D01*
X126267324Y-81271213D01*
X126247799Y-81283391D01*
X126237958Y-81291303D01*
X126181747Y-81320690D01*
X126120899Y-81338598D01*
X126120838Y-81338604D01*
X126120809Y-81338612D01*
X126057736Y-81344352D01*
X125994746Y-81337731D01*
X125994727Y-81337725D01*
X125994650Y-81337717D01*
X125934057Y-81318961D01*
X125878262Y-81288792D01*
X125872866Y-81284328D01*
X125849504Y-81270005D01*
X125822367Y-81262564D01*
X125794231Y-81262977D01*
X125767324Y-81271213D01*
X125747799Y-81283391D01*
X125737958Y-81291303D01*
X125681747Y-81320690D01*
X125620899Y-81338598D01*
X125620838Y-81338604D01*
X125620809Y-81338612D01*
X125557736Y-81344352D01*
X125494746Y-81337731D01*
X125494727Y-81337725D01*
X125494650Y-81337717D01*
X125434057Y-81318961D01*
X125378262Y-81288792D01*
X125372866Y-81284328D01*
X125349504Y-81270005D01*
X125322367Y-81262564D01*
X125294231Y-81262977D01*
X125267324Y-81271213D01*
X125247799Y-81283391D01*
X125237958Y-81291303D01*
X125181747Y-81320690D01*
X125120899Y-81338598D01*
X125120838Y-81338604D01*
X125120809Y-81338612D01*
X125057736Y-81344352D01*
X124994746Y-81337731D01*
X124994727Y-81337725D01*
X124994650Y-81337717D01*
X124934057Y-81318961D01*
X124878262Y-81288792D01*
X124872866Y-81284328D01*
X124849504Y-81270005D01*
X124822367Y-81262564D01*
X124794231Y-81262977D01*
X124767324Y-81271213D01*
X124747799Y-81283391D01*
X124737958Y-81291303D01*
X124681747Y-81320690D01*
X124620899Y-81338598D01*
X124620838Y-81338604D01*
X124620809Y-81338612D01*
X124557736Y-81344352D01*
X124494746Y-81337731D01*
X124494727Y-81337725D01*
X124494650Y-81337717D01*
X124434057Y-81318961D01*
X124378262Y-81288792D01*
X124372866Y-81284328D01*
X124349504Y-81270005D01*
X124322367Y-81262564D01*
X124294231Y-81262977D01*
X124267324Y-81271213D01*
X124247799Y-81283391D01*
X124237958Y-81291303D01*
X124181747Y-81320690D01*
X124120899Y-81338598D01*
X124120838Y-81338604D01*
X124120809Y-81338612D01*
X124057736Y-81344352D01*
X123994746Y-81337731D01*
X123994727Y-81337725D01*
X123994650Y-81337717D01*
X123934057Y-81318961D01*
X123878262Y-81288792D01*
X123872866Y-81284328D01*
X123849504Y-81270005D01*
X123822367Y-81262564D01*
X123794231Y-81262977D01*
X123767324Y-81271213D01*
X123747799Y-81283391D01*
X123737958Y-81291303D01*
X123681747Y-81320690D01*
X123620899Y-81338598D01*
X123620838Y-81338604D01*
X123620809Y-81338612D01*
X123557736Y-81344352D01*
X123494746Y-81337731D01*
X123494727Y-81337725D01*
X123494650Y-81337717D01*
X123434057Y-81318961D01*
X123378262Y-81288792D01*
X123372866Y-81284328D01*
X123349504Y-81270005D01*
X123322367Y-81262564D01*
X123294231Y-81262977D01*
X123267324Y-81271213D01*
X123247799Y-81283391D01*
X123237958Y-81291303D01*
X123181747Y-81320690D01*
X123120899Y-81338598D01*
X123120838Y-81338604D01*
X123120809Y-81338612D01*
X123057736Y-81344352D01*
X122994746Y-81337731D01*
X122994727Y-81337725D01*
X122994650Y-81337717D01*
X122934057Y-81318961D01*
X122878262Y-81288792D01*
X122872866Y-81284328D01*
X122849504Y-81270005D01*
X122822367Y-81262564D01*
X122794231Y-81262977D01*
X122767324Y-81271213D01*
X122747799Y-81283391D01*
X122737958Y-81291303D01*
X122681747Y-81320690D01*
X122620899Y-81338598D01*
X122620838Y-81338604D01*
X122620809Y-81338612D01*
X122557736Y-81344352D01*
X122494746Y-81337731D01*
X122494727Y-81337725D01*
X122494650Y-81337717D01*
X122434057Y-81318961D01*
X122378262Y-81288792D01*
X122372866Y-81284328D01*
X122349504Y-81270005D01*
X122322367Y-81262564D01*
X122294231Y-81262977D01*
X122267324Y-81271213D01*
X122247799Y-81283391D01*
X122237958Y-81291303D01*
X122181747Y-81320690D01*
X122120899Y-81338598D01*
X122120838Y-81338604D01*
X122120809Y-81338612D01*
X122057736Y-81344352D01*
X121994746Y-81337731D01*
X121994727Y-81337725D01*
X121994650Y-81337717D01*
X121934057Y-81318961D01*
X121878262Y-81288792D01*
X121829390Y-81248361D01*
X121789301Y-81199207D01*
X121759523Y-81143203D01*
X121741190Y-81082481D01*
X121735000Y-81019355D01*
X121735000Y-79860563D01*
X121735003Y-79860161D01*
X121735003Y-79860157D01*
X121735032Y-79856107D01*
X121742102Y-79793074D01*
X121761281Y-79732614D01*
X121791838Y-79677031D01*
X121832609Y-79628441D01*
X121882042Y-79588697D01*
X121938253Y-79559310D01*
X121999101Y-79541402D01*
X121999162Y-79541396D01*
X121999191Y-79541388D01*
X122062264Y-79535648D01*
X122125254Y-79542269D01*
X122125273Y-79542275D01*
X122125350Y-79542283D01*
X122185943Y-79561039D01*
X122241738Y-79591208D01*
X122247134Y-79595672D01*
X122270496Y-79609995D01*
X122297633Y-79617436D01*
X122325769Y-79617023D01*
X122352676Y-79608787D01*
X122372201Y-79596609D01*
X122382042Y-79588697D01*
X122438253Y-79559310D01*
X122499101Y-79541402D01*
X122499162Y-79541396D01*
X122499191Y-79541388D01*
X122562264Y-79535648D01*
X122625254Y-79542269D01*
X122625273Y-79542275D01*
X122625350Y-79542283D01*
X122685943Y-79561039D01*
X122741738Y-79591208D01*
X122747134Y-79595672D01*
X122770496Y-79609995D01*
X122797633Y-79617436D01*
X122825769Y-79617023D01*
X122852676Y-79608787D01*
X122872201Y-79596609D01*
X122882042Y-79588697D01*
X122938253Y-79559310D01*
X122999101Y-79541402D01*
X122999162Y-79541396D01*
X122999191Y-79541388D01*
X123062264Y-79535648D01*
X123125254Y-79542269D01*
X123125273Y-79542275D01*
X123125350Y-79542283D01*
X123185943Y-79561039D01*
X123241738Y-79591208D01*
X123247134Y-79595672D01*
X123270496Y-79609995D01*
X123297633Y-79617436D01*
X123325769Y-79617023D01*
X123352676Y-79608787D01*
X123372201Y-79596609D01*
X123382042Y-79588697D01*
X123438253Y-79559310D01*
X123499101Y-79541402D01*
X123499162Y-79541396D01*
X123499191Y-79541388D01*
X123562264Y-79535648D01*
X123625254Y-79542269D01*
X123625273Y-79542275D01*
X123625350Y-79542283D01*
X123685943Y-79561039D01*
X123741738Y-79591208D01*
X123747134Y-79595672D01*
X123770496Y-79609995D01*
X123797633Y-79617436D01*
X123825769Y-79617023D01*
X123852676Y-79608787D01*
X123872201Y-79596609D01*
X123882042Y-79588697D01*
X123938253Y-79559310D01*
X123999101Y-79541402D01*
X123999162Y-79541396D01*
X123999191Y-79541388D01*
X124062264Y-79535648D01*
X124125254Y-79542269D01*
X124125273Y-79542275D01*
X124125350Y-79542283D01*
X124185943Y-79561039D01*
X124241738Y-79591208D01*
X124247134Y-79595672D01*
X124270496Y-79609995D01*
X124297633Y-79617436D01*
X124325769Y-79617023D01*
X124352676Y-79608787D01*
X124372201Y-79596609D01*
X124382042Y-79588697D01*
X124438253Y-79559310D01*
X124499101Y-79541402D01*
X124499162Y-79541396D01*
X124499191Y-79541388D01*
X124562264Y-79535648D01*
X124625254Y-79542269D01*
X124625273Y-79542275D01*
X124625350Y-79542283D01*
X124685943Y-79561039D01*
X124741738Y-79591208D01*
X124747134Y-79595672D01*
X124770496Y-79609995D01*
X124797633Y-79617436D01*
X124825769Y-79617023D01*
X124852676Y-79608787D01*
X124872201Y-79596609D01*
X124882042Y-79588697D01*
X124938253Y-79559310D01*
X124999101Y-79541402D01*
X124999162Y-79541396D01*
X124999191Y-79541388D01*
X125062264Y-79535648D01*
X125125254Y-79542269D01*
X125125273Y-79542275D01*
X125125350Y-79542283D01*
X125185943Y-79561039D01*
X125241738Y-79591208D01*
X125247134Y-79595672D01*
X125270496Y-79609995D01*
X125297633Y-79617436D01*
X125325769Y-79617023D01*
X125352676Y-79608787D01*
X125372201Y-79596609D01*
X125382042Y-79588697D01*
X125438253Y-79559310D01*
X125499101Y-79541402D01*
X125499162Y-79541396D01*
X125499191Y-79541388D01*
X125562264Y-79535648D01*
X125625254Y-79542269D01*
X125625273Y-79542275D01*
X125625350Y-79542283D01*
X125685943Y-79561039D01*
X125741738Y-79591208D01*
X125747134Y-79595672D01*
X125770496Y-79609995D01*
X125797633Y-79617436D01*
X125825769Y-79617023D01*
X125852676Y-79608787D01*
X125872201Y-79596609D01*
X125882042Y-79588697D01*
X125938253Y-79559310D01*
X125999101Y-79541402D01*
X125999162Y-79541396D01*
X125999191Y-79541388D01*
X126062264Y-79535648D01*
X126125254Y-79542269D01*
X126125273Y-79542275D01*
X126125350Y-79542283D01*
X126185943Y-79561039D01*
X126241738Y-79591208D01*
X126247134Y-79595672D01*
X126270496Y-79609995D01*
X126297633Y-79617436D01*
X126325769Y-79617023D01*
X126352676Y-79608787D01*
X126372201Y-79596609D01*
X126382042Y-79588697D01*
X126438253Y-79559310D01*
X126499101Y-79541402D01*
X126499162Y-79541396D01*
X126499191Y-79541388D01*
X126562264Y-79535648D01*
X126625254Y-79542269D01*
X126625273Y-79542275D01*
X126625350Y-79542283D01*
X126685943Y-79561039D01*
X126741738Y-79591208D01*
X126747134Y-79595672D01*
X126770496Y-79609995D01*
X126797633Y-79617436D01*
X126825769Y-79617023D01*
X126852676Y-79608787D01*
X126872201Y-79596609D01*
X126882042Y-79588697D01*
X126938253Y-79559310D01*
X126999101Y-79541402D01*
X126999162Y-79541396D01*
X126999191Y-79541388D01*
X127062264Y-79535648D01*
X127125254Y-79542269D01*
X127125273Y-79542275D01*
X127125350Y-79542283D01*
X127185943Y-79561039D01*
X127241738Y-79591208D01*
X127247134Y-79595672D01*
X127270496Y-79609995D01*
X127297633Y-79617436D01*
X127325769Y-79617023D01*
X127352676Y-79608787D01*
X127372201Y-79596609D01*
X127382042Y-79588697D01*
X127438253Y-79559310D01*
X127499101Y-79541402D01*
X127499162Y-79541396D01*
X127499191Y-79541388D01*
X127562264Y-79535648D01*
X127625254Y-79542269D01*
X127625273Y-79542275D01*
X127625350Y-79542283D01*
X127685943Y-79561039D01*
X127741738Y-79591208D01*
X127747134Y-79595672D01*
X127770496Y-79609995D01*
X127797633Y-79617436D01*
X127825769Y-79617023D01*
X127852676Y-79608787D01*
X127872201Y-79596609D01*
X127882042Y-79588697D01*
X127938253Y-79559310D01*
X127999101Y-79541402D01*
X127999162Y-79541396D01*
X127999191Y-79541388D01*
X128062264Y-79535648D01*
X128125254Y-79542269D01*
X128125273Y-79542275D01*
X128125350Y-79542283D01*
X128185943Y-79561039D01*
X128241738Y-79591208D01*
X128247134Y-79595672D01*
X128270496Y-79609995D01*
X128297633Y-79617436D01*
X128325769Y-79617023D01*
X128352676Y-79608787D01*
X128372201Y-79596609D01*
X128382042Y-79588697D01*
X128438253Y-79559310D01*
X128499101Y-79541402D01*
X128499162Y-79541396D01*
X128499191Y-79541388D01*
X128562264Y-79535648D01*
X128625254Y-79542269D01*
X128625273Y-79542275D01*
X128625350Y-79542283D01*
X128685943Y-79561039D01*
X128741738Y-79591208D01*
X128747134Y-79595672D01*
X128770496Y-79609995D01*
X128797633Y-79617436D01*
X128825769Y-79617023D01*
X128852676Y-79608787D01*
X128872201Y-79596609D01*
X128882042Y-79588697D01*
X128938253Y-79559310D01*
X128999101Y-79541402D01*
X128999162Y-79541396D01*
X128999191Y-79541388D01*
X129062264Y-79535648D01*
X129125254Y-79542269D01*
X129125273Y-79542275D01*
X129125350Y-79542283D01*
X129185943Y-79561039D01*
X129241738Y-79591208D01*
X129247134Y-79595672D01*
X129270496Y-79609995D01*
X129297633Y-79617436D01*
X129325769Y-79617023D01*
X129352676Y-79608787D01*
X129372201Y-79596609D01*
X129382042Y-79588697D01*
X129438253Y-79559310D01*
X129499101Y-79541402D01*
X129499162Y-79541396D01*
X129499191Y-79541388D01*
X129562264Y-79535648D01*
X129625254Y-79542269D01*
X129625273Y-79542275D01*
X129625350Y-79542283D01*
X129685943Y-79561039D01*
X129741738Y-79591208D01*
X129747134Y-79595672D01*
X129770496Y-79609995D01*
X129797633Y-79617436D01*
X129825769Y-79617023D01*
X129852676Y-79608787D01*
X129872201Y-79596609D01*
X129882042Y-79588697D01*
X129938253Y-79559310D01*
X129999101Y-79541402D01*
X129999162Y-79541396D01*
X129999191Y-79541388D01*
X130062264Y-79535648D01*
X130125254Y-79542269D01*
X130125273Y-79542275D01*
X130125350Y-79542283D01*
X130185943Y-79561039D01*
X130241738Y-79591208D01*
X130247134Y-79595672D01*
X130270496Y-79609995D01*
X130297633Y-79617436D01*
X130325769Y-79617023D01*
X130352676Y-79608787D01*
X130372201Y-79596609D01*
X130382042Y-79588697D01*
X130438253Y-79559310D01*
X130499101Y-79541402D01*
X130499162Y-79541396D01*
X130499191Y-79541388D01*
X130562264Y-79535648D01*
X130625254Y-79542269D01*
X130625273Y-79542275D01*
X130625350Y-79542283D01*
X130685943Y-79561039D01*
X130741738Y-79591208D01*
X130747134Y-79595672D01*
X130770496Y-79609995D01*
X130797633Y-79617436D01*
X130825769Y-79617023D01*
X130852676Y-79608787D01*
X130872201Y-79596609D01*
X130882042Y-79588697D01*
X130938253Y-79559310D01*
X130999101Y-79541402D01*
X130999162Y-79541396D01*
X130999191Y-79541388D01*
X131062264Y-79535648D01*
X131125254Y-79542269D01*
X131125273Y-79542275D01*
X131125350Y-79542283D01*
X131185943Y-79561039D01*
X131241738Y-79591208D01*
X131247134Y-79595672D01*
X131270496Y-79609995D01*
X131297633Y-79617436D01*
X131325769Y-79617023D01*
X131352676Y-79608787D01*
X131372201Y-79596609D01*
X131382042Y-79588697D01*
X131438253Y-79559310D01*
X131499101Y-79541402D01*
X131499162Y-79541396D01*
X131499191Y-79541388D01*
X131562264Y-79535648D01*
X131625254Y-79542269D01*
X131625273Y-79542275D01*
X131625350Y-79542283D01*
X131685943Y-79561039D01*
X131741738Y-79591208D01*
X131747134Y-79595672D01*
X131770496Y-79609995D01*
X131797633Y-79617436D01*
X131825769Y-79617023D01*
X131852676Y-79608787D01*
X131872201Y-79596609D01*
X131882042Y-79588697D01*
X131938253Y-79559310D01*
X131999101Y-79541402D01*
X131999162Y-79541396D01*
X131999191Y-79541388D01*
X132062264Y-79535648D01*
X132125254Y-79542269D01*
X132125273Y-79542275D01*
X132125350Y-79542283D01*
X132185943Y-79561039D01*
X132241738Y-79591208D01*
X132247134Y-79595672D01*
X132270496Y-79609995D01*
X132297633Y-79617436D01*
X132325769Y-79617023D01*
X132352676Y-79608787D01*
X132372201Y-79596609D01*
X132382042Y-79588697D01*
X132438253Y-79559310D01*
X132499101Y-79541402D01*
X132499162Y-79541396D01*
X132499191Y-79541388D01*
X132562264Y-79535648D01*
X132625254Y-79542269D01*
X132625273Y-79542275D01*
X132625350Y-79542283D01*
X132685943Y-79561039D01*
X132741738Y-79591208D01*
X132747134Y-79595672D01*
X132770496Y-79609995D01*
X132797633Y-79617436D01*
X132825769Y-79617023D01*
X132852676Y-79608787D01*
X132872201Y-79596609D01*
X132882042Y-79588697D01*
X132938253Y-79559310D01*
X132999101Y-79541402D01*
X132999162Y-79541396D01*
X132999191Y-79541388D01*
X133062264Y-79535648D01*
X133125254Y-79542269D01*
X133125273Y-79542275D01*
X133125350Y-79542283D01*
X133185943Y-79561039D01*
X133241738Y-79591208D01*
X133247134Y-79595672D01*
X133270496Y-79609995D01*
X133297633Y-79617436D01*
X133325769Y-79617023D01*
X133352676Y-79608787D01*
X133372201Y-79596609D01*
X133382042Y-79588697D01*
X133438253Y-79559310D01*
X133499101Y-79541402D01*
X133499162Y-79541396D01*
X133499191Y-79541388D01*
X133562264Y-79535648D01*
X133625254Y-79542269D01*
X133625273Y-79542275D01*
X133625350Y-79542283D01*
X133685943Y-79561039D01*
X133741738Y-79591208D01*
X133747134Y-79595672D01*
X133770496Y-79609995D01*
X133797633Y-79617436D01*
X133825769Y-79617023D01*
X133852676Y-79608787D01*
X133872201Y-79596609D01*
X133882042Y-79588697D01*
X133938253Y-79559310D01*
X133999101Y-79541402D01*
X133999162Y-79541396D01*
X133999191Y-79541388D01*
X134062264Y-79535648D01*
X134125254Y-79542269D01*
X134125273Y-79542275D01*
X134125350Y-79542283D01*
X134185943Y-79561039D01*
X134241738Y-79591208D01*
X134247134Y-79595672D01*
X134270496Y-79609995D01*
X134297633Y-79617436D01*
X134325769Y-79617023D01*
X134352676Y-79608787D01*
X134372201Y-79596609D01*
X134382042Y-79588697D01*
X134438253Y-79559310D01*
X134499101Y-79541402D01*
X134499162Y-79541396D01*
X134499191Y-79541388D01*
X134562264Y-79535648D01*
X134625254Y-79542269D01*
X134625273Y-79542275D01*
X134625350Y-79542283D01*
X134685943Y-79561039D01*
X134741738Y-79591208D01*
X134747134Y-79595672D01*
X134770496Y-79609995D01*
X134797633Y-79617436D01*
X134825769Y-79617023D01*
X134852676Y-79608787D01*
X134872201Y-79596609D01*
X134882042Y-79588697D01*
X134938253Y-79559310D01*
X134999101Y-79541402D01*
X134999162Y-79541396D01*
X134999191Y-79541388D01*
X135062264Y-79535648D01*
X135125254Y-79542269D01*
X135125273Y-79542275D01*
X135125350Y-79542283D01*
X135185943Y-79561039D01*
X135241738Y-79591208D01*
X135247134Y-79595672D01*
X135270496Y-79609995D01*
X135297633Y-79617436D01*
X135325769Y-79617023D01*
X135352676Y-79608787D01*
X135372201Y-79596609D01*
X135382042Y-79588697D01*
X135438253Y-79559310D01*
X135499101Y-79541402D01*
X135499162Y-79541396D01*
X135499191Y-79541388D01*
X135562264Y-79535648D01*
X135625254Y-79542269D01*
X135625273Y-79542275D01*
X135625350Y-79542283D01*
X135685943Y-79561039D01*
X135741738Y-79591208D01*
X135747134Y-79595672D01*
X135770496Y-79609995D01*
X135797633Y-79617436D01*
X135825769Y-79617023D01*
X135852676Y-79608787D01*
X135872201Y-79596609D01*
X135882042Y-79588697D01*
X135938253Y-79559310D01*
X135999101Y-79541402D01*
X135999162Y-79541396D01*
X135999191Y-79541388D01*
X136062264Y-79535648D01*
X136125254Y-79542269D01*
X136125273Y-79542275D01*
X136125350Y-79542283D01*
X136185943Y-79561039D01*
X136241738Y-79591208D01*
X136247134Y-79595672D01*
X136270496Y-79609995D01*
X136297633Y-79617436D01*
X136325769Y-79617023D01*
X136352676Y-79608787D01*
X136372201Y-79596609D01*
X136382042Y-79588697D01*
X136438253Y-79559310D01*
X136499101Y-79541402D01*
X136499162Y-79541396D01*
X136499191Y-79541388D01*
X136562264Y-79535648D01*
X136625254Y-79542269D01*
X136625273Y-79542275D01*
X136625350Y-79542283D01*
X136685943Y-79561039D01*
X136741738Y-79591208D01*
X136747134Y-79595672D01*
X136770496Y-79609995D01*
X136797633Y-79617436D01*
X136825769Y-79617023D01*
X136852676Y-79608787D01*
X136872201Y-79596609D01*
X136882042Y-79588697D01*
X136938253Y-79559310D01*
X136999101Y-79541402D01*
X136999162Y-79541396D01*
X136999191Y-79541388D01*
X137062264Y-79535648D01*
X137125254Y-79542269D01*
X137125273Y-79542275D01*
X137125350Y-79542283D01*
X137185943Y-79561039D01*
X137241738Y-79591208D01*
X137247134Y-79595672D01*
X137270496Y-79609995D01*
X137297633Y-79617436D01*
X137325769Y-79617023D01*
X137352676Y-79608787D01*
X137372201Y-79596609D01*
X137382042Y-79588697D01*
X137438253Y-79559310D01*
X137499101Y-79541402D01*
X137499162Y-79541396D01*
X137499191Y-79541388D01*
X137562264Y-79535648D01*
X137625254Y-79542269D01*
X137625273Y-79542275D01*
X137625350Y-79542283D01*
X137685943Y-79561039D01*
X137741738Y-79591208D01*
X137747134Y-79595672D01*
X137770496Y-79609995D01*
X137797633Y-79617436D01*
X137825769Y-79617023D01*
X137852676Y-79608787D01*
X137872201Y-79596609D01*
X137882042Y-79588697D01*
X137938253Y-79559310D01*
X137999101Y-79541402D01*
X137999162Y-79541396D01*
X137999191Y-79541388D01*
X138062264Y-79535648D01*
X138125254Y-79542269D01*
X138125273Y-79542275D01*
X138125350Y-79542283D01*
X138185943Y-79561039D01*
X138241738Y-79591208D01*
X138247134Y-79595672D01*
X138270496Y-79609995D01*
X138297633Y-79617436D01*
X138325769Y-79617023D01*
X138352676Y-79608787D01*
X138372201Y-79596609D01*
X138382042Y-79588697D01*
X138438253Y-79559310D01*
X138499101Y-79541402D01*
X138499162Y-79541396D01*
X138499191Y-79541388D01*
X138562264Y-79535648D01*
X138625254Y-79542269D01*
X138625273Y-79542275D01*
X138625350Y-79542283D01*
X138685943Y-79561039D01*
X138741738Y-79591208D01*
X138747134Y-79595672D01*
X138770496Y-79609995D01*
X138797633Y-79617436D01*
X138825769Y-79617023D01*
X138852676Y-79608787D01*
X138872201Y-79596609D01*
X138882042Y-79588697D01*
X138938253Y-79559310D01*
X138999101Y-79541402D01*
X138999162Y-79541396D01*
X138999191Y-79541388D01*
X139062264Y-79535648D01*
X139125254Y-79542269D01*
X139125273Y-79542275D01*
X139125350Y-79542283D01*
X139185943Y-79561039D01*
X139241738Y-79591208D01*
X139247134Y-79595672D01*
X139270496Y-79609995D01*
X139297633Y-79617436D01*
X139325769Y-79617023D01*
X139352676Y-79608787D01*
X139372201Y-79596609D01*
X139382042Y-79588697D01*
X139438253Y-79559310D01*
X139499101Y-79541402D01*
X139499162Y-79541396D01*
X139499191Y-79541388D01*
X139562264Y-79535648D01*
X139625254Y-79542269D01*
X139625254Y-79542269D01*
G37*
G36*
X155255103Y-73201994D02*
X155831421Y-73320295D01*
X156373778Y-73548281D01*
X156861530Y-73877273D01*
X157276086Y-74294734D01*
X157601662Y-74784766D01*
X157825859Y-75328708D01*
X157939996Y-75905145D01*
X157939996Y-75905162D01*
X157940129Y-75905835D01*
X157930746Y-76577819D01*
X157930594Y-76578487D01*
X157930594Y-76578506D01*
X157800407Y-77151528D01*
X157561108Y-77689003D01*
X157221979Y-78169748D01*
X156795925Y-78575473D01*
X156299176Y-78890720D01*
X155750668Y-79103472D01*
X155171270Y-79205636D01*
X154583069Y-79193315D01*
X154008461Y-79066979D01*
X153469337Y-78831442D01*
X152986231Y-78495674D01*
X152577541Y-78072463D01*
X152258836Y-77577930D01*
X152042257Y-77030913D01*
X151936052Y-76452247D01*
X151944266Y-75863977D01*
X152066587Y-75288501D01*
X152298357Y-74747741D01*
X152630745Y-74262303D01*
X153051090Y-73850669D01*
X153543383Y-73528522D01*
X154088873Y-73308129D01*
X154666786Y-73197886D01*
X155255103Y-73201994D01*
X155255103Y-73201994D01*
G37*
G36*
X142451034Y-75166351D02*
X142451052Y-75166357D01*
X142451132Y-75166365D01*
X142646891Y-75226963D01*
X142827153Y-75324430D01*
X142985049Y-75455053D01*
X143114567Y-75613858D01*
X143210773Y-75794795D01*
X143270003Y-75990973D01*
X143290000Y-76194919D01*
X143290000Y-76205154D01*
X143289927Y-76215685D01*
X143289926Y-76215692D01*
X143289898Y-76219741D01*
X143267055Y-76423388D01*
X143205092Y-76618720D01*
X143106369Y-76798296D01*
X142974647Y-76955277D01*
X142814941Y-77083684D01*
X142633337Y-77178624D01*
X142436750Y-77236483D01*
X142436680Y-77236489D01*
X142436661Y-77236495D01*
X142232675Y-77255059D01*
X142028966Y-77233649D01*
X142028948Y-77233643D01*
X142028868Y-77233635D01*
X141833109Y-77173037D01*
X141652847Y-77075570D01*
X141494951Y-76944947D01*
X141365433Y-76786142D01*
X141269227Y-76605205D01*
X141209997Y-76409027D01*
X141190000Y-76205081D01*
X141190000Y-76194846D01*
X141190073Y-76184315D01*
X141190074Y-76184308D01*
X141190102Y-76180259D01*
X141212945Y-75976612D01*
X141274908Y-75781280D01*
X141373631Y-75601704D01*
X141505353Y-75444723D01*
X141665059Y-75316316D01*
X141846663Y-75221376D01*
X142043250Y-75163517D01*
X142043320Y-75163511D01*
X142043339Y-75163505D01*
X142247325Y-75144941D01*
X142451034Y-75166351D01*
X142451034Y-75166351D01*
G37*
G36*
X137371034Y-75166351D02*
X137371052Y-75166357D01*
X137371132Y-75166365D01*
X137566891Y-75226963D01*
X137747153Y-75324430D01*
X137905049Y-75455053D01*
X138034567Y-75613858D01*
X138130773Y-75794795D01*
X138190003Y-75990973D01*
X138210000Y-76194919D01*
X138210000Y-76205154D01*
X138209927Y-76215685D01*
X138209926Y-76215692D01*
X138209898Y-76219741D01*
X138187055Y-76423388D01*
X138125092Y-76618720D01*
X138026369Y-76798296D01*
X137894647Y-76955277D01*
X137734941Y-77083684D01*
X137553337Y-77178624D01*
X137356750Y-77236483D01*
X137356680Y-77236489D01*
X137356661Y-77236495D01*
X137152675Y-77255059D01*
X136948966Y-77233649D01*
X136948948Y-77233643D01*
X136948868Y-77233635D01*
X136753109Y-77173037D01*
X136572847Y-77075570D01*
X136414951Y-76944947D01*
X136285433Y-76786142D01*
X136189227Y-76605205D01*
X136129997Y-76409027D01*
X136110000Y-76205081D01*
X136110000Y-76194846D01*
X136110073Y-76184315D01*
X136110074Y-76184308D01*
X136110102Y-76180259D01*
X136132945Y-75976612D01*
X136194908Y-75781280D01*
X136293631Y-75601704D01*
X136425353Y-75444723D01*
X136585059Y-75316316D01*
X136766663Y-75221376D01*
X136963250Y-75163517D01*
X136963320Y-75163511D01*
X136963339Y-75163505D01*
X137167325Y-75144941D01*
X137371034Y-75166351D01*
X137371034Y-75166351D01*
G37*
G36*
X134831034Y-75166351D02*
X134831052Y-75166357D01*
X134831132Y-75166365D01*
X135026891Y-75226963D01*
X135207153Y-75324430D01*
X135365049Y-75455053D01*
X135494567Y-75613858D01*
X135590773Y-75794795D01*
X135650003Y-75990973D01*
X135670000Y-76194919D01*
X135670000Y-76205154D01*
X135669927Y-76215685D01*
X135669926Y-76215692D01*
X135669898Y-76219741D01*
X135647055Y-76423388D01*
X135585092Y-76618720D01*
X135486369Y-76798296D01*
X135354647Y-76955277D01*
X135194941Y-77083684D01*
X135013337Y-77178624D01*
X134816750Y-77236483D01*
X134816680Y-77236489D01*
X134816661Y-77236495D01*
X134612675Y-77255059D01*
X134408966Y-77233649D01*
X134408948Y-77233643D01*
X134408868Y-77233635D01*
X134213109Y-77173037D01*
X134032847Y-77075570D01*
X133874951Y-76944947D01*
X133745433Y-76786142D01*
X133649227Y-76605205D01*
X133589997Y-76409027D01*
X133570000Y-76205081D01*
X133570000Y-76194846D01*
X133570073Y-76184315D01*
X133570074Y-76184308D01*
X133570102Y-76180259D01*
X133592945Y-75976612D01*
X133654908Y-75781280D01*
X133753631Y-75601704D01*
X133885353Y-75444723D01*
X134045059Y-75316316D01*
X134226663Y-75221376D01*
X134423250Y-75163517D01*
X134423320Y-75163511D01*
X134423339Y-75163505D01*
X134627325Y-75144941D01*
X134831034Y-75166351D01*
X134831034Y-75166351D01*
G37*
G36*
X139911034Y-75166351D02*
X139911052Y-75166357D01*
X139911132Y-75166365D01*
X140106891Y-75226963D01*
X140287153Y-75324430D01*
X140445049Y-75455053D01*
X140574567Y-75613858D01*
X140670773Y-75794795D01*
X140730003Y-75990973D01*
X140750000Y-76194919D01*
X140750000Y-76205154D01*
X140749927Y-76215685D01*
X140749926Y-76215692D01*
X140749898Y-76219741D01*
X140727055Y-76423388D01*
X140665092Y-76618720D01*
X140566369Y-76798296D01*
X140434647Y-76955277D01*
X140274941Y-77083684D01*
X140093337Y-77178624D01*
X139896750Y-77236483D01*
X139896680Y-77236489D01*
X139896661Y-77236495D01*
X139692675Y-77255059D01*
X139488966Y-77233649D01*
X139488948Y-77233643D01*
X139488868Y-77233635D01*
X139293109Y-77173037D01*
X139112847Y-77075570D01*
X138954951Y-76944947D01*
X138825433Y-76786142D01*
X138729227Y-76605205D01*
X138669997Y-76409027D01*
X138650000Y-76205081D01*
X138650000Y-76194846D01*
X138650073Y-76184315D01*
X138650074Y-76184308D01*
X138650102Y-76180259D01*
X138672945Y-75976612D01*
X138734908Y-75781280D01*
X138833631Y-75601704D01*
X138965353Y-75444723D01*
X139125059Y-75316316D01*
X139306663Y-75221376D01*
X139503250Y-75163517D01*
X139503320Y-75163511D01*
X139503339Y-75163505D01*
X139707325Y-75144941D01*
X139911034Y-75166351D01*
X139911034Y-75166351D01*
G37*
G36*
X132291034Y-75166351D02*
X132291052Y-75166357D01*
X132291132Y-75166365D01*
X132486891Y-75226963D01*
X132667153Y-75324430D01*
X132825049Y-75455053D01*
X132954567Y-75613858D01*
X133050773Y-75794795D01*
X133110003Y-75990973D01*
X133130000Y-76194919D01*
X133130000Y-76205154D01*
X133129927Y-76215685D01*
X133129926Y-76215692D01*
X133129898Y-76219741D01*
X133107055Y-76423388D01*
X133045092Y-76618720D01*
X132946369Y-76798296D01*
X132814647Y-76955277D01*
X132654941Y-77083684D01*
X132473337Y-77178624D01*
X132276750Y-77236483D01*
X132276680Y-77236489D01*
X132276661Y-77236495D01*
X132072675Y-77255059D01*
X131868966Y-77233649D01*
X131868948Y-77233643D01*
X131868868Y-77233635D01*
X131673109Y-77173037D01*
X131492847Y-77075570D01*
X131334951Y-76944947D01*
X131205433Y-76786142D01*
X131109227Y-76605205D01*
X131049997Y-76409027D01*
X131030000Y-76205081D01*
X131030000Y-76194846D01*
X131030073Y-76184315D01*
X131030074Y-76184308D01*
X131030102Y-76180259D01*
X131052945Y-75976612D01*
X131114908Y-75781280D01*
X131213631Y-75601704D01*
X131345353Y-75444723D01*
X131505059Y-75316316D01*
X131686663Y-75221376D01*
X131883250Y-75163517D01*
X131883320Y-75163511D01*
X131883339Y-75163505D01*
X132087325Y-75144941D01*
X132291034Y-75166351D01*
X132291034Y-75166351D01*
G37*
G36*
X119591034Y-75166351D02*
X119591052Y-75166357D01*
X119591132Y-75166365D01*
X119786891Y-75226963D01*
X119967153Y-75324430D01*
X120125049Y-75455053D01*
X120254567Y-75613858D01*
X120350773Y-75794795D01*
X120410003Y-75990973D01*
X120430000Y-76194919D01*
X120430000Y-76205154D01*
X120429927Y-76215685D01*
X120429926Y-76215692D01*
X120429898Y-76219741D01*
X120407055Y-76423388D01*
X120345092Y-76618720D01*
X120246369Y-76798296D01*
X120114647Y-76955277D01*
X119954941Y-77083684D01*
X119773337Y-77178624D01*
X119576750Y-77236483D01*
X119576680Y-77236489D01*
X119576661Y-77236495D01*
X119372675Y-77255059D01*
X119168966Y-77233649D01*
X119168948Y-77233643D01*
X119168868Y-77233635D01*
X118973109Y-77173037D01*
X118792847Y-77075570D01*
X118634951Y-76944947D01*
X118505433Y-76786142D01*
X118409227Y-76605205D01*
X118349997Y-76409027D01*
X118330000Y-76205081D01*
X118330000Y-76194846D01*
X118330073Y-76184315D01*
X118330074Y-76184308D01*
X118330102Y-76180259D01*
X118352945Y-75976612D01*
X118414908Y-75781280D01*
X118513631Y-75601704D01*
X118645353Y-75444723D01*
X118805059Y-75316316D01*
X118986663Y-75221376D01*
X119183250Y-75163517D01*
X119183320Y-75163511D01*
X119183339Y-75163505D01*
X119387325Y-75144941D01*
X119591034Y-75166351D01*
X119591034Y-75166351D01*
G37*
G36*
X122131034Y-75166351D02*
X122131052Y-75166357D01*
X122131132Y-75166365D01*
X122326891Y-75226963D01*
X122507153Y-75324430D01*
X122665049Y-75455053D01*
X122794567Y-75613858D01*
X122890773Y-75794795D01*
X122950003Y-75990973D01*
X122970000Y-76194919D01*
X122970000Y-76205154D01*
X122969927Y-76215685D01*
X122969926Y-76215692D01*
X122969898Y-76219741D01*
X122947055Y-76423388D01*
X122885092Y-76618720D01*
X122786369Y-76798296D01*
X122654647Y-76955277D01*
X122494941Y-77083684D01*
X122313337Y-77178624D01*
X122116750Y-77236483D01*
X122116680Y-77236489D01*
X122116661Y-77236495D01*
X121912675Y-77255059D01*
X121708966Y-77233649D01*
X121708948Y-77233643D01*
X121708868Y-77233635D01*
X121513109Y-77173037D01*
X121332847Y-77075570D01*
X121174951Y-76944947D01*
X121045433Y-76786142D01*
X120949227Y-76605205D01*
X120889997Y-76409027D01*
X120870000Y-76205081D01*
X120870000Y-76194846D01*
X120870073Y-76184315D01*
X120870074Y-76184308D01*
X120870102Y-76180259D01*
X120892945Y-75976612D01*
X120954908Y-75781280D01*
X121053631Y-75601704D01*
X121185353Y-75444723D01*
X121345059Y-75316316D01*
X121526663Y-75221376D01*
X121723250Y-75163517D01*
X121723320Y-75163511D01*
X121723339Y-75163505D01*
X121927325Y-75144941D01*
X122131034Y-75166351D01*
X122131034Y-75166351D01*
G37*
G36*
X124671034Y-75166351D02*
X124671052Y-75166357D01*
X124671132Y-75166365D01*
X124866891Y-75226963D01*
X125047153Y-75324430D01*
X125205049Y-75455053D01*
X125334567Y-75613858D01*
X125430773Y-75794795D01*
X125490003Y-75990973D01*
X125510000Y-76194919D01*
X125510000Y-76205154D01*
X125509927Y-76215685D01*
X125509926Y-76215692D01*
X125509898Y-76219741D01*
X125487055Y-76423388D01*
X125425092Y-76618720D01*
X125326369Y-76798296D01*
X125194647Y-76955277D01*
X125034941Y-77083684D01*
X124853337Y-77178624D01*
X124656750Y-77236483D01*
X124656680Y-77236489D01*
X124656661Y-77236495D01*
X124452675Y-77255059D01*
X124248966Y-77233649D01*
X124248948Y-77233643D01*
X124248868Y-77233635D01*
X124053109Y-77173037D01*
X123872847Y-77075570D01*
X123714951Y-76944947D01*
X123585433Y-76786142D01*
X123489227Y-76605205D01*
X123429997Y-76409027D01*
X123410000Y-76205081D01*
X123410000Y-76194846D01*
X123410073Y-76184315D01*
X123410074Y-76184308D01*
X123410102Y-76180259D01*
X123432945Y-75976612D01*
X123494908Y-75781280D01*
X123593631Y-75601704D01*
X123725353Y-75444723D01*
X123885059Y-75316316D01*
X124066663Y-75221376D01*
X124263250Y-75163517D01*
X124263320Y-75163511D01*
X124263339Y-75163505D01*
X124467325Y-75144941D01*
X124671034Y-75166351D01*
X124671034Y-75166351D01*
G37*
G36*
X127211034Y-75166351D02*
X127211052Y-75166357D01*
X127211132Y-75166365D01*
X127406891Y-75226963D01*
X127587153Y-75324430D01*
X127745049Y-75455053D01*
X127874567Y-75613858D01*
X127970773Y-75794795D01*
X128030003Y-75990973D01*
X128050000Y-76194919D01*
X128050000Y-76205154D01*
X128049927Y-76215685D01*
X128049926Y-76215692D01*
X128049898Y-76219741D01*
X128027055Y-76423388D01*
X127965092Y-76618720D01*
X127866369Y-76798296D01*
X127734647Y-76955277D01*
X127574941Y-77083684D01*
X127393337Y-77178624D01*
X127196750Y-77236483D01*
X127196680Y-77236489D01*
X127196661Y-77236495D01*
X126992675Y-77255059D01*
X126788966Y-77233649D01*
X126788948Y-77233643D01*
X126788868Y-77233635D01*
X126593109Y-77173037D01*
X126412847Y-77075570D01*
X126254951Y-76944947D01*
X126125433Y-76786142D01*
X126029227Y-76605205D01*
X125969997Y-76409027D01*
X125950000Y-76205081D01*
X125950000Y-76194846D01*
X125950073Y-76184315D01*
X125950074Y-76184308D01*
X125950102Y-76180259D01*
X125972945Y-75976612D01*
X126034908Y-75781280D01*
X126133631Y-75601704D01*
X126265353Y-75444723D01*
X126425059Y-75316316D01*
X126606663Y-75221376D01*
X126803250Y-75163517D01*
X126803320Y-75163511D01*
X126803339Y-75163505D01*
X127007325Y-75144941D01*
X127211034Y-75166351D01*
X127211034Y-75166351D01*
G37*
G36*
X129751034Y-75166351D02*
X129751052Y-75166357D01*
X129751132Y-75166365D01*
X129946891Y-75226963D01*
X130127153Y-75324430D01*
X130285049Y-75455053D01*
X130414567Y-75613858D01*
X130510773Y-75794795D01*
X130570003Y-75990973D01*
X130590000Y-76194919D01*
X130590000Y-76205154D01*
X130589927Y-76215685D01*
X130589926Y-76215692D01*
X130589898Y-76219741D01*
X130567055Y-76423388D01*
X130505092Y-76618720D01*
X130406369Y-76798296D01*
X130274647Y-76955277D01*
X130114941Y-77083684D01*
X129933337Y-77178624D01*
X129736750Y-77236483D01*
X129736680Y-77236489D01*
X129736661Y-77236495D01*
X129532675Y-77255059D01*
X129328966Y-77233649D01*
X129328948Y-77233643D01*
X129328868Y-77233635D01*
X129133109Y-77173037D01*
X128952847Y-77075570D01*
X128794951Y-76944947D01*
X128665433Y-76786142D01*
X128569227Y-76605205D01*
X128509997Y-76409027D01*
X128490000Y-76205081D01*
X128490000Y-76194846D01*
X128490073Y-76184315D01*
X128490074Y-76184308D01*
X128490102Y-76180259D01*
X128512945Y-75976612D01*
X128574908Y-75781280D01*
X128673631Y-75601704D01*
X128805353Y-75444723D01*
X128965059Y-75316316D01*
X129146663Y-75221376D01*
X129343250Y-75163517D01*
X129343320Y-75163511D01*
X129343339Y-75163505D01*
X129547325Y-75144941D01*
X129751034Y-75166351D01*
X129751034Y-75166351D01*
G37*
G36*
X137371034Y-72626351D02*
X137371052Y-72626357D01*
X137371132Y-72626365D01*
X137566891Y-72686963D01*
X137747153Y-72784430D01*
X137905049Y-72915053D01*
X138034567Y-73073858D01*
X138130773Y-73254795D01*
X138190003Y-73450973D01*
X138210000Y-73654919D01*
X138210000Y-73665154D01*
X138209927Y-73675685D01*
X138209926Y-73675692D01*
X138209898Y-73679741D01*
X138187055Y-73883388D01*
X138125092Y-74078720D01*
X138026369Y-74258296D01*
X137894647Y-74415277D01*
X137734941Y-74543684D01*
X137553337Y-74638624D01*
X137356750Y-74696483D01*
X137356680Y-74696489D01*
X137356661Y-74696495D01*
X137152675Y-74715059D01*
X136948966Y-74693649D01*
X136948948Y-74693643D01*
X136948868Y-74693635D01*
X136753109Y-74633037D01*
X136572847Y-74535570D01*
X136414951Y-74404947D01*
X136285433Y-74246142D01*
X136189227Y-74065205D01*
X136129997Y-73869027D01*
X136110000Y-73665081D01*
X136110000Y-73654846D01*
X136110073Y-73644315D01*
X136110074Y-73644308D01*
X136110102Y-73640259D01*
X136132945Y-73436612D01*
X136194908Y-73241280D01*
X136293631Y-73061704D01*
X136425353Y-72904723D01*
X136585059Y-72776316D01*
X136766663Y-72681376D01*
X136963250Y-72623517D01*
X136963320Y-72623511D01*
X136963339Y-72623505D01*
X137167325Y-72604941D01*
X137371034Y-72626351D01*
X137371034Y-72626351D01*
G37*
G36*
X139911034Y-72626351D02*
X139911052Y-72626357D01*
X139911132Y-72626365D01*
X140106891Y-72686963D01*
X140287153Y-72784430D01*
X140445049Y-72915053D01*
X140574567Y-73073858D01*
X140670773Y-73254795D01*
X140730003Y-73450973D01*
X140750000Y-73654919D01*
X140750000Y-73665154D01*
X140749927Y-73675685D01*
X140749926Y-73675692D01*
X140749898Y-73679741D01*
X140727055Y-73883388D01*
X140665092Y-74078720D01*
X140566369Y-74258296D01*
X140434647Y-74415277D01*
X140274941Y-74543684D01*
X140093337Y-74638624D01*
X139896750Y-74696483D01*
X139896680Y-74696489D01*
X139896661Y-74696495D01*
X139692675Y-74715059D01*
X139488966Y-74693649D01*
X139488948Y-74693643D01*
X139488868Y-74693635D01*
X139293109Y-74633037D01*
X139112847Y-74535570D01*
X138954951Y-74404947D01*
X138825433Y-74246142D01*
X138729227Y-74065205D01*
X138669997Y-73869027D01*
X138650000Y-73665081D01*
X138650000Y-73654846D01*
X138650073Y-73644315D01*
X138650074Y-73644308D01*
X138650102Y-73640259D01*
X138672945Y-73436612D01*
X138734908Y-73241280D01*
X138833631Y-73061704D01*
X138965353Y-72904723D01*
X139125059Y-72776316D01*
X139306663Y-72681376D01*
X139503250Y-72623517D01*
X139503320Y-72623511D01*
X139503339Y-72623505D01*
X139707325Y-72604941D01*
X139911034Y-72626351D01*
X139911034Y-72626351D01*
G37*
G36*
X134831034Y-72626351D02*
X134831052Y-72626357D01*
X134831132Y-72626365D01*
X135026891Y-72686963D01*
X135207153Y-72784430D01*
X135365049Y-72915053D01*
X135494567Y-73073858D01*
X135590773Y-73254795D01*
X135650003Y-73450973D01*
X135670000Y-73654919D01*
X135670000Y-73665154D01*
X135669927Y-73675685D01*
X135669926Y-73675692D01*
X135669898Y-73679741D01*
X135647055Y-73883388D01*
X135585092Y-74078720D01*
X135486369Y-74258296D01*
X135354647Y-74415277D01*
X135194941Y-74543684D01*
X135013337Y-74638624D01*
X134816750Y-74696483D01*
X134816680Y-74696489D01*
X134816661Y-74696495D01*
X134612675Y-74715059D01*
X134408966Y-74693649D01*
X134408948Y-74693643D01*
X134408868Y-74693635D01*
X134213109Y-74633037D01*
X134032847Y-74535570D01*
X133874951Y-74404947D01*
X133745433Y-74246142D01*
X133649227Y-74065205D01*
X133589997Y-73869027D01*
X133570000Y-73665081D01*
X133570000Y-73654846D01*
X133570073Y-73644315D01*
X133570074Y-73644308D01*
X133570102Y-73640259D01*
X133592945Y-73436612D01*
X133654908Y-73241280D01*
X133753631Y-73061704D01*
X133885353Y-72904723D01*
X134045059Y-72776316D01*
X134226663Y-72681376D01*
X134423250Y-72623517D01*
X134423320Y-72623511D01*
X134423339Y-72623505D01*
X134627325Y-72604941D01*
X134831034Y-72626351D01*
X134831034Y-72626351D01*
G37*
G36*
X132291034Y-72626351D02*
X132291052Y-72626357D01*
X132291132Y-72626365D01*
X132486891Y-72686963D01*
X132667153Y-72784430D01*
X132825049Y-72915053D01*
X132954567Y-73073858D01*
X133050773Y-73254795D01*
X133110003Y-73450973D01*
X133130000Y-73654919D01*
X133130000Y-73665154D01*
X133129927Y-73675685D01*
X133129926Y-73675692D01*
X133129898Y-73679741D01*
X133107055Y-73883388D01*
X133045092Y-74078720D01*
X132946369Y-74258296D01*
X132814647Y-74415277D01*
X132654941Y-74543684D01*
X132473337Y-74638624D01*
X132276750Y-74696483D01*
X132276680Y-74696489D01*
X132276661Y-74696495D01*
X132072675Y-74715059D01*
X131868966Y-74693649D01*
X131868948Y-74693643D01*
X131868868Y-74693635D01*
X131673109Y-74633037D01*
X131492847Y-74535570D01*
X131334951Y-74404947D01*
X131205433Y-74246142D01*
X131109227Y-74065205D01*
X131049997Y-73869027D01*
X131030000Y-73665081D01*
X131030000Y-73654846D01*
X131030073Y-73644315D01*
X131030074Y-73644308D01*
X131030102Y-73640259D01*
X131052945Y-73436612D01*
X131114908Y-73241280D01*
X131213631Y-73061704D01*
X131345353Y-72904723D01*
X131505059Y-72776316D01*
X131686663Y-72681376D01*
X131883250Y-72623517D01*
X131883320Y-72623511D01*
X131883339Y-72623505D01*
X132087325Y-72604941D01*
X132291034Y-72626351D01*
X132291034Y-72626351D01*
G37*
G36*
X129751034Y-72626351D02*
X129751052Y-72626357D01*
X129751132Y-72626365D01*
X129946891Y-72686963D01*
X130127153Y-72784430D01*
X130285049Y-72915053D01*
X130414567Y-73073858D01*
X130510773Y-73254795D01*
X130570003Y-73450973D01*
X130590000Y-73654919D01*
X130590000Y-73665154D01*
X130589927Y-73675685D01*
X130589926Y-73675692D01*
X130589898Y-73679741D01*
X130567055Y-73883388D01*
X130505092Y-74078720D01*
X130406369Y-74258296D01*
X130274647Y-74415277D01*
X130114941Y-74543684D01*
X129933337Y-74638624D01*
X129736750Y-74696483D01*
X129736680Y-74696489D01*
X129736661Y-74696495D01*
X129532675Y-74715059D01*
X129328966Y-74693649D01*
X129328948Y-74693643D01*
X129328868Y-74693635D01*
X129133109Y-74633037D01*
X128952847Y-74535570D01*
X128794951Y-74404947D01*
X128665433Y-74246142D01*
X128569227Y-74065205D01*
X128509997Y-73869027D01*
X128490000Y-73665081D01*
X128490000Y-73654846D01*
X128490073Y-73644315D01*
X128490074Y-73644308D01*
X128490102Y-73640259D01*
X128512945Y-73436612D01*
X128574908Y-73241280D01*
X128673631Y-73061704D01*
X128805353Y-72904723D01*
X128965059Y-72776316D01*
X129146663Y-72681376D01*
X129343250Y-72623517D01*
X129343320Y-72623511D01*
X129343339Y-72623505D01*
X129547325Y-72604941D01*
X129751034Y-72626351D01*
X129751034Y-72626351D01*
G37*
G36*
X127211034Y-72626351D02*
X127211052Y-72626357D01*
X127211132Y-72626365D01*
X127406891Y-72686963D01*
X127587153Y-72784430D01*
X127745049Y-72915053D01*
X127874567Y-73073858D01*
X127970773Y-73254795D01*
X128030003Y-73450973D01*
X128050000Y-73654919D01*
X128050000Y-73665154D01*
X128049927Y-73675685D01*
X128049926Y-73675692D01*
X128049898Y-73679741D01*
X128027055Y-73883388D01*
X127965092Y-74078720D01*
X127866369Y-74258296D01*
X127734647Y-74415277D01*
X127574941Y-74543684D01*
X127393337Y-74638624D01*
X127196750Y-74696483D01*
X127196680Y-74696489D01*
X127196661Y-74696495D01*
X126992675Y-74715059D01*
X126788966Y-74693649D01*
X126788948Y-74693643D01*
X126788868Y-74693635D01*
X126593109Y-74633037D01*
X126412847Y-74535570D01*
X126254951Y-74404947D01*
X126125433Y-74246142D01*
X126029227Y-74065205D01*
X125969997Y-73869027D01*
X125950000Y-73665081D01*
X125950000Y-73654846D01*
X125950073Y-73644315D01*
X125950074Y-73644308D01*
X125950102Y-73640259D01*
X125972945Y-73436612D01*
X126034908Y-73241280D01*
X126133631Y-73061704D01*
X126265353Y-72904723D01*
X126425059Y-72776316D01*
X126606663Y-72681376D01*
X126803250Y-72623517D01*
X126803320Y-72623511D01*
X126803339Y-72623505D01*
X127007325Y-72604941D01*
X127211034Y-72626351D01*
X127211034Y-72626351D01*
G37*
G36*
X124671034Y-72626351D02*
X124671052Y-72626357D01*
X124671132Y-72626365D01*
X124866891Y-72686963D01*
X125047153Y-72784430D01*
X125205049Y-72915053D01*
X125334567Y-73073858D01*
X125430773Y-73254795D01*
X125490003Y-73450973D01*
X125510000Y-73654919D01*
X125510000Y-73665154D01*
X125509927Y-73675685D01*
X125509926Y-73675692D01*
X125509898Y-73679741D01*
X125487055Y-73883388D01*
X125425092Y-74078720D01*
X125326369Y-74258296D01*
X125194647Y-74415277D01*
X125034941Y-74543684D01*
X124853337Y-74638624D01*
X124656750Y-74696483D01*
X124656680Y-74696489D01*
X124656661Y-74696495D01*
X124452675Y-74715059D01*
X124248966Y-74693649D01*
X124248948Y-74693643D01*
X124248868Y-74693635D01*
X124053109Y-74633037D01*
X123872847Y-74535570D01*
X123714951Y-74404947D01*
X123585433Y-74246142D01*
X123489227Y-74065205D01*
X123429997Y-73869027D01*
X123410000Y-73665081D01*
X123410000Y-73654846D01*
X123410073Y-73644315D01*
X123410074Y-73644308D01*
X123410102Y-73640259D01*
X123432945Y-73436612D01*
X123494908Y-73241280D01*
X123593631Y-73061704D01*
X123725353Y-72904723D01*
X123885059Y-72776316D01*
X124066663Y-72681376D01*
X124263250Y-72623517D01*
X124263320Y-72623511D01*
X124263339Y-72623505D01*
X124467325Y-72604941D01*
X124671034Y-72626351D01*
X124671034Y-72626351D01*
G37*
G36*
X122131034Y-72626351D02*
X122131052Y-72626357D01*
X122131132Y-72626365D01*
X122326891Y-72686963D01*
X122507153Y-72784430D01*
X122665049Y-72915053D01*
X122794567Y-73073858D01*
X122890773Y-73254795D01*
X122950003Y-73450973D01*
X122970000Y-73654919D01*
X122970000Y-73665154D01*
X122969927Y-73675685D01*
X122969926Y-73675692D01*
X122969898Y-73679741D01*
X122947055Y-73883388D01*
X122885092Y-74078720D01*
X122786369Y-74258296D01*
X122654647Y-74415277D01*
X122494941Y-74543684D01*
X122313337Y-74638624D01*
X122116750Y-74696483D01*
X122116680Y-74696489D01*
X122116661Y-74696495D01*
X121912675Y-74715059D01*
X121708966Y-74693649D01*
X121708948Y-74693643D01*
X121708868Y-74693635D01*
X121513109Y-74633037D01*
X121332847Y-74535570D01*
X121174951Y-74404947D01*
X121045433Y-74246142D01*
X120949227Y-74065205D01*
X120889997Y-73869027D01*
X120870000Y-73665081D01*
X120870000Y-73654846D01*
X120870073Y-73644315D01*
X120870074Y-73644308D01*
X120870102Y-73640259D01*
X120892945Y-73436612D01*
X120954908Y-73241280D01*
X121053631Y-73061704D01*
X121185353Y-72904723D01*
X121345059Y-72776316D01*
X121526663Y-72681376D01*
X121723250Y-72623517D01*
X121723320Y-72623511D01*
X121723339Y-72623505D01*
X121927325Y-72604941D01*
X122131034Y-72626351D01*
X122131034Y-72626351D01*
G37*
G36*
X119591034Y-72626351D02*
X119591052Y-72626357D01*
X119591132Y-72626365D01*
X119786891Y-72686963D01*
X119967153Y-72784430D01*
X120125049Y-72915053D01*
X120254567Y-73073858D01*
X120350773Y-73254795D01*
X120410003Y-73450973D01*
X120430000Y-73654919D01*
X120430000Y-73665154D01*
X120429927Y-73675685D01*
X120429926Y-73675692D01*
X120429898Y-73679741D01*
X120407055Y-73883388D01*
X120345092Y-74078720D01*
X120246369Y-74258296D01*
X120114647Y-74415277D01*
X119954941Y-74543684D01*
X119773337Y-74638624D01*
X119576750Y-74696483D01*
X119576680Y-74696489D01*
X119576661Y-74696495D01*
X119372675Y-74715059D01*
X119168966Y-74693649D01*
X119168948Y-74693643D01*
X119168868Y-74693635D01*
X118973109Y-74633037D01*
X118792847Y-74535570D01*
X118634951Y-74404947D01*
X118505433Y-74246142D01*
X118409227Y-74065205D01*
X118349997Y-73869027D01*
X118330000Y-73665081D01*
X118330000Y-73654846D01*
X118330073Y-73644315D01*
X118330074Y-73644308D01*
X118330102Y-73640259D01*
X118352945Y-73436612D01*
X118414908Y-73241280D01*
X118513631Y-73061704D01*
X118645353Y-72904723D01*
X118805059Y-72776316D01*
X118986663Y-72681376D01*
X119183250Y-72623517D01*
X119183320Y-72623511D01*
X119183339Y-72623505D01*
X119387325Y-72604941D01*
X119591034Y-72626351D01*
X119591034Y-72626351D01*
G37*
G36*
X143290000Y-74710000D02*
X141190000Y-74710000D01*
X141190000Y-72610000D01*
X143290000Y-72610000D01*
X143290000Y-74710000D01*
X143290000Y-74710000D01*
G37*
M02*
