G04 #@! TF.FileFunction,Legend,Bot*
%FSLAX46Y46*%
G04 Gerber Fmt 4.6, Leading zero omitted, Abs format (unit mm)*
G04 Created by KiCad (PCBNEW 4.0.4-stable) date 11/01/17 12:47:16*
%MOMM*%
%LPD*%
G01*
G04 APERTURE LIST*
%ADD10C,0.100000*%
%ADD11C,0.120000*%
%ADD12C,0.150000*%
G04 APERTURE END LIST*
D10*
D11*
X156560000Y-78140000D02*
X155860000Y-78140000D01*
X155860000Y-79340000D02*
X156560000Y-79340000D01*
D12*
X122195000Y-90330000D02*
X121445000Y-91080000D01*
X121445000Y-109580000D02*
X121445000Y-110330000D01*
X121445000Y-110330000D02*
X122195000Y-110330000D01*
X141445000Y-91080000D02*
X141445000Y-90330000D01*
X141445000Y-90330000D02*
X140695000Y-90330000D01*
X141445000Y-109580000D02*
X141445000Y-110330000D01*
X141445000Y-110330000D02*
X140695000Y-110330000D01*
D11*
X146650000Y-83575000D02*
X145450000Y-83575000D01*
X145450000Y-85335000D02*
X146650000Y-85335000D01*
X146650000Y-81035000D02*
X145450000Y-81035000D01*
X145450000Y-82795000D02*
X146650000Y-82795000D01*
X146650000Y-78495000D02*
X145450000Y-78495000D01*
X145450000Y-80255000D02*
X146650000Y-80255000D01*
X117230000Y-104810000D02*
X117230000Y-106010000D01*
X118990000Y-106010000D02*
X118990000Y-104810000D01*
X117230000Y-98460000D02*
X117230000Y-99660000D01*
X118990000Y-99660000D02*
X118990000Y-98460000D01*
X118990000Y-93310000D02*
X118990000Y-92110000D01*
X117230000Y-92110000D02*
X117230000Y-93310000D01*
X154905000Y-111515000D02*
X153705000Y-111515000D01*
X153705000Y-113275000D02*
X154905000Y-113275000D01*
X149825000Y-111515000D02*
X148625000Y-111515000D01*
X148625000Y-113275000D02*
X149825000Y-113275000D01*
X154905000Y-108975000D02*
X153705000Y-108975000D01*
X153705000Y-110735000D02*
X154905000Y-110735000D01*
X149825000Y-108975000D02*
X148625000Y-108975000D01*
X148625000Y-110735000D02*
X149825000Y-110735000D01*
X154905000Y-106435000D02*
X153705000Y-106435000D01*
X153705000Y-108195000D02*
X154905000Y-108195000D01*
X158995000Y-109185000D02*
X158995000Y-107985000D01*
X157235000Y-107985000D02*
X157235000Y-109185000D01*
X149825000Y-106435000D02*
X148625000Y-106435000D01*
X148625000Y-108195000D02*
X149825000Y-108195000D01*
X154905000Y-103895000D02*
X153705000Y-103895000D01*
X153705000Y-105655000D02*
X154905000Y-105655000D01*
X149825000Y-103895000D02*
X148625000Y-103895000D01*
X148625000Y-105655000D02*
X149825000Y-105655000D01*
X128235000Y-81670000D02*
X127035000Y-81670000D01*
X127035000Y-83430000D02*
X128235000Y-83430000D01*
X154905000Y-97545000D02*
X153705000Y-97545000D01*
X153705000Y-99305000D02*
X154905000Y-99305000D01*
X149825000Y-97545000D02*
X148625000Y-97545000D01*
X148625000Y-99305000D02*
X149825000Y-99305000D01*
X119034000Y-87494000D02*
X120234000Y-87494000D01*
X120234000Y-85734000D02*
X119034000Y-85734000D01*
X127035000Y-80255000D02*
X128235000Y-80255000D01*
X128235000Y-78495000D02*
X127035000Y-78495000D01*
X127035000Y-86605000D02*
X128235000Y-86605000D01*
X128235000Y-84845000D02*
X127035000Y-84845000D01*
X158995000Y-100295000D02*
X158995000Y-99095000D01*
X157235000Y-99095000D02*
X157235000Y-100295000D01*
X154905000Y-95005000D02*
X153705000Y-95005000D01*
X153705000Y-96765000D02*
X154905000Y-96765000D01*
X149825000Y-95005000D02*
X148625000Y-95005000D01*
X148625000Y-96765000D02*
X149825000Y-96765000D01*
X154905000Y-92465000D02*
X153705000Y-92465000D01*
X153705000Y-94225000D02*
X154905000Y-94225000D01*
X149825000Y-92465000D02*
X148625000Y-92465000D01*
X148625000Y-94225000D02*
X149825000Y-94225000D01*
X154905000Y-89925000D02*
X153705000Y-89925000D01*
X153705000Y-91685000D02*
X154905000Y-91685000D01*
X158995000Y-92675000D02*
X158995000Y-91475000D01*
X157235000Y-91475000D02*
X157235000Y-92675000D01*
X149825000Y-89925000D02*
X148625000Y-89925000D01*
X148625000Y-91685000D02*
X149825000Y-91685000D01*
X122660000Y-116995000D02*
X122660000Y-117020000D01*
X122660000Y-117020000D02*
X126260000Y-117020000D01*
X126260000Y-117020000D02*
X126260000Y-116995000D01*
X121935000Y-114145000D02*
X122660000Y-114145000D01*
X122660000Y-114145000D02*
X122660000Y-114120000D01*
X122660000Y-114120000D02*
X126260000Y-114120000D01*
X126260000Y-114120000D02*
X126260000Y-114145000D01*
X121935000Y-115445000D02*
X122660000Y-115445000D01*
X122660000Y-115445000D02*
X122660000Y-115695000D01*
X126260000Y-115695000D02*
X126260000Y-115445000D01*
D12*
X155745000Y-80610000D02*
X155745000Y-80660000D01*
X151595000Y-80610000D02*
X151595000Y-80755000D01*
X151595000Y-85760000D02*
X151595000Y-85615000D01*
X155745000Y-85760000D02*
X155745000Y-85615000D01*
X155745000Y-80610000D02*
X151595000Y-80610000D01*
X155745000Y-85760000D02*
X151595000Y-85760000D01*
X155745000Y-80660000D02*
X157145000Y-80660000D01*
X156376666Y-77573143D02*
X156424285Y-77620762D01*
X156567142Y-77668381D01*
X156662380Y-77668381D01*
X156805238Y-77620762D01*
X156900476Y-77525524D01*
X156948095Y-77430286D01*
X156995714Y-77239810D01*
X156995714Y-77096952D01*
X156948095Y-76906476D01*
X156900476Y-76811238D01*
X156805238Y-76716000D01*
X156662380Y-76668381D01*
X156567142Y-76668381D01*
X156424285Y-76716000D01*
X156376666Y-76763619D01*
X156043333Y-76668381D02*
X155376666Y-76668381D01*
X155805238Y-77668381D01*
X142120857Y-84780381D02*
X142454191Y-84304190D01*
X142692286Y-84780381D02*
X142692286Y-83780381D01*
X142311333Y-83780381D01*
X142216095Y-83828000D01*
X142168476Y-83875619D01*
X142120857Y-83970857D01*
X142120857Y-84113714D01*
X142168476Y-84208952D01*
X142216095Y-84256571D01*
X142311333Y-84304190D01*
X142692286Y-84304190D01*
X141739905Y-83875619D02*
X141692286Y-83828000D01*
X141597048Y-83780381D01*
X141358952Y-83780381D01*
X141263714Y-83828000D01*
X141216095Y-83875619D01*
X141168476Y-83970857D01*
X141168476Y-84066095D01*
X141216095Y-84208952D01*
X141787524Y-84780381D01*
X141168476Y-84780381D01*
X140692286Y-84780381D02*
X140501810Y-84780381D01*
X140406571Y-84732762D01*
X140358952Y-84685143D01*
X140263714Y-84542286D01*
X140216095Y-84351810D01*
X140216095Y-83970857D01*
X140263714Y-83875619D01*
X140311333Y-83828000D01*
X140406571Y-83780381D01*
X140597048Y-83780381D01*
X140692286Y-83828000D01*
X140739905Y-83875619D01*
X140787524Y-83970857D01*
X140787524Y-84208952D01*
X140739905Y-84304190D01*
X140692286Y-84351810D01*
X140597048Y-84399429D01*
X140406571Y-84399429D01*
X140311333Y-84351810D01*
X140263714Y-84304190D01*
X140216095Y-84208952D01*
X142120857Y-82240381D02*
X142454191Y-81764190D01*
X142692286Y-82240381D02*
X142692286Y-81240381D01*
X142311333Y-81240381D01*
X142216095Y-81288000D01*
X142168476Y-81335619D01*
X142120857Y-81430857D01*
X142120857Y-81573714D01*
X142168476Y-81668952D01*
X142216095Y-81716571D01*
X142311333Y-81764190D01*
X142692286Y-81764190D01*
X141739905Y-81335619D02*
X141692286Y-81288000D01*
X141597048Y-81240381D01*
X141358952Y-81240381D01*
X141263714Y-81288000D01*
X141216095Y-81335619D01*
X141168476Y-81430857D01*
X141168476Y-81526095D01*
X141216095Y-81668952D01*
X141787524Y-82240381D01*
X141168476Y-82240381D01*
X140597048Y-81668952D02*
X140692286Y-81621333D01*
X140739905Y-81573714D01*
X140787524Y-81478476D01*
X140787524Y-81430857D01*
X140739905Y-81335619D01*
X140692286Y-81288000D01*
X140597048Y-81240381D01*
X140406571Y-81240381D01*
X140311333Y-81288000D01*
X140263714Y-81335619D01*
X140216095Y-81430857D01*
X140216095Y-81478476D01*
X140263714Y-81573714D01*
X140311333Y-81621333D01*
X140406571Y-81668952D01*
X140597048Y-81668952D01*
X140692286Y-81716571D01*
X140739905Y-81764190D01*
X140787524Y-81859429D01*
X140787524Y-82049905D01*
X140739905Y-82145143D01*
X140692286Y-82192762D01*
X140597048Y-82240381D01*
X140406571Y-82240381D01*
X140311333Y-82192762D01*
X140263714Y-82145143D01*
X140216095Y-82049905D01*
X140216095Y-81859429D01*
X140263714Y-81764190D01*
X140311333Y-81716571D01*
X140406571Y-81668952D01*
X142120857Y-79700381D02*
X142454191Y-79224190D01*
X142692286Y-79700381D02*
X142692286Y-78700381D01*
X142311333Y-78700381D01*
X142216095Y-78748000D01*
X142168476Y-78795619D01*
X142120857Y-78890857D01*
X142120857Y-79033714D01*
X142168476Y-79128952D01*
X142216095Y-79176571D01*
X142311333Y-79224190D01*
X142692286Y-79224190D01*
X141739905Y-78795619D02*
X141692286Y-78748000D01*
X141597048Y-78700381D01*
X141358952Y-78700381D01*
X141263714Y-78748000D01*
X141216095Y-78795619D01*
X141168476Y-78890857D01*
X141168476Y-78986095D01*
X141216095Y-79128952D01*
X141787524Y-79700381D01*
X141168476Y-79700381D01*
X140835143Y-78700381D02*
X140168476Y-78700381D01*
X140597048Y-79700381D01*
X119260857Y-114498381D02*
X119594191Y-114022190D01*
X119832286Y-114498381D02*
X119832286Y-113498381D01*
X119451333Y-113498381D01*
X119356095Y-113546000D01*
X119308476Y-113593619D01*
X119260857Y-113688857D01*
X119260857Y-113831714D01*
X119308476Y-113926952D01*
X119356095Y-113974571D01*
X119451333Y-114022190D01*
X119832286Y-114022190D01*
X118879905Y-113593619D02*
X118832286Y-113546000D01*
X118737048Y-113498381D01*
X118498952Y-113498381D01*
X118403714Y-113546000D01*
X118356095Y-113593619D01*
X118308476Y-113688857D01*
X118308476Y-113784095D01*
X118356095Y-113926952D01*
X118927524Y-114498381D01*
X118308476Y-114498381D01*
X117451333Y-113498381D02*
X117641810Y-113498381D01*
X117737048Y-113546000D01*
X117784667Y-113593619D01*
X117879905Y-113736476D01*
X117927524Y-113926952D01*
X117927524Y-114307905D01*
X117879905Y-114403143D01*
X117832286Y-114450762D01*
X117737048Y-114498381D01*
X117546571Y-114498381D01*
X117451333Y-114450762D01*
X117403714Y-114403143D01*
X117356095Y-114307905D01*
X117356095Y-114069810D01*
X117403714Y-113974571D01*
X117451333Y-113926952D01*
X117546571Y-113879333D01*
X117737048Y-113879333D01*
X117832286Y-113926952D01*
X117879905Y-113974571D01*
X117927524Y-114069810D01*
X119260857Y-112974381D02*
X119594191Y-112498190D01*
X119832286Y-112974381D02*
X119832286Y-111974381D01*
X119451333Y-111974381D01*
X119356095Y-112022000D01*
X119308476Y-112069619D01*
X119260857Y-112164857D01*
X119260857Y-112307714D01*
X119308476Y-112402952D01*
X119356095Y-112450571D01*
X119451333Y-112498190D01*
X119832286Y-112498190D01*
X118879905Y-112069619D02*
X118832286Y-112022000D01*
X118737048Y-111974381D01*
X118498952Y-111974381D01*
X118403714Y-112022000D01*
X118356095Y-112069619D01*
X118308476Y-112164857D01*
X118308476Y-112260095D01*
X118356095Y-112402952D01*
X118927524Y-112974381D01*
X118308476Y-112974381D01*
X117403714Y-111974381D02*
X117879905Y-111974381D01*
X117927524Y-112450571D01*
X117879905Y-112402952D01*
X117784667Y-112355333D01*
X117546571Y-112355333D01*
X117451333Y-112402952D01*
X117403714Y-112450571D01*
X117356095Y-112545810D01*
X117356095Y-112783905D01*
X117403714Y-112879143D01*
X117451333Y-112926762D01*
X117546571Y-112974381D01*
X117784667Y-112974381D01*
X117879905Y-112926762D01*
X117927524Y-112879143D01*
X119260857Y-111450381D02*
X119594191Y-110974190D01*
X119832286Y-111450381D02*
X119832286Y-110450381D01*
X119451333Y-110450381D01*
X119356095Y-110498000D01*
X119308476Y-110545619D01*
X119260857Y-110640857D01*
X119260857Y-110783714D01*
X119308476Y-110878952D01*
X119356095Y-110926571D01*
X119451333Y-110974190D01*
X119832286Y-110974190D01*
X118879905Y-110545619D02*
X118832286Y-110498000D01*
X118737048Y-110450381D01*
X118498952Y-110450381D01*
X118403714Y-110498000D01*
X118356095Y-110545619D01*
X118308476Y-110640857D01*
X118308476Y-110736095D01*
X118356095Y-110878952D01*
X118927524Y-111450381D01*
X118308476Y-111450381D01*
X117451333Y-110783714D02*
X117451333Y-111450381D01*
X117689429Y-110402762D02*
X117927524Y-111117048D01*
X117308476Y-111117048D01*
X158884857Y-120848381D02*
X159218191Y-120372190D01*
X159456286Y-120848381D02*
X159456286Y-119848381D01*
X159075333Y-119848381D01*
X158980095Y-119896000D01*
X158932476Y-119943619D01*
X158884857Y-120038857D01*
X158884857Y-120181714D01*
X158932476Y-120276952D01*
X158980095Y-120324571D01*
X159075333Y-120372190D01*
X159456286Y-120372190D01*
X158503905Y-119943619D02*
X158456286Y-119896000D01*
X158361048Y-119848381D01*
X158122952Y-119848381D01*
X158027714Y-119896000D01*
X157980095Y-119943619D01*
X157932476Y-120038857D01*
X157932476Y-120134095D01*
X157980095Y-120276952D01*
X158551524Y-120848381D01*
X157932476Y-120848381D01*
X157599143Y-119848381D02*
X156980095Y-119848381D01*
X157313429Y-120229333D01*
X157170571Y-120229333D01*
X157075333Y-120276952D01*
X157027714Y-120324571D01*
X156980095Y-120419810D01*
X156980095Y-120657905D01*
X157027714Y-120753143D01*
X157075333Y-120800762D01*
X157170571Y-120848381D01*
X157456286Y-120848381D01*
X157551524Y-120800762D01*
X157599143Y-120753143D01*
X145676857Y-112974381D02*
X146010191Y-112498190D01*
X146248286Y-112974381D02*
X146248286Y-111974381D01*
X145867333Y-111974381D01*
X145772095Y-112022000D01*
X145724476Y-112069619D01*
X145676857Y-112164857D01*
X145676857Y-112307714D01*
X145724476Y-112402952D01*
X145772095Y-112450571D01*
X145867333Y-112498190D01*
X146248286Y-112498190D01*
X145295905Y-112069619D02*
X145248286Y-112022000D01*
X145153048Y-111974381D01*
X144914952Y-111974381D01*
X144819714Y-112022000D01*
X144772095Y-112069619D01*
X144724476Y-112164857D01*
X144724476Y-112260095D01*
X144772095Y-112402952D01*
X145343524Y-112974381D01*
X144724476Y-112974381D01*
X144343524Y-112069619D02*
X144295905Y-112022000D01*
X144200667Y-111974381D01*
X143962571Y-111974381D01*
X143867333Y-112022000D01*
X143819714Y-112069619D01*
X143772095Y-112164857D01*
X143772095Y-112260095D01*
X143819714Y-112402952D01*
X144391143Y-112974381D01*
X143772095Y-112974381D01*
X158884857Y-119324381D02*
X159218191Y-118848190D01*
X159456286Y-119324381D02*
X159456286Y-118324381D01*
X159075333Y-118324381D01*
X158980095Y-118372000D01*
X158932476Y-118419619D01*
X158884857Y-118514857D01*
X158884857Y-118657714D01*
X158932476Y-118752952D01*
X158980095Y-118800571D01*
X159075333Y-118848190D01*
X159456286Y-118848190D01*
X158503905Y-118419619D02*
X158456286Y-118372000D01*
X158361048Y-118324381D01*
X158122952Y-118324381D01*
X158027714Y-118372000D01*
X157980095Y-118419619D01*
X157932476Y-118514857D01*
X157932476Y-118610095D01*
X157980095Y-118752952D01*
X158551524Y-119324381D01*
X157932476Y-119324381D01*
X156980095Y-119324381D02*
X157551524Y-119324381D01*
X157265810Y-119324381D02*
X157265810Y-118324381D01*
X157361048Y-118467238D01*
X157456286Y-118562476D01*
X157551524Y-118610095D01*
X145676857Y-110180381D02*
X146010191Y-109704190D01*
X146248286Y-110180381D02*
X146248286Y-109180381D01*
X145867333Y-109180381D01*
X145772095Y-109228000D01*
X145724476Y-109275619D01*
X145676857Y-109370857D01*
X145676857Y-109513714D01*
X145724476Y-109608952D01*
X145772095Y-109656571D01*
X145867333Y-109704190D01*
X146248286Y-109704190D01*
X145295905Y-109275619D02*
X145248286Y-109228000D01*
X145153048Y-109180381D01*
X144914952Y-109180381D01*
X144819714Y-109228000D01*
X144772095Y-109275619D01*
X144724476Y-109370857D01*
X144724476Y-109466095D01*
X144772095Y-109608952D01*
X145343524Y-110180381D01*
X144724476Y-110180381D01*
X144105429Y-109180381D02*
X144010190Y-109180381D01*
X143914952Y-109228000D01*
X143867333Y-109275619D01*
X143819714Y-109370857D01*
X143772095Y-109561333D01*
X143772095Y-109799429D01*
X143819714Y-109989905D01*
X143867333Y-110085143D01*
X143914952Y-110132762D01*
X144010190Y-110180381D01*
X144105429Y-110180381D01*
X144200667Y-110132762D01*
X144248286Y-110085143D01*
X144295905Y-109989905D01*
X144343524Y-109799429D01*
X144343524Y-109561333D01*
X144295905Y-109370857D01*
X144248286Y-109275619D01*
X144200667Y-109228000D01*
X144105429Y-109180381D01*
X158884857Y-117800381D02*
X159218191Y-117324190D01*
X159456286Y-117800381D02*
X159456286Y-116800381D01*
X159075333Y-116800381D01*
X158980095Y-116848000D01*
X158932476Y-116895619D01*
X158884857Y-116990857D01*
X158884857Y-117133714D01*
X158932476Y-117228952D01*
X158980095Y-117276571D01*
X159075333Y-117324190D01*
X159456286Y-117324190D01*
X157932476Y-117800381D02*
X158503905Y-117800381D01*
X158218191Y-117800381D02*
X158218191Y-116800381D01*
X158313429Y-116943238D01*
X158408667Y-117038476D01*
X158503905Y-117086095D01*
X157456286Y-117800381D02*
X157265810Y-117800381D01*
X157170571Y-117752762D01*
X157122952Y-117705143D01*
X157027714Y-117562286D01*
X156980095Y-117371810D01*
X156980095Y-116990857D01*
X157027714Y-116895619D01*
X157075333Y-116848000D01*
X157170571Y-116800381D01*
X157361048Y-116800381D01*
X157456286Y-116848000D01*
X157503905Y-116895619D01*
X157551524Y-116990857D01*
X157551524Y-117228952D01*
X157503905Y-117324190D01*
X157456286Y-117371810D01*
X157361048Y-117419429D01*
X157170571Y-117419429D01*
X157075333Y-117371810D01*
X157027714Y-117324190D01*
X156980095Y-117228952D01*
X158694381Y-111879143D02*
X158218190Y-111545809D01*
X158694381Y-111307714D02*
X157694381Y-111307714D01*
X157694381Y-111688667D01*
X157742000Y-111783905D01*
X157789619Y-111831524D01*
X157884857Y-111879143D01*
X158027714Y-111879143D01*
X158122952Y-111831524D01*
X158170571Y-111783905D01*
X158218190Y-111688667D01*
X158218190Y-111307714D01*
X158694381Y-112831524D02*
X158694381Y-112260095D01*
X158694381Y-112545809D02*
X157694381Y-112545809D01*
X157837238Y-112450571D01*
X157932476Y-112355333D01*
X157980095Y-112260095D01*
X158122952Y-113402952D02*
X158075333Y-113307714D01*
X158027714Y-113260095D01*
X157932476Y-113212476D01*
X157884857Y-113212476D01*
X157789619Y-113260095D01*
X157742000Y-113307714D01*
X157694381Y-113402952D01*
X157694381Y-113593429D01*
X157742000Y-113688667D01*
X157789619Y-113736286D01*
X157884857Y-113783905D01*
X157932476Y-113783905D01*
X158027714Y-113736286D01*
X158075333Y-113688667D01*
X158122952Y-113593429D01*
X158122952Y-113402952D01*
X158170571Y-113307714D01*
X158218190Y-113260095D01*
X158313429Y-113212476D01*
X158503905Y-113212476D01*
X158599143Y-113260095D01*
X158646762Y-113307714D01*
X158694381Y-113402952D01*
X158694381Y-113593429D01*
X158646762Y-113688667D01*
X158599143Y-113736286D01*
X158503905Y-113783905D01*
X158313429Y-113783905D01*
X158218190Y-113736286D01*
X158170571Y-113688667D01*
X158122952Y-113593429D01*
X145676857Y-107640381D02*
X146010191Y-107164190D01*
X146248286Y-107640381D02*
X146248286Y-106640381D01*
X145867333Y-106640381D01*
X145772095Y-106688000D01*
X145724476Y-106735619D01*
X145676857Y-106830857D01*
X145676857Y-106973714D01*
X145724476Y-107068952D01*
X145772095Y-107116571D01*
X145867333Y-107164190D01*
X146248286Y-107164190D01*
X144724476Y-107640381D02*
X145295905Y-107640381D01*
X145010191Y-107640381D02*
X145010191Y-106640381D01*
X145105429Y-106783238D01*
X145200667Y-106878476D01*
X145295905Y-106926095D01*
X144391143Y-106640381D02*
X143724476Y-106640381D01*
X144153048Y-107640381D01*
X158884857Y-116276381D02*
X159218191Y-115800190D01*
X159456286Y-116276381D02*
X159456286Y-115276381D01*
X159075333Y-115276381D01*
X158980095Y-115324000D01*
X158932476Y-115371619D01*
X158884857Y-115466857D01*
X158884857Y-115609714D01*
X158932476Y-115704952D01*
X158980095Y-115752571D01*
X159075333Y-115800190D01*
X159456286Y-115800190D01*
X157932476Y-116276381D02*
X158503905Y-116276381D01*
X158218191Y-116276381D02*
X158218191Y-115276381D01*
X158313429Y-115419238D01*
X158408667Y-115514476D01*
X158503905Y-115562095D01*
X157075333Y-115276381D02*
X157265810Y-115276381D01*
X157361048Y-115324000D01*
X157408667Y-115371619D01*
X157503905Y-115514476D01*
X157551524Y-115704952D01*
X157551524Y-116085905D01*
X157503905Y-116181143D01*
X157456286Y-116228762D01*
X157361048Y-116276381D01*
X157170571Y-116276381D01*
X157075333Y-116228762D01*
X157027714Y-116181143D01*
X156980095Y-116085905D01*
X156980095Y-115847810D01*
X157027714Y-115752571D01*
X157075333Y-115704952D01*
X157170571Y-115657333D01*
X157361048Y-115657333D01*
X157456286Y-115704952D01*
X157503905Y-115752571D01*
X157551524Y-115847810D01*
X145676857Y-105354381D02*
X146010191Y-104878190D01*
X146248286Y-105354381D02*
X146248286Y-104354381D01*
X145867333Y-104354381D01*
X145772095Y-104402000D01*
X145724476Y-104449619D01*
X145676857Y-104544857D01*
X145676857Y-104687714D01*
X145724476Y-104782952D01*
X145772095Y-104830571D01*
X145867333Y-104878190D01*
X146248286Y-104878190D01*
X144724476Y-105354381D02*
X145295905Y-105354381D01*
X145010191Y-105354381D02*
X145010191Y-104354381D01*
X145105429Y-104497238D01*
X145200667Y-104592476D01*
X145295905Y-104640095D01*
X143819714Y-104354381D02*
X144295905Y-104354381D01*
X144343524Y-104830571D01*
X144295905Y-104782952D01*
X144200667Y-104735333D01*
X143962571Y-104735333D01*
X143867333Y-104782952D01*
X143819714Y-104830571D01*
X143772095Y-104925810D01*
X143772095Y-105163905D01*
X143819714Y-105259143D01*
X143867333Y-105306762D01*
X143962571Y-105354381D01*
X144200667Y-105354381D01*
X144295905Y-105306762D01*
X144343524Y-105259143D01*
X132468857Y-83002381D02*
X132802191Y-82526190D01*
X133040286Y-83002381D02*
X133040286Y-82002381D01*
X132659333Y-82002381D01*
X132564095Y-82050000D01*
X132516476Y-82097619D01*
X132468857Y-82192857D01*
X132468857Y-82335714D01*
X132516476Y-82430952D01*
X132564095Y-82478571D01*
X132659333Y-82526190D01*
X133040286Y-82526190D01*
X131516476Y-83002381D02*
X132087905Y-83002381D01*
X131802191Y-83002381D02*
X131802191Y-82002381D01*
X131897429Y-82145238D01*
X131992667Y-82240476D01*
X132087905Y-82288095D01*
X130659333Y-82335714D02*
X130659333Y-83002381D01*
X130897429Y-81954762D02*
X131135524Y-82669048D01*
X130516476Y-82669048D01*
X151772857Y-102814381D02*
X152106191Y-102338190D01*
X152344286Y-102814381D02*
X152344286Y-101814381D01*
X151963333Y-101814381D01*
X151868095Y-101862000D01*
X151820476Y-101909619D01*
X151772857Y-102004857D01*
X151772857Y-102147714D01*
X151820476Y-102242952D01*
X151868095Y-102290571D01*
X151963333Y-102338190D01*
X152344286Y-102338190D01*
X150820476Y-102814381D02*
X151391905Y-102814381D01*
X151106191Y-102814381D02*
X151106191Y-101814381D01*
X151201429Y-101957238D01*
X151296667Y-102052476D01*
X151391905Y-102100095D01*
X150487143Y-101814381D02*
X149868095Y-101814381D01*
X150201429Y-102195333D01*
X150058571Y-102195333D01*
X149963333Y-102242952D01*
X149915714Y-102290571D01*
X149868095Y-102385810D01*
X149868095Y-102623905D01*
X149915714Y-102719143D01*
X149963333Y-102766762D01*
X150058571Y-102814381D01*
X150344286Y-102814381D01*
X150439524Y-102766762D01*
X150487143Y-102719143D01*
X145676857Y-98750381D02*
X146010191Y-98274190D01*
X146248286Y-98750381D02*
X146248286Y-97750381D01*
X145867333Y-97750381D01*
X145772095Y-97798000D01*
X145724476Y-97845619D01*
X145676857Y-97940857D01*
X145676857Y-98083714D01*
X145724476Y-98178952D01*
X145772095Y-98226571D01*
X145867333Y-98274190D01*
X146248286Y-98274190D01*
X144724476Y-98750381D02*
X145295905Y-98750381D01*
X145010191Y-98750381D02*
X145010191Y-97750381D01*
X145105429Y-97893238D01*
X145200667Y-97988476D01*
X145295905Y-98036095D01*
X144343524Y-97845619D02*
X144295905Y-97798000D01*
X144200667Y-97750381D01*
X143962571Y-97750381D01*
X143867333Y-97798000D01*
X143819714Y-97845619D01*
X143772095Y-97940857D01*
X143772095Y-98036095D01*
X143819714Y-98178952D01*
X144391143Y-98750381D01*
X143772095Y-98750381D01*
X120276857Y-89098381D02*
X120610191Y-88622190D01*
X120848286Y-89098381D02*
X120848286Y-88098381D01*
X120467333Y-88098381D01*
X120372095Y-88146000D01*
X120324476Y-88193619D01*
X120276857Y-88288857D01*
X120276857Y-88431714D01*
X120324476Y-88526952D01*
X120372095Y-88574571D01*
X120467333Y-88622190D01*
X120848286Y-88622190D01*
X119324476Y-89098381D02*
X119895905Y-89098381D01*
X119610191Y-89098381D02*
X119610191Y-88098381D01*
X119705429Y-88241238D01*
X119800667Y-88336476D01*
X119895905Y-88384095D01*
X118372095Y-89098381D02*
X118943524Y-89098381D01*
X118657810Y-89098381D02*
X118657810Y-88098381D01*
X118753048Y-88241238D01*
X118848286Y-88336476D01*
X118943524Y-88384095D01*
X132468857Y-79700381D02*
X132802191Y-79224190D01*
X133040286Y-79700381D02*
X133040286Y-78700381D01*
X132659333Y-78700381D01*
X132564095Y-78748000D01*
X132516476Y-78795619D01*
X132468857Y-78890857D01*
X132468857Y-79033714D01*
X132516476Y-79128952D01*
X132564095Y-79176571D01*
X132659333Y-79224190D01*
X133040286Y-79224190D01*
X131516476Y-79700381D02*
X132087905Y-79700381D01*
X131802191Y-79700381D02*
X131802191Y-78700381D01*
X131897429Y-78843238D01*
X131992667Y-78938476D01*
X132087905Y-78986095D01*
X130897429Y-78700381D02*
X130802190Y-78700381D01*
X130706952Y-78748000D01*
X130659333Y-78795619D01*
X130611714Y-78890857D01*
X130564095Y-79081333D01*
X130564095Y-79319429D01*
X130611714Y-79509905D01*
X130659333Y-79605143D01*
X130706952Y-79652762D01*
X130802190Y-79700381D01*
X130897429Y-79700381D01*
X130992667Y-79652762D01*
X131040286Y-79605143D01*
X131087905Y-79509905D01*
X131135524Y-79319429D01*
X131135524Y-79081333D01*
X131087905Y-78890857D01*
X131040286Y-78795619D01*
X130992667Y-78748000D01*
X130897429Y-78700381D01*
X131484666Y-86304381D02*
X131818000Y-85828190D01*
X132056095Y-86304381D02*
X132056095Y-85304381D01*
X131675142Y-85304381D01*
X131579904Y-85352000D01*
X131532285Y-85399619D01*
X131484666Y-85494857D01*
X131484666Y-85637714D01*
X131532285Y-85732952D01*
X131579904Y-85780571D01*
X131675142Y-85828190D01*
X132056095Y-85828190D01*
X131008476Y-86304381D02*
X130818000Y-86304381D01*
X130722761Y-86256762D01*
X130675142Y-86209143D01*
X130579904Y-86066286D01*
X130532285Y-85875810D01*
X130532285Y-85494857D01*
X130579904Y-85399619D01*
X130627523Y-85352000D01*
X130722761Y-85304381D01*
X130913238Y-85304381D01*
X131008476Y-85352000D01*
X131056095Y-85399619D01*
X131103714Y-85494857D01*
X131103714Y-85732952D01*
X131056095Y-85828190D01*
X131008476Y-85875810D01*
X130913238Y-85923429D01*
X130722761Y-85923429D01*
X130627523Y-85875810D01*
X130579904Y-85828190D01*
X130532285Y-85732952D01*
X158694381Y-102957334D02*
X158218190Y-102624000D01*
X158694381Y-102385905D02*
X157694381Y-102385905D01*
X157694381Y-102766858D01*
X157742000Y-102862096D01*
X157789619Y-102909715D01*
X157884857Y-102957334D01*
X158027714Y-102957334D01*
X158122952Y-102909715D01*
X158170571Y-102862096D01*
X158218190Y-102766858D01*
X158218190Y-102385905D01*
X158122952Y-103528762D02*
X158075333Y-103433524D01*
X158027714Y-103385905D01*
X157932476Y-103338286D01*
X157884857Y-103338286D01*
X157789619Y-103385905D01*
X157742000Y-103433524D01*
X157694381Y-103528762D01*
X157694381Y-103719239D01*
X157742000Y-103814477D01*
X157789619Y-103862096D01*
X157884857Y-103909715D01*
X157932476Y-103909715D01*
X158027714Y-103862096D01*
X158075333Y-103814477D01*
X158122952Y-103719239D01*
X158122952Y-103528762D01*
X158170571Y-103433524D01*
X158218190Y-103385905D01*
X158313429Y-103338286D01*
X158503905Y-103338286D01*
X158599143Y-103385905D01*
X158646762Y-103433524D01*
X158694381Y-103528762D01*
X158694381Y-103719239D01*
X158646762Y-103814477D01*
X158599143Y-103862096D01*
X158503905Y-103909715D01*
X158313429Y-103909715D01*
X158218190Y-103862096D01*
X158170571Y-103814477D01*
X158122952Y-103719239D01*
X151804666Y-101290381D02*
X152138000Y-100814190D01*
X152376095Y-101290381D02*
X152376095Y-100290381D01*
X151995142Y-100290381D01*
X151899904Y-100338000D01*
X151852285Y-100385619D01*
X151804666Y-100480857D01*
X151804666Y-100623714D01*
X151852285Y-100718952D01*
X151899904Y-100766571D01*
X151995142Y-100814190D01*
X152376095Y-100814190D01*
X151471333Y-100290381D02*
X150804666Y-100290381D01*
X151233238Y-101290381D01*
X145708666Y-96210381D02*
X146042000Y-95734190D01*
X146280095Y-96210381D02*
X146280095Y-95210381D01*
X145899142Y-95210381D01*
X145803904Y-95258000D01*
X145756285Y-95305619D01*
X145708666Y-95400857D01*
X145708666Y-95543714D01*
X145756285Y-95638952D01*
X145803904Y-95686571D01*
X145899142Y-95734190D01*
X146280095Y-95734190D01*
X144851523Y-95210381D02*
X145042000Y-95210381D01*
X145137238Y-95258000D01*
X145184857Y-95305619D01*
X145280095Y-95448476D01*
X145327714Y-95638952D01*
X145327714Y-96019905D01*
X145280095Y-96115143D01*
X145232476Y-96162762D01*
X145137238Y-96210381D01*
X144946761Y-96210381D01*
X144851523Y-96162762D01*
X144803904Y-96115143D01*
X144756285Y-96019905D01*
X144756285Y-95781810D01*
X144803904Y-95686571D01*
X144851523Y-95638952D01*
X144946761Y-95591333D01*
X145137238Y-95591333D01*
X145232476Y-95638952D01*
X145280095Y-95686571D01*
X145327714Y-95781810D01*
X151804666Y-89352381D02*
X152138000Y-88876190D01*
X152376095Y-89352381D02*
X152376095Y-88352381D01*
X151995142Y-88352381D01*
X151899904Y-88400000D01*
X151852285Y-88447619D01*
X151804666Y-88542857D01*
X151804666Y-88685714D01*
X151852285Y-88780952D01*
X151899904Y-88828571D01*
X151995142Y-88876190D01*
X152376095Y-88876190D01*
X150899904Y-88352381D02*
X151376095Y-88352381D01*
X151423714Y-88828571D01*
X151376095Y-88780952D01*
X151280857Y-88733333D01*
X151042761Y-88733333D01*
X150947523Y-88780952D01*
X150899904Y-88828571D01*
X150852285Y-88923810D01*
X150852285Y-89161905D01*
X150899904Y-89257143D01*
X150947523Y-89304762D01*
X151042761Y-89352381D01*
X151280857Y-89352381D01*
X151376095Y-89304762D01*
X151423714Y-89257143D01*
X145708666Y-93924381D02*
X146042000Y-93448190D01*
X146280095Y-93924381D02*
X146280095Y-92924381D01*
X145899142Y-92924381D01*
X145803904Y-92972000D01*
X145756285Y-93019619D01*
X145708666Y-93114857D01*
X145708666Y-93257714D01*
X145756285Y-93352952D01*
X145803904Y-93400571D01*
X145899142Y-93448190D01*
X146280095Y-93448190D01*
X144851523Y-93257714D02*
X144851523Y-93924381D01*
X145089619Y-92876762D02*
X145327714Y-93591048D01*
X144708666Y-93591048D01*
X151804666Y-87828381D02*
X152138000Y-87352190D01*
X152376095Y-87828381D02*
X152376095Y-86828381D01*
X151995142Y-86828381D01*
X151899904Y-86876000D01*
X151852285Y-86923619D01*
X151804666Y-87018857D01*
X151804666Y-87161714D01*
X151852285Y-87256952D01*
X151899904Y-87304571D01*
X151995142Y-87352190D01*
X152376095Y-87352190D01*
X151471333Y-86828381D02*
X150852285Y-86828381D01*
X151185619Y-87209333D01*
X151042761Y-87209333D01*
X150947523Y-87256952D01*
X150899904Y-87304571D01*
X150852285Y-87399810D01*
X150852285Y-87637905D01*
X150899904Y-87733143D01*
X150947523Y-87780762D01*
X151042761Y-87828381D01*
X151328476Y-87828381D01*
X151423714Y-87780762D01*
X151471333Y-87733143D01*
X158694381Y-95337334D02*
X158218190Y-95004000D01*
X158694381Y-94765905D02*
X157694381Y-94765905D01*
X157694381Y-95146858D01*
X157742000Y-95242096D01*
X157789619Y-95289715D01*
X157884857Y-95337334D01*
X158027714Y-95337334D01*
X158122952Y-95289715D01*
X158170571Y-95242096D01*
X158218190Y-95146858D01*
X158218190Y-94765905D01*
X157789619Y-95718286D02*
X157742000Y-95765905D01*
X157694381Y-95861143D01*
X157694381Y-96099239D01*
X157742000Y-96194477D01*
X157789619Y-96242096D01*
X157884857Y-96289715D01*
X157980095Y-96289715D01*
X158122952Y-96242096D01*
X158694381Y-95670667D01*
X158694381Y-96289715D01*
X145708666Y-91130381D02*
X146042000Y-90654190D01*
X146280095Y-91130381D02*
X146280095Y-90130381D01*
X145899142Y-90130381D01*
X145803904Y-90178000D01*
X145756285Y-90225619D01*
X145708666Y-90320857D01*
X145708666Y-90463714D01*
X145756285Y-90558952D01*
X145803904Y-90606571D01*
X145899142Y-90654190D01*
X146280095Y-90654190D01*
X144756285Y-91130381D02*
X145327714Y-91130381D01*
X145042000Y-91130381D02*
X145042000Y-90130381D01*
X145137238Y-90273238D01*
X145232476Y-90368476D01*
X145327714Y-90416095D01*
X130833619Y-115022381D02*
X130643142Y-115022381D01*
X130547904Y-115070000D01*
X130452666Y-115165238D01*
X130405047Y-115355714D01*
X130405047Y-115689048D01*
X130452666Y-115879524D01*
X130547904Y-115974762D01*
X130643142Y-116022381D01*
X130833619Y-116022381D01*
X130928857Y-115974762D01*
X131024095Y-115879524D01*
X131071714Y-115689048D01*
X131071714Y-115355714D01*
X131024095Y-115165238D01*
X130928857Y-115070000D01*
X130833619Y-115022381D01*
X130024095Y-115974762D02*
X129881238Y-116022381D01*
X129643142Y-116022381D01*
X129547904Y-115974762D01*
X129500285Y-115927143D01*
X129452666Y-115831905D01*
X129452666Y-115736667D01*
X129500285Y-115641429D01*
X129547904Y-115593810D01*
X129643142Y-115546190D01*
X129833619Y-115498571D01*
X129928857Y-115450952D01*
X129976476Y-115403333D01*
X130024095Y-115308095D01*
X130024095Y-115212857D01*
X129976476Y-115117619D01*
X129928857Y-115070000D01*
X129833619Y-115022381D01*
X129595523Y-115022381D01*
X129452666Y-115070000D01*
X128452666Y-115927143D02*
X128500285Y-115974762D01*
X128643142Y-116022381D01*
X128738380Y-116022381D01*
X128881238Y-115974762D01*
X128976476Y-115879524D01*
X129024095Y-115784286D01*
X129071714Y-115593810D01*
X129071714Y-115450952D01*
X129024095Y-115260476D01*
X128976476Y-115165238D01*
X128881238Y-115070000D01*
X128738380Y-115022381D01*
X128643142Y-115022381D01*
X128500285Y-115070000D01*
X128452666Y-115117619D01*
X127500285Y-116022381D02*
X128071714Y-116022381D01*
X127786000Y-116022381D02*
X127786000Y-115022381D01*
X127881238Y-115165238D01*
X127976476Y-115260476D01*
X128071714Y-115308095D01*
X153836667Y-81526286D02*
X153836667Y-82002477D01*
X154122381Y-81431048D02*
X153122381Y-81764381D01*
X154122381Y-82097715D01*
X154122381Y-82431048D02*
X153122381Y-82431048D01*
X153836667Y-82764382D01*
X153122381Y-83097715D01*
X154122381Y-83097715D01*
X154122381Y-83573905D02*
X153122381Y-83573905D01*
X153122381Y-83954858D01*
X153170000Y-84050096D01*
X153217619Y-84097715D01*
X153312857Y-84145334D01*
X153455714Y-84145334D01*
X153550952Y-84097715D01*
X153598571Y-84050096D01*
X153646190Y-83954858D01*
X153646190Y-83573905D01*
X154122381Y-85097715D02*
X154122381Y-84526286D01*
X154122381Y-84812000D02*
X153122381Y-84812000D01*
X153265238Y-84716762D01*
X153360476Y-84621524D01*
X153408095Y-84526286D01*
M02*
