G04 #@! TF.GenerationSoftware,KiCad,Pcbnew,(5.0.0)*
G04 #@! TF.CreationDate,2019-04-25T10:06:30+02:00*
G04 #@! TF.ProjectId,c64board,633634626F6172642E6B696361645F70,rev?*
G04 #@! TF.SameCoordinates,Original*
G04 #@! TF.FileFunction,Soldermask,Bot*
G04 #@! TF.FilePolarity,Negative*
%FSLAX46Y46*%
G04 Gerber Fmt 4.6, Leading zero omitted, Abs format (unit mm)*
G04 Created by KiCad (PCBNEW (5.0.0)) date 04/25/19 10:06:30*
%MOMM*%
%LPD*%
G01*
G04 APERTURE LIST*
%ADD10R,2.100000X2.100000*%
%ADD11O,2.100000X2.100000*%
%ADD12C,2.254200*%
%ADD13C,2.559000*%
G04 APERTURE END LIST*
D10*
G04 #@! TO.C,J1*
X152654000Y-68580000D03*
D11*
X155194000Y-68580000D03*
X152654000Y-71120000D03*
X155194000Y-71120000D03*
X152654000Y-73660000D03*
X155194000Y-73660000D03*
X152654000Y-76200000D03*
X155194000Y-76200000D03*
X152654000Y-78740000D03*
X155194000Y-78740000D03*
X152654000Y-81280000D03*
X155194000Y-81280000D03*
X152654000Y-83820000D03*
X155194000Y-83820000D03*
X152654000Y-86360000D03*
X155194000Y-86360000D03*
X152654000Y-88900000D03*
X155194000Y-88900000D03*
X152654000Y-91440000D03*
X155194000Y-91440000D03*
G04 #@! TD*
D12*
G04 #@! TO.C,U1*
X149860000Y-55880000D03*
X149860000Y-58420000D03*
X149860000Y-60960000D03*
X149860000Y-63500000D03*
X149860000Y-66040000D03*
X149860000Y-68580000D03*
X149860000Y-71120000D03*
X149860000Y-73660000D03*
X149860000Y-76200000D03*
X149860000Y-78740000D03*
X149860000Y-81280000D03*
X149860000Y-83820000D03*
X149860000Y-86360000D03*
X149860000Y-88900000D03*
X149860000Y-91440000D03*
X149860000Y-93980000D03*
X149860000Y-96520000D03*
X149860000Y-99060000D03*
X149860000Y-101600000D03*
X149860000Y-104140000D03*
D13*
X134620000Y-104140000D03*
X134620000Y-101600000D03*
X134620000Y-99060000D03*
X134620000Y-96520000D03*
X134620000Y-93980000D03*
X134620000Y-91440000D03*
X134620000Y-88900000D03*
X134620000Y-86360000D03*
X134620000Y-83820000D03*
X134620000Y-81280000D03*
X134620000Y-76200000D03*
X134620000Y-73660000D03*
X134620000Y-71120000D03*
X134620000Y-68580000D03*
X134620000Y-66040000D03*
X134620000Y-63500000D03*
X134620000Y-60960000D03*
X134620000Y-58420000D03*
X134620000Y-55880000D03*
X134620000Y-78740000D03*
G04 #@! TD*
M02*
