G04 #@! TF.GenerationSoftware,KiCad,Pcbnew,(5.0.0)*
G04 #@! TF.CreationDate,2019-03-12T21:17:03+01:00*
G04 #@! TF.ProjectId,c64board,633634626F6172642E6B696361645F70,rev?*
G04 #@! TF.SameCoordinates,Original*
G04 #@! TF.FileFunction,Copper,L2,Bot,Signal*
G04 #@! TF.FilePolarity,Positive*
%FSLAX46Y46*%
G04 Gerber Fmt 4.6, Leading zero omitted, Abs format (unit mm)*
G04 Created by KiCad (PCBNEW (5.0.0)) date 03/12/19 21:17:03*
%MOMM*%
%LPD*%
G01*
G04 APERTURE LIST*
G04 #@! TA.AperFunction,ComponentPad*
%ADD10R,1.700000X1.700000*%
G04 #@! TD*
G04 #@! TA.AperFunction,ComponentPad*
%ADD11O,1.700000X1.700000*%
G04 #@! TD*
G04 #@! TA.AperFunction,ComponentPad*
%ADD12C,1.854200*%
G04 #@! TD*
G04 #@! TA.AperFunction,ComponentPad*
%ADD13C,2.159000*%
G04 #@! TD*
G04 #@! TA.AperFunction,ViaPad*
%ADD14C,0.800000*%
G04 #@! TD*
G04 #@! TA.AperFunction,Conductor*
%ADD15C,0.250000*%
G04 #@! TD*
G04 APERTURE END LIST*
D10*
G04 #@! TO.P,J1,1*
G04 #@! TO.N,DB7*
X152400000Y-68580000D03*
D11*
G04 #@! TO.P,J1,2*
G04 #@! TO.N,DB6*
X154940000Y-68580000D03*
G04 #@! TO.P,J1,3*
G04 #@! TO.N,DB5*
X152400000Y-71120000D03*
G04 #@! TO.P,J1,4*
G04 #@! TO.N,DB4*
X154940000Y-71120000D03*
G04 #@! TO.P,J1,5*
G04 #@! TO.N,DB3*
X152400000Y-73660000D03*
G04 #@! TO.P,J1,6*
G04 #@! TO.N,DB2*
X154940000Y-73660000D03*
G04 #@! TO.P,J1,7*
G04 #@! TO.N,DB1*
X152400000Y-76200000D03*
G04 #@! TO.P,J1,8*
G04 #@! TO.N,DB0*
X154940000Y-76200000D03*
G04 #@! TO.P,J1,9*
G04 #@! TO.N,DB11_A5*
X152400000Y-78740000D03*
G04 #@! TO.P,J1,10*
G04 #@! TO.N,DB10_A4*
X154940000Y-78740000D03*
G04 #@! TO.P,J1,11*
G04 #@! TO.N,DB9_A3*
X152400000Y-81280000D03*
G04 #@! TO.P,J1,12*
G04 #@! TO.N,DB8_A2*
X154940000Y-81280000D03*
G04 #@! TO.P,J1,13*
G04 #@! TO.N,A1*
X152400000Y-83820000D03*
G04 #@! TO.P,J1,14*
G04 #@! TO.N,A0*
X154940000Y-83820000D03*
G04 #@! TO.P,J1,15*
G04 #@! TO.N,CS*
X152400000Y-86360000D03*
G04 #@! TO.P,J1,16*
G04 #@! TO.N,RW*
X154940000Y-86360000D03*
G04 #@! TO.P,J1,17*
G04 #@! TO.N,BA*
X152400000Y-88900000D03*
G04 #@! TO.P,J1,18*
G04 #@! TO.N,AEC*
X154940000Y-88900000D03*
G04 #@! TO.P,J1,19*
G04 #@! TO.N,GND*
X152400000Y-91440000D03*
G04 #@! TO.P,J1,20*
G04 #@! TO.N,PHI0*
X154940000Y-91440000D03*
G04 #@! TD*
D12*
G04 #@! TO.P,U1,40*
G04 #@! TO.N,+5V*
X149860000Y-55880000D03*
G04 #@! TO.P,U1,39*
G04 #@! TO.N,Net-(U1-Pad39)*
X149860000Y-58420000D03*
G04 #@! TO.P,U1,38*
G04 #@! TO.N,Net-(U1-Pad38)*
X149860000Y-60960000D03*
G04 #@! TO.P,U1,37*
G04 #@! TO.N,Net-(U1-Pad37)*
X149860000Y-63500000D03*
G04 #@! TO.P,U1,36*
G04 #@! TO.N,Net-(U1-Pad36)*
X149860000Y-66040000D03*
G04 #@! TO.P,U1,35*
G04 #@! TO.N,Net-(U1-Pad35)*
X149860000Y-68580000D03*
G04 #@! TO.P,U1,34*
G04 #@! TO.N,Net-(U1-Pad34)*
X149860000Y-71120000D03*
G04 #@! TO.P,U1,33*
G04 #@! TO.N,Net-(U1-Pad33)*
X149860000Y-73660000D03*
G04 #@! TO.P,U1,32*
G04 #@! TO.N,Net-(U1-Pad32)*
X149860000Y-76200000D03*
G04 #@! TO.P,U1,31*
G04 #@! TO.N,Net-(U1-Pad31)*
X149860000Y-78740000D03*
G04 #@! TO.P,U1,30*
G04 #@! TO.N,Net-(U1-Pad30)*
X149860000Y-81280000D03*
G04 #@! TO.P,U1,29*
G04 #@! TO.N,Net-(U1-Pad29)*
X149860000Y-83820000D03*
G04 #@! TO.P,U1,28*
G04 #@! TO.N,Net-(U1-Pad28)*
X149860000Y-86360000D03*
G04 #@! TO.P,U1,27*
G04 #@! TO.N,Net-(U1-Pad27)*
X149860000Y-88900000D03*
G04 #@! TO.P,U1,26*
G04 #@! TO.N,Net-(U1-Pad26)*
X149860000Y-91440000D03*
G04 #@! TO.P,U1,25*
G04 #@! TO.N,Net-(U1-Pad25)*
X149860000Y-93980000D03*
G04 #@! TO.P,U1,24*
G04 #@! TO.N,Net-(U1-Pad24)*
X149860000Y-96520000D03*
G04 #@! TO.P,U1,23*
G04 #@! TO.N,Net-(U1-Pad23)*
X149860000Y-99060000D03*
G04 #@! TO.P,U1,22*
G04 #@! TO.N,Net-(U1-Pad22)*
X149860000Y-101600000D03*
G04 #@! TO.P,U1,21*
G04 #@! TO.N,Net-(U1-Pad21)*
X149860000Y-104140000D03*
D13*
G04 #@! TO.P,U1,20*
G04 #@! TO.N,GND*
X134620000Y-104140000D03*
G04 #@! TO.P,U1,19*
G04 #@! TO.N,Net-(U1-Pad19)*
X134620000Y-101600000D03*
G04 #@! TO.P,U1,18*
G04 #@! TO.N,Net-(U1-Pad18)*
X134620000Y-99060000D03*
G04 #@! TO.P,U1,17*
G04 #@! TO.N,Net-(U1-Pad17)*
X134620000Y-96520000D03*
G04 #@! TO.P,U1,16*
G04 #@! TO.N,Net-(U1-Pad16)*
X134620000Y-93980000D03*
G04 #@! TO.P,U1,15*
G04 #@! TO.N,Net-(U1-Pad15)*
X134620000Y-91440000D03*
G04 #@! TO.P,U1,14*
G04 #@! TO.N,Net-(U1-Pad14)*
X134620000Y-88900000D03*
G04 #@! TO.P,U1,13*
G04 #@! TO.N,Net-(U1-Pad13)*
X134620000Y-86360000D03*
G04 #@! TO.P,U1,12*
G04 #@! TO.N,Net-(U1-Pad12)*
X134620000Y-83820000D03*
G04 #@! TO.P,U1,11*
G04 #@! TO.N,Net-(U1-Pad11)*
X134620000Y-81280000D03*
G04 #@! TO.P,U1,9*
G04 #@! TO.N,Net-(U1-Pad9)*
X134620000Y-76200000D03*
G04 #@! TO.P,U1,8*
G04 #@! TO.N,Net-(U1-Pad8)*
X134620000Y-73660000D03*
G04 #@! TO.P,U1,7*
G04 #@! TO.N,Net-(U1-Pad7)*
X134620000Y-71120000D03*
G04 #@! TO.P,U1,6*
G04 #@! TO.N,Net-(U1-Pad6)*
X134620000Y-68580000D03*
G04 #@! TO.P,U1,5*
G04 #@! TO.N,Net-(U1-Pad5)*
X134620000Y-66040000D03*
G04 #@! TO.P,U1,4*
G04 #@! TO.N,Net-(U1-Pad4)*
X134620000Y-63500000D03*
G04 #@! TO.P,U1,3*
G04 #@! TO.N,Net-(U1-Pad3)*
X134620000Y-60960000D03*
G04 #@! TO.P,U1,2*
G04 #@! TO.N,Net-(U1-Pad2)*
X134620000Y-58420000D03*
G04 #@! TO.P,U1,1*
G04 #@! TO.N,Net-(U1-Pad1)*
X134620000Y-55880000D03*
G04 #@! TO.P,U1,10*
G04 #@! TO.N,Net-(U1-Pad10)*
X134620000Y-78740000D03*
G04 #@! TD*
D14*
G04 #@! TO.N,+5V*
X153040000Y-61722000D03*
X155194000Y-61468000D03*
G04 #@! TO.N,GND*
X141224000Y-98044000D03*
X141224000Y-99314000D03*
X154940000Y-64770000D03*
X142748000Y-93980000D03*
X140970000Y-83566000D03*
X137668000Y-68072000D03*
X140208000Y-59690000D03*
X154432000Y-54356000D03*
X140208000Y-76200000D03*
X140461990Y-91440000D03*
X146812000Y-59690000D03*
X143675381Y-79900991D03*
G04 #@! TO.N,DB7*
X152400000Y-68580000D03*
X153162000Y-65531996D03*
G04 #@! TO.N,DB5*
X147061338Y-64774658D03*
G04 #@! TO.N,DB3*
X147569347Y-66552653D03*
G04 #@! TO.N,DB1*
X147103000Y-68288725D03*
G04 #@! TO.N,DB11_A5*
X140970000Y-81026000D03*
G04 #@! TO.N,DB10_A4*
X147066000Y-81280000D03*
X148590000Y-80010000D03*
G04 #@! TO.N,DB9_A3*
X140970000Y-82042000D03*
G04 #@! TO.N,A1*
X146558000Y-86360000D03*
G04 #@! TO.N,CS*
X148077347Y-87625347D03*
G04 #@! TO.N,BA*
X147823347Y-97420000D03*
G04 #@! TO.N,AEC*
X141732002Y-89662000D03*
X141478000Y-95758000D03*
G04 #@! TO.N,Net-(U1-Pad39)*
X147066000Y-56134000D03*
X144272000Y-56134000D03*
G04 #@! TO.N,Net-(U1-Pad38)*
X145542000Y-72136000D03*
G04 #@! TO.N,Net-(U1-Pad37)*
X142240000Y-69850000D03*
G04 #@! TO.N,Net-(U1-Pad36)*
X145034000Y-70612000D03*
G04 #@! TO.N,Net-(U1-Pad35)*
X143002000Y-70866000D03*
G04 #@! TO.N,Net-(U1-Pad29)*
X144526000Y-85344000D03*
X141447979Y-85344000D03*
G04 #@! TO.N,Net-(U1-Pad28)*
X143764000Y-87376000D03*
G04 #@! TO.N,Net-(U1-Pad27)*
X145034000Y-88646000D03*
X144526000Y-86360000D03*
X141447979Y-86614000D03*
G04 #@! TO.N,Net-(U1-Pad26)*
X145796000Y-91440000D03*
X145542000Y-86069000D03*
X147021875Y-82980010D03*
G04 #@! TO.N,Net-(U1-Pad25)*
X143510000Y-95250000D03*
G04 #@! TO.N,Net-(U1-Pad24)*
X143510000Y-96520000D03*
G04 #@! TD*
D15*
G04 #@! TO.N,+5V*
X153040000Y-61722000D02*
X154940000Y-61722000D01*
X154940000Y-61722000D02*
X155194000Y-61468000D01*
G04 #@! TO.N,DB7*
X153162000Y-66040000D02*
X153162000Y-65531996D01*
X152400000Y-68580000D02*
X153162000Y-67818000D01*
X153162000Y-67818000D02*
X153162000Y-66040000D01*
G04 #@! TO.N,DB5*
X148481999Y-69233999D02*
X148481999Y-66195319D01*
X148481999Y-66195319D02*
X147461337Y-65174657D01*
X147461337Y-65174657D02*
X147061338Y-64774658D01*
X149080101Y-69832101D02*
X148481999Y-69233999D01*
X152400000Y-71120000D02*
X151112101Y-69832101D01*
X151112101Y-69832101D02*
X149080101Y-69832101D01*
G04 #@! TO.N,DB3*
X147885990Y-67434981D02*
X147885990Y-71431990D01*
X147569347Y-66552653D02*
X147569347Y-67118338D01*
X147569347Y-67118338D02*
X147885990Y-67434981D01*
X147885990Y-71431990D02*
X148844000Y-72390000D01*
X151130000Y-72390000D02*
X152400000Y-73660000D01*
X148844000Y-72390000D02*
X151130000Y-72390000D01*
G04 #@! TO.N,DB1*
X151112101Y-74912101D02*
X152400000Y-76200000D01*
X148572101Y-74912101D02*
X151112101Y-74912101D01*
X147103000Y-68288725D02*
X147103000Y-73443000D01*
X147103000Y-73443000D02*
X148572101Y-74912101D01*
G04 #@! TO.N,DB11_A5*
X145542000Y-81026000D02*
X140970000Y-81026000D01*
X149080101Y-77487899D02*
X145542000Y-81026000D01*
X152400000Y-78740000D02*
X151147899Y-77487899D01*
X151147899Y-77487899D02*
X149080101Y-77487899D01*
G04 #@! TO.N,DB10_A4*
X147066000Y-81280000D02*
X147320000Y-81280000D01*
X147320000Y-81280000D02*
X148590000Y-80010000D01*
G04 #@! TO.N,DB9_A3*
X141535685Y-82042000D02*
X140970000Y-82042000D01*
X152400000Y-81280000D02*
X151130000Y-82550000D01*
X151130000Y-82550000D02*
X147828000Y-82550000D01*
X147320000Y-82042000D02*
X141535685Y-82042000D01*
X147828000Y-82550000D02*
X147320000Y-82042000D01*
G04 #@! TO.N,A1*
X151112101Y-85107899D02*
X152400000Y-83820000D01*
X148064101Y-85107899D02*
X151112101Y-85107899D01*
X146558000Y-86360000D02*
X146812000Y-86360000D01*
X146812000Y-86360000D02*
X148064101Y-85107899D01*
G04 #@! TO.N,CS*
X151550001Y-87209999D02*
X152400000Y-86360000D01*
X151147899Y-87612101D02*
X151550001Y-87209999D01*
X149115899Y-87612101D02*
X151147899Y-87612101D01*
X149102653Y-87625347D02*
X149115899Y-87612101D01*
X148077347Y-87625347D02*
X149102653Y-87625347D01*
G04 #@! TO.N,BA*
X151224999Y-90075001D02*
X151550001Y-89749999D01*
X151224999Y-92550999D02*
X151224999Y-90075001D01*
X148389032Y-97420000D02*
X148759032Y-97790000D01*
X147823347Y-97420000D02*
X148389032Y-97420000D01*
X148759032Y-97790000D02*
X150876000Y-97790000D01*
X151550001Y-89749999D02*
X152400000Y-88900000D01*
X150876000Y-97790000D02*
X151638000Y-97028000D01*
X151638000Y-97028000D02*
X151638000Y-92964000D01*
X151638000Y-92964000D02*
X151224999Y-92550999D01*
G04 #@! TO.N,AEC*
X141732002Y-95503998D02*
X141478000Y-95758000D01*
X141732002Y-89662000D02*
X141732002Y-95503998D01*
G04 #@! TO.N,Net-(U1-Pad39)*
X147066000Y-56134000D02*
X144272000Y-56134000D01*
G04 #@! TO.N,Net-(U1-Pad38)*
X145034000Y-71628000D02*
X145542000Y-72136000D01*
X142240000Y-71628000D02*
X145034000Y-71628000D01*
X141224000Y-70612000D02*
X142240000Y-71628000D01*
X141224000Y-64770000D02*
X141224000Y-70612000D01*
X149860000Y-60960000D02*
X145034000Y-60960000D01*
X145034000Y-60960000D02*
X141224000Y-64770000D01*
G04 #@! TO.N,Net-(U1-Pad37)*
X142240000Y-69284315D02*
X142240000Y-69850000D01*
X142240000Y-64770000D02*
X142240000Y-69284315D01*
X145034000Y-61976000D02*
X142240000Y-64770000D01*
X149860000Y-63500000D02*
X148336000Y-61976000D01*
X148336000Y-61976000D02*
X145034000Y-61976000D01*
G04 #@! TO.N,Net-(U1-Pad36)*
X149860000Y-66040000D02*
X147574000Y-63754000D01*
X147574000Y-63754000D02*
X145288000Y-63754000D01*
X145034000Y-64008000D02*
X145034000Y-70046315D01*
X145034000Y-70046315D02*
X145034000Y-70612000D01*
X145288000Y-63754000D02*
X145034000Y-64008000D01*
G04 #@! TO.N,Net-(U1-Pad35)*
X147194410Y-62738000D02*
X145288000Y-62738000D01*
X145288000Y-62738000D02*
X143002000Y-65024000D01*
X143002000Y-65024000D02*
X143002000Y-70300315D01*
X151638000Y-65278000D02*
X151147899Y-64787899D01*
X149860000Y-68580000D02*
X151638000Y-66802000D01*
X151147899Y-64787899D02*
X149244309Y-64787899D01*
X149244309Y-64787899D02*
X147194410Y-62738000D01*
X143002000Y-70300315D02*
X143002000Y-70866000D01*
X151638000Y-66802000D02*
X151638000Y-65278000D01*
G04 #@! TO.N,Net-(U1-Pad29)*
X144526000Y-85344000D02*
X141447979Y-85344000D01*
G04 #@! TO.N,Net-(U1-Pad28)*
X148548883Y-86360000D02*
X149860000Y-86360000D01*
X148210410Y-86360000D02*
X148548883Y-86360000D01*
X146794411Y-87775999D02*
X148210410Y-86360000D01*
X144163999Y-87775999D02*
X146794411Y-87775999D01*
X143764000Y-87376000D02*
X144163999Y-87775999D01*
G04 #@! TO.N,Net-(U1-Pad27)*
X149860000Y-88900000D02*
X145288000Y-88900000D01*
X145288000Y-88900000D02*
X145034000Y-88646000D01*
X141701979Y-86360000D02*
X141447979Y-86614000D01*
X144526000Y-86360000D02*
X141701979Y-86360000D01*
G04 #@! TO.N,Net-(U1-Pad26)*
X149860000Y-91440000D02*
X145796000Y-91440000D01*
X145542000Y-86069000D02*
X147021875Y-84589125D01*
X147021875Y-84589125D02*
X147021875Y-83545695D01*
X147021875Y-83545695D02*
X147021875Y-82980010D01*
G04 #@! TO.N,Net-(U1-Pad25)*
X149860000Y-93980000D02*
X148590000Y-95250000D01*
X148590000Y-95250000D02*
X143510000Y-95250000D01*
G04 #@! TO.N,Net-(U1-Pad24)*
X149860000Y-96520000D02*
X143510000Y-96520000D01*
G04 #@! TD*
G04 #@! TO.N,GND*
G36*
X155760000Y-60937985D02*
X155633002Y-60810987D01*
X155348157Y-60693000D01*
X155039843Y-60693000D01*
X154754998Y-60810987D01*
X154536987Y-61028998D01*
X154457043Y-61222000D01*
X153636015Y-61222000D01*
X153479002Y-61064987D01*
X153194157Y-60947000D01*
X152885843Y-60947000D01*
X152600998Y-61064987D01*
X152382987Y-61282998D01*
X152265000Y-61567843D01*
X152265000Y-61876157D01*
X152382987Y-62161002D01*
X152600998Y-62379013D01*
X152885843Y-62497000D01*
X153194157Y-62497000D01*
X153479002Y-62379013D01*
X153636015Y-62222000D01*
X154890759Y-62222000D01*
X154940000Y-62231795D01*
X154989176Y-62222013D01*
X155039843Y-62243000D01*
X155348157Y-62243000D01*
X155633002Y-62125013D01*
X155760000Y-61998015D01*
X155760000Y-67654611D01*
X155417971Y-67426075D01*
X155060652Y-67355000D01*
X154819348Y-67355000D01*
X154462029Y-67426075D01*
X154056824Y-67696824D01*
X153786075Y-68102029D01*
X153691001Y-68580000D01*
X153786075Y-69057971D01*
X154056824Y-69463176D01*
X154462029Y-69733925D01*
X154819348Y-69805000D01*
X155060652Y-69805000D01*
X155417971Y-69733925D01*
X155760000Y-69505389D01*
X155760000Y-70194611D01*
X155417971Y-69966075D01*
X155060652Y-69895000D01*
X154819348Y-69895000D01*
X154462029Y-69966075D01*
X154056824Y-70236824D01*
X153786075Y-70642029D01*
X153691001Y-71120000D01*
X153786075Y-71597971D01*
X154056824Y-72003176D01*
X154462029Y-72273925D01*
X154819348Y-72345000D01*
X155060652Y-72345000D01*
X155417971Y-72273925D01*
X155760000Y-72045389D01*
X155760000Y-72734611D01*
X155417971Y-72506075D01*
X155060652Y-72435000D01*
X154819348Y-72435000D01*
X154462029Y-72506075D01*
X154056824Y-72776824D01*
X153786075Y-73182029D01*
X153691001Y-73660000D01*
X153786075Y-74137971D01*
X154056824Y-74543176D01*
X154462029Y-74813925D01*
X154819348Y-74885000D01*
X155060652Y-74885000D01*
X155417971Y-74813925D01*
X155760000Y-74585389D01*
X155760000Y-75274611D01*
X155417971Y-75046075D01*
X155060652Y-74975000D01*
X154819348Y-74975000D01*
X154462029Y-75046075D01*
X154056824Y-75316824D01*
X153786075Y-75722029D01*
X153691001Y-76200000D01*
X153786075Y-76677971D01*
X154056824Y-77083176D01*
X154462029Y-77353925D01*
X154819348Y-77425000D01*
X155060652Y-77425000D01*
X155417971Y-77353925D01*
X155760000Y-77125389D01*
X155760000Y-77814612D01*
X155417971Y-77586075D01*
X155060652Y-77515000D01*
X154819348Y-77515000D01*
X154462029Y-77586075D01*
X154056824Y-77856824D01*
X153786075Y-78262029D01*
X153691001Y-78740000D01*
X153786075Y-79217971D01*
X154056824Y-79623176D01*
X154462029Y-79893925D01*
X154819348Y-79965000D01*
X155060652Y-79965000D01*
X155417971Y-79893925D01*
X155760000Y-79665388D01*
X155760001Y-80354612D01*
X155417971Y-80126075D01*
X155060652Y-80055000D01*
X154819348Y-80055000D01*
X154462029Y-80126075D01*
X154056824Y-80396824D01*
X153786075Y-80802029D01*
X153691001Y-81280000D01*
X153786075Y-81757971D01*
X154056824Y-82163176D01*
X154462029Y-82433925D01*
X154819348Y-82505000D01*
X155060652Y-82505000D01*
X155417971Y-82433925D01*
X155760001Y-82205388D01*
X155760001Y-82894612D01*
X155417971Y-82666075D01*
X155060652Y-82595000D01*
X154819348Y-82595000D01*
X154462029Y-82666075D01*
X154056824Y-82936824D01*
X153786075Y-83342029D01*
X153691001Y-83820000D01*
X153786075Y-84297971D01*
X154056824Y-84703176D01*
X154462029Y-84973925D01*
X154819348Y-85045000D01*
X155060652Y-85045000D01*
X155417971Y-84973925D01*
X155760001Y-84745388D01*
X155760001Y-85434612D01*
X155417971Y-85206075D01*
X155060652Y-85135000D01*
X154819348Y-85135000D01*
X154462029Y-85206075D01*
X154056824Y-85476824D01*
X153786075Y-85882029D01*
X153691001Y-86360000D01*
X153786075Y-86837971D01*
X154056824Y-87243176D01*
X154462029Y-87513925D01*
X154819348Y-87585000D01*
X155060652Y-87585000D01*
X155417971Y-87513925D01*
X155760001Y-87285388D01*
X155760001Y-87974612D01*
X155417971Y-87746075D01*
X155060652Y-87675000D01*
X154819348Y-87675000D01*
X154462029Y-87746075D01*
X154056824Y-88016824D01*
X153786075Y-88422029D01*
X153691001Y-88900000D01*
X153786075Y-89377971D01*
X154056824Y-89783176D01*
X154462029Y-90053925D01*
X154819348Y-90125000D01*
X155060652Y-90125000D01*
X155417971Y-90053925D01*
X155760001Y-89825388D01*
X155760001Y-90514612D01*
X155417971Y-90286075D01*
X155060652Y-90215000D01*
X154819348Y-90215000D01*
X154462029Y-90286075D01*
X154056824Y-90556824D01*
X153786075Y-90962029D01*
X153691001Y-91440000D01*
X153786075Y-91917971D01*
X154056824Y-92323176D01*
X154462029Y-92593925D01*
X154819348Y-92665000D01*
X155060652Y-92665000D01*
X155417971Y-92593925D01*
X155760001Y-92365388D01*
X155760001Y-106230000D01*
X132530000Y-106230000D01*
X132530000Y-55590682D01*
X133165500Y-55590682D01*
X133165500Y-56169318D01*
X133386935Y-56703908D01*
X133796092Y-57113065D01*
X133885261Y-57150000D01*
X133796092Y-57186935D01*
X133386935Y-57596092D01*
X133165500Y-58130682D01*
X133165500Y-58709318D01*
X133386935Y-59243908D01*
X133796092Y-59653065D01*
X133885261Y-59690000D01*
X133796092Y-59726935D01*
X133386935Y-60136092D01*
X133165500Y-60670682D01*
X133165500Y-61249318D01*
X133386935Y-61783908D01*
X133796092Y-62193065D01*
X133885261Y-62230000D01*
X133796092Y-62266935D01*
X133386935Y-62676092D01*
X133165500Y-63210682D01*
X133165500Y-63789318D01*
X133386935Y-64323908D01*
X133796092Y-64733065D01*
X133885261Y-64770000D01*
X133796092Y-64806935D01*
X133386935Y-65216092D01*
X133165500Y-65750682D01*
X133165500Y-66329318D01*
X133386935Y-66863908D01*
X133796092Y-67273065D01*
X133885261Y-67310000D01*
X133796092Y-67346935D01*
X133386935Y-67756092D01*
X133165500Y-68290682D01*
X133165500Y-68869318D01*
X133386935Y-69403908D01*
X133796092Y-69813065D01*
X133885261Y-69850000D01*
X133796092Y-69886935D01*
X133386935Y-70296092D01*
X133165500Y-70830682D01*
X133165500Y-71409318D01*
X133386935Y-71943908D01*
X133796092Y-72353065D01*
X133885261Y-72390000D01*
X133796092Y-72426935D01*
X133386935Y-72836092D01*
X133165500Y-73370682D01*
X133165500Y-73949318D01*
X133386935Y-74483908D01*
X133796092Y-74893065D01*
X133885261Y-74930000D01*
X133796092Y-74966935D01*
X133386935Y-75376092D01*
X133165500Y-75910682D01*
X133165500Y-76489318D01*
X133386935Y-77023908D01*
X133796092Y-77433065D01*
X133885261Y-77470000D01*
X133796092Y-77506935D01*
X133386935Y-77916092D01*
X133165500Y-78450682D01*
X133165500Y-79029318D01*
X133386935Y-79563908D01*
X133796092Y-79973065D01*
X133885261Y-80010000D01*
X133796092Y-80046935D01*
X133386935Y-80456092D01*
X133165500Y-80990682D01*
X133165500Y-81569318D01*
X133386935Y-82103908D01*
X133796092Y-82513065D01*
X133885261Y-82550000D01*
X133796092Y-82586935D01*
X133386935Y-82996092D01*
X133165500Y-83530682D01*
X133165500Y-84109318D01*
X133386935Y-84643908D01*
X133796092Y-85053065D01*
X133885261Y-85090000D01*
X133796092Y-85126935D01*
X133386935Y-85536092D01*
X133165500Y-86070682D01*
X133165500Y-86649318D01*
X133386935Y-87183908D01*
X133796092Y-87593065D01*
X133885261Y-87630000D01*
X133796092Y-87666935D01*
X133386935Y-88076092D01*
X133165500Y-88610682D01*
X133165500Y-89189318D01*
X133386935Y-89723908D01*
X133796092Y-90133065D01*
X133885261Y-90170000D01*
X133796092Y-90206935D01*
X133386935Y-90616092D01*
X133165500Y-91150682D01*
X133165500Y-91729318D01*
X133386935Y-92263908D01*
X133796092Y-92673065D01*
X133885261Y-92710000D01*
X133796092Y-92746935D01*
X133386935Y-93156092D01*
X133165500Y-93690682D01*
X133165500Y-94269318D01*
X133386935Y-94803908D01*
X133796092Y-95213065D01*
X133885261Y-95250000D01*
X133796092Y-95286935D01*
X133386935Y-95696092D01*
X133165500Y-96230682D01*
X133165500Y-96809318D01*
X133386935Y-97343908D01*
X133796092Y-97753065D01*
X133885261Y-97790000D01*
X133796092Y-97826935D01*
X133386935Y-98236092D01*
X133165500Y-98770682D01*
X133165500Y-99349318D01*
X133386935Y-99883908D01*
X133796092Y-100293065D01*
X133885261Y-100330000D01*
X133796092Y-100366935D01*
X133386935Y-100776092D01*
X133165500Y-101310682D01*
X133165500Y-101889318D01*
X133386935Y-102423908D01*
X133796092Y-102833065D01*
X134330682Y-103054500D01*
X134909318Y-103054500D01*
X135443908Y-102833065D01*
X135853065Y-102423908D01*
X136074500Y-101889318D01*
X136074500Y-101310682D01*
X135853065Y-100776092D01*
X135443908Y-100366935D01*
X135354739Y-100330000D01*
X135443908Y-100293065D01*
X135853065Y-99883908D01*
X136074500Y-99349318D01*
X136074500Y-98770682D01*
X135853065Y-98236092D01*
X135443908Y-97826935D01*
X135354739Y-97790000D01*
X135443908Y-97753065D01*
X135853065Y-97343908D01*
X136074500Y-96809318D01*
X136074500Y-96230682D01*
X135853065Y-95696092D01*
X135760816Y-95603843D01*
X140703000Y-95603843D01*
X140703000Y-95912157D01*
X140820987Y-96197002D01*
X141038998Y-96415013D01*
X141323843Y-96533000D01*
X141632157Y-96533000D01*
X141917002Y-96415013D01*
X142135013Y-96197002D01*
X142253000Y-95912157D01*
X142253000Y-95603843D01*
X142232014Y-95553179D01*
X142241797Y-95503999D01*
X142232002Y-95454757D01*
X142232002Y-90258015D01*
X142389015Y-90101002D01*
X142507002Y-89816157D01*
X142507002Y-89507843D01*
X142389015Y-89222998D01*
X142171004Y-89004987D01*
X141886159Y-88887000D01*
X141577845Y-88887000D01*
X141293000Y-89004987D01*
X141074989Y-89222998D01*
X140957002Y-89507843D01*
X140957002Y-89816157D01*
X141074989Y-90101002D01*
X141232002Y-90258015D01*
X141232003Y-95021042D01*
X141038998Y-95100987D01*
X140820987Y-95318998D01*
X140703000Y-95603843D01*
X135760816Y-95603843D01*
X135443908Y-95286935D01*
X135354739Y-95250000D01*
X135443908Y-95213065D01*
X135853065Y-94803908D01*
X136074500Y-94269318D01*
X136074500Y-93690682D01*
X135853065Y-93156092D01*
X135443908Y-92746935D01*
X135354739Y-92710000D01*
X135443908Y-92673065D01*
X135853065Y-92263908D01*
X136074500Y-91729318D01*
X136074500Y-91150682D01*
X135853065Y-90616092D01*
X135443908Y-90206935D01*
X135354739Y-90170000D01*
X135443908Y-90133065D01*
X135853065Y-89723908D01*
X136074500Y-89189318D01*
X136074500Y-88610682D01*
X135853065Y-88076092D01*
X135443908Y-87666935D01*
X135354739Y-87630000D01*
X135443908Y-87593065D01*
X135853065Y-87183908D01*
X136074500Y-86649318D01*
X136074500Y-86070682D01*
X135853065Y-85536092D01*
X135443908Y-85126935D01*
X135354739Y-85090000D01*
X135443908Y-85053065D01*
X135853065Y-84643908D01*
X136074500Y-84109318D01*
X136074500Y-83530682D01*
X135853065Y-82996092D01*
X135443908Y-82586935D01*
X135354739Y-82550000D01*
X135443908Y-82513065D01*
X135853065Y-82103908D01*
X136074500Y-81569318D01*
X136074500Y-80990682D01*
X136025276Y-80871843D01*
X140195000Y-80871843D01*
X140195000Y-81180157D01*
X140312987Y-81465002D01*
X140381985Y-81534000D01*
X140312987Y-81602998D01*
X140195000Y-81887843D01*
X140195000Y-82196157D01*
X140312987Y-82481002D01*
X140530998Y-82699013D01*
X140815843Y-82817000D01*
X141124157Y-82817000D01*
X141409002Y-82699013D01*
X141566015Y-82542000D01*
X146364451Y-82542000D01*
X146246875Y-82825853D01*
X146246875Y-83134167D01*
X146364862Y-83419012D01*
X146521875Y-83576025D01*
X146521875Y-83594937D01*
X146521876Y-83594942D01*
X146521875Y-84382018D01*
X145609894Y-85294000D01*
X145387843Y-85294000D01*
X145301000Y-85329972D01*
X145301000Y-85189843D01*
X145183013Y-84904998D01*
X144965002Y-84686987D01*
X144680157Y-84569000D01*
X144371843Y-84569000D01*
X144086998Y-84686987D01*
X143929985Y-84844000D01*
X142043994Y-84844000D01*
X141886981Y-84686987D01*
X141602136Y-84569000D01*
X141293822Y-84569000D01*
X141008977Y-84686987D01*
X140790966Y-84904998D01*
X140672979Y-85189843D01*
X140672979Y-85498157D01*
X140790966Y-85783002D01*
X140986964Y-85979000D01*
X140790966Y-86174998D01*
X140672979Y-86459843D01*
X140672979Y-86768157D01*
X140790966Y-87053002D01*
X141008977Y-87271013D01*
X141293822Y-87389000D01*
X141602136Y-87389000D01*
X141886981Y-87271013D01*
X142104992Y-87053002D01*
X142184936Y-86860000D01*
X143183985Y-86860000D01*
X143106987Y-86936998D01*
X142989000Y-87221843D01*
X142989000Y-87530157D01*
X143106987Y-87815002D01*
X143324998Y-88033013D01*
X143609843Y-88151000D01*
X143825251Y-88151000D01*
X143968909Y-88246988D01*
X144114756Y-88275999D01*
X144114757Y-88275999D01*
X144163998Y-88285794D01*
X144213240Y-88275999D01*
X144348406Y-88275999D01*
X144259000Y-88491843D01*
X144259000Y-88800157D01*
X144376987Y-89085002D01*
X144594998Y-89303013D01*
X144879843Y-89421000D01*
X145188157Y-89421000D01*
X145238824Y-89400013D01*
X145287999Y-89409795D01*
X145337240Y-89400000D01*
X148657724Y-89400000D01*
X148756133Y-89637581D01*
X149122419Y-90003867D01*
X149523500Y-90170000D01*
X149122419Y-90336133D01*
X148756133Y-90702419D01*
X148657724Y-90940000D01*
X146392015Y-90940000D01*
X146235002Y-90782987D01*
X145950157Y-90665000D01*
X145641843Y-90665000D01*
X145356998Y-90782987D01*
X145138987Y-91000998D01*
X145021000Y-91285843D01*
X145021000Y-91594157D01*
X145138987Y-91879002D01*
X145356998Y-92097013D01*
X145641843Y-92215000D01*
X145950157Y-92215000D01*
X146235002Y-92097013D01*
X146392015Y-91940000D01*
X148657724Y-91940000D01*
X148756133Y-92177581D01*
X149122419Y-92543867D01*
X149523500Y-92710000D01*
X149122419Y-92876133D01*
X148756133Y-93242419D01*
X148557900Y-93720996D01*
X148557900Y-94239004D01*
X148656309Y-94476585D01*
X148382894Y-94750000D01*
X144106015Y-94750000D01*
X143949002Y-94592987D01*
X143664157Y-94475000D01*
X143355843Y-94475000D01*
X143070998Y-94592987D01*
X142852987Y-94810998D01*
X142735000Y-95095843D01*
X142735000Y-95404157D01*
X142852987Y-95689002D01*
X143048985Y-95885000D01*
X142852987Y-96080998D01*
X142735000Y-96365843D01*
X142735000Y-96674157D01*
X142852987Y-96959002D01*
X143070998Y-97177013D01*
X143355843Y-97295000D01*
X143664157Y-97295000D01*
X143949002Y-97177013D01*
X144106015Y-97020000D01*
X147150179Y-97020000D01*
X147048347Y-97265843D01*
X147048347Y-97574157D01*
X147166334Y-97859002D01*
X147384345Y-98077013D01*
X147669190Y-98195000D01*
X147977504Y-98195000D01*
X148262349Y-98077013D01*
X148300644Y-98038718D01*
X148370657Y-98108732D01*
X148398552Y-98150480D01*
X148563942Y-98260989D01*
X148709789Y-98290000D01*
X148709790Y-98290000D01*
X148759031Y-98299795D01*
X148783655Y-98294897D01*
X148756133Y-98322419D01*
X148557900Y-98800996D01*
X148557900Y-99319004D01*
X148756133Y-99797581D01*
X149122419Y-100163867D01*
X149523500Y-100330000D01*
X149122419Y-100496133D01*
X148756133Y-100862419D01*
X148557900Y-101340996D01*
X148557900Y-101859004D01*
X148756133Y-102337581D01*
X149122419Y-102703867D01*
X149523500Y-102870000D01*
X149122419Y-103036133D01*
X148756133Y-103402419D01*
X148557900Y-103880996D01*
X148557900Y-104399004D01*
X148756133Y-104877581D01*
X149122419Y-105243867D01*
X149600996Y-105442100D01*
X150119004Y-105442100D01*
X150597581Y-105243867D01*
X150963867Y-104877581D01*
X151162100Y-104399004D01*
X151162100Y-103880996D01*
X150963867Y-103402419D01*
X150597581Y-103036133D01*
X150196500Y-102870000D01*
X150597581Y-102703867D01*
X150963867Y-102337581D01*
X151162100Y-101859004D01*
X151162100Y-101340996D01*
X150963867Y-100862419D01*
X150597581Y-100496133D01*
X150196500Y-100330000D01*
X150597581Y-100163867D01*
X150963867Y-99797581D01*
X151162100Y-99319004D01*
X151162100Y-98800996D01*
X150963867Y-98322419D01*
X150930419Y-98288971D01*
X151071090Y-98260989D01*
X151236480Y-98150480D01*
X151264376Y-98108730D01*
X151956733Y-97416374D01*
X151998480Y-97388480D01*
X152108989Y-97223090D01*
X152138000Y-97077243D01*
X152138000Y-97077242D01*
X152147795Y-97028000D01*
X152138000Y-96978757D01*
X152138000Y-93013243D01*
X152147795Y-92964000D01*
X152108989Y-92768910D01*
X152091075Y-92742100D01*
X151998480Y-92603520D01*
X151956732Y-92575625D01*
X151724999Y-92343893D01*
X151724999Y-90282107D01*
X151938374Y-90068733D01*
X151938376Y-90068730D01*
X151948013Y-90059093D01*
X152279348Y-90125000D01*
X152520652Y-90125000D01*
X152877971Y-90053925D01*
X153283176Y-89783176D01*
X153553925Y-89377971D01*
X153648999Y-88900000D01*
X153553925Y-88422029D01*
X153283176Y-88016824D01*
X152877971Y-87746075D01*
X152520652Y-87675000D01*
X152279348Y-87675000D01*
X151922029Y-87746075D01*
X151516824Y-88016824D01*
X151246075Y-88422029D01*
X151162100Y-88844201D01*
X151162100Y-88640996D01*
X150963867Y-88162419D01*
X150913549Y-88112101D01*
X151098658Y-88112101D01*
X151147899Y-88121896D01*
X151197140Y-88112101D01*
X151197142Y-88112101D01*
X151342989Y-88083090D01*
X151508379Y-87972581D01*
X151536275Y-87930831D01*
X151938374Y-87528733D01*
X151938376Y-87528730D01*
X151948013Y-87519093D01*
X152279348Y-87585000D01*
X152520652Y-87585000D01*
X152877971Y-87513925D01*
X153283176Y-87243176D01*
X153553925Y-86837971D01*
X153648999Y-86360000D01*
X153553925Y-85882029D01*
X153283176Y-85476824D01*
X152877971Y-85206075D01*
X152520652Y-85135000D01*
X152279348Y-85135000D01*
X151922029Y-85206075D01*
X151516824Y-85476824D01*
X151246075Y-85882029D01*
X151162100Y-86304201D01*
X151162100Y-86100996D01*
X150963867Y-85622419D01*
X150949347Y-85607899D01*
X151062860Y-85607899D01*
X151112101Y-85617694D01*
X151161342Y-85607899D01*
X151161344Y-85607899D01*
X151307191Y-85578888D01*
X151472581Y-85468379D01*
X151500477Y-85426629D01*
X151948013Y-84979094D01*
X152279348Y-85045000D01*
X152520652Y-85045000D01*
X152877971Y-84973925D01*
X153283176Y-84703176D01*
X153553925Y-84297971D01*
X153648999Y-83820000D01*
X153553925Y-83342029D01*
X153283176Y-82936824D01*
X152877971Y-82666075D01*
X152520652Y-82595000D01*
X152279348Y-82595000D01*
X151922029Y-82666075D01*
X151516824Y-82936824D01*
X151246075Y-83342029D01*
X151162100Y-83764201D01*
X151162100Y-83560996D01*
X150963867Y-83082419D01*
X150931448Y-83050000D01*
X151080759Y-83050000D01*
X151130000Y-83059795D01*
X151179241Y-83050000D01*
X151179243Y-83050000D01*
X151325090Y-83020989D01*
X151490480Y-82910480D01*
X151518376Y-82868730D01*
X151948013Y-82439094D01*
X152279348Y-82505000D01*
X152520652Y-82505000D01*
X152877971Y-82433925D01*
X153283176Y-82163176D01*
X153553925Y-81757971D01*
X153648999Y-81280000D01*
X153553925Y-80802029D01*
X153283176Y-80396824D01*
X152877971Y-80126075D01*
X152520652Y-80055000D01*
X152279348Y-80055000D01*
X151922029Y-80126075D01*
X151516824Y-80396824D01*
X151246075Y-80802029D01*
X151162100Y-81224201D01*
X151162100Y-81020996D01*
X150963867Y-80542419D01*
X150597581Y-80176133D01*
X150196500Y-80010000D01*
X150597581Y-79843867D01*
X150963867Y-79477581D01*
X151162100Y-78999004D01*
X151162100Y-78795799D01*
X151246075Y-79217971D01*
X151516824Y-79623176D01*
X151922029Y-79893925D01*
X152279348Y-79965000D01*
X152520652Y-79965000D01*
X152877971Y-79893925D01*
X153283176Y-79623176D01*
X153553925Y-79217971D01*
X153648999Y-78740000D01*
X153553925Y-78262029D01*
X153283176Y-77856824D01*
X152877971Y-77586075D01*
X152520652Y-77515000D01*
X152279348Y-77515000D01*
X151948013Y-77580907D01*
X151536275Y-77169169D01*
X151508379Y-77127419D01*
X151342989Y-77016910D01*
X151197142Y-76987899D01*
X151197140Y-76987899D01*
X151147899Y-76978104D01*
X151098658Y-76987899D01*
X150913549Y-76987899D01*
X150963867Y-76937581D01*
X151162100Y-76459004D01*
X151162100Y-76255799D01*
X151246075Y-76677971D01*
X151516824Y-77083176D01*
X151922029Y-77353925D01*
X152279348Y-77425000D01*
X152520652Y-77425000D01*
X152877971Y-77353925D01*
X153283176Y-77083176D01*
X153553925Y-76677971D01*
X153648999Y-76200000D01*
X153553925Y-75722029D01*
X153283176Y-75316824D01*
X152877971Y-75046075D01*
X152520652Y-74975000D01*
X152279348Y-74975000D01*
X151948013Y-75040906D01*
X151500477Y-74593371D01*
X151472581Y-74551621D01*
X151307191Y-74441112D01*
X151161344Y-74412101D01*
X151161342Y-74412101D01*
X151112101Y-74402306D01*
X151062860Y-74412101D01*
X150949347Y-74412101D01*
X150963867Y-74397581D01*
X151162100Y-73919004D01*
X151162100Y-73715799D01*
X151246075Y-74137971D01*
X151516824Y-74543176D01*
X151922029Y-74813925D01*
X152279348Y-74885000D01*
X152520652Y-74885000D01*
X152877971Y-74813925D01*
X153283176Y-74543176D01*
X153553925Y-74137971D01*
X153648999Y-73660000D01*
X153553925Y-73182029D01*
X153283176Y-72776824D01*
X152877971Y-72506075D01*
X152520652Y-72435000D01*
X152279348Y-72435000D01*
X151948013Y-72500906D01*
X151518376Y-72071270D01*
X151490480Y-72029520D01*
X151325090Y-71919011D01*
X151179243Y-71890000D01*
X151179241Y-71890000D01*
X151130000Y-71880205D01*
X151080759Y-71890000D01*
X150931448Y-71890000D01*
X150963867Y-71857581D01*
X151162100Y-71379004D01*
X151162100Y-71175799D01*
X151246075Y-71597971D01*
X151516824Y-72003176D01*
X151922029Y-72273925D01*
X152279348Y-72345000D01*
X152520652Y-72345000D01*
X152877971Y-72273925D01*
X153283176Y-72003176D01*
X153553925Y-71597971D01*
X153648999Y-71120000D01*
X153553925Y-70642029D01*
X153283176Y-70236824D01*
X152877971Y-69966075D01*
X152520652Y-69895000D01*
X152279348Y-69895000D01*
X151948013Y-69960906D01*
X151799452Y-69812346D01*
X153250000Y-69812346D01*
X153396317Y-69783242D01*
X153520359Y-69700359D01*
X153603242Y-69576317D01*
X153632346Y-69430000D01*
X153632346Y-68014052D01*
X153632989Y-68013090D01*
X153662000Y-67867243D01*
X153662000Y-67867242D01*
X153671795Y-67818000D01*
X153662000Y-67768757D01*
X153662000Y-66128011D01*
X153819013Y-65970998D01*
X153937000Y-65686153D01*
X153937000Y-65377839D01*
X153819013Y-65092994D01*
X153601002Y-64874983D01*
X153316157Y-64756996D01*
X153007843Y-64756996D01*
X152722998Y-64874983D01*
X152504987Y-65092994D01*
X152387000Y-65377839D01*
X152387000Y-65686153D01*
X152504987Y-65970998D01*
X152662001Y-66128012D01*
X152662000Y-67347654D01*
X151799453Y-67347654D01*
X151956733Y-67190374D01*
X151998480Y-67162480D01*
X152108989Y-66997090D01*
X152138000Y-66851243D01*
X152138000Y-66851242D01*
X152147795Y-66802000D01*
X152138000Y-66752757D01*
X152138000Y-65327240D01*
X152147795Y-65277999D01*
X152127560Y-65176272D01*
X152108989Y-65082910D01*
X151998480Y-64917520D01*
X151956732Y-64889625D01*
X151536275Y-64469169D01*
X151508379Y-64427419D01*
X151342989Y-64316910D01*
X151197142Y-64287899D01*
X151197140Y-64287899D01*
X151147899Y-64278104D01*
X151098658Y-64287899D01*
X150913549Y-64287899D01*
X150963867Y-64237581D01*
X151162100Y-63759004D01*
X151162100Y-63240996D01*
X150963867Y-62762419D01*
X150597581Y-62396133D01*
X150196500Y-62230000D01*
X150597581Y-62063867D01*
X150963867Y-61697581D01*
X151162100Y-61219004D01*
X151162100Y-60700996D01*
X150963867Y-60222419D01*
X150597581Y-59856133D01*
X150196500Y-59690000D01*
X150597581Y-59523867D01*
X150963867Y-59157581D01*
X151162100Y-58679004D01*
X151162100Y-58160996D01*
X150963867Y-57682419D01*
X150597581Y-57316133D01*
X150196500Y-57150000D01*
X150597581Y-56983867D01*
X150963867Y-56617581D01*
X151162100Y-56139004D01*
X151162100Y-55620996D01*
X150963867Y-55142419D01*
X150597581Y-54776133D01*
X150119004Y-54577900D01*
X149600996Y-54577900D01*
X149122419Y-54776133D01*
X148756133Y-55142419D01*
X148557900Y-55620996D01*
X148557900Y-56139004D01*
X148756133Y-56617581D01*
X149122419Y-56983867D01*
X149523500Y-57150000D01*
X149122419Y-57316133D01*
X148756133Y-57682419D01*
X148557900Y-58160996D01*
X148557900Y-58679004D01*
X148756133Y-59157581D01*
X149122419Y-59523867D01*
X149523500Y-59690000D01*
X149122419Y-59856133D01*
X148756133Y-60222419D01*
X148657724Y-60460000D01*
X145083243Y-60460000D01*
X145034000Y-60450205D01*
X144984757Y-60460000D01*
X144838910Y-60489011D01*
X144673520Y-60599520D01*
X144645625Y-60641268D01*
X140905271Y-64381623D01*
X140863520Y-64409520D01*
X140753011Y-64574911D01*
X140724000Y-64720757D01*
X140714205Y-64770000D01*
X140724000Y-64819241D01*
X140724001Y-70562754D01*
X140714205Y-70612000D01*
X140753012Y-70807090D01*
X140863521Y-70972480D01*
X140905268Y-71000374D01*
X141851625Y-71946732D01*
X141879520Y-71988480D01*
X142044910Y-72098989D01*
X142190757Y-72128000D01*
X142190758Y-72128000D01*
X142240000Y-72137795D01*
X142289241Y-72128000D01*
X144767000Y-72128000D01*
X144767000Y-72290157D01*
X144884987Y-72575002D01*
X145102998Y-72793013D01*
X145387843Y-72911000D01*
X145696157Y-72911000D01*
X145981002Y-72793013D01*
X146199013Y-72575002D01*
X146317000Y-72290157D01*
X146317000Y-71981843D01*
X146199013Y-71696998D01*
X145981002Y-71478987D01*
X145696157Y-71361000D01*
X145474106Y-71361000D01*
X145422376Y-71309270D01*
X145412283Y-71294164D01*
X145473002Y-71269013D01*
X145691013Y-71051002D01*
X145809000Y-70766157D01*
X145809000Y-70457843D01*
X145691013Y-70172998D01*
X145534000Y-70015985D01*
X145534000Y-64254000D01*
X146485981Y-64254000D01*
X146404325Y-64335656D01*
X146286338Y-64620501D01*
X146286338Y-64928815D01*
X146404325Y-65213660D01*
X146622336Y-65431671D01*
X146907181Y-65549658D01*
X147129231Y-65549658D01*
X147142603Y-65563030D01*
X147142606Y-65563032D01*
X147374204Y-65794630D01*
X147130345Y-65895640D01*
X146912334Y-66113651D01*
X146794347Y-66398496D01*
X146794347Y-66706810D01*
X146912334Y-66991655D01*
X147064651Y-67143972D01*
X147090315Y-67272989D01*
X147098359Y-67313428D01*
X147208868Y-67478818D01*
X147250616Y-67506713D01*
X147257961Y-67514058D01*
X147257157Y-67513725D01*
X146948843Y-67513725D01*
X146663998Y-67631712D01*
X146445987Y-67849723D01*
X146328000Y-68134568D01*
X146328000Y-68442882D01*
X146445987Y-68727727D01*
X146603000Y-68884740D01*
X146603001Y-73393754D01*
X146593205Y-73443000D01*
X146632012Y-73638090D01*
X146742521Y-73803480D01*
X146784268Y-73831374D01*
X148183726Y-75230833D01*
X148211621Y-75272581D01*
X148366538Y-75376092D01*
X148377011Y-75383090D01*
X148572101Y-75421897D01*
X148621347Y-75412101D01*
X148806451Y-75412101D01*
X148756133Y-75462419D01*
X148557900Y-75940996D01*
X148557900Y-76459004D01*
X148756133Y-76937581D01*
X148855308Y-77036756D01*
X148719621Y-77127419D01*
X148691726Y-77169167D01*
X145334894Y-80526000D01*
X141566015Y-80526000D01*
X141409002Y-80368987D01*
X141124157Y-80251000D01*
X140815843Y-80251000D01*
X140530998Y-80368987D01*
X140312987Y-80586998D01*
X140195000Y-80871843D01*
X136025276Y-80871843D01*
X135853065Y-80456092D01*
X135443908Y-80046935D01*
X135354739Y-80010000D01*
X135443908Y-79973065D01*
X135853065Y-79563908D01*
X136074500Y-79029318D01*
X136074500Y-78450682D01*
X135853065Y-77916092D01*
X135443908Y-77506935D01*
X135354739Y-77470000D01*
X135443908Y-77433065D01*
X135853065Y-77023908D01*
X136074500Y-76489318D01*
X136074500Y-75910682D01*
X135853065Y-75376092D01*
X135443908Y-74966935D01*
X135354739Y-74930000D01*
X135443908Y-74893065D01*
X135853065Y-74483908D01*
X136074500Y-73949318D01*
X136074500Y-73370682D01*
X135853065Y-72836092D01*
X135443908Y-72426935D01*
X135354739Y-72390000D01*
X135443908Y-72353065D01*
X135853065Y-71943908D01*
X136074500Y-71409318D01*
X136074500Y-70830682D01*
X135853065Y-70296092D01*
X135443908Y-69886935D01*
X135354739Y-69850000D01*
X135443908Y-69813065D01*
X135853065Y-69403908D01*
X136074500Y-68869318D01*
X136074500Y-68290682D01*
X135853065Y-67756092D01*
X135443908Y-67346935D01*
X135354739Y-67310000D01*
X135443908Y-67273065D01*
X135853065Y-66863908D01*
X136074500Y-66329318D01*
X136074500Y-65750682D01*
X135853065Y-65216092D01*
X135443908Y-64806935D01*
X135354739Y-64770000D01*
X135443908Y-64733065D01*
X135853065Y-64323908D01*
X136074500Y-63789318D01*
X136074500Y-63210682D01*
X135853065Y-62676092D01*
X135443908Y-62266935D01*
X135354739Y-62230000D01*
X135443908Y-62193065D01*
X135853065Y-61783908D01*
X136074500Y-61249318D01*
X136074500Y-60670682D01*
X135853065Y-60136092D01*
X135443908Y-59726935D01*
X135354739Y-59690000D01*
X135443908Y-59653065D01*
X135853065Y-59243908D01*
X136074500Y-58709318D01*
X136074500Y-58130682D01*
X135853065Y-57596092D01*
X135443908Y-57186935D01*
X135354739Y-57150000D01*
X135443908Y-57113065D01*
X135853065Y-56703908D01*
X136074500Y-56169318D01*
X136074500Y-55979843D01*
X143497000Y-55979843D01*
X143497000Y-56288157D01*
X143614987Y-56573002D01*
X143832998Y-56791013D01*
X144117843Y-56909000D01*
X144426157Y-56909000D01*
X144711002Y-56791013D01*
X144868015Y-56634000D01*
X146469985Y-56634000D01*
X146626998Y-56791013D01*
X146911843Y-56909000D01*
X147220157Y-56909000D01*
X147505002Y-56791013D01*
X147723013Y-56573002D01*
X147841000Y-56288157D01*
X147841000Y-55979843D01*
X147723013Y-55694998D01*
X147505002Y-55476987D01*
X147220157Y-55359000D01*
X146911843Y-55359000D01*
X146626998Y-55476987D01*
X146469985Y-55634000D01*
X144868015Y-55634000D01*
X144711002Y-55476987D01*
X144426157Y-55359000D01*
X144117843Y-55359000D01*
X143832998Y-55476987D01*
X143614987Y-55694998D01*
X143497000Y-55979843D01*
X136074500Y-55979843D01*
X136074500Y-55590682D01*
X135853065Y-55056092D01*
X135443908Y-54646935D01*
X134909318Y-54425500D01*
X134330682Y-54425500D01*
X133796092Y-54646935D01*
X133386935Y-55056092D01*
X133165500Y-55590682D01*
X132530000Y-55590682D01*
X132530000Y-53790000D01*
X155760000Y-53790000D01*
X155760000Y-60937985D01*
X155760000Y-60937985D01*
G37*
X155760000Y-60937985D02*
X155633002Y-60810987D01*
X155348157Y-60693000D01*
X155039843Y-60693000D01*
X154754998Y-60810987D01*
X154536987Y-61028998D01*
X154457043Y-61222000D01*
X153636015Y-61222000D01*
X153479002Y-61064987D01*
X153194157Y-60947000D01*
X152885843Y-60947000D01*
X152600998Y-61064987D01*
X152382987Y-61282998D01*
X152265000Y-61567843D01*
X152265000Y-61876157D01*
X152382987Y-62161002D01*
X152600998Y-62379013D01*
X152885843Y-62497000D01*
X153194157Y-62497000D01*
X153479002Y-62379013D01*
X153636015Y-62222000D01*
X154890759Y-62222000D01*
X154940000Y-62231795D01*
X154989176Y-62222013D01*
X155039843Y-62243000D01*
X155348157Y-62243000D01*
X155633002Y-62125013D01*
X155760000Y-61998015D01*
X155760000Y-67654611D01*
X155417971Y-67426075D01*
X155060652Y-67355000D01*
X154819348Y-67355000D01*
X154462029Y-67426075D01*
X154056824Y-67696824D01*
X153786075Y-68102029D01*
X153691001Y-68580000D01*
X153786075Y-69057971D01*
X154056824Y-69463176D01*
X154462029Y-69733925D01*
X154819348Y-69805000D01*
X155060652Y-69805000D01*
X155417971Y-69733925D01*
X155760000Y-69505389D01*
X155760000Y-70194611D01*
X155417971Y-69966075D01*
X155060652Y-69895000D01*
X154819348Y-69895000D01*
X154462029Y-69966075D01*
X154056824Y-70236824D01*
X153786075Y-70642029D01*
X153691001Y-71120000D01*
X153786075Y-71597971D01*
X154056824Y-72003176D01*
X154462029Y-72273925D01*
X154819348Y-72345000D01*
X155060652Y-72345000D01*
X155417971Y-72273925D01*
X155760000Y-72045389D01*
X155760000Y-72734611D01*
X155417971Y-72506075D01*
X155060652Y-72435000D01*
X154819348Y-72435000D01*
X154462029Y-72506075D01*
X154056824Y-72776824D01*
X153786075Y-73182029D01*
X153691001Y-73660000D01*
X153786075Y-74137971D01*
X154056824Y-74543176D01*
X154462029Y-74813925D01*
X154819348Y-74885000D01*
X155060652Y-74885000D01*
X155417971Y-74813925D01*
X155760000Y-74585389D01*
X155760000Y-75274611D01*
X155417971Y-75046075D01*
X155060652Y-74975000D01*
X154819348Y-74975000D01*
X154462029Y-75046075D01*
X154056824Y-75316824D01*
X153786075Y-75722029D01*
X153691001Y-76200000D01*
X153786075Y-76677971D01*
X154056824Y-77083176D01*
X154462029Y-77353925D01*
X154819348Y-77425000D01*
X155060652Y-77425000D01*
X155417971Y-77353925D01*
X155760000Y-77125389D01*
X155760000Y-77814612D01*
X155417971Y-77586075D01*
X155060652Y-77515000D01*
X154819348Y-77515000D01*
X154462029Y-77586075D01*
X154056824Y-77856824D01*
X153786075Y-78262029D01*
X153691001Y-78740000D01*
X153786075Y-79217971D01*
X154056824Y-79623176D01*
X154462029Y-79893925D01*
X154819348Y-79965000D01*
X155060652Y-79965000D01*
X155417971Y-79893925D01*
X155760000Y-79665388D01*
X155760001Y-80354612D01*
X155417971Y-80126075D01*
X155060652Y-80055000D01*
X154819348Y-80055000D01*
X154462029Y-80126075D01*
X154056824Y-80396824D01*
X153786075Y-80802029D01*
X153691001Y-81280000D01*
X153786075Y-81757971D01*
X154056824Y-82163176D01*
X154462029Y-82433925D01*
X154819348Y-82505000D01*
X155060652Y-82505000D01*
X155417971Y-82433925D01*
X155760001Y-82205388D01*
X155760001Y-82894612D01*
X155417971Y-82666075D01*
X155060652Y-82595000D01*
X154819348Y-82595000D01*
X154462029Y-82666075D01*
X154056824Y-82936824D01*
X153786075Y-83342029D01*
X153691001Y-83820000D01*
X153786075Y-84297971D01*
X154056824Y-84703176D01*
X154462029Y-84973925D01*
X154819348Y-85045000D01*
X155060652Y-85045000D01*
X155417971Y-84973925D01*
X155760001Y-84745388D01*
X155760001Y-85434612D01*
X155417971Y-85206075D01*
X155060652Y-85135000D01*
X154819348Y-85135000D01*
X154462029Y-85206075D01*
X154056824Y-85476824D01*
X153786075Y-85882029D01*
X153691001Y-86360000D01*
X153786075Y-86837971D01*
X154056824Y-87243176D01*
X154462029Y-87513925D01*
X154819348Y-87585000D01*
X155060652Y-87585000D01*
X155417971Y-87513925D01*
X155760001Y-87285388D01*
X155760001Y-87974612D01*
X155417971Y-87746075D01*
X155060652Y-87675000D01*
X154819348Y-87675000D01*
X154462029Y-87746075D01*
X154056824Y-88016824D01*
X153786075Y-88422029D01*
X153691001Y-88900000D01*
X153786075Y-89377971D01*
X154056824Y-89783176D01*
X154462029Y-90053925D01*
X154819348Y-90125000D01*
X155060652Y-90125000D01*
X155417971Y-90053925D01*
X155760001Y-89825388D01*
X155760001Y-90514612D01*
X155417971Y-90286075D01*
X155060652Y-90215000D01*
X154819348Y-90215000D01*
X154462029Y-90286075D01*
X154056824Y-90556824D01*
X153786075Y-90962029D01*
X153691001Y-91440000D01*
X153786075Y-91917971D01*
X154056824Y-92323176D01*
X154462029Y-92593925D01*
X154819348Y-92665000D01*
X155060652Y-92665000D01*
X155417971Y-92593925D01*
X155760001Y-92365388D01*
X155760001Y-106230000D01*
X132530000Y-106230000D01*
X132530000Y-55590682D01*
X133165500Y-55590682D01*
X133165500Y-56169318D01*
X133386935Y-56703908D01*
X133796092Y-57113065D01*
X133885261Y-57150000D01*
X133796092Y-57186935D01*
X133386935Y-57596092D01*
X133165500Y-58130682D01*
X133165500Y-58709318D01*
X133386935Y-59243908D01*
X133796092Y-59653065D01*
X133885261Y-59690000D01*
X133796092Y-59726935D01*
X133386935Y-60136092D01*
X133165500Y-60670682D01*
X133165500Y-61249318D01*
X133386935Y-61783908D01*
X133796092Y-62193065D01*
X133885261Y-62230000D01*
X133796092Y-62266935D01*
X133386935Y-62676092D01*
X133165500Y-63210682D01*
X133165500Y-63789318D01*
X133386935Y-64323908D01*
X133796092Y-64733065D01*
X133885261Y-64770000D01*
X133796092Y-64806935D01*
X133386935Y-65216092D01*
X133165500Y-65750682D01*
X133165500Y-66329318D01*
X133386935Y-66863908D01*
X133796092Y-67273065D01*
X133885261Y-67310000D01*
X133796092Y-67346935D01*
X133386935Y-67756092D01*
X133165500Y-68290682D01*
X133165500Y-68869318D01*
X133386935Y-69403908D01*
X133796092Y-69813065D01*
X133885261Y-69850000D01*
X133796092Y-69886935D01*
X133386935Y-70296092D01*
X133165500Y-70830682D01*
X133165500Y-71409318D01*
X133386935Y-71943908D01*
X133796092Y-72353065D01*
X133885261Y-72390000D01*
X133796092Y-72426935D01*
X133386935Y-72836092D01*
X133165500Y-73370682D01*
X133165500Y-73949318D01*
X133386935Y-74483908D01*
X133796092Y-74893065D01*
X133885261Y-74930000D01*
X133796092Y-74966935D01*
X133386935Y-75376092D01*
X133165500Y-75910682D01*
X133165500Y-76489318D01*
X133386935Y-77023908D01*
X133796092Y-77433065D01*
X133885261Y-77470000D01*
X133796092Y-77506935D01*
X133386935Y-77916092D01*
X133165500Y-78450682D01*
X133165500Y-79029318D01*
X133386935Y-79563908D01*
X133796092Y-79973065D01*
X133885261Y-80010000D01*
X133796092Y-80046935D01*
X133386935Y-80456092D01*
X133165500Y-80990682D01*
X133165500Y-81569318D01*
X133386935Y-82103908D01*
X133796092Y-82513065D01*
X133885261Y-82550000D01*
X133796092Y-82586935D01*
X133386935Y-82996092D01*
X133165500Y-83530682D01*
X133165500Y-84109318D01*
X133386935Y-84643908D01*
X133796092Y-85053065D01*
X133885261Y-85090000D01*
X133796092Y-85126935D01*
X133386935Y-85536092D01*
X133165500Y-86070682D01*
X133165500Y-86649318D01*
X133386935Y-87183908D01*
X133796092Y-87593065D01*
X133885261Y-87630000D01*
X133796092Y-87666935D01*
X133386935Y-88076092D01*
X133165500Y-88610682D01*
X133165500Y-89189318D01*
X133386935Y-89723908D01*
X133796092Y-90133065D01*
X133885261Y-90170000D01*
X133796092Y-90206935D01*
X133386935Y-90616092D01*
X133165500Y-91150682D01*
X133165500Y-91729318D01*
X133386935Y-92263908D01*
X133796092Y-92673065D01*
X133885261Y-92710000D01*
X133796092Y-92746935D01*
X133386935Y-93156092D01*
X133165500Y-93690682D01*
X133165500Y-94269318D01*
X133386935Y-94803908D01*
X133796092Y-95213065D01*
X133885261Y-95250000D01*
X133796092Y-95286935D01*
X133386935Y-95696092D01*
X133165500Y-96230682D01*
X133165500Y-96809318D01*
X133386935Y-97343908D01*
X133796092Y-97753065D01*
X133885261Y-97790000D01*
X133796092Y-97826935D01*
X133386935Y-98236092D01*
X133165500Y-98770682D01*
X133165500Y-99349318D01*
X133386935Y-99883908D01*
X133796092Y-100293065D01*
X133885261Y-100330000D01*
X133796092Y-100366935D01*
X133386935Y-100776092D01*
X133165500Y-101310682D01*
X133165500Y-101889318D01*
X133386935Y-102423908D01*
X133796092Y-102833065D01*
X134330682Y-103054500D01*
X134909318Y-103054500D01*
X135443908Y-102833065D01*
X135853065Y-102423908D01*
X136074500Y-101889318D01*
X136074500Y-101310682D01*
X135853065Y-100776092D01*
X135443908Y-100366935D01*
X135354739Y-100330000D01*
X135443908Y-100293065D01*
X135853065Y-99883908D01*
X136074500Y-99349318D01*
X136074500Y-98770682D01*
X135853065Y-98236092D01*
X135443908Y-97826935D01*
X135354739Y-97790000D01*
X135443908Y-97753065D01*
X135853065Y-97343908D01*
X136074500Y-96809318D01*
X136074500Y-96230682D01*
X135853065Y-95696092D01*
X135760816Y-95603843D01*
X140703000Y-95603843D01*
X140703000Y-95912157D01*
X140820987Y-96197002D01*
X141038998Y-96415013D01*
X141323843Y-96533000D01*
X141632157Y-96533000D01*
X141917002Y-96415013D01*
X142135013Y-96197002D01*
X142253000Y-95912157D01*
X142253000Y-95603843D01*
X142232014Y-95553179D01*
X142241797Y-95503999D01*
X142232002Y-95454757D01*
X142232002Y-90258015D01*
X142389015Y-90101002D01*
X142507002Y-89816157D01*
X142507002Y-89507843D01*
X142389015Y-89222998D01*
X142171004Y-89004987D01*
X141886159Y-88887000D01*
X141577845Y-88887000D01*
X141293000Y-89004987D01*
X141074989Y-89222998D01*
X140957002Y-89507843D01*
X140957002Y-89816157D01*
X141074989Y-90101002D01*
X141232002Y-90258015D01*
X141232003Y-95021042D01*
X141038998Y-95100987D01*
X140820987Y-95318998D01*
X140703000Y-95603843D01*
X135760816Y-95603843D01*
X135443908Y-95286935D01*
X135354739Y-95250000D01*
X135443908Y-95213065D01*
X135853065Y-94803908D01*
X136074500Y-94269318D01*
X136074500Y-93690682D01*
X135853065Y-93156092D01*
X135443908Y-92746935D01*
X135354739Y-92710000D01*
X135443908Y-92673065D01*
X135853065Y-92263908D01*
X136074500Y-91729318D01*
X136074500Y-91150682D01*
X135853065Y-90616092D01*
X135443908Y-90206935D01*
X135354739Y-90170000D01*
X135443908Y-90133065D01*
X135853065Y-89723908D01*
X136074500Y-89189318D01*
X136074500Y-88610682D01*
X135853065Y-88076092D01*
X135443908Y-87666935D01*
X135354739Y-87630000D01*
X135443908Y-87593065D01*
X135853065Y-87183908D01*
X136074500Y-86649318D01*
X136074500Y-86070682D01*
X135853065Y-85536092D01*
X135443908Y-85126935D01*
X135354739Y-85090000D01*
X135443908Y-85053065D01*
X135853065Y-84643908D01*
X136074500Y-84109318D01*
X136074500Y-83530682D01*
X135853065Y-82996092D01*
X135443908Y-82586935D01*
X135354739Y-82550000D01*
X135443908Y-82513065D01*
X135853065Y-82103908D01*
X136074500Y-81569318D01*
X136074500Y-80990682D01*
X136025276Y-80871843D01*
X140195000Y-80871843D01*
X140195000Y-81180157D01*
X140312987Y-81465002D01*
X140381985Y-81534000D01*
X140312987Y-81602998D01*
X140195000Y-81887843D01*
X140195000Y-82196157D01*
X140312987Y-82481002D01*
X140530998Y-82699013D01*
X140815843Y-82817000D01*
X141124157Y-82817000D01*
X141409002Y-82699013D01*
X141566015Y-82542000D01*
X146364451Y-82542000D01*
X146246875Y-82825853D01*
X146246875Y-83134167D01*
X146364862Y-83419012D01*
X146521875Y-83576025D01*
X146521875Y-83594937D01*
X146521876Y-83594942D01*
X146521875Y-84382018D01*
X145609894Y-85294000D01*
X145387843Y-85294000D01*
X145301000Y-85329972D01*
X145301000Y-85189843D01*
X145183013Y-84904998D01*
X144965002Y-84686987D01*
X144680157Y-84569000D01*
X144371843Y-84569000D01*
X144086998Y-84686987D01*
X143929985Y-84844000D01*
X142043994Y-84844000D01*
X141886981Y-84686987D01*
X141602136Y-84569000D01*
X141293822Y-84569000D01*
X141008977Y-84686987D01*
X140790966Y-84904998D01*
X140672979Y-85189843D01*
X140672979Y-85498157D01*
X140790966Y-85783002D01*
X140986964Y-85979000D01*
X140790966Y-86174998D01*
X140672979Y-86459843D01*
X140672979Y-86768157D01*
X140790966Y-87053002D01*
X141008977Y-87271013D01*
X141293822Y-87389000D01*
X141602136Y-87389000D01*
X141886981Y-87271013D01*
X142104992Y-87053002D01*
X142184936Y-86860000D01*
X143183985Y-86860000D01*
X143106987Y-86936998D01*
X142989000Y-87221843D01*
X142989000Y-87530157D01*
X143106987Y-87815002D01*
X143324998Y-88033013D01*
X143609843Y-88151000D01*
X143825251Y-88151000D01*
X143968909Y-88246988D01*
X144114756Y-88275999D01*
X144114757Y-88275999D01*
X144163998Y-88285794D01*
X144213240Y-88275999D01*
X144348406Y-88275999D01*
X144259000Y-88491843D01*
X144259000Y-88800157D01*
X144376987Y-89085002D01*
X144594998Y-89303013D01*
X144879843Y-89421000D01*
X145188157Y-89421000D01*
X145238824Y-89400013D01*
X145287999Y-89409795D01*
X145337240Y-89400000D01*
X148657724Y-89400000D01*
X148756133Y-89637581D01*
X149122419Y-90003867D01*
X149523500Y-90170000D01*
X149122419Y-90336133D01*
X148756133Y-90702419D01*
X148657724Y-90940000D01*
X146392015Y-90940000D01*
X146235002Y-90782987D01*
X145950157Y-90665000D01*
X145641843Y-90665000D01*
X145356998Y-90782987D01*
X145138987Y-91000998D01*
X145021000Y-91285843D01*
X145021000Y-91594157D01*
X145138987Y-91879002D01*
X145356998Y-92097013D01*
X145641843Y-92215000D01*
X145950157Y-92215000D01*
X146235002Y-92097013D01*
X146392015Y-91940000D01*
X148657724Y-91940000D01*
X148756133Y-92177581D01*
X149122419Y-92543867D01*
X149523500Y-92710000D01*
X149122419Y-92876133D01*
X148756133Y-93242419D01*
X148557900Y-93720996D01*
X148557900Y-94239004D01*
X148656309Y-94476585D01*
X148382894Y-94750000D01*
X144106015Y-94750000D01*
X143949002Y-94592987D01*
X143664157Y-94475000D01*
X143355843Y-94475000D01*
X143070998Y-94592987D01*
X142852987Y-94810998D01*
X142735000Y-95095843D01*
X142735000Y-95404157D01*
X142852987Y-95689002D01*
X143048985Y-95885000D01*
X142852987Y-96080998D01*
X142735000Y-96365843D01*
X142735000Y-96674157D01*
X142852987Y-96959002D01*
X143070998Y-97177013D01*
X143355843Y-97295000D01*
X143664157Y-97295000D01*
X143949002Y-97177013D01*
X144106015Y-97020000D01*
X147150179Y-97020000D01*
X147048347Y-97265843D01*
X147048347Y-97574157D01*
X147166334Y-97859002D01*
X147384345Y-98077013D01*
X147669190Y-98195000D01*
X147977504Y-98195000D01*
X148262349Y-98077013D01*
X148300644Y-98038718D01*
X148370657Y-98108732D01*
X148398552Y-98150480D01*
X148563942Y-98260989D01*
X148709789Y-98290000D01*
X148709790Y-98290000D01*
X148759031Y-98299795D01*
X148783655Y-98294897D01*
X148756133Y-98322419D01*
X148557900Y-98800996D01*
X148557900Y-99319004D01*
X148756133Y-99797581D01*
X149122419Y-100163867D01*
X149523500Y-100330000D01*
X149122419Y-100496133D01*
X148756133Y-100862419D01*
X148557900Y-101340996D01*
X148557900Y-101859004D01*
X148756133Y-102337581D01*
X149122419Y-102703867D01*
X149523500Y-102870000D01*
X149122419Y-103036133D01*
X148756133Y-103402419D01*
X148557900Y-103880996D01*
X148557900Y-104399004D01*
X148756133Y-104877581D01*
X149122419Y-105243867D01*
X149600996Y-105442100D01*
X150119004Y-105442100D01*
X150597581Y-105243867D01*
X150963867Y-104877581D01*
X151162100Y-104399004D01*
X151162100Y-103880996D01*
X150963867Y-103402419D01*
X150597581Y-103036133D01*
X150196500Y-102870000D01*
X150597581Y-102703867D01*
X150963867Y-102337581D01*
X151162100Y-101859004D01*
X151162100Y-101340996D01*
X150963867Y-100862419D01*
X150597581Y-100496133D01*
X150196500Y-100330000D01*
X150597581Y-100163867D01*
X150963867Y-99797581D01*
X151162100Y-99319004D01*
X151162100Y-98800996D01*
X150963867Y-98322419D01*
X150930419Y-98288971D01*
X151071090Y-98260989D01*
X151236480Y-98150480D01*
X151264376Y-98108730D01*
X151956733Y-97416374D01*
X151998480Y-97388480D01*
X152108989Y-97223090D01*
X152138000Y-97077243D01*
X152138000Y-97077242D01*
X152147795Y-97028000D01*
X152138000Y-96978757D01*
X152138000Y-93013243D01*
X152147795Y-92964000D01*
X152108989Y-92768910D01*
X152091075Y-92742100D01*
X151998480Y-92603520D01*
X151956732Y-92575625D01*
X151724999Y-92343893D01*
X151724999Y-90282107D01*
X151938374Y-90068733D01*
X151938376Y-90068730D01*
X151948013Y-90059093D01*
X152279348Y-90125000D01*
X152520652Y-90125000D01*
X152877971Y-90053925D01*
X153283176Y-89783176D01*
X153553925Y-89377971D01*
X153648999Y-88900000D01*
X153553925Y-88422029D01*
X153283176Y-88016824D01*
X152877971Y-87746075D01*
X152520652Y-87675000D01*
X152279348Y-87675000D01*
X151922029Y-87746075D01*
X151516824Y-88016824D01*
X151246075Y-88422029D01*
X151162100Y-88844201D01*
X151162100Y-88640996D01*
X150963867Y-88162419D01*
X150913549Y-88112101D01*
X151098658Y-88112101D01*
X151147899Y-88121896D01*
X151197140Y-88112101D01*
X151197142Y-88112101D01*
X151342989Y-88083090D01*
X151508379Y-87972581D01*
X151536275Y-87930831D01*
X151938374Y-87528733D01*
X151938376Y-87528730D01*
X151948013Y-87519093D01*
X152279348Y-87585000D01*
X152520652Y-87585000D01*
X152877971Y-87513925D01*
X153283176Y-87243176D01*
X153553925Y-86837971D01*
X153648999Y-86360000D01*
X153553925Y-85882029D01*
X153283176Y-85476824D01*
X152877971Y-85206075D01*
X152520652Y-85135000D01*
X152279348Y-85135000D01*
X151922029Y-85206075D01*
X151516824Y-85476824D01*
X151246075Y-85882029D01*
X151162100Y-86304201D01*
X151162100Y-86100996D01*
X150963867Y-85622419D01*
X150949347Y-85607899D01*
X151062860Y-85607899D01*
X151112101Y-85617694D01*
X151161342Y-85607899D01*
X151161344Y-85607899D01*
X151307191Y-85578888D01*
X151472581Y-85468379D01*
X151500477Y-85426629D01*
X151948013Y-84979094D01*
X152279348Y-85045000D01*
X152520652Y-85045000D01*
X152877971Y-84973925D01*
X153283176Y-84703176D01*
X153553925Y-84297971D01*
X153648999Y-83820000D01*
X153553925Y-83342029D01*
X153283176Y-82936824D01*
X152877971Y-82666075D01*
X152520652Y-82595000D01*
X152279348Y-82595000D01*
X151922029Y-82666075D01*
X151516824Y-82936824D01*
X151246075Y-83342029D01*
X151162100Y-83764201D01*
X151162100Y-83560996D01*
X150963867Y-83082419D01*
X150931448Y-83050000D01*
X151080759Y-83050000D01*
X151130000Y-83059795D01*
X151179241Y-83050000D01*
X151179243Y-83050000D01*
X151325090Y-83020989D01*
X151490480Y-82910480D01*
X151518376Y-82868730D01*
X151948013Y-82439094D01*
X152279348Y-82505000D01*
X152520652Y-82505000D01*
X152877971Y-82433925D01*
X153283176Y-82163176D01*
X153553925Y-81757971D01*
X153648999Y-81280000D01*
X153553925Y-80802029D01*
X153283176Y-80396824D01*
X152877971Y-80126075D01*
X152520652Y-80055000D01*
X152279348Y-80055000D01*
X151922029Y-80126075D01*
X151516824Y-80396824D01*
X151246075Y-80802029D01*
X151162100Y-81224201D01*
X151162100Y-81020996D01*
X150963867Y-80542419D01*
X150597581Y-80176133D01*
X150196500Y-80010000D01*
X150597581Y-79843867D01*
X150963867Y-79477581D01*
X151162100Y-78999004D01*
X151162100Y-78795799D01*
X151246075Y-79217971D01*
X151516824Y-79623176D01*
X151922029Y-79893925D01*
X152279348Y-79965000D01*
X152520652Y-79965000D01*
X152877971Y-79893925D01*
X153283176Y-79623176D01*
X153553925Y-79217971D01*
X153648999Y-78740000D01*
X153553925Y-78262029D01*
X153283176Y-77856824D01*
X152877971Y-77586075D01*
X152520652Y-77515000D01*
X152279348Y-77515000D01*
X151948013Y-77580907D01*
X151536275Y-77169169D01*
X151508379Y-77127419D01*
X151342989Y-77016910D01*
X151197142Y-76987899D01*
X151197140Y-76987899D01*
X151147899Y-76978104D01*
X151098658Y-76987899D01*
X150913549Y-76987899D01*
X150963867Y-76937581D01*
X151162100Y-76459004D01*
X151162100Y-76255799D01*
X151246075Y-76677971D01*
X151516824Y-77083176D01*
X151922029Y-77353925D01*
X152279348Y-77425000D01*
X152520652Y-77425000D01*
X152877971Y-77353925D01*
X153283176Y-77083176D01*
X153553925Y-76677971D01*
X153648999Y-76200000D01*
X153553925Y-75722029D01*
X153283176Y-75316824D01*
X152877971Y-75046075D01*
X152520652Y-74975000D01*
X152279348Y-74975000D01*
X151948013Y-75040906D01*
X151500477Y-74593371D01*
X151472581Y-74551621D01*
X151307191Y-74441112D01*
X151161344Y-74412101D01*
X151161342Y-74412101D01*
X151112101Y-74402306D01*
X151062860Y-74412101D01*
X150949347Y-74412101D01*
X150963867Y-74397581D01*
X151162100Y-73919004D01*
X151162100Y-73715799D01*
X151246075Y-74137971D01*
X151516824Y-74543176D01*
X151922029Y-74813925D01*
X152279348Y-74885000D01*
X152520652Y-74885000D01*
X152877971Y-74813925D01*
X153283176Y-74543176D01*
X153553925Y-74137971D01*
X153648999Y-73660000D01*
X153553925Y-73182029D01*
X153283176Y-72776824D01*
X152877971Y-72506075D01*
X152520652Y-72435000D01*
X152279348Y-72435000D01*
X151948013Y-72500906D01*
X151518376Y-72071270D01*
X151490480Y-72029520D01*
X151325090Y-71919011D01*
X151179243Y-71890000D01*
X151179241Y-71890000D01*
X151130000Y-71880205D01*
X151080759Y-71890000D01*
X150931448Y-71890000D01*
X150963867Y-71857581D01*
X151162100Y-71379004D01*
X151162100Y-71175799D01*
X151246075Y-71597971D01*
X151516824Y-72003176D01*
X151922029Y-72273925D01*
X152279348Y-72345000D01*
X152520652Y-72345000D01*
X152877971Y-72273925D01*
X153283176Y-72003176D01*
X153553925Y-71597971D01*
X153648999Y-71120000D01*
X153553925Y-70642029D01*
X153283176Y-70236824D01*
X152877971Y-69966075D01*
X152520652Y-69895000D01*
X152279348Y-69895000D01*
X151948013Y-69960906D01*
X151799452Y-69812346D01*
X153250000Y-69812346D01*
X153396317Y-69783242D01*
X153520359Y-69700359D01*
X153603242Y-69576317D01*
X153632346Y-69430000D01*
X153632346Y-68014052D01*
X153632989Y-68013090D01*
X153662000Y-67867243D01*
X153662000Y-67867242D01*
X153671795Y-67818000D01*
X153662000Y-67768757D01*
X153662000Y-66128011D01*
X153819013Y-65970998D01*
X153937000Y-65686153D01*
X153937000Y-65377839D01*
X153819013Y-65092994D01*
X153601002Y-64874983D01*
X153316157Y-64756996D01*
X153007843Y-64756996D01*
X152722998Y-64874983D01*
X152504987Y-65092994D01*
X152387000Y-65377839D01*
X152387000Y-65686153D01*
X152504987Y-65970998D01*
X152662001Y-66128012D01*
X152662000Y-67347654D01*
X151799453Y-67347654D01*
X151956733Y-67190374D01*
X151998480Y-67162480D01*
X152108989Y-66997090D01*
X152138000Y-66851243D01*
X152138000Y-66851242D01*
X152147795Y-66802000D01*
X152138000Y-66752757D01*
X152138000Y-65327240D01*
X152147795Y-65277999D01*
X152127560Y-65176272D01*
X152108989Y-65082910D01*
X151998480Y-64917520D01*
X151956732Y-64889625D01*
X151536275Y-64469169D01*
X151508379Y-64427419D01*
X151342989Y-64316910D01*
X151197142Y-64287899D01*
X151197140Y-64287899D01*
X151147899Y-64278104D01*
X151098658Y-64287899D01*
X150913549Y-64287899D01*
X150963867Y-64237581D01*
X151162100Y-63759004D01*
X151162100Y-63240996D01*
X150963867Y-62762419D01*
X150597581Y-62396133D01*
X150196500Y-62230000D01*
X150597581Y-62063867D01*
X150963867Y-61697581D01*
X151162100Y-61219004D01*
X151162100Y-60700996D01*
X150963867Y-60222419D01*
X150597581Y-59856133D01*
X150196500Y-59690000D01*
X150597581Y-59523867D01*
X150963867Y-59157581D01*
X151162100Y-58679004D01*
X151162100Y-58160996D01*
X150963867Y-57682419D01*
X150597581Y-57316133D01*
X150196500Y-57150000D01*
X150597581Y-56983867D01*
X150963867Y-56617581D01*
X151162100Y-56139004D01*
X151162100Y-55620996D01*
X150963867Y-55142419D01*
X150597581Y-54776133D01*
X150119004Y-54577900D01*
X149600996Y-54577900D01*
X149122419Y-54776133D01*
X148756133Y-55142419D01*
X148557900Y-55620996D01*
X148557900Y-56139004D01*
X148756133Y-56617581D01*
X149122419Y-56983867D01*
X149523500Y-57150000D01*
X149122419Y-57316133D01*
X148756133Y-57682419D01*
X148557900Y-58160996D01*
X148557900Y-58679004D01*
X148756133Y-59157581D01*
X149122419Y-59523867D01*
X149523500Y-59690000D01*
X149122419Y-59856133D01*
X148756133Y-60222419D01*
X148657724Y-60460000D01*
X145083243Y-60460000D01*
X145034000Y-60450205D01*
X144984757Y-60460000D01*
X144838910Y-60489011D01*
X144673520Y-60599520D01*
X144645625Y-60641268D01*
X140905271Y-64381623D01*
X140863520Y-64409520D01*
X140753011Y-64574911D01*
X140724000Y-64720757D01*
X140714205Y-64770000D01*
X140724000Y-64819241D01*
X140724001Y-70562754D01*
X140714205Y-70612000D01*
X140753012Y-70807090D01*
X140863521Y-70972480D01*
X140905268Y-71000374D01*
X141851625Y-71946732D01*
X141879520Y-71988480D01*
X142044910Y-72098989D01*
X142190757Y-72128000D01*
X142190758Y-72128000D01*
X142240000Y-72137795D01*
X142289241Y-72128000D01*
X144767000Y-72128000D01*
X144767000Y-72290157D01*
X144884987Y-72575002D01*
X145102998Y-72793013D01*
X145387843Y-72911000D01*
X145696157Y-72911000D01*
X145981002Y-72793013D01*
X146199013Y-72575002D01*
X146317000Y-72290157D01*
X146317000Y-71981843D01*
X146199013Y-71696998D01*
X145981002Y-71478987D01*
X145696157Y-71361000D01*
X145474106Y-71361000D01*
X145422376Y-71309270D01*
X145412283Y-71294164D01*
X145473002Y-71269013D01*
X145691013Y-71051002D01*
X145809000Y-70766157D01*
X145809000Y-70457843D01*
X145691013Y-70172998D01*
X145534000Y-70015985D01*
X145534000Y-64254000D01*
X146485981Y-64254000D01*
X146404325Y-64335656D01*
X146286338Y-64620501D01*
X146286338Y-64928815D01*
X146404325Y-65213660D01*
X146622336Y-65431671D01*
X146907181Y-65549658D01*
X147129231Y-65549658D01*
X147142603Y-65563030D01*
X147142606Y-65563032D01*
X147374204Y-65794630D01*
X147130345Y-65895640D01*
X146912334Y-66113651D01*
X146794347Y-66398496D01*
X146794347Y-66706810D01*
X146912334Y-66991655D01*
X147064651Y-67143972D01*
X147090315Y-67272989D01*
X147098359Y-67313428D01*
X147208868Y-67478818D01*
X147250616Y-67506713D01*
X147257961Y-67514058D01*
X147257157Y-67513725D01*
X146948843Y-67513725D01*
X146663998Y-67631712D01*
X146445987Y-67849723D01*
X146328000Y-68134568D01*
X146328000Y-68442882D01*
X146445987Y-68727727D01*
X146603000Y-68884740D01*
X146603001Y-73393754D01*
X146593205Y-73443000D01*
X146632012Y-73638090D01*
X146742521Y-73803480D01*
X146784268Y-73831374D01*
X148183726Y-75230833D01*
X148211621Y-75272581D01*
X148366538Y-75376092D01*
X148377011Y-75383090D01*
X148572101Y-75421897D01*
X148621347Y-75412101D01*
X148806451Y-75412101D01*
X148756133Y-75462419D01*
X148557900Y-75940996D01*
X148557900Y-76459004D01*
X148756133Y-76937581D01*
X148855308Y-77036756D01*
X148719621Y-77127419D01*
X148691726Y-77169167D01*
X145334894Y-80526000D01*
X141566015Y-80526000D01*
X141409002Y-80368987D01*
X141124157Y-80251000D01*
X140815843Y-80251000D01*
X140530998Y-80368987D01*
X140312987Y-80586998D01*
X140195000Y-80871843D01*
X136025276Y-80871843D01*
X135853065Y-80456092D01*
X135443908Y-80046935D01*
X135354739Y-80010000D01*
X135443908Y-79973065D01*
X135853065Y-79563908D01*
X136074500Y-79029318D01*
X136074500Y-78450682D01*
X135853065Y-77916092D01*
X135443908Y-77506935D01*
X135354739Y-77470000D01*
X135443908Y-77433065D01*
X135853065Y-77023908D01*
X136074500Y-76489318D01*
X136074500Y-75910682D01*
X135853065Y-75376092D01*
X135443908Y-74966935D01*
X135354739Y-74930000D01*
X135443908Y-74893065D01*
X135853065Y-74483908D01*
X136074500Y-73949318D01*
X136074500Y-73370682D01*
X135853065Y-72836092D01*
X135443908Y-72426935D01*
X135354739Y-72390000D01*
X135443908Y-72353065D01*
X135853065Y-71943908D01*
X136074500Y-71409318D01*
X136074500Y-70830682D01*
X135853065Y-70296092D01*
X135443908Y-69886935D01*
X135354739Y-69850000D01*
X135443908Y-69813065D01*
X135853065Y-69403908D01*
X136074500Y-68869318D01*
X136074500Y-68290682D01*
X135853065Y-67756092D01*
X135443908Y-67346935D01*
X135354739Y-67310000D01*
X135443908Y-67273065D01*
X135853065Y-66863908D01*
X136074500Y-66329318D01*
X136074500Y-65750682D01*
X135853065Y-65216092D01*
X135443908Y-64806935D01*
X135354739Y-64770000D01*
X135443908Y-64733065D01*
X135853065Y-64323908D01*
X136074500Y-63789318D01*
X136074500Y-63210682D01*
X135853065Y-62676092D01*
X135443908Y-62266935D01*
X135354739Y-62230000D01*
X135443908Y-62193065D01*
X135853065Y-61783908D01*
X136074500Y-61249318D01*
X136074500Y-60670682D01*
X135853065Y-60136092D01*
X135443908Y-59726935D01*
X135354739Y-59690000D01*
X135443908Y-59653065D01*
X135853065Y-59243908D01*
X136074500Y-58709318D01*
X136074500Y-58130682D01*
X135853065Y-57596092D01*
X135443908Y-57186935D01*
X135354739Y-57150000D01*
X135443908Y-57113065D01*
X135853065Y-56703908D01*
X136074500Y-56169318D01*
X136074500Y-55979843D01*
X143497000Y-55979843D01*
X143497000Y-56288157D01*
X143614987Y-56573002D01*
X143832998Y-56791013D01*
X144117843Y-56909000D01*
X144426157Y-56909000D01*
X144711002Y-56791013D01*
X144868015Y-56634000D01*
X146469985Y-56634000D01*
X146626998Y-56791013D01*
X146911843Y-56909000D01*
X147220157Y-56909000D01*
X147505002Y-56791013D01*
X147723013Y-56573002D01*
X147841000Y-56288157D01*
X147841000Y-55979843D01*
X147723013Y-55694998D01*
X147505002Y-55476987D01*
X147220157Y-55359000D01*
X146911843Y-55359000D01*
X146626998Y-55476987D01*
X146469985Y-55634000D01*
X144868015Y-55634000D01*
X144711002Y-55476987D01*
X144426157Y-55359000D01*
X144117843Y-55359000D01*
X143832998Y-55476987D01*
X143614987Y-55694998D01*
X143497000Y-55979843D01*
X136074500Y-55979843D01*
X136074500Y-55590682D01*
X135853065Y-55056092D01*
X135443908Y-54646935D01*
X134909318Y-54425500D01*
X134330682Y-54425500D01*
X133796092Y-54646935D01*
X133386935Y-55056092D01*
X133165500Y-55590682D01*
X132530000Y-55590682D01*
X132530000Y-53790000D01*
X155760000Y-53790000D01*
X155760000Y-60937985D01*
G04 #@! TD*
M02*
