G04 #@! TF.GenerationSoftware,KiCad,Pcbnew,(5.0.0)*
G04 #@! TF.CreationDate,2019-04-25T10:06:30+02:00*
G04 #@! TF.ProjectId,c64board,633634626F6172642E6B696361645F70,rev?*
G04 #@! TF.SameCoordinates,Original*
G04 #@! TF.FileFunction,Legend,Bot*
G04 #@! TF.FilePolarity,Positive*
%FSLAX46Y46*%
G04 Gerber Fmt 4.6, Leading zero omitted, Abs format (unit mm)*
G04 Created by KiCad (PCBNEW (5.0.0)) date 04/25/19 10:06:30*
%MOMM*%
%LPD*%
G01*
G04 APERTURE LIST*
%ADD10C,0.300000*%
G04 APERTURE END LIST*
D10*
X142516714Y-77121714D02*
X142588142Y-77050285D01*
X142659571Y-76836000D01*
X142659571Y-76693142D01*
X142588142Y-76478857D01*
X142445285Y-76336000D01*
X142302428Y-76264571D01*
X142016714Y-76193142D01*
X141802428Y-76193142D01*
X141516714Y-76264571D01*
X141373857Y-76336000D01*
X141231000Y-76478857D01*
X141159571Y-76693142D01*
X141159571Y-76836000D01*
X141231000Y-77050285D01*
X141302428Y-77121714D01*
X141159571Y-78407428D02*
X141159571Y-78121714D01*
X141231000Y-77978857D01*
X141302428Y-77907428D01*
X141516714Y-77764571D01*
X141802428Y-77693142D01*
X142373857Y-77693142D01*
X142516714Y-77764571D01*
X142588142Y-77836000D01*
X142659571Y-77978857D01*
X142659571Y-78264571D01*
X142588142Y-78407428D01*
X142516714Y-78478857D01*
X142373857Y-78550285D01*
X142016714Y-78550285D01*
X141873857Y-78478857D01*
X141802428Y-78407428D01*
X141731000Y-78264571D01*
X141731000Y-77978857D01*
X141802428Y-77836000D01*
X141873857Y-77764571D01*
X142016714Y-77693142D01*
X141659571Y-79836000D02*
X142659571Y-79836000D01*
X141088142Y-79478857D02*
X142159571Y-79121714D01*
X142159571Y-80050285D01*
X142659571Y-81764571D02*
X141659571Y-81764571D01*
X141802428Y-81764571D02*
X141731000Y-81836000D01*
X141659571Y-81978857D01*
X141659571Y-82193142D01*
X141731000Y-82336000D01*
X141873857Y-82407428D01*
X142659571Y-82407428D01*
X141873857Y-82407428D02*
X141731000Y-82478857D01*
X141659571Y-82621714D01*
X141659571Y-82836000D01*
X141731000Y-82978857D01*
X141873857Y-83050285D01*
X142659571Y-83050285D01*
X142659571Y-83978857D02*
X142588142Y-83836000D01*
X142516714Y-83764571D01*
X142373857Y-83693142D01*
X141945285Y-83693142D01*
X141802428Y-83764571D01*
X141731000Y-83836000D01*
X141659571Y-83978857D01*
X141659571Y-84193142D01*
X141731000Y-84336000D01*
X141802428Y-84407428D01*
X141945285Y-84478857D01*
X142373857Y-84478857D01*
X142516714Y-84407428D01*
X142588142Y-84336000D01*
X142659571Y-84193142D01*
X142659571Y-83978857D01*
X142659571Y-85764571D02*
X141159571Y-85764571D01*
X142588142Y-85764571D02*
X142659571Y-85621714D01*
X142659571Y-85336000D01*
X142588142Y-85193142D01*
X142516714Y-85121714D01*
X142373857Y-85050285D01*
X141945285Y-85050285D01*
X141802428Y-85121714D01*
X141731000Y-85193142D01*
X141659571Y-85336000D01*
X141659571Y-85621714D01*
X141731000Y-85764571D01*
X142659571Y-88478857D02*
X141945285Y-87978857D01*
X142659571Y-87621714D02*
X141159571Y-87621714D01*
X141159571Y-88193142D01*
X141231000Y-88336000D01*
X141302428Y-88407428D01*
X141445285Y-88478857D01*
X141659571Y-88478857D01*
X141802428Y-88407428D01*
X141873857Y-88336000D01*
X141945285Y-88193142D01*
X141945285Y-87621714D01*
X142588142Y-89693142D02*
X142659571Y-89550285D01*
X142659571Y-89264571D01*
X142588142Y-89121714D01*
X142445285Y-89050285D01*
X141873857Y-89050285D01*
X141731000Y-89121714D01*
X141659571Y-89264571D01*
X141659571Y-89550285D01*
X141731000Y-89693142D01*
X141873857Y-89764571D01*
X142016714Y-89764571D01*
X142159571Y-89050285D01*
X141659571Y-90264571D02*
X142659571Y-90621714D01*
X141659571Y-90978857D01*
X141159571Y-92550285D02*
X141159571Y-93478857D01*
X141731000Y-92978857D01*
X141731000Y-93193142D01*
X141802428Y-93336000D01*
X141873857Y-93407428D01*
X142016714Y-93478857D01*
X142373857Y-93478857D01*
X142516714Y-93407428D01*
X142588142Y-93336000D01*
X142659571Y-93193142D01*
X142659571Y-92764571D01*
X142588142Y-92621714D01*
X142516714Y-92550285D01*
X144209571Y-71193142D02*
X145423857Y-71193142D01*
X145566714Y-71121714D01*
X145638142Y-71050285D01*
X145709571Y-70907428D01*
X145709571Y-70693142D01*
X145638142Y-70550285D01*
X145138142Y-71193142D02*
X145209571Y-71050285D01*
X145209571Y-70764571D01*
X145138142Y-70621714D01*
X145066714Y-70550285D01*
X144923857Y-70478857D01*
X144495285Y-70478857D01*
X144352428Y-70550285D01*
X144281000Y-70621714D01*
X144209571Y-70764571D01*
X144209571Y-71050285D01*
X144281000Y-71193142D01*
X145209571Y-71907428D02*
X144209571Y-71907428D01*
X143709571Y-71907428D02*
X143781000Y-71836000D01*
X143852428Y-71907428D01*
X143781000Y-71978857D01*
X143709571Y-71907428D01*
X143852428Y-71907428D01*
X144209571Y-72407428D02*
X144209571Y-72978857D01*
X143709571Y-72621714D02*
X144995285Y-72621714D01*
X145138142Y-72693142D01*
X145209571Y-72836000D01*
X145209571Y-72978857D01*
X145209571Y-73478857D02*
X143709571Y-73478857D01*
X145209571Y-74121714D02*
X144423857Y-74121714D01*
X144281000Y-74050285D01*
X144209571Y-73907428D01*
X144209571Y-73693142D01*
X144281000Y-73550285D01*
X144352428Y-73478857D01*
X144209571Y-75478857D02*
X145209571Y-75478857D01*
X144209571Y-74836000D02*
X144995285Y-74836000D01*
X145138142Y-74907428D01*
X145209571Y-75050285D01*
X145209571Y-75264571D01*
X145138142Y-75407428D01*
X145066714Y-75478857D01*
X145209571Y-76193142D02*
X143709571Y-76193142D01*
X144281000Y-76193142D02*
X144209571Y-76336000D01*
X144209571Y-76621714D01*
X144281000Y-76764571D01*
X144352428Y-76836000D01*
X144495285Y-76907428D01*
X144923857Y-76907428D01*
X145066714Y-76836000D01*
X145138142Y-76764571D01*
X145209571Y-76621714D01*
X145209571Y-76336000D01*
X145138142Y-76193142D01*
X145066714Y-77550285D02*
X145138142Y-77621714D01*
X145209571Y-77550285D01*
X145138142Y-77478857D01*
X145066714Y-77550285D01*
X145209571Y-77550285D01*
X145138142Y-78907428D02*
X145209571Y-78764571D01*
X145209571Y-78478857D01*
X145138142Y-78336000D01*
X145066714Y-78264571D01*
X144923857Y-78193142D01*
X144495285Y-78193142D01*
X144352428Y-78264571D01*
X144281000Y-78336000D01*
X144209571Y-78478857D01*
X144209571Y-78764571D01*
X144281000Y-78907428D01*
X145209571Y-79764571D02*
X145138142Y-79621714D01*
X145066714Y-79550285D01*
X144923857Y-79478857D01*
X144495285Y-79478857D01*
X144352428Y-79550285D01*
X144281000Y-79621714D01*
X144209571Y-79764571D01*
X144209571Y-79978857D01*
X144281000Y-80121714D01*
X144352428Y-80193142D01*
X144495285Y-80264571D01*
X144923857Y-80264571D01*
X145066714Y-80193142D01*
X145138142Y-80121714D01*
X145209571Y-79978857D01*
X145209571Y-79764571D01*
X145209571Y-80907428D02*
X144209571Y-80907428D01*
X144352428Y-80907428D02*
X144281000Y-80978857D01*
X144209571Y-81121714D01*
X144209571Y-81336000D01*
X144281000Y-81478857D01*
X144423857Y-81550285D01*
X145209571Y-81550285D01*
X144423857Y-81550285D02*
X144281000Y-81621714D01*
X144209571Y-81764571D01*
X144209571Y-81978857D01*
X144281000Y-82121714D01*
X144423857Y-82193142D01*
X145209571Y-82193142D01*
X143638142Y-83978857D02*
X145566714Y-82693142D01*
X145138142Y-85121714D02*
X145209571Y-84978857D01*
X145209571Y-84693142D01*
X145138142Y-84550285D01*
X145066714Y-84478857D01*
X144923857Y-84407428D01*
X144495285Y-84407428D01*
X144352428Y-84478857D01*
X144281000Y-84550285D01*
X144209571Y-84693142D01*
X144209571Y-84978857D01*
X144281000Y-85121714D01*
X143709571Y-86050285D02*
X143709571Y-86193142D01*
X143781000Y-86336000D01*
X143852428Y-86407428D01*
X143995285Y-86478857D01*
X144281000Y-86550285D01*
X144638142Y-86550285D01*
X144923857Y-86478857D01*
X145066714Y-86407428D01*
X145138142Y-86336000D01*
X145209571Y-86193142D01*
X145209571Y-86050285D01*
X145138142Y-85907428D01*
X145066714Y-85836000D01*
X144923857Y-85764571D01*
X144638142Y-85693142D01*
X144281000Y-85693142D01*
X143995285Y-85764571D01*
X143852428Y-85836000D01*
X143781000Y-85907428D01*
X143709571Y-86050285D01*
X144209571Y-87193142D02*
X145709571Y-87193142D01*
X144281000Y-87193142D02*
X144209571Y-87336000D01*
X144209571Y-87621714D01*
X144281000Y-87764571D01*
X144352428Y-87836000D01*
X144495285Y-87907428D01*
X144923857Y-87907428D01*
X145066714Y-87836000D01*
X145138142Y-87764571D01*
X145209571Y-87621714D01*
X145209571Y-87336000D01*
X145138142Y-87193142D01*
X144209571Y-88550285D02*
X145709571Y-88550285D01*
X144281000Y-88550285D02*
X144209571Y-88693142D01*
X144209571Y-88978857D01*
X144281000Y-89121714D01*
X144352428Y-89193142D01*
X144495285Y-89264571D01*
X144923857Y-89264571D01*
X145066714Y-89193142D01*
X145138142Y-89121714D01*
X145209571Y-88978857D01*
X145209571Y-88693142D01*
X145138142Y-88550285D01*
X145138142Y-90478857D02*
X145209571Y-90336000D01*
X145209571Y-90050285D01*
X145138142Y-89907428D01*
X144995285Y-89836000D01*
X144423857Y-89836000D01*
X144281000Y-89907428D01*
X144209571Y-90050285D01*
X144209571Y-90336000D01*
X144281000Y-90478857D01*
X144423857Y-90550285D01*
X144566714Y-90550285D01*
X144709571Y-89836000D01*
X145209571Y-91193142D02*
X144209571Y-91193142D01*
X144495285Y-91193142D02*
X144352428Y-91264571D01*
X144281000Y-91336000D01*
X144209571Y-91478857D01*
X144209571Y-91621714D01*
X145209571Y-92764571D02*
X143709571Y-92764571D01*
X145138142Y-92764571D02*
X145209571Y-92621714D01*
X145209571Y-92336000D01*
X145138142Y-92193142D01*
X145066714Y-92121714D01*
X144923857Y-92050285D01*
X144495285Y-92050285D01*
X144352428Y-92121714D01*
X144281000Y-92193142D01*
X144209571Y-92336000D01*
X144209571Y-92621714D01*
X144281000Y-92764571D01*
X145209571Y-93478857D02*
X144209571Y-93478857D01*
X144495285Y-93478857D02*
X144352428Y-93550285D01*
X144281000Y-93621714D01*
X144209571Y-93764571D01*
X144209571Y-93907428D01*
X145209571Y-95050285D02*
X144423857Y-95050285D01*
X144281000Y-94978857D01*
X144209571Y-94836000D01*
X144209571Y-94550285D01*
X144281000Y-94407428D01*
X145138142Y-95050285D02*
X145209571Y-94907428D01*
X145209571Y-94550285D01*
X145138142Y-94407428D01*
X144995285Y-94336000D01*
X144852428Y-94336000D01*
X144709571Y-94407428D01*
X144638142Y-94550285D01*
X144638142Y-94907428D01*
X144566714Y-95050285D01*
X144209571Y-96407428D02*
X145423857Y-96407428D01*
X145566714Y-96336000D01*
X145638142Y-96264571D01*
X145709571Y-96121714D01*
X145709571Y-95907428D01*
X145638142Y-95764571D01*
X145138142Y-96407428D02*
X145209571Y-96264571D01*
X145209571Y-95978857D01*
X145138142Y-95836000D01*
X145066714Y-95764571D01*
X144923857Y-95693142D01*
X144495285Y-95693142D01*
X144352428Y-95764571D01*
X144281000Y-95836000D01*
X144209571Y-95978857D01*
X144209571Y-96264571D01*
X144281000Y-96407428D01*
X145209571Y-97336000D02*
X145138142Y-97193142D01*
X145066714Y-97121714D01*
X144923857Y-97050285D01*
X144495285Y-97050285D01*
X144352428Y-97121714D01*
X144281000Y-97193142D01*
X144209571Y-97336000D01*
X144209571Y-97550285D01*
X144281000Y-97693142D01*
X144352428Y-97764571D01*
X144495285Y-97836000D01*
X144923857Y-97836000D01*
X145066714Y-97764571D01*
X145138142Y-97693142D01*
X145209571Y-97550285D01*
X145209571Y-97336000D01*
X144209571Y-98478857D02*
X145209571Y-98478857D01*
X144352428Y-98478857D02*
X144281000Y-98550285D01*
X144209571Y-98693142D01*
X144209571Y-98907428D01*
X144281000Y-99050285D01*
X144423857Y-99121714D01*
X145209571Y-99121714D01*
M02*
