M48
;DRILL file {KiCad (5.0.0)} date 04/25/19 10:06:25
;FORMAT={-:-/ absolute / inch / decimal}
FMAT,2
INCH,TZ
T1C0.0157
T2C0.0394
T3C0.0591
%
G90
G05
M72
T1
X5.42Y-2.68
X5.52Y-2.35
X5.52Y-3.
X5.53Y-3.6
X5.55Y-3.19
X5.55Y-3.23
X5.55Y-3.29
X5.56Y-3.86
X5.56Y-3.91
X5.5688Y-3.36
X5.5688Y-3.41
X5.57Y-2.4634
X5.57Y-3.77
X5.58Y-3.53
X5.6Y-2.75
X5.62Y-3.7
X5.63Y-2.79
X5.65Y-3.75
X5.65Y-3.8
X5.6565Y-3.1457
X5.66Y-3.44
X5.69Y-3.36
X5.69Y-3.4
X5.71Y-2.78
X5.71Y-3.49
X5.73Y-2.35
X5.73Y-2.84
X5.73Y-3.3885
X5.74Y-3.6
X5.77Y-3.4
X5.78Y-2.35
X5.7883Y-3.2669
X5.7898Y-2.5502
X5.79Y-3.2
X5.7915Y-2.6885
X5.8098Y-2.6202
X5.8198Y-3.8354
X5.8298Y-3.4498
X5.85Y-3.15
X6.Y-2.7
X6.0252Y-2.43
X6.03Y-2.58
X6.08Y-2.14
X6.1Y-2.55
X6.11Y-2.42
T2
X6.01Y-2.7
X6.01Y-2.8
X6.01Y-2.9
X6.01Y-3.
X6.01Y-3.1
X6.01Y-3.2
X6.01Y-3.3
X6.01Y-3.4
X6.01Y-3.5
X6.01Y-3.6
X6.11Y-2.7
X6.11Y-2.8
X6.11Y-2.9
X6.11Y-3.
X6.11Y-3.1
X6.11Y-3.2
X6.11Y-3.3
X6.11Y-3.4
X6.11Y-3.5
X6.11Y-3.6
T3
X5.3Y-2.2
X5.3Y-2.3
X5.3Y-2.4
X5.3Y-2.5
X5.3Y-2.6
X5.3Y-2.7
X5.3Y-2.8
X5.3Y-2.9
X5.3Y-3.
X5.3Y-3.1
X5.3Y-3.2
X5.3Y-3.3
X5.3Y-3.4
X5.3Y-3.5
X5.3Y-3.6
X5.3Y-3.7
X5.3Y-3.8
X5.3Y-3.9
X5.3Y-4.
X5.3Y-4.1
X5.9Y-2.2
X5.9Y-2.3
X5.9Y-2.4
X5.9Y-2.5
X5.9Y-2.6
X5.9Y-2.7
X5.9Y-2.8
X5.9Y-2.9
X5.9Y-3.
X5.9Y-3.1
X5.9Y-3.2
X5.9Y-3.3
X5.9Y-3.4
X5.9Y-3.5
X5.9Y-3.6
X5.9Y-3.7
X5.9Y-3.8
X5.9Y-3.9
X5.9Y-4.
X5.9Y-4.1
T0
M30
