G04 #@! TF.GenerationSoftware,KiCad,Pcbnew,(5.0.0)*
G04 #@! TF.CreationDate,2019-04-25T10:06:30+02:00*
G04 #@! TF.ProjectId,c64board,633634626F6172642E6B696361645F70,rev?*
G04 #@! TF.SameCoordinates,Original*
G04 #@! TF.FileFunction,Legend,Top*
G04 #@! TF.FilePolarity,Positive*
%FSLAX46Y46*%
G04 Gerber Fmt 4.6, Leading zero omitted, Abs format (unit mm)*
G04 Created by KiCad (PCBNEW (5.0.0)) date 04/25/19 10:06:30*
%MOMM*%
%LPD*%
G01*
G04 APERTURE LIST*
%ADD10C,0.300000*%
%ADD11C,0.120000*%
%ADD12C,0.150000*%
%ADD13C,0.100000*%
G04 APERTURE END LIST*
D10*
X153304761Y-65468571D02*
X153304761Y-66611428D01*
X153304761Y-66040000D02*
X151304761Y-66040000D01*
X151590476Y-66230476D01*
X151780952Y-66420952D01*
X151876190Y-66611428D01*
D11*
G04 #@! TO.C,R1*
X153872000Y-98789748D02*
X153872000Y-99312252D01*
X152452000Y-98789748D02*
X152452000Y-99312252D01*
G04 #@! TO.C,J1*
X151324000Y-92770000D02*
X156524000Y-92770000D01*
X151324000Y-69850000D02*
X151324000Y-92770000D01*
X156524000Y-67250000D02*
X156524000Y-92770000D01*
X151324000Y-69850000D02*
X153924000Y-69850000D01*
X153924000Y-69850000D02*
X153924000Y-67250000D01*
X153924000Y-67250000D02*
X156524000Y-67250000D01*
X151324000Y-68580000D02*
X151324000Y-67250000D01*
X151324000Y-67250000D02*
X152654000Y-67250000D01*
D12*
G04 #@! TO.C,U5*
X138490000Y-93070000D02*
X144465000Y-93070000D01*
X140015000Y-99970000D02*
X144465000Y-99970000D01*
D11*
G04 #@! TO.C,C1*
X153798748Y-62282000D02*
X154321252Y-62282000D01*
X153798748Y-63702000D02*
X154321252Y-63702000D01*
G04 #@! TO.C,C2*
X153662748Y-56590000D02*
X154185252Y-56590000D01*
X153662748Y-55170000D02*
X154185252Y-55170000D01*
G04 #@! TO.C,C3*
X142806267Y-76710000D02*
X142463733Y-76710000D01*
X142806267Y-75690000D02*
X142463733Y-75690000D01*
G04 #@! TO.C,C4*
X142806267Y-59180000D02*
X142463733Y-59180000D01*
X142806267Y-60200000D02*
X142463733Y-60200000D01*
G04 #@! TO.C,C5*
X142806267Y-91950000D02*
X142463733Y-91950000D01*
X142806267Y-90930000D02*
X142463733Y-90930000D01*
G04 #@! TO.C,U2*
X155600000Y-60336000D02*
X155600000Y-58536000D01*
X152380000Y-58536000D02*
X152380000Y-60986000D01*
D12*
G04 #@! TO.C,U3*
X140040000Y-84005000D02*
X144440000Y-84005000D01*
X138465000Y-78480000D02*
X144440000Y-78480000D01*
G04 #@! TO.C,U4*
X140015000Y-68220000D02*
X144465000Y-68220000D01*
X138490000Y-61320000D02*
X144465000Y-61320000D01*
D13*
G04 #@! TO.C,U1*
X151130000Y-105410000D02*
X151130000Y-54610000D01*
X148590000Y-105410000D02*
X151130000Y-105410000D01*
X148590000Y-54610000D02*
X148590000Y-105410000D01*
X151130000Y-54610000D02*
X148590000Y-54610000D01*
X135890000Y-105410000D02*
X135890000Y-54610000D01*
X133350000Y-105410000D02*
X135890000Y-105410000D01*
X133350000Y-54610000D02*
X133350000Y-105410000D01*
X135890000Y-54610000D02*
X133350000Y-54610000D01*
X148590000Y-54610000D02*
X148590000Y-57785000D01*
X135890000Y-54610000D02*
X148590000Y-54610000D01*
X135890000Y-57785000D02*
X135890000Y-54610000D01*
X148590000Y-57785000D02*
X135890000Y-57785000D01*
X148590000Y-54610000D02*
X148590000Y-57785000D01*
X135890000Y-105410000D02*
X148590000Y-105410000D01*
X135890000Y-102235000D02*
X135890000Y-105410000D01*
X148590000Y-102235000D02*
X135890000Y-102235000D01*
X148590000Y-105410000D02*
X148590000Y-102235000D01*
X148590000Y-70485000D02*
X148590000Y-73660000D01*
X135890000Y-70485000D02*
X148590000Y-70485000D01*
X135890000Y-73660000D02*
X135890000Y-70485000D01*
X148590000Y-73660000D02*
X135890000Y-73660000D01*
X148590000Y-89535000D02*
X148590000Y-86360000D01*
X135890000Y-89535000D02*
X148590000Y-89535000D01*
X135890000Y-86360000D02*
X135890000Y-89535000D01*
X148590000Y-86360000D02*
X135890000Y-86360000D01*
D12*
X143240000Y-54740000D02*
G75*
G02X141240000Y-54740000I-1000000J0D01*
G01*
G04 #@! TO.C,R1*
X155392380Y-99226666D02*
X154916190Y-99560000D01*
X155392380Y-99798095D02*
X154392380Y-99798095D01*
X154392380Y-99417142D01*
X154440000Y-99321904D01*
X154487619Y-99274285D01*
X154582857Y-99226666D01*
X154725714Y-99226666D01*
X154820952Y-99274285D01*
X154868571Y-99321904D01*
X154916190Y-99417142D01*
X154916190Y-99798095D01*
X155392380Y-98274285D02*
X155392380Y-98845714D01*
X155392380Y-98560000D02*
X154392380Y-98560000D01*
X154535238Y-98655238D01*
X154630476Y-98750476D01*
X154678095Y-98845714D01*
G04 #@! TO.C,J1*
X153590666Y-92924380D02*
X153590666Y-93638666D01*
X153543047Y-93781523D01*
X153447809Y-93876761D01*
X153304952Y-93924380D01*
X153209714Y-93924380D01*
X154590666Y-93924380D02*
X154019238Y-93924380D01*
X154304952Y-93924380D02*
X154304952Y-92924380D01*
X154209714Y-93067238D01*
X154114476Y-93162476D01*
X154019238Y-93210095D01*
G04 #@! TO.C,U5*
X141478095Y-100290380D02*
X141478095Y-101099904D01*
X141525714Y-101195142D01*
X141573333Y-101242761D01*
X141668571Y-101290380D01*
X141859047Y-101290380D01*
X141954285Y-101242761D01*
X142001904Y-101195142D01*
X142049523Y-101099904D01*
X142049523Y-100290380D01*
X143001904Y-100290380D02*
X142525714Y-100290380D01*
X142478095Y-100766571D01*
X142525714Y-100718952D01*
X142620952Y-100671333D01*
X142859047Y-100671333D01*
X142954285Y-100718952D01*
X143001904Y-100766571D01*
X143049523Y-100861809D01*
X143049523Y-101099904D01*
X143001904Y-101195142D01*
X142954285Y-101242761D01*
X142859047Y-101290380D01*
X142620952Y-101290380D01*
X142525714Y-101242761D01*
X142478095Y-101195142D01*
G04 #@! TO.C,C1*
X153893333Y-65127142D02*
X153845714Y-65174761D01*
X153702857Y-65222380D01*
X153607619Y-65222380D01*
X153464761Y-65174761D01*
X153369523Y-65079523D01*
X153321904Y-64984285D01*
X153274285Y-64793809D01*
X153274285Y-64650952D01*
X153321904Y-64460476D01*
X153369523Y-64365238D01*
X153464761Y-64270000D01*
X153607619Y-64222380D01*
X153702857Y-64222380D01*
X153845714Y-64270000D01*
X153893333Y-64317619D01*
X154845714Y-65222380D02*
X154274285Y-65222380D01*
X154560000Y-65222380D02*
X154560000Y-64222380D01*
X154464761Y-64365238D01*
X154369523Y-64460476D01*
X154274285Y-64508095D01*
G04 #@! TO.C,C2*
X153757333Y-54587142D02*
X153709714Y-54634761D01*
X153566857Y-54682380D01*
X153471619Y-54682380D01*
X153328761Y-54634761D01*
X153233523Y-54539523D01*
X153185904Y-54444285D01*
X153138285Y-54253809D01*
X153138285Y-54110952D01*
X153185904Y-53920476D01*
X153233523Y-53825238D01*
X153328761Y-53730000D01*
X153471619Y-53682380D01*
X153566857Y-53682380D01*
X153709714Y-53730000D01*
X153757333Y-53777619D01*
X154138285Y-53777619D02*
X154185904Y-53730000D01*
X154281142Y-53682380D01*
X154519238Y-53682380D01*
X154614476Y-53730000D01*
X154662095Y-53777619D01*
X154709714Y-53872857D01*
X154709714Y-53968095D01*
X154662095Y-54110952D01*
X154090666Y-54682380D01*
X154709714Y-54682380D01*
G04 #@! TO.C,C3*
X142468333Y-75033142D02*
X142420714Y-75080761D01*
X142277857Y-75128380D01*
X142182619Y-75128380D01*
X142039761Y-75080761D01*
X141944523Y-74985523D01*
X141896904Y-74890285D01*
X141849285Y-74699809D01*
X141849285Y-74556952D01*
X141896904Y-74366476D01*
X141944523Y-74271238D01*
X142039761Y-74176000D01*
X142182619Y-74128380D01*
X142277857Y-74128380D01*
X142420714Y-74176000D01*
X142468333Y-74223619D01*
X142801666Y-74128380D02*
X143420714Y-74128380D01*
X143087380Y-74509333D01*
X143230238Y-74509333D01*
X143325476Y-74556952D01*
X143373095Y-74604571D01*
X143420714Y-74699809D01*
X143420714Y-74937904D01*
X143373095Y-75033142D01*
X143325476Y-75080761D01*
X143230238Y-75128380D01*
X142944523Y-75128380D01*
X142849285Y-75080761D01*
X142801666Y-75033142D01*
G04 #@! TO.C,C4*
X142468333Y-58523142D02*
X142420714Y-58570761D01*
X142277857Y-58618380D01*
X142182619Y-58618380D01*
X142039761Y-58570761D01*
X141944523Y-58475523D01*
X141896904Y-58380285D01*
X141849285Y-58189809D01*
X141849285Y-58046952D01*
X141896904Y-57856476D01*
X141944523Y-57761238D01*
X142039761Y-57666000D01*
X142182619Y-57618380D01*
X142277857Y-57618380D01*
X142420714Y-57666000D01*
X142468333Y-57713619D01*
X143325476Y-57951714D02*
X143325476Y-58618380D01*
X143087380Y-57570761D02*
X142849285Y-58285047D01*
X143468333Y-58285047D01*
G04 #@! TO.C,C5*
X142468333Y-90273142D02*
X142420714Y-90320761D01*
X142277857Y-90368380D01*
X142182619Y-90368380D01*
X142039761Y-90320761D01*
X141944523Y-90225523D01*
X141896904Y-90130285D01*
X141849285Y-89939809D01*
X141849285Y-89796952D01*
X141896904Y-89606476D01*
X141944523Y-89511238D01*
X142039761Y-89416000D01*
X142182619Y-89368380D01*
X142277857Y-89368380D01*
X142420714Y-89416000D01*
X142468333Y-89463619D01*
X143373095Y-89368380D02*
X142896904Y-89368380D01*
X142849285Y-89844571D01*
X142896904Y-89796952D01*
X142992142Y-89749333D01*
X143230238Y-89749333D01*
X143325476Y-89796952D01*
X143373095Y-89844571D01*
X143420714Y-89939809D01*
X143420714Y-90177904D01*
X143373095Y-90273142D01*
X143325476Y-90320761D01*
X143230238Y-90368380D01*
X142992142Y-90368380D01*
X142896904Y-90320761D01*
X142849285Y-90273142D01*
G04 #@! TO.C,U2*
X151090380Y-60197904D02*
X151899904Y-60197904D01*
X151995142Y-60150285D01*
X152042761Y-60102666D01*
X152090380Y-60007428D01*
X152090380Y-59816952D01*
X152042761Y-59721714D01*
X151995142Y-59674095D01*
X151899904Y-59626476D01*
X151090380Y-59626476D01*
X151185619Y-59197904D02*
X151138000Y-59150285D01*
X151090380Y-59055047D01*
X151090380Y-58816952D01*
X151138000Y-58721714D01*
X151185619Y-58674095D01*
X151280857Y-58626476D01*
X151376095Y-58626476D01*
X151518952Y-58674095D01*
X152090380Y-59245523D01*
X152090380Y-58626476D01*
G04 #@! TO.C,U3*
X141986095Y-84542380D02*
X141986095Y-85351904D01*
X142033714Y-85447142D01*
X142081333Y-85494761D01*
X142176571Y-85542380D01*
X142367047Y-85542380D01*
X142462285Y-85494761D01*
X142509904Y-85447142D01*
X142557523Y-85351904D01*
X142557523Y-84542380D01*
X142938476Y-84542380D02*
X143557523Y-84542380D01*
X143224190Y-84923333D01*
X143367047Y-84923333D01*
X143462285Y-84970952D01*
X143509904Y-85018571D01*
X143557523Y-85113809D01*
X143557523Y-85351904D01*
X143509904Y-85447142D01*
X143462285Y-85494761D01*
X143367047Y-85542380D01*
X143081333Y-85542380D01*
X142986095Y-85494761D01*
X142938476Y-85447142D01*
G04 #@! TO.C,U4*
X141732095Y-68794380D02*
X141732095Y-69603904D01*
X141779714Y-69699142D01*
X141827333Y-69746761D01*
X141922571Y-69794380D01*
X142113047Y-69794380D01*
X142208285Y-69746761D01*
X142255904Y-69699142D01*
X142303523Y-69603904D01*
X142303523Y-68794380D01*
X143208285Y-69127714D02*
X143208285Y-69794380D01*
X142970190Y-68746761D02*
X142732095Y-69461047D01*
X143351142Y-69461047D01*
G04 #@! TO.C,U1*
X137414095Y-54824380D02*
X137414095Y-55633904D01*
X137461714Y-55729142D01*
X137509333Y-55776761D01*
X137604571Y-55824380D01*
X137795047Y-55824380D01*
X137890285Y-55776761D01*
X137937904Y-55729142D01*
X137985523Y-55633904D01*
X137985523Y-54824380D01*
X138985523Y-55824380D02*
X138414095Y-55824380D01*
X138699809Y-55824380D02*
X138699809Y-54824380D01*
X138604571Y-54967238D01*
X138509333Y-55062476D01*
X138414095Y-55110095D01*
G04 #@! TD*
M02*
