G04 #@! TF.GenerationSoftware,KiCad,Pcbnew,(5.0.0)*
G04 #@! TF.CreationDate,2019-03-12T21:17:03+01:00*
G04 #@! TF.ProjectId,c64board,633634626F6172642E6B696361645F70,rev?*
G04 #@! TF.SameCoordinates,Original*
G04 #@! TF.FileFunction,Copper,L1,Top,Signal*
G04 #@! TF.FilePolarity,Positive*
%FSLAX46Y46*%
G04 Gerber Fmt 4.6, Leading zero omitted, Abs format (unit mm)*
G04 Created by KiCad (PCBNEW (5.0.0)) date 03/12/19 21:17:03*
%MOMM*%
%LPD*%
G01*
G04 APERTURE LIST*
G04 #@! TA.AperFunction,Conductor*
%ADD10C,0.100000*%
G04 #@! TD*
G04 #@! TA.AperFunction,SMDPad,CuDef*
%ADD11C,1.150000*%
G04 #@! TD*
G04 #@! TA.AperFunction,ComponentPad*
%ADD12R,1.700000X1.700000*%
G04 #@! TD*
G04 #@! TA.AperFunction,ComponentPad*
%ADD13O,1.700000X1.700000*%
G04 #@! TD*
G04 #@! TA.AperFunction,SMDPad,CuDef*
%ADD14R,1.450000X0.450000*%
G04 #@! TD*
G04 #@! TA.AperFunction,ComponentPad*
%ADD15C,1.854200*%
G04 #@! TD*
G04 #@! TA.AperFunction,ComponentPad*
%ADD16C,2.159000*%
G04 #@! TD*
G04 #@! TA.AperFunction,SMDPad,CuDef*
%ADD17C,0.950000*%
G04 #@! TD*
G04 #@! TA.AperFunction,SMDPad,CuDef*
%ADD18R,0.650000X1.060000*%
G04 #@! TD*
G04 #@! TA.AperFunction,SMDPad,CuDef*
%ADD19R,1.500000X0.450000*%
G04 #@! TD*
G04 #@! TA.AperFunction,ViaPad*
%ADD20C,0.800000*%
G04 #@! TD*
G04 #@! TA.AperFunction,Conductor*
%ADD21C,0.400000*%
G04 #@! TD*
G04 #@! TA.AperFunction,Conductor*
%ADD22C,0.250000*%
G04 #@! TD*
G04 #@! TA.AperFunction,Conductor*
%ADD23C,0.500000*%
G04 #@! TD*
G04 APERTURE END LIST*
D10*
G04 #@! TO.N,PHI0*
G04 #@! TO.C,R1*
G36*
X153636505Y-97452204D02*
X153660773Y-97455804D01*
X153684572Y-97461765D01*
X153707671Y-97470030D01*
X153729850Y-97480520D01*
X153750893Y-97493132D01*
X153770599Y-97507747D01*
X153788777Y-97524223D01*
X153805253Y-97542401D01*
X153819868Y-97562107D01*
X153832480Y-97583150D01*
X153842970Y-97605329D01*
X153851235Y-97628428D01*
X153857196Y-97652227D01*
X153860796Y-97676495D01*
X153862000Y-97700999D01*
X153862000Y-98351001D01*
X153860796Y-98375505D01*
X153857196Y-98399773D01*
X153851235Y-98423572D01*
X153842970Y-98446671D01*
X153832480Y-98468850D01*
X153819868Y-98489893D01*
X153805253Y-98509599D01*
X153788777Y-98527777D01*
X153770599Y-98544253D01*
X153750893Y-98558868D01*
X153729850Y-98571480D01*
X153707671Y-98581970D01*
X153684572Y-98590235D01*
X153660773Y-98596196D01*
X153636505Y-98599796D01*
X153612001Y-98601000D01*
X152711999Y-98601000D01*
X152687495Y-98599796D01*
X152663227Y-98596196D01*
X152639428Y-98590235D01*
X152616329Y-98581970D01*
X152594150Y-98571480D01*
X152573107Y-98558868D01*
X152553401Y-98544253D01*
X152535223Y-98527777D01*
X152518747Y-98509599D01*
X152504132Y-98489893D01*
X152491520Y-98468850D01*
X152481030Y-98446671D01*
X152472765Y-98423572D01*
X152466804Y-98399773D01*
X152463204Y-98375505D01*
X152462000Y-98351001D01*
X152462000Y-97700999D01*
X152463204Y-97676495D01*
X152466804Y-97652227D01*
X152472765Y-97628428D01*
X152481030Y-97605329D01*
X152491520Y-97583150D01*
X152504132Y-97562107D01*
X152518747Y-97542401D01*
X152535223Y-97524223D01*
X152553401Y-97507747D01*
X152573107Y-97493132D01*
X152594150Y-97480520D01*
X152616329Y-97470030D01*
X152639428Y-97461765D01*
X152663227Y-97455804D01*
X152687495Y-97452204D01*
X152711999Y-97451000D01*
X153612001Y-97451000D01*
X153636505Y-97452204D01*
X153636505Y-97452204D01*
G37*
D11*
G04 #@! TD*
G04 #@! TO.P,R1,1*
G04 #@! TO.N,PHI0*
X153162000Y-98026000D03*
D10*
G04 #@! TO.N,Net-(R1-Pad2)*
G04 #@! TO.C,R1*
G36*
X153636505Y-99502204D02*
X153660773Y-99505804D01*
X153684572Y-99511765D01*
X153707671Y-99520030D01*
X153729850Y-99530520D01*
X153750893Y-99543132D01*
X153770599Y-99557747D01*
X153788777Y-99574223D01*
X153805253Y-99592401D01*
X153819868Y-99612107D01*
X153832480Y-99633150D01*
X153842970Y-99655329D01*
X153851235Y-99678428D01*
X153857196Y-99702227D01*
X153860796Y-99726495D01*
X153862000Y-99750999D01*
X153862000Y-100401001D01*
X153860796Y-100425505D01*
X153857196Y-100449773D01*
X153851235Y-100473572D01*
X153842970Y-100496671D01*
X153832480Y-100518850D01*
X153819868Y-100539893D01*
X153805253Y-100559599D01*
X153788777Y-100577777D01*
X153770599Y-100594253D01*
X153750893Y-100608868D01*
X153729850Y-100621480D01*
X153707671Y-100631970D01*
X153684572Y-100640235D01*
X153660773Y-100646196D01*
X153636505Y-100649796D01*
X153612001Y-100651000D01*
X152711999Y-100651000D01*
X152687495Y-100649796D01*
X152663227Y-100646196D01*
X152639428Y-100640235D01*
X152616329Y-100631970D01*
X152594150Y-100621480D01*
X152573107Y-100608868D01*
X152553401Y-100594253D01*
X152535223Y-100577777D01*
X152518747Y-100559599D01*
X152504132Y-100539893D01*
X152491520Y-100518850D01*
X152481030Y-100496671D01*
X152472765Y-100473572D01*
X152466804Y-100449773D01*
X152463204Y-100425505D01*
X152462000Y-100401001D01*
X152462000Y-99750999D01*
X152463204Y-99726495D01*
X152466804Y-99702227D01*
X152472765Y-99678428D01*
X152481030Y-99655329D01*
X152491520Y-99633150D01*
X152504132Y-99612107D01*
X152518747Y-99592401D01*
X152535223Y-99574223D01*
X152553401Y-99557747D01*
X152573107Y-99543132D01*
X152594150Y-99530520D01*
X152616329Y-99520030D01*
X152639428Y-99511765D01*
X152663227Y-99505804D01*
X152687495Y-99502204D01*
X152711999Y-99501000D01*
X153612001Y-99501000D01*
X153636505Y-99502204D01*
X153636505Y-99502204D01*
G37*
D11*
G04 #@! TD*
G04 #@! TO.P,R1,2*
G04 #@! TO.N,Net-(R1-Pad2)*
X153162000Y-100076000D03*
D12*
G04 #@! TO.P,J1,1*
G04 #@! TO.N,DB7*
X152400000Y-68580000D03*
D13*
G04 #@! TO.P,J1,2*
G04 #@! TO.N,DB6*
X154940000Y-68580000D03*
G04 #@! TO.P,J1,3*
G04 #@! TO.N,DB5*
X152400000Y-71120000D03*
G04 #@! TO.P,J1,4*
G04 #@! TO.N,DB4*
X154940000Y-71120000D03*
G04 #@! TO.P,J1,5*
G04 #@! TO.N,DB3*
X152400000Y-73660000D03*
G04 #@! TO.P,J1,6*
G04 #@! TO.N,DB2*
X154940000Y-73660000D03*
G04 #@! TO.P,J1,7*
G04 #@! TO.N,DB1*
X152400000Y-76200000D03*
G04 #@! TO.P,J1,8*
G04 #@! TO.N,DB0*
X154940000Y-76200000D03*
G04 #@! TO.P,J1,9*
G04 #@! TO.N,DB11_A5*
X152400000Y-78740000D03*
G04 #@! TO.P,J1,10*
G04 #@! TO.N,DB10_A4*
X154940000Y-78740000D03*
G04 #@! TO.P,J1,11*
G04 #@! TO.N,DB9_A3*
X152400000Y-81280000D03*
G04 #@! TO.P,J1,12*
G04 #@! TO.N,DB8_A2*
X154940000Y-81280000D03*
G04 #@! TO.P,J1,13*
G04 #@! TO.N,A1*
X152400000Y-83820000D03*
G04 #@! TO.P,J1,14*
G04 #@! TO.N,A0*
X154940000Y-83820000D03*
G04 #@! TO.P,J1,15*
G04 #@! TO.N,CS*
X152400000Y-86360000D03*
G04 #@! TO.P,J1,16*
G04 #@! TO.N,RW*
X154940000Y-86360000D03*
G04 #@! TO.P,J1,17*
G04 #@! TO.N,BA*
X152400000Y-88900000D03*
G04 #@! TO.P,J1,18*
G04 #@! TO.N,AEC*
X154940000Y-88900000D03*
G04 #@! TO.P,J1,19*
G04 #@! TO.N,GND*
X152400000Y-91440000D03*
G04 #@! TO.P,J1,20*
G04 #@! TO.N,PHI0*
X154940000Y-91440000D03*
G04 #@! TD*
D14*
G04 #@! TO.P,U5,20*
G04 #@! TO.N,+3V3*
X145190000Y-93595000D03*
G04 #@! TO.P,U5,19*
G04 #@! TO.N,GND*
X145190000Y-94245000D03*
G04 #@! TO.P,U5,18*
G04 #@! TO.N,A1*
X145190000Y-94895000D03*
G04 #@! TO.P,U5,17*
G04 #@! TO.N,A0*
X145190000Y-95545000D03*
G04 #@! TO.P,U5,16*
G04 #@! TO.N,CS*
X145190000Y-96195000D03*
G04 #@! TO.P,U5,15*
G04 #@! TO.N,RW*
X145190000Y-96845000D03*
G04 #@! TO.P,U5,14*
G04 #@! TO.N,BA*
X145190000Y-97495000D03*
G04 #@! TO.P,U5,13*
G04 #@! TO.N,AEC*
X145190000Y-98145000D03*
G04 #@! TO.P,U5,12*
G04 #@! TO.N,Net-(U5-Pad12)*
X145190000Y-98795000D03*
G04 #@! TO.P,U5,11*
G04 #@! TO.N,Net-(R1-Pad2)*
X145190000Y-99445000D03*
G04 #@! TO.P,U5,10*
G04 #@! TO.N,GND*
X139290000Y-99445000D03*
G04 #@! TO.P,U5,9*
G04 #@! TO.N,Net-(U1-Pad17)*
X139290000Y-98795000D03*
G04 #@! TO.P,U5,8*
G04 #@! TO.N,GND*
X139290000Y-98145000D03*
G04 #@! TO.P,U5,7*
G04 #@! TO.N,Net-(U1-Pad16)*
X139290000Y-97495000D03*
G04 #@! TO.P,U5,6*
G04 #@! TO.N,Net-(U1-Pad12)*
X139290000Y-96845000D03*
G04 #@! TO.P,U5,5*
G04 #@! TO.N,Net-(U1-Pad11)*
X139290000Y-96195000D03*
G04 #@! TO.P,U5,4*
G04 #@! TO.N,Net-(U1-Pad10)*
X139290000Y-95545000D03*
G04 #@! TO.P,U5,3*
G04 #@! TO.N,Net-(U1-Pad24)*
X139290000Y-94895000D03*
G04 #@! TO.P,U5,2*
G04 #@! TO.N,Net-(U1-Pad25)*
X139290000Y-94245000D03*
G04 #@! TO.P,U5,1*
G04 #@! TO.N,+3V3*
X139290000Y-93595000D03*
G04 #@! TD*
D15*
G04 #@! TO.P,U1,40*
G04 #@! TO.N,+5V*
X149860000Y-55880000D03*
G04 #@! TO.P,U1,39*
G04 #@! TO.N,Net-(U1-Pad39)*
X149860000Y-58420000D03*
G04 #@! TO.P,U1,38*
G04 #@! TO.N,Net-(U1-Pad38)*
X149860000Y-60960000D03*
G04 #@! TO.P,U1,37*
G04 #@! TO.N,Net-(U1-Pad37)*
X149860000Y-63500000D03*
G04 #@! TO.P,U1,36*
G04 #@! TO.N,Net-(U1-Pad36)*
X149860000Y-66040000D03*
G04 #@! TO.P,U1,35*
G04 #@! TO.N,Net-(U1-Pad35)*
X149860000Y-68580000D03*
G04 #@! TO.P,U1,34*
G04 #@! TO.N,Net-(U1-Pad34)*
X149860000Y-71120000D03*
G04 #@! TO.P,U1,33*
G04 #@! TO.N,Net-(U1-Pad33)*
X149860000Y-73660000D03*
G04 #@! TO.P,U1,32*
G04 #@! TO.N,Net-(U1-Pad32)*
X149860000Y-76200000D03*
G04 #@! TO.P,U1,31*
G04 #@! TO.N,Net-(U1-Pad31)*
X149860000Y-78740000D03*
G04 #@! TO.P,U1,30*
G04 #@! TO.N,Net-(U1-Pad30)*
X149860000Y-81280000D03*
G04 #@! TO.P,U1,29*
G04 #@! TO.N,Net-(U1-Pad29)*
X149860000Y-83820000D03*
G04 #@! TO.P,U1,28*
G04 #@! TO.N,Net-(U1-Pad28)*
X149860000Y-86360000D03*
G04 #@! TO.P,U1,27*
G04 #@! TO.N,Net-(U1-Pad27)*
X149860000Y-88900000D03*
G04 #@! TO.P,U1,26*
G04 #@! TO.N,Net-(U1-Pad26)*
X149860000Y-91440000D03*
G04 #@! TO.P,U1,25*
G04 #@! TO.N,Net-(U1-Pad25)*
X149860000Y-93980000D03*
G04 #@! TO.P,U1,24*
G04 #@! TO.N,Net-(U1-Pad24)*
X149860000Y-96520000D03*
G04 #@! TO.P,U1,23*
G04 #@! TO.N,Net-(U1-Pad23)*
X149860000Y-99060000D03*
G04 #@! TO.P,U1,22*
G04 #@! TO.N,Net-(U1-Pad22)*
X149860000Y-101600000D03*
G04 #@! TO.P,U1,21*
G04 #@! TO.N,Net-(U1-Pad21)*
X149860000Y-104140000D03*
D16*
G04 #@! TO.P,U1,20*
G04 #@! TO.N,GND*
X134620000Y-104140000D03*
G04 #@! TO.P,U1,19*
G04 #@! TO.N,Net-(U1-Pad19)*
X134620000Y-101600000D03*
G04 #@! TO.P,U1,18*
G04 #@! TO.N,Net-(U1-Pad18)*
X134620000Y-99060000D03*
G04 #@! TO.P,U1,17*
G04 #@! TO.N,Net-(U1-Pad17)*
X134620000Y-96520000D03*
G04 #@! TO.P,U1,16*
G04 #@! TO.N,Net-(U1-Pad16)*
X134620000Y-93980000D03*
G04 #@! TO.P,U1,15*
G04 #@! TO.N,Net-(U1-Pad15)*
X134620000Y-91440000D03*
G04 #@! TO.P,U1,14*
G04 #@! TO.N,Net-(U1-Pad14)*
X134620000Y-88900000D03*
G04 #@! TO.P,U1,13*
G04 #@! TO.N,Net-(U1-Pad13)*
X134620000Y-86360000D03*
G04 #@! TO.P,U1,12*
G04 #@! TO.N,Net-(U1-Pad12)*
X134620000Y-83820000D03*
G04 #@! TO.P,U1,11*
G04 #@! TO.N,Net-(U1-Pad11)*
X134620000Y-81280000D03*
G04 #@! TO.P,U1,9*
G04 #@! TO.N,Net-(U1-Pad9)*
X134620000Y-76200000D03*
G04 #@! TO.P,U1,8*
G04 #@! TO.N,Net-(U1-Pad8)*
X134620000Y-73660000D03*
G04 #@! TO.P,U1,7*
G04 #@! TO.N,Net-(U1-Pad7)*
X134620000Y-71120000D03*
G04 #@! TO.P,U1,6*
G04 #@! TO.N,Net-(U1-Pad6)*
X134620000Y-68580000D03*
G04 #@! TO.P,U1,5*
G04 #@! TO.N,Net-(U1-Pad5)*
X134620000Y-66040000D03*
G04 #@! TO.P,U1,4*
G04 #@! TO.N,Net-(U1-Pad4)*
X134620000Y-63500000D03*
G04 #@! TO.P,U1,3*
G04 #@! TO.N,Net-(U1-Pad3)*
X134620000Y-60960000D03*
G04 #@! TO.P,U1,2*
G04 #@! TO.N,Net-(U1-Pad2)*
X134620000Y-58420000D03*
G04 #@! TO.P,U1,1*
G04 #@! TO.N,Net-(U1-Pad1)*
X134620000Y-55880000D03*
G04 #@! TO.P,U1,10*
G04 #@! TO.N,Net-(U1-Pad10)*
X134620000Y-78740000D03*
G04 #@! TD*
D10*
G04 #@! TO.N,+5V*
G04 #@! TO.C,C1*
G36*
X153384505Y-62293204D02*
X153408773Y-62296804D01*
X153432572Y-62302765D01*
X153455671Y-62311030D01*
X153477850Y-62321520D01*
X153498893Y-62334132D01*
X153518599Y-62348747D01*
X153536777Y-62365223D01*
X153553253Y-62383401D01*
X153567868Y-62403107D01*
X153580480Y-62424150D01*
X153590970Y-62446329D01*
X153599235Y-62469428D01*
X153605196Y-62493227D01*
X153608796Y-62517495D01*
X153610000Y-62541999D01*
X153610000Y-63442001D01*
X153608796Y-63466505D01*
X153605196Y-63490773D01*
X153599235Y-63514572D01*
X153590970Y-63537671D01*
X153580480Y-63559850D01*
X153567868Y-63580893D01*
X153553253Y-63600599D01*
X153536777Y-63618777D01*
X153518599Y-63635253D01*
X153498893Y-63649868D01*
X153477850Y-63662480D01*
X153455671Y-63672970D01*
X153432572Y-63681235D01*
X153408773Y-63687196D01*
X153384505Y-63690796D01*
X153360001Y-63692000D01*
X152709999Y-63692000D01*
X152685495Y-63690796D01*
X152661227Y-63687196D01*
X152637428Y-63681235D01*
X152614329Y-63672970D01*
X152592150Y-63662480D01*
X152571107Y-63649868D01*
X152551401Y-63635253D01*
X152533223Y-63618777D01*
X152516747Y-63600599D01*
X152502132Y-63580893D01*
X152489520Y-63559850D01*
X152479030Y-63537671D01*
X152470765Y-63514572D01*
X152464804Y-63490773D01*
X152461204Y-63466505D01*
X152460000Y-63442001D01*
X152460000Y-62541999D01*
X152461204Y-62517495D01*
X152464804Y-62493227D01*
X152470765Y-62469428D01*
X152479030Y-62446329D01*
X152489520Y-62424150D01*
X152502132Y-62403107D01*
X152516747Y-62383401D01*
X152533223Y-62365223D01*
X152551401Y-62348747D01*
X152571107Y-62334132D01*
X152592150Y-62321520D01*
X152614329Y-62311030D01*
X152637428Y-62302765D01*
X152661227Y-62296804D01*
X152685495Y-62293204D01*
X152709999Y-62292000D01*
X153360001Y-62292000D01*
X153384505Y-62293204D01*
X153384505Y-62293204D01*
G37*
D11*
G04 #@! TD*
G04 #@! TO.P,C1,1*
G04 #@! TO.N,+5V*
X153035000Y-62992000D03*
D10*
G04 #@! TO.N,GND*
G04 #@! TO.C,C1*
G36*
X155434505Y-62293204D02*
X155458773Y-62296804D01*
X155482572Y-62302765D01*
X155505671Y-62311030D01*
X155527850Y-62321520D01*
X155548893Y-62334132D01*
X155568599Y-62348747D01*
X155586777Y-62365223D01*
X155603253Y-62383401D01*
X155617868Y-62403107D01*
X155630480Y-62424150D01*
X155640970Y-62446329D01*
X155649235Y-62469428D01*
X155655196Y-62493227D01*
X155658796Y-62517495D01*
X155660000Y-62541999D01*
X155660000Y-63442001D01*
X155658796Y-63466505D01*
X155655196Y-63490773D01*
X155649235Y-63514572D01*
X155640970Y-63537671D01*
X155630480Y-63559850D01*
X155617868Y-63580893D01*
X155603253Y-63600599D01*
X155586777Y-63618777D01*
X155568599Y-63635253D01*
X155548893Y-63649868D01*
X155527850Y-63662480D01*
X155505671Y-63672970D01*
X155482572Y-63681235D01*
X155458773Y-63687196D01*
X155434505Y-63690796D01*
X155410001Y-63692000D01*
X154759999Y-63692000D01*
X154735495Y-63690796D01*
X154711227Y-63687196D01*
X154687428Y-63681235D01*
X154664329Y-63672970D01*
X154642150Y-63662480D01*
X154621107Y-63649868D01*
X154601401Y-63635253D01*
X154583223Y-63618777D01*
X154566747Y-63600599D01*
X154552132Y-63580893D01*
X154539520Y-63559850D01*
X154529030Y-63537671D01*
X154520765Y-63514572D01*
X154514804Y-63490773D01*
X154511204Y-63466505D01*
X154510000Y-63442001D01*
X154510000Y-62541999D01*
X154511204Y-62517495D01*
X154514804Y-62493227D01*
X154520765Y-62469428D01*
X154529030Y-62446329D01*
X154539520Y-62424150D01*
X154552132Y-62403107D01*
X154566747Y-62383401D01*
X154583223Y-62365223D01*
X154601401Y-62348747D01*
X154621107Y-62334132D01*
X154642150Y-62321520D01*
X154664329Y-62311030D01*
X154687428Y-62302765D01*
X154711227Y-62296804D01*
X154735495Y-62293204D01*
X154759999Y-62292000D01*
X155410001Y-62292000D01*
X155434505Y-62293204D01*
X155434505Y-62293204D01*
G37*
D11*
G04 #@! TD*
G04 #@! TO.P,C1,2*
G04 #@! TO.N,GND*
X155085000Y-62992000D03*
D10*
G04 #@! TO.N,GND*
G04 #@! TO.C,C2*
G36*
X155298505Y-55181204D02*
X155322773Y-55184804D01*
X155346572Y-55190765D01*
X155369671Y-55199030D01*
X155391850Y-55209520D01*
X155412893Y-55222132D01*
X155432599Y-55236747D01*
X155450777Y-55253223D01*
X155467253Y-55271401D01*
X155481868Y-55291107D01*
X155494480Y-55312150D01*
X155504970Y-55334329D01*
X155513235Y-55357428D01*
X155519196Y-55381227D01*
X155522796Y-55405495D01*
X155524000Y-55429999D01*
X155524000Y-56330001D01*
X155522796Y-56354505D01*
X155519196Y-56378773D01*
X155513235Y-56402572D01*
X155504970Y-56425671D01*
X155494480Y-56447850D01*
X155481868Y-56468893D01*
X155467253Y-56488599D01*
X155450777Y-56506777D01*
X155432599Y-56523253D01*
X155412893Y-56537868D01*
X155391850Y-56550480D01*
X155369671Y-56560970D01*
X155346572Y-56569235D01*
X155322773Y-56575196D01*
X155298505Y-56578796D01*
X155274001Y-56580000D01*
X154623999Y-56580000D01*
X154599495Y-56578796D01*
X154575227Y-56575196D01*
X154551428Y-56569235D01*
X154528329Y-56560970D01*
X154506150Y-56550480D01*
X154485107Y-56537868D01*
X154465401Y-56523253D01*
X154447223Y-56506777D01*
X154430747Y-56488599D01*
X154416132Y-56468893D01*
X154403520Y-56447850D01*
X154393030Y-56425671D01*
X154384765Y-56402572D01*
X154378804Y-56378773D01*
X154375204Y-56354505D01*
X154374000Y-56330001D01*
X154374000Y-55429999D01*
X154375204Y-55405495D01*
X154378804Y-55381227D01*
X154384765Y-55357428D01*
X154393030Y-55334329D01*
X154403520Y-55312150D01*
X154416132Y-55291107D01*
X154430747Y-55271401D01*
X154447223Y-55253223D01*
X154465401Y-55236747D01*
X154485107Y-55222132D01*
X154506150Y-55209520D01*
X154528329Y-55199030D01*
X154551428Y-55190765D01*
X154575227Y-55184804D01*
X154599495Y-55181204D01*
X154623999Y-55180000D01*
X155274001Y-55180000D01*
X155298505Y-55181204D01*
X155298505Y-55181204D01*
G37*
D11*
G04 #@! TD*
G04 #@! TO.P,C2,2*
G04 #@! TO.N,GND*
X154949000Y-55880000D03*
D10*
G04 #@! TO.N,+3V3*
G04 #@! TO.C,C2*
G36*
X153248505Y-55181204D02*
X153272773Y-55184804D01*
X153296572Y-55190765D01*
X153319671Y-55199030D01*
X153341850Y-55209520D01*
X153362893Y-55222132D01*
X153382599Y-55236747D01*
X153400777Y-55253223D01*
X153417253Y-55271401D01*
X153431868Y-55291107D01*
X153444480Y-55312150D01*
X153454970Y-55334329D01*
X153463235Y-55357428D01*
X153469196Y-55381227D01*
X153472796Y-55405495D01*
X153474000Y-55429999D01*
X153474000Y-56330001D01*
X153472796Y-56354505D01*
X153469196Y-56378773D01*
X153463235Y-56402572D01*
X153454970Y-56425671D01*
X153444480Y-56447850D01*
X153431868Y-56468893D01*
X153417253Y-56488599D01*
X153400777Y-56506777D01*
X153382599Y-56523253D01*
X153362893Y-56537868D01*
X153341850Y-56550480D01*
X153319671Y-56560970D01*
X153296572Y-56569235D01*
X153272773Y-56575196D01*
X153248505Y-56578796D01*
X153224001Y-56580000D01*
X152573999Y-56580000D01*
X152549495Y-56578796D01*
X152525227Y-56575196D01*
X152501428Y-56569235D01*
X152478329Y-56560970D01*
X152456150Y-56550480D01*
X152435107Y-56537868D01*
X152415401Y-56523253D01*
X152397223Y-56506777D01*
X152380747Y-56488599D01*
X152366132Y-56468893D01*
X152353520Y-56447850D01*
X152343030Y-56425671D01*
X152334765Y-56402572D01*
X152328804Y-56378773D01*
X152325204Y-56354505D01*
X152324000Y-56330001D01*
X152324000Y-55429999D01*
X152325204Y-55405495D01*
X152328804Y-55381227D01*
X152334765Y-55357428D01*
X152343030Y-55334329D01*
X152353520Y-55312150D01*
X152366132Y-55291107D01*
X152380747Y-55271401D01*
X152397223Y-55253223D01*
X152415401Y-55236747D01*
X152435107Y-55222132D01*
X152456150Y-55209520D01*
X152478329Y-55199030D01*
X152501428Y-55190765D01*
X152525227Y-55184804D01*
X152549495Y-55181204D01*
X152573999Y-55180000D01*
X153224001Y-55180000D01*
X153248505Y-55181204D01*
X153248505Y-55181204D01*
G37*
D11*
G04 #@! TD*
G04 #@! TO.P,C2,1*
G04 #@! TO.N,+3V3*
X152899000Y-55880000D03*
D10*
G04 #@! TO.N,+3V3*
G04 #@! TO.C,C3*
G36*
X143820779Y-75726144D02*
X143843834Y-75729563D01*
X143866443Y-75735227D01*
X143888387Y-75743079D01*
X143909457Y-75753044D01*
X143929448Y-75765026D01*
X143948168Y-75778910D01*
X143965438Y-75794562D01*
X143981090Y-75811832D01*
X143994974Y-75830552D01*
X144006956Y-75850543D01*
X144016921Y-75871613D01*
X144024773Y-75893557D01*
X144030437Y-75916166D01*
X144033856Y-75939221D01*
X144035000Y-75962500D01*
X144035000Y-76437500D01*
X144033856Y-76460779D01*
X144030437Y-76483834D01*
X144024773Y-76506443D01*
X144016921Y-76528387D01*
X144006956Y-76549457D01*
X143994974Y-76569448D01*
X143981090Y-76588168D01*
X143965438Y-76605438D01*
X143948168Y-76621090D01*
X143929448Y-76634974D01*
X143909457Y-76646956D01*
X143888387Y-76656921D01*
X143866443Y-76664773D01*
X143843834Y-76670437D01*
X143820779Y-76673856D01*
X143797500Y-76675000D01*
X143222500Y-76675000D01*
X143199221Y-76673856D01*
X143176166Y-76670437D01*
X143153557Y-76664773D01*
X143131613Y-76656921D01*
X143110543Y-76646956D01*
X143090552Y-76634974D01*
X143071832Y-76621090D01*
X143054562Y-76605438D01*
X143038910Y-76588168D01*
X143025026Y-76569448D01*
X143013044Y-76549457D01*
X143003079Y-76528387D01*
X142995227Y-76506443D01*
X142989563Y-76483834D01*
X142986144Y-76460779D01*
X142985000Y-76437500D01*
X142985000Y-75962500D01*
X142986144Y-75939221D01*
X142989563Y-75916166D01*
X142995227Y-75893557D01*
X143003079Y-75871613D01*
X143013044Y-75850543D01*
X143025026Y-75830552D01*
X143038910Y-75811832D01*
X143054562Y-75794562D01*
X143071832Y-75778910D01*
X143090552Y-75765026D01*
X143110543Y-75753044D01*
X143131613Y-75743079D01*
X143153557Y-75735227D01*
X143176166Y-75729563D01*
X143199221Y-75726144D01*
X143222500Y-75725000D01*
X143797500Y-75725000D01*
X143820779Y-75726144D01*
X143820779Y-75726144D01*
G37*
D17*
G04 #@! TD*
G04 #@! TO.P,C3,1*
G04 #@! TO.N,+3V3*
X143510000Y-76200000D03*
D10*
G04 #@! TO.N,GND*
G04 #@! TO.C,C3*
G36*
X142070779Y-75726144D02*
X142093834Y-75729563D01*
X142116443Y-75735227D01*
X142138387Y-75743079D01*
X142159457Y-75753044D01*
X142179448Y-75765026D01*
X142198168Y-75778910D01*
X142215438Y-75794562D01*
X142231090Y-75811832D01*
X142244974Y-75830552D01*
X142256956Y-75850543D01*
X142266921Y-75871613D01*
X142274773Y-75893557D01*
X142280437Y-75916166D01*
X142283856Y-75939221D01*
X142285000Y-75962500D01*
X142285000Y-76437500D01*
X142283856Y-76460779D01*
X142280437Y-76483834D01*
X142274773Y-76506443D01*
X142266921Y-76528387D01*
X142256956Y-76549457D01*
X142244974Y-76569448D01*
X142231090Y-76588168D01*
X142215438Y-76605438D01*
X142198168Y-76621090D01*
X142179448Y-76634974D01*
X142159457Y-76646956D01*
X142138387Y-76656921D01*
X142116443Y-76664773D01*
X142093834Y-76670437D01*
X142070779Y-76673856D01*
X142047500Y-76675000D01*
X141472500Y-76675000D01*
X141449221Y-76673856D01*
X141426166Y-76670437D01*
X141403557Y-76664773D01*
X141381613Y-76656921D01*
X141360543Y-76646956D01*
X141340552Y-76634974D01*
X141321832Y-76621090D01*
X141304562Y-76605438D01*
X141288910Y-76588168D01*
X141275026Y-76569448D01*
X141263044Y-76549457D01*
X141253079Y-76528387D01*
X141245227Y-76506443D01*
X141239563Y-76483834D01*
X141236144Y-76460779D01*
X141235000Y-76437500D01*
X141235000Y-75962500D01*
X141236144Y-75939221D01*
X141239563Y-75916166D01*
X141245227Y-75893557D01*
X141253079Y-75871613D01*
X141263044Y-75850543D01*
X141275026Y-75830552D01*
X141288910Y-75811832D01*
X141304562Y-75794562D01*
X141321832Y-75778910D01*
X141340552Y-75765026D01*
X141360543Y-75753044D01*
X141381613Y-75743079D01*
X141403557Y-75735227D01*
X141426166Y-75729563D01*
X141449221Y-75726144D01*
X141472500Y-75725000D01*
X142047500Y-75725000D01*
X142070779Y-75726144D01*
X142070779Y-75726144D01*
G37*
D17*
G04 #@! TD*
G04 #@! TO.P,C3,2*
G04 #@! TO.N,GND*
X141760000Y-76200000D03*
D10*
G04 #@! TO.N,GND*
G04 #@! TO.C,C4*
G36*
X142070779Y-59216144D02*
X142093834Y-59219563D01*
X142116443Y-59225227D01*
X142138387Y-59233079D01*
X142159457Y-59243044D01*
X142179448Y-59255026D01*
X142198168Y-59268910D01*
X142215438Y-59284562D01*
X142231090Y-59301832D01*
X142244974Y-59320552D01*
X142256956Y-59340543D01*
X142266921Y-59361613D01*
X142274773Y-59383557D01*
X142280437Y-59406166D01*
X142283856Y-59429221D01*
X142285000Y-59452500D01*
X142285000Y-59927500D01*
X142283856Y-59950779D01*
X142280437Y-59973834D01*
X142274773Y-59996443D01*
X142266921Y-60018387D01*
X142256956Y-60039457D01*
X142244974Y-60059448D01*
X142231090Y-60078168D01*
X142215438Y-60095438D01*
X142198168Y-60111090D01*
X142179448Y-60124974D01*
X142159457Y-60136956D01*
X142138387Y-60146921D01*
X142116443Y-60154773D01*
X142093834Y-60160437D01*
X142070779Y-60163856D01*
X142047500Y-60165000D01*
X141472500Y-60165000D01*
X141449221Y-60163856D01*
X141426166Y-60160437D01*
X141403557Y-60154773D01*
X141381613Y-60146921D01*
X141360543Y-60136956D01*
X141340552Y-60124974D01*
X141321832Y-60111090D01*
X141304562Y-60095438D01*
X141288910Y-60078168D01*
X141275026Y-60059448D01*
X141263044Y-60039457D01*
X141253079Y-60018387D01*
X141245227Y-59996443D01*
X141239563Y-59973834D01*
X141236144Y-59950779D01*
X141235000Y-59927500D01*
X141235000Y-59452500D01*
X141236144Y-59429221D01*
X141239563Y-59406166D01*
X141245227Y-59383557D01*
X141253079Y-59361613D01*
X141263044Y-59340543D01*
X141275026Y-59320552D01*
X141288910Y-59301832D01*
X141304562Y-59284562D01*
X141321832Y-59268910D01*
X141340552Y-59255026D01*
X141360543Y-59243044D01*
X141381613Y-59233079D01*
X141403557Y-59225227D01*
X141426166Y-59219563D01*
X141449221Y-59216144D01*
X141472500Y-59215000D01*
X142047500Y-59215000D01*
X142070779Y-59216144D01*
X142070779Y-59216144D01*
G37*
D17*
G04 #@! TD*
G04 #@! TO.P,C4,2*
G04 #@! TO.N,GND*
X141760000Y-59690000D03*
D10*
G04 #@! TO.N,+3V3*
G04 #@! TO.C,C4*
G36*
X143820779Y-59216144D02*
X143843834Y-59219563D01*
X143866443Y-59225227D01*
X143888387Y-59233079D01*
X143909457Y-59243044D01*
X143929448Y-59255026D01*
X143948168Y-59268910D01*
X143965438Y-59284562D01*
X143981090Y-59301832D01*
X143994974Y-59320552D01*
X144006956Y-59340543D01*
X144016921Y-59361613D01*
X144024773Y-59383557D01*
X144030437Y-59406166D01*
X144033856Y-59429221D01*
X144035000Y-59452500D01*
X144035000Y-59927500D01*
X144033856Y-59950779D01*
X144030437Y-59973834D01*
X144024773Y-59996443D01*
X144016921Y-60018387D01*
X144006956Y-60039457D01*
X143994974Y-60059448D01*
X143981090Y-60078168D01*
X143965438Y-60095438D01*
X143948168Y-60111090D01*
X143929448Y-60124974D01*
X143909457Y-60136956D01*
X143888387Y-60146921D01*
X143866443Y-60154773D01*
X143843834Y-60160437D01*
X143820779Y-60163856D01*
X143797500Y-60165000D01*
X143222500Y-60165000D01*
X143199221Y-60163856D01*
X143176166Y-60160437D01*
X143153557Y-60154773D01*
X143131613Y-60146921D01*
X143110543Y-60136956D01*
X143090552Y-60124974D01*
X143071832Y-60111090D01*
X143054562Y-60095438D01*
X143038910Y-60078168D01*
X143025026Y-60059448D01*
X143013044Y-60039457D01*
X143003079Y-60018387D01*
X142995227Y-59996443D01*
X142989563Y-59973834D01*
X142986144Y-59950779D01*
X142985000Y-59927500D01*
X142985000Y-59452500D01*
X142986144Y-59429221D01*
X142989563Y-59406166D01*
X142995227Y-59383557D01*
X143003079Y-59361613D01*
X143013044Y-59340543D01*
X143025026Y-59320552D01*
X143038910Y-59301832D01*
X143054562Y-59284562D01*
X143071832Y-59268910D01*
X143090552Y-59255026D01*
X143110543Y-59243044D01*
X143131613Y-59233079D01*
X143153557Y-59225227D01*
X143176166Y-59219563D01*
X143199221Y-59216144D01*
X143222500Y-59215000D01*
X143797500Y-59215000D01*
X143820779Y-59216144D01*
X143820779Y-59216144D01*
G37*
D17*
G04 #@! TD*
G04 #@! TO.P,C4,1*
G04 #@! TO.N,+3V3*
X143510000Y-59690000D03*
D10*
G04 #@! TO.N,+3V3*
G04 #@! TO.C,C5*
G36*
X143820779Y-90966144D02*
X143843834Y-90969563D01*
X143866443Y-90975227D01*
X143888387Y-90983079D01*
X143909457Y-90993044D01*
X143929448Y-91005026D01*
X143948168Y-91018910D01*
X143965438Y-91034562D01*
X143981090Y-91051832D01*
X143994974Y-91070552D01*
X144006956Y-91090543D01*
X144016921Y-91111613D01*
X144024773Y-91133557D01*
X144030437Y-91156166D01*
X144033856Y-91179221D01*
X144035000Y-91202500D01*
X144035000Y-91677500D01*
X144033856Y-91700779D01*
X144030437Y-91723834D01*
X144024773Y-91746443D01*
X144016921Y-91768387D01*
X144006956Y-91789457D01*
X143994974Y-91809448D01*
X143981090Y-91828168D01*
X143965438Y-91845438D01*
X143948168Y-91861090D01*
X143929448Y-91874974D01*
X143909457Y-91886956D01*
X143888387Y-91896921D01*
X143866443Y-91904773D01*
X143843834Y-91910437D01*
X143820779Y-91913856D01*
X143797500Y-91915000D01*
X143222500Y-91915000D01*
X143199221Y-91913856D01*
X143176166Y-91910437D01*
X143153557Y-91904773D01*
X143131613Y-91896921D01*
X143110543Y-91886956D01*
X143090552Y-91874974D01*
X143071832Y-91861090D01*
X143054562Y-91845438D01*
X143038910Y-91828168D01*
X143025026Y-91809448D01*
X143013044Y-91789457D01*
X143003079Y-91768387D01*
X142995227Y-91746443D01*
X142989563Y-91723834D01*
X142986144Y-91700779D01*
X142985000Y-91677500D01*
X142985000Y-91202500D01*
X142986144Y-91179221D01*
X142989563Y-91156166D01*
X142995227Y-91133557D01*
X143003079Y-91111613D01*
X143013044Y-91090543D01*
X143025026Y-91070552D01*
X143038910Y-91051832D01*
X143054562Y-91034562D01*
X143071832Y-91018910D01*
X143090552Y-91005026D01*
X143110543Y-90993044D01*
X143131613Y-90983079D01*
X143153557Y-90975227D01*
X143176166Y-90969563D01*
X143199221Y-90966144D01*
X143222500Y-90965000D01*
X143797500Y-90965000D01*
X143820779Y-90966144D01*
X143820779Y-90966144D01*
G37*
D17*
G04 #@! TD*
G04 #@! TO.P,C5,1*
G04 #@! TO.N,+3V3*
X143510000Y-91440000D03*
D10*
G04 #@! TO.N,GND*
G04 #@! TO.C,C5*
G36*
X142070779Y-90966144D02*
X142093834Y-90969563D01*
X142116443Y-90975227D01*
X142138387Y-90983079D01*
X142159457Y-90993044D01*
X142179448Y-91005026D01*
X142198168Y-91018910D01*
X142215438Y-91034562D01*
X142231090Y-91051832D01*
X142244974Y-91070552D01*
X142256956Y-91090543D01*
X142266921Y-91111613D01*
X142274773Y-91133557D01*
X142280437Y-91156166D01*
X142283856Y-91179221D01*
X142285000Y-91202500D01*
X142285000Y-91677500D01*
X142283856Y-91700779D01*
X142280437Y-91723834D01*
X142274773Y-91746443D01*
X142266921Y-91768387D01*
X142256956Y-91789457D01*
X142244974Y-91809448D01*
X142231090Y-91828168D01*
X142215438Y-91845438D01*
X142198168Y-91861090D01*
X142179448Y-91874974D01*
X142159457Y-91886956D01*
X142138387Y-91896921D01*
X142116443Y-91904773D01*
X142093834Y-91910437D01*
X142070779Y-91913856D01*
X142047500Y-91915000D01*
X141472500Y-91915000D01*
X141449221Y-91913856D01*
X141426166Y-91910437D01*
X141403557Y-91904773D01*
X141381613Y-91896921D01*
X141360543Y-91886956D01*
X141340552Y-91874974D01*
X141321832Y-91861090D01*
X141304562Y-91845438D01*
X141288910Y-91828168D01*
X141275026Y-91809448D01*
X141263044Y-91789457D01*
X141253079Y-91768387D01*
X141245227Y-91746443D01*
X141239563Y-91723834D01*
X141236144Y-91700779D01*
X141235000Y-91677500D01*
X141235000Y-91202500D01*
X141236144Y-91179221D01*
X141239563Y-91156166D01*
X141245227Y-91133557D01*
X141253079Y-91111613D01*
X141263044Y-91090543D01*
X141275026Y-91070552D01*
X141288910Y-91051832D01*
X141304562Y-91034562D01*
X141321832Y-91018910D01*
X141340552Y-91005026D01*
X141360543Y-90993044D01*
X141381613Y-90983079D01*
X141403557Y-90975227D01*
X141426166Y-90969563D01*
X141449221Y-90966144D01*
X141472500Y-90965000D01*
X142047500Y-90965000D01*
X142070779Y-90966144D01*
X142070779Y-90966144D01*
G37*
D17*
G04 #@! TD*
G04 #@! TO.P,C5,2*
G04 #@! TO.N,GND*
X141760000Y-91440000D03*
D18*
G04 #@! TO.P,U2,1*
G04 #@! TO.N,+5V*
X153040000Y-60536000D03*
G04 #@! TO.P,U2,2*
G04 #@! TO.N,GND*
X153990000Y-60536000D03*
G04 #@! TO.P,U2,3*
G04 #@! TO.N,+5V*
X154940000Y-60536000D03*
G04 #@! TO.P,U2,4*
G04 #@! TO.N,Net-(U2-Pad4)*
X154940000Y-58336000D03*
G04 #@! TO.P,U2,5*
G04 #@! TO.N,+3V3*
X153040000Y-58336000D03*
G04 #@! TD*
D19*
G04 #@! TO.P,U3,1*
G04 #@! TO.N,AEC*
X139290000Y-79005000D03*
G04 #@! TO.P,U3,2*
G04 #@! TO.N,Net-(U1-Pad35)*
X139290000Y-79655000D03*
G04 #@! TO.P,U3,3*
G04 #@! TO.N,Net-(U1-Pad29)*
X139290000Y-80305000D03*
G04 #@! TO.P,U3,4*
G04 #@! TO.N,DB11_A5*
X139290000Y-80955000D03*
G04 #@! TO.P,U3,5*
G04 #@! TO.N,Net-(U1-Pad37)*
X139290000Y-81605000D03*
G04 #@! TO.P,U3,6*
G04 #@! TO.N,Net-(U1-Pad27)*
X139290000Y-82255000D03*
G04 #@! TO.P,U3,7*
G04 #@! TO.N,DB9_A3*
X139290000Y-82905000D03*
G04 #@! TO.P,U3,8*
G04 #@! TO.N,GND*
X139290000Y-83555000D03*
G04 #@! TO.P,U3,9*
G04 #@! TO.N,DB8_A2*
X145190000Y-83555000D03*
G04 #@! TO.P,U3,10*
G04 #@! TO.N,Net-(U1-Pad26)*
X145190000Y-82905000D03*
G04 #@! TO.P,U3,11*
G04 #@! TO.N,Net-(U1-Pad38)*
X145190000Y-82255000D03*
G04 #@! TO.P,U3,12*
G04 #@! TO.N,DB10_A4*
X145190000Y-81605000D03*
G04 #@! TO.P,U3,13*
G04 #@! TO.N,Net-(U1-Pad28)*
X145190000Y-80955000D03*
G04 #@! TO.P,U3,14*
G04 #@! TO.N,Net-(U1-Pad36)*
X145190000Y-80305000D03*
G04 #@! TO.P,U3,15*
G04 #@! TO.N,GND*
X145190000Y-79655000D03*
G04 #@! TO.P,U3,16*
G04 #@! TO.N,+3V3*
X145190000Y-79005000D03*
G04 #@! TD*
D14*
G04 #@! TO.P,U4,1*
G04 #@! TO.N,+3V3*
X139290000Y-61845000D03*
G04 #@! TO.P,U4,2*
G04 #@! TO.N,Net-(U1-Pad39)*
X139290000Y-62495000D03*
G04 #@! TO.P,U4,3*
G04 #@! TO.N,Net-(U1-Pad1)*
X139290000Y-63145000D03*
G04 #@! TO.P,U4,4*
G04 #@! TO.N,Net-(U1-Pad2)*
X139290000Y-63795000D03*
G04 #@! TO.P,U4,5*
G04 #@! TO.N,Net-(U1-Pad3)*
X139290000Y-64445000D03*
G04 #@! TO.P,U4,6*
G04 #@! TO.N,Net-(U1-Pad4)*
X139290000Y-65095000D03*
G04 #@! TO.P,U4,7*
G04 #@! TO.N,Net-(U1-Pad5)*
X139290000Y-65745000D03*
G04 #@! TO.P,U4,8*
G04 #@! TO.N,Net-(U1-Pad6)*
X139290000Y-66395000D03*
G04 #@! TO.P,U4,9*
G04 #@! TO.N,Net-(U1-Pad7)*
X139290000Y-67045000D03*
G04 #@! TO.P,U4,10*
G04 #@! TO.N,GND*
X139290000Y-67695000D03*
G04 #@! TO.P,U4,11*
G04 #@! TO.N,DB0*
X145190000Y-67695000D03*
G04 #@! TO.P,U4,12*
G04 #@! TO.N,DB1*
X145190000Y-67045000D03*
G04 #@! TO.P,U4,13*
G04 #@! TO.N,DB2*
X145190000Y-66395000D03*
G04 #@! TO.P,U4,14*
G04 #@! TO.N,DB3*
X145190000Y-65745000D03*
G04 #@! TO.P,U4,15*
G04 #@! TO.N,DB4*
X145190000Y-65095000D03*
G04 #@! TO.P,U4,16*
G04 #@! TO.N,DB5*
X145190000Y-64445000D03*
G04 #@! TO.P,U4,17*
G04 #@! TO.N,DB6*
X145190000Y-63795000D03*
G04 #@! TO.P,U4,18*
G04 #@! TO.N,DB7*
X145190000Y-63145000D03*
G04 #@! TO.P,U4,19*
G04 #@! TO.N,GND*
X145190000Y-62495000D03*
G04 #@! TO.P,U4,20*
G04 #@! TO.N,+3V3*
X145190000Y-61845000D03*
G04 #@! TD*
D20*
G04 #@! TO.N,+5V*
X153040000Y-61722000D03*
X155194000Y-61468000D03*
G04 #@! TO.N,GND*
X141224000Y-98044000D03*
X141224000Y-99314000D03*
X154940000Y-64770000D03*
X142748000Y-93980000D03*
X140970000Y-83566000D03*
X137668000Y-68072000D03*
X140208000Y-59690000D03*
X154432000Y-54356000D03*
X140208000Y-76200000D03*
X140461990Y-91440000D03*
X146812000Y-59690000D03*
X143675381Y-79900991D03*
G04 #@! TO.N,DB7*
X152400000Y-68580000D03*
X153162000Y-65531996D03*
G04 #@! TO.N,DB5*
X147061338Y-64774658D03*
G04 #@! TO.N,DB3*
X147569347Y-66552653D03*
G04 #@! TO.N,DB1*
X147103000Y-68288725D03*
G04 #@! TO.N,DB11_A5*
X140970000Y-81026000D03*
G04 #@! TO.N,DB10_A4*
X147066000Y-81280000D03*
X148590000Y-80010000D03*
G04 #@! TO.N,DB9_A3*
X140970000Y-82042000D03*
G04 #@! TO.N,A1*
X146558000Y-86360000D03*
G04 #@! TO.N,CS*
X148077347Y-87625347D03*
G04 #@! TO.N,BA*
X147823347Y-97420000D03*
G04 #@! TO.N,AEC*
X141732002Y-89662000D03*
X141478000Y-95758000D03*
G04 #@! TO.N,Net-(U1-Pad39)*
X147066000Y-56134000D03*
X144272000Y-56134000D03*
G04 #@! TO.N,Net-(U1-Pad38)*
X145542000Y-72136000D03*
G04 #@! TO.N,Net-(U1-Pad37)*
X142240000Y-69850000D03*
G04 #@! TO.N,Net-(U1-Pad36)*
X145034000Y-70612000D03*
G04 #@! TO.N,Net-(U1-Pad35)*
X143002000Y-70866000D03*
G04 #@! TO.N,Net-(U1-Pad29)*
X144526000Y-85344000D03*
X141447979Y-85344000D03*
G04 #@! TO.N,Net-(U1-Pad28)*
X143764000Y-87376000D03*
G04 #@! TO.N,Net-(U1-Pad27)*
X145034000Y-88646000D03*
X144526000Y-86360000D03*
X141447979Y-86614000D03*
G04 #@! TO.N,Net-(U1-Pad26)*
X145796000Y-91440000D03*
X145542000Y-86069000D03*
X147021875Y-82980010D03*
G04 #@! TO.N,Net-(U1-Pad25)*
X143510000Y-95250000D03*
G04 #@! TO.N,Net-(U1-Pad24)*
X143510000Y-96520000D03*
G04 #@! TD*
D21*
G04 #@! TO.N,+5V*
X153040000Y-60331000D02*
X153040000Y-60536000D01*
X151187101Y-58478101D02*
X153040000Y-60331000D01*
X151187101Y-57207101D02*
X151187101Y-58478101D01*
X149860000Y-55880000D02*
X151187101Y-57207101D01*
X153040000Y-60536000D02*
X153040000Y-61722000D01*
X153040000Y-62987000D02*
X153035000Y-62992000D01*
X153040000Y-61722000D02*
X153040000Y-62987000D01*
D22*
X154940000Y-60536000D02*
X154940000Y-61316000D01*
X154940000Y-61316000D02*
X155092000Y-61468000D01*
X155092000Y-61468000D02*
X155194000Y-61468000D01*
D23*
G04 #@! TO.N,GND*
X155085000Y-62629000D02*
X155085000Y-62992000D01*
D22*
X139290000Y-98145000D02*
X141123000Y-98145000D01*
X141123000Y-98145000D02*
X141224000Y-98044000D01*
D21*
X141093000Y-99445000D02*
X141224000Y-99314000D01*
X139290000Y-99445000D02*
X141093000Y-99445000D01*
X153990000Y-61897000D02*
X153990000Y-60536000D01*
X155085000Y-62992000D02*
X153990000Y-61897000D01*
X155085000Y-62992000D02*
X155085000Y-64625000D01*
X155085000Y-64625000D02*
X154940000Y-64770000D01*
D22*
X143013000Y-94245000D02*
X142748000Y-93980000D01*
X145190000Y-94245000D02*
X143013000Y-94245000D01*
D21*
X140959000Y-83555000D02*
X140970000Y-83566000D01*
X139290000Y-83555000D02*
X140959000Y-83555000D01*
D22*
X139290000Y-67695000D02*
X138045000Y-67695000D01*
X138045000Y-67695000D02*
X137668000Y-68072000D01*
D21*
X141760000Y-59690000D02*
X140208000Y-59690000D01*
X154949000Y-55880000D02*
X154949000Y-54873000D01*
X154949000Y-54873000D02*
X154432000Y-54356000D01*
X141760000Y-76200000D02*
X140208000Y-76200000D01*
X141760000Y-91440000D02*
X140461990Y-91440000D01*
X147066000Y-59944000D02*
X146812000Y-59690000D01*
X147066000Y-61744000D02*
X147066000Y-59944000D01*
X145190000Y-62495000D02*
X146315000Y-62495000D01*
X146315000Y-62495000D02*
X147066000Y-61744000D01*
D22*
X143921372Y-79655000D02*
X143675381Y-79900991D01*
X145190000Y-79655000D02*
X143921372Y-79655000D01*
D21*
G04 #@! TO.N,+3V3*
X143010928Y-76699072D02*
X143510000Y-76200000D01*
X142797999Y-76912001D02*
X143010928Y-76699072D01*
X143510000Y-91440000D02*
X142797999Y-90727999D01*
X142808999Y-79005000D02*
X142797999Y-78994000D01*
X145190000Y-79005000D02*
X142808999Y-79005000D01*
X142797999Y-90727999D02*
X142797999Y-78994000D01*
X142797999Y-78994000D02*
X142797999Y-76912001D01*
X145190000Y-61845000D02*
X144065000Y-61845000D01*
X152899000Y-58195000D02*
X153040000Y-58336000D01*
X152899000Y-55880000D02*
X152899000Y-58195000D01*
X145190000Y-93595000D02*
X143633000Y-93595000D01*
X143633000Y-93595000D02*
X143510000Y-93472000D01*
X143510000Y-93472000D02*
X143510000Y-92456000D01*
X143510000Y-92456000D02*
X143510000Y-91440000D01*
D22*
X143256000Y-92710000D02*
X143510000Y-92456000D01*
X141986000Y-92710000D02*
X143256000Y-92710000D01*
X139290000Y-93595000D02*
X141101000Y-93595000D01*
X141101000Y-93595000D02*
X141986000Y-92710000D01*
D21*
X143510000Y-60265000D02*
X143510000Y-59690000D01*
X143510000Y-75625000D02*
X143979998Y-75155002D01*
X143510000Y-76200000D02*
X143510000Y-75625000D01*
X143979998Y-75155002D02*
X143979998Y-70405996D01*
X143979998Y-70405996D02*
X142748000Y-69173998D01*
X142748000Y-61027000D02*
X143510000Y-60265000D01*
X142871000Y-61845000D02*
X142748000Y-61722000D01*
X144065000Y-61845000D02*
X142871000Y-61845000D01*
X142748000Y-69173998D02*
X142748000Y-61722000D01*
X142748000Y-61722000D02*
X142748000Y-61027000D01*
D22*
X142625000Y-61845000D02*
X142748000Y-61722000D01*
X139290000Y-61845000D02*
X142625000Y-61845000D01*
D21*
X152275628Y-55256628D02*
X152899000Y-55880000D01*
X151375000Y-54356000D02*
X152275628Y-55256628D01*
X147659998Y-54356000D02*
X151375000Y-54356000D01*
X143510000Y-59690000D02*
X143510000Y-58505998D01*
X143510000Y-58505998D02*
X147659998Y-54356000D01*
D22*
G04 #@! TO.N,DB7*
X153162000Y-65278000D02*
X153162000Y-65531996D01*
X147675000Y-63145000D02*
X148590000Y-62230000D01*
X145190000Y-63145000D02*
X147675000Y-63145000D01*
X148590000Y-62230000D02*
X150876000Y-62230000D01*
X150876000Y-62230000D02*
X151638000Y-62992000D01*
X151638000Y-62992000D02*
X151638000Y-63754000D01*
X151638000Y-63754000D02*
X153162000Y-65278000D01*
G04 #@! TO.N,DB6*
X146169001Y-63790999D02*
X148176001Y-63790999D01*
X154090001Y-67730001D02*
X154940000Y-68580000D01*
X153125004Y-66765004D02*
X154090001Y-67730001D01*
X148176001Y-63790999D02*
X149172901Y-64787899D01*
X145190000Y-63795000D02*
X146165000Y-63795000D01*
X150582893Y-64787899D02*
X152559998Y-66765004D01*
X149172901Y-64787899D02*
X150582893Y-64787899D01*
X152559998Y-66765004D02*
X153125004Y-66765004D01*
X146165000Y-63795000D02*
X146169001Y-63790999D01*
G04 #@! TO.N,DB5*
X145190000Y-64445000D02*
X146741000Y-64445000D01*
X146741000Y-64445000D02*
X146750306Y-64445000D01*
X147003653Y-64774658D02*
X147061338Y-64774658D01*
X146741000Y-64445000D02*
X146741000Y-64512005D01*
X146741000Y-64512005D02*
X147003653Y-64774658D01*
G04 #@! TO.N,DB4*
X149115899Y-69867899D02*
X148336000Y-69088000D01*
X153687899Y-69867899D02*
X149115899Y-69867899D01*
X148336000Y-69088000D02*
X148336000Y-66294000D01*
X148336000Y-66294000D02*
X147541660Y-65499660D01*
X147541660Y-65499660D02*
X146569660Y-65499660D01*
X146165000Y-65095000D02*
X145190000Y-65095000D01*
X146569660Y-65499660D02*
X146165000Y-65095000D01*
X154940000Y-71120000D02*
X153687899Y-69867899D01*
G04 #@! TO.N,DB3*
X146165000Y-65745000D02*
X146972653Y-66552653D01*
X146972653Y-66552653D02*
X147003662Y-66552653D01*
X147003662Y-66552653D02*
X147569347Y-66552653D01*
X145190000Y-65745000D02*
X146165000Y-65745000D01*
G04 #@! TO.N,DB2*
X146165000Y-66395000D02*
X147334000Y-67564000D01*
X145190000Y-66395000D02*
X146165000Y-66395000D01*
X147334000Y-67564000D02*
X147828000Y-67564000D01*
X147828000Y-67564000D02*
X147828000Y-71374000D01*
X154090001Y-72810001D02*
X154940000Y-73660000D01*
X153687899Y-72407899D02*
X154090001Y-72810001D01*
X148861899Y-72407899D02*
X153687899Y-72407899D01*
X147828000Y-71374000D02*
X148861899Y-72407899D01*
G04 #@! TO.N,DB1*
X146165000Y-67045000D02*
X146812000Y-67692000D01*
X145190000Y-67045000D02*
X146165000Y-67045000D01*
X146812000Y-67692000D02*
X146812000Y-67997725D01*
X146812000Y-67997725D02*
X147103000Y-68288725D01*
G04 #@! TO.N,DB0*
X143887000Y-67695000D02*
X145190000Y-67695000D01*
X143764000Y-68834000D02*
X143764000Y-67818000D01*
X144076000Y-69146000D02*
X143764000Y-68834000D01*
X143764000Y-67818000D02*
X143887000Y-67695000D01*
X153687899Y-74947899D02*
X148607899Y-74947899D01*
X154940000Y-76200000D02*
X153687899Y-74947899D01*
X148607899Y-74947899D02*
X147066000Y-73406000D01*
X147066000Y-73406000D02*
X147066000Y-70612000D01*
X147066000Y-70612000D02*
X145600000Y-69146000D01*
X145600000Y-69146000D02*
X144076000Y-69146000D01*
G04 #@! TO.N,DB11_A5*
X139290000Y-80955000D02*
X140899000Y-80955000D01*
X140899000Y-80955000D02*
X140970000Y-81026000D01*
G04 #@! TO.N,DB10_A4*
X145190000Y-81605000D02*
X146741000Y-81605000D01*
X146741000Y-81605000D02*
X147066000Y-81280000D01*
X153670000Y-80010000D02*
X154940000Y-78740000D01*
X148590000Y-80010000D02*
X153670000Y-80010000D01*
G04 #@! TO.N,DB9_A3*
X140290000Y-82905000D02*
X140970000Y-82225000D01*
X140970000Y-82225000D02*
X140970000Y-82042000D01*
X139290000Y-82905000D02*
X140290000Y-82905000D01*
G04 #@! TO.N,DB8_A2*
X154090001Y-82129999D02*
X154940000Y-81280000D01*
X146293000Y-83555000D02*
X146768000Y-84030000D01*
X145190000Y-83555000D02*
X146293000Y-83555000D01*
X146768000Y-84030000D02*
X147364000Y-84030000D01*
X147364000Y-84030000D02*
X148826101Y-82567899D01*
X148826101Y-82567899D02*
X153652101Y-82567899D01*
X153652101Y-82567899D02*
X154090001Y-82129999D01*
G04 #@! TO.N,A1*
X146812000Y-86614000D02*
X146558000Y-86360000D01*
X146812000Y-94248000D02*
X146812000Y-86614000D01*
X145190000Y-94895000D02*
X146165000Y-94895000D01*
X146165000Y-94895000D02*
X146812000Y-94248000D01*
G04 #@! TO.N,A0*
X153670000Y-85090000D02*
X154940000Y-83820000D01*
X148844000Y-85090000D02*
X153670000Y-85090000D01*
X146165000Y-95545000D02*
X146206000Y-95504000D01*
X145190000Y-95545000D02*
X146165000Y-95545000D01*
X146304000Y-95504000D02*
X147320000Y-94488000D01*
X147320000Y-94488000D02*
X147320000Y-86614000D01*
X146206000Y-95504000D02*
X146304000Y-95504000D01*
X147320000Y-86614000D02*
X148844000Y-85090000D01*
G04 #@! TO.N,CS*
X145190000Y-96195000D02*
X146629000Y-96195000D01*
X147770010Y-87932684D02*
X148077347Y-87625347D01*
X146629000Y-96195000D02*
X147770010Y-95053990D01*
X147770010Y-95053990D02*
X147770010Y-87932684D01*
G04 #@! TO.N,RW*
X153670000Y-87630000D02*
X154940000Y-86360000D01*
X149098000Y-87630000D02*
X153670000Y-87630000D01*
X148336000Y-88392000D02*
X149098000Y-87630000D01*
X148336000Y-95504000D02*
X148336000Y-88392000D01*
X145190000Y-96845000D02*
X146995000Y-96845000D01*
X146995000Y-96845000D02*
X148336000Y-95504000D01*
G04 #@! TO.N,BA*
X145190000Y-97495000D02*
X147748347Y-97495000D01*
X147748347Y-97495000D02*
X147823347Y-97420000D01*
G04 #@! TO.N,AEC*
X148235000Y-98145000D02*
X148572101Y-97807899D01*
X154090001Y-89749999D02*
X154940000Y-88900000D01*
X145190000Y-98145000D02*
X148235000Y-98145000D01*
X148572101Y-97807899D02*
X151366101Y-97807899D01*
X151366101Y-97807899D02*
X153670000Y-95504000D01*
X153670000Y-95504000D02*
X153670000Y-90170000D01*
X153670000Y-90170000D02*
X154090001Y-89749999D01*
X142240000Y-89154002D02*
X142132001Y-89262001D01*
X142132001Y-89262001D02*
X141732002Y-89662000D01*
X142240000Y-79502000D02*
X142240000Y-89154002D01*
X141743000Y-79005000D02*
X142240000Y-79502000D01*
X139290000Y-79005000D02*
X141743000Y-79005000D01*
X141877999Y-96157999D02*
X141478000Y-95758000D01*
X141877999Y-96919999D02*
X141877999Y-96157999D01*
X145190000Y-98145000D02*
X143103000Y-98145000D01*
X143103000Y-98145000D02*
X141877999Y-96919999D01*
G04 #@! TO.N,PHI0*
X154450000Y-98026000D02*
X153162000Y-98026000D01*
X154940000Y-91440000D02*
X154940000Y-97536000D01*
X154940000Y-97536000D02*
X154450000Y-98026000D01*
G04 #@! TO.N,Net-(R1-Pad2)*
X152887899Y-100312101D02*
X153124000Y-100076000D01*
X145190000Y-99445000D02*
X147451000Y-99445000D01*
X147451000Y-99445000D02*
X148318101Y-100312101D01*
X152362000Y-100076000D02*
X153162000Y-100076000D01*
X152125899Y-100312101D02*
X152362000Y-100076000D01*
X148318101Y-100312101D02*
X152125899Y-100312101D01*
G04 #@! TO.N,Net-(U1-Pad39)*
X147574000Y-56134000D02*
X149860000Y-58420000D01*
X137414000Y-58166000D02*
X139446000Y-56134000D01*
X137414000Y-61594000D02*
X137414000Y-58166000D01*
X139290000Y-62495000D02*
X138315000Y-62495000D01*
X138315000Y-62495000D02*
X137414000Y-61594000D01*
X147574000Y-56134000D02*
X147066000Y-56134000D01*
X144272000Y-56134000D02*
X139446000Y-56134000D01*
G04 #@! TO.N,Net-(U1-Pad38)*
X146190000Y-82255000D02*
X145190000Y-82255000D01*
X147361000Y-82255000D02*
X146190000Y-82255000D01*
X147828000Y-81788000D02*
X147361000Y-82255000D01*
X147828000Y-77216000D02*
X147828000Y-81788000D01*
X145542000Y-72136000D02*
X145542000Y-74930000D01*
X145542000Y-74930000D02*
X147828000Y-77216000D01*
G04 #@! TO.N,Net-(U1-Pad37)*
X136963989Y-75126011D02*
X141840001Y-70249999D01*
X141840001Y-70249999D02*
X142240000Y-69850000D01*
X136963989Y-80278989D02*
X136963989Y-75126011D01*
X138290000Y-81605000D02*
X136963989Y-80278989D01*
X139290000Y-81605000D02*
X138290000Y-81605000D01*
G04 #@! TO.N,Net-(U1-Pad36)*
X149860000Y-66040000D02*
X150680584Y-66040000D01*
X144634001Y-71011999D02*
X145034000Y-70612000D01*
X145190000Y-80305000D02*
X146190000Y-80305000D01*
X147066000Y-79429000D02*
X147066000Y-77470000D01*
X144634001Y-75038001D02*
X144634001Y-71011999D01*
X146190000Y-80305000D02*
X147066000Y-79429000D01*
X147066000Y-77470000D02*
X144634001Y-75038001D01*
G04 #@! TO.N,Net-(U1-Pad35)*
X138290000Y-79655000D02*
X137414000Y-78779000D01*
X137414000Y-76454000D02*
X142602001Y-71265999D01*
X137414000Y-78779000D02*
X137414000Y-76454000D01*
X139290000Y-79655000D02*
X138290000Y-79655000D01*
X142602001Y-71265999D02*
X143002000Y-70866000D01*
G04 #@! TO.N,Net-(U1-Pad29)*
X147066000Y-85344000D02*
X144526000Y-85344000D01*
X149860000Y-83820000D02*
X148590000Y-83820000D01*
X148590000Y-83820000D02*
X147066000Y-85344000D01*
X141317997Y-80046993D02*
X141695010Y-80424006D01*
X141695010Y-84531284D02*
X141447979Y-84778315D01*
X141447979Y-84778315D02*
X141447979Y-85344000D01*
X141695010Y-80424006D02*
X141695010Y-84531284D01*
X140621999Y-80046993D02*
X141317997Y-80046993D01*
X139290000Y-80305000D02*
X140363992Y-80305000D01*
X140363992Y-80305000D02*
X140621999Y-80046993D01*
G04 #@! TO.N,Net-(U1-Pad28)*
X144265320Y-81026000D02*
X143764000Y-81527320D01*
X144780000Y-81026000D02*
X144265320Y-81026000D01*
X143764000Y-86810315D02*
X143764000Y-87376000D01*
X143764000Y-81527320D02*
X143764000Y-86810315D01*
G04 #@! TO.N,Net-(U1-Pad27)*
X145034000Y-88646000D02*
X145034000Y-86868000D01*
X145034000Y-86868000D02*
X144526000Y-86360000D01*
X139700000Y-86614000D02*
X141447979Y-86614000D01*
X137806020Y-84720020D02*
X139700000Y-86614000D01*
X137806020Y-82411980D02*
X137806020Y-84720020D01*
X139290000Y-82255000D02*
X137963000Y-82255000D01*
X137963000Y-82255000D02*
X137806020Y-82411980D01*
G04 #@! TO.N,Net-(U1-Pad26)*
X145796000Y-86888685D02*
X145796000Y-87884000D01*
X145542000Y-86634685D02*
X145796000Y-86888685D01*
X145542000Y-86069000D02*
X145542000Y-86634685D01*
X145796000Y-91440000D02*
X145796000Y-87884000D01*
X145796000Y-87884000D02*
X145796000Y-87630000D01*
X145190000Y-82905000D02*
X146946865Y-82905000D01*
X146946865Y-82905000D02*
X147021875Y-82980010D01*
G04 #@! TO.N,Net-(U1-Pad25)*
X140265000Y-94245000D02*
X139290000Y-94245000D01*
X141939315Y-94245000D02*
X140265000Y-94245000D01*
X142944315Y-95250000D02*
X141939315Y-94245000D01*
X143510000Y-95250000D02*
X142944315Y-95250000D01*
G04 #@! TO.N,Net-(U1-Pad24)*
X141885000Y-94895000D02*
X139290000Y-94895000D01*
X143510000Y-96520000D02*
X141885000Y-94895000D01*
G04 #@! TO.N,Net-(U1-Pad17)*
X138315000Y-98795000D02*
X136802000Y-97282000D01*
X139290000Y-98795000D02*
X138315000Y-98795000D01*
X136802000Y-97175357D02*
X136802000Y-97282000D01*
X136146643Y-96520000D02*
X136802000Y-97175357D01*
X134620000Y-96520000D02*
X136146643Y-96520000D01*
G04 #@! TO.N,Net-(U1-Pad16)*
X138135000Y-97495000D02*
X139290000Y-97495000D01*
X134620000Y-93980000D02*
X138135000Y-97495000D01*
G04 #@! TO.N,Net-(U1-Pad12)*
X138315000Y-96845000D02*
X139290000Y-96845000D01*
X136398000Y-94928000D02*
X138315000Y-96845000D01*
X136398000Y-85598000D02*
X136398000Y-94928000D01*
X134620000Y-83820000D02*
X136398000Y-85598000D01*
G04 #@! TO.N,Net-(U1-Pad11)*
X138315000Y-96195000D02*
X139290000Y-96195000D01*
X136906000Y-94786000D02*
X138315000Y-96195000D01*
X136906000Y-83820000D02*
X136906000Y-94786000D01*
X134620000Y-81280000D02*
X134620000Y-81534000D01*
X134620000Y-81534000D02*
X136906000Y-83820000D01*
G04 #@! TO.N,Net-(U1-Pad7)*
X139290000Y-67045000D02*
X137367996Y-67045000D01*
X136652000Y-69088000D02*
X135699499Y-70040501D01*
X135699499Y-70040501D02*
X134620000Y-71120000D01*
X137367996Y-67045000D02*
X136652000Y-67760996D01*
X136652000Y-67760996D02*
X136652000Y-69088000D01*
G04 #@! TO.N,Net-(U1-Pad6)*
X139290000Y-66395000D02*
X136805000Y-66395000D01*
X136805000Y-66395000D02*
X134620000Y-68580000D01*
G04 #@! TO.N,Net-(U1-Pad5)*
X134915000Y-65745000D02*
X134620000Y-66040000D01*
X139290000Y-65745000D02*
X134915000Y-65745000D01*
G04 #@! TO.N,Net-(U1-Pad4)*
X139290000Y-65095000D02*
X137993000Y-65095000D01*
X136398000Y-63500000D02*
X134620000Y-63500000D01*
X137993000Y-65095000D02*
X136398000Y-63500000D01*
G04 #@! TO.N,Net-(U1-Pad3)*
X139290000Y-64445000D02*
X138102180Y-64445000D01*
X135699499Y-62039499D02*
X134620000Y-60960000D01*
X135699499Y-62042319D02*
X135699499Y-62039499D01*
X138102180Y-64445000D02*
X135699499Y-62042319D01*
G04 #@! TO.N,Net-(U1-Pad2)*
X136146643Y-58420000D02*
X134620000Y-58420000D01*
X136398000Y-58671357D02*
X136146643Y-58420000D01*
X136398000Y-62104410D02*
X136398000Y-58671357D01*
X139290000Y-63795000D02*
X138088590Y-63795000D01*
X138088590Y-63795000D02*
X136398000Y-62104410D01*
G04 #@! TO.N,Net-(U1-Pad1)*
X136906000Y-55880000D02*
X134620000Y-55880000D01*
X136906000Y-61976000D02*
X136906000Y-55880000D01*
X139290000Y-63145000D02*
X138075000Y-63145000D01*
X138075000Y-63145000D02*
X136906000Y-61976000D01*
G04 #@! TO.N,Net-(U1-Pad10)*
X138301410Y-95545000D02*
X139233000Y-95545000D01*
X137356010Y-94599600D02*
X138301410Y-95545000D01*
X137356010Y-82238010D02*
X137356010Y-94599600D01*
X136398000Y-81280000D02*
X137356010Y-82238010D01*
X134620000Y-78740000D02*
X136398000Y-80518000D01*
X136398000Y-80518000D02*
X136398000Y-81280000D01*
G04 #@! TD*
M02*
