G04 #@! TF.FileFunction,Soldermask,Bot*
%FSLAX46Y46*%
G04 Gerber Fmt 4.6, Leading zero omitted, Abs format (unit mm)*
G04 Created by KiCad (PCBNEW 4.0.4-stable) date 12/12/17 20:39:09*
%MOMM*%
%LPD*%
G01*
G04 APERTURE LIST*
%ADD10C,0.100000*%
%ADD11R,2.100000X2.100000*%
%ADD12O,2.100000X2.100000*%
G04 APERTURE END LIST*
D10*
D11*
X109220000Y-83820000D03*
D12*
X111760000Y-83820000D03*
X109220000Y-86360000D03*
X111760000Y-86360000D03*
X109220000Y-88900000D03*
X111760000Y-88900000D03*
X109220000Y-91440000D03*
X111760000Y-91440000D03*
X109220000Y-93980000D03*
X111760000Y-93980000D03*
X109220000Y-96520000D03*
X111760000Y-96520000D03*
X109220000Y-99060000D03*
X111760000Y-99060000D03*
X109220000Y-101600000D03*
X111760000Y-101600000D03*
X109220000Y-104140000D03*
X111760000Y-104140000D03*
X109220000Y-106680000D03*
X111760000Y-106680000D03*
X109220000Y-109220000D03*
X111760000Y-109220000D03*
X109220000Y-111760000D03*
X111760000Y-111760000D03*
X109220000Y-114300000D03*
X111760000Y-114300000D03*
X109220000Y-116840000D03*
X111760000Y-116840000D03*
X109220000Y-119380000D03*
X111760000Y-119380000D03*
X109220000Y-121920000D03*
X111760000Y-121920000D03*
X109220000Y-124460000D03*
X111760000Y-124460000D03*
X109220000Y-127000000D03*
X111760000Y-127000000D03*
X109220000Y-129540000D03*
X111760000Y-129540000D03*
X109220000Y-132080000D03*
X111760000Y-132080000D03*
D11*
X128270000Y-88900000D03*
D12*
X130810000Y-88900000D03*
X128270000Y-91440000D03*
X130810000Y-91440000D03*
X128270000Y-93980000D03*
X130810000Y-93980000D03*
X128270000Y-96520000D03*
X130810000Y-96520000D03*
X128270000Y-99060000D03*
X130810000Y-99060000D03*
X128270000Y-101600000D03*
X130810000Y-101600000D03*
X128270000Y-104140000D03*
X130810000Y-104140000D03*
X128270000Y-106680000D03*
X130810000Y-106680000D03*
X128270000Y-109220000D03*
X130810000Y-109220000D03*
X128270000Y-111760000D03*
X130810000Y-111760000D03*
M02*
