G04 #@! TF.FileFunction,Soldermask,Top*
%FSLAX46Y46*%
G04 Gerber Fmt 4.6, Leading zero omitted, Abs format (unit mm)*
G04 Created by KiCad (PCBNEW 4.0.4-stable) date 12/12/17 20:39:09*
%MOMM*%
%LPD*%
G01*
G04 APERTURE LIST*
%ADD10C,0.100000*%
%ADD11R,1.900000X1.000000*%
%ADD12R,2.100000X2.100000*%
%ADD13O,2.100000X2.100000*%
%ADD14R,1.700000X1.900000*%
%ADD15R,1.300000X1.200000*%
%ADD16R,1.650000X1.900000*%
%ADD17R,1.600000X1.150000*%
G04 APERTURE END LIST*
D10*
D11*
X116680000Y-85090000D03*
X116680000Y-86360000D03*
X116680000Y-87630000D03*
X116680000Y-88900000D03*
X116680000Y-90170000D03*
X116680000Y-91440000D03*
X116680000Y-92710000D03*
X122080000Y-92710000D03*
X122080000Y-91440000D03*
X122080000Y-90170000D03*
X122080000Y-88900000D03*
X122080000Y-87630000D03*
X122080000Y-86360000D03*
X122080000Y-85090000D03*
X116680000Y-96520000D03*
X116680000Y-97790000D03*
X116680000Y-99060000D03*
X116680000Y-100330000D03*
X116680000Y-101600000D03*
X116680000Y-102870000D03*
X116680000Y-104140000D03*
X122080000Y-104140000D03*
X122080000Y-102870000D03*
X122080000Y-101600000D03*
X122080000Y-100330000D03*
X122080000Y-99060000D03*
X122080000Y-97790000D03*
X122080000Y-96520000D03*
X116680000Y-107950000D03*
X116680000Y-109220000D03*
X116680000Y-110490000D03*
X116680000Y-111760000D03*
X116680000Y-113030000D03*
X116680000Y-114300000D03*
X116680000Y-115570000D03*
X122080000Y-115570000D03*
X122080000Y-114300000D03*
X122080000Y-113030000D03*
X122080000Y-111760000D03*
X122080000Y-110490000D03*
X122080000Y-109220000D03*
X122080000Y-107950000D03*
X116680000Y-124460000D03*
X116680000Y-125730000D03*
X116680000Y-127000000D03*
X116680000Y-128270000D03*
X116680000Y-129540000D03*
X116680000Y-130810000D03*
X116680000Y-132080000D03*
X122080000Y-132080000D03*
X122080000Y-130810000D03*
X122080000Y-129540000D03*
X122080000Y-128270000D03*
X122080000Y-127000000D03*
X122080000Y-125730000D03*
X122080000Y-124460000D03*
D12*
X109220000Y-83820000D03*
D13*
X111760000Y-83820000D03*
X109220000Y-86360000D03*
X111760000Y-86360000D03*
X109220000Y-88900000D03*
X111760000Y-88900000D03*
X109220000Y-91440000D03*
X111760000Y-91440000D03*
X109220000Y-93980000D03*
X111760000Y-93980000D03*
X109220000Y-96520000D03*
X111760000Y-96520000D03*
X109220000Y-99060000D03*
X111760000Y-99060000D03*
X109220000Y-101600000D03*
X111760000Y-101600000D03*
X109220000Y-104140000D03*
X111760000Y-104140000D03*
X109220000Y-106680000D03*
X111760000Y-106680000D03*
X109220000Y-109220000D03*
X111760000Y-109220000D03*
X109220000Y-111760000D03*
X111760000Y-111760000D03*
X109220000Y-114300000D03*
X111760000Y-114300000D03*
X109220000Y-116840000D03*
X111760000Y-116840000D03*
X109220000Y-119380000D03*
X111760000Y-119380000D03*
X109220000Y-121920000D03*
X111760000Y-121920000D03*
X109220000Y-124460000D03*
X111760000Y-124460000D03*
X109220000Y-127000000D03*
X111760000Y-127000000D03*
X109220000Y-129540000D03*
X111760000Y-129540000D03*
X109220000Y-132080000D03*
X111760000Y-132080000D03*
D12*
X128270000Y-88900000D03*
D13*
X130810000Y-88900000D03*
X128270000Y-91440000D03*
X130810000Y-91440000D03*
X128270000Y-93980000D03*
X130810000Y-93980000D03*
X128270000Y-96520000D03*
X130810000Y-96520000D03*
X128270000Y-99060000D03*
X130810000Y-99060000D03*
X128270000Y-101600000D03*
X130810000Y-101600000D03*
X128270000Y-104140000D03*
X130810000Y-104140000D03*
X128270000Y-106680000D03*
X130810000Y-106680000D03*
X128270000Y-109220000D03*
X130810000Y-109220000D03*
X128270000Y-111760000D03*
X130810000Y-111760000D03*
D14*
X128270000Y-115236000D03*
X128270000Y-117936000D03*
D15*
X120380000Y-120330000D03*
X120380000Y-118430000D03*
X118380000Y-119380000D03*
D16*
X115570000Y-119400000D03*
X115570000Y-121900000D03*
X123190000Y-118130000D03*
X123190000Y-120630000D03*
D17*
X119700000Y-83820000D03*
X121600000Y-83820000D03*
X119700000Y-95250000D03*
X121600000Y-95250000D03*
X119700000Y-106680000D03*
X121600000Y-106680000D03*
X119700000Y-123190000D03*
X121600000Y-123190000D03*
M02*
