M48
METRIC,TZ
T1C0.400
T2C1.000
%
G90
G05
T1
X114046Y-115316
X114046Y-123952
X114300Y-106934
X115062Y-83820
X115062Y-86360
X115062Y-88900
X115062Y-96520
X115062Y-99314
X116840Y-106426
X118110Y-96012
X118110Y-106426
X118364Y-86360
X118364Y-89154
X118364Y-97790
X118364Y-100330
X118364Y-102870
X118364Y-109220
X118364Y-125730
X118364Y-128270
X118364Y-130810
X119380Y-116332
X119380Y-121646
X120396Y-86360
X120396Y-88900
X120396Y-91440
X120396Y-97282
X120396Y-99060
X120396Y-101600
X120396Y-108712
X120396Y-110236
X120396Y-114300
X120396Y-124968
X120396Y-127000
X123698Y-88392
X123698Y-90932
X123952Y-96774
X123952Y-100584
X124206Y-98044
X124206Y-102870
X124968Y-123190
X125222Y-94996
X125222Y-117856
X125476Y-83820
X125476Y-106426
T2
X109220Y-83820
X109220Y-86360
X109220Y-88900
X109220Y-91440
X109220Y-93980
X109220Y-96520
X109220Y-99060
X109220Y-101600
X109220Y-104140
X109220Y-106680
X109220Y-109220
X109220Y-111760
X109220Y-114300
X109220Y-116840
X109220Y-119380
X109220Y-121920
X109220Y-124460
X109220Y-127000
X109220Y-129540
X109220Y-132080
X111760Y-83820
X111760Y-86360
X111760Y-88900
X111760Y-91440
X111760Y-93980
X111760Y-96520
X111760Y-99060
X111760Y-101600
X111760Y-104140
X111760Y-106680
X111760Y-109220
X111760Y-111760
X111760Y-114300
X111760Y-116840
X111760Y-119380
X111760Y-121920
X111760Y-124460
X111760Y-127000
X111760Y-129540
X111760Y-132080
X128270Y-88900
X128270Y-91440
X128270Y-93980
X128270Y-96520
X128270Y-99060
X128270Y-101600
X128270Y-104140
X128270Y-106680
X128270Y-109220
X128270Y-111760
X130810Y-88900
X130810Y-91440
X130810Y-93980
X130810Y-96520
X130810Y-99060
X130810Y-101600
X130810Y-104140
X130810Y-106680
X130810Y-109220
X130810Y-111760
T0
M30
