G04 #@! TF.FileFunction,Copper,L1,Top,Signal*
%FSLAX46Y46*%
G04 Gerber Fmt 4.6, Leading zero omitted, Abs format (unit mm)*
G04 Created by KiCad (PCBNEW 4.0.4-stable) date 12/12/17 20:39:08*
%MOMM*%
%LPD*%
G01*
G04 APERTURE LIST*
%ADD10C,0.100000*%
%ADD11R,1.500000X0.600000*%
%ADD12R,1.700000X1.700000*%
%ADD13O,1.700000X1.700000*%
%ADD14R,1.300000X1.500000*%
%ADD15R,0.900000X0.800000*%
%ADD16R,1.250000X1.500000*%
%ADD17R,1.200000X0.750000*%
%ADD18C,0.600000*%
%ADD19C,0.508000*%
%ADD20C,0.250000*%
G04 APERTURE END LIST*
D10*
D11*
X116680000Y-85090000D03*
X116680000Y-86360000D03*
X116680000Y-87630000D03*
X116680000Y-88900000D03*
X116680000Y-90170000D03*
X116680000Y-91440000D03*
X116680000Y-92710000D03*
X122080000Y-92710000D03*
X122080000Y-91440000D03*
X122080000Y-90170000D03*
X122080000Y-88900000D03*
X122080000Y-87630000D03*
X122080000Y-86360000D03*
X122080000Y-85090000D03*
X116680000Y-96520000D03*
X116680000Y-97790000D03*
X116680000Y-99060000D03*
X116680000Y-100330000D03*
X116680000Y-101600000D03*
X116680000Y-102870000D03*
X116680000Y-104140000D03*
X122080000Y-104140000D03*
X122080000Y-102870000D03*
X122080000Y-101600000D03*
X122080000Y-100330000D03*
X122080000Y-99060000D03*
X122080000Y-97790000D03*
X122080000Y-96520000D03*
X116680000Y-107950000D03*
X116680000Y-109220000D03*
X116680000Y-110490000D03*
X116680000Y-111760000D03*
X116680000Y-113030000D03*
X116680000Y-114300000D03*
X116680000Y-115570000D03*
X122080000Y-115570000D03*
X122080000Y-114300000D03*
X122080000Y-113030000D03*
X122080000Y-111760000D03*
X122080000Y-110490000D03*
X122080000Y-109220000D03*
X122080000Y-107950000D03*
X116680000Y-124460000D03*
X116680000Y-125730000D03*
X116680000Y-127000000D03*
X116680000Y-128270000D03*
X116680000Y-129540000D03*
X116680000Y-130810000D03*
X116680000Y-132080000D03*
X122080000Y-132080000D03*
X122080000Y-130810000D03*
X122080000Y-129540000D03*
X122080000Y-128270000D03*
X122080000Y-127000000D03*
X122080000Y-125730000D03*
X122080000Y-124460000D03*
D12*
X109220000Y-83820000D03*
D13*
X111760000Y-83820000D03*
X109220000Y-86360000D03*
X111760000Y-86360000D03*
X109220000Y-88900000D03*
X111760000Y-88900000D03*
X109220000Y-91440000D03*
X111760000Y-91440000D03*
X109220000Y-93980000D03*
X111760000Y-93980000D03*
X109220000Y-96520000D03*
X111760000Y-96520000D03*
X109220000Y-99060000D03*
X111760000Y-99060000D03*
X109220000Y-101600000D03*
X111760000Y-101600000D03*
X109220000Y-104140000D03*
X111760000Y-104140000D03*
X109220000Y-106680000D03*
X111760000Y-106680000D03*
X109220000Y-109220000D03*
X111760000Y-109220000D03*
X109220000Y-111760000D03*
X111760000Y-111760000D03*
X109220000Y-114300000D03*
X111760000Y-114300000D03*
X109220000Y-116840000D03*
X111760000Y-116840000D03*
X109220000Y-119380000D03*
X111760000Y-119380000D03*
X109220000Y-121920000D03*
X111760000Y-121920000D03*
X109220000Y-124460000D03*
X111760000Y-124460000D03*
X109220000Y-127000000D03*
X111760000Y-127000000D03*
X109220000Y-129540000D03*
X111760000Y-129540000D03*
X109220000Y-132080000D03*
X111760000Y-132080000D03*
D12*
X128270000Y-88900000D03*
D13*
X130810000Y-88900000D03*
X128270000Y-91440000D03*
X130810000Y-91440000D03*
X128270000Y-93980000D03*
X130810000Y-93980000D03*
X128270000Y-96520000D03*
X130810000Y-96520000D03*
X128270000Y-99060000D03*
X130810000Y-99060000D03*
X128270000Y-101600000D03*
X130810000Y-101600000D03*
X128270000Y-104140000D03*
X130810000Y-104140000D03*
X128270000Y-106680000D03*
X130810000Y-106680000D03*
X128270000Y-109220000D03*
X130810000Y-109220000D03*
X128270000Y-111760000D03*
X130810000Y-111760000D03*
D14*
X128270000Y-115236000D03*
X128270000Y-117936000D03*
D15*
X120380000Y-120330000D03*
X120380000Y-118430000D03*
X118380000Y-119380000D03*
D16*
X115570000Y-119400000D03*
X115570000Y-121900000D03*
X123190000Y-118130000D03*
X123190000Y-120630000D03*
D17*
X119700000Y-83820000D03*
X121600000Y-83820000D03*
X119700000Y-95250000D03*
X121600000Y-95250000D03*
X119700000Y-106680000D03*
X121600000Y-106680000D03*
X119700000Y-123190000D03*
X121600000Y-123190000D03*
D18*
X119380000Y-121646000D03*
X119380000Y-116332000D03*
X125222000Y-117856000D03*
X125476000Y-106426000D03*
X125222000Y-94996000D03*
X124968000Y-123190000D03*
X125476000Y-83820000D03*
X118364000Y-109220000D03*
X124206000Y-102870000D03*
X123952000Y-100584000D03*
X118364000Y-102870000D03*
X124206000Y-98044000D03*
X118364000Y-100330000D03*
X123952000Y-96774000D03*
X118364000Y-97790000D03*
X120396000Y-91440000D03*
X115062000Y-88900000D03*
X123698000Y-90932000D03*
X118364000Y-89154000D03*
X120396000Y-88900000D03*
X115062000Y-86360000D03*
X118364000Y-86360000D03*
X123698000Y-88392000D03*
X120396000Y-86360000D03*
X115062000Y-83820000D03*
X118364000Y-130810000D03*
X118364000Y-128270000D03*
X118364000Y-125730000D03*
X120396000Y-114300000D03*
X114300000Y-106934000D03*
X116840000Y-106426000D03*
X120396000Y-110236000D03*
X120396000Y-108712000D03*
X118110000Y-106426000D03*
X120396000Y-127000000D03*
X114046000Y-123952000D03*
X114046000Y-115316000D03*
X120396000Y-124968000D03*
X115062000Y-99314000D03*
X120396000Y-101600000D03*
X120396000Y-99060000D03*
X115062000Y-96520000D03*
X120396000Y-97282000D03*
X118110000Y-96012000D03*
D19*
X115824000Y-119146000D02*
X115824000Y-119126000D01*
X115824000Y-119126000D02*
X113538000Y-116840000D01*
X113538000Y-116840000D02*
X111760000Y-116840000D01*
X118380000Y-119380000D02*
X116058000Y-119380000D01*
X116058000Y-119380000D02*
X115824000Y-119146000D01*
X122428000Y-120630000D02*
X121920000Y-120630000D01*
X121620000Y-120330000D02*
X121920000Y-120630000D01*
X121620000Y-120330000D02*
X120380000Y-120330000D01*
X122428000Y-120630000D02*
X122682000Y-120884000D01*
X116680000Y-104140000D02*
X119380000Y-104140000D01*
X119380000Y-104140000D02*
X119126000Y-104140000D01*
X119126000Y-104140000D02*
X119380000Y-104140000D01*
X110490000Y-90170000D02*
X110998000Y-90170000D01*
X112522000Y-90170000D02*
X116680000Y-90170000D01*
X109220000Y-88900000D02*
X110490000Y-90170000D01*
D20*
X110998000Y-90170000D02*
X112522000Y-90170000D01*
D19*
X119380000Y-130810000D02*
X122080000Y-130810000D01*
X116680000Y-90170000D02*
X119380000Y-90170000D01*
X119380000Y-90170000D02*
X119126000Y-90170000D01*
X119126000Y-90170000D02*
X119380000Y-90170000D01*
X119380000Y-92710000D02*
X119380000Y-90170000D01*
X119380000Y-90170000D02*
X119380000Y-84140000D01*
X119380000Y-84140000D02*
X119700000Y-83820000D01*
X116680000Y-92710000D02*
X119380000Y-92710000D01*
X119380000Y-92710000D02*
X119380000Y-96774000D01*
X119380000Y-95570000D02*
X119380000Y-96774000D01*
X119380000Y-96774000D02*
X119380000Y-102108000D01*
X119380000Y-102108000D02*
X119380000Y-104140000D01*
X119380000Y-104140000D02*
X119380000Y-105664000D01*
X119380000Y-95570000D02*
X119700000Y-95250000D01*
X116680000Y-113030000D02*
X119380000Y-113030000D01*
X116680000Y-115570000D02*
X119380000Y-115570000D01*
X116680000Y-110490000D02*
X119380000Y-110490000D01*
X119380000Y-107442000D02*
X119380000Y-105664000D01*
X119700000Y-106492000D02*
X119700000Y-107122000D01*
X119380000Y-107442000D02*
X119380000Y-107442000D01*
X119380000Y-107442000D02*
X119700000Y-107122000D01*
X119380000Y-116332000D02*
X119380000Y-115570000D01*
X119380000Y-115570000D02*
X119380000Y-113030000D01*
X119380000Y-113030000D02*
X119380000Y-110490000D01*
X119380000Y-110490000D02*
X119380000Y-107442000D01*
X119700000Y-106492000D02*
X119380000Y-106172000D01*
X119380000Y-106172000D02*
X119380000Y-105664000D01*
X115824000Y-121646000D02*
X119380000Y-121646000D01*
X119380000Y-121646000D02*
X119700000Y-121646000D01*
X119700000Y-121646000D02*
X119680000Y-121666000D01*
X119680000Y-121666000D02*
X119634000Y-121666000D01*
X119634000Y-121666000D02*
X119700000Y-121666000D01*
X119700000Y-123190000D02*
X119700000Y-121666000D01*
X119700000Y-121666000D02*
X119700000Y-121010000D01*
X119700000Y-121010000D02*
X120380000Y-120330000D01*
X119380000Y-123510000D02*
X119380000Y-124460000D01*
X119380000Y-132080000D02*
X119380000Y-130810000D01*
X119380000Y-130810000D02*
X119380000Y-124460000D01*
X119380000Y-132080000D02*
X116680000Y-132080000D01*
X119380000Y-123510000D02*
X119700000Y-123190000D01*
X121920000Y-118130000D02*
X122428000Y-118130000D01*
X122428000Y-118130000D02*
X122682000Y-118384000D01*
X121920000Y-118130000D02*
X124948000Y-118130000D01*
X124948000Y-118130000D02*
X125222000Y-117856000D01*
X121600000Y-106680000D02*
X125222000Y-106680000D01*
X125222000Y-106680000D02*
X125476000Y-106426000D01*
X124968000Y-95250000D02*
X121600000Y-95250000D01*
X125222000Y-94996000D02*
X124968000Y-95250000D01*
X121600000Y-123190000D02*
X124968000Y-123190000D01*
X125476000Y-83820000D02*
X121600000Y-83820000D01*
X120380000Y-118430000D02*
X121620000Y-118430000D01*
X121620000Y-118430000D02*
X121920000Y-118130000D01*
X122080000Y-124460000D02*
X122080000Y-123670000D01*
X122080000Y-123670000D02*
X121600000Y-123190000D01*
X122080000Y-107950000D02*
X122080000Y-107160000D01*
X122080000Y-107160000D02*
X121600000Y-106680000D01*
X122080000Y-96520000D02*
X122080000Y-95730000D01*
X122080000Y-95730000D02*
X121600000Y-95250000D01*
X122080000Y-85090000D02*
X122080000Y-84300000D01*
X122080000Y-84300000D02*
X121600000Y-83820000D01*
D20*
X109220000Y-83820000D02*
X110490000Y-85090000D01*
X110490000Y-85090000D02*
X116680000Y-85090000D01*
X116680000Y-109220000D02*
X118364000Y-109220000D01*
X127254000Y-101600000D02*
X128270000Y-101600000D01*
X126746000Y-102108000D02*
X127254000Y-101600000D01*
X126492000Y-102108000D02*
X126746000Y-102108000D01*
X125730000Y-102870000D02*
X126492000Y-102108000D01*
X124206000Y-102870000D02*
X125730000Y-102870000D01*
X109220000Y-86360000D02*
X110490000Y-87630000D01*
X110490000Y-87630000D02*
X116680000Y-87630000D01*
X116680000Y-102870000D02*
X118364000Y-102870000D01*
X127000000Y-99060000D02*
X128270000Y-99060000D01*
X125984000Y-100076000D02*
X127000000Y-99060000D01*
X124460000Y-100076000D02*
X125984000Y-100076000D01*
X123952000Y-100584000D02*
X124460000Y-100076000D01*
X116680000Y-100330000D02*
X118364000Y-100330000D01*
X125730000Y-96520000D02*
X128270000Y-96520000D01*
X124206000Y-98044000D02*
X125730000Y-96520000D01*
X116680000Y-97790000D02*
X118364000Y-97790000D01*
X126492000Y-95758000D02*
X128270000Y-93980000D01*
X125476000Y-95758000D02*
X126492000Y-95758000D01*
X124460000Y-96774000D02*
X125476000Y-95758000D01*
X123952000Y-96774000D02*
X124460000Y-96774000D01*
X128270000Y-94234000D02*
X128270000Y-93980000D01*
X111760000Y-88900000D02*
X115062000Y-88900000D01*
X120396000Y-91440000D02*
X122080000Y-91440000D01*
X116680000Y-88900000D02*
X118110000Y-88900000D01*
X124206000Y-91440000D02*
X128270000Y-91440000D01*
X123698000Y-90932000D02*
X124206000Y-91440000D01*
X118110000Y-88900000D02*
X118364000Y-89154000D01*
X111760000Y-86360000D02*
X115062000Y-86360000D01*
X120396000Y-88900000D02*
X122080000Y-88900000D01*
X123698000Y-88392000D02*
X124206000Y-88900000D01*
X128270000Y-88900000D02*
X124206000Y-88900000D01*
X118364000Y-86360000D02*
X116680000Y-86360000D01*
X111760000Y-83820000D02*
X115062000Y-83820000D01*
X120396000Y-86360000D02*
X122080000Y-86360000D01*
X109220000Y-91440000D02*
X110490000Y-92710000D01*
X113030000Y-92710000D02*
X116680000Y-96360000D01*
X110490000Y-92710000D02*
X113030000Y-92710000D01*
X116680000Y-96360000D02*
X116680000Y-96520000D01*
X116680000Y-130810000D02*
X118364000Y-130810000D01*
X109220000Y-93980000D02*
X109474000Y-93980000D01*
X109474000Y-93980000D02*
X110744000Y-95250000D01*
X110744000Y-95250000D02*
X112522000Y-95250000D01*
X112522000Y-95250000D02*
X114046000Y-96774000D01*
X114046000Y-96774000D02*
X114046000Y-97282000D01*
X114046000Y-97282000D02*
X115824000Y-99060000D01*
X115824000Y-99060000D02*
X116680000Y-99060000D01*
X118364000Y-128270000D02*
X116680000Y-128270000D01*
X109220000Y-96520000D02*
X110490000Y-97790000D01*
X115570000Y-101600000D02*
X116680000Y-101600000D01*
X114808000Y-100838000D02*
X115570000Y-101600000D01*
X114808000Y-100076000D02*
X114808000Y-100838000D01*
X112522000Y-97790000D02*
X114808000Y-100076000D01*
X110490000Y-97790000D02*
X112522000Y-97790000D01*
X116680000Y-125730000D02*
X118364000Y-125730000D01*
X109220000Y-99060000D02*
X110490000Y-100330000D01*
X110744000Y-107950000D02*
X116680000Y-107950000D01*
X110490000Y-107696000D02*
X110744000Y-107950000D01*
X110490000Y-100330000D02*
X110490000Y-107696000D01*
X130810000Y-88900000D02*
X129540000Y-87630000D01*
X122080000Y-87630000D02*
X129540000Y-87630000D01*
X130810000Y-91440000D02*
X130556000Y-91440000D01*
X130556000Y-91440000D02*
X129286000Y-90170000D01*
X122080000Y-90170000D02*
X129286000Y-90170000D01*
X130810000Y-93980000D02*
X129540000Y-92710000D01*
X122080000Y-92710000D02*
X129540000Y-92710000D01*
X122080000Y-99060000D02*
X125476000Y-99060000D01*
X129540000Y-97790000D02*
X130810000Y-96520000D01*
X126746000Y-97790000D02*
X129540000Y-97790000D01*
X125476000Y-99060000D02*
X126746000Y-97790000D01*
X114046000Y-106426000D02*
X114046000Y-106680000D01*
X122080000Y-114300000D02*
X120396000Y-114300000D01*
X114046000Y-106426000D02*
X111760000Y-104140000D01*
X114046000Y-106680000D02*
X114300000Y-106934000D01*
X122080000Y-101600000D02*
X125984000Y-101600000D01*
X129540000Y-100330000D02*
X130810000Y-99060000D01*
X127254000Y-100330000D02*
X129540000Y-100330000D01*
X125984000Y-101600000D02*
X127254000Y-100330000D01*
X111760000Y-101600000D02*
X112268000Y-101600000D01*
X112268000Y-101600000D02*
X114046000Y-103378000D01*
X114046000Y-103378000D02*
X114046000Y-105156000D01*
X114046000Y-105156000D02*
X115316000Y-106426000D01*
X115316000Y-106426000D02*
X116840000Y-106426000D01*
X120396000Y-110236000D02*
X120396000Y-111252000D01*
X120396000Y-111252000D02*
X120904000Y-111760000D01*
X120904000Y-111760000D02*
X122080000Y-111760000D01*
X122080000Y-104140000D02*
X125984000Y-104140000D01*
X129540000Y-102870000D02*
X130810000Y-101600000D01*
X127254000Y-102870000D02*
X129540000Y-102870000D01*
X125984000Y-104140000D02*
X127254000Y-102870000D01*
X111760000Y-99060000D02*
X113792000Y-101092000D01*
X120904000Y-109220000D02*
X122080000Y-109220000D01*
X120396000Y-108712000D02*
X120904000Y-109220000D01*
X117348000Y-105664000D02*
X118110000Y-106426000D01*
X115570000Y-105664000D02*
X117348000Y-105664000D01*
X114808000Y-104902000D02*
X115570000Y-105664000D01*
X114808000Y-102870000D02*
X114808000Y-104902000D01*
X113792000Y-101854000D02*
X114808000Y-102870000D01*
X113792000Y-101092000D02*
X113792000Y-101854000D01*
X109220000Y-129540000D02*
X109220000Y-129286000D01*
X109220000Y-129286000D02*
X110236000Y-128270000D01*
X110236000Y-128270000D02*
X113538000Y-128270000D01*
X113538000Y-128270000D02*
X114808000Y-127000000D01*
X114808000Y-127000000D02*
X116680000Y-127000000D01*
X122080000Y-110490000D02*
X123698000Y-110490000D01*
X129540000Y-105410000D02*
X130810000Y-104140000D01*
X127508000Y-105410000D02*
X129540000Y-105410000D01*
X127000000Y-105918000D02*
X127508000Y-105410000D01*
X127000000Y-107188000D02*
X127000000Y-105918000D01*
X123698000Y-110490000D02*
X127000000Y-107188000D01*
X109220000Y-132080000D02*
X110490000Y-130810000D01*
X114808000Y-129540000D02*
X116680000Y-129540000D01*
X114554000Y-129794000D02*
X114808000Y-129540000D01*
X113538000Y-130810000D02*
X114554000Y-129794000D01*
X110490000Y-130810000D02*
X113538000Y-130810000D01*
X122080000Y-113030000D02*
X123444000Y-113030000D01*
X129540000Y-107950000D02*
X130810000Y-106680000D01*
X127508000Y-107950000D02*
X129540000Y-107950000D01*
X126238000Y-109220000D02*
X127508000Y-107950000D01*
X126238000Y-110236000D02*
X126238000Y-109220000D01*
X123444000Y-113030000D02*
X126238000Y-110236000D01*
X122080000Y-115570000D02*
X123698000Y-115570000D01*
X129540000Y-110490000D02*
X130810000Y-109220000D01*
X127254000Y-110490000D02*
X129540000Y-110490000D01*
X126238000Y-111506000D02*
X127254000Y-110490000D01*
X126238000Y-113030000D02*
X126238000Y-111506000D01*
X123698000Y-115570000D02*
X126238000Y-113030000D01*
X111760000Y-119380000D02*
X113792000Y-121412000D01*
X120650000Y-128270000D02*
X122080000Y-128270000D01*
X120396000Y-128016000D02*
X120650000Y-128270000D01*
X120396000Y-127000000D02*
X120396000Y-128016000D01*
X113792000Y-123698000D02*
X114046000Y-123952000D01*
X113792000Y-121412000D02*
X113792000Y-123698000D01*
X122080000Y-129540000D02*
X127508000Y-129540000D01*
X130810000Y-126238000D02*
X130810000Y-111760000D01*
X127508000Y-129540000D02*
X130810000Y-126238000D01*
X122080000Y-125730000D02*
X121158000Y-125730000D01*
X114046000Y-111252000D02*
X112014000Y-109220000D01*
X114046000Y-115316000D02*
X114046000Y-111252000D01*
X121158000Y-125730000D02*
X120396000Y-124968000D01*
X112014000Y-109220000D02*
X111760000Y-109220000D01*
X111760000Y-96520000D02*
X112268000Y-96520000D01*
X112268000Y-96520000D02*
X115062000Y-99314000D01*
X120396000Y-101600000D02*
X120396000Y-102870000D01*
X120396000Y-102870000D02*
X122080000Y-102870000D01*
X122080000Y-100330000D02*
X120650000Y-100330000D01*
X120396000Y-100076000D02*
X120650000Y-100330000D01*
X120396000Y-99060000D02*
X120396000Y-100076000D01*
X115062000Y-96520000D02*
X112522000Y-93980000D01*
X111760000Y-93980000D02*
X112522000Y-93980000D01*
X111760000Y-91440000D02*
X113030000Y-91440000D01*
X120904000Y-97790000D02*
X122080000Y-97790000D01*
X120396000Y-97282000D02*
X120904000Y-97790000D01*
X117348000Y-95250000D02*
X118110000Y-96012000D01*
X116840000Y-95250000D02*
X117348000Y-95250000D01*
X113030000Y-91440000D02*
X116840000Y-95250000D01*
X116680000Y-124460000D02*
X115062000Y-124460000D01*
X110490000Y-125730000D02*
X109220000Y-127000000D01*
X113792000Y-125730000D02*
X114554000Y-124968000D01*
X110490000Y-125730000D02*
X113792000Y-125730000D01*
X115062000Y-124460000D02*
X114554000Y-124968000D01*
X128270000Y-117936000D02*
X128270000Y-125650000D01*
X128270000Y-125650000D02*
X126920000Y-127000000D01*
X122080000Y-127000000D02*
X126920000Y-127000000D01*
X128270000Y-111760000D02*
X128270000Y-115236000D01*
M02*
