G04 #@! TF.FileFunction,Copper,L2,Bot,Signal*
%FSLAX46Y46*%
G04 Gerber Fmt 4.6, Leading zero omitted, Abs format (unit mm)*
G04 Created by KiCad (PCBNEW 4.0.4-stable) date 12/12/17 20:39:08*
%MOMM*%
%LPD*%
G01*
G04 APERTURE LIST*
%ADD10C,0.100000*%
%ADD11R,1.700000X1.700000*%
%ADD12O,1.700000X1.700000*%
%ADD13C,0.600000*%
%ADD14C,0.508000*%
%ADD15C,0.250000*%
G04 APERTURE END LIST*
D10*
D11*
X109220000Y-83820000D03*
D12*
X111760000Y-83820000D03*
X109220000Y-86360000D03*
X111760000Y-86360000D03*
X109220000Y-88900000D03*
X111760000Y-88900000D03*
X109220000Y-91440000D03*
X111760000Y-91440000D03*
X109220000Y-93980000D03*
X111760000Y-93980000D03*
X109220000Y-96520000D03*
X111760000Y-96520000D03*
X109220000Y-99060000D03*
X111760000Y-99060000D03*
X109220000Y-101600000D03*
X111760000Y-101600000D03*
X109220000Y-104140000D03*
X111760000Y-104140000D03*
X109220000Y-106680000D03*
X111760000Y-106680000D03*
X109220000Y-109220000D03*
X111760000Y-109220000D03*
X109220000Y-111760000D03*
X111760000Y-111760000D03*
X109220000Y-114300000D03*
X111760000Y-114300000D03*
X109220000Y-116840000D03*
X111760000Y-116840000D03*
X109220000Y-119380000D03*
X111760000Y-119380000D03*
X109220000Y-121920000D03*
X111760000Y-121920000D03*
X109220000Y-124460000D03*
X111760000Y-124460000D03*
X109220000Y-127000000D03*
X111760000Y-127000000D03*
X109220000Y-129540000D03*
X111760000Y-129540000D03*
X109220000Y-132080000D03*
X111760000Y-132080000D03*
D11*
X128270000Y-88900000D03*
D12*
X130810000Y-88900000D03*
X128270000Y-91440000D03*
X130810000Y-91440000D03*
X128270000Y-93980000D03*
X130810000Y-93980000D03*
X128270000Y-96520000D03*
X130810000Y-96520000D03*
X128270000Y-99060000D03*
X130810000Y-99060000D03*
X128270000Y-101600000D03*
X130810000Y-101600000D03*
X128270000Y-104140000D03*
X130810000Y-104140000D03*
X128270000Y-106680000D03*
X130810000Y-106680000D03*
X128270000Y-109220000D03*
X130810000Y-109220000D03*
X128270000Y-111760000D03*
X130810000Y-111760000D03*
D13*
X119380000Y-121646000D03*
X119380000Y-116332000D03*
X125222000Y-117856000D03*
X125476000Y-106426000D03*
X125222000Y-94996000D03*
X124968000Y-123190000D03*
X125476000Y-83820000D03*
X118364000Y-109220000D03*
X124206000Y-102870000D03*
X123952000Y-100584000D03*
X118364000Y-102870000D03*
X124206000Y-98044000D03*
X118364000Y-100330000D03*
X123952000Y-96774000D03*
X118364000Y-97790000D03*
X120396000Y-91440000D03*
X115062000Y-88900000D03*
X123698000Y-90932000D03*
X118364000Y-89154000D03*
X120396000Y-88900000D03*
X115062000Y-86360000D03*
X118364000Y-86360000D03*
X123698000Y-88392000D03*
X120396000Y-86360000D03*
X115062000Y-83820000D03*
X118364000Y-130810000D03*
X118364000Y-128270000D03*
X118364000Y-125730000D03*
X120396000Y-114300000D03*
X114300000Y-106934000D03*
X116840000Y-106426000D03*
X120396000Y-110236000D03*
X120396000Y-108712000D03*
X118110000Y-106426000D03*
X120396000Y-127000000D03*
X114046000Y-123952000D03*
X114046000Y-115316000D03*
X120396000Y-124968000D03*
X115062000Y-99314000D03*
X120396000Y-101600000D03*
X120396000Y-99060000D03*
X115062000Y-96520000D03*
X120396000Y-97282000D03*
X118110000Y-96012000D03*
D14*
X119380000Y-116332000D02*
X119380000Y-121646000D01*
X125222000Y-117856000D02*
X125476000Y-117856000D01*
X125476000Y-95504000D02*
X125476000Y-95250000D01*
X125476000Y-95250000D02*
X125222000Y-94996000D01*
X125476000Y-122682000D02*
X125476000Y-117856000D01*
X124968000Y-123190000D02*
X125476000Y-122682000D01*
X125476000Y-117856000D02*
X125476000Y-106426000D01*
X125476000Y-106426000D02*
X125476000Y-95504000D01*
X125476000Y-95504000D02*
X125476000Y-83820000D01*
D15*
X124206000Y-108204000D02*
X124206000Y-102870000D01*
X118364000Y-109220000D02*
X119380000Y-110236000D01*
X119380000Y-110236000D02*
X119380000Y-110998000D01*
X119380000Y-110998000D02*
X119634000Y-111252000D01*
X119634000Y-111252000D02*
X121158000Y-111252000D01*
X121158000Y-111252000D02*
X124206000Y-108204000D01*
X123444000Y-100584000D02*
X123952000Y-100584000D01*
X121158000Y-102870000D02*
X123444000Y-100584000D01*
X118364000Y-102870000D02*
X121158000Y-102870000D01*
X123190000Y-98044000D02*
X124206000Y-98044000D01*
X120904000Y-100330000D02*
X123190000Y-98044000D01*
X118364000Y-100330000D02*
X120904000Y-100330000D01*
X122936000Y-96774000D02*
X123952000Y-96774000D01*
X121666000Y-98044000D02*
X122936000Y-96774000D01*
X118618000Y-98044000D02*
X121666000Y-98044000D01*
X118364000Y-97790000D02*
X118618000Y-98044000D01*
X117602000Y-91440000D02*
X120396000Y-91440000D01*
X115062000Y-88900000D02*
X117602000Y-91440000D01*
X122936000Y-90170000D02*
X123698000Y-90932000D01*
X119380000Y-90170000D02*
X122936000Y-90170000D01*
X118364000Y-89154000D02*
X119380000Y-90170000D01*
X119126000Y-87630000D02*
X120396000Y-88900000D01*
X118364000Y-87630000D02*
X119126000Y-87630000D01*
X117094000Y-86360000D02*
X118364000Y-87630000D01*
X115062000Y-86360000D02*
X117094000Y-86360000D01*
X123698000Y-88392000D02*
X122936000Y-87630000D01*
X119126000Y-86360000D02*
X118364000Y-86360000D01*
X120396000Y-87630000D02*
X119126000Y-86360000D01*
X122936000Y-87630000D02*
X120396000Y-87630000D01*
X117856000Y-83820000D02*
X120396000Y-86360000D01*
X115062000Y-83820000D02*
X117856000Y-83820000D01*
X124460000Y-130810000D02*
X129540000Y-125730000D01*
X118364000Y-130810000D02*
X124460000Y-130810000D01*
X129540000Y-110490000D02*
X128270000Y-109220000D01*
X129540000Y-125730000D02*
X129540000Y-110490000D01*
X128270000Y-106680000D02*
X127000000Y-107950000D01*
X118364000Y-128270000D02*
X123698000Y-128270000D01*
X124206000Y-128270000D02*
X123698000Y-128270000D01*
X127000000Y-125476000D02*
X124206000Y-128270000D01*
X127000000Y-123952000D02*
X127000000Y-125476000D01*
X127000000Y-123444000D02*
X127000000Y-123952000D01*
X127000000Y-109728000D02*
X127000000Y-123444000D01*
X127000000Y-107950000D02*
X127000000Y-109728000D01*
X123952000Y-125730000D02*
X126238000Y-123444000D01*
X118364000Y-125730000D02*
X123952000Y-125730000D01*
X126238000Y-106172000D02*
X128270000Y-104140000D01*
X126238000Y-123444000D02*
X126238000Y-106172000D01*
X114554000Y-110236000D02*
X118618000Y-114300000D01*
X118618000Y-114300000D02*
X120396000Y-114300000D01*
X114300000Y-109982000D02*
X114554000Y-110236000D01*
X114300000Y-109728000D02*
X114300000Y-109982000D01*
X114300000Y-106934000D02*
X114300000Y-109728000D01*
X116840000Y-106426000D02*
X120396000Y-109982000D01*
X120396000Y-109982000D02*
X120396000Y-110236000D01*
X118110000Y-106426000D02*
X120396000Y-108712000D01*
X117094000Y-127000000D02*
X120396000Y-127000000D01*
X114046000Y-123952000D02*
X117094000Y-127000000D01*
X114046000Y-119126000D02*
X114046000Y-115316000D01*
X115062000Y-120142000D02*
X114046000Y-119126000D01*
X115062000Y-122682000D02*
X115062000Y-120142000D01*
X116586000Y-124206000D02*
X115062000Y-122682000D01*
X119634000Y-124206000D02*
X116586000Y-124206000D01*
X120396000Y-124968000D02*
X119634000Y-124206000D01*
X115062000Y-99314000D02*
X117348000Y-101600000D01*
X117348000Y-101600000D02*
X120396000Y-101600000D01*
X115062000Y-97790000D02*
X115062000Y-96520000D01*
X116332000Y-99060000D02*
X120396000Y-99060000D01*
X115062000Y-97790000D02*
X116332000Y-99060000D01*
X119380000Y-97282000D02*
X120396000Y-97282000D01*
X118110000Y-96012000D02*
X119380000Y-97282000D01*
M02*
