G04 #@! TF.FileFunction,Legend,Top*
%FSLAX46Y46*%
G04 Gerber Fmt 4.6, Leading zero omitted, Abs format (unit mm)*
G04 Created by KiCad (PCBNEW 4.0.4-stable) date 12/12/17 20:44:01*
%MOMM*%
%LPD*%
G01*
G04 APERTURE LIST*
%ADD10C,0.100000*%
%ADD11C,0.300000*%
%ADD12C,0.120000*%
%ADD13C,0.150000*%
G04 APERTURE END LIST*
D10*
D11*
X130308573Y-99098571D02*
X130308573Y-97598571D01*
X130665716Y-97598571D01*
X130880001Y-97670000D01*
X131022859Y-97812857D01*
X131094287Y-97955714D01*
X131165716Y-98241429D01*
X131165716Y-98455714D01*
X131094287Y-98741429D01*
X131022859Y-98884286D01*
X130880001Y-99027143D01*
X130665716Y-99098571D01*
X130308573Y-99098571D01*
X131808573Y-99098571D02*
X131808573Y-97598571D01*
X132522859Y-99098571D02*
X132522859Y-97598571D01*
X133094287Y-97598571D01*
X133237145Y-97670000D01*
X133308573Y-97741429D01*
X133380002Y-97884286D01*
X133380002Y-98098571D01*
X133308573Y-98241429D01*
X133237145Y-98312857D01*
X133094287Y-98384286D01*
X132522859Y-98384286D01*
X134665716Y-98098571D02*
X134665716Y-99098571D01*
X134308573Y-97527143D02*
X133951430Y-98598571D01*
X134880002Y-98598571D01*
X135737144Y-97598571D02*
X135880001Y-97598571D01*
X136022858Y-97670000D01*
X136094287Y-97741429D01*
X136165716Y-97884286D01*
X136237144Y-98170000D01*
X136237144Y-98527143D01*
X136165716Y-98812857D01*
X136094287Y-98955714D01*
X136022858Y-99027143D01*
X135880001Y-99098571D01*
X135737144Y-99098571D01*
X135594287Y-99027143D01*
X135522858Y-98955714D01*
X135451430Y-98812857D01*
X135380001Y-98527143D01*
X135380001Y-98170000D01*
X135451430Y-97884286D01*
X135522858Y-97741429D01*
X135594287Y-97670000D01*
X135737144Y-97598571D01*
X138951429Y-98098571D02*
X139522858Y-98098571D01*
X139165715Y-97598571D02*
X139165715Y-98884286D01*
X139237143Y-99027143D01*
X139380001Y-99098571D01*
X139522858Y-99098571D01*
X140237144Y-99098571D02*
X140094286Y-99027143D01*
X140022858Y-98955714D01*
X139951429Y-98812857D01*
X139951429Y-98384286D01*
X140022858Y-98241429D01*
X140094286Y-98170000D01*
X140237144Y-98098571D01*
X140451429Y-98098571D01*
X140594286Y-98170000D01*
X140665715Y-98241429D01*
X140737144Y-98384286D01*
X140737144Y-98812857D01*
X140665715Y-98955714D01*
X140594286Y-99027143D01*
X140451429Y-99098571D01*
X140237144Y-99098571D01*
X142522858Y-98098571D02*
X142522858Y-99598571D01*
X142522858Y-98170000D02*
X142665715Y-98098571D01*
X142951429Y-98098571D01*
X143094286Y-98170000D01*
X143165715Y-98241429D01*
X143237144Y-98384286D01*
X143237144Y-98812857D01*
X143165715Y-98955714D01*
X143094286Y-99027143D01*
X142951429Y-99098571D01*
X142665715Y-99098571D01*
X142522858Y-99027143D01*
X143880001Y-99098571D02*
X143880001Y-98098571D01*
X143880001Y-97598571D02*
X143808572Y-97670000D01*
X143880001Y-97741429D01*
X143951429Y-97670000D01*
X143880001Y-97598571D01*
X143880001Y-97741429D01*
X144594287Y-98098571D02*
X144594287Y-99098571D01*
X144594287Y-98241429D02*
X144665715Y-98170000D01*
X144808573Y-98098571D01*
X145022858Y-98098571D01*
X145165715Y-98170000D01*
X145237144Y-98312857D01*
X145237144Y-99098571D01*
X147094287Y-99098571D02*
X147094287Y-97598571D01*
X147737144Y-99098571D02*
X147737144Y-98312857D01*
X147665715Y-98170000D01*
X147522858Y-98098571D01*
X147308573Y-98098571D01*
X147165715Y-98170000D01*
X147094287Y-98241429D01*
X149022858Y-99027143D02*
X148880001Y-99098571D01*
X148594287Y-99098571D01*
X148451430Y-99027143D01*
X148380001Y-98884286D01*
X148380001Y-98312857D01*
X148451430Y-98170000D01*
X148594287Y-98098571D01*
X148880001Y-98098571D01*
X149022858Y-98170000D01*
X149094287Y-98312857D01*
X149094287Y-98455714D01*
X148380001Y-98598571D01*
X150380001Y-99098571D02*
X150380001Y-98312857D01*
X150308572Y-98170000D01*
X150165715Y-98098571D01*
X149880001Y-98098571D01*
X149737144Y-98170000D01*
X150380001Y-99027143D02*
X150237144Y-99098571D01*
X149880001Y-99098571D01*
X149737144Y-99027143D01*
X149665715Y-98884286D01*
X149665715Y-98741429D01*
X149737144Y-98598571D01*
X149880001Y-98527143D01*
X150237144Y-98527143D01*
X150380001Y-98455714D01*
X151737144Y-99098571D02*
X151737144Y-97598571D01*
X151737144Y-99027143D02*
X151594287Y-99098571D01*
X151308573Y-99098571D01*
X151165715Y-99027143D01*
X151094287Y-98955714D01*
X151022858Y-98812857D01*
X151022858Y-98384286D01*
X151094287Y-98241429D01*
X151165715Y-98170000D01*
X151308573Y-98098571D01*
X151594287Y-98098571D01*
X151737144Y-98170000D01*
X153022858Y-99027143D02*
X152880001Y-99098571D01*
X152594287Y-99098571D01*
X152451430Y-99027143D01*
X152380001Y-98884286D01*
X152380001Y-98312857D01*
X152451430Y-98170000D01*
X152594287Y-98098571D01*
X152880001Y-98098571D01*
X153022858Y-98170000D01*
X153094287Y-98312857D01*
X153094287Y-98455714D01*
X152380001Y-98598571D01*
X153737144Y-99098571D02*
X153737144Y-98098571D01*
X153737144Y-98384286D02*
X153808572Y-98241429D01*
X153880001Y-98170000D01*
X154022858Y-98098571D01*
X154165715Y-98098571D01*
X156451429Y-99098571D02*
X156451429Y-98312857D01*
X156380000Y-98170000D01*
X156237143Y-98098571D01*
X155951429Y-98098571D01*
X155808572Y-98170000D01*
X156451429Y-99027143D02*
X156308572Y-99098571D01*
X155951429Y-99098571D01*
X155808572Y-99027143D01*
X155737143Y-98884286D01*
X155737143Y-98741429D01*
X155808572Y-98598571D01*
X155951429Y-98527143D01*
X156308572Y-98527143D01*
X156451429Y-98455714D01*
X157808572Y-99098571D02*
X157808572Y-97598571D01*
X157808572Y-99027143D02*
X157665715Y-99098571D01*
X157380001Y-99098571D01*
X157237143Y-99027143D01*
X157165715Y-98955714D01*
X157094286Y-98812857D01*
X157094286Y-98384286D01*
X157165715Y-98241429D01*
X157237143Y-98170000D01*
X157380001Y-98098571D01*
X157665715Y-98098571D01*
X157808572Y-98170000D01*
X159165715Y-99098571D02*
X159165715Y-98312857D01*
X159094286Y-98170000D01*
X158951429Y-98098571D01*
X158665715Y-98098571D01*
X158522858Y-98170000D01*
X159165715Y-99027143D02*
X159022858Y-99098571D01*
X158665715Y-99098571D01*
X158522858Y-99027143D01*
X158451429Y-98884286D01*
X158451429Y-98741429D01*
X158522858Y-98598571D01*
X158665715Y-98527143D01*
X159022858Y-98527143D01*
X159165715Y-98455714D01*
X159880001Y-98098571D02*
X159880001Y-99598571D01*
X159880001Y-98170000D02*
X160022858Y-98098571D01*
X160308572Y-98098571D01*
X160451429Y-98170000D01*
X160522858Y-98241429D01*
X160594287Y-98384286D01*
X160594287Y-98812857D01*
X160522858Y-98955714D01*
X160451429Y-99027143D01*
X160308572Y-99098571D01*
X160022858Y-99098571D01*
X159880001Y-99027143D01*
X161022858Y-98098571D02*
X161594287Y-98098571D01*
X161237144Y-97598571D02*
X161237144Y-98884286D01*
X161308572Y-99027143D01*
X161451430Y-99098571D01*
X161594287Y-99098571D01*
X162665715Y-99027143D02*
X162522858Y-99098571D01*
X162237144Y-99098571D01*
X162094287Y-99027143D01*
X162022858Y-98884286D01*
X162022858Y-98312857D01*
X162094287Y-98170000D01*
X162237144Y-98098571D01*
X162522858Y-98098571D01*
X162665715Y-98170000D01*
X162737144Y-98312857D01*
X162737144Y-98455714D01*
X162022858Y-98598571D01*
X163380001Y-99098571D02*
X163380001Y-98098571D01*
X163380001Y-98384286D02*
X163451429Y-98241429D01*
X163522858Y-98170000D01*
X163665715Y-98098571D01*
X163808572Y-98098571D01*
X167451429Y-99098571D02*
X166951429Y-98384286D01*
X166594286Y-99098571D02*
X166594286Y-97598571D01*
X167165714Y-97598571D01*
X167308572Y-97670000D01*
X167380000Y-97741429D01*
X167451429Y-97884286D01*
X167451429Y-98098571D01*
X167380000Y-98241429D01*
X167308572Y-98312857D01*
X167165714Y-98384286D01*
X166594286Y-98384286D01*
X168665714Y-99027143D02*
X168522857Y-99098571D01*
X168237143Y-99098571D01*
X168094286Y-99027143D01*
X168022857Y-98884286D01*
X168022857Y-98312857D01*
X168094286Y-98170000D01*
X168237143Y-98098571D01*
X168522857Y-98098571D01*
X168665714Y-98170000D01*
X168737143Y-98312857D01*
X168737143Y-98455714D01*
X168022857Y-98598571D01*
X169237143Y-98098571D02*
X169594286Y-99098571D01*
X169951428Y-98098571D01*
X170522857Y-98955714D02*
X170594285Y-99027143D01*
X170522857Y-99098571D01*
X170451428Y-99027143D01*
X170522857Y-98955714D01*
X170522857Y-99098571D01*
X171165714Y-97741429D02*
X171237143Y-97670000D01*
X171380000Y-97598571D01*
X171737143Y-97598571D01*
X171880000Y-97670000D01*
X171951429Y-97741429D01*
X172022857Y-97884286D01*
X172022857Y-98027143D01*
X171951429Y-98241429D01*
X171094286Y-99098571D01*
X172022857Y-99098571D01*
X136915714Y-100648571D02*
X136915714Y-101862857D01*
X136844285Y-102005714D01*
X136772857Y-102077143D01*
X136630000Y-102148571D01*
X136415714Y-102148571D01*
X136272857Y-102077143D01*
X136915714Y-101577143D02*
X136772857Y-101648571D01*
X136487143Y-101648571D01*
X136344285Y-101577143D01*
X136272857Y-101505714D01*
X136201428Y-101362857D01*
X136201428Y-100934286D01*
X136272857Y-100791429D01*
X136344285Y-100720000D01*
X136487143Y-100648571D01*
X136772857Y-100648571D01*
X136915714Y-100720000D01*
X137630000Y-101648571D02*
X137630000Y-100648571D01*
X137630000Y-100148571D02*
X137558571Y-100220000D01*
X137630000Y-100291429D01*
X137701428Y-100220000D01*
X137630000Y-100148571D01*
X137630000Y-100291429D01*
X138130000Y-100648571D02*
X138701429Y-100648571D01*
X138344286Y-100148571D02*
X138344286Y-101434286D01*
X138415714Y-101577143D01*
X138558572Y-101648571D01*
X138701429Y-101648571D01*
X139201429Y-101648571D02*
X139201429Y-100148571D01*
X139844286Y-101648571D02*
X139844286Y-100862857D01*
X139772857Y-100720000D01*
X139630000Y-100648571D01*
X139415715Y-100648571D01*
X139272857Y-100720000D01*
X139201429Y-100791429D01*
X141201429Y-100648571D02*
X141201429Y-101648571D01*
X140558572Y-100648571D02*
X140558572Y-101434286D01*
X140630000Y-101577143D01*
X140772858Y-101648571D01*
X140987143Y-101648571D01*
X141130000Y-101577143D01*
X141201429Y-101505714D01*
X141915715Y-101648571D02*
X141915715Y-100148571D01*
X141915715Y-100720000D02*
X142058572Y-100648571D01*
X142344286Y-100648571D01*
X142487143Y-100720000D01*
X142558572Y-100791429D01*
X142630001Y-100934286D01*
X142630001Y-101362857D01*
X142558572Y-101505714D01*
X142487143Y-101577143D01*
X142344286Y-101648571D01*
X142058572Y-101648571D01*
X141915715Y-101577143D01*
X143272858Y-101505714D02*
X143344286Y-101577143D01*
X143272858Y-101648571D01*
X143201429Y-101577143D01*
X143272858Y-101505714D01*
X143272858Y-101648571D01*
X144630001Y-101577143D02*
X144487144Y-101648571D01*
X144201430Y-101648571D01*
X144058572Y-101577143D01*
X143987144Y-101505714D01*
X143915715Y-101362857D01*
X143915715Y-100934286D01*
X143987144Y-100791429D01*
X144058572Y-100720000D01*
X144201430Y-100648571D01*
X144487144Y-100648571D01*
X144630001Y-100720000D01*
X145487144Y-101648571D02*
X145344286Y-101577143D01*
X145272858Y-101505714D01*
X145201429Y-101362857D01*
X145201429Y-100934286D01*
X145272858Y-100791429D01*
X145344286Y-100720000D01*
X145487144Y-100648571D01*
X145701429Y-100648571D01*
X145844286Y-100720000D01*
X145915715Y-100791429D01*
X145987144Y-100934286D01*
X145987144Y-101362857D01*
X145915715Y-101505714D01*
X145844286Y-101577143D01*
X145701429Y-101648571D01*
X145487144Y-101648571D01*
X146630001Y-101648571D02*
X146630001Y-100648571D01*
X146630001Y-100791429D02*
X146701429Y-100720000D01*
X146844287Y-100648571D01*
X147058572Y-100648571D01*
X147201429Y-100720000D01*
X147272858Y-100862857D01*
X147272858Y-101648571D01*
X147272858Y-100862857D02*
X147344287Y-100720000D01*
X147487144Y-100648571D01*
X147701429Y-100648571D01*
X147844287Y-100720000D01*
X147915715Y-100862857D01*
X147915715Y-101648571D01*
X149701429Y-100077143D02*
X148415715Y-102005714D01*
X150844287Y-101577143D02*
X150701430Y-101648571D01*
X150415716Y-101648571D01*
X150272858Y-101577143D01*
X150201430Y-101505714D01*
X150130001Y-101362857D01*
X150130001Y-100934286D01*
X150201430Y-100791429D01*
X150272858Y-100720000D01*
X150415716Y-100648571D01*
X150701430Y-100648571D01*
X150844287Y-100720000D01*
X151772858Y-100148571D02*
X151915715Y-100148571D01*
X152058572Y-100220000D01*
X152130001Y-100291429D01*
X152201430Y-100434286D01*
X152272858Y-100720000D01*
X152272858Y-101077143D01*
X152201430Y-101362857D01*
X152130001Y-101505714D01*
X152058572Y-101577143D01*
X151915715Y-101648571D01*
X151772858Y-101648571D01*
X151630001Y-101577143D01*
X151558572Y-101505714D01*
X151487144Y-101362857D01*
X151415715Y-101077143D01*
X151415715Y-100720000D01*
X151487144Y-100434286D01*
X151558572Y-100291429D01*
X151630001Y-100220000D01*
X151772858Y-100148571D01*
X152915715Y-100648571D02*
X152915715Y-102148571D01*
X152915715Y-100720000D02*
X153058572Y-100648571D01*
X153344286Y-100648571D01*
X153487143Y-100720000D01*
X153558572Y-100791429D01*
X153630001Y-100934286D01*
X153630001Y-101362857D01*
X153558572Y-101505714D01*
X153487143Y-101577143D01*
X153344286Y-101648571D01*
X153058572Y-101648571D01*
X152915715Y-101577143D01*
X154272858Y-100648571D02*
X154272858Y-102148571D01*
X154272858Y-100720000D02*
X154415715Y-100648571D01*
X154701429Y-100648571D01*
X154844286Y-100720000D01*
X154915715Y-100791429D01*
X154987144Y-100934286D01*
X154987144Y-101362857D01*
X154915715Y-101505714D01*
X154844286Y-101577143D01*
X154701429Y-101648571D01*
X154415715Y-101648571D01*
X154272858Y-101577143D01*
X156201429Y-101577143D02*
X156058572Y-101648571D01*
X155772858Y-101648571D01*
X155630001Y-101577143D01*
X155558572Y-101434286D01*
X155558572Y-100862857D01*
X155630001Y-100720000D01*
X155772858Y-100648571D01*
X156058572Y-100648571D01*
X156201429Y-100720000D01*
X156272858Y-100862857D01*
X156272858Y-101005714D01*
X155558572Y-101148571D01*
X156915715Y-101648571D02*
X156915715Y-100648571D01*
X156915715Y-100934286D02*
X156987143Y-100791429D01*
X157058572Y-100720000D01*
X157201429Y-100648571D01*
X157344286Y-100648571D01*
X158487143Y-101648571D02*
X158487143Y-100148571D01*
X158487143Y-101577143D02*
X158344286Y-101648571D01*
X158058572Y-101648571D01*
X157915714Y-101577143D01*
X157844286Y-101505714D01*
X157772857Y-101362857D01*
X157772857Y-100934286D01*
X157844286Y-100791429D01*
X157915714Y-100720000D01*
X158058572Y-100648571D01*
X158344286Y-100648571D01*
X158487143Y-100720000D01*
X159201429Y-101648571D02*
X159201429Y-100648571D01*
X159201429Y-100934286D02*
X159272857Y-100791429D01*
X159344286Y-100720000D01*
X159487143Y-100648571D01*
X159630000Y-100648571D01*
X160772857Y-101648571D02*
X160772857Y-100862857D01*
X160701428Y-100720000D01*
X160558571Y-100648571D01*
X160272857Y-100648571D01*
X160130000Y-100720000D01*
X160772857Y-101577143D02*
X160630000Y-101648571D01*
X160272857Y-101648571D01*
X160130000Y-101577143D01*
X160058571Y-101434286D01*
X160058571Y-101291429D01*
X160130000Y-101148571D01*
X160272857Y-101077143D01*
X160630000Y-101077143D01*
X160772857Y-101005714D01*
X162130000Y-100648571D02*
X162130000Y-101862857D01*
X162058571Y-102005714D01*
X161987143Y-102077143D01*
X161844286Y-102148571D01*
X161630000Y-102148571D01*
X161487143Y-102077143D01*
X162130000Y-101577143D02*
X161987143Y-101648571D01*
X161701429Y-101648571D01*
X161558571Y-101577143D01*
X161487143Y-101505714D01*
X161415714Y-101362857D01*
X161415714Y-100934286D01*
X161487143Y-100791429D01*
X161558571Y-100720000D01*
X161701429Y-100648571D01*
X161987143Y-100648571D01*
X162130000Y-100720000D01*
X163058572Y-101648571D02*
X162915714Y-101577143D01*
X162844286Y-101505714D01*
X162772857Y-101362857D01*
X162772857Y-100934286D01*
X162844286Y-100791429D01*
X162915714Y-100720000D01*
X163058572Y-100648571D01*
X163272857Y-100648571D01*
X163415714Y-100720000D01*
X163487143Y-100791429D01*
X163558572Y-100934286D01*
X163558572Y-101362857D01*
X163487143Y-101505714D01*
X163415714Y-101577143D01*
X163272857Y-101648571D01*
X163058572Y-101648571D01*
X164201429Y-100648571D02*
X164201429Y-101648571D01*
X164201429Y-100791429D02*
X164272857Y-100720000D01*
X164415715Y-100648571D01*
X164630000Y-100648571D01*
X164772857Y-100720000D01*
X164844286Y-100862857D01*
X164844286Y-101648571D01*
D12*
X176590000Y-92770000D02*
X176590000Y-87570000D01*
X128270000Y-92770000D02*
X176590000Y-92770000D01*
X125670000Y-87570000D02*
X176590000Y-87570000D01*
X128270000Y-92770000D02*
X128270000Y-90170000D01*
X128270000Y-90170000D02*
X125670000Y-90170000D01*
X125670000Y-90170000D02*
X125670000Y-87570000D01*
X127000000Y-92770000D02*
X125670000Y-92770000D01*
X125670000Y-92770000D02*
X125670000Y-91440000D01*
D10*
X157480000Y-95250000D02*
X157480000Y-107950000D01*
X157480000Y-107950000D02*
X160655000Y-107950000D01*
X160655000Y-107950000D02*
X160655000Y-95250000D01*
X160655000Y-95250000D02*
X157480000Y-95250000D01*
X144780000Y-95250000D02*
X144780000Y-107950000D01*
X144780000Y-107950000D02*
X141605000Y-107950000D01*
X141605000Y-107950000D02*
X141605000Y-95250000D01*
X141605000Y-95250000D02*
X144780000Y-95250000D01*
X176530000Y-95250000D02*
X173355000Y-95250000D01*
X173355000Y-95250000D02*
X173355000Y-107950000D01*
X173355000Y-107950000D02*
X176530000Y-107950000D01*
X176530000Y-107950000D02*
X176530000Y-95250000D01*
X125730000Y-95250000D02*
X128905000Y-95250000D01*
X128905000Y-95250000D02*
X128905000Y-107950000D01*
X128905000Y-107950000D02*
X125730000Y-107950000D01*
X125730000Y-107950000D02*
X125730000Y-95250000D01*
X125730000Y-95250000D02*
X128905000Y-95250000D01*
X125730000Y-107950000D02*
X125730000Y-110490000D01*
X125730000Y-110490000D02*
X176530000Y-110490000D01*
X176530000Y-110490000D02*
X176530000Y-107950000D01*
X176530000Y-107950000D02*
X125730000Y-107950000D01*
X125730000Y-92710000D02*
X125730000Y-95250000D01*
X125730000Y-95250000D02*
X176530000Y-95250000D01*
X176530000Y-95250000D02*
X176530000Y-92710000D01*
X176530000Y-92710000D02*
X125730000Y-92710000D01*
D13*
M02*
