G04 #@! TF.FileFunction,Copper,L1,Top,Signal*
%FSLAX46Y46*%
G04 Gerber Fmt 4.6, Leading zero omitted, Abs format (unit mm)*
G04 Created by KiCad (PCBNEW 4.0.4-stable) date 12/12/17 20:44:01*
%MOMM*%
%LPD*%
G01*
G04 APERTURE LIST*
%ADD10C,0.100000*%
%ADD11R,1.700000X1.700000*%
%ADD12O,1.700000X1.700000*%
%ADD13C,2.159000*%
%ADD14C,1.854200*%
%ADD15C,0.250000*%
G04 APERTURE END LIST*
D10*
D11*
X127000000Y-91440000D03*
D12*
X127000000Y-88900000D03*
X129540000Y-91440000D03*
X129540000Y-88900000D03*
X132080000Y-91440000D03*
X132080000Y-88900000D03*
X134620000Y-91440000D03*
X134620000Y-88900000D03*
X137160000Y-91440000D03*
X137160000Y-88900000D03*
X139700000Y-91440000D03*
X139700000Y-88900000D03*
X142240000Y-91440000D03*
X142240000Y-88900000D03*
X144780000Y-91440000D03*
X144780000Y-88900000D03*
X147320000Y-91440000D03*
X147320000Y-88900000D03*
X149860000Y-91440000D03*
X149860000Y-88900000D03*
X152400000Y-91440000D03*
X152400000Y-88900000D03*
X154940000Y-91440000D03*
X154940000Y-88900000D03*
X157480000Y-91440000D03*
X157480000Y-88900000D03*
X160020000Y-91440000D03*
X160020000Y-88900000D03*
X162560000Y-91440000D03*
X162560000Y-88900000D03*
X165100000Y-91440000D03*
X165100000Y-88900000D03*
X167640000Y-91440000D03*
X167640000Y-88900000D03*
X170180000Y-91440000D03*
X170180000Y-88900000D03*
X172720000Y-91440000D03*
X172720000Y-88900000D03*
X175260000Y-91440000D03*
X175260000Y-88900000D03*
D13*
X149860000Y-109220000D03*
X127000000Y-109220000D03*
X129540000Y-109220000D03*
X132080000Y-109220000D03*
X134620000Y-109220000D03*
X137160000Y-109220000D03*
X139700000Y-109220000D03*
X142240000Y-109220000D03*
X144780000Y-109220000D03*
X147320000Y-109220000D03*
X152400000Y-109220000D03*
X154940000Y-109220000D03*
X157480000Y-109220000D03*
X160020000Y-109220000D03*
X162560000Y-109220000D03*
X165100000Y-109220000D03*
X167640000Y-109220000D03*
X170180000Y-109220000D03*
X172720000Y-109220000D03*
X175260000Y-109220000D03*
D14*
X175260000Y-93980000D03*
X172720000Y-93980000D03*
X170180000Y-93980000D03*
X167640000Y-93980000D03*
X165100000Y-93980000D03*
X162560000Y-93980000D03*
X160020000Y-93980000D03*
X157480000Y-93980000D03*
X154940000Y-93980000D03*
X152400000Y-93980000D03*
X149860000Y-93980000D03*
X147320000Y-93980000D03*
X144780000Y-93980000D03*
X142240000Y-93980000D03*
X139700000Y-93980000D03*
X137160000Y-93980000D03*
X134620000Y-93980000D03*
X132080000Y-93980000D03*
X129540000Y-93980000D03*
X127000000Y-93980000D03*
D15*
X149860000Y-91440000D02*
X149860000Y-91694000D01*
X149860000Y-91694000D02*
X148590000Y-92964000D01*
X148590000Y-92964000D02*
X148590000Y-98044000D01*
X148590000Y-98044000D02*
X149860000Y-99314000D01*
X149860000Y-99314000D02*
X149860000Y-109220000D01*
X127000000Y-91440000D02*
X127000000Y-91948000D01*
X127000000Y-91948000D02*
X125730000Y-93218000D01*
X125730000Y-93218000D02*
X125730000Y-98044000D01*
X125730000Y-98044000D02*
X127000000Y-99314000D01*
X127000000Y-99314000D02*
X127000000Y-109220000D01*
X129540000Y-91440000D02*
X129540000Y-91694000D01*
X129794000Y-91694000D02*
X128270000Y-93218000D01*
X128270000Y-93218000D02*
X128270000Y-98044000D01*
X128270000Y-98044000D02*
X129540000Y-99314000D01*
X129540000Y-99314000D02*
X129540000Y-109220000D01*
X132080000Y-91440000D02*
X132080000Y-91694000D01*
X132080000Y-91694000D02*
X130810000Y-92964000D01*
X130810000Y-92964000D02*
X130810000Y-98044000D01*
X130810000Y-98044000D02*
X132080000Y-99314000D01*
X132080000Y-99314000D02*
X132080000Y-109220000D01*
X134620000Y-91440000D02*
X134620000Y-91694000D01*
X134620000Y-91694000D02*
X133350000Y-92964000D01*
X133350000Y-92964000D02*
X133350000Y-98044000D01*
X133350000Y-98044000D02*
X134620000Y-99314000D01*
X134620000Y-99314000D02*
X134620000Y-109220000D01*
X137160000Y-91440000D02*
X137160000Y-91694000D01*
X137160000Y-91694000D02*
X135890000Y-92964000D01*
X135890000Y-92964000D02*
X135890000Y-98044000D01*
X135890000Y-98044000D02*
X137160000Y-99314000D01*
X137160000Y-99314000D02*
X137160000Y-109220000D01*
X139700000Y-91440000D02*
X139700000Y-91694000D01*
X139700000Y-91694000D02*
X138430000Y-92964000D01*
X138430000Y-92964000D02*
X138430000Y-98044000D01*
X138430000Y-98044000D02*
X139700000Y-99314000D01*
X139700000Y-99314000D02*
X139700000Y-109220000D01*
X142240000Y-91440000D02*
X142240000Y-91694000D01*
X142240000Y-91694000D02*
X140970000Y-92964000D01*
X140970000Y-92964000D02*
X140970000Y-98044000D01*
X140970000Y-98044000D02*
X142240000Y-99314000D01*
X142240000Y-99314000D02*
X142240000Y-109220000D01*
X144780000Y-91440000D02*
X144780000Y-91694000D01*
X144780000Y-91694000D02*
X143510000Y-92964000D01*
X143510000Y-92964000D02*
X143510000Y-98044000D01*
X143510000Y-98044000D02*
X144780000Y-99314000D01*
X144780000Y-99314000D02*
X144780000Y-109220000D01*
X147320000Y-91440000D02*
X147320000Y-91694000D01*
X147320000Y-91694000D02*
X146050000Y-92964000D01*
X146050000Y-92964000D02*
X146050000Y-98044000D01*
X146050000Y-98044000D02*
X147320000Y-99314000D01*
X147320000Y-99314000D02*
X147320000Y-109220000D01*
X152400000Y-91440000D02*
X152400000Y-91694000D01*
X152400000Y-91694000D02*
X151130000Y-92964000D01*
X151130000Y-92964000D02*
X151130000Y-98044000D01*
X151130000Y-98044000D02*
X152400000Y-99314000D01*
X152400000Y-99314000D02*
X152400000Y-109220000D01*
X154940000Y-91440000D02*
X154940000Y-91694000D01*
X154940000Y-91694000D02*
X153670000Y-92964000D01*
X153670000Y-92964000D02*
X153670000Y-98044000D01*
X153670000Y-98044000D02*
X154940000Y-99314000D01*
X154940000Y-99314000D02*
X154940000Y-109220000D01*
X157480000Y-91440000D02*
X157480000Y-91694000D01*
X157480000Y-91694000D02*
X156210000Y-92964000D01*
X156210000Y-92964000D02*
X156210000Y-98044000D01*
X156210000Y-98044000D02*
X157480000Y-99314000D01*
X157480000Y-99314000D02*
X157480000Y-109220000D01*
X160020000Y-91440000D02*
X160020000Y-91694000D01*
X160020000Y-91694000D02*
X158750000Y-92964000D01*
X158750000Y-92964000D02*
X158750000Y-98044000D01*
X158750000Y-98044000D02*
X160020000Y-99314000D01*
X160020000Y-99314000D02*
X160020000Y-109220000D01*
X162560000Y-91440000D02*
X162560000Y-91694000D01*
X162560000Y-91694000D02*
X161290000Y-92964000D01*
X161290000Y-92964000D02*
X161290000Y-98044000D01*
X161290000Y-98044000D02*
X162560000Y-99314000D01*
X162560000Y-99314000D02*
X162560000Y-109220000D01*
X165100000Y-91440000D02*
X165100000Y-91694000D01*
X165100000Y-91694000D02*
X163830000Y-92964000D01*
X163830000Y-92964000D02*
X163830000Y-98044000D01*
X163830000Y-98044000D02*
X165100000Y-99314000D01*
X165100000Y-99314000D02*
X165100000Y-109220000D01*
X167640000Y-91440000D02*
X167640000Y-91694000D01*
X167640000Y-91694000D02*
X166370000Y-92964000D01*
X166370000Y-92964000D02*
X166370000Y-98044000D01*
X166370000Y-98044000D02*
X167640000Y-99314000D01*
X167640000Y-99314000D02*
X167640000Y-109220000D01*
X170180000Y-91440000D02*
X170180000Y-91694000D01*
X170180000Y-91694000D02*
X168910000Y-92964000D01*
X168910000Y-92964000D02*
X168910000Y-98044000D01*
X168910000Y-98044000D02*
X170180000Y-99314000D01*
X170180000Y-99314000D02*
X170180000Y-109220000D01*
X172720000Y-91440000D02*
X172720000Y-91694000D01*
X172720000Y-91694000D02*
X171450000Y-92964000D01*
X171450000Y-92964000D02*
X171450000Y-98044000D01*
X171450000Y-98044000D02*
X172720000Y-99314000D01*
X172720000Y-99314000D02*
X172720000Y-109220000D01*
X173990000Y-92964000D02*
X175260000Y-91694000D01*
X175260000Y-91694000D02*
X175260000Y-91440000D01*
X175260000Y-91948000D02*
X175260000Y-91440000D01*
X173990000Y-93472000D02*
X173990000Y-92964000D01*
X175260000Y-99060000D02*
X173990000Y-97790000D01*
X173990000Y-97790000D02*
X173990000Y-93472000D01*
X175260000Y-109220000D02*
X175260000Y-99060000D01*
X175260000Y-93980000D02*
X176530000Y-92710000D01*
X176530000Y-89662000D02*
X175768000Y-88900000D01*
X176530000Y-92710000D02*
X176530000Y-89662000D01*
X175768000Y-88900000D02*
X175260000Y-88900000D01*
X172720000Y-93980000D02*
X172720000Y-93472000D01*
X172720000Y-93472000D02*
X173990000Y-92202000D01*
X173990000Y-92202000D02*
X173990000Y-90170000D01*
X173990000Y-90170000D02*
X172720000Y-88900000D01*
X170180000Y-93980000D02*
X170180000Y-93472000D01*
X170180000Y-93472000D02*
X171450000Y-92202000D01*
X171450000Y-92202000D02*
X171450000Y-90170000D01*
X171450000Y-90170000D02*
X170180000Y-88900000D01*
X167640000Y-93980000D02*
X167640000Y-93472000D01*
X167640000Y-93472000D02*
X168910000Y-92202000D01*
X168910000Y-92202000D02*
X168910000Y-90170000D01*
X168910000Y-90170000D02*
X167640000Y-88900000D01*
X165100000Y-93980000D02*
X165100000Y-93472000D01*
X165100000Y-93472000D02*
X166370000Y-92202000D01*
X166370000Y-92202000D02*
X166370000Y-90170000D01*
X166370000Y-90170000D02*
X165100000Y-88900000D01*
X162560000Y-93980000D02*
X162560000Y-93472000D01*
X162560000Y-93472000D02*
X163830000Y-92202000D01*
X163830000Y-92202000D02*
X163830000Y-90170000D01*
X163830000Y-90170000D02*
X162560000Y-88900000D01*
X160020000Y-93980000D02*
X160020000Y-93472000D01*
X160020000Y-93472000D02*
X161290000Y-92202000D01*
X161290000Y-92202000D02*
X161290000Y-90170000D01*
X161290000Y-90170000D02*
X160020000Y-88900000D01*
X157480000Y-93980000D02*
X157480000Y-93472000D01*
X157480000Y-93472000D02*
X158750000Y-92202000D01*
X158750000Y-92202000D02*
X158750000Y-90170000D01*
X158750000Y-90170000D02*
X157480000Y-88900000D01*
X154940000Y-93980000D02*
X154940000Y-93472000D01*
X154940000Y-93472000D02*
X156210000Y-92202000D01*
X156210000Y-92202000D02*
X156210000Y-90170000D01*
X156210000Y-90170000D02*
X154940000Y-88900000D01*
X152400000Y-93980000D02*
X152400000Y-93472000D01*
X152400000Y-93472000D02*
X153670000Y-92202000D01*
X153670000Y-92202000D02*
X153670000Y-90170000D01*
X153670000Y-90170000D02*
X152400000Y-88900000D01*
X149860000Y-93980000D02*
X149860000Y-93472000D01*
X149860000Y-93472000D02*
X151130000Y-92202000D01*
X151130000Y-92202000D02*
X151130000Y-90170000D01*
X151130000Y-90170000D02*
X149860000Y-88900000D01*
X147320000Y-93980000D02*
X147320000Y-93472000D01*
X147320000Y-93472000D02*
X148590000Y-92202000D01*
X148590000Y-92202000D02*
X148590000Y-90170000D01*
X148590000Y-90170000D02*
X147320000Y-88900000D01*
X144780000Y-93980000D02*
X144780000Y-93472000D01*
X144780000Y-93472000D02*
X146050000Y-92202000D01*
X146050000Y-92202000D02*
X146050000Y-90170000D01*
X146050000Y-90170000D02*
X144780000Y-88900000D01*
X142240000Y-93980000D02*
X142240000Y-93472000D01*
X142240000Y-93472000D02*
X143510000Y-92202000D01*
X143510000Y-92202000D02*
X143510000Y-90170000D01*
X143510000Y-90170000D02*
X142240000Y-88900000D01*
X139700000Y-93980000D02*
X139700000Y-93597602D01*
X139700000Y-93597602D02*
X140970000Y-92327602D01*
X140970000Y-92327602D02*
X140970000Y-90170000D01*
X140970000Y-90170000D02*
X139700000Y-88900000D01*
X137160000Y-93980000D02*
X137160000Y-93472000D01*
X137160000Y-93472000D02*
X138430000Y-92202000D01*
X138430000Y-92202000D02*
X138430000Y-90170000D01*
X138430000Y-90170000D02*
X137160000Y-88900000D01*
X134620000Y-93980000D02*
X134620000Y-93472000D01*
X134620000Y-93472000D02*
X135890000Y-92202000D01*
X135890000Y-92202000D02*
X135890000Y-90170000D01*
X135890000Y-90170000D02*
X134620000Y-88900000D01*
X132080000Y-93980000D02*
X132080000Y-93472000D01*
X132080000Y-93472000D02*
X133350000Y-92202000D01*
X133350000Y-92202000D02*
X133350000Y-90170000D01*
X133350000Y-90170000D02*
X132080000Y-88900000D01*
X129540000Y-93980000D02*
X129540000Y-93472000D01*
X129540000Y-93472000D02*
X130810000Y-92202000D01*
X130810000Y-92202000D02*
X130810000Y-90170000D01*
X130810000Y-90170000D02*
X129540000Y-88900000D01*
X127000000Y-93980000D02*
X127000000Y-93726000D01*
X127000000Y-93726000D02*
X128270000Y-92456000D01*
X128270000Y-92456000D02*
X128270000Y-90170000D01*
X128270000Y-90170000D02*
X127000000Y-88900000D01*
M02*
