M48
METRIC,TZ
T1C1.000
T2C1.500
%
G90
G05
T1
X127000Y-88900
X127000Y-91440
X129540Y-88900
X129540Y-91440
X132080Y-88900
X132080Y-91440
X134620Y-88900
X134620Y-91440
X137160Y-88900
X137160Y-91440
X139700Y-88900
X139700Y-91440
X142240Y-88900
X142240Y-91440
X144780Y-88900
X144780Y-91440
X147320Y-88900
X147320Y-91440
X149860Y-88900
X149860Y-91440
X152400Y-88900
X152400Y-91440
X154940Y-88900
X154940Y-91440
X157480Y-88900
X157480Y-91440
X160020Y-88900
X160020Y-91440
X162560Y-88900
X162560Y-91440
X165100Y-88900
X165100Y-91440
X167640Y-88900
X167640Y-91440
X170180Y-88900
X170180Y-91440
X172720Y-88900
X172720Y-91440
X175260Y-88900
X175260Y-91440
T2
X127000Y-93980
X127000Y-109220
X129540Y-93980
X129540Y-109220
X132080Y-93980
X132080Y-109220
X134620Y-93980
X134620Y-109220
X137160Y-93980
X137160Y-109220
X139700Y-93980
X139700Y-109220
X142240Y-93980
X142240Y-109220
X144780Y-93980
X144780Y-109220
X147320Y-93980
X147320Y-109220
X149860Y-93980
X149860Y-109220
X152400Y-93980
X152400Y-109220
X154940Y-93980
X154940Y-109220
X157480Y-93980
X157480Y-109220
X160020Y-93980
X160020Y-109220
X162560Y-93980
X162560Y-109220
X165100Y-93980
X165100Y-109220
X167640Y-93980
X167640Y-109220
X170180Y-93980
X170180Y-109220
X172720Y-93980
X172720Y-109220
X175260Y-93980
X175260Y-109220
T0
M30
