G04 #@! TF.FileFunction,Legend,Bot*
%FSLAX46Y46*%
G04 Gerber Fmt 4.6, Leading zero omitted, Abs format (unit mm)*
G04 Created by KiCad (PCBNEW 4.0.4-stable) date 12/09/17 21:43:02*
%MOMM*%
%LPD*%
G01*
G04 APERTURE LIST*
%ADD10C,0.100000*%
%ADD11C,0.120000*%
%ADD12C,0.150000*%
G04 APERTURE END LIST*
D10*
D11*
X155440000Y-87210000D02*
X154440000Y-87210000D01*
X154440000Y-85510000D02*
X155440000Y-85510000D01*
D12*
X130875000Y-69625000D02*
X130875000Y-69875000D01*
X123125000Y-69625000D02*
X123125000Y-69960000D01*
X123125000Y-82775000D02*
X123125000Y-82440000D01*
X130875000Y-82775000D02*
X130875000Y-82440000D01*
X130875000Y-69625000D02*
X123125000Y-69625000D01*
X130875000Y-82775000D02*
X123125000Y-82775000D01*
X130875000Y-69875000D02*
X132675000Y-69875000D01*
X153735000Y-69625000D02*
X153735000Y-69875000D01*
X145985000Y-69625000D02*
X145985000Y-69960000D01*
X145985000Y-82775000D02*
X145985000Y-82440000D01*
X153735000Y-82775000D02*
X153735000Y-82440000D01*
X153735000Y-69625000D02*
X145985000Y-69625000D01*
X153735000Y-82775000D02*
X145985000Y-82775000D01*
X153735000Y-69875000D02*
X155535000Y-69875000D01*
D11*
X135540000Y-71720000D02*
X136240000Y-71720000D01*
X136240000Y-70520000D02*
X135540000Y-70520000D01*
X141320000Y-70520000D02*
X140620000Y-70520000D01*
X140620000Y-71720000D02*
X141320000Y-71720000D01*
D12*
X155106666Y-84685143D02*
X155154285Y-84732762D01*
X155297142Y-84780381D01*
X155392380Y-84780381D01*
X155535238Y-84732762D01*
X155630476Y-84637524D01*
X155678095Y-84542286D01*
X155725714Y-84351810D01*
X155725714Y-84208952D01*
X155678095Y-84018476D01*
X155630476Y-83923238D01*
X155535238Y-83828000D01*
X155392380Y-83780381D01*
X155297142Y-83780381D01*
X155154285Y-83828000D01*
X155106666Y-83875619D01*
X154154285Y-84780381D02*
X154725714Y-84780381D01*
X154440000Y-84780381D02*
X154440000Y-83780381D01*
X154535238Y-83923238D01*
X154630476Y-84018476D01*
X154725714Y-84066095D01*
X127976190Y-74747381D02*
X127976190Y-73747381D01*
X126928571Y-74652143D02*
X126976190Y-74699762D01*
X127119047Y-74747381D01*
X127214285Y-74747381D01*
X127357143Y-74699762D01*
X127452381Y-74604524D01*
X127500000Y-74509286D01*
X127547619Y-74318810D01*
X127547619Y-74175952D01*
X127500000Y-73985476D01*
X127452381Y-73890238D01*
X127357143Y-73795000D01*
X127214285Y-73747381D01*
X127119047Y-73747381D01*
X126976190Y-73795000D01*
X126928571Y-73842619D01*
X125976190Y-74747381D02*
X126547619Y-74747381D01*
X126261905Y-74747381D02*
X126261905Y-73747381D01*
X126357143Y-73890238D01*
X126452381Y-73985476D01*
X126547619Y-74033095D01*
X151598190Y-74874381D02*
X151598190Y-73874381D01*
X150550571Y-74779143D02*
X150598190Y-74826762D01*
X150741047Y-74874381D01*
X150836285Y-74874381D01*
X150979143Y-74826762D01*
X151074381Y-74731524D01*
X151122000Y-74636286D01*
X151169619Y-74445810D01*
X151169619Y-74302952D01*
X151122000Y-74112476D01*
X151074381Y-74017238D01*
X150979143Y-73922000D01*
X150836285Y-73874381D01*
X150741047Y-73874381D01*
X150598190Y-73922000D01*
X150550571Y-73969619D01*
X150169619Y-73969619D02*
X150122000Y-73922000D01*
X150026762Y-73874381D01*
X149788666Y-73874381D01*
X149693428Y-73922000D01*
X149645809Y-73969619D01*
X149598190Y-74064857D01*
X149598190Y-74160095D01*
X149645809Y-74302952D01*
X150217238Y-74874381D01*
X149598190Y-74874381D01*
X136056666Y-72727143D02*
X136104285Y-72774762D01*
X136247142Y-72822381D01*
X136342380Y-72822381D01*
X136485238Y-72774762D01*
X136580476Y-72679524D01*
X136628095Y-72584286D01*
X136675714Y-72393810D01*
X136675714Y-72250952D01*
X136628095Y-72060476D01*
X136580476Y-71965238D01*
X136485238Y-71870000D01*
X136342380Y-71822381D01*
X136247142Y-71822381D01*
X136104285Y-71870000D01*
X136056666Y-71917619D01*
X135675714Y-71917619D02*
X135628095Y-71870000D01*
X135532857Y-71822381D01*
X135294761Y-71822381D01*
X135199523Y-71870000D01*
X135151904Y-71917619D01*
X135104285Y-72012857D01*
X135104285Y-72108095D01*
X135151904Y-72250952D01*
X135723333Y-72822381D01*
X135104285Y-72822381D01*
X141136666Y-73001143D02*
X141184285Y-73048762D01*
X141327142Y-73096381D01*
X141422380Y-73096381D01*
X141565238Y-73048762D01*
X141660476Y-72953524D01*
X141708095Y-72858286D01*
X141755714Y-72667810D01*
X141755714Y-72524952D01*
X141708095Y-72334476D01*
X141660476Y-72239238D01*
X141565238Y-72144000D01*
X141422380Y-72096381D01*
X141327142Y-72096381D01*
X141184285Y-72144000D01*
X141136666Y-72191619D01*
X140803333Y-72096381D02*
X140184285Y-72096381D01*
X140517619Y-72477333D01*
X140374761Y-72477333D01*
X140279523Y-72524952D01*
X140231904Y-72572571D01*
X140184285Y-72667810D01*
X140184285Y-72905905D01*
X140231904Y-73001143D01*
X140279523Y-73048762D01*
X140374761Y-73096381D01*
X140660476Y-73096381D01*
X140755714Y-73048762D01*
X140803333Y-73001143D01*
M02*
