G04 #@! TF.FileFunction,Legend,Top*
%FSLAX46Y46*%
G04 Gerber Fmt 4.6, Leading zero omitted, Abs format (unit mm)*
G04 Created by KiCad (PCBNEW 4.0.4-stable) date 12/09/17 21:43:02*
%MOMM*%
%LPD*%
G01*
G04 APERTURE LIST*
%ADD10C,0.100000*%
%ADD11C,0.300000*%
%ADD12C,0.120000*%
%ADD13C,0.150000*%
G04 APERTURE END LIST*
D10*
D11*
X125001430Y-71563571D02*
X126001430Y-71563571D01*
X125001430Y-73063571D01*
X126001430Y-73063571D01*
X126430001Y-71563571D02*
X127430001Y-73063571D01*
X127430001Y-71563571D02*
X126430001Y-73063571D01*
X129072857Y-72992143D02*
X129287143Y-73063571D01*
X129644286Y-73063571D01*
X129787143Y-72992143D01*
X129858572Y-72920714D01*
X129930000Y-72777857D01*
X129930000Y-72635000D01*
X129858572Y-72492143D01*
X129787143Y-72420714D01*
X129644286Y-72349286D01*
X129358572Y-72277857D01*
X129215714Y-72206429D01*
X129144286Y-72135000D01*
X129072857Y-71992143D01*
X129072857Y-71849286D01*
X129144286Y-71706429D01*
X129215714Y-71635000D01*
X129358572Y-71563571D01*
X129715714Y-71563571D01*
X129930000Y-71635000D01*
X130572857Y-72063571D02*
X130572857Y-73563571D01*
X130572857Y-72135000D02*
X130715714Y-72063571D01*
X131001428Y-72063571D01*
X131144285Y-72135000D01*
X131215714Y-72206429D01*
X131287143Y-72349286D01*
X131287143Y-72777857D01*
X131215714Y-72920714D01*
X131144285Y-72992143D01*
X131001428Y-73063571D01*
X130715714Y-73063571D01*
X130572857Y-72992143D01*
X132501428Y-72992143D02*
X132358571Y-73063571D01*
X132072857Y-73063571D01*
X131930000Y-72992143D01*
X131858571Y-72849286D01*
X131858571Y-72277857D01*
X131930000Y-72135000D01*
X132072857Y-72063571D01*
X132358571Y-72063571D01*
X132501428Y-72135000D01*
X132572857Y-72277857D01*
X132572857Y-72420714D01*
X131858571Y-72563571D01*
X133858571Y-72992143D02*
X133715714Y-73063571D01*
X133430000Y-73063571D01*
X133287142Y-72992143D01*
X133215714Y-72920714D01*
X133144285Y-72777857D01*
X133144285Y-72349286D01*
X133215714Y-72206429D01*
X133287142Y-72135000D01*
X133430000Y-72063571D01*
X133715714Y-72063571D01*
X133858571Y-72135000D01*
X134287142Y-72063571D02*
X134858571Y-72063571D01*
X134501428Y-71563571D02*
X134501428Y-72849286D01*
X134572856Y-72992143D01*
X134715714Y-73063571D01*
X134858571Y-73063571D01*
X135358571Y-73063571D02*
X135358571Y-72063571D01*
X135358571Y-72349286D02*
X135429999Y-72206429D01*
X135501428Y-72135000D01*
X135644285Y-72063571D01*
X135787142Y-72063571D01*
X136929999Y-72063571D02*
X136929999Y-73063571D01*
X136287142Y-72063571D02*
X136287142Y-72849286D01*
X136358570Y-72992143D01*
X136501428Y-73063571D01*
X136715713Y-73063571D01*
X136858570Y-72992143D01*
X136929999Y-72920714D01*
X137644285Y-73063571D02*
X137644285Y-72063571D01*
X137644285Y-72206429D02*
X137715713Y-72135000D01*
X137858571Y-72063571D01*
X138072856Y-72063571D01*
X138215713Y-72135000D01*
X138287142Y-72277857D01*
X138287142Y-73063571D01*
X138287142Y-72277857D02*
X138358571Y-72135000D01*
X138501428Y-72063571D01*
X138715713Y-72063571D01*
X138858571Y-72135000D01*
X138929999Y-72277857D01*
X138929999Y-73063571D01*
X140787142Y-73063571D02*
X140787142Y-71563571D01*
X141287142Y-72635000D01*
X141787142Y-71563571D01*
X141787142Y-73063571D01*
X142715714Y-73063571D02*
X142572856Y-72992143D01*
X142501428Y-72920714D01*
X142429999Y-72777857D01*
X142429999Y-72349286D01*
X142501428Y-72206429D01*
X142572856Y-72135000D01*
X142715714Y-72063571D01*
X142929999Y-72063571D01*
X143072856Y-72135000D01*
X143144285Y-72206429D01*
X143215714Y-72349286D01*
X143215714Y-72777857D01*
X143144285Y-72920714D01*
X143072856Y-72992143D01*
X142929999Y-73063571D01*
X142715714Y-73063571D01*
X144501428Y-73063571D02*
X144501428Y-71563571D01*
X144501428Y-72992143D02*
X144358571Y-73063571D01*
X144072857Y-73063571D01*
X143929999Y-72992143D01*
X143858571Y-72920714D01*
X143787142Y-72777857D01*
X143787142Y-72349286D01*
X143858571Y-72206429D01*
X143929999Y-72135000D01*
X144072857Y-72063571D01*
X144358571Y-72063571D01*
X144501428Y-72135000D01*
X147215714Y-73063571D02*
X146715714Y-72349286D01*
X146358571Y-73063571D02*
X146358571Y-71563571D01*
X146929999Y-71563571D01*
X147072857Y-71635000D01*
X147144285Y-71706429D01*
X147215714Y-71849286D01*
X147215714Y-72063571D01*
X147144285Y-72206429D01*
X147072857Y-72277857D01*
X146929999Y-72349286D01*
X146358571Y-72349286D01*
X148429999Y-72992143D02*
X148287142Y-73063571D01*
X148001428Y-73063571D01*
X147858571Y-72992143D01*
X147787142Y-72849286D01*
X147787142Y-72277857D01*
X147858571Y-72135000D01*
X148001428Y-72063571D01*
X148287142Y-72063571D01*
X148429999Y-72135000D01*
X148501428Y-72277857D01*
X148501428Y-72420714D01*
X147787142Y-72563571D01*
X149001428Y-72063571D02*
X149358571Y-73063571D01*
X149715713Y-72063571D01*
X150287142Y-72920714D02*
X150358570Y-72992143D01*
X150287142Y-73063571D01*
X150215713Y-72992143D01*
X150287142Y-72920714D01*
X150287142Y-73063571D01*
X150929999Y-71706429D02*
X151001428Y-71635000D01*
X151144285Y-71563571D01*
X151501428Y-71563571D01*
X151644285Y-71635000D01*
X151715714Y-71706429D01*
X151787142Y-71849286D01*
X151787142Y-71992143D01*
X151715714Y-72206429D01*
X150858571Y-73063571D01*
X151787142Y-73063571D01*
X124787143Y-74613571D02*
X124787143Y-75827857D01*
X124715714Y-75970714D01*
X124644286Y-76042143D01*
X124501429Y-76113571D01*
X124287143Y-76113571D01*
X124144286Y-76042143D01*
X124787143Y-75542143D02*
X124644286Y-75613571D01*
X124358572Y-75613571D01*
X124215714Y-75542143D01*
X124144286Y-75470714D01*
X124072857Y-75327857D01*
X124072857Y-74899286D01*
X124144286Y-74756429D01*
X124215714Y-74685000D01*
X124358572Y-74613571D01*
X124644286Y-74613571D01*
X124787143Y-74685000D01*
X125501429Y-75613571D02*
X125501429Y-74613571D01*
X125501429Y-74113571D02*
X125430000Y-74185000D01*
X125501429Y-74256429D01*
X125572857Y-74185000D01*
X125501429Y-74113571D01*
X125501429Y-74256429D01*
X126001429Y-74613571D02*
X126572858Y-74613571D01*
X126215715Y-74113571D02*
X126215715Y-75399286D01*
X126287143Y-75542143D01*
X126430001Y-75613571D01*
X126572858Y-75613571D01*
X127072858Y-75613571D02*
X127072858Y-74113571D01*
X127715715Y-75613571D02*
X127715715Y-74827857D01*
X127644286Y-74685000D01*
X127501429Y-74613571D01*
X127287144Y-74613571D01*
X127144286Y-74685000D01*
X127072858Y-74756429D01*
X129072858Y-74613571D02*
X129072858Y-75613571D01*
X128430001Y-74613571D02*
X128430001Y-75399286D01*
X128501429Y-75542143D01*
X128644287Y-75613571D01*
X128858572Y-75613571D01*
X129001429Y-75542143D01*
X129072858Y-75470714D01*
X129787144Y-75613571D02*
X129787144Y-74113571D01*
X129787144Y-74685000D02*
X129930001Y-74613571D01*
X130215715Y-74613571D01*
X130358572Y-74685000D01*
X130430001Y-74756429D01*
X130501430Y-74899286D01*
X130501430Y-75327857D01*
X130430001Y-75470714D01*
X130358572Y-75542143D01*
X130215715Y-75613571D01*
X129930001Y-75613571D01*
X129787144Y-75542143D01*
X131144287Y-75470714D02*
X131215715Y-75542143D01*
X131144287Y-75613571D01*
X131072858Y-75542143D01*
X131144287Y-75470714D01*
X131144287Y-75613571D01*
X132501430Y-75542143D02*
X132358573Y-75613571D01*
X132072859Y-75613571D01*
X131930001Y-75542143D01*
X131858573Y-75470714D01*
X131787144Y-75327857D01*
X131787144Y-74899286D01*
X131858573Y-74756429D01*
X131930001Y-74685000D01*
X132072859Y-74613571D01*
X132358573Y-74613571D01*
X132501430Y-74685000D01*
X133358573Y-75613571D02*
X133215715Y-75542143D01*
X133144287Y-75470714D01*
X133072858Y-75327857D01*
X133072858Y-74899286D01*
X133144287Y-74756429D01*
X133215715Y-74685000D01*
X133358573Y-74613571D01*
X133572858Y-74613571D01*
X133715715Y-74685000D01*
X133787144Y-74756429D01*
X133858573Y-74899286D01*
X133858573Y-75327857D01*
X133787144Y-75470714D01*
X133715715Y-75542143D01*
X133572858Y-75613571D01*
X133358573Y-75613571D01*
X134501430Y-75613571D02*
X134501430Y-74613571D01*
X134501430Y-74756429D02*
X134572858Y-74685000D01*
X134715716Y-74613571D01*
X134930001Y-74613571D01*
X135072858Y-74685000D01*
X135144287Y-74827857D01*
X135144287Y-75613571D01*
X135144287Y-74827857D02*
X135215716Y-74685000D01*
X135358573Y-74613571D01*
X135572858Y-74613571D01*
X135715716Y-74685000D01*
X135787144Y-74827857D01*
X135787144Y-75613571D01*
X137572858Y-74042143D02*
X136287144Y-75970714D01*
X138715716Y-75542143D02*
X138572859Y-75613571D01*
X138287145Y-75613571D01*
X138144287Y-75542143D01*
X138072859Y-75470714D01*
X138001430Y-75327857D01*
X138001430Y-74899286D01*
X138072859Y-74756429D01*
X138144287Y-74685000D01*
X138287145Y-74613571D01*
X138572859Y-74613571D01*
X138715716Y-74685000D01*
X139644287Y-74113571D02*
X139787144Y-74113571D01*
X139930001Y-74185000D01*
X140001430Y-74256429D01*
X140072859Y-74399286D01*
X140144287Y-74685000D01*
X140144287Y-75042143D01*
X140072859Y-75327857D01*
X140001430Y-75470714D01*
X139930001Y-75542143D01*
X139787144Y-75613571D01*
X139644287Y-75613571D01*
X139501430Y-75542143D01*
X139430001Y-75470714D01*
X139358573Y-75327857D01*
X139287144Y-75042143D01*
X139287144Y-74685000D01*
X139358573Y-74399286D01*
X139430001Y-74256429D01*
X139501430Y-74185000D01*
X139644287Y-74113571D01*
X140787144Y-74613571D02*
X140787144Y-76113571D01*
X140787144Y-74685000D02*
X140930001Y-74613571D01*
X141215715Y-74613571D01*
X141358572Y-74685000D01*
X141430001Y-74756429D01*
X141501430Y-74899286D01*
X141501430Y-75327857D01*
X141430001Y-75470714D01*
X141358572Y-75542143D01*
X141215715Y-75613571D01*
X140930001Y-75613571D01*
X140787144Y-75542143D01*
X142144287Y-74613571D02*
X142144287Y-76113571D01*
X142144287Y-74685000D02*
X142287144Y-74613571D01*
X142572858Y-74613571D01*
X142715715Y-74685000D01*
X142787144Y-74756429D01*
X142858573Y-74899286D01*
X142858573Y-75327857D01*
X142787144Y-75470714D01*
X142715715Y-75542143D01*
X142572858Y-75613571D01*
X142287144Y-75613571D01*
X142144287Y-75542143D01*
X144072858Y-75542143D02*
X143930001Y-75613571D01*
X143644287Y-75613571D01*
X143501430Y-75542143D01*
X143430001Y-75399286D01*
X143430001Y-74827857D01*
X143501430Y-74685000D01*
X143644287Y-74613571D01*
X143930001Y-74613571D01*
X144072858Y-74685000D01*
X144144287Y-74827857D01*
X144144287Y-74970714D01*
X143430001Y-75113571D01*
X144787144Y-75613571D02*
X144787144Y-74613571D01*
X144787144Y-74899286D02*
X144858572Y-74756429D01*
X144930001Y-74685000D01*
X145072858Y-74613571D01*
X145215715Y-74613571D01*
X146358572Y-75613571D02*
X146358572Y-74113571D01*
X146358572Y-75542143D02*
X146215715Y-75613571D01*
X145930001Y-75613571D01*
X145787143Y-75542143D01*
X145715715Y-75470714D01*
X145644286Y-75327857D01*
X145644286Y-74899286D01*
X145715715Y-74756429D01*
X145787143Y-74685000D01*
X145930001Y-74613571D01*
X146215715Y-74613571D01*
X146358572Y-74685000D01*
X147072858Y-75613571D02*
X147072858Y-74613571D01*
X147072858Y-74899286D02*
X147144286Y-74756429D01*
X147215715Y-74685000D01*
X147358572Y-74613571D01*
X147501429Y-74613571D01*
X148644286Y-75613571D02*
X148644286Y-74827857D01*
X148572857Y-74685000D01*
X148430000Y-74613571D01*
X148144286Y-74613571D01*
X148001429Y-74685000D01*
X148644286Y-75542143D02*
X148501429Y-75613571D01*
X148144286Y-75613571D01*
X148001429Y-75542143D01*
X147930000Y-75399286D01*
X147930000Y-75256429D01*
X148001429Y-75113571D01*
X148144286Y-75042143D01*
X148501429Y-75042143D01*
X148644286Y-74970714D01*
X150001429Y-74613571D02*
X150001429Y-75827857D01*
X149930000Y-75970714D01*
X149858572Y-76042143D01*
X149715715Y-76113571D01*
X149501429Y-76113571D01*
X149358572Y-76042143D01*
X150001429Y-75542143D02*
X149858572Y-75613571D01*
X149572858Y-75613571D01*
X149430000Y-75542143D01*
X149358572Y-75470714D01*
X149287143Y-75327857D01*
X149287143Y-74899286D01*
X149358572Y-74756429D01*
X149430000Y-74685000D01*
X149572858Y-74613571D01*
X149858572Y-74613571D01*
X150001429Y-74685000D01*
X150930001Y-75613571D02*
X150787143Y-75542143D01*
X150715715Y-75470714D01*
X150644286Y-75327857D01*
X150644286Y-74899286D01*
X150715715Y-74756429D01*
X150787143Y-74685000D01*
X150930001Y-74613571D01*
X151144286Y-74613571D01*
X151287143Y-74685000D01*
X151358572Y-74756429D01*
X151430001Y-74899286D01*
X151430001Y-75327857D01*
X151358572Y-75470714D01*
X151287143Y-75542143D01*
X151144286Y-75613571D01*
X150930001Y-75613571D01*
X152072858Y-74613571D02*
X152072858Y-75613571D01*
X152072858Y-74756429D02*
X152144286Y-74685000D01*
X152287144Y-74613571D01*
X152501429Y-74613571D01*
X152644286Y-74685000D01*
X152715715Y-74827857D01*
X152715715Y-75613571D01*
X149038571Y-83688857D02*
X150538571Y-83331714D01*
X149467143Y-83046000D01*
X150538571Y-82760286D01*
X149038571Y-82403143D01*
X150538571Y-80974571D02*
X149824286Y-81474571D01*
X150538571Y-81831714D02*
X149038571Y-81831714D01*
X149038571Y-81260286D01*
X149110000Y-81117428D01*
X149181429Y-81046000D01*
X149324286Y-80974571D01*
X149538571Y-80974571D01*
X149681429Y-81046000D01*
X149752857Y-81117428D01*
X149824286Y-81260286D01*
X149824286Y-81831714D01*
X147998571Y-83772000D02*
X146498571Y-83772000D01*
X146498571Y-82772000D02*
X146498571Y-82486286D01*
X146570000Y-82343428D01*
X146712857Y-82200571D01*
X146998571Y-82129143D01*
X147498571Y-82129143D01*
X147784286Y-82200571D01*
X147927143Y-82343428D01*
X147998571Y-82486286D01*
X147998571Y-82772000D01*
X147927143Y-82914857D01*
X147784286Y-83057714D01*
X147498571Y-83129143D01*
X146998571Y-83129143D01*
X146712857Y-83057714D01*
X146570000Y-82914857D01*
X146498571Y-82772000D01*
X147998571Y-80629142D02*
X147284286Y-81129142D01*
X147998571Y-81486285D02*
X146498571Y-81486285D01*
X146498571Y-80914857D01*
X146570000Y-80771999D01*
X146641429Y-80700571D01*
X146784286Y-80629142D01*
X146998571Y-80629142D01*
X147141429Y-80700571D01*
X147212857Y-80771999D01*
X147284286Y-80914857D01*
X147284286Y-81486285D01*
X147212857Y-79986285D02*
X147212857Y-79486285D01*
X147998571Y-79271999D02*
X147998571Y-79986285D01*
X146498571Y-79986285D01*
X146498571Y-79271999D01*
X148141429Y-77629142D02*
X148070000Y-77771999D01*
X147927143Y-77914856D01*
X147712857Y-78129142D01*
X147641429Y-78271999D01*
X147641429Y-78414856D01*
X147998571Y-78343428D02*
X147927143Y-78486285D01*
X147784286Y-78629142D01*
X147498571Y-78700571D01*
X146998571Y-78700571D01*
X146712857Y-78629142D01*
X146570000Y-78486285D01*
X146498571Y-78343428D01*
X146498571Y-78057714D01*
X146570000Y-77914856D01*
X146712857Y-77771999D01*
X146998571Y-77700571D01*
X147498571Y-77700571D01*
X147784286Y-77771999D01*
X147927143Y-77914856D01*
X147998571Y-78057714D01*
X147998571Y-78343428D01*
X145315714Y-82934856D02*
X145387143Y-83006285D01*
X145458571Y-83220571D01*
X145458571Y-83363428D01*
X145387143Y-83577713D01*
X145244286Y-83720571D01*
X145101429Y-83791999D01*
X144815714Y-83863428D01*
X144601429Y-83863428D01*
X144315714Y-83791999D01*
X144172857Y-83720571D01*
X144030000Y-83577713D01*
X143958571Y-83363428D01*
X143958571Y-83220571D01*
X144030000Y-83006285D01*
X144101429Y-82934856D01*
X145030000Y-82363428D02*
X145030000Y-81649142D01*
X145458571Y-82506285D02*
X143958571Y-82006285D01*
X145458571Y-81506285D01*
X145387143Y-81077714D02*
X145458571Y-80863428D01*
X145458571Y-80506285D01*
X145387143Y-80363428D01*
X145315714Y-80291999D01*
X145172857Y-80220571D01*
X145030000Y-80220571D01*
X144887143Y-80291999D01*
X144815714Y-80363428D01*
X144744286Y-80506285D01*
X144672857Y-80791999D01*
X144601429Y-80934857D01*
X144530000Y-81006285D01*
X144387143Y-81077714D01*
X144244286Y-81077714D01*
X144101429Y-81006285D01*
X144030000Y-80934857D01*
X143958571Y-80791999D01*
X143958571Y-80434857D01*
X144030000Y-80220571D01*
X142918571Y-83911142D02*
X141418571Y-83911142D01*
X141418571Y-83553999D01*
X141490000Y-83339714D01*
X141632857Y-83196856D01*
X141775714Y-83125428D01*
X142061429Y-83053999D01*
X142275714Y-83053999D01*
X142561429Y-83125428D01*
X142704286Y-83196856D01*
X142847143Y-83339714D01*
X142918571Y-83553999D01*
X142918571Y-83911142D01*
X141418571Y-82125428D02*
X141418571Y-81982571D01*
X141490000Y-81839714D01*
X141561429Y-81768285D01*
X141704286Y-81696856D01*
X141990000Y-81625428D01*
X142347143Y-81625428D01*
X142632857Y-81696856D01*
X142775714Y-81768285D01*
X142847143Y-81839714D01*
X142918571Y-81982571D01*
X142918571Y-82125428D01*
X142847143Y-82268285D01*
X142775714Y-82339714D01*
X142632857Y-82411142D01*
X142347143Y-82482571D01*
X141990000Y-82482571D01*
X141704286Y-82411142D01*
X141561429Y-82339714D01*
X141490000Y-82268285D01*
X141418571Y-82125428D01*
X140378571Y-83911142D02*
X138878571Y-83911142D01*
X138878571Y-83553999D01*
X138950000Y-83339714D01*
X139092857Y-83196856D01*
X139235714Y-83125428D01*
X139521429Y-83053999D01*
X139735714Y-83053999D01*
X140021429Y-83125428D01*
X140164286Y-83196856D01*
X140307143Y-83339714D01*
X140378571Y-83553999D01*
X140378571Y-83911142D01*
X140378571Y-81625428D02*
X140378571Y-82482571D01*
X140378571Y-82053999D02*
X138878571Y-82053999D01*
X139092857Y-82196856D01*
X139235714Y-82339714D01*
X139307143Y-82482571D01*
X137838571Y-83911142D02*
X136338571Y-83911142D01*
X136338571Y-83553999D01*
X136410000Y-83339714D01*
X136552857Y-83196856D01*
X136695714Y-83125428D01*
X136981429Y-83053999D01*
X137195714Y-83053999D01*
X137481429Y-83125428D01*
X137624286Y-83196856D01*
X137767143Y-83339714D01*
X137838571Y-83553999D01*
X137838571Y-83911142D01*
X136481429Y-82482571D02*
X136410000Y-82411142D01*
X136338571Y-82268285D01*
X136338571Y-81911142D01*
X136410000Y-81768285D01*
X136481429Y-81696856D01*
X136624286Y-81625428D01*
X136767143Y-81625428D01*
X136981429Y-81696856D01*
X137838571Y-82553999D01*
X137838571Y-81625428D01*
X135298571Y-83911142D02*
X133798571Y-83911142D01*
X133798571Y-83553999D01*
X133870000Y-83339714D01*
X134012857Y-83196856D01*
X134155714Y-83125428D01*
X134441429Y-83053999D01*
X134655714Y-83053999D01*
X134941429Y-83125428D01*
X135084286Y-83196856D01*
X135227143Y-83339714D01*
X135298571Y-83553999D01*
X135298571Y-83911142D01*
X133798571Y-82553999D02*
X133798571Y-81625428D01*
X134370000Y-82125428D01*
X134370000Y-81911142D01*
X134441429Y-81768285D01*
X134512857Y-81696856D01*
X134655714Y-81625428D01*
X135012857Y-81625428D01*
X135155714Y-81696856D01*
X135227143Y-81768285D01*
X135298571Y-81911142D01*
X135298571Y-82339714D01*
X135227143Y-82482571D01*
X135155714Y-82553999D01*
X132758571Y-83911142D02*
X131258571Y-83911142D01*
X131258571Y-83553999D01*
X131330000Y-83339714D01*
X131472857Y-83196856D01*
X131615714Y-83125428D01*
X131901429Y-83053999D01*
X132115714Y-83053999D01*
X132401429Y-83125428D01*
X132544286Y-83196856D01*
X132687143Y-83339714D01*
X132758571Y-83553999D01*
X132758571Y-83911142D01*
X131758571Y-81768285D02*
X132758571Y-81768285D01*
X131187143Y-82125428D02*
X132258571Y-82482571D01*
X132258571Y-81553999D01*
X130218571Y-83911142D02*
X128718571Y-83911142D01*
X128718571Y-83553999D01*
X128790000Y-83339714D01*
X128932857Y-83196856D01*
X129075714Y-83125428D01*
X129361429Y-83053999D01*
X129575714Y-83053999D01*
X129861429Y-83125428D01*
X130004286Y-83196856D01*
X130147143Y-83339714D01*
X130218571Y-83553999D01*
X130218571Y-83911142D01*
X128718571Y-81696856D02*
X128718571Y-82411142D01*
X129432857Y-82482571D01*
X129361429Y-82411142D01*
X129290000Y-82268285D01*
X129290000Y-81911142D01*
X129361429Y-81768285D01*
X129432857Y-81696856D01*
X129575714Y-81625428D01*
X129932857Y-81625428D01*
X130075714Y-81696856D01*
X130147143Y-81768285D01*
X130218571Y-81911142D01*
X130218571Y-82268285D01*
X130147143Y-82411142D01*
X130075714Y-82482571D01*
X127678571Y-83911142D02*
X126178571Y-83911142D01*
X126178571Y-83553999D01*
X126250000Y-83339714D01*
X126392857Y-83196856D01*
X126535714Y-83125428D01*
X126821429Y-83053999D01*
X127035714Y-83053999D01*
X127321429Y-83125428D01*
X127464286Y-83196856D01*
X127607143Y-83339714D01*
X127678571Y-83553999D01*
X127678571Y-83911142D01*
X126178571Y-81768285D02*
X126178571Y-82053999D01*
X126250000Y-82196856D01*
X126321429Y-82268285D01*
X126535714Y-82411142D01*
X126821429Y-82482571D01*
X127392857Y-82482571D01*
X127535714Y-82411142D01*
X127607143Y-82339714D01*
X127678571Y-82196856D01*
X127678571Y-81911142D01*
X127607143Y-81768285D01*
X127535714Y-81696856D01*
X127392857Y-81625428D01*
X127035714Y-81625428D01*
X126892857Y-81696856D01*
X126821429Y-81768285D01*
X126750000Y-81911142D01*
X126750000Y-82196856D01*
X126821429Y-82339714D01*
X126892857Y-82411142D01*
X127035714Y-82482571D01*
X125138571Y-83911142D02*
X123638571Y-83911142D01*
X123638571Y-83553999D01*
X123710000Y-83339714D01*
X123852857Y-83196856D01*
X123995714Y-83125428D01*
X124281429Y-83053999D01*
X124495714Y-83053999D01*
X124781429Y-83125428D01*
X124924286Y-83196856D01*
X125067143Y-83339714D01*
X125138571Y-83553999D01*
X125138571Y-83911142D01*
X123638571Y-82553999D02*
X123638571Y-81553999D01*
X125138571Y-82196856D01*
D12*
X118170000Y-69790000D02*
X115510000Y-69790000D01*
X118170000Y-85090000D02*
X118170000Y-69790000D01*
X115510000Y-85090000D02*
X115510000Y-69790000D01*
X118170000Y-85090000D02*
X115510000Y-85090000D01*
X118170000Y-86360000D02*
X118170000Y-87690000D01*
X118170000Y-87690000D02*
X116840000Y-87690000D01*
X158690000Y-87690000D02*
X161350000Y-87690000D01*
X158690000Y-72390000D02*
X158690000Y-87690000D01*
X161350000Y-72390000D02*
X161350000Y-87690000D01*
X158690000Y-72390000D02*
X161350000Y-72390000D01*
X158690000Y-71120000D02*
X158690000Y-69790000D01*
X158690000Y-69790000D02*
X160020000Y-69790000D01*
X123130000Y-85030000D02*
X123130000Y-87690000D01*
X148590000Y-85030000D02*
X123130000Y-85030000D01*
X148590000Y-87690000D02*
X123130000Y-87690000D01*
X148590000Y-85030000D02*
X148590000Y-87690000D01*
X149860000Y-85030000D02*
X151190000Y-85030000D01*
X151190000Y-85030000D02*
X151190000Y-86360000D01*
D13*
X118197381Y-78946191D02*
X118197381Y-78755714D01*
X118245000Y-78660476D01*
X118340238Y-78565238D01*
X118530714Y-78517619D01*
X118864048Y-78517619D01*
X119054524Y-78565238D01*
X119149762Y-78660476D01*
X119197381Y-78755714D01*
X119197381Y-78946191D01*
X119149762Y-79041429D01*
X119054524Y-79136667D01*
X118864048Y-79184286D01*
X118530714Y-79184286D01*
X118340238Y-79136667D01*
X118245000Y-79041429D01*
X118197381Y-78946191D01*
X118197381Y-78089048D02*
X119006905Y-78089048D01*
X119102143Y-78041429D01*
X119149762Y-77993810D01*
X119197381Y-77898572D01*
X119197381Y-77708095D01*
X119149762Y-77612857D01*
X119102143Y-77565238D01*
X119006905Y-77517619D01*
X118197381Y-77517619D01*
X118197381Y-77184286D02*
X118197381Y-76612857D01*
X119197381Y-76898572D02*
X118197381Y-76898572D01*
X119197381Y-75755714D02*
X119197381Y-76327143D01*
X119197381Y-76041429D02*
X118197381Y-76041429D01*
X118340238Y-76136667D01*
X118435476Y-76231905D01*
X118483095Y-76327143D01*
X157440381Y-79454191D02*
X157440381Y-79263714D01*
X157488000Y-79168476D01*
X157583238Y-79073238D01*
X157773714Y-79025619D01*
X158107048Y-79025619D01*
X158297524Y-79073238D01*
X158392762Y-79168476D01*
X158440381Y-79263714D01*
X158440381Y-79454191D01*
X158392762Y-79549429D01*
X158297524Y-79644667D01*
X158107048Y-79692286D01*
X157773714Y-79692286D01*
X157583238Y-79644667D01*
X157488000Y-79549429D01*
X157440381Y-79454191D01*
X157440381Y-78597048D02*
X158249905Y-78597048D01*
X158345143Y-78549429D01*
X158392762Y-78501810D01*
X158440381Y-78406572D01*
X158440381Y-78216095D01*
X158392762Y-78120857D01*
X158345143Y-78073238D01*
X158249905Y-78025619D01*
X157440381Y-78025619D01*
X157440381Y-77692286D02*
X157440381Y-77120857D01*
X158440381Y-77406572D02*
X157440381Y-77406572D01*
X157535619Y-76835143D02*
X157488000Y-76787524D01*
X157440381Y-76692286D01*
X157440381Y-76454190D01*
X157488000Y-76358952D01*
X157535619Y-76311333D01*
X157630857Y-76263714D01*
X157726095Y-76263714D01*
X157868952Y-76311333D01*
X158440381Y-76882762D01*
X158440381Y-76263714D01*
X120666000Y-86812381D02*
X120666000Y-85812381D01*
X121142190Y-86812381D02*
X121142190Y-85812381D01*
X121713619Y-86812381D01*
X121713619Y-85812381D01*
X122713619Y-86812381D02*
X122142190Y-86812381D01*
X122427904Y-86812381D02*
X122427904Y-85812381D01*
X122332666Y-85955238D01*
X122237428Y-86050476D01*
X122142190Y-86098095D01*
M02*
