M48
METRIC,TZ
T1C0.400
T2C1.000
%
G90
G05
T1
X124968Y-71882
X127000Y-82042
X127254Y-79248
X128524Y-76708
X129286Y-78232
X129286Y-82042
X131826Y-83566
X138430Y-71120
X141224Y-72390
X147828Y-71882
X147828Y-74168
X147828Y-76454
X147828Y-79248
X147828Y-81788
X151638Y-82042
X151892Y-71882
X157226Y-82296
T2
X116840Y-71120
X116840Y-73660
X116840Y-76200
X116840Y-78740
X116840Y-81280
X116840Y-83820
X116840Y-86360
X124460Y-86360
X127000Y-86360
X129540Y-86360
X132080Y-86360
X134620Y-86360
X137160Y-86360
X139700Y-86360
X142240Y-86360
X144780Y-86360
X147320Y-86360
X149860Y-86360
X160020Y-71120
X160020Y-73660
X160020Y-76200
X160020Y-78740
X160020Y-81280
X160020Y-83820
X160020Y-86360
T0
M30
